<svg width="50" height="50" viewBox="0 0 50 50" fill="none" xmlns="http://www.w3.org/2000/svg">
<circle cx="25" cy="25" r="24" stroke="white" stroke-width="2"/>
<path d="M27.7189 10.775C26.9502 10.9625 26.2377 11.525 25.9189 12.2C24.9814 14.1875 26.5314 16.3188 28.7314 16.05C29.5627 15.95 30.3564 15.375 30.7564 14.575C30.9627 14.1688 30.9689 14.1313 30.9689 13.4063C30.9689 12.6813 30.9627 12.6375 30.7689 12.2438C30.2002 11.0938 28.9252 10.4813 27.7189 10.775Z" fill="#E50914"/>
<path d="M25.6752 16.9062C25.3002 16.975 24.6065 17.2375 22.5502 18.1125C21.094 18.725 19.769 19.2812 19.594 19.3438C19.1627 19.5 18.6877 19.9937 18.494 20.4688C18.3502 20.8312 18.344 20.9 18.3252 22.9062C18.3127 24.3062 18.3252 25.0437 18.3752 25.2063C18.469 25.525 18.8252 25.9125 19.1127 26.0062C19.744 26.2125 20.494 26.0062 20.8002 25.5437L20.969 25.2937L20.9877 23.4312L21.0065 21.5688L21.4877 21.3813C21.7502 21.2812 22.2627 21.0812 22.619 20.9438C22.9815 20.8 23.2877 20.7 23.3002 20.7188C23.3315 20.75 23.2627 21.1125 22.119 26.9125L21.2377 31.3562L18.6377 30.8313C17.2002 30.5437 15.8752 30.3 15.6877 30.3C14.8627 30.2875 14.2565 30.8687 14.3315 31.6062C14.394 32.2 14.769 32.75 15.2752 32.9688C15.3815 33.0187 16.7627 33.3 18.3377 33.6C21.644 34.225 21.844 34.2375 22.5815 33.8875C23.1315 33.6312 23.6377 33.15 23.8752 32.6625C23.9877 32.4187 24.2065 31.65 24.469 30.5687C24.694 29.625 24.8815 28.85 24.894 28.8375C24.9002 28.8313 25.5127 29.4 26.2502 30.1062L27.594 31.3875L27.6252 34.925L27.6565 38.4688L27.8315 38.7625C28.0815 39.1937 28.469 39.4062 29.0002 39.4062C29.5315 39.4062 29.919 39.1937 30.169 38.7625L30.344 38.4688L30.3627 34.4688C30.3815 30.2188 30.3627 29.9125 30.094 29.3687C29.9252 29.0375 29.8752 28.9875 28.519 27.7312C27.9065 27.1625 27.5752 26.8125 27.5877 26.75C27.6065 26.7 27.7815 25.8375 27.9752 24.8438C28.169 23.8438 28.344 23.0187 28.3502 23.0063C28.3627 22.9937 28.5815 23.1812 28.844 23.425C30.2002 24.7188 31.9315 25.6312 33.7377 26.0062C34.669 26.2 35.0627 26.0875 35.469 25.5062C35.6377 25.2625 35.6565 25.1937 35.6565 24.7562C35.6565 24.3187 35.6377 24.2437 35.4752 24.0062C35.2315 23.6562 34.9065 23.475 34.1565 23.2875C32.7877 22.9375 31.8377 22.4438 30.9752 21.625C30.4877 21.1625 30.444 21.0938 29.3065 19.2563C28.9065 18.6062 28.4315 17.9312 28.2252 17.7062C27.819 17.2687 27.3065 16.975 26.7565 16.875C26.3627 16.8 26.3065 16.8 25.6752 16.9062Z" fill="#E50914"/>
</svg>
