<svg width="50" height="50" viewBox="0 0 50 50" fill="none" xmlns="http://www.w3.org/2000/svg">
<circle cx="25" cy="25" r="24" stroke="white" stroke-width="2"/>
<g clip-path="url(#clip0_198_635)">
<path d="M24.1656 13.0891C23.6313 13.2438 23.275 13.4594 22.8438 13.8906C22.2109 14.5234 21.9531 15.1422 21.9531 16.0469C21.9531 16.9516 22.2109 17.5703 22.8438 18.2031C23.4766 18.8359 24.0953 19.0938 25 19.0938C25.9047 19.0938 26.5234 18.8359 27.1562 18.2031C27.7891 17.5703 28.0469 16.9516 28.0469 16.0469C28.0469 15.1422 27.7891 14.5234 27.1562 13.8906C26.7203 13.4547 26.3125 13.2109 25.7688 13.075C25.3703 12.9719 24.55 12.9813 24.1656 13.0891Z" fill="#E50914"/>
<path d="M21.4516 20.5703C20.3172 20.8797 19.375 22.0187 19.375 23.0875V23.3125H25H30.625V23.0875C30.625 22.2437 29.9313 21.1891 29.1203 20.7953C28.4969 20.4953 28.5766 20.5 24.9719 20.5047C22.3094 20.5047 21.6484 20.5187 21.4516 20.5703Z" fill="#E50914"/>
<path d="M13 25.7734V26.8281H25H37V25.7734V24.7188H25H13V25.7734Z" fill="#E50914"/>
<path d="M13 32.6172V37H25H37V32.6172V28.2344H25H13V32.6172Z" fill="#E50914"/>
</g>
<defs>
<clipPath id="clip0_198_635">
<rect width="24" height="24" fill="white" transform="translate(13 13)"/>
</clipPath>
</defs>
</svg>
