<svg width="50" height="50" viewBox="0 0 50 50" fill="none" xmlns="http://www.w3.org/2000/svg">
<circle cx="25" cy="25" r="24" stroke="white" stroke-width="2"/>
<path d="M24.211 13.2916C22.3677 13.7686 20.9433 15.2059 20.4728 17.0492C20.2923 17.7518 20.2923 18.8732 20.4728 19.5758C20.8466 21.0453 21.8198 22.2635 23.1476 22.9209C23.9597 23.327 24.572 23.4688 25.5001 23.4688C26.4282 23.4688 27.0405 23.327 27.8526 22.9209C29.1675 22.2699 30.1665 21.0195 30.5274 19.5758C30.7079 18.8732 30.7015 17.7518 30.5274 17.0492C30.0569 15.193 28.6196 13.7557 26.7634 13.2852C26.0737 13.1111 24.8942 13.1111 24.211 13.2916Z" fill="#E50914"/>
<path d="M21.9293 24.6031C20.898 24.79 19.725 25.2734 18.7646 25.9051C18.1846 26.2918 16.9793 27.4971 16.5926 28.0771C15.9416 29.0633 15.4775 30.217 15.2842 31.2934C15.2133 31.7059 15.1875 32.3117 15.1875 33.517C15.1875 35.051 15.1939 35.1799 15.3164 35.3797C15.3873 35.4957 15.5355 35.6439 15.6516 35.7148C15.8578 35.8373 15.9867 35.8438 20.5049 35.8438H25.1455L23.3602 34.052C22.3805 33.0723 21.549 32.2021 21.5104 32.1248C21.4717 32.0475 21.4395 31.8734 21.4395 31.7381C21.4395 31.5898 21.9035 30.101 22.5996 28.0127C23.2377 26.0984 23.7598 24.5258 23.7598 24.5193C23.7598 24.4613 22.3547 24.5258 21.9293 24.6031Z" fill="#E50914"/>
<path d="M27.2402 24.5193C27.2402 24.5258 27.7623 26.0984 28.4004 28.0127C29.0965 30.101 29.5605 31.5898 29.5605 31.7381C29.5605 31.8734 29.5283 32.0475 29.4896 32.1248C29.451 32.2021 28.6195 33.0723 27.6398 34.052L25.8545 35.8438H30.4951C35.0133 35.8438 35.1422 35.8373 35.3484 35.7148C35.4645 35.6439 35.6127 35.4957 35.6836 35.3797C35.8061 35.1799 35.8125 35.051 35.8125 33.517C35.8125 32.3117 35.7867 31.7059 35.7158 31.2934C35.5225 30.217 35.0584 29.0633 34.4074 28.0771C34.0207 27.4971 32.8154 26.2918 32.2354 25.9051C30.8625 25.0027 29.3027 24.5 27.8461 24.5C27.5109 24.5 27.2402 24.5064 27.2402 24.5193Z" fill="#E50914"/>
<path d="M24.501 28.5605L23.5342 31.4609L24.5203 32.4471L25.5 33.4268L26.4797 32.4471L27.4658 31.4609L26.499 28.5605C25.9705 26.9686 25.5193 25.6602 25.5 25.6602C25.4807 25.6602 25.0295 26.9686 24.501 28.5605Z" fill="#E50914"/>
</svg>
