<svg width="50" height="50" viewBox="0 0 50 50" fill="none" xmlns="http://www.w3.org/2000/svg">
<circle cx="25" cy="25" r="24" stroke="white" stroke-width="2"/>
<g clip-path="url(#clip0_198_632)">
<path d="M23.7109 17.0078V20.0156H25H26.2891V17.0078V14H25H23.7109V17.0078Z" fill="#E50914"/>
<path d="M22.0611 15.5684C20.9654 16.1914 20.0545 17.2227 19.5604 18.3871C19.3799 18.8082 19.2123 19.4055 19.1736 19.7621L19.1436 20.0156H20.785H22.4221V17.6953C22.4221 16.4191 22.4178 15.375 22.4092 15.375C22.4049 15.375 22.2459 15.4609 22.0611 15.5684Z" fill="#E50914"/>
<path d="M27.5781 17.691V20.0156H29.2152H30.8566L30.8266 19.7664C30.7879 19.4184 30.6074 18.791 30.4355 18.3785C29.9414 17.2012 28.9789 16.1355 27.8703 15.5254L27.5781 15.3664V17.691Z" fill="#E50914"/>
<path d="M17.6523 22.1211V22.9375H25H32.3477V22.1211V21.3047H25H17.6523V22.1211Z" fill="#E50914"/>
<path d="M19.1133 24.9656C19.1133 25.8164 19.1777 26.3062 19.3754 26.925C19.8008 28.2527 20.6816 29.3914 21.8891 30.1648C22.4047 30.4957 23.1395 30.7836 23.8527 30.9383C24.4715 31.0715 25.5242 31.0715 26.1387 30.9383C26.7617 30.8051 27.0625 30.6977 27.6426 30.4141C29.0648 29.7051 30.1305 28.459 30.6246 26.9207C30.8223 26.3062 30.8867 25.8207 30.8867 24.9656V24.2266H25H19.1133V24.9656Z" fill="#E50914"/>
<path d="M18.6322 30.0316C16.6342 30.2422 14.9283 31.5914 14.2838 33.4734C14.0861 34.0492 14.0389 34.35 14.0131 35.1922L13.9873 36H16.66H19.3283V32.9922V29.9844L19.1479 29.9887C19.0447 29.993 18.8127 30.0102 18.6322 30.0316Z" fill="#E50914"/>
<path d="M30.6719 32.9922V36H33.3402H36.0129L35.9871 35.1922C35.9699 34.5305 35.9441 34.3113 35.8539 33.9547C35.3812 32.0641 33.9203 30.5945 32.0812 30.1562C31.7461 30.0789 31.0629 29.9887 30.7922 29.9844H30.6719V32.9922Z" fill="#E50914"/>
<path d="M20.6172 33.4434V36H25H29.3828V33.4434C29.3828 32.0383 29.3742 30.8867 29.3656 30.8867C29.3527 30.8867 29.1852 30.9941 28.9875 31.1273C28.227 31.6387 27.3504 32.0039 26.3793 32.2059C25.9066 32.3047 25.7348 32.3176 25.0215 32.3219C24.1148 32.3219 23.6035 32.2488 22.8086 31.9953C22.2887 31.832 21.4723 31.4367 21.0125 31.1273C20.8148 30.9941 20.6473 30.8867 20.6344 30.8867C20.6258 30.8867 20.6172 32.0383 20.6172 33.4434Z" fill="#E50914"/>
</g>
<defs>
<clipPath id="clip0_198_632">
<rect width="22" height="22" fill="white" transform="translate(14 14)"/>
</clipPath>
</defs>
</svg>
