<svg width="30" height="38" viewBox="0 0 30 38" fill="none" xmlns="http://www.w3.org/2000/svg">
<path fill-rule="evenodd" clip-rule="evenodd" d="M22.0157 0C22.2486 2.18438 21.3951 4.37956 20.1268 5.95652H20.1269C18.8586 7.53444 16.7771 8.76006 14.7395 8.59809C14.4618 6.45702 15.4909 4.22316 16.666 2.82739C17.9772 1.25137 20.1877 0.0754666 22.0157 0ZM29.5631 27.3647C29.3429 27.2731 24.7467 25.3607 24.6966 19.8195V19.8196C24.6562 15.1965 28.2952 12.9249 28.6063 12.7307C28.6129 12.7266 28.6179 12.7235 28.6214 12.7212C26.4871 9.51199 23.1632 9.07141 21.9792 9.02075C20.2491 8.84068 18.5706 9.52078 17.2 10.0761C16.3297 10.4288 15.5836 10.7311 15.0271 10.7311C14.4061 10.7311 13.6389 10.4185 12.7781 10.0678C11.6509 9.60856 10.3633 9.08394 9.03333 9.10998C5.94965 9.15602 3.10843 10.951 1.51865 13.7857C-1.68158 19.4939 0.701759 27.9503 3.82055 32.5819C5.34668 34.8462 7.16575 37.3966 9.55452 37.3036C10.6235 37.2605 11.3834 36.928 12.1692 36.5843C13.0754 36.1879 14.0159 35.7764 15.5045 35.7764C16.9266 35.7764 17.8259 36.176 18.6906 36.5603C19.5163 36.9272 20.3104 37.2801 21.4981 37.2576C23.9729 37.2107 25.544 34.9465 27.0577 32.6738C28.7506 30.1322 29.4815 27.669 29.5646 27.3889C29.5674 27.3793 29.5695 27.3723 29.5708 27.3679C29.5698 27.3675 29.5673 27.3664 29.5631 27.3647Z" fill="white"/>
</svg>
