<svg width="37" height="38" viewBox="0 0 37 38" fill="none" xmlns="http://www.w3.org/2000/svg">
<mask id="mask0_15_2993" style="mask-type:alpha" maskUnits="userSpaceOnUse" x="0" y="0" width="37" height="38">
<path fill-rule="evenodd" clip-rule="evenodd" d="M0.570801 0H36.9657V37.3061H0.570801V0Z" fill="white"/>
</mask>
<g mask="url(#mask0_15_2993)">
<path fill-rule="evenodd" clip-rule="evenodd" d="M36.9657 18.7671C36.9657 8.40229 28.8184 0 18.7682 0C8.71806 0 0.570801 8.40229 0.570801 18.7671C0.570801 28.1342 7.22534 35.8982 15.9249 37.3061V24.1919H11.3044V18.7671H15.9249V14.6324C15.9249 9.92894 18.6416 7.33088 22.7983 7.33088C24.7893 7.33088 26.8718 7.69742 26.8718 7.69742V12.3159H24.5771C22.3166 12.3159 21.6116 13.7625 21.6116 15.2467V18.7671H26.6585L25.8517 24.1919H21.6116V37.3061C30.3111 35.8982 36.9657 28.1342 36.9657 18.7671Z" fill="#1877F2"/>
</g>
<path fill-rule="evenodd" clip-rule="evenodd" d="M25.6861 23.9162L26.5113 18.472H21.3491V14.939C21.3491 13.4495 22.0702 11.9977 24.3824 11.9977H26.7294V7.36276C26.7294 7.36276 24.5993 6.9949 22.5629 6.9949C18.3113 6.9949 15.5326 9.60226 15.5326 14.3226V18.472H10.8066V23.9162H15.5326V37.0773C16.4802 37.2278 17.4514 37.3061 18.4408 37.3061C19.4302 37.3061 20.4015 37.2278 21.3491 37.0773V23.9162H25.6861Z" fill="white"/>
</svg>
