<svg width="38" height="38" viewBox="0 0 38 38" fill="none" xmlns="http://www.w3.org/2000/svg">
<path d="M37.0065 14.9999H35.5407V14.9224H19.163V22.3837H29.4473C27.9469 26.727 23.9153 29.8449 19.163 29.8449C13.1333 29.8449 8.24455 24.8337 8.24455 18.6531C8.24455 12.4724 13.1333 7.46122 19.163 7.46122C21.9463 7.46122 24.4785 8.53751 26.4065 10.2956L31.5536 5.01954C28.3036 1.91474 23.9562 0 19.163 0C9.11348 0 0.965576 8.35191 0.965576 18.6531C0.965576 28.9542 9.11348 37.3061 19.163 37.3061C29.2125 37.3061 37.3604 28.9542 37.3604 18.6531C37.3604 17.4024 37.2349 16.1815 37.0065 14.9999Z" fill="#FFC107"/>
<path d="M3.24023 9.64313L9.20716 13.9898C10.8217 10.0193 14.7319 7.21588 19.3076 7.21588C22.0854 7.21588 24.6126 8.25678 26.5368 9.95702L31.6737 4.85449C28.4301 1.85178 24.0913 0 19.3076 0C12.3318 0 6.28227 3.91191 3.24023 9.64313Z" fill="#FF3D00"/>
<path d="M19.4592 37.3061C24.165 37.3061 28.4409 35.4271 31.6737 32.3715L26.0351 27.3931C24.1445 28.8933 21.8344 29.7046 19.4592 29.7027C14.7206 29.7027 10.697 26.5501 9.18126 22.1505L3.24023 26.9264C6.25538 33.0824 12.3786 37.3061 19.4592 37.3061Z" fill="#4CAF50"/>
<path d="M37.0066 15.2327H35.5408V15.1556H19.1631V22.5858H29.4474C28.7297 24.6444 27.4369 26.4432 25.7287 27.76L25.7314 27.7582L31.3636 32.6231C30.965 32.9928 37.3605 28.1585 37.3605 18.8707C37.3605 17.6252 37.235 16.4095 37.0066 15.2327Z" fill="#1976D2"/>
</svg>
