<svg width="24" height="24" viewBox="0 0 24 24" fill="none" xmlns="http://www.w3.org/2000/svg">
<path d="M11.3905 0.0281706C9.89992 0.220358 8.7046 0.782858 7.67335 1.77661C5.39054 3.97505 5.14679 7.54223 7.10617 10.0594C8.98585 12.4782 12.4265 13.1625 15.0702 11.6391C17.4046 10.2938 18.6093 7.67817 18.1124 5.04848C17.6484 2.61567 15.689 0.637546 13.2515 0.135983C12.7874 0.0422335 11.7609 -0.0187044 11.3905 0.0281706Z" fill="#E50914"/>
<path d="M6.98438 12.9844C4.90781 13.35 3.00469 14.6391 1.81875 16.4813C1.57031 16.8703 1.26562 17.5313 1.26562 17.686C1.26562 17.9953 2.15625 19.2516 3 20.1282C5.05781 22.2703 7.59844 23.5453 10.5234 23.911C11.1328 23.9907 12.8297 23.986 13.4297 23.911C15.8016 23.6063 17.9109 22.7203 19.7344 21.2625C20.3016 20.8125 21.4125 19.6641 21.8531 19.0782C22.3453 18.4172 22.7344 17.7891 22.7344 17.6438C22.7344 17.5032 22.4719 16.9266 22.2422 16.5703C21.4406 15.3188 20.325 14.2969 19.0734 13.6735C18.1594 13.2188 17.0203 12.9047 16.4438 12.9469C16.2469 12.961 16.1156 13.0078 15.9281 13.125C15.2531 13.5516 15.0375 13.6688 14.6625 13.8328C13.7297 14.2407 12.7781 14.4188 11.7656 14.3766C10.4719 14.325 9.38438 13.9782 8.30156 13.2657C8.06719 13.111 7.81875 12.975 7.74844 12.9563C7.67344 12.9422 7.58438 12.9235 7.54688 12.9141C7.50938 12.9047 7.25625 12.9375 6.98438 12.9844Z" fill="#E50914"/>
</svg>
