<svg width="27" height="27" viewBox="0 0 27 27" fill="none" xmlns="http://www.w3.org/2000/svg">
<path d="M9.41836 0.174C9.30762 0.237282 9.17051 0.374392 9.11777 0.474586C8.90684 0.86482 9.04395 1.25505 9.50801 1.6242C10.1777 2.15154 10.6945 2.96365 10.974 3.91287C11.0637 4.224 11.09 4.48767 11.1111 5.3156L11.1375 6.3281L10.7789 6.11717C9.13359 5.15213 6.78691 5.06775 5.02559 5.90623C3.43301 6.66033 2.33086 8.00506 1.68223 9.97732C1.45547 10.6681 1.23926 11.7492 1.18652 12.4453C1.12852 13.2574 1.13906 13.2363 0.864844 13.2363C0.532617 13.2363 0.237305 13.3998 0.105469 13.6582C0.00527344 13.8586 0 13.964 0 17.1914C0 20.4187 0.00527344 20.5242 0.105469 20.7246C0.295312 21.099 0.469336 21.1465 1.61895 21.1465H2.61035L2.91094 21.7687C3.51211 23.0027 4.18711 23.9941 4.99922 24.8431C6.12246 26.0191 7.21406 26.6467 8.51133 26.8734C9.71367 27.0844 10.626 26.8101 11.4855 25.9717L11.918 25.5445L12.3293 25.9453C12.7775 26.3935 13.0781 26.5886 13.6002 26.7732C14.5389 27.116 15.9416 26.8998 17.1123 26.2301C18.5783 25.3969 19.9336 23.8095 20.9197 21.7687L21.2203 21.1517L22.9605 21.1359C24.6006 21.1148 24.7219 21.1095 25.0172 20.9988C25.9084 20.6666 26.5518 20.0179 26.8523 19.1531L26.9736 18.7998V15.082V11.3642L26.8523 11.0109C26.5518 10.1461 25.9031 9.49216 25.0172 9.16521C24.7324 9.05974 24.59 9.0492 23.2453 9.0281L21.7793 9.00701L21.5578 8.57986C20.6771 6.89236 19.1057 5.7322 17.2652 5.4158L16.8908 5.35252L17.1439 4.90955C17.6291 4.07107 17.9033 3.06384 17.9666 1.90896C17.993 1.32888 17.9877 1.26033 17.8822 1.03885C17.666 0.595875 17.2441 0.500954 16.1104 0.638063C15.1875 0.748806 14.2277 1.06521 13.5105 1.48709C13.3471 1.58201 12.9885 1.8826 12.7143 2.15154C12.4453 2.42048 12.2133 2.63142 12.208 2.62615C12.2027 2.6156 12.1395 2.50486 12.0762 2.37302C11.802 1.82986 11.3537 1.21287 10.8686 0.738258C10.1619 0.0368919 9.86133 -0.0791245 9.41836 0.174ZM16.3477 2.34138C16.3477 2.62088 16.0734 3.53318 15.8625 3.94978C15.4037 4.86736 14.6232 5.40525 13.3787 5.66892C12.8777 5.77966 12.8145 5.77439 12.8145 5.62146C12.8145 5.35252 13.0887 4.42966 13.2943 4.01306C13.7109 3.16404 14.4334 2.6367 15.5566 2.34666C16.2211 2.17791 16.3477 2.17791 16.3477 2.34138ZM8.93848 7.06111C9.46582 7.20349 9.87187 7.39334 10.4309 7.76775C11.0373 8.17908 11.359 8.28982 11.918 8.28982C12.477 8.28982 12.8197 8.16853 13.4104 7.76775C13.9324 7.40916 14.349 7.20877 14.8975 7.06111C15.5092 6.89236 16.7643 6.89236 17.376 7.06111C18.9316 7.48299 19.9758 8.54295 20.6086 10.3412C20.8617 11.0531 20.983 11.707 21.1148 13.0359L21.1359 13.2363H11.918H2.7L2.72109 13.0359C2.85293 11.707 2.97422 11.0531 3.22734 10.3412C3.91289 8.40056 5.07305 7.31424 6.81855 6.98201C7.35117 6.88181 8.39531 6.91873 8.93848 7.06111ZM24.5479 10.6892C25.033 10.8527 25.418 11.3959 25.418 11.9179C25.418 12.2344 25.2598 12.6035 25.0225 12.8408C24.6955 13.173 24.4424 13.2363 23.509 13.2363C22.6072 13.2363 22.7021 13.3154 22.6494 12.5086C22.623 12.0867 22.4754 11.1058 22.3752 10.7156L22.3488 10.5996H23.3191C24.0838 10.5996 24.3475 10.6207 24.5479 10.6892ZM25.3336 18.689C25.1596 19.2006 24.627 19.5644 24.0363 19.5644H23.7832V18.8261C23.7832 17.9508 23.7146 17.7398 23.3613 17.5605C23.0977 17.4287 22.8867 17.4287 22.623 17.5605C22.2697 17.7398 22.2012 17.9508 22.2012 18.8261V19.5644H21.4102H20.6191V18.2988C20.6191 17.1281 20.6086 17.0121 20.5137 16.8222C20.3924 16.5849 20.0918 16.4004 19.8281 16.4004C19.5645 16.4004 19.2639 16.5849 19.1426 16.8222C19.0477 17.0121 19.0371 17.1281 19.0371 18.2988V19.5644H18.2461H17.4551V18.8261C17.4551 18.1881 17.4393 18.0562 17.3496 17.8769C17.2283 17.6396 16.9277 17.4551 16.6641 17.4551C16.4004 17.4551 16.0998 17.6396 15.9785 17.8769C15.8889 18.0562 15.873 18.1881 15.873 18.8261V19.5644H15.082H14.291V18.2988C14.291 17.1281 14.2805 17.0121 14.1855 16.8222C14.0643 16.5849 13.7637 16.4004 13.5 16.4004C13.2363 16.4004 12.9357 16.5849 12.8145 16.8222C12.7195 17.0121 12.709 17.1281 12.709 18.2988V19.5644H11.918H11.127V18.8261C11.127 17.9508 11.0584 17.7398 10.7051 17.5605C10.4414 17.4287 10.2305 17.4287 9.9668 17.5605C9.61348 17.7398 9.54492 17.9508 9.54492 18.8261V19.5644H8.75391H7.96289V18.2988C7.96289 17.1281 7.95234 17.0121 7.85742 16.8222C7.73613 16.5849 7.43555 16.4004 7.17188 16.4004C6.9082 16.4004 6.60762 16.5849 6.48633 16.8222C6.39141 17.0121 6.38086 17.1281 6.38086 18.2988V19.5644H5.58984H4.79883V18.8261C4.79883 17.9508 4.73027 17.7398 4.37695 17.5605C4.11328 17.4287 3.90234 17.4287 3.63867 17.5605C3.28535 17.7398 3.2168 17.9508 3.2168 18.8261V19.5644H2.39941H1.58203V17.1914V14.8183L13.1467 14.8078L24.7061 14.792L25.0488 14.6601L25.3916 14.5283L25.4074 16.4742C25.418 18.1722 25.4074 18.4623 25.3336 18.689ZM19.2217 21.6053C18.1617 23.6039 16.6746 24.975 15.2191 25.2861C14.1275 25.5234 13.4684 25.1595 12.7617 23.9203C12.5244 23.4931 12.44 23.3982 12.2607 23.3086C11.9865 23.1767 11.8494 23.1767 11.5805 23.3086C11.4012 23.3929 11.3115 23.5037 11.0531 23.9361C10.3148 25.1912 9.7084 25.5234 8.6168 25.2861C7.16133 24.975 5.67422 23.6039 4.61426 21.6053L4.36641 21.1465H11.918H19.4695L19.2217 21.6053Z" fill="white"/>
</svg>
