<svg width="20" height="20" viewBox="0 0 20 20" fill="none" xmlns="http://www.w3.org/2000/svg">
<circle cx="10" cy="10" r="9.5" stroke="white"/>
<g clip-path="url(#clip0_141_2392)">
<path d="M13.3223 5.38995C13.0801 5.46808 13.0176 5.51495 12.5605 5.97003L12.1211 6.40753L13.1895 7.47589L14.2598 8.5462L14.6719 8.13605C15.1113 7.69855 15.2129 7.56964 15.2773 7.36652C15.3652 7.08136 15.3457 6.81964 15.2129 6.54425C15.1387 6.388 15.1113 6.3548 14.7109 5.95636C14.2617 5.50714 14.1836 5.4505 13.9277 5.38214C13.7773 5.34113 13.457 5.34503 13.3223 5.38995Z" fill="white"/>
<path d="M8.73839 9.79231L5.96105 12.5697L5.64464 13.8392C5.41222 14.7708 5.33019 15.1243 5.34191 15.1634C5.35948 15.2337 5.43175 15.3079 5.50011 15.3255C5.55284 15.3392 7.9923 14.7474 8.088 14.6966C8.11534 14.6829 9.37902 13.429 10.8966 11.9114L13.6544 9.15168L12.5841 8.08137L11.5157 7.01301L8.73839 9.79231Z" fill="white"/>
</g>
<defs>
<clipPath id="clip0_141_2392">
<rect width="10" height="10" fill="white" transform="translate(5.33398 5.33331)"/>
</clipPath>
</defs>
</svg>
