<svg width="28" height="28" viewBox="0 0 28 28" fill="none" xmlns="http://www.w3.org/2000/svg">
<path d="M13.0592 2.45547C11.8506 2.84375 11.0577 4.0961 11.26 5.31563C11.5061 6.84141 12.9991 7.84219 14.4647 7.46485C15.7663 7.12578 16.6248 5.83516 16.4061 4.54453C16.2858 3.81719 15.7881 3.07891 15.1702 2.6961C14.6123 2.35703 13.6936 2.25313 13.0592 2.45547Z" fill="#E50914"/>
<path d="M19.3867 3.93203C18.9546 4.0414 18.6648 4.30391 18.5117 4.74141C18.0359 6.07578 17.7406 6.59531 17.0624 7.27891C16.6632 7.68359 16.4554 7.84765 16.1601 7.98984L15.7773 8.17578L13.2343 8.20859C11.0851 8.23047 10.6257 8.25234 10.2538 8.33437C8.039 8.82109 6.31634 10.1719 5.29368 12.2227C5.04212 12.7203 5.00384 12.9008 5.09134 13.2453C5.21712 13.7758 5.76946 14.1641 6.29446 14.093C6.68275 14.0437 6.88509 13.8961 7.27337 13.3711C7.69993 12.8023 7.9679 12.5398 8.4765 12.1953C8.81556 11.9656 9.38431 11.6977 9.69056 11.6266L9.83821 11.5937L9.76165 11.8234C9.49915 12.6164 5.91165 24.1773 5.87884 24.3141C5.79681 24.7406 6.14134 25.3422 6.58431 25.5445C7.04368 25.7523 7.6179 25.632 7.96243 25.2602C8.0554 25.1562 8.89212 23.6359 9.81634 21.875C10.7406 20.1141 11.5007 18.6703 11.5062 18.6648C11.5117 18.6594 12.1788 18.6211 12.9992 18.5719C14.2679 18.5008 14.5304 18.5008 14.8421 18.5664C15.5749 18.7195 16.2367 19.2281 16.532 19.868C16.6085 20.0211 16.8218 20.6555 17.0077 21.2734C17.1992 21.8914 17.3632 22.4273 17.3742 22.4602C17.396 22.5148 17.1882 22.5312 16.439 22.5312C15.4874 22.5312 15.471 22.5312 15.3398 22.668L15.2031 22.7992V24.0898V25.3805L15.3398 25.5117L15.471 25.6484H19.0749H22.6788L22.8101 25.5062C22.9413 25.3641 22.9413 25.3641 22.9413 24.0789V22.7937L22.7882 22.6625L22.6351 22.5312H21.1585H19.6874V22.2852C19.6874 21.9734 18.7085 18.1836 18.5171 17.7516C18.0577 16.7125 17.1335 15.832 16.0781 15.4055C15.7171 15.2633 14.9898 15.0937 14.7382 15.0937C14.6617 15.0937 14.6015 15.0883 14.6015 15.0773C14.6015 15.0719 14.8312 14.257 15.1101 13.2672L15.6132 11.4734L16.0726 11.3422C17.0734 11.0523 17.8882 10.5656 18.621 9.82187C19.4304 9.00703 19.9827 8.06094 20.3984 6.79219C20.8249 5.47422 20.8796 4.83437 20.5843 4.41328C20.3163 4.03594 19.7968 3.82812 19.3867 3.93203Z" fill="#E50914"/>
</svg>
