<svg width="43" height="25" viewBox="0 0 43 25" fill="none" xmlns="http://www.w3.org/2000/svg">
<g clip-path="url(#clip0_141_2247)">
<path d="M8.35645 14.2106C8.35645 8.25037 13.3117 3.4165 19.4216 3.4165C25.5314 3.4165 30.4867 8.24568 30.4867 14.2106C30.4867 20.1708 25.5314 25.0046 19.4216 25.0046C13.3117 24.9999 8.35645 20.1708 8.35645 14.2106Z" fill="#E50914"/>
<path d="M12.9315 5.91321C13.0662 3.64176 16.4531 2.85332 20.8936 3.10675C25.3341 3.36017 28.0234 6.23233 28.5381 7.53232C29.0144 8.72436 25.1561 10.7424 20.7204 10.489C16.2847 10.2308 12.7968 8.18465 12.9315 5.91321Z" fill="#E50914"/>
<path d="M23.1934 5.10139L8.29395 15.2384C8.29395 15.2384 9.25132 6.44361 11.9406 5.41113C14.6251 4.38335 18.3343 4.41151 20.8937 4.53822C22.3178 4.60862 23.1934 5.10139 23.1934 5.10139Z" fill="url(#paint0_linear_141_2247)"/>
<path d="M36.3031 12.338C36.9333 13.6333 37.756 16.6556 38.1986 17.4535C38.6412 18.256 40.1663 20.3726 40.3298 20.4758C40.4934 20.579 36.6158 19.6123 36.5533 19.4292C36.4907 19.2462 36.688 18.3827 36.5869 18.0401C36.4811 17.6975 35.2928 15.6044 34.4701 14.1871C33.6523 12.7698 36.3031 12.338 36.3031 12.338Z" fill="#D3A197"/>
<path d="M20.0615 3.51978C21.0574 5.01218 22.1495 5.92263 24.045 5.80061C25.4931 5.70675 27.3934 8.08145 31.5644 9.68648L34.6001 14.9286L37.3808 14.3749C37.3808 14.3749 35.7355 8.70093 34.6001 7.22261C32.8971 5.00748 27.9274 3.14433 24.8051 1.6754C22.8182 0.736787 21.5818 0.750866 21.5818 0.750866L20.0615 3.51978Z" fill="white"/>
<path d="M40.4114 20.2834C40.4692 19.8563 40.4692 19.2744 40.3441 19.1242C40.0891 18.8285 39.8101 18.8567 39.6657 19.1852C39.5214 19.5137 39.6465 20.5415 39.6465 20.5415L40.4114 20.2834Z" fill="#E50914"/>
<path d="M36.6205 18.1621C36.1587 18.6408 35.8652 18.9224 35.8652 19.6639C36.2357 20.3209 41.1043 22.6064 41.1043 22.6064C41.1043 22.6064 41.6191 22.8176 41.7779 22.2451C41.8885 21.8556 40.9023 21.2173 40.3923 20.1473C39.5023 20.396 39.6611 19.3823 39.0597 19.4105C37.5683 19.4809 36.6205 18.1621 36.6205 18.1621Z" fill="#E50914"/>
<path d="M37.3566 20.1755C36.3944 19.5936 35.8652 19.4528 35.8652 19.4528C35.7882 19.5889 35.5717 19.9127 35.6968 20.0112C35.8219 20.1098 39.2136 22.4845 40.9166 22.8224C41.2871 22.8975 41.7152 22.5079 41.6912 22.4516C41.5757 22.5971 41.4025 22.6018 41.1764 22.522C38.8912 21.7148 38.3765 20.7903 37.3566 20.1755Z" fill="white"/>
<path d="M40.9501 21.0812L40.0937 20.6729C40.0697 20.6588 40.0553 20.6353 40.0601 20.6119C40.0601 20.5884 40.0793 20.5649 40.1034 20.5602L40.3583 20.4898L39.6463 20.1989C39.6175 20.1895 39.603 20.1566 39.6078 20.1285C39.6127 20.1003 39.6415 20.0815 39.6704 20.0815L40.392 20.0909C40.4257 20.0909 40.4546 20.1191 40.4546 20.1519C40.4546 20.1848 40.4257 20.2129 40.392 20.2129L39.9975 20.2083L40.5796 20.4476C40.6037 20.457 40.6181 20.4851 40.6181 20.5086C40.6181 20.5368 40.5989 20.5555 40.5748 20.5649L40.3006 20.64L41.0078 20.9732C41.0367 20.9873 41.0511 21.0248 41.0367 21.0577C41.0271 21.0812 41.003 21.0906 40.979 21.0906C40.9645 21.0859 40.9597 21.0859 40.9501 21.0812Z" fill="white"/>
<path d="M37.4579 12.8966C38.0977 14.206 38.93 17.2612 39.3774 18.0731C39.8248 18.885 41.3691 21.025 41.5375 21.1283C41.7059 21.2315 37.7802 20.2553 37.7177 20.0676C37.6551 19.8799 37.8572 19.0117 37.7513 18.6644C37.6455 18.3171 36.438 16.2005 35.6105 14.7644C34.7686 13.3378 37.4579 12.8966 37.4579 12.8966Z" fill="#E5C3B7"/>
<path d="M21.0239 3.97972C22.0294 5.49089 23.1359 6.41074 25.0507 6.28872C26.518 6.19486 28.4424 8.59771 32.6615 10.2168L35.7309 15.52L38.5453 14.9568C38.5453 14.9568 36.8807 9.21719 35.7309 7.7201C34.0038 5.47682 29.443 3.06458 26.2823 1.57687C24.2713 0.62887 22.7318 0.68988 22.7318 0.68988L21.0239 3.97972Z" fill="white"/>
<path d="M41.6096 20.9406C41.6673 20.5088 41.6673 19.9175 41.5422 19.772C41.2873 19.4716 41.0034 19.4998 40.8591 19.833C40.7148 20.1662 40.8399 21.2034 40.8399 21.2034L41.6096 20.9406Z" fill="#E50914"/>
<path d="M37.7752 18.7958C37.3085 19.2792 37.0103 19.5654 37.0103 20.3163C37.3855 20.9827 42.3071 23.2917 42.3071 23.2917C42.3071 23.2917 42.8267 23.5029 42.9902 22.9257C43.1009 22.5315 42.1002 21.8885 41.5902 20.8044C40.6906 21.0531 40.8494 20.0301 40.2432 20.0582C38.7326 20.1286 37.7752 18.7958 37.7752 18.7958Z" fill="#E50914"/>
<path d="M38.5208 20.8278C37.5442 20.2365 37.0102 20.0957 37.0102 20.0957C36.9332 20.2318 36.7167 20.5603 36.8418 20.6589C36.9669 20.7574 40.3971 23.1603 42.1242 23.5029C42.4994 23.578 42.9324 23.1884 42.9084 23.1274C42.7929 23.2729 42.6149 23.2776 42.3888 23.1978C40.0699 22.3906 39.5504 21.4567 38.5208 20.8278Z" fill="white"/>
<path d="M42.153 21.7431L41.287 21.3301C41.263 21.3207 41.2485 21.2925 41.2485 21.2691C41.2485 21.2456 41.2678 21.2221 41.2967 21.2127L41.5564 21.1377L40.8348 20.842C40.8059 20.8279 40.7915 20.7998 40.7963 20.7716C40.8011 20.7434 40.83 20.72 40.8589 20.72L41.5853 20.7247C41.619 20.7247 41.6479 20.7528 41.6479 20.7857C41.6479 20.8232 41.619 20.8467 41.5805 20.8467L41.1812 20.842L41.7729 21.0813C41.797 21.0907 41.8114 21.1142 41.8114 21.1423C41.8114 21.1705 41.7922 21.194 41.7633 21.1987L41.4891 21.2738L42.2059 21.6163C42.2348 21.6304 42.2492 21.668 42.2348 21.7008C42.2252 21.7243 42.2011 21.7384 42.1771 21.7384C42.1722 21.7524 42.1626 21.7478 42.153 21.7431Z" fill="white"/>
<path d="M4.39217 5.06848C5.54679 5.70204 6.76876 4.89952 7.23542 4.56632C8.28901 3.81542 10.2471 1.48766 10.3673 1.60499C10.5117 1.74109 11.4979 6.92693 8.75567 7.13343C7.92819 7.19444 7.55294 7.31646 7.62029 7.97818C6.99006 7.72945 4.4499 7.94064 3.07397 8.776C1.69805 9.61137 4.39217 5.06848 4.39217 5.06848Z" fill="#E5C3B7"/>
<path d="M5.12816 5.25623L9.92946 5.39232L9.38582 7.1053C9.38582 7.1053 8.19753 6.87534 7.36524 7.74825C6.69171 8.4569 3.83883 8.46159 3.83883 8.46159L3.60791 7.48544L5.12816 5.25623Z" fill="url(#paint1_linear_141_2247)"/>
<path d="M6.71113 11.2586C5.54689 13.4503 3.57441 13.7131 1.78956 12.8073C0.00470582 11.9063 -0.250273 10.0337 0.909159 7.84206C1.13046 7.41968 1.37582 7.03485 1.64523 6.68756C1.70296 6.4623 1.75107 6.19479 1.78956 5.86628C1.87615 5.68325 2.16 5.73018 2.43903 5.82873C3.41084 4.9699 4.5414 4.65077 5.66235 5.21863C7.4472 6.11501 7.87056 9.06695 6.71113 11.2586Z" fill="#E5C3B7"/>
<path d="M5.71036 5.22806C5.5083 5.12951 5.12342 4.9981 4.92618 4.95117C6.38389 6.47642 3.42517 11.2774 2.62175 11.8828C2.84786 12.1175 1.5008 12.6525 1.83757 12.8215C3.62242 13.7225 5.59489 13.4597 6.75914 11.268C7.91857 9.07638 7.49521 6.12913 5.71036 5.22806Z" fill="#D3A197"/>
<path d="M2.48244 10.0384L0.187628 9.85065C-0.221301 10.2073 -0.16357 12.2019 2.67487 13.2719C5.27758 14.2481 6.58615 12.9669 7.39438 11.5824C8.20262 10.1979 7.9284 7.73877 7.9284 7.73877C7.9284 7.73877 5.21504 7.77631 5.36418 8.41927C5.4604 8.81348 5.31126 10.0431 4.77725 9.86473C4.51746 9.78026 4.43086 9.40012 4.43086 9.40012L2.48244 10.0384Z" fill="white"/>
<path d="M7.07708 13.9008C7.31281 13.0654 6.87502 12.2206 6.09084 12.0048C5.30666 11.7936 4.47918 12.2957 4.24344 13.1264C4.00771 13.9618 4.4455 14.8065 5.22968 15.0224C6.00905 15.2383 6.83653 14.7314 7.07708 13.9008Z" fill="white"/>
<path d="M9.48223 3.88585C10.2472 2.2949 9.44375 2.32775 9.44375 2.32775C10.4973 1.5487 11.3441 0.577237 11.9358 0.361356C12.7681 0.0609993 13.8987 0.154861 14.3316 0.408287C14.7694 0.661713 17.3096 0.187712 18.2622 0.112623C21.3941 -0.13611 24.3384 0.112623 24.3384 0.112623C24.3384 0.112623 23.8284 1.73173 22.3563 4.97934C22.1734 5.37825 19.234 2.25736 12.3159 6.72516C10.43 7.94536 11.4451 7.66378 8.86162 5.83817C8.77503 4.99342 9.15509 4.56166 9.48223 3.88585Z" fill="#E50914"/>
<path d="M10.9352 8.12837C13.4754 7.67314 13.8602 4.97932 18.9117 5.04033C22.2505 5.08257 21.9041 5.49087 22.0436 5.4017C22.3323 5.21397 22.9048 3.90461 23.3233 2.79704C23.3233 2.79704 21.7742 2.1494 19.0368 2.05084C16.4966 1.95698 15.342 2.2855 13.9998 2.7548C13.2637 3.01292 9.25619 5.15296 8.91462 4.99809C8.50569 5.5378 8.52975 6.49518 8.67407 7.05835C11.1758 8.73378 8.70775 8.52728 10.9352 8.12837Z" fill="#E50914"/>
<path d="M12.369 7.08654C12.1477 8.61648 8.90037 13.1688 8.64058 14.3373C8.16911 16.468 5.26813 18.5376 4.67639 20.0676C4.67639 20.0676 4.45027 21.6351 4.152 22.2264C3.85853 22.813 3.17057 23.6108 2.87229 23.7892C2.57401 23.9675 2.37196 23.5358 2.49223 23.2401C2.6125 22.9444 3.11765 21.9401 3.11284 21.6491C2.93483 21.8838 2.52109 22.7379 2.29979 22.63C2.17952 22.5737 2.67985 21.6304 2.78088 21.2737C3.06954 20.2459 3.35819 20.1521 3.59393 19.9174C3.59393 19.9174 5.30181 15.52 6.39388 13.455C6.39388 13.455 8.28939 8.40999 8.99659 6.81903C9.70861 5.22808 12.7106 4.73531 12.369 7.08654Z" fill="#E5C3B7"/>
</g>
<defs>
<linearGradient id="paint0_linear_141_2247" x1="15.2724" y1="15.2424" x2="16.3572" y2="3.00948" gradientUnits="userSpaceOnUse">
<stop stop-color="white"/>
<stop offset="0.1709" stop-color="#FCFCFC"/>
<stop offset="0.3121" stop-color="#F4F2F1"/>
<stop offset="0.4429" stop-color="#E6E2E0"/>
<stop offset="0.5673" stop-color="#D3CBC8"/>
<stop offset="0.6861" stop-color="#B9AEA9"/>
<stop offset="0.7125" stop-color="#B3A6A1"/>
</linearGradient>
<linearGradient id="paint1_linear_141_2247" x1="11.1216" y1="5.20705" x2="5.15882" y2="6.98724" gradientUnits="userSpaceOnUse">
<stop stop-color="white"/>
<stop offset="0.1709" stop-color="#FCFCFC"/>
<stop offset="0.3121" stop-color="#F4F2F1"/>
<stop offset="0.4429" stop-color="white"/>
<stop offset="0.5673" stop-color="white"/>
<stop offset="0.6861" stop-color="#B9AEA9"/>
<stop offset="0.7125" stop-color="white"/>
</linearGradient>
<clipPath id="clip0_141_2247">
<rect width="43" height="25" fill="white"/>
</clipPath>
</defs>
</svg>
