<svg width="29" height="43" viewBox="0 0 29 43" fill="none" xmlns="http://www.w3.org/2000/svg">
<g clip-path="url(#clip0_141_1746)">
<path d="M11.5438 27.5742C10.2597 29.052 9.18669 30.8384 8.10081 32.2989C7.07956 33.0899 6.82102 33.1638 6.79947 33.4855C6.77793 33.8071 8.97986 35.8326 9.60467 36.0934C10.2295 36.3542 9.99249 35.9152 9.99249 35.9152C9.99249 35.9152 8.84628 34.0114 9.3332 33.1812C9.82013 32.351 13.4354 29.3693 13.4354 29.3693L11.5438 27.5742Z" fill="#D3A197"/>
<path d="M17.7101 28.7173C17.4947 30.2299 17.9945 33.6636 18.4944 35.7326L18.2358 36.6323C18.2358 36.6323 21.6874 37.632 21.6874 37.093C21.6874 36.5541 19.7871 36.3932 19.7871 35.4196C19.7871 34.4503 19.9939 27.8567 19.9939 27.8567L17.7101 28.7173Z" fill="#E5C3B7"/>
<path d="M13.3971 18.4291C13.3971 18.8594 12.8067 24.3273 12.5956 25.1922L10.0791 29.3475L11.7553 31.0209C11.7553 31.0209 14.9527 28.0436 15.431 26.5962C16.1463 24.4359 17.4088 19.0419 17.4088 19.0419L13.3971 18.4291Z" fill="white"/>
<path d="M13.8233 14.6868C13.582 15.2953 12.4057 16.6818 12.397 18.1422C12.3798 21.1631 16.0727 24.1491 17.3568 26.9917C17.3568 26.9917 17.0724 30.9862 17.8221 32.7465C19.0718 33.2159 19.9637 32.7465 19.9637 32.7465C19.9637 32.7465 20.3903 27.4307 20.3903 26.7005C20.3903 25.9703 17.848 19.5157 17.6067 18.7855C17.3654 18.0553 18.1065 15.9081 18.1065 15.9081L13.8233 14.6868Z" fill="white"/>
<path d="M19.1622 5.49822C18.4167 5.97633 18.1194 6.8804 18.1711 7.27159C18.2875 8.14089 18.6882 9.08843 18.5762 9.1232C18.4469 9.16232 17.0594 8.53642 16.7836 7.77144C16.5294 7.06296 16.4087 6.55876 15.9907 6.3849C16.3398 6.08934 17.012 4.51591 16.9473 3.42493C16.8827 2.32961 19.1622 5.49822 19.1622 5.49822Z" fill="#E5C3B7"/>
<path d="M18.8177 5.83728L16.3831 7.43245L15.8057 6.70224C15.8057 6.70224 16.4606 5.86771 16.6632 5.22877C16.8657 4.58983 16.9045 3.98132 16.9045 3.98132L17.5681 4.16388L18.8177 5.83728Z" fill="url(#paint0_linear_141_1746)"/>
<path d="M16.7319 2.08186C17.0852 0.412804 18.309 -0.113124 19.6233 0.169399C20.9375 0.451922 21.4417 1.65156 21.0883 3.32062C21.0194 3.63791 20.9332 3.94217 20.8255 4.22034C20.8298 4.38117 20.847 4.56372 20.8815 4.79408C20.86 4.92883 20.6661 4.95056 20.4721 4.93317C20.0025 5.68077 19.3302 6.09369 18.5072 5.91548C17.1886 5.63731 16.3828 3.74658 16.7319 2.08186Z" fill="#E5C3B7"/>
<path d="M18.4731 5.91983C18.6196 5.95025 18.8911 5.96764 19.029 5.96329C17.8138 5.207 18.848 1.48204 19.2574 0.934385C19.0678 0.817029 19.8391 0.221557 19.5935 0.169399C18.2792 -0.113124 17.0554 0.412804 16.7021 2.08186C16.3488 3.74658 17.1589 5.63731 18.4731 5.91983Z" fill="#D3A197"/>
<path d="M19.6797 2.13842L21.1921 1.8559C21.3904 1.54295 20.9939 0.221614 18.9687 0.0173284C17.1158 -0.169571 16.5039 0.917055 16.2324 1.9863C15.9609 3.05119 16.7538 4.79414 16.7538 4.79414C16.7538 4.79414 18.3309 4.13347 18.1155 3.73359C17.9819 3.49019 17.8569 2.64262 18.2318 2.6687C18.4128 2.68174 18.5378 2.91645 18.5378 2.91645L19.6797 2.13842Z" fill="white"/>
<path d="M21.3859 1.49515C21.5195 1.49515 22.0667 1.97761 21.6358 2.69479C21.0067 2.59047 19.3003 1.97327 19.3003 1.97327L20.0458 1.44299L21.3859 1.49515Z" fill="white"/>
<path d="M15.1636 1.62115C15.1593 2.21662 15.5988 2.70343 16.1418 2.70777C16.6847 2.70777 17.1285 2.22966 17.1285 1.62984C17.1328 1.03437 16.6933 0.547559 16.1504 0.543213C15.6117 0.543213 15.1679 1.02568 15.1636 1.62115Z" fill="white"/>
<path d="M17.3309 7.81492C18.0764 8.7668 18.5892 8.70595 18.5892 8.70595C18.8219 9.54048 19.4682 10.4185 19.5329 10.8357C19.6234 11.4269 19.0115 12.2005 18.7831 12.457C18.5547 12.7134 18.3565 13.8609 18.3005 14.2391C18.2445 14.6172 17.8739 18.5551 17.8739 18.5551C17.8739 18.5551 14.3405 18.2552 12.8711 17.1251C12.6341 16.9426 14.6378 14.5868 14.5042 10.6575C14.4525 9.13191 14.6249 8.2148 16.1934 6.76306C16.7148 7.10644 16.8957 7.25856 17.3309 7.81492Z" fill="#E50914"/>
<path d="M14.1467 10.01C14.0519 15.0824 12.3326 16.8123 12.5782 16.9905C13.0867 17.3556 13.5046 17.6772 15.0085 18.038C15.0085 18.038 16.5727 11.5617 16.5382 11.34C16.4994 11.1183 16.1116 9.38409 16.2193 8.6756C16.2969 8.15402 16.5124 7.54551 16.8399 7.23256C16.5339 6.88919 16.4305 6.67187 15.9565 6.32849C14.2932 7.43685 14.1725 8.48436 14.1467 10.01Z" fill="#E50914"/>
<path d="M8.06671 42.9999L8.51485 41.7872L7.95898 39.1359L5.30029 39.6661L8.06671 42.9999Z" fill="#E50914"/>
<path d="M20.9032 42.9999L20.4551 41.7872L21.0109 39.1359L23.6696 39.6661L20.9032 42.9999Z" fill="#E50914"/>
<path d="M27.1684 39.2098C27.1684 39.9183 26.3583 39.7662 25.8197 39.7662H3.02044C2.48181 39.7662 1.83545 39.4619 1.83545 38.7491L1.91732 38.623C2.33961 38.1145 3.46858 37.6929 4.00722 37.6929H24.8286C25.3672 37.6929 26.7634 38.0449 27.0823 38.71L27.1684 39.2098Z" fill="#E50914"/>
<path d="M27.4358 39.3141C27.1299 38.6969 27.0006 38.3362 26.4663 38.3362H2.52942C1.9951 38.3362 1.8529 38.7317 1.56419 39.3141L0 43H8.06657L7.51932 40.4182H21.485L20.9377 43H29L27.4358 39.3141Z" fill="#E50914"/>
<path d="M21.0971 36.4063C20.9894 36.1281 20.7911 35.7717 20.6662 35.7239C20.4163 35.6283 20.2611 35.7369 20.287 35.9847C20.3128 36.2325 20.7351 36.8149 20.7351 36.8149L21.0971 36.4063Z" fill="#E50914"/>
<path d="M18.2401 36.2194C18.1281 36.6627 17.9557 37.0843 18.2056 37.5364C18.6451 37.8145 22.2906 37.5929 22.2906 37.5929C22.2906 37.5929 22.6655 37.5494 22.5664 37.1495C22.4974 36.8757 21.7003 36.8148 21.041 36.328C20.6015 36.7714 20.4032 36.1455 20.0585 36.3628C19.201 36.9018 18.2401 36.2194 18.2401 36.2194Z" fill="#E50914"/>
<path d="M19.257 37.3538C18.49 37.319 18.1324 37.406 18.1324 37.406C18.1324 37.5146 18.1151 37.7841 18.2229 37.8015C18.3306 37.8189 21.2392 38.0145 22.2518 37.7841C22.5017 37.7276 22.6181 37.3277 22.5836 37.3016C22.5664 37.4277 22.463 37.4885 22.3035 37.5146C20.6833 37.7841 20.0671 37.3929 19.257 37.3538Z" fill="white"/>
<path d="M20.9979 36.7236C20.9893 36.7062 20.9936 36.6888 21.0065 36.6758L21.1358 36.5454L20.6144 36.6063C20.5929 36.6063 20.5756 36.5976 20.567 36.5758C20.5627 36.5584 20.5713 36.5367 20.5886 36.5237L21.0152 36.289C21.0367 36.2759 21.0626 36.2846 21.0755 36.3063C21.0841 36.3281 21.0798 36.3542 21.0582 36.3629L20.8213 36.4932L21.2435 36.4454C21.2608 36.4454 21.278 36.4541 21.2866 36.4715C21.2952 36.4889 21.2909 36.5063 21.278 36.5193L21.1444 36.6541L21.6744 36.6236C21.696 36.6236 21.7175 36.641 21.7218 36.6628C21.7218 36.6845 21.7046 36.7062 21.6788 36.7062L21.0367 36.741C21.0238 36.7497 21.0065 36.7367 20.9979 36.7236Z" fill="white"/>
<path d="M9.5401 34.6676C9.63921 34.3851 9.72108 33.9852 9.66075 33.8635C9.53579 33.6245 9.34619 33.6071 9.20399 33.8114C9.06179 34.0156 9.00146 34.7372 9.00146 34.7372L9.5401 34.6676Z" fill="#E50914"/>
<path d="M7.50201 32.6378C7.12712 32.903 6.72638 33.1029 6.61865 33.6114C6.77378 34.1156 9.66947 36.3541 9.66947 36.3541C9.66947 36.3541 9.97972 36.5714 10.1693 36.202C10.2986 35.9499 9.73411 35.3761 9.54882 34.572C8.924 34.6155 9.17393 33.9461 8.76888 33.8809C7.77348 33.7201 7.50201 32.6378 7.50201 32.6378Z" fill="#E50914"/>
<path d="M7.53215 34.1678C6.97628 33.6332 6.64879 33.468 6.64879 33.468C6.57984 33.5506 6.39024 33.7418 6.45919 33.8244C6.52813 33.907 8.60079 35.9803 9.51432 36.4758C9.73839 36.5975 10.0874 36.3715 10.0788 36.328C9.984 36.4106 9.86766 36.3889 9.72977 36.3063C8.32932 35.4326 8.12249 34.7329 7.53215 34.1678Z" fill="white"/>
<path d="M9.78161 35.2849L9.27314 34.8893C9.26021 34.8763 9.25159 34.8589 9.26021 34.8415C9.26452 34.8241 9.28175 34.8111 9.29899 34.8111L9.47997 34.7981L9.04906 34.4981C9.03183 34.4851 9.02752 34.4634 9.03183 34.446C9.04045 34.4286 9.06199 34.4156 9.07923 34.4199L9.55322 34.5242C9.57477 34.5286 9.59201 34.5547 9.5877 34.5764C9.58339 34.5981 9.55753 34.6155 9.53599 34.6068L9.27314 34.5503L9.62648 34.7937C9.63941 34.8024 9.64802 34.8241 9.64371 34.8415C9.63941 34.8589 9.62217 34.8719 9.60493 34.8719L9.41533 34.885L9.83762 35.211C9.85486 35.224 9.85917 35.2544 9.84624 35.2718C9.83762 35.2849 9.8247 35.2892 9.81177 35.2892C9.79884 35.2936 9.79022 35.2936 9.78161 35.2849Z" fill="white"/>
<path d="M17.7233 16.421L13.2117 20.9283C13.2117 20.9283 11.8457 18.3117 12.7032 16.9078L12.5955 16.7992L13.2893 15.2605L13.69 13.8566L15.642 15.9864L16.952 15.743L17.3268 15.6082L17.8095 15.8647L17.7233 16.421Z" fill="url(#paint1_linear_141_1746)"/>
<path d="M15.1636 7.24561C14.6853 7.78023 12.2205 11.1575 12.0869 12.5353C12.2334 13.2699 15.4092 16.2516 15.8229 16.4341C16.5123 16.7123 16.8915 16.4906 16.8915 16.4906C16.8915 16.4906 17.0423 16.4211 17.1328 16.4472C17.275 16.4819 17.5465 16.6254 17.5594 16.5732C17.568 16.5384 17.3957 16.3124 17.2406 16.2603C17.0251 16.1864 16.9217 16.1733 16.9217 16.1733C16.9217 16.1733 17.2492 16.1125 17.7232 16.4211C17.7232 16.4211 17.93 16.3211 17.4388 16.0342C17.2233 15.9082 16.9389 15.9343 16.9389 15.9343C16.9389 15.9343 17.2061 15.8517 17.4474 15.9604C17.4474 15.9604 17.8395 16.2211 17.8826 16.1777C17.9386 16.1212 17.6758 15.9169 17.4258 15.7821C17.2233 15.6735 17.0208 15.6387 17.0208 15.6387C17.0208 15.6387 17.2578 15.6648 17.4517 15.7213C17.5508 15.7474 17.7533 15.943 17.8094 15.8691C17.8481 15.8169 17.7102 15.6778 17.5163 15.5692C17.3655 15.4866 17.1458 15.4388 16.9992 15.4257C16.8527 15.4127 16.159 15.5909 16.159 15.5909C16.159 15.5909 14.5776 13.6958 13.9053 12.5353C13.6727 12.1311 16.3701 9.32324 16.4563 8.97986C16.5382 8.63649 15.1636 7.24561 15.1636 7.24561Z" fill="#E5C3B7"/>
<path d="M16.2236 7.24126C15.797 6.97177 15.3876 7.00655 14.9653 7.18041C14.2974 7.45424 13.3408 9.41016 13.3408 9.41016L15.2928 10.9879C15.2928 10.9879 16.7148 9.43624 16.801 8.8712C16.9992 7.59767 16.2236 7.24126 16.2236 7.24126Z" fill="#E50914"/>
<path d="M14.9609 7.18041C14.293 7.45424 13.3364 9.41017 13.3364 9.41017L14.2069 10.0926C14.5602 9.23631 15.2238 7.9454 16.3786 7.3195C15.9176 6.79792 15.3789 7.00655 14.9609 7.18041Z" fill="#E50914"/>
</g>
<defs>
<linearGradient id="paint0_linear_141_1746" x1="15.9769" y1="6.85423" x2="18.6399" y2="4.1431" gradientUnits="userSpaceOnUse">
<stop stop-color="white"/>
<stop offset="0.1275" stop-color="#FBFAFA"/>
<stop offset="0.2889" stop-color="#EEEBEA"/>
<stop offset="0.4687" stop-color="#D9D2D0"/>
<stop offset="0.6604" stop-color="#BCB0AC"/>
<stop offset="0.7125" stop-color="#B3A6A1"/>
</linearGradient>
<linearGradient id="paint1_linear_141_1746" x1="13.708" y1="19.7362" x2="15.7436" y2="15.1348" gradientUnits="userSpaceOnUse">
<stop stop-color="white"/>
<stop offset="0.1275" stop-color="#FBFAFA"/>
<stop offset="0.2889" stop-color="#EEEBEA"/>
<stop offset="0.4687" stop-color="#D9D2D0"/>
<stop offset="0.6604" stop-color="#BCB0AC"/>
<stop offset="0.7125" stop-color="#B3A6A1"/>
</linearGradient>
<clipPath id="clip0_141_1746">
<rect width="29" height="43" fill="white"/>
</clipPath>
</defs>
</svg>
