<svg width="27" height="42" viewBox="0 0 27 42" fill="none" xmlns="http://www.w3.org/2000/svg">
<g clip-path="url(#clip0_141_1321)">
<path d="M3.27637 15.0648C3.27637 15.8273 3.85574 16.4459 4.57356 16.4459C5.29137 16.4459 5.87075 15.8273 5.87075 15.0648C5.87075 14.3022 5.29137 13.6836 4.57356 13.6836C3.86087 13.6836 3.27637 14.3022 3.27637 15.0648Z" fill="white"/>
<path d="M11.8285 17.8164C10.7364 17.8964 6.74229 16.4246 6.26033 16.014C5.77837 15.6034 4.82471 16.7659 4.82471 16.7659C4.82471 16.7659 7.3832 18.9363 9.6443 20.0775C11.9054 21.2186 12.5463 21.5759 13.0026 20.9093C13.4538 20.2481 11.8285 17.8164 11.8285 17.8164Z" fill="#D3A197"/>
<path d="M5.26577 17.1018C4.76843 16.7765 4.27109 16.1899 4.24033 15.838C4.20956 15.486 4.2352 14.3822 4.61974 14.2648C5.00428 14.1422 5.34781 14.0195 5.34781 14.0195C5.34781 14.0195 5.58879 14.0462 5.799 14.0569C6.00922 14.0622 6.17329 14.0142 6.01435 14.1688C5.80926 14.3662 5.07606 14.4728 5.07606 14.4728C5.07606 14.4728 6.14766 14.0942 6.39889 14.1902C6.65012 14.2862 5.78362 14.5421 5.5529 14.6275C5.35293 14.7021 6.42965 14.2542 6.645 14.2595C6.85521 14.2648 6.35787 14.7288 6.10151 14.8141C5.84515 14.8941 6.59372 16.5792 6.59372 16.5792L5.26577 17.1018Z" fill="#D3A197"/>
<path d="M5.62988 15.6087C5.62988 16.2753 6.0093 16.8512 6.55278 17.0965C6.73224 17.1765 7.05013 17.2885 7.26034 17.2885C8.09608 17.2885 8.65495 16.5046 8.65495 15.6141C8.65495 14.8835 8.44986 14.3022 7.81921 14.1103C7.6859 14.0676 7.28598 14.0249 7.13729 14.0249C6.30155 14.0196 5.62988 14.7182 5.62988 15.6087Z" fill="white"/>
<path d="M6.00391 15.7047C6.00391 16.6059 6.68583 17.3312 7.53182 17.3312C8.37269 17.3312 9.05974 16.6006 9.05974 15.7047C9.05974 14.8035 8.37781 14.0782 7.53182 14.0782C6.68583 14.0782 6.00391 14.8088 6.00391 15.7047Z" fill="white"/>
<path d="M0 39.8349C0.0563995 39.0084 2.72256 38.3418 6.00399 38.3418C9.28542 38.3418 11.9516 39.0084 12.008 39.8349H12.0131V40.5495H11.9977C11.849 41.3547 9.22389 42 6.00399 42C2.77896 42 0.158944 41.3387 0.00512723 40.5335L0 39.8349Z" fill="white"/>
<path d="M0.215292 39.3284C0.246056 40.9762 3.26599 41.4294 6.12699 41.4294C8.65984 41.4294 11.6593 41.0028 11.6695 39.3284C11.6798 37.3766 9.99292 35.7502 5.94241 35.7928C1.73295 35.8301 0.184529 37.3713 0.215292 39.3284Z" fill="#E50914"/>
<path d="M1.02051 37.43C1.02051 38.1872 3.19958 38.8004 5.89138 38.8004C8.58317 38.8004 10.7622 38.1872 10.7622 37.43C10.7622 36.6727 8.60368 35.8408 5.91189 35.8408C3.22522 35.8408 1.02051 36.678 1.02051 37.43Z" fill="#E50914"/>
<path d="M12.0645 27.7991C12.6643 30.2362 13.8333 36.8647 14.705 37.1899C15.5766 37.5206 16.7918 37.4086 17.7557 37.3126C19.422 37.142 23.2623 36.6833 24.134 36.7633C25.0056 36.8433 25.4824 37.8885 25.4824 37.8885C25.4824 37.8885 26.4412 35.1102 25.9695 34.5343C25.4927 33.9584 24.5339 34.097 24.057 34.2623C23.5802 34.4276 20.2988 32.8332 17.125 33.3984C17.125 33.3984 16.9148 27.4632 16.3611 26.562C15.8022 25.6607 12.0645 27.7991 12.0645 27.7991Z" fill="#E5C3B7"/>
<path d="M17.8991 25.4261C17.8991 26.4074 17.2838 29.0524 17.2838 31.3081C17.2838 31.9853 13.5768 32.8385 12.8282 32.8972C12.495 32.9239 11.0337 25.8688 11.0337 25.8688L17.8991 25.4261Z" fill="white"/>
<path d="M24.5596 36.7794C25.2979 36.7634 25.5543 35.105 24.8672 34.6037C24.2314 34.1398 24.7083 34.0011 24.7083 34.0011C25.7645 33.9318 27.0873 34.0011 26.995 34.7797C26.9079 35.5582 26.5695 36.1182 26.6361 37.2167C26.7028 38.3152 27.1335 40.411 25.0826 40.5496C24.3289 40.6029 24.0264 40.155 24.4006 39.7337C25.5235 38.4645 23.688 37.6326 23.8828 37.1474C23.9443 36.9981 23.9546 36.7954 24.5596 36.7794Z" fill="white"/>
<path d="M14.4127 22.2426C12.9258 21.768 3.67111 22.4825 2.98406 23.3144C2.29701 24.1463 2.40981 25.5755 2.75334 26.402C3.09686 27.2339 5.72713 33.6545 5.95273 34.369C6.18346 35.0836 4.46583 35.3182 4.00951 35.9155C3.55319 36.5074 8.54711 36.4594 8.6958 35.9155C8.84449 35.3716 8.12668 34.8436 8.00875 34.1344C7.89595 33.4198 8.6958 28.4284 5.83993 26.2901C9.72637 28.4284 14.9818 28.0712 16.5815 27.7139C18.1863 27.3566 14.4127 22.2426 14.4127 22.2426Z" fill="#D3A197"/>
<path d="M5.95773 35.201C6.06028 35.9635 7.67023 36.0329 8.07015 35.2596C8.43931 34.5504 8.62389 35.025 8.62389 35.025C8.8136 36.1075 8.90589 37.4833 8.15219 37.4833C7.39849 37.4833 6.82424 37.2007 5.78341 37.398C4.74258 37.5953 2.00977 37.9739 2.00977 37.1847C2.00977 36.3955 2.47634 36.0809 3.01983 36.0062C4.3324 35.8249 5.03483 34.3957 5.52192 34.5397C5.67574 34.593 5.87057 34.577 5.95773 35.201Z" fill="white"/>
<path d="M13.7562 11.5346C13.2589 11.7693 12.1206 11.6466 12.1206 11.6466C13.1717 9.26825 11.6694 6.7139 11.6694 6.7139L15.5559 4.70349C15.5559 4.70349 14.9868 6.94321 16.2019 9.33757C16.3403 9.6042 14.8534 11.012 13.7562 11.5346Z" fill="#D3A197"/>
<path d="M17.0994 21.1174C18.412 22.7812 19.1708 25.0636 18.3556 26.2901C16.9251 28.4285 13.5565 28.6685 9.55727 28.7858C9.55727 28.7858 7.32692 22.7812 6.9834 22.4239C8.81382 22.184 11.2134 22.1253 11.8953 22.008C12.5875 21.8853 17.0994 21.1174 17.0994 21.1174Z" fill="white"/>
<path d="M11.9309 22.008C12.3103 21.944 13.9408 21.6773 15.3252 21.4534C15.6072 22.4559 15.6994 23.2291 14.1613 23.997C13.6998 24.2264 9.97746 24.4557 7.97271 24.557C7.54715 23.4851 7.15235 22.5626 7.01904 22.4186C8.84434 22.1839 11.2439 22.1253 11.9309 22.008Z" fill="white"/>
<path d="M12.1924 8.37764L15.1405 10.9693L16.5505 10.1054C16.5505 10.1054 15.4943 7.84437 15.4328 6.76718C15.3713 5.68998 14.0843 7.03381 13.7203 7.36443C13.3511 7.69506 12.1924 8.37764 12.1924 8.37764Z" fill="url(#paint0_linear_141_1321)"/>
<path d="M10.3213 1.56252C11.2595 -0.202585 15.7766 -0.778512 16.0227 2.28243C16.4637 7.86039 13.0284 8.20168 13.0284 8.20168C11.9671 8.38832 11.6954 8.37766 10.9109 7.99904C10.5263 7.8124 10.3059 6.72453 10.111 5.91397C9.76751 5.81265 9.53679 5.68467 9.59831 5.4287C9.79828 5.08741 9.8034 4.76745 9.91108 4.52215C9.81879 3.26897 9.88031 2.38909 10.3213 1.56252Z" fill="#E5C3B7"/>
<path d="M11.4238 8.18565C12.2544 8.49495 12.4134 8.56427 12.962 8.38829C12.962 8.38829 16.5203 7.88169 16.0794 2.30373C15.9358 0.506628 14.09 0.266658 12.5928 0.479964C12.9979 2.69835 13.0953 7.76971 11.4238 8.18565Z" fill="#D3A197"/>
<path d="M16.028 1.39186C15.6947 0.805269 14.7923 0.149352 13.3874 0.0320336C12.0287 -0.0799522 11.4647 0.122689 10.547 1.21055C10.1111 1.72249 12.1569 1.59983 12.4748 1.71715C12.7927 1.8398 12.6286 4.18617 12.6286 4.18617C12.6286 4.18617 13.9719 4.84209 13.9566 5.3167C13.9412 5.7913 15.5409 7.26311 15.5409 7.26311C15.5409 7.26311 16.3305 5.7753 16.6689 4.7301C17.4533 2.27708 16.1767 1.65316 16.028 1.39186Z" fill="white"/>
<path d="M11.9465 3.33822C11.8542 1.66377 11.1877 2.10638 10.8852 2.27169C10.598 2.42634 10.0084 2.36768 10.0084 2.36768C10.0084 2.36768 9.5367 1.44513 10.034 0.997189C11.0031 0.111968 11.8183 -0.0533447 13.177 0.0639738C13.7256 0.111968 13.8231 2.15971 12.8489 4.2981C12.6694 4.23411 12.6592 4.24478 12.4387 4.07413C12.4387 4.06347 11.9824 3.98881 11.9465 3.33822Z" fill="white"/>
<path d="M13.141 4.22888C13.3974 3.91425 13.8229 3.73294 14.0331 4.0689C14.2434 4.40486 14.228 5.57271 13.6127 5.85534C12.9974 6.1433 13.141 4.22888 13.141 4.22888Z" fill="#D3A197"/>
<path d="M13.3717 10.996C14.5919 10.2227 15.8532 8.57495 15.8532 8.57495C16.8479 9.99344 17.1761 9.7748 17.6273 11.5719C18.0169 13.129 17.7401 17.1872 18.1144 20.1468C18.4322 22.6692 18.2733 23.1811 18.4425 24.5409C18.4425 24.5409 14.9919 22.2479 11.5823 22.0132C11.4131 21.1174 11.0593 19.9442 10.8491 15.4647C10.7722 13.8223 11.1464 13.5183 12.1719 11.3159C12.3565 10.9213 12.3103 11.6679 13.3717 10.996Z" fill="#E50914"/>
<path d="M18.2629 11.3426C18.6526 12.8997 17.7502 17.1871 18.1245 20.1521C18.4423 22.6798 18.5808 23.549 18.75 24.9088C18.75 24.9088 17.0477 23.645 14.6636 22.6851C14.7046 20.0774 16.1095 12.6917 16.0838 12.3238C16.0582 11.9611 15.1455 10.3187 14.7405 9.79609C15.5608 9.00685 15.889 8.48425 15.889 8.48425C16.8734 9.90274 17.8117 9.54545 18.2629 11.3426Z" fill="#E50914"/>
<path d="M11.7671 18.4457L15.228 23.2077L18.7453 24.9089C18.7453 24.9089 18.2428 21.0907 18.1351 20.2961C18.0274 19.5069 11.7671 18.4457 11.7671 18.4457Z" fill="url(#paint1_linear_141_1321)"/>
<path d="M9.50609 18.2964C9.81373 19.0537 10.6495 19.4163 11.3673 19.1017C12.0902 18.787 12.4235 17.9125 12.1159 17.1553C11.8082 16.398 10.9725 16.0354 10.2547 16.35C9.53173 16.6647 9.19846 17.5392 9.50609 18.2964Z" fill="white"/>
<path d="M9.77783 18.1631C10.0855 18.9204 10.9212 19.283 11.639 18.9684C12.3568 18.6537 12.6952 17.7792 12.3876 17.022C12.08 16.2647 11.2442 15.9021 10.5264 16.2167C9.80859 16.5313 9.47019 17.4006 9.77783 18.1631Z" fill="white"/>
<path d="M17.4638 10.3987C18.1201 10.5107 18.6995 11.156 19.3147 13.193C20.1351 15.8967 20.0787 18.4457 19.971 19.6936C19.8633 20.9414 19.0994 21.0534 17.4638 20.6001C15.8282 20.1468 13.3415 19.2243 12.4135 18.7123C11.3214 18.3711 10.5266 17.6565 10.5266 17.6565C10.5266 17.6565 10.2344 17.0112 10.4549 16.446C10.6753 15.8807 11.2547 15.8434 11.7982 15.8434C12.3417 15.8434 12.3981 16.8832 12.998 17.2779C13.7158 17.7525 16.5922 17.2032 17.028 17.5445C17.4997 17.9124 15.3924 14.1423 15.177 12.4465C14.9566 10.74 16.4742 10.2281 17.4638 10.3987Z" fill="#E5C3B7"/>
<path d="M11.9879 16.4779C12.3519 17.3738 13.3415 17.6405 13.9926 17.4272C14.1003 17.3898 14.4592 17.3045 14.5515 17.2405C15.1924 16.7819 15.2283 15.9447 14.9104 15.1661C14.613 14.4302 14.1516 13.8649 13.4337 13.9449C13.2799 13.9609 12.8646 14.1529 12.7159 14.2169C11.9468 14.5635 11.6238 15.5821 11.9879 16.4779Z" fill="white"/>
<path d="M12.3623 16.286C12.7264 17.1819 13.7057 17.6031 14.5568 17.2352C15.4079 16.8619 15.7976 15.838 15.4387 14.9421C15.0746 14.0463 14.0953 13.625 13.2442 13.9929C12.3931 14.3609 12.0034 15.3901 12.3623 16.286Z" fill="white"/>
<path d="M17.4791 10.3988C18.1353 10.5107 18.7147 11.156 19.33 13.1931C20.1503 15.8967 20.0939 18.4457 19.9863 19.6936C19.8786 20.9414 19.1146 21.0534 17.4791 20.6001C15.8435 20.1469 13.4132 19.283 12.4903 18.771C12.2544 18.6964 11.9724 18.5417 11.7673 18.4404C11.634 18.3338 11.8801 18.4297 12.0237 18.5151C12.8953 19.027 18.1148 20.8828 19.0582 20.0295C19.3043 19.8056 19.4633 18.4564 19.0018 16.4033C18.1251 12.4892 17.0535 10.9107 16.6177 10.4148C16.9202 10.3561 17.2176 10.3561 17.4791 10.3988Z" fill="#D3A197"/>
</g>
<defs>
<linearGradient id="paint0_linear_141_1321" x1="14.7308" y1="10.4027" x2="13.101" y2="5.55729" gradientUnits="userSpaceOnUse">
<stop stop-color="white"/>
<stop offset="0.1179" stop-color="#F4F2F1"/>
<stop offset="0.3387" stop-color="#D7D0CE"/>
<stop offset="0.5751" stop-color="#B3A6A1"/>
</linearGradient>
<linearGradient id="paint1_linear_141_1321" x1="15.9175" y1="23.7289" x2="14.7632" y2="18.9121" gradientUnits="userSpaceOnUse">
<stop stop-color="white"/>
<stop offset="0.1275" stop-color="#FBFAFA"/>
<stop offset="0.2889" stop-color="#EEEBEA"/>
<stop offset="0.4687" stop-color="#D9D2D0"/>
<stop offset="0.6604" stop-color="#BCB0AC"/>
<stop offset="0.7125" stop-color="#B3A6A1"/>
</linearGradient>
<clipPath id="clip0_141_1321">
<rect width="27" height="42" fill="white"/>
</clipPath>
</defs>
</svg>
