<svg width="29" height="37" viewBox="0 0 29 37" fill="none" xmlns="http://www.w3.org/2000/svg">
<g clip-path="url(#clip0_141_1665)">
<path d="M27.6613 10.8234C27.6613 12.2762 26.5373 13.4556 25.1527 13.4556C23.7681 13.4556 22.644 12.2762 22.644 10.8234C22.644 9.37065 23.7681 8.19128 25.1527 8.19128C26.5424 8.19128 27.6613 9.37065 27.6613 10.8234Z" fill="#9B8F8E"/>
<path d="M26.384 10.8234C26.384 11.5364 25.8322 12.1154 25.1527 12.1154C24.4732 12.1154 23.9214 11.5364 23.9214 10.8234C23.9214 10.1105 24.4732 9.53149 25.1527 9.53149C25.8322 9.53149 26.384 10.1105 26.384 10.8234Z" fill="#9B8F8E"/>
<path d="M15.4245 27.2917C14.8369 29.6933 12.8494 35.3221 11.9962 35.6438C11.1481 35.9708 10.2182 35.885 9.4467 35.3167C8.6752 34.7485 3.65283 32.9098 2.79959 32.9902C1.95145 33.0706 1.48651 34.0999 1.48651 34.0999C1.48651 34.0999 0.479996 30.937 0.944936 30.3688C1.40988 29.8005 2.41129 30.3688 2.87623 30.5296C3.34117 30.6904 8.31245 29.3073 10.0649 31.9073C10.0649 31.9073 10.2693 26.9593 10.8109 26.0694C11.3524 25.1849 15.4245 27.2917 15.4245 27.2917Z" fill="#D3A197"/>
<path d="M10.1571 24.9543C10.1571 25.9193 9.90674 28.5246 9.90674 30.744C9.90674 31.4141 13.9737 32.2879 14.6737 32.0574C15.3736 31.8322 16.4312 25.3886 16.4312 25.3886L10.1571 24.9543Z" fill="white"/>
<path d="M2.38603 32.5613C1.66563 32.5399 1.41528 30.9155 2.08459 30.417C2.70281 29.9613 2.23787 29.8219 2.23787 29.8219C1.21091 29.7523 -0.081726 29.8166 0.00513097 30.5885C0.0919879 31.3551 0.418979 31.9073 0.357668 32.9848C0.296357 34.0623 -0.127709 36.1316 1.87511 36.2656C2.61084 36.3138 2.90207 35.8743 2.53931 35.4615C1.44593 34.2124 3.23417 33.3922 3.04512 32.9151C2.98381 32.7757 2.97359 32.572 2.38603 32.5613Z" fill="#9B8F8E"/>
<path d="M16.3392 11.204C17.356 12.4798 18.4698 15.0369 18.4698 15.0369C18.4698 15.0369 21.9236 12.9033 23.4462 12.3726C23.8549 12.6943 24.4629 13.7557 24.4629 13.7557C24.4629 13.7557 19.6909 18.2319 18.4698 18.3338C17.2538 18.441 14.6123 15.8839 14.6123 15.8839L16.3392 11.204Z" fill="#D3A197"/>
<path d="M13.5549 21.8237C15.006 21.3573 24.0391 22.0596 24.7084 22.8744C25.3777 23.6946 25.2653 25.0991 24.9332 25.914C24.6011 26.7342 22.0312 33.0491 21.8115 33.7514C21.5867 34.4537 23.2625 34.6895 23.707 35.2739C24.1515 35.8582 19.2773 35.8099 19.1342 35.2739C18.9912 34.7378 19.6911 34.2178 19.8035 33.5209C19.9159 32.8186 19.1342 27.9028 21.9239 25.796C18.1328 27.9028 13.0032 27.549 11.4397 27.2005C9.8763 26.8575 13.5549 21.8237 13.5549 21.8237Z" fill="#E5C3B7"/>
<path d="M21.8061 34.577C21.7039 35.3275 20.1354 35.3971 19.742 34.6359C19.3843 33.9337 19.2004 34.4108 19.2004 34.4108C19.0165 35.4722 18.9245 36.8285 19.6602 36.8285C20.396 36.8285 20.958 36.5497 21.9696 36.7427C22.9812 36.9357 25.6482 37.3056 25.6482 36.5336C25.6482 35.7617 25.1935 35.4508 24.6622 35.3757C23.3797 35.1988 22.6951 33.7943 22.22 33.9337C22.0871 33.9765 21.893 33.9658 21.8061 34.577Z" fill="#9B8F8E"/>
<path d="M16.4975 11.2147C16.4975 9.55825 17.7442 6.67952 17.7442 6.67952L14.086 4.43872C14.086 4.43872 14.4998 6.67952 13.1714 8.94712C12.9517 9.32774 16.4975 11.2147 16.4975 11.2147Z" fill="#D3A197"/>
<path d="M10.9339 20.714C9.65152 22.3544 8.91068 24.6005 9.70772 25.8014C11.1025 27.9081 14.3929 28.144 18.2963 28.2566C18.2963 28.2566 20.4729 22.349 20.805 21.9952C19.0219 21.7593 16.6767 21.7057 16.0125 21.5878C15.3381 21.4752 10.9339 20.714 10.9339 20.714Z" fill="white"/>
<path d="M15.9818 21.5878C15.6139 21.5235 14.025 21.2608 12.671 21.041C12.3951 22.0274 12.3083 22.7886 13.8053 23.5445C14.2549 23.775 17.8875 23.9948 19.8444 24.0967C20.2582 23.0459 20.6414 22.1293 20.7743 21.9952C18.9911 21.7647 16.6511 21.7058 15.9818 21.5878Z" fill="#232121"/>
<path d="M17.1365 8.28242L14.4593 9.90673L12.7886 9.68694C12.7886 9.68694 13.9586 7.53727 14.0863 6.48656C14.214 5.43585 15.3841 6.84037 15.7162 7.18882C16.0534 7.53191 17.1365 8.28242 17.1365 8.28242Z" fill="url(#paint0_linear_141_1665)"/>
<path d="M19.3793 1.71546C18.5721 -0.0803958 14.2088 -0.954201 13.7847 2.03711C13.0132 7.48364 16.3342 8.05188 16.3342 8.05188C17.3561 8.30384 17.6217 8.31456 18.4086 7.99292C18.7918 7.83745 19.0779 6.78138 19.3129 5.99871C19.6552 5.9183 19.8851 5.81645 19.8443 5.55913C19.6705 5.21068 19.6859 4.89975 19.5939 4.6478C19.7625 3.43091 19.7574 2.5571 19.3793 1.71546Z" fill="#E5C3B7"/>
<path d="M17.2333 0.493154C15.7874 0.18223 13.9737 0.300166 13.7233 2.05314C12.9518 7.49967 16.3852 8.23946 16.3852 8.23946C16.9115 8.45389 17.0698 8.38956 17.8975 8.14297C16.2932 7.62297 16.702 2.64818 17.2333 0.493154Z" fill="#D3A197"/>
<path d="M13.8356 1.15794C14.1932 0.605785 15.118 0.021461 16.4873 1.79016e-05C17.8208 -0.0160644 18.3522 0.219809 19.1799 1.34557C19.5682 1.88165 17.5909 1.61897 17.2741 1.71546C16.9573 1.81196 16.9727 4.12781 16.9727 4.12781C16.9727 4.12781 15.6238 4.67997 15.6085 5.15171C15.5932 5.6181 13.9429 6.95829 13.9429 6.95829C13.9429 6.95829 13.2634 5.4412 13.0028 4.39048C12.3948 1.93525 13.6721 1.4099 13.8356 1.15794Z" fill="white"/>
<path d="M17.6878 3.35049C17.882 1.71545 18.5053 2.19256 18.7863 2.36947C19.0571 2.54101 19.6345 2.51957 19.6345 2.51957C19.6345 2.51957 20.1505 1.64576 19.6958 1.17402C18.8068 0.241243 18.025 0.0214515 16.6915 0.0428945C16.1551 0.053616 15.9303 2.05854 16.7477 4.21893C16.9266 4.17068 16.9317 4.18141 17.1616 4.02594C17.1667 4.0313 17.6163 3.98842 17.6878 3.35049Z" fill="white"/>
<path d="M16.4669 4.14386C16.237 3.81686 15.8333 3.60779 15.6085 3.92943C15.3837 4.24572 15.3224 5.39292 15.91 5.71457C16.4924 6.03085 16.4669 4.14386 16.4669 4.14386Z" fill="#D3A197"/>
<path d="M13.1665 8.45386C12.114 9.74044 11.879 9.75116 11.3272 11.4398C10.852 12.9033 10.8725 16.7952 10.3258 19.5989C9.86084 21.9898 9.401 22.8743 9.15576 24.1609C9.15576 24.1609 13.2534 21.7914 16.6817 21.6145C16.9014 20.7729 17.2028 19.8669 17.6831 15.6051C17.8619 14.0398 17.5962 13.3161 16.7379 11.145C16.1758 9.74044 13.1665 8.45386 13.1665 8.45386Z" fill="#E50914"/>
<path d="M11.3169 11.4452C10.8418 12.9087 10.8622 16.8006 10.3155 19.6043C9.85058 21.9952 9.39075 22.8797 9.14551 24.1663C9.14551 24.1663 11.1483 23.0084 13.5292 22.2525C13.6467 19.7544 14.0606 11.2362 14.1117 10.8877C14.1577 10.5446 14.5766 9.99246 14.8168 9.30092C14.0197 8.84525 13.1716 8.42175 13.1716 8.42175C12.114 9.7137 11.8687 9.75658 11.3169 11.4452Z" fill="#E50914"/>
<path d="M19.0778 29.2912C19.0778 29.4842 18.8734 29.6396 18.6281 29.6396H11.184C10.9336 29.6396 10.7344 29.4842 10.7344 29.2912V28.8516C10.7344 28.6586 10.9387 28.4978 11.184 28.4978H18.623C18.8734 28.4978 19.0726 28.6533 19.0726 28.8516V29.2912H19.0778Z" fill="#BFB8B8"/>
<path d="M13.1049 31.1621C13.1049 31.3551 12.9363 31.5159 12.7268 31.5159H11.9757C11.7663 31.5159 11.5977 31.3605 11.5977 31.1621V27.2112C11.5977 27.0183 11.7663 26.8628 11.9757 26.8628H12.7268C12.9363 26.8628 13.1049 27.0183 13.1049 27.2112V31.1621Z" fill="#9B8F8E"/>
<path d="M18.3983 31.1621C18.3983 31.3551 18.2297 31.5159 18.0203 31.5159H17.2692C17.0597 31.5159 16.8911 31.3605 16.8911 31.1621V27.2112C16.8911 27.0183 17.0597 26.8628 17.2692 26.8628H18.0203C18.2297 26.8628 18.3983 27.0183 18.3983 27.2112V31.1621Z" fill="#9B8F8E"/>
<path d="M15.4858 27.1255C15.5574 25.3832 15.7362 20.4191 15.5063 19.0146C15.2662 17.5672 16.4617 13.7182 15.3939 11.0592C14.791 9.55287 13.059 9.99781 12.4663 10.7108C11.4904 11.8794 11.7152 13.5198 11.7152 13.5198C11.9656 15.4497 12.4969 17.208 12.6094 19.8938C12.64 20.6657 13.4115 25.3457 13.6976 27.0826C13.6567 27.4364 13.5954 27.9296 13.529 28.6533C13.437 29.6289 13.6261 29.8541 13.7232 30.0149C13.8764 30.2722 14.1012 30.2133 14.1472 30.0203C14.1983 30.4223 14.5304 30.3794 14.6479 30.0632C14.6275 30.4384 15.2764 30.4384 15.2253 30.0792C15.2968 30.4599 15.6647 30.2937 15.7362 29.8219C15.8537 29.0392 15.8384 28.6479 15.8282 28.4925C15.8537 28.5193 15.8895 28.4442 15.9968 28.5085C16.2778 28.6801 16.3595 28.5246 16.4004 28.4817C16.5384 28.3316 16.0121 27.8492 15.4858 27.1255Z" fill="#E5C3B7"/>
<path d="M29.0001 11.7616C29.0001 13.4127 27.7279 14.7476 26.1593 14.7476C24.5908 14.7476 23.3135 13.4127 23.3135 11.7616C23.3135 10.1159 24.5857 8.78102 26.1593 8.78102C27.7279 8.77566 29.0001 10.1105 29.0001 11.7616Z" fill="#BFB8B8"/>
<path d="M27.5543 11.7616C27.5543 12.5711 26.931 13.2251 26.1595 13.2251C25.388 13.2251 24.7646 12.5711 24.7646 11.7616C24.7646 10.9521 25.388 10.2981 26.1595 10.2981C26.9259 10.2981 27.5543 10.9521 27.5543 11.7616Z" fill="#9B8F8E"/>
</g>
<defs>
<linearGradient id="paint0_linear_141_1665" x1="14.6492" y1="9.8127" x2="16.4198" y2="5.57218" gradientUnits="userSpaceOnUse">
<stop stop-color="white"/>
<stop offset="0.1275" stop-color="#FBFAFA"/>
<stop offset="0.2889" stop-color="#EEEBEA"/>
<stop offset="0.4687" stop-color="#D9D2D0"/>
<stop offset="0.6604" stop-color="#BCB0AC"/>
<stop offset="0.7125" stop-color="#B3A6A1"/>
</linearGradient>
<clipPath id="clip0_141_1665">
<rect width="29" height="37" fill="white"/>
</clipPath>
</defs>
</svg>
