<svg width="31" height="42" viewBox="0 0 31 42" fill="none" xmlns="http://www.w3.org/2000/svg">
<g clip-path="url(#clip0_141_1920)">
<path d="M29.1395 16.9394L0.791356 0.69232L0.715332 0.308716L29.4525 15.8587L29.1395 16.9394Z" fill="white"/>
<path d="M5.6211 16.6494L0.125 0L1.01046 0.463132L7.11923 18.965L5.6211 16.6494Z" fill="white"/>
<path d="M23.8804 15.7043C24.8017 15.6669 26.6933 16.1862 28.102 16.1628C28.5224 16.1581 28.9606 15.8494 29.2603 16.0739C29.2603 16.0739 29.466 16.3499 29.7566 16.4341C30.0473 16.5137 29.4928 16.4809 29.4034 16.6306C29.3139 16.7803 29.296 17.2107 29.296 17.2107C29.296 17.2107 28.9606 17.3978 28.0439 17.1967C27.695 17.1218 25.0297 17.5569 23.8804 17.4446C22.7311 17.3323 19.8064 15.8073 19.6767 15.4377C19.547 15.0681 20.6382 13.8939 20.6382 13.8939L23.8804 15.7043Z" fill="#D3A197"/>
<path d="M29.2782 18.3054C28.992 18.3054 28.7907 18.2446 28.7773 18.2399C28.6611 18.2025 28.594 18.0762 28.6298 17.9499L29.5063 14.8717C29.5242 14.8108 29.5644 14.7594 29.6181 14.7313C29.6717 14.7032 29.7343 14.6986 29.7925 14.7173C29.8059 14.7266 30.982 15.129 30.9999 16.3687C30.9999 16.6119 30.9507 16.8832 30.8345 17.178C30.4901 18.0808 29.7746 18.3054 29.3095 18.3054C29.3006 18.3054 29.2916 18.3054 29.2782 18.3054ZM29.2782 17.8423C29.6494 17.8329 30.1368 17.73 30.4275 17.0049C30.5214 16.7616 30.5572 16.5511 30.5572 16.3687C30.5572 15.9289 30.3425 15.6389 30.11 15.4377C30.0206 15.3629 29.9356 15.302 29.8596 15.2599L29.1261 17.8329C29.1709 17.8376 29.2201 17.8423 29.2782 17.8423ZM29.6449 15.157L29.7165 14.9372L29.6449 15.157Z" fill="white"/>
<path d="M28.4062 16.144C28.8624 15.6716 29.238 15.9055 29.7881 15.7932C29.9983 15.7511 30.119 15.7511 30.0072 15.9476C29.891 16.1394 29.323 16.2189 28.9697 16.2236C28.6209 16.2282 28.4062 16.144 28.4062 16.144Z" fill="#D3A197"/>
<path d="M30.0206 16.0926C29.9088 16.0552 29.3095 16.1862 29.3229 16.2751C29.3319 16.364 29.7254 16.3546 29.8819 16.3031C29.4034 16.3967 29.2245 16.3359 29.2424 16.4949C29.2603 16.654 29.7969 16.5558 29.7969 16.5558C29.7969 16.5558 29.2603 16.5043 29.2603 16.654C29.2603 16.8037 29.5331 16.8364 29.6583 16.8271C29.7835 16.8177 29.3497 16.8692 29.305 16.9581C29.2603 17.047 29.4302 17.1312 29.5823 17.1078C29.7388 17.0891 30.0295 16.7055 30.0832 16.5511C30.1413 16.4014 30.0206 16.0926 30.0206 16.0926Z" fill="#D3A197"/>
<path d="M22.579 34.4122C22.7802 35.1981 21.0316 37.6915 21.4162 38.4915C21.8053 39.2914 22.6103 39.8388 23.0217 40.1849C23.4331 40.5311 21.291 40.2738 20.6158 40.227C19.9405 40.1849 19.5156 40.096 19.5514 39.4505C19.5872 38.8096 20.3295 37.2471 20.2267 35.0531C20.1104 32.3912 22.579 34.4122 22.579 34.4122Z" fill="#D3A197"/>
<path d="M22.9235 39.8247C22.8251 39.4552 22.6239 38.978 22.4808 38.9032C22.1856 38.7488 21.9844 38.8704 21.9888 39.1885C21.9933 39.5066 22.436 40.3019 22.436 40.3019L22.9235 39.8247Z" fill="white"/>
<path d="M19.4576 39.226C19.2698 39.778 19.0059 40.2832 19.2563 40.8914C19.7617 41.2984 24.2382 41.4761 24.2382 41.4761C24.2382 41.4761 24.6988 41.4714 24.6272 40.9475C24.578 40.5873 23.6121 40.4142 22.8608 39.7172C22.2705 40.2271 22.1095 39.4084 21.6578 39.6376C20.5532 40.213 19.4576 39.226 19.4576 39.226Z" fill="white"/>
<path d="M20.5624 40.7885C19.6322 40.6435 19.185 40.7136 19.185 40.7136C19.1716 40.8493 19.1179 41.1908 19.2476 41.2235C19.3773 41.261 22.9057 41.8738 24.1713 41.7101C24.4843 41.668 24.6722 41.1768 24.6319 41.1393C24.5961 41.2984 24.4665 41.3639 24.2652 41.3732C22.2528 41.5183 21.5507 40.9429 20.5624 40.7885Z" fill="white"/>
<path d="M23.6033 40.2879L22.8162 40.2505C22.7938 40.2505 22.776 40.2318 22.767 40.2131C22.7625 40.1897 22.767 40.1663 22.7849 40.1523L22.9548 40.0072L22.3109 40.0166C22.284 40.0166 22.2617 39.9979 22.2572 39.9745C22.2527 39.9511 22.2661 39.923 22.2885 39.9137L22.8386 39.6704C22.8654 39.6564 22.8967 39.6704 22.9056 39.6985C22.9191 39.7266 22.9056 39.7593 22.8788 39.7687L22.5747 39.8996L23.0979 39.895C23.1203 39.895 23.1382 39.909 23.1471 39.9324C23.1561 39.9558 23.1471 39.9792 23.1292 39.9932L22.9459 40.1476L23.5988 40.1803C23.6301 40.1803 23.6525 40.2084 23.648 40.2365C23.6569 40.2645 23.6346 40.2879 23.6033 40.2879C23.6078 40.2879 23.6078 40.2879 23.6033 40.2879Z" fill="white"/>
<path d="M17.3159 8.83691C16.4572 9.55734 16.0771 12.1022 15.7909 13.0753C15.3482 14.5816 14.4225 14.0717 14.2391 14.039C14.0558 14.0062 15.3258 15.5781 15.9161 15.2178C16.5064 14.8623 17.9554 13.8238 18.018 12.425C18.0806 11.0263 17.3159 8.83691 17.3159 8.83691Z" fill="white"/>
<path d="M8.25569 32.4567C5.8408 33.5513 4.95534 34.5665 2.52704 36.1056C1.00656 36.8073 0.662211 36.8213 0.536995 37.233C0.411779 37.6447 2.55835 40.9755 3.26045 41.5182C3.96256 42.0561 3.80156 41.4106 3.80156 41.4106C3.80156 41.4106 3.05474 38.6739 3.80604 37.6447C4.65572 36.4752 8.98463 34.1969 8.98463 34.1969L8.25569 32.4567Z" fill="#D3A197"/>
<path d="M3.60918 39.6422C3.81936 39.3054 4.04296 38.8142 4.00271 38.6364C3.91775 38.2856 3.6852 38.2014 3.44819 38.4212C3.21117 38.6411 2.91602 39.558 2.91602 39.558L3.60918 39.6422Z" fill="white"/>
<path d="M1.67269 36.3535C1.1271 36.5781 0.559158 36.7091 0.272949 37.3359C0.304253 37.9066 2.27194 40.5591 2.99641 41.5228C3.16187 41.7427 3.6359 41.869 3.6359 41.869C3.6359 41.869 4.67341 41.6725 4.53031 41.0831C4.44534 40.7229 3.84162 40.8726 3.73429 40.4515C3.6359 40.0539 3.64485 40.0586 3.64932 39.5206C2.85777 39.3802 3.37205 38.5896 2.88461 38.3745C1.68163 37.8505 1.67269 36.3535 1.67269 36.3535Z" fill="white"/>
<path d="M3.02325 41.4292C1.70847 39.9697 1.78897 39.2305 1.24786 38.3464C0.715688 37.4762 0.353455 37.1534 0.353455 37.1534C0.241654 37.2376 -0.0534985 37.4248 0.00910974 37.5604C0.0672459 37.6821 1.81133 40.662 2.84884 41.7894C2.91592 41.8596 3.11716 42.0421 3.48386 41.9906C4.05628 41.9111 4.44982 41.5134 4.44982 41.4573C4.30672 41.5368 3.92659 41.6491 3.63591 41.6725C3.34076 41.6912 3.08586 41.4947 3.02325 41.4292Z" fill="white"/>
<path d="M3.73007 40.5217L3.21132 39.8433C3.1979 39.8246 3.19343 39.7965 3.20684 39.7778C3.22026 39.7591 3.24262 39.7451 3.26498 39.7498L3.49305 39.7919L3.04138 39.2632C3.02349 39.2445 3.02349 39.2118 3.03691 39.1884C3.05479 39.165 3.08163 39.1603 3.10399 39.1697L3.66746 39.4597C3.69429 39.4738 3.70771 39.5065 3.69429 39.5392C3.68088 39.5673 3.64957 39.5767 3.61827 39.5626L3.3097 39.4036L3.6764 39.834C3.68982 39.8527 3.69429 39.8808 3.68088 39.8995C3.67193 39.9229 3.6451 39.9322 3.62274 39.9275L3.37678 39.8854L3.80609 40.4468C3.82398 40.4702 3.81951 40.5076 3.79715 40.5263C3.78821 40.5357 3.77479 40.5404 3.76137 40.5404C3.7569 40.545 3.73901 40.5357 3.73007 40.5217Z" fill="white"/>
<path d="M19.9004 23.4232C19.2564 25.2009 18.9076 26.2394 18.6795 26.9271C18.6795 26.9271 15.0483 29.6544 12.5976 31.8719C10.5315 33.9723 4.40039 37.3031 4.40039 37.3031L3.18848 35.6331C3.18848 35.6331 5.34846 31.9888 9.27936 30.0989C11.0458 27.3902 12.0654 26.5388 12.7318 24.9623C13.6217 22.8712 14.3417 22.6467 15.5804 21.3368C17.5168 19.2831 19.9004 23.4232 19.9004 23.4232Z" fill="white"/>
<path d="M18.4961 23.9987C21.0809 25.8231 23.3527 27.7973 24.511 28.8218C25.6692 29.851 21.8367 37.1956 21.8367 37.1956L19.6499 37.0225C19.6499 37.0225 19.954 32.7982 21.5952 30.562C21.716 30.3983 17.6867 29.0183 15.9873 27.6289L18.4961 23.9987Z" fill="white"/>
<path d="M21.5281 17.6412C20.7053 18.3803 22.2213 16.7523 21.9261 16.2892C21.8546 15.7278 21.6354 14.6144 21.5013 14.418C21.3403 14.1841 20.9915 13.9455 20.6158 13.5759C20.5487 12.3736 21.7204 11.6251 22.5656 11.3211C22.5656 11.3211 20.674 6.44648 20.4235 7.90137C20.1731 9.35626 18.7555 12.3877 17.3691 12.7572C17.8476 13.1221 19.0909 15.1899 19.7348 15.9664C20.4548 16.8412 22.0335 17.1874 21.5281 17.6412Z" fill="#E5C3B7"/>
<path d="M21.5595 19.33C21.9262 18.7125 22.4539 18.6283 22.3332 17.557C22.275 17.0377 22.2661 17.0985 22.0022 16.0132C21.9486 15.6623 21.64 14.5115 21.4522 14.301C21.2957 14.1232 21.081 14.0063 21.081 14.0063C21.2196 14.1326 21.64 14.9045 21.6311 15.7746C21.081 15.8027 20.6875 15.9196 20.3431 15.7044C19.641 15.2694 19.3101 13.5057 17.5928 12.5935C17.3156 12.7572 16.6313 12.8882 16.2691 13.2204C15.576 14.1186 16.3094 16.0834 16.5106 17.9032C16.7208 19.7791 16.1663 20.4293 16.0232 21.3649C15.7414 22.1088 14.923 23.3204 15.1735 23.4561C16.685 24.9998 19.3414 25.7062 19.489 25.2291C20.674 21.4445 21.327 19.7136 21.5595 19.33Z" fill="#E50914"/>
<path d="M16.211 13.2484C15.5134 14.1466 16.533 14.9185 16.3944 16.743C16.2513 18.6283 16.7522 18.6937 16.0277 20.2516C15.746 21 13.9527 22.6467 14.2031 22.7777C14.8024 23.1754 15.6565 24.0455 16.4346 24.4151C16.8774 23.5777 17.8254 22.2397 18.4247 20.6726C19.0374 19.0727 18.9345 18.1043 18.608 15.5454C18.4068 13.9876 17.6868 13.1502 17.2262 12.7245C16.9042 12.8087 16.4615 13.0192 16.211 13.2484Z" fill="#E50914"/>
<path d="M21.211 12.135L18.2327 14.2729L17.374 12.7572C17.374 12.7572 18.0717 12.4064 18.4249 12.0087C19.1718 11.1854 19.8068 9.65564 19.8068 9.65564C19.8068 9.65564 20.1467 11.3257 21.211 12.135Z" fill="url(#paint0_linear_141_1920)"/>
<path d="M18.8361 8.93516C18.769 6.93293 19.3057 5.81019 20.8306 5.75873C22.3511 5.69791 23.3484 6.69435 23.4154 8.69658C23.4289 9.08018 23.4154 9.44975 23.3707 9.80061C23.4199 9.98306 23.487 10.1889 23.5898 10.4368C23.6033 10.6006 23.3975 10.6754 23.1784 10.7175C22.8609 11.7046 22.2035 12.673 21.4791 12.4718C20.0033 12.0648 18.9032 10.9374 18.8361 8.93516Z" fill="#E5C3B7"/>
<path d="M20.321 5.72129C19.5384 5.84292 18.9033 6.37623 18.7066 6.58674C18.0984 7.23232 18.1118 7.72352 18.1118 8.37378C18.1118 8.77609 17.0161 8.23811 16.882 9.86609C16.6092 12.7993 19.279 15.5453 18.2773 16.4622C20.5535 16.5043 17.9419 10.7081 18.5456 10.9467C18.9391 11.1011 19.355 11.5034 20.0258 10.5163C20.2494 10.2169 20.3612 10.114 20.2852 10.0485C20.1779 9.65558 20.2181 8.96322 20.5535 8.89772C20.7548 8.8603 21.032 9.22519 21.032 9.22519L22.0695 7.4709L23.2144 7.37734C23.3575 6.96567 22.6062 5.37043 20.321 5.72129Z" fill="white"/>
<path d="M20.5625 8.89768C20.7637 8.86025 21.041 9.22514 21.041 9.22514L22.244 7.95738L23.2949 7.48021C23.4246 7.08257 23.0042 5.48266 20.9023 5.70253C20.4149 6.78785 20.3076 8.94913 20.5625 8.89768Z" fill="white"/>
<path d="M16.1617 13.4168C15.2763 13.9454 12.6557 15.4705 12.204 15.4892C10.9027 15.536 9.64155 16.2003 8.58616 16.612C8.19709 16.6681 8.05846 16.7757 7.66045 16.6915C6.74816 16.4997 6.68108 16.6728 6.42617 16.6728C5.57202 16.6728 5.25451 16.5886 5.39314 16.771C5.53177 16.9488 5.95214 17.1172 5.95214 17.1172C5.95214 17.1172 5.76879 16.9956 5.58096 17.2435C5.31711 17.6037 6.38145 18.3335 6.614 18.3288C6.85102 18.3241 7.44579 18.2633 7.96902 18.0014C8.18368 17.8938 8.21498 17.7628 8.60405 17.6645L12.7809 17.2622C13.6843 16.7149 16.7073 16.1816 16.7073 16.1816C16.7073 16.1816 17.3558 15.7184 17.6822 14.8951C17.9193 14.3057 17.2887 12.7432 16.1617 13.4168Z" fill="#E5C3B7"/>
<path d="M4.54811 18.6236C4.36028 18.3055 4.27979 17.9967 4.27979 17.7114C4.31109 16.5184 5.55878 15.9618 5.56773 15.943C5.67505 15.8869 5.80474 15.9384 5.85841 16.0506L7.21343 18.9324C7.24026 18.9885 7.24473 19.0587 7.22237 19.1148C7.20001 19.1803 7.15529 19.2271 7.09715 19.2505C7.08374 19.2551 6.62759 19.4563 6.05965 19.461C6.05517 19.461 6.04623 19.461 6.04176 19.461C5.54537 19.461 4.92823 19.2739 4.54811 18.6236ZM5.22338 16.7383C4.95506 16.9816 4.71804 17.3231 4.71804 17.716C4.71804 17.9078 4.77171 18.1277 4.92376 18.385C5.21444 18.8762 5.63928 18.9978 6.05965 19.0025C6.31008 19.0025 6.54262 18.9557 6.70362 18.909L5.56325 16.4857C5.46934 16.5418 5.3486 16.626 5.22338 16.7383Z" fill="white"/>
<path d="M6.52956 18.3053C6.48931 18.1977 6.46695 18.0527 6.65477 17.9685C6.83813 17.8796 6.83366 17.8796 6.91862 17.8656C7.03937 17.8469 7.01701 17.7299 6.86496 17.7065C6.64583 17.6691 6.32385 17.8001 6.27018 17.8749C6.22099 17.9498 6.08236 17.9919 6.11813 18.0901C6.23888 18.441 6.52956 18.3053 6.52956 18.3053Z" fill="#D3A197"/>
<path d="M6.46701 17.7253C6.56539 17.6645 6.80241 17.6458 6.73533 17.5569C6.60564 17.3978 6.2926 17.4867 6.23446 17.5101C6.05111 17.599 5.82304 17.6317 5.79173 17.7768C5.77384 17.8657 5.75596 17.9124 5.91248 18.0294C6.069 18.1463 6.08688 18.0294 6.08688 18.0294L6.46701 17.7253Z" fill="#D3A197"/>
<path d="M6.59669 17.4119C6.61458 17.3464 6.6101 17.3043 6.47147 17.2809C6.20762 17.2341 6.09582 17.2622 5.93036 17.323C5.76489 17.3791 5.54577 17.468 5.55918 17.599C5.5726 17.7253 5.76489 17.8797 5.92589 17.73C6.12713 17.5382 6.59669 17.4119 6.59669 17.4119Z" fill="#D3A197"/>
<path d="M6.34604 17.1312C6.37288 17.0938 6.35499 16.9347 6.18505 16.93C6.01512 16.9253 5.83176 16.9347 5.67524 16.9862C5.52319 17.0376 5.37562 17.2575 5.38903 17.3744C5.40245 17.4914 5.61711 17.6832 5.73338 17.5148C5.99723 17.1218 6.34604 17.1312 6.34604 17.1312Z" fill="#D3A197"/>
</g>
<defs>
<linearGradient id="paint0_linear_141_1920" x1="17.7078" y1="14.0531" x2="21.3101" y2="10.3402" gradientUnits="userSpaceOnUse">
<stop stop-color="white"/>
<stop offset="0.1275" stop-color="#FBFAFA"/>
<stop offset="0.2889" stop-color="#EEEBEA"/>
<stop offset="0.4687" stop-color="#D9D2D0"/>
<stop offset="0.6604" stop-color="#BCB0AC"/>
<stop offset="0.7125" stop-color="#B3A6A1"/>
</linearGradient>
<clipPath id="clip0_141_1920">
<rect width="31" height="42" fill="white"/>
</clipPath>
</defs>
</svg>
