<svg width="30" height="44" viewBox="0 0 30 44" fill="none" xmlns="http://www.w3.org/2000/svg">
<g clip-path="url(#clip0_141_1420)">
<path d="M14.8852 0H13.4976V21.1802H14.8852V0Z" fill="#BFB8B8"/>
<path d="M24.3699 6.50744C23.9073 6.27717 22.0572 5.97782 21.903 6.50744C21.7675 6.96798 21.9263 7.82919 22.0198 8.39565C21.903 10.1549 21.7488 13.503 21.7488 13.503L20.0014 13.6044C18.8567 12.8583 17.7027 13.6182 17.7027 13.6182C17.7027 13.6182 16.2917 13.83 15.8292 13.5721C15.7684 12.4668 15.689 11.1267 15.689 11.1267L14.5396 11.053L14.1192 13.9267C14.1145 13.9313 13.409 14.3228 13.2968 14.7649C12.6007 17.5374 13.4277 18.8821 13.4277 18.8821L17.8475 18.9835C17.8475 18.9835 17.9503 16.5518 18.3615 16.5518C18.7726 16.5518 23.7064 16.1465 24.2204 15.032C24.6549 14.0833 23.8326 9.77267 23.5756 8.49697C23.7999 7.68642 24.781 6.71007 24.3699 6.50744Z" fill="#E5C3B7"/>
<path d="M14.292 13.1208C14.2733 12.5359 15.675 10.8687 15.675 10.8687L13.0399 10.7029L12.8016 13.3372C11.8578 14.0741 10.7178 12.9734 9.44695 13.3556L7.45661 13.1023C7.45661 13.1023 7.86776 10.6937 7.89579 9.21077C8.03128 8.53838 8.69473 6.83899 8.48449 6.36003C8.25088 5.8258 5.55503 6.28173 5.8634 6.96794C6.15774 7.6173 6.47078 7.99494 6.54553 8.68575C6.1484 9.79105 4.29822 14.2905 5.09249 14.9215C6.55955 16.0866 9.204 16.3399 10.0263 16.3399C10.1291 17.1505 10.3347 18.8729 10.5402 19.3795L14.4462 18.7716L14.049 17.0584C14.1004 17.0952 13.2968 17.4821 13.3155 17.4314C13.7173 16.1649 14.3107 13.7056 14.292 13.1208Z" fill="#D3A197"/>
<path d="M14.7077 39.4867H13.3668L13.3154 29.212H14.6563L14.7077 39.4867Z" fill="#BFB8B8"/>
<path d="M17.4084 39.5373C17.4084 39.6985 17.2776 39.8321 17.1094 39.8321H10.9655C10.802 39.8321 10.6665 39.7031 10.6665 39.5373V38.9525C10.6665 38.7913 10.802 38.6577 10.9655 38.6577H17.1141C17.2776 38.6577 17.4131 38.7867 17.4131 38.9525V39.5373H17.4084Z" fill="#9B8F8E"/>
<path d="M14.0212 31.4503C14.0259 31.5792 14.1006 31.6667 14.1894 31.6437L18.6093 30.4832C18.6981 30.4601 18.7635 30.3358 18.7588 30.2068L18.6934 28.5627C18.6887 28.4338 18.614 28.3463 18.5252 28.3693L14.1053 29.5298C14.0165 29.5529 13.9511 29.6772 13.9558 29.8062L14.0212 31.4503Z" fill="#E50914"/>
<path d="M14.4744 31.3628C14.4511 31.5286 14.2969 31.6437 14.1287 31.6253L5.5646 30.5246C5.39641 30.5016 5.27493 30.3496 5.29829 30.1838L5.57862 28.0746C5.60198 27.9088 5.75616 27.789 5.92436 27.812L14.4884 28.9081C14.6566 28.9312 14.7781 29.0831 14.7548 29.2489L14.4744 31.3628Z" fill="#E50914"/>
<path d="M11.8016 25.0211C9.91402 25.0211 4.76997 25.735 3.22348 27.1534C3.22348 27.1534 2.81233 27.8765 3.17208 28.991C3.83553 31.0542 5.15308 35.9958 4.798 36.903C4.44291 37.8103 2.55536 39.109 2.20027 39.4959C1.84519 39.8874 5.98006 39.4959 6.92384 39.3669C7.86761 39.238 6.93318 37.709 7.04064 36.7741C7.27425 34.6971 7.53589 30.893 6.47531 29.4653L12.0072 28.3002L11.8016 25.0211Z" fill="#D3A197"/>
<path d="M7.03582 36.7189C6.5032 37.0459 4.70908 36.963 4.64367 36.788C4.62031 37.4465 3.98022 38.0176 3.51301 38.3998C3.04579 38.7821 7.34886 38.713 7.34886 38.713C7.34886 38.713 7.14328 37.7275 7.11058 37.5985C6.94238 36.857 7.03582 36.7189 7.03582 36.7189Z" fill="#E8E9EA"/>
<path d="M3.13965 38.2802C3.27514 37.8426 3.52744 37.2716 3.70031 37.1887C4.05072 37.0229 4.27966 37.1841 4.26097 37.5663C4.24228 37.9532 3.68629 38.8835 3.68629 38.8835L3.13965 38.2802Z" fill="#BFB8B8"/>
<path d="M7.02655 37.6768C7.17139 37.5847 7.25081 37.7551 7.25081 37.7551C7.44237 38.4367 7.66197 39.1137 7.34426 39.8368C6.73688 40.2973 1.53675 40.2006 1.53675 40.2006C1.53675 40.2006 0.999452 40.1592 1.11158 39.5282C1.18634 39.0953 2.317 38.9525 3.21873 38.1558C3.88218 38.8144 4.11112 37.8334 4.62038 38.1466C5.55949 38.7269 6.59671 37.9578 7.02655 37.6768Z" fill="#BFB8B8"/>
<path d="M5.83061 39.625C6.91922 39.5144 7.43316 39.6342 7.43316 39.6342C7.4425 39.8046 7.48923 40.2191 7.33504 40.2513C7.18554 40.2881 3.05534 40.7855 1.59762 40.4954C1.23786 40.4217 1.04163 39.8092 1.08835 39.7677C1.12106 39.9612 1.27057 40.0487 1.4995 40.0809C3.83559 40.3895 4.68125 39.7355 5.83061 39.625Z" fill="#9B8F8E"/>
<path d="M3.24678 38.8005L2.33104 38.7913C2.29366 38.7913 2.26562 38.7637 2.26562 38.7268C2.26562 38.69 2.29366 38.6624 2.33104 38.6624L3.0926 38.6716L2.88235 38.4643C2.86366 38.4459 2.85899 38.4183 2.86833 38.3907C2.88235 38.3676 2.90571 38.3538 2.93375 38.3538L3.55047 38.3999L3.19071 38.2064C3.15801 38.188 3.14867 38.1512 3.16268 38.1189C3.18137 38.0867 3.21875 38.0775 3.25145 38.0913L3.87752 38.4229C3.90556 38.4367 3.91957 38.4689 3.91023 38.4966C3.90088 38.5242 3.87285 38.5426 3.84482 38.5426L3.09727 38.4874L3.29817 38.6854C3.31686 38.7038 3.32154 38.7315 3.31219 38.7545C3.2935 38.7867 3.27014 38.8005 3.24678 38.8005Z" fill="white"/>
<path d="M10.9931 22.9395L10.4091 24.602C10.4091 24.602 6.87227 25.4678 5.65283 25.9191C6.1621 25.9698 7.47031 28.8252 7.91416 29.2627C9.70828 29.0785 10.2783 28.7561 12.2826 28.3001L17.1417 26.2323L10.9931 22.9395Z" fill="white"/>
<path d="M14.815 25.5415C11.8996 27.0383 9.94662 27.0889 9.71769 29.0324C9.59621 30.0594 10.8297 37.253 10.4606 39.307C9.88121 40.3433 9.39064 41.8216 8.86735 42.015C8.34407 42.2085 10.2597 42.0381 11.4791 41.6466C12.6985 41.2597 12.8434 39.8873 12.5537 38.8511C12.5537 38.8511 13.2078 35.678 13.5582 33.9279C13.9086 32.1779 13.6657 30.2897 13.6657 30.2897L17.2632 29.1061L14.815 25.5415Z" fill="#E5C3B7"/>
<path d="M17.4688 23.5658C17.6183 25.0856 18.9359 28.36 17.0437 29.3502L14.1516 30.5384C14.1516 30.5384 13.6563 26.2968 10.4092 27.4528C12.1893 26.2738 12.2734 25.6152 12.2734 25.6152L12.6471 22.6724L17.4688 23.5658Z" fill="white"/>
<path d="M10.4607 37.9209C10.3345 37.4189 12.4323 38.3952 12.6987 38.0775C12.5398 38.8143 12.7641 40.3157 12.7594 40.4585C12.7547 40.6012 11.1008 41.4947 11.1008 41.4947L10.0869 41.0756C10.0869 41.071 10.5121 38.1281 10.4607 37.9209Z" fill="#E8E9EA"/>
<path d="M8.65235 42.3835C8.37202 42.7428 8.63366 43.6178 9.15227 43.8665C9.81105 44.1796 10.7922 43.8895 11.3108 43.4152C11.8902 42.8809 12.4462 42.2085 12.6938 41.9368C13.147 41.4486 12.9087 40.4907 12.9087 40.4907L10.8015 42.9961L8.65235 42.3835Z" fill="#9B8F8E"/>
<path d="M9.68506 41.2598C9.92801 40.7716 9.76916 38.8466 10.6756 38.9156C11.582 38.9847 12.4043 39.2012 12.222 39.9657C12.0398 40.7302 11.5586 41.6835 11.5586 41.6835L9.68506 41.2598Z" fill="#BFB8B8"/>
<path d="M12.75 39.7031C12.451 41.2275 10.8391 41.1216 10.498 41.0801C9.63831 40.9742 9.8579 40.7163 9.87192 40.5874C9.85323 40.4124 9.79249 40.4124 9.79249 40.4124C9.25986 41.269 9.17109 41.1216 8.80666 41.7802C8.17592 42.9131 8.55904 43.9355 10.1896 43.5118C11.3109 43.2217 11.8903 42.2453 12.6939 41.3565C13.1518 40.8591 12.9556 39.8413 12.75 39.7031Z" fill="#BFB8B8"/>
<path d="M10.9136 41.9414C10.5118 41.8263 9.87173 41.5223 9.5587 41.5269C9.44657 41.5315 9.41386 41.55 9.39517 41.6006C9.37648 41.6467 9.32509 41.6697 9.27837 41.6559C9.23165 41.6375 9.20828 41.5868 9.2223 41.5408C9.2737 41.398 9.41853 41.3473 9.55403 41.3519C9.88575 41.3565 10.3763 41.573 10.7501 41.7065C10.5165 41.3842 10.0353 41.2552 9.5073 41.1539C9.47927 41.1493 9.45591 41.1309 9.44189 41.1032C9.42788 41.0802 9.43255 41.048 9.44657 41.0249C9.52132 40.896 9.66149 40.8545 9.80632 40.8592C10.2642 40.8638 11.0071 41.2092 11.4276 41.246C11.2267 40.6289 10.5212 40.6289 9.96518 40.5828C9.91378 40.5782 9.87641 40.5368 9.88108 40.4861C9.88575 40.4355 9.9278 40.3986 9.97919 40.4032C10.5305 40.4447 11.4369 40.4309 11.6331 41.3151C11.6378 41.3381 11.6331 41.3657 11.6145 41.3888C11.5958 41.4118 11.5724 41.421 11.549 41.4256C11.535 41.4256 11.521 41.4256 11.507 41.4256C11.0304 41.421 10.2221 41.0296 9.80632 41.0342H9.80165C10.3296 41.1539 10.8249 41.3381 11.0211 41.8309C11.0351 41.8631 11.0258 41.8954 11.0024 41.923C10.9837 41.9414 10.9603 41.9506 10.937 41.9506C10.9323 41.946 10.923 41.946 10.9136 41.9414Z" fill="white"/>
<path d="M16.9688 29.3917C18.9732 28.1758 17.6183 25.0902 17.4688 23.5704L16.3802 23.3678C16.6044 24.3303 17.1184 26.2876 16.6979 26.7297C16.1606 27.3008 14.3337 28.1114 13.5161 28.5949C14.0301 29.5022 14.1515 30.543 14.1515 30.543L16.9688 29.3917Z" fill="white"/>
<path d="M12.8296 13.2497C12.881 12.4069 13.0118 10.8687 12.7502 10.2102C12.5493 9.70818 15.0069 10.9747 15.675 11.4352L13.3809 15.4051C12.9651 15.2669 12.1522 13.853 12.0073 13.6826C12.0587 13.5951 12.8109 13.5353 12.8296 13.2497Z" fill="url(#paint0_linear_141_1420)"/>
<path d="M11.143 16.013C10.8346 16.4182 11.2972 16.2478 12.5073 16.759C14.306 17.5189 16.9038 16.2524 16.9038 13.6182C17.2121 13.4155 17.8289 13.5445 17.8289 13.5445C17.8289 13.5445 17.2121 14.9491 17.2121 16.3676C17.2121 17.786 18.2774 17.763 18.2774 17.763C18.2774 17.763 17.2121 23.7454 17.8803 25.3665C16.4552 24.1737 11.8765 24.2244 11.8765 24.2244L11.143 16.013Z" fill="#E50914"/>
<path d="M11.8015 13.5031C11.6987 13.9084 11.2595 15.9854 12.1332 16.5427C12.6986 16.8696 13.4555 16.9203 13.4555 16.9203C13.4555 16.9203 12.493 19.8678 12.8387 24.2199C11.5259 24.2475 10.7456 24.1462 10.2317 24.6528C10.2317 24.6528 10.54 20.2178 9.79248 17.1506C9.79248 17.1506 11.0026 16.2111 10.9512 15.4005C10.8998 14.59 11.2969 13.4248 11.2969 13.4248L11.8015 13.5031Z" fill="#E50914"/>
<path d="M29.1026 10.2516C28.0654 9.35351 25.7199 7.63109 25.1172 7.18897C24.2108 7.18897 19.9778 7.20279 15.6187 7.22121C10.7176 7.24423 5.59691 7.28568 5.05961 7.33634C4.90543 7.32253 4.19526 7.70017 3.43837 8.26203C2.66279 8.81928 1.75639 9.54233 0.859331 10.2009C0.62105 10.3759 0.279982 10.3252 0.102439 10.0904C-0.0751033 9.8555 -0.0237094 9.5193 0.214571 9.3443C1.08827 8.70875 1.99467 7.9857 2.79828 7.40542C3.62525 6.82975 4.26534 6.36921 4.95682 6.2771C6.28839 6.16197 25.2667 6.12512 25.2854 6.12512C25.4022 6.12512 25.5144 6.16197 25.6078 6.23105C25.6125 6.23565 28.5373 8.35414 29.8081 9.45022C30.0324 9.64365 30.0557 9.97984 29.8595 10.2009C29.752 10.3206 29.6025 10.3805 29.453 10.3805C29.3362 10.3851 29.2054 10.3437 29.1026 10.2516Z" fill="#BFB8B8"/>
<path d="M15.8289 9.33976C15.6467 8.14696 15.2682 7.17523 13.5348 7.41471C11.3716 7.71406 11.7407 8.99436 11.9136 10.4543C12.0911 11.9142 13.2125 13.3649 14.3198 13.2359C15.1607 13.1392 15.7448 12.1491 15.9036 11.0392C16.1139 10.8872 16.2494 10.5648 16.2213 10.1964C16.1793 9.71741 16.1512 9.33516 15.8289 9.33976Z" fill="#E5C3B7"/>
<path d="M11.9933 9.26147C11.9606 9.26147 11.755 9.84636 11.727 9.85096C11.3906 9.91544 11.47 10.3069 11.5634 10.7859C11.6429 11.2003 11.9232 11.5089 12.2129 11.5411C12.6614 12.5405 13.4884 13.3142 14.306 13.2175C14.3434 13.2129 14.3761 13.2037 14.4135 13.1945L14.306 13.0517C12.4605 13.3188 11.8391 8.06407 11.9933 9.26147Z" fill="#D3A197"/>
<path d="M12.7688 7.25354C12.4605 7.13841 11.9325 7.35486 11.6148 7.74171C11.3391 8.07791 11.2878 8.48779 11.3485 9.12333C11.4092 9.75888 11.5681 9.89704 11.5681 9.89704L11.8344 9.92467L12.0493 10.026L12.0446 9.50098C12.0446 9.50098 11.811 9.04965 12.2783 8.52924C12.7455 8.00883 13.5584 8.13778 13.5584 8.13778L12.7688 7.25354Z" fill="white"/>
<path d="M12.9043 8.0963C13.1426 8.30815 13.3248 8.3496 13.8948 8.23907C14.4602 8.12854 15.0535 8.40026 15.2264 8.62592C15.4039 8.85159 15.5161 9.43187 15.5161 9.43187L15.8805 9.33515L16.1094 9.41805C16.1094 9.41805 16.1935 8.3496 15.7123 7.668C15.3479 7.1614 15.1376 6.98179 14.4228 6.88508C14.0957 6.83903 12.9651 6.74692 12.7688 7.2443C12.6801 7.49299 12.9043 8.0963 12.9043 8.0963Z" fill="white"/>
<path d="M5.93799 6.10218C6.09217 5.74757 7.47046 5.47124 7.86759 5.71993C8.26473 5.97323 8.24137 6.62259 8.04514 6.93576C7.84891 7.24893 7.5312 6.02389 7.5312 6.02389C7.5312 6.02389 7.8162 7.0601 7.4798 7.11537C7.26956 7.15221 6.9939 6.30482 6.9939 6.30482C6.9939 6.30482 7.12005 7.18906 6.86308 7.1384C6.60611 7.08774 6.3725 6.22653 6.3725 6.22653C6.3725 6.22653 6.56873 7.10155 6.31643 7.00945C6.07348 6.91734 5.93799 6.10218 5.93799 6.10218Z" fill="#E5C3B7"/>
<path d="M8.07338 8.53376C8.33035 8.22981 8.6901 7.21662 8.79289 7.06464C8.89568 6.91266 8.53592 6.25409 8.53592 6.05145C8.53592 5.84882 8.27895 5.7475 8.27895 6.15277C8.27895 6.55805 8.17616 7.16596 8.17616 7.16596L7.81641 8.17915L8.07338 8.53376Z" fill="#D3A197"/>
<path d="M24.3092 6.02381C24.155 5.6692 22.7767 5.39287 22.3796 5.64156C21.9824 5.89486 22.0058 6.54422 22.202 6.85739C22.3983 7.17056 22.716 5.94552 22.716 5.94552C22.716 5.94552 22.431 6.98174 22.7674 7.037C22.9776 7.07384 23.2533 6.22645 23.2533 6.22645C23.2533 6.22645 23.1271 7.11069 23.3841 7.06003C23.641 7.00937 23.8747 6.14816 23.8747 6.14816C23.8747 6.14816 23.6784 7.02318 23.9307 6.93108C24.1737 6.83897 24.3092 6.02381 24.3092 6.02381Z" fill="#E5C3B7"/>
<path d="M22.1271 8.3542C21.8702 8.05024 21.5104 7.03705 21.4076 6.88508C21.3048 6.7331 21.6646 6.07453 21.6646 5.87189C21.6646 5.66925 21.9216 5.56793 21.9216 5.97321C21.9216 6.37848 22.0244 6.98639 22.0244 6.98639L22.3841 7.99958L22.1271 8.3542Z" fill="#E5C3B7"/>
</g>
<defs>
<linearGradient id="paint0_linear_141_1420" x1="12.7707" y1="14.3258" x2="14.227" y2="10.633" gradientUnits="userSpaceOnUse">
<stop stop-color="white"/>
<stop offset="0.6429" stop-color="#C6C0B9"/>
</linearGradient>
<clipPath id="clip0_141_1420">
<rect width="30" height="44" fill="white"/>
</clipPath>
</defs>
</svg>
