<svg width="44" height="29" viewBox="0 0 44 29" fill="none" xmlns="http://www.w3.org/2000/svg">
<g clip-path="url(#clip0_141_2320)">
<path d="M16.9546 21.3697C16.9546 17.1583 21.0702 13.7443 26.1513 13.7443C31.2277 13.7443 35.3481 17.1583 35.3481 21.3697C35.3481 25.581 31.2277 28.9951 26.1513 28.9951C21.0702 29 16.9546 25.581 16.9546 21.3697Z" fill="#E50914"/>
<path d="M20.5015 16.7475C20.5015 15.1627 23.1878 13.8763 26.5052 13.8763C29.8177 13.8763 32.5089 15.1627 32.5089 16.7475C32.5089 18.3322 29.8225 19.6186 26.5052 19.6186C23.1926 19.6186 20.5015 18.3322 20.5015 16.7475Z" fill="white"/>
<path d="M31.8633 15.197L17.9869 24.9061C17.9869 24.9061 16.1132 21.673 17.0835 20.1518C18.0491 18.6307 26.7009 15.8622 26.8921 15.7938C27.0881 15.7253 31.8633 15.197 31.8633 15.197Z" fill="url(#paint0_linear_141_2320)"/>
<path d="M3.80963 23.0963C3.23125 23.067 2.00278 23.3996 0.889041 23.3898C0.30588 23.3849 -0.511502 24.2604 0.42538 24.9012C1.36226 25.5468 2.2848 25.493 2.2848 25.493L3.80963 23.0963Z" fill="white"/>
<path d="M5.28198 21.5214C4.32597 22.529 2.92543 23.4485 2.35183 24.2604C2.35183 24.2604 1.86905 26.168 2.77725 26.4175C3.68545 26.662 4.53152 25.268 4.68448 25.1311C4.83744 24.9892 6.5678 23.3458 6.5678 23.3458L5.28198 21.5214Z" fill="#E5C3B7"/>
<path d="M4.67971 25.1262C4.56021 25.6153 4.57933 27.1365 3.37955 27.8359C3.37955 27.8359 2.17498 28.4424 1.34804 27.7968C0.755321 27.337 0.53544 26.5153 1.37672 25.317C2.0029 24.4219 2.30882 24.0893 2.37574 24.0795C2.57172 24.0599 2.25146 24.6126 2.75337 24.8768C3.94837 25.5028 4.67971 25.1262 4.67971 25.1262Z" fill="white"/>
<path d="M2.36136 24.906C2.48086 24.4658 2.00764 23.3017 2.63382 23.3359C3.26 23.3702 4.69401 23.8397 4.42155 24.3729C4.15387 24.9011 3.27434 25.9479 3.27434 25.9479L2.36136 24.906Z" fill="white"/>
<path d="M2.83946 26.4663C2.78688 26.4174 2.5192 26.3343 2.2802 26.2609C2.0412 26.168 1.79264 26.1191 1.73528 25.8892C1.73528 25.8794 1.7305 25.8647 1.7305 25.8452C1.72572 25.7962 1.7544 25.7327 1.8022 25.7033C1.85 25.674 1.89302 25.6691 1.94082 25.6691C2.1607 25.674 2.567 25.806 3.23142 25.8452C3.23142 25.8403 3.22186 25.8158 3.1645 25.7816C3.10236 25.7424 3.00676 25.7033 2.89682 25.6642C2.67694 25.5859 2.3997 25.5126 2.17982 25.4245L2.12724 25.3707C2.11768 25.356 2.11768 25.3267 2.11768 25.3218C2.13202 25.18 2.26108 25.1702 2.328 25.1702C2.58612 25.1751 3.1167 25.3365 3.47042 25.4001C3.22186 25.1457 2.51442 25.0039 2.36624 25.0088C2.31366 25.0039 2.27064 24.9599 2.27542 24.906C2.27542 24.8522 2.32322 24.8082 2.3758 24.8131C2.58612 24.8376 3.55646 24.9403 3.74288 25.4979C3.75244 25.5272 3.74766 25.5615 3.72376 25.5859C3.70464 25.6104 3.67596 25.6251 3.6425 25.6251C3.48954 25.6153 3.27922 25.5713 3.06412 25.5223C3.25054 25.5957 3.4035 25.6642 3.43218 25.8549C3.43218 25.9185 3.39872 25.9772 3.36048 26.0212L3.284 26.0555C2.57178 26.0164 2.10334 25.8696 1.9456 25.8745C1.94082 25.8745 1.93604 25.8745 1.93604 25.8745C1.95994 25.9136 2.12724 26.0164 2.34712 26.0799C2.58612 26.1631 2.83946 26.2169 2.9733 26.3245C3.01632 26.3587 3.0211 26.4223 2.98286 26.4615C2.96374 26.4859 2.93506 26.4957 2.91116 26.4957C2.88248 26.4859 2.85858 26.481 2.83946 26.4663Z" fill="white"/>
<path d="M39.0432 11.8563C38.9094 10.6628 37.4371 9.38132 36.7631 8.84818C37.179 7.80635 38.0203 7.35636 38.0203 7.35636L37.2603 7.37592L36.7345 6.06508L35.3865 5.90856C35.3865 5.90856 35.1427 6.36344 34.6982 6.78898C34.3588 6.56887 32.7862 5.57596 32.3034 5.74715C31.7632 5.93791 30.3962 7.15093 29.8799 7.54712C29.3637 7.9433 22.7386 10.9759 22.3036 11.8318C22.012 12.409 24.6601 16.3122 25.1859 16.1801C27.8054 15.5247 36.309 14.1307 37.1455 13.6709C37.657 13.4019 39.1149 12.4823 39.0432 11.8563Z" fill="#E5C3B7"/>
<path d="M36.5143 3.17928C32.0928 0.0244517 30.0613 -0.445105 29.3252 0.327707C29.306 0.313033 29.2965 0.303251 29.2965 0.303251C29.2965 0.303251 28.6655 5.96238 30.7735 7.74278C32.0737 8.84331 33.154 6.29499 33.154 6.29499C32.805 6.00151 32.4943 4.10372 32.1693 3.2233C33.6367 3.57058 35.9646 4.31404 35.9646 4.31404L37.3843 4.97436L39.0716 3.42384L36.5143 3.17928Z" fill="#D3A197"/>
<path d="M35.444 7.45416C35.1429 7.66938 33.0827 9.27369 32.1792 9.25902C31.2758 9.24435 29.5024 8.21719 29.5024 8.21719C29.5024 8.21719 30.2577 7.29764 30.3342 7.13623C30.4059 6.97482 31.3953 4.64661 31.3953 4.64661C31.3953 4.64661 32.6716 5.57594 32.858 5.74713C33.0444 5.92321 34.2442 6.52483 34.6171 6.73515C34.7987 6.83298 35.2719 6.0993 35.2719 6.0993L35.444 7.45416Z" fill="#D3A197"/>
<path d="M36.8062 10.3449C37.4515 10.2129 40.5155 8.97538 43.4839 8.31506C43.4839 8.31506 43.871 8.44713 44.0001 9.10744C44.1292 9.76775 38.2928 14.1747 36.7393 13.6465C35.1905 13.1182 36.8062 10.3449 36.8062 10.3449Z" fill="#E5C3B7"/>
<path d="M43.871 8.64764C43.1588 8.11939 42.9915 6.61289 39.0623 4.6026C38.3644 4.24555 38.3501 5.3265 38.3501 5.3265C38.3501 5.3265 41.7726 9.96826 42.0642 9.96826C42.3557 9.96826 43.871 8.64764 43.871 8.64764Z" fill="#E5C3B7"/>
<path d="M34.679 6.74989C34.7794 6.70587 35.6972 5.88904 36.0605 5.44393C36.3616 5.0722 37.2889 7.3026 37.2124 8.02649L31.854 9.59657C31.7871 9.21017 32.0739 7.00423 33.637 6.21675C34.354 6.45152 34.5834 6.79391 34.679 6.74989Z" fill="url(#paint1_linear_141_2320)"/>
<path d="M39.2009 5.82541C39.7411 4.75423 39.9992 3.74664 38.5126 2.94448C36.6532 1.9369 36.2086 3.18905 35.5107 4.47054C34.8129 5.75693 34.8607 7.57646 35.7975 8.10961C36.5098 8.51558 37.5327 8.05091 38.2879 7.23897C38.5413 7.23897 38.8281 7.0531 39.0145 6.74007C39.2583 6.3341 39.4543 6.00638 39.2009 5.82541Z" fill="#E5C3B7"/>
<path d="M35.812 6.27056C36.8588 2.70976 37.9438 2.93964 37.9008 2.92497C36.8683 2.56791 36.1848 2.83693 35.6925 3.74669C35.6686 3.72713 35.6303 4.01082 35.6112 3.98636C35.4296 3.8005 35.2623 4.14777 35.0902 4.66135C34.9563 5.06243 35.0663 5.5222 35.1189 5.53199C34.8942 6.59827 34.9802 7.65966 35.6733 8.05096C35.7068 8.07053 35.7355 8.08031 35.7689 8.09498C35.7642 8.09498 35.42 7.33684 35.812 6.27056Z" fill="#D3A197"/>
<path d="M38.2641 2.30379C38.0873 2.03477 37.289 1.97608 36.8253 2.10325C36.4143 2.21575 36.051 2.4652 35.7929 3.04236C35.5347 3.62442 35.5586 3.82007 35.5586 3.82007L35.5156 3.93257L35.6256 4.14289L35.8502 3.69779C35.8502 3.69779 36.0701 3.18421 36.7297 3.02769C37.3894 2.87117 37.571 3.25269 37.571 3.25269L38.2641 2.30379Z" fill="white"/>
<path d="M37.2314 2.98861C37.2984 3.29675 37.8098 3.58533 38.3165 3.82011C38.8232 4.05978 39.1243 4.61738 39.1339 4.90107C39.1435 5.18476 38.9044 5.7179 38.9044 5.7179L39.2438 5.84997L39.3777 6.05051C39.3777 6.05051 40.0564 5.23367 40.066 4.40706C40.0708 3.78587 39.9847 3.34077 39.478 2.84676C39.2486 2.62177 38.3452 1.85874 37.9054 2.15221C37.6951 2.29405 37.2314 2.98861 37.2314 2.98861Z" fill="white"/>
<path d="M26.1132 13.2258C26.0845 13.7541 27.7671 16.3562 27.7671 16.3562C27.7671 16.3562 26.7442 17.3931 25.2958 17.9801C23.8475 18.567 16.013 21.4284 15.492 21.5311C15.492 21.5311 10.7072 24.187 5.63086 24.8474C5.24846 24.8963 5.08594 22.8322 5.08594 22.8322L18.9527 14.3068L26.1132 13.2258Z" fill="white"/>
<path d="M25.1142 10.0025C23.6945 9.92914 20.4154 10.9465 18.403 12.4285C16.3907 13.9106 12.3563 17.0018 12.3563 17.0018C12.3563 17.0018 7.82966 18.3518 4.08691 22.1229C4.55058 23.2039 5.693 24.8522 5.693 24.8522C5.693 24.8522 14.9184 19.9806 15.8505 19.5012C16.7778 19.0219 21.9689 16.7132 21.9689 16.7132L27.2365 14.116L25.1142 10.0025Z" fill="white"/>
<path d="M33.2739 6.22156C32.8676 6.59818 31.6869 7.73294 32.4995 9.13183C32.9488 9.90464 34.2203 10.741 35.2719 10.3351C36.3283 9.9291 37.2652 9.21498 37.2652 9.21498L37.9248 9.88018C37.9248 9.88018 35.7881 10.3987 35.3436 11.4992C34.8991 12.5997 34.7843 14.2774 35.0329 14.4241C34.5597 14.8643 32.8915 15.2067 30.7452 15.554C28.5942 15.9062 27.6287 16.5127 27.49 16.7034C27.3514 16.8942 25.0427 11.3867 24.9949 11.0492C24.9471 10.7166 31.9115 7.8112 31.9115 7.8112L33.2739 6.22156Z" fill="#E50914"/>
<path d="M33.5652 6.05049L33.2976 5.93799C33.2976 5.93799 32.1312 6.96025 31.3091 7.21459C30.4869 7.46894 29.7556 7.601 29.7556 7.601C29.7556 7.601 25.6687 9.86563 24.4976 9.96835L25.4488 12.2672L32.5758 9.33738C32.5758 9.33738 31.9448 8.3787 32.6045 7.45426C33.2641 6.52982 33.7947 6.22657 33.7947 6.22657L33.5652 6.05049Z" fill="#E50914"/>
</g>
<defs>
<linearGradient id="paint0_linear_141_2320" x1="16.8055" y1="20.0509" x2="31.8612" y2="20.0509" gradientUnits="userSpaceOnUse">
<stop stop-color="white"/>
<stop offset="0.1709" stop-color="#FCFCFC"/>
<stop offset="0.3121" stop-color="#F4F2F1"/>
<stop offset="0.4429" stop-color="#E6E2E0"/>
<stop offset="0.5673" stop-color="#D3CBC8"/>
<stop offset="0.6861" stop-color="#B9AEA9"/>
<stop offset="0.7125" stop-color="#B3A6A1"/>
</linearGradient>
<linearGradient id="paint1_linear_141_2320" x1="33.536" y1="8.57909" x2="36.7058" y2="6.19237" gradientUnits="userSpaceOnUse">
<stop stop-color="white"/>
<stop offset="0.6429" stop-color="#C6C0B9"/>
</linearGradient>
<clipPath id="clip0_141_2320">
<rect width="44" height="29" fill="white"/>
</clipPath>
</defs>
</svg>
