<svg width="29" height="39" viewBox="0 0 29 39" fill="none" xmlns="http://www.w3.org/2000/svg">
<g clip-path="url(#clip0_140_942)">
<path d="M22.7849 8.5946C22.7545 10.0287 21.5673 11.1689 20.1315 11.1385C18.6957 11.1081 17.5541 9.9223 17.5846 8.48818C17.615 7.05406 18.8022 5.91385 20.238 5.94426C21.6738 5.97466 22.8153 7.16047 22.7849 8.5946Z" fill="#BFB8B8"/>
<path d="M22.2165 8.58953C22.1861 10.0237 20.9989 11.1639 19.5631 11.1334C18.1273 11.103 16.9858 9.91723 17.0162 8.48311C17.0467 7.04899 18.2339 5.90879 19.6696 5.93919C21.1054 5.9696 22.247 7.15541 22.2165 8.58953Z" fill="#9B8F8E"/>
<path d="M19.6087 8.34629C19.5783 8.06251 19.421 8.02704 19.3906 8.02704L16.1639 8.27535C16.1334 8.27535 16.1182 8.44765 16.1334 8.65542C16.1486 8.86319 16.1892 9.03042 16.2197 9.02535L19.4515 8.77704C19.4819 8.77704 19.629 8.65542 19.6138 8.44765V8.34629H19.6087Z" fill="#BFB8B8"/>
<path d="M18.8225 12.2179C18.8225 12.2179 19.1624 9.94256 19.0102 9.71452C18.858 9.48647 18.097 8.57431 18.097 8.34627C18.097 8.11823 17.2599 7.89019 17.4882 9.25843C17.7216 10.6216 18.8225 12.2179 18.8225 12.2179Z" fill="#D3A197"/>
<path d="M10.1012 29.3362C7.26005 29.6808 6.03734 30.4105 3.05414 31.196C1.2632 31.424 0.902983 31.3277 0.649309 31.7027C0.395635 32.0727 1.64371 36.0507 2.21701 36.8058C2.79032 37.5608 2.81061 36.8666 2.81061 36.8666C2.81061 36.8666 2.84612 33.9122 3.92678 33.1217C5.15456 32.2247 10.3447 31.2973 10.3447 31.2973L10.1012 29.3362Z" fill="#D3A197"/>
<path d="M3.13539 35.0473C3.44994 34.7788 3.83046 34.3531 3.8406 34.1706C3.85582 33.7956 3.63766 33.6386 3.32311 33.7855C3.00855 33.9325 2.43018 34.7484 2.43018 34.7484L3.13539 35.0473Z" fill="#2C4D75"/>
<path d="M2.09026 31.1808C1.45608 31.2315 0.826967 31.1909 0.339913 31.723C0.202929 32.3007 1.46622 35.549 1.93806 36.7298C2.0446 36.9984 2.50121 37.272 2.50121 37.272C2.50121 37.272 3.64275 37.3936 3.66811 36.7652C3.68333 36.3852 3.00856 36.3396 3.02378 35.8886C3.039 35.4629 3.04408 35.4679 3.2115 34.9409C2.42511 34.5558 3.19628 33.9274 2.75489 33.5676C1.65902 32.6707 2.09026 31.1808 2.09026 31.1808Z" fill="#2C4D75"/>
<path d="M1.99874 36.6487C1.06522 34.7889 1.35948 34.0794 1.06015 33.0355C0.760814 32.0017 0.481773 31.571 0.481773 31.571C0.339715 31.6217 -0.0255749 31.7179 -0.000207561 31.8649C0.0251598 32.0068 0.95868 35.5085 1.70448 36.9527C1.75014 37.044 1.90742 37.2872 2.30822 37.348C2.93226 37.4443 3.45483 37.1706 3.47512 37.1149C3.30263 37.1504 2.87138 37.1453 2.5619 37.0744C2.24734 37.0034 2.03933 36.7298 1.99874 36.6487Z" fill="white"/>
<path d="M2.99833 35.9646L2.65841 35.1284C2.64826 35.1082 2.65334 35.0778 2.67363 35.0626C2.68885 35.0474 2.71929 35.0423 2.73959 35.0524L2.96789 35.1639L2.65334 34.5001C2.64319 34.4747 2.64826 34.4443 2.67363 34.4291C2.699 34.4139 2.72944 34.4139 2.74973 34.4342L3.25201 34.8953C3.27737 34.9156 3.27737 34.9561 3.25708 34.9815C3.23679 35.0068 3.1962 35.0068 3.17083 34.9865L2.89686 34.7332L3.15054 35.2754C3.16068 35.2957 3.15561 35.3261 3.14039 35.3413C3.12517 35.3565 3.09473 35.3615 3.07444 35.3514L2.83598 35.2349L3.11502 35.924C3.12517 35.9544 3.10995 35.9899 3.07951 36.0001C3.07444 36.0051 3.06429 36.0051 3.05414 36.0051C3.02877 36.0001 3.00848 35.9849 2.99833 35.9646Z" fill="white"/>
<path d="M17.6757 24.0456C17.0517 25.2872 12.5972 32.174 11.1969 32.174C9.79663 32.174 5.57043 33.0557 4.32743 33.0557C4.25132 33.2128 2.85104 30.8818 3.78456 30.7247C4.71808 30.5676 7.12799 29.174 9.69517 29.326C10.786 27.152 12.1812 23.1132 13.1147 22.4899C14.0482 21.8716 17.6757 24.0456 17.6757 24.0456Z" fill="white"/>
<path d="M21.7039 25.4037C21.3843 27.6436 22.1301 32.7314 22.8759 35.7973L22.4903 37.1301C22.4903 37.1301 27.6551 38.6098 27.6551 37.8091C27.6551 37.0085 24.814 36.7703 24.814 35.3311C24.814 33.8919 25.1234 24.1267 25.1234 24.1267L21.7039 25.4037Z" fill="#E5C3B7"/>
<path d="M26.7674 36.7905C26.6051 36.375 26.3057 35.848 26.1231 35.777C25.7477 35.6351 25.5143 35.7973 25.5549 36.1672C25.5954 36.5321 26.2246 37.3987 26.2246 37.3987L26.7674 36.7905Z" fill="#2C4D75"/>
<path d="M22.4904 36.5169C22.323 37.1757 22.0642 37.7939 22.4397 38.4679C23.0992 38.8784 28.5481 38.549 28.5481 38.549C28.5481 38.549 29.1062 38.4882 28.9591 37.8902C28.8576 37.4797 27.6654 37.3936 26.676 36.674C26.0165 37.3328 25.7273 36.4054 25.2098 36.7247C23.9313 37.5254 22.4904 36.5169 22.4904 36.5169Z" fill="#2C4D75"/>
<path d="M24.0124 38.1942C22.8658 38.1385 22.3331 38.2753 22.3331 38.2753C22.3331 38.4375 22.3077 38.8328 22.465 38.8632C22.6273 38.8885 26.9804 39.1824 28.4973 38.8378C28.8728 38.7517 29.0453 38.1638 28.9945 38.1233C28.9692 38.3108 28.817 38.402 28.5785 38.4375C26.1483 38.8327 25.2249 38.25 24.0124 38.1942Z" fill="white"/>
<path d="M26.62 37.2618C26.6098 37.2365 26.6149 37.2112 26.6352 37.1909L26.828 36.9983L26.0467 37.0845C26.0162 37.0895 25.9858 37.0693 25.9807 37.0389C25.9706 37.0085 25.9858 36.978 26.0112 36.9628L26.6504 36.6183C26.6809 36.603 26.7214 36.6132 26.7367 36.6436C26.7519 36.674 26.7417 36.7145 26.7113 36.7297L26.3612 36.9223L26.9954 36.8514C27.0208 36.8463 27.0461 36.8615 27.0614 36.8868C27.0715 36.9122 27.0664 36.9375 27.0512 36.9578L26.8483 37.1605L27.6448 37.1149C27.6803 37.1149 27.7108 37.1402 27.7108 37.1757C27.7108 37.2112 27.6854 37.2416 27.6499 37.2416L26.6859 37.2973C26.6859 37.2973 26.6859 37.2973 26.6809 37.2973C26.6555 37.2973 26.6301 37.2821 26.62 37.2618Z" fill="white"/>
<path d="M11.9734 17.7517C11.5675 19.1706 9.80198 20.2196 10.5275 23.4274C10.8877 25.0237 12.7395 26.3818 16.6461 26.2247C21.7247 26.0169 21.6739 26.5338 21.6739 26.5338C21.6739 26.5338 20.5831 28.1909 22.2827 34.5051H24.9108C24.9108 34.5051 25.8291 26.0524 25.1442 24.5625C24.0026 22.0794 17.6304 21.2483 15.9155 20.6301L16.7628 18.4662L11.9734 17.7517Z" fill="white"/>
<path d="M16.037 1.22132C15.21 0.750039 11.6383 -0.324285 12.1811 5.35646C12.6022 9.77538 12.7646 14.2146 11.2983 14.1487C11.9985 14.7821 13.896 15.3852 13.896 15.3852C13.896 15.3852 15.555 9.64362 15.4484 8.49835C15.3419 7.34801 13.83 2.27538 16.1892 2.08788C16.3972 2.07267 16.037 1.22132 16.037 1.22132Z" fill="white"/>
<path d="M20.2836 6.65373C18.8174 7.43413 17.7063 8.89866 18.4927 10.6216C18.8174 11.3362 17.5795 10.7281 16.5039 9.98819C15.5551 9.33954 15.7429 8.37163 15.0884 8.11319C16.7677 6.59798 16.859 4.88515 16.722 3.22805C16.5952 1.57096 20.2836 6.65373 20.2836 6.65373Z" fill="#E5C3B7"/>
<path d="M17.1483 2.97973C17.0722 2.03716 19.6901 5.36655 20.5679 6.48142L15.4741 10.2365C14.8501 9.79054 15.6922 8.02703 15.54 7.65709C16.0778 7.20608 17.2802 4.63682 17.1483 2.97973Z" fill="url(#paint0_linear_140_942)"/>
<path d="M15.5805 7.45947C15.0731 7.76353 14.6673 7.9713 14.2614 8.174C14.1092 8.25001 13.3583 8.5642 13.196 9.10136C12.9321 9.97299 13.1148 11.3108 12.7393 12.7196C12.5161 13.5558 12.714 15.5777 12.2066 16.5912C11.6993 17.6047 10.3853 20.7162 10.3853 20.7162C10.3853 20.7162 11.6739 19.9409 13.0184 20.0574C15.063 20.2348 17.4069 21.3902 17.4881 20.9037C17.7925 19.1605 17.9752 16.3835 18.2847 16.3125C18.9442 16.1605 19.7712 14.9392 19.6038 14.1892C19.2994 12.8463 18.9188 12.0659 18.4622 10.5203C18.4622 10.5203 18.031 10.3936 16.8895 9.25339C16.2096 8.56927 15.5805 7.45947 15.5805 7.45947Z" fill="#E50914"/>
<path d="M14.2614 8.15374C14.1092 8.22975 13.0691 8.79225 12.9068 9.32941C12.643 10.201 13.1148 11.2906 12.7393 12.6993C12.5161 13.5355 12.714 15.5575 12.2066 16.571C11.6993 17.5845 10.3853 20.696 10.3853 20.696C10.3853 20.696 11.6739 19.9206 13.0184 20.0372C13.2264 20.0575 13.4395 20.0828 13.6526 20.1132C13.8758 18.8615 14.2462 17.6656 14.3832 17.0423C14.6622 15.8007 14.789 13.0997 14.6876 12.8007C14.5861 12.4966 14.8905 9.8159 15.0427 9.51184C15.1746 9.2534 15.6515 8.87333 16.2603 8.54394C15.9407 8.08786 15.5754 7.43921 15.5754 7.43921C15.0731 7.74326 14.6673 7.95103 14.2614 8.15374Z" fill="#E50914"/>
<path d="M21.7906 3.4409C21.7906 1.13515 20.6693 0.0253574 18.782 0.0811006C16.8947 0.131776 15.5451 0.876709 15.5401 3.18245C15.535 5.4882 17.1889 7.71286 19.0763 7.66218C20.3548 7.62671 21.1462 6.75509 21.5217 5.47806C21.8007 5.42738 22.0595 5.33617 22.0443 5.13853C21.9022 4.81421 21.8058 4.54563 21.7449 4.31759C21.7754 4.0338 21.7906 3.73988 21.7906 3.4409Z" fill="#E5C3B7"/>
<path d="M19.0305 7.66217C19.2385 7.6571 19.4363 7.62669 19.6241 7.58109C18.4724 6.69933 18.9797 2.58953 19.3907 1.78379C19.0964 1.69764 19.2435 0.334465 18.8884 0.3446C16.996 0.400343 15.5196 1.25169 15.5095 3.43582C15.4892 5.61994 17.138 7.72298 19.0305 7.66217Z" fill="#D3A197"/>
<path d="M20.2634 0.87673C21.2832 0.395311 21.9224 2.07268 22.166 2.82268C20.6338 3.48146 19.0103 3.27369 19.0103 3.27369L19.2335 2.12335L20.2634 0.87673Z" fill="white"/>
<path d="M20.2633 0.876674L20.248 1.22127C20.9837 1.38343 21.0902 2.78715 21.283 3.12667C21.4505 3.0608 21.9629 2.9037 22.1506 2.82262C21.8716 1.96113 21.283 0.400323 20.2633 0.876674Z" fill="white"/>
<path d="M15.6161 5.30069C15.1849 4.31758 15.0986 4.0794 15.1189 3.52704C15.195 1.38346 16.1032 0.841228 17.2143 0.298998C18.711 -0.425664 20.9737 0.314201 21.0904 1.03886L20.6084 2.1892C20.6084 2.1892 18.7718 4.29731 18.6399 4.11994C18.4573 3.86657 18.0818 3.79055 17.9854 4.19089C17.8891 4.58109 18.026 5.23481 18.026 5.23481C18.026 5.23481 16.6055 6.03042 16.2402 6.52704L15.6161 5.30069Z" fill="white"/>
<path d="M11.5016 16.5406C12.5061 16.0389 14.5456 12.3699 14.9972 10.9662C15.6314 8.99494 13.4092 7.90542 12.704 9.46623C12.3336 10.2922 10.8623 14.6605 10.8623 14.6605L11.5016 16.5406Z" fill="#E5C3B7"/>
<path d="M14.6977 9.1723C12.3233 11.2449 11.4761 16.3378 11.4761 16.3378C11.4761 16.3378 11.471 10.8851 12.8561 9.20271C13.749 8.12332 14.6977 9.1723 14.6977 9.1723Z" fill="#D3A197"/>
<path d="M11.3188 10.4088C10.8673 12.902 9.78156 14.8277 10.0251 15.6588C10.3092 16.6419 10.8926 17.1284 11.3594 16.8649C11.8211 16.6014 12.7343 15.6031 12.709 14.9797C12.5517 11.3007 12.8104 10.5051 12.7495 10.0895C12.6836 9.674 12.0646 8.50339 11.6892 8.35643C11.3137 8.20947 10.2534 8.10812 9.78663 8.43751C9.31987 8.76691 9.22855 9.24326 10.0504 9.75001C10.8673 10.2568 11.3188 10.4088 11.3188 10.4088Z" fill="#E5C3B7"/>
<path d="M10.0554 9.73988C10.8773 10.2466 11.3288 10.3936 11.3288 10.3936C10.8773 12.8868 9.79158 14.8125 10.0351 15.6436C10.2076 16.2466 10.4968 16.6571 10.8012 16.8294C10.8063 16.424 10.8266 15.8818 10.8925 15.2281C11.0447 13.7078 12.0341 10.5203 12.0341 10.2213C12.0341 9.92231 11.1208 8.92907 10.857 8.58954L10.6287 8.21454C10.3091 8.22974 9.99452 8.28548 9.79158 8.42738C9.31975 8.76184 9.2335 9.23819 10.0554 9.73988Z" fill="#D3A197"/>
<path d="M13.4648 8.66557C13.7083 8.45273 14.1091 8.24496 14.0533 8.25003L6.44306 8.84294C6.37711 8.848 6.33652 9.05577 6.35681 9.30408C6.37711 9.55746 6.44814 9.7551 6.51409 9.75003L12.8204 9.24327C12.9219 9.12672 13.1198 8.95442 13.4648 8.66557Z" fill="#9B8F8E"/>
<path d="M11.3647 8.05235C11.5169 8.10809 11.8416 8.63512 11.6843 8.78208C11.527 8.92904 10.9639 8.41721 10.8928 8.1537C10.8066 7.82431 11.3647 8.05235 11.3647 8.05235Z" fill="#E5C3B7"/>
<path d="M10.1064 8.2956C10.2637 8.14864 10.629 7.89527 10.8776 8.05743C11.1262 8.21452 11.5727 8.93918 11.2683 8.97973C10.9689 9.0152 10.1064 8.2956 10.1064 8.2956Z" fill="#E5C3B7"/>
<path d="M9.85765 8.24493L10.1468 8.28041C10.2737 8.44257 10.9434 8.93919 10.7354 9.1875C10.5223 9.43581 9.76125 8.63007 9.76125 8.63007C9.76125 8.63007 10.573 9.3902 10.2229 9.375C9.8678 9.36487 9.25391 8.76689 9.25391 8.76689L9.85765 8.24493Z" fill="#E5C3B7"/>
<path d="M12.719 10.2669C12.7444 9.78546 12.6784 8.56417 12.4806 8.3564C12.2827 8.14863 11.6587 8.13343 11.6029 8.28039C11.5471 8.43242 11.5724 8.46282 11.958 8.59458C12.3893 8.74661 12.1457 9.1064 12.2726 9.4662C12.4857 10.0591 12.719 10.2669 12.719 10.2669Z" fill="#E5C3B7"/>
<path d="M10.5273 8.84795C10.3751 7.31248 9.51764 6.22802 8.06663 5.95944L6.4279 5.87329L6.21481 6.20775C4.95151 6.78039 4.00785 8.05741 4.1499 9.4662C4.30718 11.0371 5.44364 12.228 6.90988 12.4155L6.93017 12.5828L7.94994 12.3902C8.16303 12.3395 8.48266 12.2483 8.51817 12.2331C9.83727 11.701 10.6744 10.3074 10.5273 8.84795Z" fill="#9B8F8E"/>
<path d="M9.68487 9.0912C9.78634 10.9561 8.37084 12.5422 6.52916 12.6284C4.68749 12.7145 3.11471 11.2753 3.01832 9.41046C2.91685 7.54559 4.33235 5.95944 6.17402 5.8733C8.01062 5.78208 9.5834 7.22634 9.68487 9.0912Z" fill="#BFB8B8"/>
<path d="M3.50019 9.39018C3.50019 9.34457 3.49512 9.2939 3.49512 9.24829C3.49512 7.85977 4.56562 6.70437 5.95575 6.63849C5.99634 6.63849 6.03693 6.63342 6.08259 6.63342C7.46258 6.63342 8.61933 7.73309 8.69543 9.14187L8.60918 9.14694L8.52293 9.152C8.45191 7.82937 7.37125 6.80572 6.08259 6.80572C6.042 6.80572 6.00649 6.80572 5.9659 6.81079C4.67216 6.8716 3.66762 7.95099 3.66762 9.25336C3.66762 9.29896 3.66762 9.34457 3.67269 9.39018C3.74372 10.7077 4.82437 11.7365 6.11303 11.7365C6.15362 11.7365 6.18913 11.7365 6.22972 11.7365C7.52346 11.6706 8.52801 10.5963 8.52801 9.2939C8.52801 9.24829 8.52801 9.20268 8.52293 9.15707L8.60918 9.152L8.69543 9.14694C8.69543 9.19761 8.70051 9.24322 8.70051 9.2939C8.70051 10.6824 7.62493 11.8378 6.23987 11.9037C6.19928 11.9037 6.15362 11.9088 6.11303 11.9088C4.72797 11.8986 3.57122 10.799 3.50019 9.39018Z" fill="#9B8F8E"/>
<path d="M6.63041 9.21284C6.65578 9.64865 6.32093 10.0236 5.88968 10.0439C5.45843 10.0642 5.08807 9.72466 5.06778 9.28885C5.04241 8.85304 5.37219 8.48311 5.8085 8.45777C6.23975 8.4375 6.60504 8.77703 6.63041 9.21284Z" fill="#9B8F8E"/>
<path d="M6.05228 9.27362C6.03199 9.02024 5.98125 8.8226 5.94067 8.82767L1.70431 9.15199C1.66372 9.15706 1.64343 9.35977 1.66372 9.61314C1.68402 9.86145 1.72968 10.0642 1.77534 10.0642L6.01169 9.73983C6.05228 9.73477 6.07258 9.52699 6.05228 9.27362Z" fill="#9B8F8E"/>
<path d="M2.19135 9.58274C2.20657 9.83612 2.03915 10.049 1.82099 10.0591C1.60283 10.0692 1.41511 9.87159 1.39989 9.62328C1.38467 9.3699 1.55209 9.15706 1.77025 9.14693C1.98841 9.13679 2.17613 9.32936 2.19135 9.58274Z" fill="#BFB8B8"/>
</g>
<defs>
<linearGradient id="paint0_linear_140_942" x1="16.4315" y1="11.5707" x2="19.2023" y2="3.70145" gradientUnits="userSpaceOnUse">
<stop stop-color="white"/>
<stop offset="0.1187" stop-color="#FBFAFA"/>
<stop offset="0.2689" stop-color="#EEEBEA"/>
<stop offset="0.4362" stop-color="#D9D2D0"/>
<stop offset="0.6147" stop-color="#BCB0AC"/>
<stop offset="0.6632" stop-color="#B3A6A1"/>
</linearGradient>
<clipPath id="clip0_140_942">
<rect width="29" height="39" fill="white"/>
</clipPath>
</defs>
</svg>
