<svg width="29" height="39" viewBox="0 0 29 39" fill="none" xmlns="http://www.w3.org/2000/svg">
<g clip-path="url(#clip0_141_1065)">
<path d="M0.0324126 27.5767C0.00926074 27.4638 0 27.3378 0 27.2032C0.00926074 25.5049 1.58359 21.8173 3.52834 18.4902C5.50088 15.1804 7.73272 12.2486 9.44595 12.1965C9.64506 12.1965 9.83953 12.2399 10.0155 12.3355L9.83027 12.6395C9.70988 12.5744 9.58486 12.5483 9.44595 12.5439C8.15871 12.4918 5.76018 15.3629 3.85247 18.6552C1.9216 21.9389 0.365799 25.6656 0.37043 27.2032C0.37043 27.3204 0.37969 27.4247 0.398212 27.5159C0.6251 28.693 1.97254 29.3011 3.82932 29.3054C5.9315 29.3054 8.59859 28.4975 10.6406 26.9469C13.5855 24.7143 21.7905 20.1016 25.6939 16.9786C26.9997 15.9492 27.7915 15.0371 27.7683 14.6071C27.7776 14.6071 27.7591 14.6028 27.7776 14.5419L28.1249 14.6592L27.9628 14.6028H28.1388V14.6071C28.1388 14.6071 28.1388 14.6071 28.1388 14.6114C28.111 15.3281 27.2451 16.1794 25.9347 17.2436C24.615 18.299 22.8277 19.5109 20.92 20.7444C17.1046 23.2072 12.803 25.7568 10.8721 27.2205C8.75603 28.8233 6.02874 29.6572 3.82932 29.6572C3.82468 29.6572 3.82005 29.6572 3.81542 29.6572C1.90308 29.6529 0.324126 29.0014 0.0324126 27.5767Z" fill="white"/>
<path d="M23.4344 10.4678C24.4021 11.2149 25.6014 12.7307 26.7775 13.1955C27.1294 13.3345 27.8055 13.3909 27.9768 13.6602C27.9768 13.6602 28.0509 13.9382 28.2639 14.0989C28.4769 14.2596 28.6482 14.3769 28.5185 14.4594C28.3889 14.5376 27.8934 14.2987 27.8934 14.2987C27.8934 14.2987 27.7638 14.4594 27.7221 14.6983C27.6804 14.9372 28.0138 15.1674 27.8379 15.2065C27.4397 15.2847 26.9581 15.2326 26.9581 15.0719C26.9581 14.9111 26.8284 14.4203 26.5506 14.2596C26.2728 14.0989 22.925 12.8654 22.0129 12.3832C21.0961 11.9055 20.3089 10.5807 20.332 10.2636C20.3552 9.94222 21.184 9.24292 21.184 9.24292L23.4344 10.4678Z" fill="#D3A197"/>
<path d="M28.2917 14.6114C28.2917 14.7895 28.1389 14.9328 27.949 14.9328H27.7777C27.5879 14.9328 27.4351 14.7895 27.4351 14.6114V14.5723C27.4351 14.3942 27.5879 14.2509 27.7777 14.2509H27.949C28.1389 14.2509 28.2917 14.3942 28.2917 14.5723V14.6114Z" fill="white"/>
<path d="M27.2129 15.1804C27.4398 15.1804 27.9213 15.2586 28.0649 15.1804C28.2084 15.1023 28.2918 14.542 28.1529 14.5159C28.0093 14.4898 27.8982 14.542 27.8982 14.6766C27.8982 14.8113 27.9537 14.9372 27.9537 14.9372L27.4722 14.9155L27.2129 15.1804Z" fill="#D3A197"/>
<path d="M22.8926 27.0641C22.7352 27.8633 21.3183 33.9095 21.3692 34.5002C21.4201 35.0909 21.9619 37.1149 22.0915 37.1714C22.2212 37.2235 19.23 35.6729 19.23 35.6729C19.23 35.6729 19.6652 34.6652 19.7486 34.5002C19.8319 34.3351 19.5587 30.8256 19.8782 29.2229C20.2024 27.6201 22.8926 27.0641 22.8926 27.0641Z" fill="#E5C3B7"/>
<path d="M22.3512 36.9195C22.4253 36.5807 22.4577 36.1116 22.3605 35.99C22.166 35.7381 21.9298 35.7468 21.7909 36.003C21.652 36.2593 21.6983 37.0889 21.6983 37.0889L22.3512 36.9195Z" fill="#2C4D75"/>
<path d="M19.522 34.9302C19.1099 35.2907 18.6469 35.5817 18.6006 36.1768C18.8738 36.724 22.7911 38.8176 22.7911 38.8176C22.7911 38.8176 23.2078 39.013 23.3745 38.5657C23.4903 38.2573 22.7031 37.697 22.3419 36.8109C21.5872 36.9586 21.8048 36.2332 21.3047 36.2245C20.0592 36.1985 19.522 34.9302 19.522 34.9302Z" fill="#2C4D75"/>
<path d="M19.8136 36.6632C19.0449 36.142 18.6143 36.003 18.6143 36.003C18.5402 36.1072 18.3411 36.3548 18.443 36.4417C18.5402 36.5286 21.4249 38.5613 22.6288 38.9783C22.9252 39.0825 23.3141 38.7698 23.2956 38.722C23.1937 38.8306 23.0456 38.8262 22.865 38.7524C20.9989 37.9836 20.6285 37.2148 19.8136 36.6632Z" fill="white"/>
<path d="M22.7539 37.584L22.064 37.2105C22.0454 37.2018 22.0362 37.1801 22.0362 37.1584C22.0408 37.1367 22.0547 37.1236 22.0779 37.1193L22.3001 37.0759L21.7213 36.8022C21.6982 36.7892 21.6889 36.7675 21.6935 36.7457C21.6982 36.724 21.7213 36.7067 21.7491 36.711L22.3464 36.7588C22.3742 36.7588 22.3974 36.7848 22.3927 36.8109C22.3881 36.837 22.3649 36.8587 22.3372 36.8543L22.0084 36.8283L22.4807 37.0498C22.4992 37.0585 22.5131 37.0802 22.5085 37.1019C22.5039 37.1236 22.49 37.1367 22.4668 37.1453L22.2353 37.1931L22.8048 37.5015C22.828 37.5145 22.8372 37.5449 22.8234 37.5667C22.8141 37.584 22.7956 37.5927 22.777 37.5927C22.7724 37.5927 22.7632 37.5884 22.7539 37.584Z" fill="white"/>
<path d="M23.7444 14.9415C23.374 16.453 23.1888 17.148 23.0637 17.73C23.0637 17.73 23.0452 24.1844 23.0961 26.2606C22.7257 28.2369 22.1979 32.1069 22.1979 32.1069L19.7206 31.8159C19.7206 31.8159 19.0029 28.0892 20.2392 26.4604C19.2483 21.6956 18.6695 19.8714 18.1139 18.564C17.7897 17.8039 17.7573 16.5269 19.1187 14.5506C20.48 12.5787 23.7444 14.9415 23.7444 14.9415Z" fill="white"/>
<path d="M17.9243 25.5699C17.1835 25.8045 14.8266 26.2649 14.0858 26.6732C13.3449 27.0815 12.8495 27.7764 12.5392 28.1847C12.229 28.593 12.354 26.5603 12.354 25.9218C12.354 25.2833 12.4142 24.875 13.0347 24.875C13.6551 24.875 15.5119 24.9315 16.8732 24.0628C18.2346 23.1897 17.9243 25.5699 17.9243 25.5699Z" fill="#D3A197"/>
<path d="M22.939 17.9602C23.3742 19.9365 24.3605 23.1593 23.8975 24.3799C23.4344 25.6004 16.3731 26.4691 16.3731 26.4691L15.8638 24.5102C15.8638 24.5102 18.5123 23.1289 19.6236 23.0421C20.7395 22.9552 18.6003 18.9766 18.6003 18.9766L22.939 17.9602Z" fill="white"/>
<path d="M12.8773 28.0718C13.2246 27.9589 13.6737 27.746 13.7339 27.6027C13.8682 27.316 13.7386 27.1336 13.4329 27.151C13.1273 27.1684 12.3911 27.6288 12.3911 27.6288L12.8773 28.0718Z" fill="#2C4D75"/>
<path d="M13.2431 24.7708C12.7014 24.6231 12.2013 24.4016 11.6317 24.6709C11.2706 25.1704 11.3632 29.4009 11.3632 29.4009C11.3632 29.4009 11.3956 29.8352 11.8957 29.7397C12.2383 29.6745 12.3494 28.7537 12.9745 28.011C12.4513 27.4811 13.2292 27.2856 12.9792 26.873C12.3587 25.8566 13.2431 24.7708 13.2431 24.7708Z" fill="#2C4D75"/>
<path d="M11.8076 25.9C11.8909 25.014 11.7983 24.597 11.7983 24.597C11.664 24.5926 11.3353 24.5579 11.3075 24.6839C11.2797 24.8055 10.8954 28.1717 11.1315 29.3531C11.1917 29.6441 11.6733 29.7961 11.7057 29.757C11.5529 29.731 11.4835 29.6094 11.4557 29.4269C11.2103 27.5332 11.7196 26.8382 11.8076 25.9Z" fill="white"/>
<path d="M12.4743 28.7407L12.4604 27.9936C12.4604 27.9719 12.4743 27.9545 12.4929 27.9458C12.5114 27.9371 12.5345 27.9415 12.5531 27.9588L12.7059 28.1152L12.6596 27.5071C12.6596 27.4811 12.6734 27.4637 12.6966 27.455C12.7197 27.4507 12.7475 27.4593 12.7568 27.4811L13.0207 27.9893C13.0346 28.0153 13.0207 28.0457 12.9976 28.0544C12.9698 28.0674 12.9374 28.0544 12.9281 28.0327L12.7846 27.7547L12.8216 28.2455C12.8216 28.2672 12.8124 28.2846 12.7892 28.2933C12.7707 28.302 12.7429 28.2976 12.729 28.2803L12.5669 28.1152L12.5762 28.732C12.5762 28.758 12.5531 28.7798 12.5253 28.7798C12.4975 28.7885 12.4743 28.7667 12.4743 28.7407Z" fill="white"/>
<path d="M23.198 26.3996C23.198 24.558 23.0638 17.8126 23.0638 17.8126C23.1842 17.2523 23.2721 16.6442 23.6194 15.2282L22.8322 15.4019C22.5544 16.2316 22.0914 16.8831 22.0914 17.7127C22.0914 18.5423 22.735 26.0087 22.5961 26.3996C22.4757 26.7384 21.6006 30.5259 21.5913 32.0287L22.2442 32.0722C22.2442 32.0765 22.823 28.3759 23.198 26.3996Z" fill="white"/>
<path d="M24.9622 0.755737C25.5827 1.58968 25.9577 2.87535 26.7958 2.9101C27.6339 2.94485 28.6758 2.70161 29.0045 3.37919C28.5229 3.14899 27.8423 3.19242 27.6154 3.44C27.6154 3.44 28.0877 3.08818 28.685 3.66152C27.5737 3.73101 27.3098 4.41728 26.4115 4.82557C25.5086 5.23385 24.0037 5.77244 23.8092 4.39122C23.6148 3.00131 24.9622 0.755737 24.9622 0.755737Z" fill="white"/>
<path d="M24.3374 9.69025C23.7216 10.4113 24.8143 8.86934 24.4763 8.54358C24.3235 8.10489 23.9484 7.24488 23.8003 7.11023C23.6197 6.94518 23.2724 6.81054 22.8742 6.57164C22.6195 5.61608 23.5502 4.83426 24.2587 4.46072C24.2587 4.46072 21.7907 0.851297 21.8 2.05444C21.8092 3.26192 21.0221 5.91144 19.8413 6.42397C20.3275 6.64114 21.7722 8.10489 22.4667 8.62611C23.2493 9.21247 24.7171 9.24288 24.3374 9.69025Z" fill="#E5C3B7"/>
<path d="M24.6753 11.4841C24.9022 10.9325 25.2865 10.433 25.0087 9.59037C24.8744 9.18643 24.8142 9.06481 24.4067 8.23521C24.3002 7.96157 23.9391 7.15803 23.74 7.01469C23.5733 6.89742 23.3649 6.83661 23.3649 6.83661C23.5084 6.91479 24.0085 7.46641 24.1382 8.16571C23.652 8.2743 22.3694 8.06581 22.0267 7.94854C21.3275 7.70965 21.3137 6.91045 20.0218 6.25024C19.7995 6.42398 19.2115 6.63681 18.9383 6.96257C18.4613 7.79218 19.4291 9.25158 19.9014 10.6806C20.3876 12.153 19.9986 12.7611 20.0171 13.5299C19.8829 14.1727 19.1096 15.5322 19.355 15.6017C21.3414 16.3488 23.6011 16.9916 23.6566 16.5877C24.1058 13.3692 24.5318 11.8273 24.6753 11.4841Z" fill="#E50914"/>
<path d="M18.8826 6.99735C18.4056 7.82695 19.2761 8.80858 19.4382 10.294C19.6095 11.8273 19.4336 12.6916 19.4567 13.4604C19.3271 14.1033 18.4195 15.3368 18.6649 15.4063C19.2669 15.6322 19.9846 15.9275 20.7393 16.1013C20.9986 15.3629 21.1051 14.4898 21.3876 13.139C21.6793 11.7621 22.0914 10.4721 21.3876 8.46978C20.957 7.25361 20.1837 6.69331 19.6975 6.42401C19.4289 6.53694 19.0678 6.77583 18.8826 6.99735Z" fill="#E50914"/>
<path d="M16.6555 11.6144C17.0583 11.5449 18.2576 7.95288 18.8086 7.24924C19.5031 6.35449 20.582 7.29702 20.5959 7.82258C20.619 8.55228 20.244 9.12128 20.244 9.12128C20.244 9.12128 18.415 12.2833 17.8547 13.0087L13.1734 13.4647L12.9419 12.9435C12.9419 12.9392 15.0811 11.8881 16.6555 11.6144Z" fill="#E5C3B7"/>
<path d="M22.9897 5.75945L20.8551 7.50552L19.8457 6.424C19.8457 6.424 20.4106 6.03309 20.6699 5.65955C21.207 4.88207 21.5312 3.55731 21.5312 3.55731C21.5312 3.55731 21.9062 5.27733 22.9897 5.75945Z" fill="url(#paint0_linear_141_1065)"/>
<path d="M20.7902 2.16742C21.0542 0.503868 22.3183 -0.0911866 23.7259 0.108613C25.1381 0.304069 25.7447 1.45943 25.4808 3.12298C25.4299 3.44005 25.3558 3.7441 25.2585 4.02642C25.2724 4.18279 25.3048 4.36521 25.3558 4.58673C25.3419 4.72138 25.1381 4.75178 24.9298 4.75178C24.4806 5.51623 23.587 6.01139 22.6979 5.88977C21.2949 5.69431 20.5263 3.83096 20.7902 2.16742Z" fill="#E5C3B7"/>
<path d="M23.0265 0.00433968C22.2857 -0.0217211 21.7439 0.11727 21.3411 0.356161C21.3364 0.360504 21.3318 0.356161 21.3272 0.360504C20.0307 1.0598 20.0307 1.46809 19.6649 1.70698C18.4008 2.53224 18.0257 2.21951 18.0257 2.21951C18.0257 2.21951 18.5212 2.84062 18.7805 2.81022C17.8313 3.39659 17.697 2.01971 16.9932 2.12395C17.8868 2.87972 16.9098 4.38256 19.2991 4.81256C20.202 4.97327 22.5403 4.62579 22.582 3.93952C22.5079 3.87003 22.4431 3.80487 22.3922 3.73972C22.3598 3.39659 22.5079 2.83194 22.8274 2.83628C23.0173 2.83628 23.2117 3.18376 23.2117 3.18376L24.4527 1.90244L25.4992 1.67657C25.6936 1.3595 25.1843 0.0781786 23.0265 0.00433968Z" fill="white"/>
<path d="M22.8274 2.83631C23.0173 2.83631 23.2117 3.18378 23.2117 3.18378L24.4527 1.90246L25.4991 1.6766C25.6843 1.36821 25.212 0.17376 23.2441 0.017395C22.619 0.833967 22.5866 2.83631 22.8274 2.83631Z" fill="white"/>
<path d="M15.8682 1.76778C16.5951 1.78515 16.1599 2.96657 16.9795 3.88305C17.799 4.79952 20.4522 5.31639 21.5543 4.53457C19.8457 4.15668 18.188 4.25658 17.4888 3.34011C16.7896 2.42364 16.8915 1.89374 16.4933 1.72869C15.8821 1.46808 15.8682 1.76778 15.8682 1.76778Z" fill="white"/>
<path d="M15.4006 13.1824C14.8635 13.0956 13.6133 13.3736 13.141 13.5864C12.6687 13.7992 11.9463 13.9903 11.7333 13.9947C11.5203 13.999 10.2609 13.5256 10.4091 13.1824C10.5572 12.8393 11.0619 12.8741 11.0619 12.8741C11.0619 12.8741 10.7656 12.7655 10.6406 12.6178C10.5156 12.4701 10.8026 12.5396 11.5805 12.5396C11.8121 12.5396 12.0621 12.3007 12.8909 12.4571C13.9004 12.6482 15.2293 12.0358 15.2293 12.0358L15.4006 13.1824Z" fill="#E5C3B7"/>
<path d="M12.3492 13.9599C12.2659 14.0859 12.0436 14.0989 11.8491 13.986L9.75622 12.7742C9.56638 12.6612 9.47377 12.4701 9.55712 12.3442L9.6312 12.2312C9.71455 12.1053 9.93681 12.0966 10.1313 12.2052L12.2242 13.417C12.4187 13.5299 12.5067 13.721 12.4233 13.847L12.3492 13.9599Z" fill="white"/>
<path d="M11.7567 13.9599C11.7012 13.8817 11.5391 13.6863 11.6873 13.5864C11.8355 13.4821 11.8262 13.4821 11.9003 13.4561C12.0068 13.417 11.9651 13.3301 11.8262 13.3388C11.6271 13.3475 11.3585 13.5125 11.3307 13.5777C11.2983 13.6472 11.2335 13.7123 11.2798 13.7862C11.4558 14.0468 11.7567 13.9599 11.7567 13.9599Z" fill="#E5C3B7"/>
<path d="M11.5667 13.3648C11.6454 13.2997 11.8491 13.2432 11.775 13.1868C11.6315 13.0782 11.3676 13.2085 11.3213 13.2389C11.1731 13.3431 10.9786 13.4083 10.9786 13.5299C10.9786 13.6037 10.9694 13.6472 11.1314 13.708C11.2935 13.7731 11.2842 13.6776 11.2842 13.6776L11.5667 13.3648Z" fill="#E5C3B7"/>
<path d="M11.5391 13.0738C11.5437 13.0174 11.5298 12.987 11.4048 12.9913C11.164 13 11.0806 13.1086 10.9464 13.1824C10.8121 13.2563 10.613 13.304 10.65 13.4039C10.6871 13.5038 10.8862 13.5907 11.0019 13.443C11.1455 13.2563 11.5391 13.0738 11.5391 13.0738Z" fill="#E5C3B7"/>
<path d="M11.2611 12.974C11.2796 12.9392 11.2333 12.8176 11.0805 12.8437C10.9277 12.8697 10.7656 12.9088 10.6406 12.9783C10.5156 13.0478 10.3767 13.1911 10.4091 13.2823C10.4415 13.3736 10.7239 13.569 10.7934 13.4127C10.9601 13.0521 11.2611 12.974 11.2611 12.974Z" fill="#E5C3B7"/>
</g>
<defs>
<linearGradient id="paint0_linear_141_1065" x1="20.3874" y1="7.43141" x2="22.6236" y2="3.65794" gradientUnits="userSpaceOnUse">
<stop stop-color="white"/>
<stop offset="0.1275" stop-color="#FBFAFA"/>
<stop offset="0.2889" stop-color="#EEEBEA"/>
<stop offset="0.4687" stop-color="#D9D2D0"/>
<stop offset="0.6604" stop-color="#BCB0AC"/>
<stop offset="0.7125" stop-color="#B3A6A1"/>
</linearGradient>
<clipPath id="clip0_141_1065">
<rect width="29" height="39" fill="white"/>
</clipPath>
</defs>
</svg>
