<svg width="23" height="41" viewBox="0 0 23 41" fill="none" xmlns="http://www.w3.org/2000/svg">
<g clip-path="url(#clip0_141_1590)">
<path d="M0 17.0756C0.0168498 16.4906 0.425458 16.0639 0.989927 15.6505C1.56703 15.237 2.37161 14.8323 3.35733 14.4452C5.33297 13.6711 8.04158 12.9673 11.0745 12.4878C13.4209 12.1183 15.6198 11.9424 17.469 11.9424C18.9897 11.9424 20.2661 12.0611 21.2139 12.2987C22.1364 12.5494 22.8357 12.8617 22.9874 13.6095L22.2797 13.7194C22.3049 13.5919 21.9216 13.2312 21.0454 13.0245C20.1903 12.8089 18.9518 12.6902 17.469 12.6902C15.6619 12.6902 13.4925 12.8617 11.1841 13.2268C6.70201 13.9218 2.91081 15.1666 1.39432 16.2619C0.884615 16.627 0.699267 16.9613 0.716117 17.0756C0.716117 17.08 0.716117 17.0932 0.72033 17.1064L0.0126374 17.2164C0.00421245 17.1768 0 17.1284 0 17.0756Z" fill="white"/>
<path d="M11.4706 7.68884C11.4706 7.68884 11.3063 8.91607 11.6939 9.32075C12.0814 9.72543 14.8911 11.0318 15.523 10.9307C16.1549 10.8295 18.4422 9.8134 18.5897 9.76062C18.7371 9.70783 18.8803 9.72103 19.1247 9.68144C19.4869 9.62426 19.4237 9.4967 19.9924 9.42632C20.0682 9.41752 20.0177 9.31195 20.0177 9.31195C20.0177 9.31195 19.7228 9.26357 19.529 9.21078C19.3353 9.158 19.3942 8.96886 19.3942 8.96886L19.8281 8.98205C19.8281 8.98205 20.2746 9.1668 20.3168 9.12281C20.4389 8.99525 19.9377 8.72693 19.9377 8.72693C19.9377 8.72693 19.7607 8.66975 19.4069 8.58617C19.0952 8.51139 18.1474 9.1492 18.1474 9.1492C17.8567 9.1492 15.5778 9.50989 15.5778 9.50989C15.5778 9.50989 13.9223 8.64335 12.945 8.1771C12.2541 7.8472 11.8455 7.75042 11.6223 7.68884H11.4706Z" fill="#E5C3B7"/>
<path d="M3.54688 39.8563C3.49212 40.5073 3.79963 40.7976 4.14505 40.9208C4.75586 41.1319 5.2782 40.8856 5.55201 40.5161C5.82161 40.1466 5.87637 39.8827 6.03223 39.7024C6.31868 39.3769 6.14176 38.5675 6.14176 38.5675L4.90751 40.2698L3.54688 39.8563Z" fill="white"/>
<path d="M5.12193 35.6469C4.8776 37.3711 4.38896 38.2553 4.0646 39.0206C3.74024 39.786 3.46222 40.1687 4.45215 40.3666C5.15984 40.5074 5.77486 40.0675 5.93914 38.9634C6.10343 37.8594 6.42779 35.9855 6.42779 35.9855L5.12193 35.6469Z" fill="#D3A197"/>
<path d="M14.044 26.9771C14.1746 28.0064 15.0213 30.1529 14.7349 30.5928C14.4484 31.0326 15.4678 36.9708 15.8764 37.6526C16.2766 38.3168 16.6768 39.0294 17.7805 39.5837C17.1486 39.9883 17.3087 40.261 15.5689 39.698C14.9665 39.5045 14.2968 39.8036 14.1746 39.4165C13.9008 38.528 14.3136 38.8139 14.3262 37.4899C14.3389 36.1659 12.6455 32.9373 13.5554 30.8919C14.1114 29.6383 13.6691 26.9595 13.8165 26.5152C13.9598 26.0753 14.044 26.9771 14.044 26.9771Z" fill="#E5C3B7"/>
<path d="M15.3372 29.9857C15.2571 28.8553 13.9765 17.2472 13.926 16.5654L13.1635 16.4334L13.2267 15.8704L9.70932 15.325C9.03533 16.2135 8.04541 17.775 7.78845 19.4729C7.52727 21.1664 6.75218 26.6691 6.51207 27.6852C6.27196 28.7013 5.22727 32.2422 4.97031 33.8258C4.71335 35.4093 4.56592 36.9928 4.56592 36.9928L6.38149 37.4327C6.38149 37.4327 8.4161 31.5692 9.3302 29.1588C9.89467 27.672 10.9857 24.1135 11.7734 22.2397L11.4491 22.8643C11.1795 23.8012 12.9698 30.2057 12.9698 30.518C12.6707 32.361 13.9723 36.7289 13.9723 36.7289C13.9723 36.7289 14.3851 36.7861 15.9016 36.6717C15.8258 35.5456 15.413 31.1162 15.3372 29.9857Z" fill="white"/>
<path d="M16.8787 38.7611C16.7944 38.4707 16.4616 38.1232 16.3437 38.0617C16.1078 37.9429 15.9519 38.0441 15.9561 38.2948C15.9646 38.5455 16.3268 39.1657 16.3268 39.1657L16.8787 38.7611Z" fill="#9B8F8E"/>
<path d="M14.204 38.2421C14.0144 38.484 13.9007 39.0382 14.1071 39.5133C14.5157 39.83 17.2201 40.1511 17.2201 40.1511C17.2201 40.1511 18.4249 40.2655 18.2985 39.6101C18.2437 39.3285 17.376 39.1306 16.7736 38.5896C15.9606 39.245 15.8595 38.3212 15.5056 38.5104C14.6337 38.981 14.204 38.2421 14.204 38.2421Z" fill="#9B8F8E"/>
<path d="M14.8021 39.5352C14.0944 39.2845 14.086 39.4121 14.086 39.4121C14.0776 39.5221 14.166 39.8212 14.2671 39.8476C14.3682 39.8739 16.4492 40.7449 17.9151 40.2214C18.408 40.0455 18.3153 39.7816 18.2816 39.7508C18.2563 39.8739 18.1089 39.9619 17.9573 39.9839C16.2554 40.2566 15.3118 39.7156 14.8021 39.5352Z" fill="white"/>
<path d="M16.8369 39.2756C16.8284 39.2581 16.8327 39.2361 16.8495 39.2229L17.1486 38.9721L16.3946 39.0865C16.3735 39.0909 16.3524 39.0777 16.3482 39.0557C16.344 39.0337 16.3524 39.0117 16.3735 39.0029L16.9843 38.7478C17.0054 38.739 17.0306 38.7478 17.0391 38.7742C17.0475 38.7962 17.0391 38.8226 17.018 38.8314L16.7316 38.9501L17.2918 38.8666C17.3087 38.8622 17.3297 38.8754 17.3339 38.893C17.3424 38.9106 17.3381 38.9326 17.3213 38.9457L17.0433 39.1789L17.6035 39.0513C17.6246 39.0469 17.6457 39.0601 17.6541 39.0865C17.6583 39.1085 17.6457 39.1305 17.6204 39.1393L16.8874 39.3108C16.8832 39.3108 16.8832 39.3108 16.879 39.3108C16.8621 39.2976 16.8453 39.2888 16.8369 39.2756Z" fill="white"/>
<path d="M4.19531 39.1085C4.34696 38.783 4.15319 37.459 4.72608 37.5074C5.29898 37.5514 5.91399 37.7317 5.80026 38.2464C5.68652 38.7566 5.38322 39.3944 5.38322 39.3944L4.19531 39.1085Z" fill="#9B8F8E"/>
<path d="M6.06993 38.1584C5.88037 39.1789 4.92835 39.0162 4.71352 38.9898C4.17011 38.9194 4.23751 38.6071 4.24593 38.5235C4.23751 38.4048 4.19539 38.4048 4.19539 38.4048C3.85839 38.981 3.87103 38.8842 3.64355 39.3241C3.24337 40.0807 3.84996 40.9912 4.86095 40.6261C5.68659 40.327 5.56022 39.9267 6.00674 39.2801C6.31425 38.8226 6.20051 38.2508 6.06993 38.1584Z" fill="#9B8F8E"/>
<path d="M5.05474 39.7288C4.79356 39.6496 4.37653 39.4165 4.18697 39.4209C4.128 39.4253 4.11115 39.4341 4.10272 39.4649C4.09008 39.4957 4.0606 39.5133 4.03111 39.5001C4.00162 39.4913 3.98477 39.4561 3.99741 39.4253C4.0269 39.3373 4.11115 39.3021 4.19118 39.3021C4.4018 39.3065 4.71774 39.4737 4.95785 39.5704C4.79356 39.3109 4.41865 39.0998 4.09008 39.0338C4.07323 39.0294 4.05638 39.0162 4.05217 38.9986C4.04375 38.981 4.04375 38.9634 4.05217 38.9458C4.09008 38.8754 4.16591 38.8491 4.23331 38.8491C4.52818 38.8535 5.05474 39.2009 5.33697 39.2405C5.19375 38.8359 4.52818 38.7963 4.18276 38.7743C4.14906 38.7699 4.128 38.7391 4.13221 38.7083C4.13221 38.6775 4.1617 38.6511 4.19118 38.6555C4.54503 38.6907 5.33276 38.6907 5.46756 39.2933C5.47177 39.3109 5.46756 39.3285 5.45492 39.3417C5.44228 39.3549 5.42964 39.3637 5.41279 39.3637C5.40437 39.3637 5.40016 39.3637 5.39173 39.3637C5.10528 39.3593 4.62085 39.0514 4.33862 38.981C4.67561 39.1042 5.0084 39.3417 5.12213 39.6496C5.13056 39.6716 5.12635 39.6936 5.1095 39.7112C5.09686 39.7244 5.08422 39.7288 5.06737 39.7288C5.06316 39.7332 5.05895 39.7332 5.05474 39.7288Z" fill="white"/>
<path d="M15.3375 30.1264C15.2574 28.996 13.9558 17.2647 13.9094 16.5873L13.5093 16.517L12.8647 17.0184C13.1512 19.143 14.5413 28.3362 14.7435 30.0385C14.8994 31.3449 14.6887 34.1688 15.1521 36.7025C15.4891 36.6981 15.3501 36.6893 15.9104 36.6453C15.8261 35.5148 15.4133 31.2569 15.3375 30.1264Z" fill="white"/>
<path d="M13.1174 9.97171C13.0585 9.87494 12.9616 9.72978 12.5993 9.39108C12.4098 8.91603 12.0812 7.96591 11.9253 7.82956C11.7315 7.66241 11.264 7.56124 10.8511 7.32811C10.5226 6.28562 11.3903 5.34871 12.0685 4.87805C12.0685 4.87805 9.33045 1.0556 9.43155 2.3928C9.53265 3.73 8.95133 6.73429 7.81396 7.38969C8.31525 7.59643 9.86964 9.11397 10.5984 9.63741C11.4325 10.2356 13.446 10.5083 13.1174 9.97171Z" fill="#E5C3B7"/>
<path d="M13.5642 12.1711C13.6822 11.7796 14.0529 10.9746 13.6738 10.3852C13.421 9.99372 13.2357 9.7386 12.7091 9.10079C12.5827 8.80608 12.1868 7.87356 12.0393 7.78999C11.854 7.68442 11.4496 7.56566 11.4496 7.56566C11.597 7.64483 12.0857 8.19467 12.2668 8.96003C11.7276 8.96443 10.6576 8.96443 10.308 8.85446C9.59188 8.63893 9.31807 7.83397 7.97851 7.19617C7.76789 7.4073 7.15708 7.57885 6.91276 7.96154C6.49994 8.91605 7.61624 10.5699 8.19756 12.1227C8.79573 13.7194 9.19591 14.4232 9.27595 15.2765C9.19591 15.9979 8.13016 17.7266 8.3787 17.7838C10.4133 18.4656 14.0529 18.8746 14.0824 18.4216C14.2846 14.8103 13.4505 12.5625 13.5642 12.1711Z" fill="#E50914"/>
<path d="M6.91276 7.97478C6.49994 8.92929 7.61624 10.5832 8.19756 12.1359C8.79573 13.7326 9.19591 14.4364 9.27595 15.2898C9.19591 16.0111 8.13016 17.7398 8.3787 17.797C8.99371 18.0037 9.75617 18.1841 10.5228 18.3249C10.725 17.4847 10.8219 16.5258 10.8219 14.9907C10.8219 13.9262 10.3754 11.718 9.52027 9.54511C9.00214 8.22551 8.18071 7.66248 7.67943 7.40295C7.41826 7.55251 7.08126 7.71526 6.91276 7.97478Z" fill="#E50914"/>
<path d="M11.7401 13.4643C11.6811 13.35 11.3862 13.1828 11.1545 13.0685C11.3441 13.152 11.5716 13.2224 11.6306 13.152C11.4031 12.7826 10.5311 12.4834 10.2657 12.4702C10.2657 12.4702 10.2657 12.4746 10.2657 12.479C9.80656 12.4483 9.81077 12.6902 9.27158 12.8837C8.71975 13.0773 5.69099 12.3207 5.56883 12.3823C5.19392 12.5626 7.54026 10.9131 8.30271 9.80465C8.35326 9.70788 8.50913 9.52314 8.57652 9.37798C9.10729 8.27832 7.93623 7.83405 7.56975 7.79006C7.16956 7.74168 6.56718 8.45866 6.56718 8.45866C6.56718 8.45866 4.94118 10.3149 4.41462 11.1418C3.67744 12.2987 3.87543 13.1784 3.95546 13.3192C4.31773 13.957 8.42066 14.0802 9.22103 13.869C9.96663 13.6755 10.3289 13.869 10.3458 13.869C10.6996 13.913 11.4873 14.001 11.4536 13.8734C11.4284 13.7811 11.0197 13.6887 10.8892 13.6623C11.0408 13.6931 11.5716 13.7898 11.6516 13.7019C11.7443 13.5963 11.6895 13.6315 11.0534 13.3544C11.2851 13.4424 11.8412 13.6623 11.7401 13.4643Z" fill="#D3A197"/>
<path d="M10.9061 6.41759L8.90939 8.51576L7.81836 7.3941C7.81836 7.3941 8.46287 7.0686 8.56818 6.58914C8.6777 6.10529 9.54547 5.00122 9.54547 5.00122C9.54547 5.00122 9.78979 5.96453 10.9061 6.41759Z" fill="url(#paint0_linear_141_1590)"/>
<path d="M8.83342 2.26964C9.22097 0.439789 10.5226 -0.12764 11.9127 0.193463C13.3028 0.510168 13.8294 1.83857 13.4418 3.66401C13.3702 4.01591 13.2733 4.34581 13.1554 4.64932C13.1596 4.82526 13.1765 5.0276 13.2102 5.27833C13.1849 5.42788 12.9827 5.44548 12.7763 5.42788C12.2708 6.24603 11.344 6.72989 10.4679 6.53195C9.07775 6.21964 8.45009 4.09948 8.83342 2.26964Z" fill="#E5C3B7"/>
<path d="M11.222 0.0263602C10.4848 -0.0572145 9.93294 0.0571509 9.51591 0.294679C9.5117 0.294679 9.50749 0.294679 9.49906 0.299078C7.94888 1.19641 8.0584 2.77993 7.77195 3.42653C7.50236 4.02475 6.88313 3.99396 6.88313 3.99396C6.88313 3.99396 7.12324 4.32386 7.38441 4.31066C7.29595 4.5174 6.99265 4.70215 6.59668 4.16991C6.59668 5.89858 6.73569 6.14931 7.76774 6.72993C8.56811 7.20059 9.69283 7.02904 10.1899 5.8546C10.291 5.77102 10.4005 5.12882 10.4932 4.37225C10.4258 4.28867 10.3668 4.21389 10.3163 4.13472C10.3079 3.75203 10.4974 3.13622 10.8176 3.16261C11.0071 3.17581 11.1756 3.57609 11.1756 3.57609L12.5068 2.24329L13.5683 2.06734C13.7789 1.71985 13.3703 0.263888 11.222 0.0263602Z" fill="white"/>
<path d="M10.8178 3.15819C11.0073 3.17138 11.1758 3.57166 11.1758 3.57166L12.507 2.23887L13.5685 2.06292C13.7749 1.73302 13.3916 0.373829 11.4412 0.0615234C10.7588 0.923663 10.0216 2.23886 10.346 3.82239C10.4092 3.48369 10.5777 3.14059 10.8178 3.15819Z" fill="white"/>
<path d="M13.0292 18.6152C13.1556 17.8102 13.1514 17.2428 13.1514 16.5434C13.1514 14.3704 12.688 12.7429 12.6964 12.4262C12.6922 12.1359 12.8397 11.784 12.8397 11.3134C12.8397 11.0758 12.7975 10.8119 12.6838 10.5172C12.3974 9.80023 11.9972 9.30318 11.7528 8.96448L11.4917 8.96008H11.3442C11.5886 9.30318 12.1235 10.0026 12.3805 10.6492C12.4816 10.9043 12.5111 11.1154 12.5153 11.3134C12.5153 11.7049 12.3721 12.0348 12.3679 12.4262C12.3763 12.8837 12.8228 14.3924 12.8228 16.5434C12.8228 17.2296 12.7975 17.797 12.6796 18.58L13.0292 18.6152Z" fill="white"/>
<path d="M12.4434 18.58C12.5656 17.7794 12.5824 17.2428 12.5824 16.5478C12.5824 14.3793 12.1233 12.7825 12.1275 12.4306C12.1275 12.1139 12.2707 11.7708 12.2707 11.3178C12.2707 11.0934 12.2328 10.8383 12.1191 10.5568C11.841 9.85742 11.3861 9.2856 11.1418 8.9469H10.9312C11.1755 9.2856 11.702 9.96299 11.9674 10.6228C12.0727 10.8867 12.1064 11.111 12.1064 11.3178C12.1064 11.7313 11.9632 12.0656 11.9632 12.4306C11.9674 12.8529 12.4181 14.3925 12.4181 16.5478C12.4181 17.234 12.4013 17.775 12.2791 18.5668L12.4434 18.58Z" fill="white"/>
<path d="M1.7863 18.4744C0.977507 18.2544 0.341427 17.9905 0.0971044 17.4231C0.0634047 17.3571 -0.0713938 17.1724 0.0549798 16.7149C0.0634047 16.6577 0.455163 16.992 0.674211 17.0668L0.720548 17.0976C0.695273 17.2252 1.07439 17.5419 1.95058 17.7486C2.80571 17.9641 4.04417 18.0829 5.52696 18.0829C7.3341 18.0829 9.50352 17.9113 11.8119 17.5463C16.294 16.8513 20.0852 15.6064 21.5975 14.5112C22.1114 14.1549 22.2967 13.8162 22.2799 13.7018C22.2799 13.6886 22.2841 13.6842 22.2841 13.6842C22.381 13.1828 22.3094 12.8221 22.1114 12.6198C22.916 12.9804 22.9876 13.5611 22.996 13.6974C22.9749 14.2824 22.5705 14.7047 22.0061 15.1226C21.429 15.5361 20.6244 15.9363 19.6387 16.3278C17.663 17.102 14.9544 17.8102 11.9215 18.2852C9.57513 18.6547 7.37623 18.8307 5.52696 18.8307C4.01047 18.8307 2.72989 18.7119 1.7863 18.4744Z" fill="#CE0000"/>
</g>
<defs>
<linearGradient id="paint0_linear_141_1590" x1="8.54669" y1="8.49407" x2="10.4815" y2="5.03177" gradientUnits="userSpaceOnUse">
<stop stop-color="white"/>
<stop offset="0.1275" stop-color="#FBFAFA"/>
<stop offset="0.2889" stop-color="#EEEBEA"/>
<stop offset="0.4687" stop-color="#D9D2D0"/>
<stop offset="0.6604" stop-color="#BCB0AC"/>
<stop offset="0.7125" stop-color="#B3A6A1"/>
</linearGradient>
<clipPath id="clip0_141_1590">
<rect width="23" height="41" fill="white"/>
</clipPath>
</defs>
</svg>
