<svg width="44" height="34" viewBox="0 0 44 34" fill="none" xmlns="http://www.w3.org/2000/svg">
<g clip-path="url(#clip0_141_1164)">
<path d="M28.4483 22.6324H26.8252V32.2779H28.4483V22.6324Z" fill="#BFB8B8"/>
<path d="M31.7289 32.3446C31.7289 32.5547 31.5676 32.7238 31.3671 32.7238H23.9067C23.7063 32.7238 23.5449 32.5547 23.5449 32.3446V31.586C23.5449 31.3759 23.7063 31.2068 23.9067 31.2068H31.3671C31.5676 31.2068 31.7289 31.3759 31.7289 31.586V32.3446Z" fill="#9B8F8E"/>
<path d="M35.5325 23.186C35.5325 23.5089 35.3907 23.7702 35.2147 23.7702H23.8822C23.7062 23.7702 23.5645 23.5089 23.5645 23.186V20.5671C23.5645 20.2442 23.7062 19.9828 23.8822 19.9828H35.2147C35.3907 19.9828 35.5325 20.2442 35.5325 20.5671V23.186Z" fill="white"/>
<path d="M24.1948 21.7817C23.9552 21.8945 23.3832 22.694 23.7694 23.3602L11.6059 6.77025C11.4983 6.62162 11.6694 6.47299 11.9872 6.43199L21.7308 5.26859C21.9606 5.24297 22.2099 5.31984 22.2979 5.44285L31.973 19.4959C32.0512 19.6087 29.289 18.0558 29.113 18.1378L24.1948 21.7817Z" fill="#9B8F8E"/>
<path d="M13.8796 6.74463L24.4201 22.0175L23.7894 23.5806L11.7139 6.99576L13.8796 6.74463Z" fill="white"/>
<path d="M24.3415 8.06689C24.9722 8.44615 28.1304 9.19955 28.1304 9.19955C28.1304 9.19955 28.8539 11.3777 28.6731 11.47C28.4922 11.5622 26.4193 11.9415 25.2459 10.6192C24.0726 9.29692 24.3415 8.06689 24.3415 8.06689Z" fill="#E5C3B7"/>
<path d="M34.975 3.55679C34.975 5.51971 33.9434 6.91887 32.467 7.1085C32.2176 7.13925 31.6261 7.20587 31.4012 7.1085C30.3696 6.66774 29.9639 5.16095 29.9639 3.55679C29.9639 1.95776 30.0763 0.522726 31.1079 0.0819663C31.3376 -0.0205359 32.2128 -3.54775e-05 32.467 -3.54775e-05C33.8554 -3.54775e-05 34.975 1.59387 34.975 3.55679Z" fill="white"/>
<path opacity="0.98" d="M34.0902 3.55684C34.0902 5.51976 32.9707 7.10855 31.5871 7.10855C30.2035 7.10855 29.084 5.51976 29.084 3.55684C29.084 1.59392 30.2035 0.00513928 31.5871 0.00513928C32.9707 1.41645e-05 34.0902 1.59392 34.0902 3.55684Z" fill="white"/>
<path d="M32.7654 3.57222C32.7654 4.58187 32.1885 5.40188 31.4747 5.40188C30.761 5.40188 30.1841 4.58187 30.1841 3.57222C30.1841 2.56257 30.761 1.74255 31.4747 1.74255C32.1885 1.74255 32.7654 2.56257 32.7654 3.57222Z" fill="white"/>
<path d="M31.8755 3.57214C31.8755 3.9514 31.6115 4.25891 31.2937 4.25891C30.971 4.25891 30.7119 3.9514 30.7119 3.57214C30.7119 3.19288 30.9661 2.88538 31.2888 2.88538C31.6115 2.88538 31.8755 3.19288 31.8755 3.57214Z" fill="#9B8F8E"/>
<path d="M29.2014 5.87854C29.0792 5.30965 29.4263 4.9509 29.1281 4.54089C28.9667 4.31538 28.2579 4.03863 28.077 4.03863C27.8961 4.03863 27.2067 3.849 26.845 4.03863C26.4832 4.22825 26.2143 4.60751 26.757 5.04827C27.2996 5.48903 28.0183 5.45828 27.9596 6.18092C27.9107 6.68318 29.2014 5.87854 29.2014 5.87854Z" fill="#E5C3B7"/>
<path d="M16.6465 6.80615C17.0718 7.22641 18.4798 7.96955 18.3625 9.35846C18.2794 10.2912 18.9687 10.3374 18.9687 10.3374L20.9194 9.38921C20.9194 9.38921 20.2643 7.71842 20.7385 6.67802C21.0318 6.03738 16.6465 6.80615 16.6465 6.80615Z" fill="#D3A197"/>
<path d="M26.2629 9.41483C26.2629 9.41483 24.5518 8.00542 24.2829 7.90804C23.4469 7.61079 22.4496 8.0208 21.3642 7.96955C21.3985 8.08742 20.4842 7.08803 20.5967 6.50376C20.6358 6.30901 20.67 6.20138 20.2447 6.104L19.1985 6.17576L20.4011 8.91769C19.4967 9.2662 18.4162 9.03044 18.4162 9.03044C17.8002 9.66596 17.1402 9.57371 16.6611 9.89146C16.4509 9.90684 16.2358 10.0913 15.9034 10.5782C15.302 11.4597 14.598 13.1818 14.598 13.1818L13.5176 16.3952C14.2509 16.4721 16.0109 16.0467 17.3651 14.2529C17.5754 14.7398 17.8345 15.237 18.9882 15.073C20.1029 14.9141 26.9474 13.0844 26.9474 13.0844L26.2629 9.41483Z" fill="#E5C3B7"/>
<path d="M18.4652 8.96896C17.8443 9.60448 17.2478 9.60448 16.71 9.82998C16.4998 9.84536 16.2847 10.0299 15.9523 10.5167C15.3509 11.3983 14.6469 13.1152 14.6469 13.1152L14.2852 15.6316C14.9696 14.7245 16.2212 12.3003 16.4265 11.8237C16.6954 11.2086 16.8763 10.5014 18.2549 10.2605C18.7096 10.1836 19.9758 9.45585 20.3523 8.88696C19.57 9.05097 18.4652 8.96896 18.4652 8.96896Z" fill="#D3A197"/>
<path d="M15.6246 9.0458C15.6246 9.0458 16.182 7.69277 16.182 7.0265C16.182 6.36536 15.4242 5.68885 15.0624 5.40184C14.7006 5.11996 12.7402 5.44797 12.6473 6.10911C12.5593 6.77025 13.1606 7.49801 13.6984 7.68764C14.1042 7.83115 14.0162 8.58454 13.9917 8.86129C13.982 8.94842 13.9526 9.0458 13.9086 9.13805L15.6246 9.0458Z" fill="#E5C3B7"/>
<path d="M12.6183 15.6367C11.445 13.4586 13.3419 10.6244 13.9725 7.88243C14.877 7.88243 16.1383 7.50317 16.1383 7.50317C16.1383 7.50317 15.5516 9.81973 15.6885 13.5559C15.7472 15.1652 14.0312 16.6054 13.4005 16.4157C12.7601 16.2261 12.6183 15.6367 12.6183 15.6367Z" fill="#E5C3B7"/>
<path d="M13.2487 6.83695C13.6985 7.35971 14.8034 7.71334 14.7594 7.99523C14.7154 8.27711 13.2047 11.7571 13.1607 13.7866C13.1412 14.786 13.1607 15.0628 13.2194 15.4728C13.283 15.8981 13.7327 16.3902 13.7327 16.3902C13.7327 16.3902 13.2634 16.5439 12.8918 16.1339C12.6376 15.8469 12.3443 15.3651 12.2563 14.4529C12.0656 12.3977 13.8061 9.04587 13.8794 8.11823C13.9136 7.69284 12.8136 7.35971 12.6621 6.93433C12.5252 6.55507 13.2487 6.83695 13.2487 6.83695Z" fill="#D3A197"/>
<path d="M32.374 15.3497C34.3002 15.3497 39.9518 15.729 40.9442 17.3383C40.9442 17.3383 41.2131 18.4709 41.0665 19.2294C40.6558 21.3 39.7416 26.42 40.1034 27.3015C40.4651 28.183 42.3914 29.4438 42.7482 29.8231C43.11 30.2023 38.9007 29.8231 37.9376 29.6949C36.9745 29.5668 37.9278 28.0805 37.8154 27.1734C37.5758 25.1541 36.8522 21.1206 37.9376 19.7317L32.4034 18.9732L32.374 15.3497Z" fill="#E5C3B7"/>
<path d="M37.7859 27.1529C38.3433 27.4451 40.1668 27.2862 40.2206 27.1119C40.2744 27.7526 40.9588 28.2753 41.4526 28.6238C41.9464 28.9724 37.561 29.1056 37.561 29.1056C37.561 29.1056 37.7224 28.1421 37.7468 28.014C37.8886 27.2862 37.7859 27.1529 37.7859 27.1529Z" fill="#E8E9EA"/>
<path d="M41.8291 28.4906C41.6678 28.0703 41.3842 27.5322 41.2033 27.4604C40.8416 27.3118 40.6167 27.4809 40.6509 27.8551C40.69 28.2292 41.3011 29.1107 41.3011 29.1107L41.8291 28.4906Z" fill="#BFB8B8"/>
<path d="M37.8397 28.0857C37.6881 28.0037 37.6197 28.1728 37.6197 28.1728C37.4583 28.8442 37.2677 29.5156 37.6294 30.1972C38.2699 30.6175 43.5597 30.2843 43.5597 30.2843C43.5597 30.2843 44.1023 30.2177 43.9606 29.613C43.8628 29.1978 42.7041 29.1056 41.7459 28.3727C41.1054 29.0441 40.8219 28.0959 40.3232 28.4239C39.3894 29.0389 38.2943 28.3368 37.8397 28.0857Z" fill="#BFB8B8"/>
<path d="M39.1597 29.9205C38.045 29.8641 37.5268 30.0025 37.5268 30.0025C37.5268 30.1665 37.5023 30.5714 37.6588 30.597C37.8152 30.6226 42.0392 30.9199 43.5108 30.5714C43.8726 30.4843 44.0388 29.8795 43.9899 29.8385C43.9654 30.0281 43.8188 30.1204 43.5841 30.1614C41.2277 30.5714 40.333 29.9769 39.1597 29.9205Z" fill="#9B8F8E"/>
<path d="M41.6874 28.9672C41.6777 28.9415 41.6825 28.9159 41.7021 28.8954L41.8879 28.7006L41.1301 28.7878C41.1008 28.7929 41.0714 28.7724 41.0617 28.7417C41.0519 28.7109 41.0665 28.6801 41.091 28.6648L41.7119 28.3111C41.7412 28.2958 41.7803 28.306 41.795 28.3368C41.8097 28.3675 41.7999 28.4085 41.7705 28.4239L41.4283 28.6186L42.0443 28.5469C42.0688 28.5418 42.0932 28.5571 42.1079 28.5828C42.1177 28.6084 42.1128 28.634 42.0981 28.6545L41.9025 28.8595L42.675 28.8134C42.7092 28.8134 42.7385 28.839 42.7385 28.8749C42.7385 28.9108 42.7141 28.9415 42.6799 28.9415L41.751 29.0082H41.7461C41.7217 29.0082 41.6972 28.9928 41.6874 28.9672Z" fill="white"/>
<path d="M29.2157 13.6943L31.6944 15.0525C31.6944 15.0525 36.1189 15.3497 37.3557 15.7854C36.8375 15.8315 35.9331 19.2243 35.4833 19.6497C33.6549 19.4703 33.7966 19.4498 30.8633 19.25L26.918 16.5285L29.2157 13.6943Z" fill="white"/>
<path d="M37.3853 15.77C35.899 15.319 31.7093 15.0781 31.7093 15.0781L31.6946 15.0679L31.4941 15.3549C31.4941 15.3549 35.503 16.016 36.691 16.836C36.9404 16.2364 37.1848 15.7854 37.3853 15.77Z" fill="white"/>
<path d="M30.6584 17.082C33.6651 17.8405 36.3149 18.5991 36.5544 20.4902C36.6815 21.4896 34.7895 28.7673 35.1709 30.7661C35.7722 31.7757 37.3366 32.6572 37.8793 32.8469C38.422 33.0365 34.4522 33.6054 33.186 33.2261C31.9246 32.8469 32.7069 31.335 33.0051 30.3253C33.0051 30.3253 32.8242 26.9838 32.4624 25.2822C32.1006 23.5807 32.6433 21.6895 32.6433 21.6895L28.1309 20.5569L30.6584 17.082Z" fill="#D3A197"/>
<path d="M32.873 29.9358C33.4596 30.2792 35.2734 30.1664 35.337 29.9819C35.3712 30.6789 35.9872 31.3349 36.5103 31.7347C37.0334 32.1345 32.5503 32.0371 32.5503 32.0371C32.5503 32.0371 32.7654 31.0018 32.7996 30.8634C32.9805 30.0844 32.873 29.9358 32.873 29.9358Z" fill="#E8E9EA"/>
<path d="M37.1902 31.5758C37.0338 31.1146 36.7453 30.5201 36.5595 30.4329C36.1733 30.2587 35.924 30.4278 35.9484 30.8327C35.9729 31.2376 36.5986 32.2216 36.5986 32.2216L37.1902 31.5758Z" fill="#BFB8B8"/>
<path d="M32.8927 30.9506C32.7314 30.8532 32.6483 31.0326 32.6483 31.0326C32.4429 31.7501 32.2083 32.4676 32.5749 33.2261C33.2496 33.713 38.9843 33.5952 38.9843 33.5952C38.9843 33.5952 39.5758 33.549 39.4487 32.8879C39.3607 32.4318 38.114 32.2831 37.1069 31.4477C36.3834 32.1447 36.1243 31.1095 35.5669 31.4375C34.5256 32.0525 33.3718 31.2427 32.8927 30.9506Z" fill="#BFB8B8"/>
<path d="M34.237 32.9955C33.0343 32.8827 32.4672 33.0057 32.4672 33.0057C32.4623 33.18 32.4134 33.6207 32.5845 33.6566C32.7507 33.6925 37.3072 34.2101 38.9156 33.9026C39.3116 33.8257 39.517 33.18 39.4681 33.1338C39.4338 33.3388 39.2676 33.4311 39.0183 33.4618C36.4467 33.795 35.5081 33.1133 34.237 32.9955Z" fill="#9B8F8E"/>
<path d="M37.0141 32.0832C37.0043 32.0576 37.0092 32.0268 37.0288 32.0063L37.239 31.8064L36.4177 31.868C36.3834 31.868 36.3541 31.8475 36.3492 31.8167C36.3394 31.7859 36.3541 31.7501 36.3834 31.7347L37.0728 31.3811C37.107 31.3657 37.1461 31.3759 37.1608 31.4118C37.1754 31.4477 37.1608 31.4887 37.1314 31.5041L36.755 31.6988L37.4248 31.6527C37.4541 31.6476 37.4785 31.6681 37.4932 31.6937C37.503 31.7193 37.4981 31.7552 37.4785 31.7757L37.2585 31.991L38.0945 31.9807C38.1337 31.9807 38.163 32.0115 38.163 32.0525C38.163 32.0935 38.1337 32.1242 38.0945 32.1242L37.0825 32.1396C37.0532 32.1293 37.0239 32.114 37.0141 32.0832Z" fill="white"/>
<path d="M24.5129 17.2614C24.3565 18.7374 24.3711 20.4133 26.8645 21.7305L32.1053 22.0687C32.1053 22.0687 32.2862 17.574 35.1267 18.2402C33.2836 17.0922 32.2862 16.3337 32.2862 16.3337L28.1796 14.8833L24.5129 17.2614Z" fill="white"/>
<path d="M29.7441 16.3901C30.9175 16.8616 34.149 18.0148 34.3739 18.1532C34.3739 18.1532 33.8459 18.1839 33.3081 18.6554C31.3233 17.6663 29.7441 16.3901 29.7441 16.3901Z" fill="white"/>
<path d="M20.4453 3.67467C21.4475 5.09946 21.912 6.48324 21.2129 7.0265C20.5089 7.56976 17.8835 8.23602 16.8813 6.81637C15.8791 5.39671 15.9329 3.42867 17.3946 2.6189C18.9884 1.74251 19.4431 2.25502 20.4453 3.67467Z" fill="#E5C3B7"/>
<path d="M16.9788 7.12908C17.893 8.42573 20.2934 7.89272 21.2126 6.96507C19.9219 7.0112 17.6681 6.8062 16.5241 3.52612C16.5241 3.52612 16.7246 3.65425 16.2748 4.14114C16.2161 4.78178 16.4557 6.39619 16.9788 7.12908Z" fill="#D3A197"/>
<path d="M18.8416 1.82964C19.5798 2.2294 19.9269 2.90592 19.614 2.62916C18.9296 2.01415 17.8589 2.41391 17.7807 2.78292C17.7073 3.13142 17.3896 3.45943 17.326 3.70544C17.2624 3.95144 17.0376 3.05455 17.0376 3.05455L17.1696 3.78231L16.7687 4.99184L17.1891 5.68373L16.886 5.96561L18.0887 8.13353C18.0887 8.13353 17.1549 8.10278 15.8007 6.90351C15.4438 6.58575 15.1993 6.22699 14.9647 5.83236C14.7104 5.40697 14.6176 4.56133 14.8033 4.27432C14.994 3.98732 15.0967 3.80281 15.2776 3.76181C15.4536 3.71569 15.2336 3.41843 15.522 3.01355C15.8056 2.60866 15.8496 2.47541 16.5584 2.0859C18.0447 1.27613 18.8416 1.82964 18.8416 1.82964Z" fill="white"/>
<path d="M31.5627 3.47989C31.5236 3.22363 31.3378 3.03913 31.1471 3.06988L6.91778 7.19559C6.72712 7.22634 6.60489 7.4621 6.644 7.71836C6.68312 7.97461 6.86889 8.15912 7.05956 8.12836L31.2889 4.00777C31.4796 3.9719 31.6018 3.73614 31.5627 3.47989Z" fill="#BFB8B8"/>
<path d="M28.6733 11.4752C28.9422 11.3317 29.6364 11.0651 29.7244 9.74287C29.8124 8.42059 29.5142 6.90356 29.1231 5.51978C28.3116 5.51978 28.0427 5.67865 28.0427 5.67865C28.0427 5.67865 27.5293 7.28794 27.1725 9.17911C26.796 11.1369 28.6733 11.4752 28.6733 11.4752Z" fill="#E5C3B7"/>
<path d="M27.4118 4.60232C27.7442 4.8227 28.2234 4.83808 28.5118 5.24809C28.6242 5.41209 28.5265 6.24236 28.4971 6.68312C28.4678 7.12388 28.2576 9.77356 28.2576 9.77356L27.1771 8.95354C27.1771 8.95354 27.9594 6.0681 27.8665 5.75547C27.7882 5.48384 26.478 5.08408 26.4536 4.73045C26.4291 4.46907 27.4118 4.60232 27.4118 4.60232Z" fill="#D3A197"/>
<path d="M10.6773 7.02656L31.5627 3.47998C31.5627 3.47998 31.7436 3.95149 31.4698 4.00274C31.2009 4.04887 10.6089 7.52369 10.6089 7.52369L10.6773 7.02656Z" fill="#9B8F8E"/>
<path d="M26.4927 3.87459C26.4927 3.68496 26.9131 3.33645 27.05 3.2442C27.1869 3.15195 27.6807 3.50558 27.8176 3.69521C27.9545 3.88484 28.2331 4.07959 27.93 4.09497C27.6318 4.11034 27.1722 3.73109 27.1722 3.73109L26.4927 3.87459Z" fill="#E5C3B7"/>
<path d="M27.2993 3.30572C27.4215 3.17759 27.6464 3.11609 27.7638 3.17759C27.886 3.2391 28.5166 3.77723 28.4873 3.93611C28.458 4.09499 28.458 4.21799 28.2478 4.06424C28.0326 3.90536 27.2993 3.30572 27.2993 3.30572Z" fill="#E5C3B7"/>
<path d="M27.9546 3.3262C28.0133 3.2647 28.1453 3.16733 28.2821 3.24933C28.419 3.3262 28.815 3.97709 28.7221 4.02322C28.6341 4.06935 28.4386 3.91047 28.4386 3.91047L27.9546 3.3262Z" fill="#E5C3B7"/>
<path d="M28.3115 3.37235C28.5217 3.35698 28.7075 3.40823 28.7955 3.56711C28.8835 3.72599 28.9813 3.97712 28.8737 3.99249C28.7711 4.00274 28.3115 3.37235 28.3115 3.37235Z" fill="#E5C3B7"/>
<path d="M27.2014 4.79201C27.0792 3.94124 26.6832 3.48511 26.9814 3.48511C27.2796 3.48511 27.529 3.97199 27.7099 4.35125C27.8907 4.73051 28.3112 5.21227 28.3112 5.21227L27.2014 4.79201Z" fill="#D3A197"/>
<path d="M15.9526 7.7594C16.065 7.87728 16.2801 6.83688 16.3339 6.555C16.3877 6.27312 16.2214 5.96561 15.9721 5.75036C15.801 5.60173 15.4734 5.46848 15.2974 5.18147C15.1654 4.97134 14.8672 5.29935 15.2094 5.67861C15.4588 5.95536 15.6397 6.31412 15.6397 6.31412L15.3121 6.77026C15.317 6.76513 15.6983 7.4929 15.9526 7.7594Z" fill="#E5C3B7"/>
<path d="M14.8571 5.10464C15.126 5.43777 15.2775 5.70428 15.2335 5.98616C15.1895 6.26804 14.9011 6.16041 14.5393 5.5454C14.9891 6.06303 15.126 6.38079 14.7495 6.33466C14.2998 6.27829 13.9967 5.6889 13.9967 5.6889C13.9967 5.6889 14.598 6.33466 14.2362 6.43204C13.7473 6.56017 13.3171 5.92978 13.3171 5.92978C13.3171 5.92978 13.9478 6.51404 13.6349 6.56017C13.3171 6.6063 12.6571 6.06303 12.6571 6.06303C12.6571 6.06303 12.5544 5.53515 12.9602 5.58127C13.1411 5.29939 13.3367 5.23276 13.4735 5.28402C13.6544 4.90476 14.1189 5.00213 14.2118 5.14051C14.5247 4.80738 14.8571 5.10464 14.8571 5.10464Z" fill="#E5C3B7"/>
<path d="M11.1074 7.23156C11.2247 9.55324 10.0954 11.2701 8.36471 11.5982C8.07138 11.6545 7.37716 11.7724 7.10338 11.6699C5.85671 11.2189 5.28471 9.46611 5.18694 7.56469C5.08916 5.67353 5.13805 3.97199 6.32605 3.3826C6.59494 3.24935 7.63138 3.21347 7.93449 3.1981C9.56249 3.11097 10.9852 4.91501 11.1074 7.23156Z" fill="white"/>
<path opacity="0.98" d="M10.061 7.29308C10.1832 9.61475 8.95124 11.5674 7.31835 11.6597C5.68057 11.7519 4.25791 9.94788 4.14057 7.62621C4.02324 5.30453 5.25035 3.35186 6.88324 3.25961C8.51613 3.16736 9.93879 4.9714 10.061 7.29308Z" fill="white"/>
<path d="M8.49645 7.40581C8.56001 8.59996 7.92445 9.60961 7.08356 9.65574C6.24268 9.70186 5.50934 8.77422 5.44579 7.58006C5.38223 6.38591 6.01779 5.37627 6.85868 5.33014C7.69956 5.27889 8.4329 6.21166 8.49645 7.40581Z" fill="white"/>
<path d="M7.44066 7.46214C7.4651 7.91315 7.17666 8.29241 6.79533 8.31291C6.41399 8.33341 6.08644 7.99003 6.06199 7.53902C6.03755 7.08801 6.32599 6.70875 6.70733 6.68825C7.08866 6.66775 7.41622 7.01113 7.44066 7.46214Z" fill="#9B8F8E"/>
<path d="M7.04478 7.49289C7.00567 7.23664 6.91767 7.03676 6.85411 7.04701L0.0683343 8.23091C-0.000110153 8.24116 -0.0196657 8.46154 0.0194454 8.7178C0.0585565 8.97405 0.141668 9.17393 0.210112 9.16368L6.99589 7.97465C7.06433 7.9644 7.08389 7.74915 7.04478 7.49289Z" fill="#BFB8B8"/>
<path d="M0.0244141 8.7537L7.04486 7.49292C7.04486 7.49292 7.2453 7.9183 6.99597 7.97981C6.75153 8.04131 0.210192 9.16883 0.210192 9.16883L0.0244141 8.7537Z" fill="#9B8F8E"/>
<path d="M22.6892 7.81585C23.4128 8.06698 23.5595 8.95362 22.6599 9.51738C21.643 10.158 18.4066 9.54301 17.8052 9.41488C17.4239 9.60451 16.9692 9.72239 16.9692 9.72239C16.9692 9.72239 18.1915 9.85564 19.0421 10.5988C21.2079 12.4899 19.8781 15.114 18.1621 15.0679C18.1621 15.0679 21.0955 15.8879 22.2981 17.1487C23.5008 18.4095 24.2537 19.4652 24.7475 19.9367C24.987 19.496 24.6252 18.1173 26.6883 16.672C27.7688 15.9135 31.3328 14.6835 31.3328 14.6835C31.3328 14.6835 30.531 14.3606 29.3039 13.0742C28.2235 11.9416 27.6515 10.8653 25.7546 9.16375C25.7546 9.16375 24.1363 8.24123 23.227 7.8056C22.963 7.68772 22.6892 7.81585 22.6892 7.81585Z" fill="#E50914"/>
<path d="M18.1621 15.0678C18.1621 15.0678 21.0954 15.8879 22.2981 17.1486C23.5008 18.4094 24.2537 19.4652 24.7474 19.9367C24.987 19.5011 24.635 18.1378 26.6394 16.7079C24.503 14.3708 21.4523 12.8282 19.9954 11.9415C20.587 13.5303 19.4968 15.1037 18.1621 15.0678Z" fill="#E50914"/>
</g>
<defs>
<clipPath id="clip0_141_1164">
<rect width="44" height="34" fill="white"/>
</clipPath>
</defs>
</svg>
