<svg width="37" height="41" viewBox="0 0 37 41" fill="none" xmlns="http://www.w3.org/2000/svg">
<g clip-path="url(#clip0_141_1835)">
<path d="M15.112 36.1307C14.0594 37.3092 14.0001 38.7233 14.0001 38.9024C14.0001 39.0815 11.0942 39.1381 11.0942 39.1381C11.0942 39.1381 11.8998 38.0775 12.2704 37.3704C12.6411 36.6634 15.112 36.1307 15.112 36.1307Z" fill="#E5C3B7"/>
<path d="M10.1602 38.6242C10.3084 38.2613 10.5852 37.7946 10.7532 37.7286C11.0991 37.6014 11.3116 37.7475 11.277 38.068C11.2424 38.3886 10.6593 39.1569 10.6593 39.1569L10.1602 38.6242Z" fill="white"/>
<path d="M14.109 38.3792C14.2622 38.9589 14.5044 39.5057 14.1584 40.0997C13.5456 40.4626 8.51971 40.1751 8.51971 40.1751C8.51971 40.1751 8.00081 40.1185 8.13918 39.5953C8.23308 39.237 9.33512 39.1569 10.2444 38.5253C10.8523 39.1051 11.1191 38.2896 11.5985 38.5724C12.7747 39.27 14.109 38.3792 14.109 38.3792Z" fill="white"/>
<path d="M12.7005 39.8592C13.758 39.8121 14.2522 39.9299 14.2522 39.9299C14.2522 40.0713 14.2769 40.4249 14.1287 40.4484C13.9804 40.472 9.96266 40.7265 8.56411 40.4249C8.21817 40.3494 8.06003 39.8262 8.10451 39.7932C8.12922 39.9582 8.26759 40.0383 8.48998 40.0713C10.7336 40.4249 11.5836 39.9111 12.7005 39.8592Z" fill="white"/>
<path d="M10.2395 39.0673L9.34991 39.0202C9.31532 39.0202 9.29061 38.9919 9.29555 38.9589C9.29555 38.9259 9.3252 38.9023 9.3598 38.9071L10.0912 38.9448L9.90341 38.7656C9.88364 38.7468 9.88364 38.7232 9.89352 38.6997C9.90341 38.6808 9.92811 38.6667 9.95282 38.6667L10.5409 38.7279L10.2147 38.5582C10.1851 38.5441 10.1752 38.5111 10.19 38.4828C10.2049 38.4545 10.2395 38.4451 10.2691 38.4593L10.8621 38.7656C10.8868 38.7798 10.8967 38.8081 10.8918 38.8316C10.8819 38.8552 10.8572 38.8741 10.8275 38.8694L10.111 38.7939L10.2889 38.9636C10.3086 38.9825 10.3086 39.006 10.2988 39.0249C10.2839 39.0579 10.2642 39.0673 10.2395 39.0673Z" fill="white"/>
<path d="M36.8765 39.6142C37.1731 40.359 36.9161 40.6889 36.4664 40.8633C35.7448 41.1367 34.9937 40.9623 34.5143 40.6229C34.0399 40.2835 33.516 39.7415 33.2541 39.5859C32.7748 39.3031 32.923 38.4452 32.923 38.4452L35.2556 40.1091L36.8765 39.6142Z" fill="white"/>
<path d="M33.8915 34.5988C34.6624 36.7199 35.2159 37.5778 35.8979 38.3603C37.3458 40.0195 36.3723 39.8263 35.8682 40.0714C35.0133 40.4815 33.3034 39.3879 33.0563 38.0492C32.6856 36.0742 31.8208 35.6311 31.8208 35.6311L33.8915 34.5988Z" fill="#D3A197"/>
<path d="M35.7544 38.5064C35.448 38.1765 35.6358 36.6822 34.9193 36.9367C34.2027 37.1913 33.2341 37.361 33.5602 37.9172C33.8864 38.4781 34.3361 39.2465 34.3361 39.2465L35.7544 38.5064Z" fill="white"/>
<path d="M33.2094 39.2323C34.005 39.8357 34.3856 40.373 35.3739 40.6841C36.7231 41.1131 37.3408 39.7649 36.5699 39.0155C36.1202 38.5818 36.0658 38.4498 35.4382 37.8936C35.4382 37.8936 35.3888 37.7522 35.4184 37.8936C35.4579 37.9926 35.7298 38.2707 35.0577 38.5394C34.7908 38.6478 33.5356 38.9023 32.9376 37.7758C32.7992 37.9313 32.6509 38.8128 33.2094 39.2323Z" fill="white"/>
<path d="M34.9886 39.4257C34.9688 39.4115 34.954 39.388 34.9589 39.3644C35.0232 38.9307 35.3889 38.7846 35.7398 38.6432C35.7299 38.6432 35.715 38.6432 35.7052 38.6385C35.4482 38.6338 34.9243 39.0109 34.5883 39.0486C34.5685 39.0486 34.5488 39.0439 34.5339 39.0297C34.5191 39.0203 34.5142 39.0014 34.5142 38.9826C34.524 38.2519 35.3098 38.3321 35.6459 38.2425C35.6804 38.2331 35.72 38.2519 35.7299 38.2897C35.7398 38.3227 35.715 38.3604 35.6804 38.3698C35.2851 38.4641 34.702 38.3981 34.6525 38.9024C34.9293 38.8364 35.3889 38.5159 35.7002 38.5065C35.7892 38.5065 35.8781 38.5395 35.9325 38.6149C35.9424 38.629 35.9473 38.6526 35.9424 38.6715C35.9374 38.6903 35.9226 38.7045 35.9028 38.7139C35.552 38.8553 35.2406 38.9543 35.127 39.2277C35.3741 39.0627 35.6903 38.794 35.9275 38.7846C36.0017 38.7799 36.0807 38.8223 36.1203 38.9024C36.1351 38.9354 36.1203 38.9731 36.0906 38.9873C36.056 39.0014 36.0165 38.9873 36.0017 38.959C35.977 38.9213 35.972 38.9213 35.9325 38.9166C35.7645 38.9072 35.3296 39.2795 35.0578 39.4257C35.0479 39.4304 35.038 39.4351 35.0232 39.4351C35.0084 39.4351 34.9985 39.4351 34.9886 39.4257Z" fill="white"/>
<path d="M8.62871 13.1985C8.604 12.5244 8.53976 9.22952 8.54964 8.64973C8.56447 7.20733 8.79674 3.81816 8.48046 3.54005C8.16912 3.26194 8.0604 3.05454 7.99615 2.67272C7.93191 2.29091 7.8726 1.58857 7.8133 1.3953C7.75894 1.20676 8.07522 1.16433 8.30749 2.02223C8.34703 1.72998 8.35197 0.499697 8.34208 0.259297C8.3322 0.0188965 9.11302 -0.296923 9.29587 0.612826C9.47872 1.52258 9.69122 2.32862 9.66157 2.81414C9.62698 3.29494 9.53308 3.49291 9.53308 3.49291C9.53308 3.49291 9.91855 5.80264 10.0816 7.48073C10.2447 9.15881 10.6351 12.9439 10.5462 13.3305C10.4671 13.7123 8.62871 13.1985 8.62871 13.1985Z" fill="#E5C3B7"/>
<path d="M20.2863 16.4415C20.9584 16.5075 23.1922 16.6065 24.7489 18.195C25.6038 19.0671 27.7782 22.1734 29.6908 26.0528C30.348 27.3868 31.9986 29.2723 34.9489 36.2816C34.9489 36.2816 33.4515 37.0217 32.7794 36.8944C32.1073 36.7671 24.314 23.696 24.314 23.696L19.209 20.1229L20.2863 16.4415Z" fill="white"/>
<path d="M23.9632 19.6516C23.3553 19.1849 22.3768 18.2705 19.8021 17.5681L18.3195 21.4569C17.4992 22.7061 15.809 27.7403 14.9837 29.706C14.4105 31.0777 11.3218 37.5637 11.3218 37.5637C11.3218 37.5637 14.0448 38.2331 14.6922 37.7617C15.2555 37.3516 20.2123 27.0757 22.105 23.2293C22.9797 24.3465 25.4853 26.675 27.3335 29.3006C28.7123 31.2615 30.526 34.0803 32.399 36.9604C32.5472 37.1867 33.5554 36.7294 34.1929 36.5456C29.424 26.8872 26.0684 21.7492 23.9632 19.6516Z" fill="white"/>
<path d="M3.68639 24.9969C4.15587 26.4865 4.0768 27.3821 3.49365 27.7922C3.96313 27.8676 4.47215 27.7922 4.66488 27.0851C4.86256 26.3734 3.68639 24.9969 3.68639 24.9969Z" fill="white"/>
<path d="M3.74599 24.7C4.43785 26.8965 4.49716 27.943 3.63232 28.5511C4.32419 28.6595 4.90239 28.8245 5.18902 27.7827C5.47565 26.7316 3.74599 24.7 3.74599 24.7Z" fill="white"/>
<path d="M1.58154 16.7904C2.72312 16.1635 6.72112 15.4847 7.15106 18.2611C7.38827 19.8025 7.06705 20.4105 7.06705 20.4105L1.59143 19.4065L1.58154 16.7904Z" fill="white"/>
<path d="M12.1866 19.8873L8.76189 20.7876C8.76189 20.7876 6.44414 20.467 6.13774 20.4623L6.09326 19.2886V19.2792V19.2698L6.17727 18.1008C6.40954 18.1055 7.58572 17.9169 8.27264 17.8415C8.47526 17.8179 8.85084 16.0739 8.85084 16.0739L11.1982 18.5863L12.1866 19.8873Z" fill="#E5C3B7"/>
<path d="M8.07541 20.7169C7.38848 20.6226 6.33586 20.4906 6.13818 20.4859L6.41493 19.2321L11.1987 19.6516L8.56466 22.0084C8.56466 22.0084 8.43122 20.764 8.07541 20.7169Z" fill="#D3A197"/>
<path d="M6.03418 19.3075V19.2981V19.2886L6.11819 18.1196C6.21703 18.1196 6.30104 18.1762 6.70628 18.1385C7.16093 18.4402 9.80485 19.9486 9.79496 20.5142C9.78508 20.9856 10.6647 21.4664 8.41618 21.1034C8.26792 20.731 7.95658 20.698 7.4871 20.632C6.89901 20.5472 6.1429 20.4812 6.07866 20.4765L6.03418 19.3075Z" fill="url(#paint0_linear_141_1835)"/>
<path d="M1.69021 21.834C2.98004 22.4468 3.82511 25.1996 4.35883 27.1181C4.5911 27.943 4.82337 28.6877 3.87453 29.1261C3.42975 29.3288 5.62396 29.8143 6.49373 27.1982C7.31903 24.7141 7.151 20.1135 7.151 20.1135L1.58643 19.2744L1.69021 21.834Z" fill="white"/>
<path d="M3.94863 16.8375C5.76231 17.0307 7.32889 18.4071 7.34372 19.2415C7.35854 20.1701 6.38993 21.3768 4.08206 21.7727C2.18932 22.098 0.291626 21.669 0.252091 19.397C0.212556 17.2664 2.05094 16.6348 3.94863 16.8375Z" fill="#E5C3B7"/>
<path d="M4.60565 21.556C6.91352 21.1647 7.35829 20.1701 7.34346 19.2415C7.34346 19.2274 7.33852 19.2132 7.33852 19.1991C6.49345 21.4994 1.55156 20.6556 1.0376 19.6469L1.23527 21.0657C1.97162 21.556 3.5382 21.7398 4.60565 21.556Z" fill="#D3A197"/>
<path d="M1.59122 19.3405C2.2139 19.8637 1.69005 21.0845 2.91565 21.3249C3.35547 21.4098 4.39327 21.6078 5.52991 21.2967C6.87411 20.929 6.09329 21.9142 6.09329 21.9142L3.81507 22.3384C3.81507 22.3384 1.47261 22.2347 0.523767 21.0044C-0.0692612 20.2361 -0.0692612 19.3829 0.0888796 19.3735C0.207485 19.364 1.59122 19.3405 1.59122 19.3405Z" fill="white"/>
<path d="M1.60092 19.3216C2.28784 18.6286 1.67999 17.5162 2.90064 17.2287C3.44425 17.1014 4.25472 16.9506 5.89049 17.2899C6.57247 17.4314 6.37974 17.1674 6.37974 17.1674L3.71605 16.2765C3.71605 16.2765 1.18086 16.465 0.385212 17.667C-0.128745 18.4401 -0.00519757 19.3923 0.108466 19.43C0.217188 19.4677 1.60092 19.3216 1.60092 19.3216Z" fill="white"/>
<path d="M21.492 16.5876C20.0935 15.2536 15.0082 15.1829 12.0085 15.8145C11.4698 15.4563 10.9559 12.2981 10.9559 12.2981C10.9559 12.2981 10.6445 12.5149 8.5047 12.4678C8.31196 12.3924 8.23784 14.2307 8.23784 15.3432C8.23289 15.3432 8.22301 15.3385 8.22301 15.3385L8.19336 17.3324C8.19336 17.3324 10.2541 17.8839 10.5803 19.4912C10.694 20.0427 19.792 20.8724 19.9897 20.5707C20.5333 19.7552 21.5859 16.6771 21.492 16.5876Z" fill="#E50914"/>
<path d="M9.47852 26.9578C9.53288 27.6318 9.84916 30.9126 9.92329 31.4877C10.1061 32.9206 10.7288 36.2674 10.4471 36.5738C10.1704 36.8849 10.0864 37.097 10.0666 37.4882C10.0468 37.8748 10.0715 38.5818 10.032 38.7751C9.99741 38.9731 10.3186 38.9778 10.4521 38.101C10.5262 38.3839 10.6745 39.6094 10.6942 39.8498C10.714 40.0902 11.5245 40.3212 11.6035 39.3973C11.6826 38.4781 11.8012 37.6485 11.7123 37.1724C11.6233 36.6963 11.5096 36.5125 11.5096 36.5125C11.5096 36.5125 11.6282 34.1745 11.5936 32.4917C11.5591 30.8089 11.5096 27.0049 11.3762 26.6278C11.2428 26.2507 9.47852 26.9578 9.47852 26.9578Z" fill="#D3A197"/>
<path d="M10.6299 19.4865C10.5409 19.5101 10.3185 20.4293 9.19177 20.797L8.2627 21.0515L8.78654 24.4878H8.79148C8.89032 25.4871 9.22637 27.7968 9.43393 27.6931C11.554 27.4197 11.89 27.6036 11.89 27.6036C11.89 27.6036 12.0185 24.2333 12.4337 23.3565C13.3677 22.8616 15.038 21.8293 15.5372 21.7538C16.3526 21.6313 17.3904 22.8474 17.8203 22.6966C19.3869 22.1451 20.4791 19.6892 20.4791 19.6892C20.4791 19.6892 17.3706 17.8273 10.6299 19.4865Z" fill="#E50914"/>
</g>
<defs>
<linearGradient id="paint0_linear_141_1835" x1="9.6222" y1="19.7754" x2="5.279" y2="19.4952" gradientUnits="userSpaceOnUse">
<stop stop-color="white"/>
<stop offset="0.1179" stop-color="#F4F2F1"/>
<stop offset="0.3387" stop-color="#D7D0CE"/>
<stop offset="0.5751" stop-color="#B3A6A1"/>
</linearGradient>
<clipPath id="clip0_141_1835">
<rect width="37" height="41" fill="white"/>
</clipPath>
</defs>
</svg>
