<svg width="35" height="35" viewBox="0 0 35 35" fill="none" xmlns="http://www.w3.org/2000/svg">
<g clip-path="url(#clip0_141_2136)">
<path d="M29.8055 16.2505H28.0264L29.036 12.8258H30.8151L29.8055 16.2505Z" fill="white"/>
<path d="M30.5035 16.371C30.2408 15.3586 27.5947 15.2457 26.2097 15.2871H19.7089C19.3898 15.2871 19.1309 15.5468 19.1309 15.8667C19.1309 16.1866 19.3898 16.4462 19.7089 16.4462H26.2284L26.2735 16.5027C26.2735 16.5027 31.074 18.5613 30.5035 16.371Z" fill="white"/>
<path d="M30.2635 31.1726L28.6082 31.2178L24.5171 16.5291H26.2999L30.2635 31.1726Z" fill="white"/>
<path d="M32.2111 34.6161C32.2111 34.8306 32.0384 35 31.8245 35H3.17142C2.95748 35 2.78857 34.8269 2.78857 34.6161C2.78857 34.4016 2.96123 34.2322 3.17142 34.2322H31.8245C32.0384 34.2285 32.2111 34.4016 32.2111 34.6161Z" fill="white"/>
<path d="M34.1893 32.0419C34.6247 32.2226 34.8574 32.5124 34.5421 32.5124L0.416679 32.6667C0.0976442 32.6667 0.112658 32.4371 0.777001 32.0833L1.73035 31.5489C2.00059 31.3645 2.48853 31.2893 2.75877 31.2893H32.1813C32.5041 31.2704 32.8644 31.3269 33.2923 31.5489L34.1893 32.0419Z" fill="white"/>
<path d="M20.9135 30.2279C18.958 30.0849 18.8379 28.7828 18.8379 28.7828C18.3237 26.8898 18.5676 23.8602 18.6652 23.2016C18.7816 22.3774 17.9596 16.9016 17.9596 15.3699C17.9596 15.3699 15.61 15.3699 15.4899 16.9016C15.3735 18.4333 15.7639 20.8833 16.5859 23.9505C16.417 26.1408 17.2314 28.6511 17.7306 29.7575C17.7719 30.2844 17.7607 30.8037 17.8845 31.3382C17.9859 31.7559 20.3692 31.2666 21.0786 31.165C21.7955 31.0597 22.2347 30.322 20.9135 30.2279Z" fill="#D3A197"/>
<path d="M18.0461 14.8618C18.1062 15.1855 18.3914 18.9075 18.3914 18.9075L15.2349 19.2989L15.2536 16.45L18.0461 14.8618Z" fill="white"/>
<path d="M20.5195 30.1716C20.3656 29.9156 20.1142 29.5995 19.9828 29.5732C19.7201 29.5167 19.5849 29.6522 19.6525 29.8931C19.7201 30.1302 20.2268 30.6345 20.2268 30.6345L20.5195 30.1716Z" fill="#E50914"/>
<path d="M17.7721 30.45C17.5469 30.8978 17.5281 31.3495 17.8472 31.7559C18.3276 31.9554 21.8858 31.1387 21.8858 31.1387C21.8858 31.1387 22.2461 31.0333 22.0847 30.657C21.9721 30.3973 21.1764 30.4726 20.4482 30.1038C20.0841 30.6118 19.7914 30.0285 19.4874 30.2995C18.7292 30.9694 17.7721 30.45 17.7721 30.45Z" fill="#E50914"/>
<path d="M18.8566 31.4022C18.0946 31.4925 17.7568 31.6393 17.7568 31.6393C17.7756 31.7447 17.8019 32.0119 17.907 32.0119C18.0158 32.0119 20.9172 31.7259 21.878 31.3307C22.1145 31.2328 22.1633 30.8226 22.1257 30.8C22.1295 30.928 22.0394 31.0033 21.8855 31.056C20.3316 31.5904 19.6635 31.3044 18.8566 31.4022Z" fill="white"/>
<path d="M20.4743 30.4952C20.4631 30.4802 20.4631 30.4614 20.4743 30.4463L20.5794 30.2995L20.0765 30.4425C20.0577 30.4463 20.0352 30.4388 20.0277 30.42C20.0202 30.4011 20.0239 30.3786 20.0389 30.3673L20.4218 30.07C20.4405 30.0549 20.4668 30.0587 20.4818 30.0775C20.4968 30.0963 20.4931 30.1226 20.4743 30.1377L20.2641 30.3033L20.6733 30.1866C20.692 30.1829 20.7108 30.1866 20.7183 30.2017C20.7296 30.2167 20.7296 30.2355 20.7183 30.2506L20.6057 30.4087L21.1274 30.292C21.1499 30.2882 21.1725 30.2995 21.1762 30.3259C21.18 30.3485 21.1687 30.371 21.1424 30.3748L20.5156 30.5178C20.5119 30.5178 20.5081 30.5178 20.5044 30.5178C20.4931 30.514 20.4818 30.5103 20.4743 30.4952Z" fill="white"/>
<path d="M16.9012 17.2968C16.0416 18.6893 13.8272 21.0113 13.2266 21.35C12.6299 21.6887 7.33012 21.828 6.99607 22.0876C6.33548 22.6032 5.59232 23.371 5.22824 23.8301C4.86417 24.293 5.24701 23.8715 5.28079 22.5731C5.31457 21.2785 4.89044 20.285 5.70867 20.4204C6.5269 20.5597 6.5269 20.8984 7.14621 20.729C8.85023 20.2586 11.0047 19.5022 11.8304 19.5247C12.4347 18.8323 14.0374 16.0059 14.5215 15.4264C15.002 14.8468 16.9012 17.2968 16.9012 17.2968Z" fill="#E5C3B7"/>
<path d="M6.04257 23.5478C6.33158 23.4801 6.71067 23.3371 6.77823 23.2204C6.91335 22.9871 6.82702 22.8177 6.5793 22.8064C6.33158 22.7951 5.69727 23.1263 5.69727 23.1263L6.04257 23.5478Z" fill="#E50914"/>
<path d="M6.62818 20.8456C6.27536 20.4919 5.84748 20.3338 5.36705 20.5144C5.02925 20.9096 4.70271 24.5564 4.70271 24.5564C4.70271 24.5564 4.68769 24.9327 5.09681 24.8951C5.37831 24.8687 5.55472 24.0859 6.12898 23.5064C5.7574 23.0021 6.40297 22.9042 6.24158 22.5279C5.83997 21.5983 6.62818 20.8456 6.62818 20.8456Z" fill="#E50914"/>
<path d="M5.38971 21.5833C5.53984 20.8306 5.50606 20.4618 5.50606 20.4618C5.40097 20.4467 5.13823 20.3865 5.10445 20.4919C5.07067 20.5973 4.44386 23.4537 4.51893 24.4887C4.5377 24.7446 4.91303 24.9177 4.94306 24.8876C4.82295 24.85 4.77791 24.7408 4.77416 24.579C4.75539 22.9344 5.23207 22.3812 5.38971 21.5833Z" fill="white"/>
<path d="M5.69378 24.1312C5.67126 24.1274 5.65249 24.1086 5.65624 24.0823L5.7163 23.4387C5.7163 23.4199 5.73131 23.4049 5.74632 23.4011C5.76509 23.3973 5.7801 23.4011 5.79136 23.4161L5.90021 23.5629L5.91898 23.0398C5.91898 23.0172 5.93399 23.0022 5.95651 22.9984C5.97528 22.9946 5.99404 23.0059 6.0053 23.0247L6.17045 23.4839C6.17796 23.5065 6.1667 23.5328 6.14418 23.5403C6.12166 23.5479 6.09538 23.5366 6.08788 23.514L5.9978 23.2618L5.98278 23.6909C5.98278 23.7097 5.97152 23.7247 5.95276 23.7285C5.93399 23.7323 5.91522 23.7285 5.90396 23.7135L5.79136 23.5592L5.74257 24.0898C5.73882 24.1124 5.72005 24.1274 5.70128 24.1274C5.69753 24.1312 5.69378 24.1312 5.69378 24.1312Z" fill="white"/>
<path d="M18.1363 14.7225C17.7234 16.6193 16.8939 17.7333 15.9631 18.8096C15.5727 19.265 12.9529 17.6956 13.2231 17.1687C14.0901 15.4601 13.6097 14.7677 13.97 14.0225C14.5255 12.8709 15.1599 12.7693 15.1599 12.7693L18.1963 13.6989L18.1363 14.7225Z" fill="white"/>
<path d="M13.9701 14.0228C13.6098 14.7679 14.0902 15.4604 13.2232 17.169C13.0881 17.4325 13.6736 17.9556 14.3454 18.3583C14.7208 17.2593 15.7867 15.1217 16.4323 14.0679C16.7213 13.5937 16.1958 13.1873 15.4789 12.8712L15.1599 12.7733C15.1599 12.7733 14.5256 12.8712 13.9701 14.0228Z" fill="white"/>
<path d="M16.4694 5.82581C15.411 6.0629 12.7686 8.16667 12.671 8.91183C12.5697 9.65323 14.1986 11.2602 15.6399 12.4984C16.4957 13.2323 16.4356 12.2538 16.4356 12.2538C16.4356 12.2538 14.0935 9.39355 14.1123 9.31828C14.2211 8.87043 16.4018 7.91828 16.6683 7.63978C16.9348 7.35 16.4694 5.82581 16.4694 5.82581Z" fill="#D3A197"/>
<path d="M19.0367 3.97795C18.3799 4.5801 18.181 5.24999 18.2523 5.63386C18.4249 6.58978 18.9054 7.39515 18.7778 7.43655C18.6501 7.47795 17.6255 6.49569 17.2389 6.31128C16.5633 5.98762 16.4657 5.85967 16.019 5.76182C16.7735 5.043 17.4491 3.69569 17.1938 2.63816C16.9386 1.58064 19.0367 3.97795 19.0367 3.97795Z" fill="#E5C3B7"/>
<path d="M17.2728 2.6231C17.1265 2.01718 18.6503 3.14622 19.2133 4.11718L16.9163 6.37525C16.586 5.8145 16.0718 6.01396 16.1956 5.59622C16.9013 4.6817 17.5281 3.68439 17.2728 2.6231Z" fill="url(#paint0_linear_141_2136)"/>
<path d="M17.4194 6.07037C18.1963 6.52199 18.369 7.55317 18.369 7.55317C18.6092 7.99349 19.0145 8.45263 19.1346 9.17521C19.2547 9.89779 18.4403 12.0655 17.881 13.5069C17.3218 14.9521 17.6258 14.9935 17.3856 14.9935C17.1454 14.9935 13.9813 13.8532 14.0789 13.7026C14.3341 13.3112 15.2537 11.9112 15.295 11.1473C15.3362 10.387 14.9234 8.20048 15.4113 6.90209C15.7454 6.01769 16.2183 5.45317 16.2821 5.48704C16.74 5.73919 16.8901 5.76177 17.4194 6.07037Z" fill="#E50914"/>
<path d="M18.7031 12.1709C19.191 9.95048 19.6339 9.958 19.5138 9.23542C19.3937 8.51284 18.8119 7.1994 18.5754 6.75908C18.5754 6.75908 18.3165 6.55585 17.3031 6.01392C17.1492 6.28488 16.9165 6.85693 16.8414 7.91069C16.7776 8.78381 17.5208 10.2628 17.1567 11.7231C16.9465 12.5209 16.65 13.4091 16.0645 14.587C17.243 15.0462 18.2076 15.5016 18.2752 15.3585C18.2939 15.3059 18.369 13.6838 18.7031 12.1709Z" fill="#E50914"/>
<path d="M18.5791 0.0376344C17.4569 -0.00752686 16.526 0.594624 16.4697 2.00968C16.4134 3.42097 17.3405 4.85484 18.459 4.9C19.1609 4.92634 19.6526 4.50108 19.9378 3.83118C20.0767 3.80484 20.193 3.75968 20.1893 3.65806C20.148 3.55269 20.118 3.4586 20.0917 3.37204C20.1668 3.07849 20.2118 2.75484 20.2268 2.41613C20.2794 0.997312 19.6976 0.0827957 18.5791 0.0376344Z" fill="#E5C3B7"/>
<path d="M18.4325 4.90381C18.5563 4.90757 18.6727 4.90004 18.7853 4.87746C17.6818 4.43338 18.1622 1.62585 18.425 1.12155C18.2523 1.0538 18.7628 0.0527297 18.5526 0.0452028C17.4303 4.1496e-05 16.4995 0.602192 16.4432 2.01725C16.3831 3.42854 17.314 4.85864 18.4325 4.90381Z" fill="#D3A197"/>
<path d="M20.1178 1.14407C20.1666 0.809128 19.6261 -0.105388 18.0235 0.0075154C17.3591 0.0526767 16.9463 0.222032 16.6835 0.470419C16.3532 0.688698 16.0192 1.06128 15.7377 1.71235C14.8481 2.9844 13.5194 4.27526 12.7913 3.65053C12.8438 3.77472 12.9677 3.90644 13.1441 4.01182C12.8926 3.96666 12.6487 3.86504 12.4197 3.6844C12.3934 3.94407 12.6074 4.343 13.0202 4.5801C12.78 4.50106 12.5323 4.35805 12.3559 4.19623C12.1607 4.01934 12.5511 4.68547 12.9752 4.85106C12.7988 4.79838 12.476 4.68547 12.3371 4.50859C12.2471 4.39569 12.2996 5.23493 13.5345 5.27633C13.8347 5.28762 14.1613 5.18225 14.3902 5.06934C14.0599 5.27257 13.8122 5.37418 12.8176 5.27633C14.3715 5.95375 16.95 5.13708 17.7682 3.47741C17.8583 3.35698 17.8996 3.24784 17.8396 3.16881C17.6969 2.98816 17.4717 2.31074 17.7833 2.28063C17.9334 2.26558 18.1173 2.36719 18.1173 2.36719L18.669 1.86666C19.0969 1.93816 20.0728 2.09623 20.4782 2.09246C20.7259 1.46397 20.2455 1.14784 20.1178 1.14407Z" fill="white"/>
<path d="M13.5534 5.28389C13.8536 5.29518 14.1014 5.22368 14.3303 5.11077C13.985 5.26508 13.8311 5.38174 12.8365 5.28389C14.3904 5.96131 16.9689 5.14464 17.7872 3.48497C17.8772 3.36454 17.9185 3.25163 17.8547 3.17637C17.7121 2.99572 17.4869 2.32206 17.8022 2.28819C17.9523 2.27314 18.0874 2.44626 18.0874 2.44626L18.6842 1.87421C19.1121 1.94572 20.0842 2.10378 20.4933 2.10002C20.741 1.47153 20.2606 1.15916 20.133 1.1554C20.1743 0.87314 19.7427 0.301097 19.3298 0.203247C18.459 0.466688 17.911 1.49034 17.3743 2.48013C15.9818 5.05432 13.5309 5.42314 12.4424 4.82475C12.5963 5.02798 12.9191 5.26131 13.5534 5.28389Z" fill="white"/>
<path d="M23.9614 9.80378C24.1077 9.75109 24.2278 9.72475 24.2241 9.64572C24.2203 9.59679 24.0965 9.60056 24.0026 9.61185C24.0439 9.60432 24.089 9.59303 24.1227 9.57045C24.2391 9.50271 24.2203 9.42744 24.1678 9.39357C24.1152 9.3597 23.815 9.43496 23.815 9.43496C23.815 9.43496 23.9351 9.3898 24.0477 9.34464C24.1828 9.28819 24.0852 9.22045 24.0852 9.22045C24.0064 9.17152 23.8638 9.17529 23.6386 9.20539C23.4584 9.22797 23.2482 9.29948 23.4021 9.1941C23.5973 9.06238 23.6836 8.86668 23.5185 8.9683C23.4396 9.01722 22.9967 9.0812 22.8691 9.22045C22.7415 9.3597 22.5238 9.48389 22.3024 9.68335L22.0509 9.77744C21.379 9.9355 19.3935 9.91668 19.1571 9.8226C18.8868 9.71722 18.245 7.82797 18.0123 7.14303C17.7758 6.45432 17.2766 6.05916 16.6123 6.34142C16.6123 6.34142 15.7678 6.77798 16.2445 8.18927C16.5898 9.21292 17.667 10.9441 18.4815 11.2979C19.1571 11.5877 21.3678 10.9629 22.3699 10.564C22.475 10.5377 22.5651 10.5151 22.6252 10.5038C23.3871 10.3269 23.6836 10.2102 23.9051 10.0898C24.0552 10.0108 24.2278 9.85271 24.2053 9.79625C24.1941 9.75862 24.1453 9.77367 23.9614 9.80378Z" fill="#E5C3B7"/>
<path d="M30.9612 9.10754H29.6138V11.328H30.9612V9.10754Z" fill="white"/>
<path d="M31.4982 15.336C31.4456 15.5543 31.1078 15.6295 30.755 15.5016L27.422 14.3236C27.1555 14.2295 26.9904 14.0112 27.0429 13.8306L28.0601 10.4322C28.1089 10.2704 28.3566 10.1725 28.6231 10.2177L31.8585 10.5978C32.2038 10.6543 32.4553 10.8612 32.4102 11.0532L31.4982 15.336Z" fill="white"/>
<path d="M30.5935 14.6736C30.5409 14.8618 30.2744 14.9333 30.0004 14.8355L27.5458 14.079C27.3431 14.0075 27.223 13.8269 27.2755 13.6763L28.15 10.643C28.1951 10.5038 28.3978 10.4134 28.6042 10.4435L31.164 10.7973C31.4342 10.8349 31.6219 11.0005 31.5769 11.1661L30.5935 14.6736Z" fill="#617F9B"/>
<path d="M31.9672 9.67207C31.9672 9.84895 31.697 9.97691 31.3742 9.95809L29.261 9.84519C28.9983 9.83014 28.7919 9.69842 28.7919 9.54412L28.7769 7.31992C28.7769 7.16562 28.9833 7.02261 29.246 7.00379L31.3704 6.83067C31.697 6.80433 31.971 6.92852 31.971 7.10541V9.67207H31.9672Z" fill="white"/>
<path d="M31.479 9.46879C31.479 9.61557 31.2651 9.72471 31.0099 9.70589L29.3622 9.60428C29.1595 9.59299 28.9981 9.48008 28.9981 9.35213L28.9868 7.50428C28.9868 7.37632 29.1482 7.25589 29.3509 7.24084L31.0061 7.0903C31.2613 7.06772 31.4753 7.16933 31.479 7.31611V9.46879Z" fill="white"/>
<path d="M29.4226 32.6629L26.6826 31.2629L29.8054 30.2279L34.0842 31.1424L29.4226 32.6629Z" fill="white"/>
<path d="M34.2043 31.1425L29.948 32.3016H0.578016C0.258981 32.3016 0 32.5613 0 32.8774V33.8408C0 34.1607 0.258981 34.4204 0.578016 34.4204H34.422C34.741 34.4204 35 34.1607 35 33.8408V32.8774C35 32.8172 34.2043 31.1425 34.2043 31.1425Z" fill="white"/>
<path d="M34.8349 32.6366C34.3244 31.4323 33.9866 30.6608 33.9866 30.6608L28.6493 32.2527H0.570509C0.270241 32.2527 0.0262735 32.486 0 32.7833H34.8198C34.8161 32.7419 34.8461 32.6629 34.8349 32.6366Z" fill="white"/>
<path d="M34.9735 32.9037L33.1006 32.9526L28.4614 16.2957H30.477L34.9735 32.9037Z" fill="white"/>
<path d="M30.6462 16.6532C30.6462 17.0145 30.3009 17.3118 29.8731 17.3118H20.7937C20.3658 17.3118 20.0205 17.0183 20.0205 16.6532C20.0205 16.2919 20.3658 15.9946 20.7937 15.9946H29.8731C30.3009 15.9946 30.6462 16.2882 30.6462 16.6532Z" fill="white"/>
</g>
<defs>
<linearGradient id="paint0_linear_141_2136" x1="16.871" y1="5.77174" x2="18.0483" y2="3.6675" gradientUnits="userSpaceOnUse">
<stop stop-color="white"/>
<stop offset="0.2397" stop-color="#E8E4E3"/>
<stop offset="0.7125" stop-color="#B3A6A1"/>
</linearGradient>
<clipPath id="clip0_141_2136">
<rect width="35" height="35" fill="white"/>
</clipPath>
</defs>
</svg>
