<svg width="36" height="31" viewBox="0 0 36 31" fill="none" xmlns="http://www.w3.org/2000/svg">
<g clip-path="url(#clip0_141_2023)">
<path d="M22.022 8.22395C20.1145 8.56615 14.691 9.5591 13.2317 10.1537C11.7264 10.7652 7.24509 10.3669 4.64247 12.1957C3.16593 13.2279 4.09667 15.0399 5.02166 15.528C6.54416 16.3302 8.262 15.685 8.262 15.685C10.2901 14.9445 12.0539 13.9292 14.938 13.1606C15.7654 12.9362 20.6374 10.9559 22.4471 10.2154C22.8436 10.1762 23.3951 10.1257 24.1937 10.0247C25.2738 9.89008 26.4114 9.02055 26.5033 8.78494C26.624 8.4764 25.7334 9.01494 25.5094 9.00933C25.9345 8.85787 27.8017 8.12859 25.4289 8.44274C26.4229 8.33615 27.8075 7.87053 25.2393 7.96029C27.8075 7.84248 25.4806 7.50589 24.9521 7.53955C24.073 7.60126 23.7685 7.69663 23.6019 7.74712C23.2917 7.82566 24.1477 7.53955 24.2684 7.45541C24.6361 7.19174 24.6246 7.2254 24.5671 7.18613C24.3661 7.07394 22.6712 7.46662 22.022 8.22395Z" fill="#D3A197"/>
<path d="M27.9108 14.0976C29.87 13.2841 32.3519 9.67701 32.3519 9.67701C33.1793 9.5592 34.2709 9.41335 34.2881 8.2465C34.3226 6.60843 32.8403 1.85689 32.7369 2.56373C32.6392 3.27057 31.9096 5.46963 30.9616 7.52844C30.9616 7.52844 28.1981 10.5129 26.6526 11.5114C25.7678 12.0836 27.9108 14.0976 27.9108 14.0976Z" fill="#D3A197"/>
<path d="M31.7718 4.38123C31.295 4.6505 30.7607 5.55368 30.709 5.7893C30.5941 6.26613 31.1801 6.50175 31.6225 6.39516C32.0649 6.28296 32.5704 5.2227 32.5704 5.2227L31.7718 4.38123Z" fill="white"/>
<path d="M32.4959 9.51428C32.3293 9.64891 32.6453 9.77233 32.6453 9.77233C33.4209 9.77233 33.6565 9.45818 34.4149 8.89719C34.8056 8.03328 33.352 1.44732 33.352 1.44732C33.352 1.44732 33.1739 0.785359 32.4672 1.06585C31.9789 1.25659 31.9961 3.18076 31.2837 4.48786C32.2144 5.16665 32.1225 5.30128 32.3868 5.99129C32.8981 7.33766 33.4899 8.71768 32.4959 9.51428Z" fill="white"/>
<path d="M34.0066 7.10766C34.1445 8.49329 34.1043 9.0711 34.1043 9.0711C34.2996 9.04305 34.7995 9.00939 34.8052 8.80744C34.811 8.61109 34.4031 3.22003 33.7136 1.45854C33.5413 1.02658 32.7829 0.919997 32.7427 0.987315C32.9782 0.987315 33.1161 1.15561 33.208 1.43049C34.1215 4.28029 33.863 5.63788 34.0066 7.10766Z" fill="white"/>
<path d="M32.2773 4.76829L31.3408 4.3756C31.3006 4.35877 31.2834 4.31389 31.3006 4.27463C31.3178 4.23536 31.3638 4.21853 31.404 4.22975L32.1049 4.52707L31.5821 3.71364C31.5649 3.68559 31.5649 3.65193 31.5879 3.62388C31.6051 3.59584 31.6396 3.58462 31.674 3.59583L32.3635 3.78096L31.7487 3.08534C31.7143 3.04607 31.7143 3.00119 31.7487 2.97314C31.7832 2.94509 31.8292 2.94509 31.8636 2.97875L32.6507 3.86511C32.6737 3.89316 32.6737 3.93243 32.6565 3.96047C32.6393 3.98852 32.599 4.00535 32.5703 3.99413L31.8234 3.79779L32.375 4.6561C32.3922 4.68414 32.3922 4.72341 32.3692 4.74585C32.352 4.76268 32.329 4.7739 32.306 4.7739C32.2945 4.7739 32.283 4.7739 32.2773 4.76829Z" fill="white"/>
<path d="M7.30225 25.1713C8.30193 26.8711 8.56047 28.1894 10.2496 29.4517C11.0654 30.0575 15.0239 31.2468 17.954 27.9482C17.954 27.9482 22.2113 24.0606 24.5554 18.4564C26.6294 17.8224 30.6339 15.1578 32.2196 13.1775C31.352 10.6979 29.8238 8.35303 29.8238 8.35303C29.8238 8.35303 24.5841 12.8297 22.194 14.7987C21.1369 15.6739 16.5579 21.6932 15.5123 22.1813C14.4724 22.6637 12.8522 22.0971 12.8522 22.0971L7.30225 25.1713Z" fill="white"/>
<path d="M29.0542 14.7875C31.042 13.918 33.5068 10.1818 33.5068 10.1818C34.3513 10.0472 35.4602 9.87888 35.4602 8.67838C35.4602 7.00103 33.8457 2.17096 33.7596 2.89462C33.6734 3.61829 32.9667 5.88467 32.0475 8.00519C32.0475 8.00519 29.284 11.113 27.7213 12.1621C26.825 12.7736 29.0542 14.7875 29.0542 14.7875Z" fill="#E5C3B7"/>
<path d="M32.8115 4.7738C32.3289 5.0543 31.8061 5.99114 31.7486 6.23236C31.6452 6.72042 32.2427 6.95603 32.6966 6.83262C33.1505 6.7092 33.6446 5.61528 33.6446 5.61528L32.8115 4.7738Z" fill="white"/>
<path d="M33.6559 10.0134C33.4836 10.1537 33.811 10.2771 33.811 10.2771C34.6039 10.2603 34.8337 9.93489 35.6036 9.34585C35.9885 8.45389 34.3626 1.74451 34.3626 1.74451C34.3626 1.74451 34.1673 1.07133 33.4491 1.36866C32.955 1.57061 33.0124 3.54527 32.3115 4.89725C33.2767 5.57043 33.1906 5.71067 33.4721 6.41751C34.0236 7.78071 34.6556 9.18317 33.6559 10.0134Z" fill="white"/>
<path d="M35.15 7.52269C35.3167 8.93637 35.2879 9.53101 35.2879 9.53101C35.489 9.49735 36.0003 9.45247 36.0003 9.25052C36.0003 9.04856 35.4718 3.5397 34.7306 1.75016C34.5468 1.31259 33.7712 1.21722 33.731 1.28454C33.9723 1.27893 34.1159 1.44723 34.2136 1.73333C35.2132 4.62801 34.9777 6.02486 35.15 7.52269Z" fill="white"/>
<path d="M33.3343 5.16097L32.3691 4.77389C32.3289 4.75706 32.3059 4.71218 32.3232 4.6673C32.3404 4.62803 32.3864 4.60559 32.4323 4.62242L33.1562 4.91413L32.5989 4.0951C32.5817 4.06705 32.5817 4.03339 32.5989 4.00534C32.6162 3.97729 32.6507 3.96607 32.6851 3.97729L33.3975 4.15119L32.7541 3.44996C32.7253 3.4163 32.7253 3.36582 32.7598 3.33777C32.7943 3.30972 32.846 3.30972 32.8747 3.34338L33.6963 4.23534C33.7193 4.26339 33.725 4.29705 33.702 4.33071C33.6848 4.35876 33.6446 4.37559 33.6101 4.36437L32.846 4.17924L33.4263 5.04316C33.4435 5.07121 33.4435 5.11048 33.4205 5.13853C33.4033 5.15536 33.3803 5.16658 33.3573 5.16658C33.3516 5.16658 33.3401 5.16658 33.3343 5.16097Z" fill="white"/>
<path d="M8.19873 26.5177C9.25586 28.2343 9.31332 29.2048 11.0714 30.467C11.9159 31.0729 16.6386 31.6675 18.8045 29.2104C18.8045 29.2104 23.4352 25.0928 25.7219 19.3091C27.8304 18.6247 31.8751 15.8197 33.455 13.7609C32.5186 11.2421 30.9041 8.86914 30.9041 8.86914C30.9041 8.86914 25.0727 13.4748 22.6711 15.5336C21.6025 16.448 16.6615 22.4674 15.6102 22.9835C14.553 23.4996 13.0592 22.3384 13.0592 22.3384L8.19873 26.5177Z" fill="white"/>
<path d="M8.3077 11.9994C7.4574 10.3053 7.35398 6.70375 7.35398 6.70375L2.18896 6.33911C2.18896 6.33911 3.7919 8.40914 3.49315 11.4272C3.44144 11.9321 8.3077 11.9994 8.3077 11.9994Z" fill="#D3A197"/>
<path d="M7.93994 8.65029L5.40052 11.7301L3.45287 12.3808C3.45287 12.3808 3.63671 9.57031 3.23454 8.4259C2.83237 7.28149 4.83748 8.10614 5.38903 8.28565C5.92909 8.47078 7.93994 8.65029 7.93994 8.65029Z" fill="url(#paint0_linear_141_2023)"/>
<path d="M6.75643 0.992894C4.94666 -0.420787 -0.293046 0.981674 0.769833 4.26343C2.71174 10.2435 6.65301 9.07668 6.65301 9.07668C7.90549 8.79619 8.20424 8.67277 8.90517 7.92666C9.24988 7.56202 9.02007 6.33347 8.88219 5.41345C9.21541 5.1554 9.4165 4.9254 9.23839 4.68417C8.8707 4.42051 8.72132 4.08953 8.49725 3.88196C8.04912 2.54121 7.60099 1.65486 6.75643 0.992894Z" fill="#E5C3B7"/>
<path d="M3.76892 0.869507C2.02235 1.31268 0.0919314 2.37856 0.712423 4.30834C2.65433 10.2884 6.80818 9.2394 6.80818 9.2394C7.49761 9.17769 7.6355 9.03744 8.42261 8.34743C6.39452 8.65597 4.29174 3.34906 3.76892 0.869507Z" fill="#D3A197"/>
<path d="M0.379219 3.33784C0.48838 2.58051 1.2008 1.49781 2.70032 0.757312C4.15388 0.0392524 4.86055 -1.65701e-05 6.34858 0.718044C7.0495 1.06024 4.7399 1.8344 4.44114 2.09807C4.14813 2.36734 5.3489 4.72347 5.3489 4.72347C5.3489 4.72347 4.14813 5.99691 4.3722 6.48496C4.59626 6.97302 3.47019 9.20574 3.47019 9.20574C3.47019 9.20574 1.94768 8.01084 1.12036 7.074C-0.810056 4.88616 0.327511 3.67443 0.379219 3.33784Z" fill="white"/>
<path d="M5.73402 3.55096C5.10778 1.77264 6.03852 1.93533 6.44069 1.97459C6.82563 2.00825 7.45186 1.68288 7.45186 1.68288C7.45186 1.68288 7.57252 0.521644 6.83137 0.274811C5.37207 -0.218855 4.40111 -0.0281202 2.94756 0.68994C2.36154 0.981652 3.1429 3.15266 5.15375 4.93659C5.32611 4.79074 5.3376 4.79635 5.50996 4.52146C5.50996 4.52146 5.98107 4.24097 5.73402 3.55096Z" fill="white"/>
<path d="M4.79727 5.00956C4.38361 4.79077 3.82632 4.79638 3.74014 5.23395C3.65396 5.67713 4.18253 6.88324 4.98687 6.90007C5.79121 6.92251 4.79727 5.00956 4.79727 5.00956Z" fill="#D3A197"/>
<path d="M3.36657 11.0176C2.88971 12.8016 3.46998 12.8633 3.71703 14.7818C3.92961 16.4424 5.87152 18.3441 6.66437 21.351C7.16995 23.2583 9.62319 25.6593 10.1747 27.7237C10.1747 27.7237 11.5651 24.7281 14.9433 22.4281C14.7595 21.5024 13.1393 19.7634 11.5594 15.3653C10.9791 13.7496 10.3241 13.1999 8.45115 11.7357C7.14123 10.7035 3.36657 11.0176 3.36657 11.0176Z" fill="#E50914"/>
<path d="M3.03921 14.8548C3.25753 16.5209 4.61342 20.7563 6.18189 24.1222C7.30222 26.5345 9.23838 29.2272 10.1576 30.1304C10.1576 30.1304 9.62906 27.8808 12.3121 24.7449C7.06091 17.8785 5.64183 12.9194 5.51543 12.5547C5.40053 12.2013 5.49245 11.7806 5.49819 10.9671C4.44106 10.9166 3.36095 10.9335 3.36095 10.9335C2.88983 12.7118 2.79216 12.9362 3.03921 14.8548Z" fill="#E50914"/>
<path d="M22.286 8.81859C20.3843 9.18884 14.978 10.2659 13.5244 10.883C12.0306 11.5169 7.54355 11.1916 4.96966 13.054C3.51036 14.1087 4.46982 15.9094 5.40056 16.3807C6.93455 17.1548 8.6409 16.4873 8.6409 16.4873C10.6518 15.7131 12.3983 14.6753 15.2767 13.8562C16.104 13.6206 20.9358 11.5674 22.7341 10.7989C23.1248 10.754 23.6763 10.6923 24.4749 10.5801C25.555 10.4286 26.6754 9.54226 26.7673 9.30665C26.8822 8.99811 26.0032 9.54787 25.7791 9.54226C26.1985 9.38519 28.0542 8.62786 25.6872 8.97567C26.6811 8.85225 28.0542 8.3642 25.4918 8.49322C28.0542 8.33615 25.7274 8.03322 25.1988 8.07809C24.3198 8.15102 24.0153 8.252 23.8487 8.3081C23.5384 8.39225 24.3945 8.09492 24.5094 8.00517C24.8771 7.73589 24.8599 7.76955 24.8024 7.73589C24.6128 7.63492 22.9237 8.05566 22.286 8.81859Z" fill="#E5C3B7"/>
</g>
<defs>
<linearGradient id="paint0_linear_141_2023" x1="5.77464" y1="11.522" x2="5.38184" y2="6.26707" gradientUnits="userSpaceOnUse">
<stop stop-color="white"/>
<stop offset="0.1057" stop-color="#FBFAFA"/>
<stop offset="0.2395" stop-color="#EEEBEA"/>
<stop offset="0.3885" stop-color="#D9D2D0"/>
<stop offset="0.5475" stop-color="#BCB0AC"/>
<stop offset="0.5907" stop-color="#B3A6A1"/>
</linearGradient>
<clipPath id="clip0_141_2023">
<rect width="36" height="31" fill="white"/>
</clipPath>
</defs>
</svg>
