<svg width="18" height="44" viewBox="0 0 18 44" fill="none" xmlns="http://www.w3.org/2000/svg">
<g clip-path="url(#clip0_141_1517)">
<path d="M7.45703 33.5459C8.0054 33.2987 7.96017 32.3355 8.876 31.4429C9.22085 31.1454 9.28869 31.1 9.7466 31.5892C10.2045 32.0783 10.295 29.9603 9.7466 29.4711C9.19824 28.982 8.46897 28.4121 8.01105 28.7349C7.54748 29.0576 7.45703 33.5459 7.45703 33.5459Z" fill="#E5C3B7"/>
<path d="M4.44385 27.1161C4.62475 28.0944 4.90176 32.6634 5.45013 33.2332C5.9985 33.8031 6.81822 33.9695 7.6436 33.3946C8.46332 32.8247 8.37287 27.5246 8.64988 26.9547C8.92123 26.3848 4.44385 27.1161 4.44385 27.1161Z" fill="#D3A197"/>
<path d="M8.14697 28.0136C8.55966 27.6455 8.74057 27.6859 9.15325 27.8724C9.56594 28.054 10.1821 28.9113 10.3178 29.3399C10.4535 29.7686 10.8888 31.6244 10.6175 31.927C10.3404 32.2346 9.84295 32.6633 9.29459 32.0077C8.8819 31.5185 8.92712 31.1756 8.92712 31.1756C8.92712 31.1756 9.63378 31.3521 9.63378 30.989C9.63378 30.6209 9.22109 29.2139 8.74057 28.9718C8.26004 28.7297 8.14697 28.0136 8.14697 28.0136Z" fill="#9B8F8E"/>
<path d="M8.68951 26.9395C8.83649 26.6319 7.62669 26.7025 6.46777 26.8286C6.47908 28.8307 6.5978 31.9926 6.90873 33.7123C7.16313 33.6669 7.42318 33.561 7.68323 33.3794C8.50295 32.8096 8.4125 27.5094 8.68951 26.9395Z" fill="#E5C3B7"/>
<path d="M9.54857 26.0924C9.50334 26.9094 10.3061 30.2428 10.1252 31.3875C9.94429 32.5272 9.58814 32.8399 9.54291 34.3931C9.49769 35.9413 9.92733 37.6257 9.46942 39.0932C9.01151 40.5607 8.8306 40.3943 9.28852 40.9288C9.74643 41.4584 11.5724 42.477 11.7081 41.6248C11.7307 41.4785 11.1145 39.7084 11.9342 37.7114C12.754 35.7144 13.3532 31.3522 13.3532 30.7824C13.3532 30.2125 13.8224 26.5311 13.6868 26.0773C13.5511 25.6234 9.54857 26.0924 9.54857 26.0924Z" fill="#E5C3B7"/>
<path d="M8.68382 40.6162C8.61598 40.8179 8.77993 41.2668 8.90995 41.3525C9.03998 41.4382 9.11347 41.6097 9.32829 42.0736C9.83143 43.1579 10.2441 43.5966 10.6907 43.8336C11.0921 44.0505 12.0645 44.0908 12.3754 43.7025C12.4941 43.5512 12.5393 43.2537 12.5393 43.2537L8.68382 40.6162Z" fill="white"/>
<path d="M9.99523 42.7292C10.6623 44.0202 12.2396 43.7882 12.5392 43.2587C12.6296 43.0923 12.2339 42.4821 12.2339 42.4821C12.2339 42.4821 11.8269 41.7357 11.6177 40.2682C11.6177 40.2682 10.5775 41.0196 10.0291 40.838C9.48078 40.6565 9.25465 39.6378 9.25465 39.6378C9.25465 39.6378 8.67236 39.8093 8.67236 40.5405C8.67236 41.2768 9.15854 41.0347 9.38467 41.5844C9.64473 42.2249 9.99523 42.7292 9.99523 42.7292Z" fill="#BFB8B8"/>
<path d="M10.4815 41.0902C10.4815 40.7423 9.71831 40.1825 10.0462 39.89C10.3684 39.6025 11.3578 39.4109 11.4199 39.8446C11.4821 40.2783 11.5669 40.8683 11.5669 40.8683L10.4815 41.0902Z" fill="#BFB8B8"/>
<path d="M10.9052 42.1442C10.9052 42.1392 10.6169 41.8921 10.6113 41.7105C10.6565 41.5593 10.9448 41.5391 11.2444 41.4735C11.4536 41.4382 11.6684 41.413 11.7702 41.3979C11.7532 41.3424 11.725 41.2567 11.725 41.1457C11.725 41.1457 11.725 41.1457 11.6967 41.1356C11.6684 41.1256 11.6119 41.1205 11.5497 41.1205C11.2275 41.1155 10.6169 41.2718 10.5604 41.4181C10.5491 41.4433 10.5152 41.4534 10.4926 41.4433C10.4643 41.4332 10.453 41.4029 10.4643 41.3828C10.5943 41.1558 11.1936 41.0398 11.5441 41.0348C11.6797 41.0398 11.8041 41.0398 11.8267 41.1508C11.8267 41.3122 11.8889 41.4181 11.8889 41.4181C11.8946 41.4332 11.8946 41.4483 11.8889 41.4584C11.8833 41.4735 11.8663 41.4786 11.8493 41.4836C11.8493 41.4836 10.9448 41.5845 10.747 41.6954C10.7187 41.7055 10.7187 41.7055 10.7187 41.7105C10.713 41.7963 10.9052 42.003 10.9674 42.0636L11.9963 41.8316C12.0246 41.8265 12.0529 41.8417 12.0585 41.8669C12.0642 41.8921 12.0472 41.9173 12.0189 41.9224L10.9618 42.1644L10.9052 42.1442Z" fill="white"/>
<path d="M4.6248 22.4564C4.34779 23.4347 4.01425 23.5104 4.23473 27.1716C4.30822 28.4021 8.23724 27.4742 8.78561 27.4742C9.33397 27.4742 9.24352 25.7596 9.35659 26.1882C9.41312 26.4 9.35094 27.575 9.35094 27.575C9.35094 27.575 13.0482 27.1514 13.7322 27.5196C14.4163 27.8877 14.0036 21.9572 13.3874 20.8578C12.8616 19.9198 4.6248 22.4564 4.6248 22.4564Z" fill="white"/>
<path d="M14.9814 16.7074C15.0493 17.1966 14.9136 17.6857 15.2585 18.1144C15.6033 18.543 16.0838 18.422 16.2873 18.6641C16.4909 18.9112 16.423 19.4003 16.7 19.4003C16.977 19.4003 18.0003 18.9112 18.0003 18.301C18.0003 17.6908 17.3162 17.1361 16.9036 17.015C16.4909 16.8889 14.9814 16.7074 14.9814 16.7074Z" fill="#E5C3B7"/>
<path d="M4.25691 8.58311C3.43719 8.22001 7.54711 7.36271 8.92086 7.03491L10.4755 8.9109C10.4755 8.9109 10.0063 16.5056 9.73493 18.7851C9.46357 21.0695 9.31093 23.2985 9.31093 23.2985C9.31093 23.2985 8.62689 23.5456 4.14385 23.1573C3.50503 23.1018 4.07601 17.3882 4.16646 15.3508C4.25691 13.3134 4.25691 13.3941 4.53392 12.2494C5.39887 8.64867 4.62438 8.74448 4.25691 8.58311Z" fill="#E50914"/>
<path d="M17.316 13.5353C16.8411 12.3804 15.6652 9.08737 14.365 8.66376C14.365 8.66376 12.4881 7.52405 11.9397 7.52405C11.3914 7.52405 10.5208 8.16451 9.70103 8.57299C9.70103 8.57299 9.32226 10.8373 9.11874 12.915C8.90392 15.0835 8.70605 23.3741 8.70605 23.3741C8.70605 23.3741 10.0346 23.3338 10.7525 23.0161C12.0528 22.4462 12.6916 22.5673 13.9975 22.8497C14.088 22.542 13.8618 18.2051 13.8618 16.1627C13.8618 14.1253 14.0427 13.7975 13.8166 12.9402C14.1615 13.6109 14.7777 13.9791 14.7777 14.5287C14.7777 15.0784 14.4554 16.7275 15.1225 16.8536C15.2808 16.5258 16.8128 17.141 17.022 17.0149C17.2142 16.8989 17.5873 14.206 17.316 13.5353Z" fill="#E50914"/>
<path d="M3.75958 15.9308C4.03094 15.9308 5.20116 15.8702 5.54036 15.8702C5.88521 15.8702 6.56926 16.3594 7.11762 16.3594C7.66599 16.3594 7.04978 16.7275 6.77277 16.7275C6.49576 16.7275 5.81172 16.546 5.81172 16.546L6.70493 17.4638C6.70493 17.4638 5.6082 18.6893 5.12767 18.6893C4.64714 18.6893 2.58936 17.4638 2.58936 17.4638L3.75958 15.9308Z" fill="#D3A197"/>
<path d="M8.25957 5.72374C8.29349 6.60122 7.8808 7.84684 8.10127 8.2301C8.3161 8.61337 11.6063 9.10758 11.9398 8.04856C12.0473 7.70563 11.9285 8.02334 11.4932 5.50185C11.4367 5.16397 8.25957 5.72374 8.25957 5.72374Z" fill="#D3A197"/>
<path d="M11.94 8.04351C12.0418 7.69555 11.9287 7.93257 11.4934 5.41108C11.4369 5.07824 8.25977 5.86495 8.25977 5.86495C8.29934 6.05658 9.11906 5.91033 9.11341 6.10197C9.42434 6.41967 9.22082 6.56592 9.50348 6.68191C9.84833 6.82311 9.45826 8.60833 9.72396 8.65371C10.8998 8.77474 11.7987 8.51251 11.94 8.04351Z" fill="#E5C3B7"/>
<path d="M12.1662 4.11C12.234 5.89522 10.7302 7.161 9.96705 7.20135C9.40737 7.23161 7.58702 6.02633 7.51918 4.24616C7.45134 2.46095 6.72772 0.927881 9.57697 0.746333C12.364 0.564786 12.104 2.32479 12.1662 4.11Z" fill="#D3A197"/>
<path d="M7.57011 3.28796C7.2931 3.30309 6.89172 3.57541 7.27049 4.48819C7.64926 5.40097 7.96019 4.88659 7.96019 4.88659L7.57011 3.28796Z" fill="#D3A197"/>
<path d="M12.2002 4.14021C12.138 2.41551 12.3811 0.710982 9.87673 0.766455C9.59407 1.82044 9.62233 3.02571 9.72409 4.42262C9.79193 5.40095 9.81454 6.41459 10.0576 7.22651C10.8265 7.13069 12.2624 5.89012 12.2002 4.14021Z" fill="#E5C3B7"/>
<path d="M11.9908 3.16697C12.2678 3.15184 12.7031 3.37373 12.46 4.32181C12.2113 5.26989 11.8325 4.79585 11.8325 4.79585L11.9908 3.16697Z" fill="#E5C3B7"/>
<path d="M11.4822 0.776611C11.7535 0.811912 12.3584 1.05902 12.4489 1.4675C12.5789 2.04744 12.3528 3.3334 12.3528 3.3334L11.9401 3.67632C11.9401 3.67632 12.0984 2.29959 11.5952 1.77512C11.3578 1.52802 10.832 1.44733 10.832 1.44733L11.4822 0.776611Z" fill="white"/>
<path d="M11.595 0.802123C11.2332 1.26103 11.2841 1.61404 10.5096 1.56866C9.73511 1.52327 9.02845 1.55353 8.79666 1.65439C8.32179 1.85106 8.2596 2.2192 8.2596 2.2192L8.06739 1.6796C8.06739 1.6796 7.92606 1.95192 7.87518 2.27467C7.8243 2.59742 7.8243 3.79765 7.8243 3.79765L7.3042 3.34883C7.3042 3.34883 6.89717 1.58379 7.41161 1.0341C7.92606 0.484415 8.23699 0.620576 8.23699 0.620576C8.23699 0.620576 8.38963 -0.115699 9.83686 0.0204612C11.2841 0.156622 11.595 0.802123 11.595 0.802123Z" fill="white"/>
<path d="M4.83376 8.08386C4.00839 8.26541 3.11517 9.19836 2.28979 9.99515C1.46442 10.7869 0.237659 11.6896 0.034141 12.6074C-0.169377 13.5252 0.650347 16.3392 1.67924 17.131C2.70814 17.9278 2.84381 17.5596 2.91165 17.3125C2.97949 17.0705 3.66919 16.2131 3.80487 15.966C3.94055 15.724 2.59507 13.7723 2.45939 13.4092C2.32371 13.0411 5.31429 12.4208 5.52346 11.7501C5.72133 11.0794 4.83376 8.08386 4.83376 8.08386Z" fill="#E50914"/>
<path d="M2.56665 13.3841C2.56665 13.2126 3.56728 12.8899 4.46615 12.4965C4.57356 12.2998 4.74882 10.9181 4.70924 10.8828C4.28525 10.5096 2.31226 12.1435 1.9448 13.0008C1.57733 13.8581 2.87758 16.2888 3.42595 16.6166L3.45987 16.4956C3.686 16.1729 3.71992 16.1023 3.80472 15.956C3.9404 15.7039 2.56665 13.7674 2.56665 13.3841Z" fill="#E50914"/>
</g>
<defs>
<clipPath id="clip0_141_1517">
<rect width="18" height="44" fill="white"/>
</clipPath>
</defs>
</svg>
