<svg width="24" height="24" viewBox="0 0 24 24" fill="none" xmlns="http://www.w3.org/2000/svg">
<path d="M10.8907 0.0266323C6.2002 0.482151 2.18046 3.6426 0.656061 8.07098C-0.647889 11.8607 0.0134668 16.0167 2.44782 19.2758C2.88403 19.8581 4.15984 21.1354 4.74615 21.5768C6.41596 22.826 8.24993 23.5867 10.3606 23.9155C11.1158 24.0282 12.8888 24.0282 13.644 23.9155C15.0089 23.7041 16.083 23.3707 17.2791 22.7837C19.6149 21.6332 21.4536 19.8393 22.6497 17.5335C23.6112 15.6739 24.0709 13.6405 23.9911 11.5789C23.8739 8.48423 22.659 5.68069 20.4874 3.50641C18.6346 1.65616 16.3316 0.500935 13.6909 0.0970745C13.1046 0.00784874 11.4957 -0.0297203 10.8907 0.0266323ZM12.9873 5.00445C14.5258 5.24395 15.7265 6.03289 16.2847 7.17873C16.5755 7.76104 16.6646 8.21186 16.6318 8.85052C16.6037 9.39526 16.5098 9.72869 16.2659 10.1654C15.9892 10.6538 15.7406 10.9262 14.6712 11.9124C14.0802 12.4571 13.522 12.9924 13.4329 13.1005C13.2218 13.3634 13.0717 13.7062 12.9404 14.2557C12.8794 14.4999 12.795 14.7769 12.7481 14.8709C12.4338 15.5048 11.4676 15.6128 10.9657 15.0681C10.7077 14.791 10.6655 14.6502 10.6702 14.0678C10.6702 13.4433 10.7499 13.0817 10.9985 12.5839C11.2378 12.1002 11.5614 11.7339 12.5511 10.8276C13.8691 9.62537 14.0708 9.33891 14.0755 8.70025C14.0755 8.17429 13.9395 7.83617 13.5736 7.47458C13.1984 7.09889 12.7387 6.92984 12.0727 6.92984C10.9235 6.92984 10.3325 7.43231 9.82593 8.84113C9.59609 9.48919 9.3944 9.76156 9.02855 9.91183C8.77995 10.0198 8.34843 10.0104 8.09045 9.89305C7.8231 9.77565 7.5276 9.4704 7.42441 9.20742C7.31653 8.91627 7.35405 8.38092 7.51822 7.89253C7.93098 6.68564 8.94881 5.70886 10.3044 5.23456C10.9845 4.99036 12.2228 4.88705 12.9873 5.00445ZM12.3963 16.3689C12.8888 16.5568 13.2171 17.0029 13.2594 17.5476C13.3016 18.1487 13.0624 18.6042 12.5605 18.8813C12.3306 19.0081 12.265 19.0222 11.885 19.0222C11.5192 19.0222 11.4301 19.0034 11.2284 18.8954C10.7546 18.6465 10.5014 18.2379 10.4967 17.7214C10.492 17.3363 10.5295 17.1907 10.6984 16.923C11.0501 16.3642 11.7584 16.1341 12.3963 16.3689Z" fill="#E50914"/>
</svg>
