<svg width="24" height="24" viewBox="0 0 24 24" fill="none" xmlns="http://www.w3.org/2000/svg">
<g clip-path="url(#clip0_69_17)">
<path d="M5.67188 0.0750484C5.46094 0.168798 5.35313 0.267235 5.24531 0.478172C5.16563 0.63286 5.15625 0.764111 5.15625 1.61724V2.57817H3.71719C2.59688 2.57817 2.20781 2.59692 1.97344 2.64849C1.02656 2.87349 0.225001 3.71255 0.0515633 4.65942C-0.0187492 5.04848 -0.0187492 21.525 0.0515633 21.9188C0.225001 22.8844 1.11563 23.775 2.08125 23.9485C2.475 24.0188 21.525 24.0188 21.9188 23.9485C22.8844 23.775 23.775 22.8844 23.9484 21.9188C24.0188 21.525 24.0188 5.04848 23.9484 4.65942C23.775 3.71255 22.9734 2.87349 22.0266 2.64849C21.7922 2.59692 21.4031 2.57817 20.2875 2.57817H18.8438V1.60317C18.8438 0.684423 18.8344 0.623486 18.7359 0.44536C18.6797 0.342236 18.5625 0.210985 18.4734 0.154736C18.0563 -0.126514 17.5125 0.00473595 17.2641 0.44536C17.1656 0.623486 17.1563 0.684423 17.1563 1.60317V2.57817H12H6.84375V1.61724C6.84375 0.764111 6.83438 0.63286 6.75469 0.478172C6.64688 0.262548 6.53906 0.16411 6.31406 0.0703602C6.10313 -0.0187016 5.88281 -0.0187016 5.67188 0.0750484ZM5.15625 5.29692C5.17031 5.93911 5.19844 6.33755 5.23594 6.39849C5.32031 6.5438 5.54063 6.74067 5.68594 6.79224C5.98594 6.90942 6.34688 6.83442 6.57656 6.6188C6.81094 6.39849 6.82031 6.3563 6.84375 5.29692L6.86719 4.28911H12H17.1328L17.1563 5.29692C17.1703 5.93911 17.1984 6.33755 17.2359 6.39849C17.3203 6.5438 17.5406 6.74067 17.6859 6.79224C17.9859 6.90942 18.3469 6.83442 18.5766 6.6188C18.8109 6.39849 18.8203 6.3563 18.8438 5.29692L18.8672 4.28911H20.25C21.5953 4.28911 21.6375 4.2938 21.8297 4.39223C21.9516 4.46255 22.0734 4.57505 22.1484 4.70161L22.2656 4.90786V6.74067V8.57817H12H1.73438V6.74067V4.90786L1.85156 4.70161C1.97344 4.50005 2.15156 4.37349 2.41406 4.30786C2.49375 4.28911 3.13594 4.27974 3.84375 4.27974L5.13281 4.28911L5.15625 5.29692ZM22.2656 15.9704V21.6704L22.1531 21.8625C22.0922 21.9704 21.9563 22.1016 21.8531 22.1625L21.6656 22.2657H12H2.33438L2.14688 22.1625C2.04375 22.1016 1.90781 21.9704 1.84688 21.8625L1.73438 21.6704V15.9704V10.2657H12H22.2656V15.9704Z" fill="white"/>
<path d="M16.8047 12.0891C16.6781 12.15 15.6094 13.1859 13.4766 15.3234C11.7516 17.0531 10.3172 18.4688 10.2891 18.4688C10.2609 18.4688 9.6 17.8219 8.8125 17.0344C8.025 16.2469 7.32188 15.5719 7.24219 15.5297C7.06406 15.4359 6.67031 15.4359 6.48281 15.5297C6.17344 15.6938 5.95781 16.1063 6.01875 16.4297C6.0375 16.5141 6.1125 16.6734 6.1875 16.7859C6.2625 16.8984 7.0875 17.7563 8.025 18.6891C9.75938 20.4188 9.94688 20.5734 10.2797 20.5781C10.35 20.5781 10.4859 20.5453 10.5844 20.5078C10.8234 20.4047 17.7844 13.4625 17.9109 13.1953C18.0094 12.9797 18.0188 12.8859 17.9531 12.6469C17.8875 12.4125 17.6953 12.1922 17.4609 12.0891C17.2219 11.9766 17.0391 11.9813 16.8047 12.0891Z" fill="white"/>
</g>
<defs>
<clipPath id="clip0_69_17">
<rect width="24" height="24" fill="white"/>
</clipPath>
</defs>
</svg>
