<svg width="50" height="53" viewBox="0 0 50 53" fill="none" xmlns="http://www.w3.org/2000/svg">
<g clip-path="url(#clip0_143_25)">
<path d="M23.1445 0.0621033C22.959 0.0828056 22.3828 0.155266 21.875 0.217377C14.1504 1.14902 7.01172 6.28339 3.08594 13.7262C1.66016 16.4383 0.625 19.8129 0.185547 23.1875C0.00976563 24.4814 0.00976563 28.5185 0.185547 29.8125C1.21094 37.7004 5.17578 44.3978 11.377 48.7144C18.9551 53.9937 28.8867 54.4078 36.9141 49.791C38.1348 49.0871 38.418 48.849 38.6621 48.3107C39.082 47.3894 38.8086 46.3129 37.998 45.7021C37.6465 45.4434 37.4902 45.3916 36.9824 45.3916C36.6113 45.3916 36.2695 45.4537 36.084 45.5572C34.4434 46.4992 33.7793 46.8408 32.8613 47.2342C29.707 48.5799 26.3184 49.0975 22.9883 48.7455C14.6484 47.876 7.57812 41.8721 4.99023 33.4769C3.54492 28.798 3.54492 24.2019 4.99023 19.523C7.08008 12.7635 12.0508 7.49453 18.4473 5.27929C22.832 3.75761 27.1777 3.75761 31.582 5.28964C36.3477 6.94589 40.3027 10.2687 43.0176 14.9062C44.5996 17.6184 45.6836 21.0654 45.9961 24.4193C46.4355 29.181 45.3125 34.1498 42.8125 38.4043C42.2656 39.3359 42.2363 39.4187 42.2363 40.0605C42.2363 40.868 42.4902 41.3752 43.0957 41.7996C43.6426 42.1826 44.5898 42.2033 45.1465 41.8307C45.7324 41.4476 46.9238 39.398 47.8418 37.1828C52.4219 26.2101 49.4922 13.4053 40.6738 5.86933C37.1191 2.83632 33.1738 1.01445 28.5156 0.258781C27.5391 0.103508 23.9062 -0.0310593 23.1445 0.0621033Z" fill="white"/>
<path d="M19.7266 16.314C18.3203 16.7177 17.2168 17.9082 16.8457 19.4092C16.6211 20.3201 16.6211 32.6695 16.8457 33.5908C17.1582 34.8847 18.1738 36.0855 19.3359 36.5513C20.1367 36.8722 21.1914 36.9136 21.9434 36.6652C22.3242 36.541 24.5215 35.247 27.7539 33.2699C33.4082 29.8021 33.75 29.5433 34.2383 28.415C34.7754 27.1728 34.7754 25.8271 34.2383 24.5849C33.75 23.4566 33.4082 23.1978 27.7539 19.7301C24.5215 17.7529 22.3242 16.459 21.9629 16.3451C21.2598 16.1174 20.4688 16.107 19.7266 16.314ZM25.6934 23.2496C28.3496 24.8748 30.5859 26.2722 30.6641 26.3551C30.7812 26.4793 30.7812 26.5207 30.6641 26.6449C30.3613 26.9451 20.8496 32.7109 20.7324 32.6695C20.6348 32.6281 20.6055 31.417 20.6055 26.5207C20.6055 23.1668 20.6348 20.3926 20.6738 20.3615C20.7031 20.3201 20.7617 20.289 20.8008 20.289C20.8398 20.289 23.0371 21.6244 25.6934 23.2496Z" fill="white"/>
</g>
<defs>
<clipPath id="clip0_143_25">
<rect width="50" height="53" fill="white"/>
</clipPath>
</defs>
</svg>
