<svg width="26" height="26" viewBox="0 0 26 26" fill="none" xmlns="http://www.w3.org/2000/svg">
<g clip-path="url(#clip0_69_24)">
<path d="M12.0859 0.0304184C11.9895 0.040575 11.6898 0.0761223 11.4258 0.101513C9.75 0.284325 7.89649 0.914013 6.39844 1.80776C4.49414 2.94526 2.94532 4.49409 1.80782 6.39839C0.919144 7.8812 0.330081 9.60776 0.0914093 11.4257C0.0101593 12.0503 0.0101593 13.9496 0.0914093 14.5742C0.507816 17.7378 1.89922 20.414 4.25547 22.6027C5.55547 23.8164 7.17539 24.7609 8.9375 25.3398C10.3289 25.8019 11.4309 25.9695 13 25.9695C14.1578 25.9695 14.6707 25.9238 15.6914 25.7156C19.1902 24.9996 22.3133 22.755 24.1922 19.6015C25.0809 18.1187 25.6699 16.3921 25.9086 14.5742C25.9898 13.9496 25.9898 12.0503 25.9086 11.4257C25.6699 9.60776 25.0809 7.8812 24.1922 6.39839C23.0547 4.49409 21.5059 2.94526 19.6016 1.80776C18.134 0.929247 16.382 0.330029 14.625 0.101513C14.1781 0.040575 12.4008 -0.00512886 12.0859 0.0304184ZM14.041 1.57417C17.0016 1.84839 19.8605 3.33628 21.7445 5.58589C24.2176 8.53628 25.0555 12.3753 24.0398 16.0824C23.6488 17.5093 22.9582 18.8753 22.0188 20.0687C21.8461 20.2871 21.6988 20.4648 21.6836 20.4648C21.6684 20.4648 21.5871 20.2464 21.5059 19.9773C21.0742 18.5351 20.0688 16.9863 18.9059 15.9656C18.1746 15.3257 17.1742 14.7113 16.2754 14.3457L16.0723 14.2644L16.25 14.1324C16.5699 13.8937 17.3469 13.0761 17.5348 12.7816C18.2559 11.6593 18.5605 10.4457 18.4336 9.20659C18.2457 7.348 17.159 5.74839 15.5137 4.89018C12.091 3.11284 7.95742 5.35229 7.56641 9.20659C7.46485 10.207 7.65782 11.2582 8.10469 12.1468C8.46524 12.8628 9.06446 13.6042 9.65352 14.0511C9.79063 14.1527 9.90235 14.2542 9.90235 14.2695C9.90235 14.2847 9.73477 14.3609 9.53164 14.4421C8.16055 14.9957 6.78946 16.0722 5.82969 17.3417C5.27617 18.0781 4.74805 19.114 4.48907 19.9824C4.41289 20.2464 4.33164 20.4648 4.31641 20.4648C4.27578 20.4648 3.69688 19.7132 3.40742 19.2816C3.0875 18.8042 2.52383 17.7074 2.29532 17.1234C1.89922 16.1179 1.65039 14.955 1.56407 13.6957C1.3 10.0546 2.94024 6.35776 5.82461 4.05737C8.15547 2.19878 11.1109 1.30503 14.041 1.57417ZM14.0664 5.94136C15.3715 6.31206 16.3922 7.33276 16.7883 8.65815C16.966 9.26245 16.9762 10.1257 16.8188 10.7199C16.3465 12.482 14.8129 13.6601 13 13.6601C11.1871 13.6601 9.65352 12.482 9.18125 10.7199C9.02383 10.1257 9.03399 9.26245 9.21172 8.65815C9.6586 7.15503 10.8164 6.13433 12.4414 5.81948C12.7359 5.76362 13.6957 5.83471 14.0664 5.94136ZM14.041 15.341C15.6152 15.5441 17.0066 16.2449 18.2102 17.4433C19.1141 18.3472 19.6828 19.2613 20.0484 20.414C20.1805 20.8253 20.3887 21.7902 20.348 21.8105C20.343 21.8156 20.1906 21.9324 20.0078 22.0746C18.4438 23.2933 16.5598 24.0753 14.4473 24.38C13.8582 24.4664 12.1418 24.4664 11.5527 24.38C9.44024 24.0753 7.55625 23.2933 5.99219 22.0746C5.80938 21.9324 5.65703 21.8156 5.65196 21.8105C5.6418 21.8054 5.67227 21.6125 5.71289 21.3839C6.175 18.7585 8.05391 16.5597 10.593 15.6761C11.7152 15.2851 12.7816 15.1785 14.041 15.341Z" fill="white"/>
</g>
<defs>
<clipPath id="clip0_69_24">
<rect width="26" height="26" fill="white"/>
</clipPath>
</defs>
</svg>
