<svg width="24" height="24" viewBox="0 0 24 24" fill="none" xmlns="http://www.w3.org/2000/svg">
<path d="M8.06262 1.47185C7.05949 1.82341 5.51262 2.71404 4.94543 3.26716C4.51887 3.67966 4.42981 4.21873 4.66418 4.92185C4.84699 5.45623 4.86106 6.22029 4.70168 6.72654C4.35481 7.81404 3.44074 8.58748 2.29699 8.76091C1.69699 8.85466 1.31262 9.1031 1.08293 9.5531C0.871994 9.9656 0.721994 11.3344 0.768869 12.4219C0.825119 13.7625 0.951682 14.2312 1.35012 14.5828C1.58918 14.7937 1.79074 14.8687 2.36731 14.9765C3.00949 15.0937 3.40793 15.3047 3.89074 15.7922C4.50949 16.4203 4.75324 17.0109 4.74856 17.8828C4.74856 18.3047 4.72981 18.4031 4.56574 18.8672C4.16731 20.0109 4.37824 20.4281 5.85949 21.4125C6.36106 21.7453 7.35481 22.2609 7.91262 22.4765C8.48449 22.6969 8.81731 22.7015 9.22981 22.4953C9.41262 22.4015 9.58137 22.275 9.69387 22.1344C10.2376 21.464 10.6079 21.1828 11.2361 20.9719C12.3939 20.5781 13.6454 20.9531 14.447 21.9281C14.897 22.4719 15.4548 22.6687 16.0407 22.4812C16.5001 22.3312 17.5173 21.8015 18.1501 21.3797C18.9517 20.8453 19.3595 20.4703 19.4954 20.1562C19.6689 19.7531 19.6689 19.5375 19.5001 19.0312C19.3126 18.4687 19.2611 17.775 19.3782 17.2875C19.6314 16.2047 20.4564 15.3703 21.5392 15.1125C22.3126 14.925 22.3454 14.9109 22.6126 14.6672C22.7954 14.4984 22.8986 14.3625 22.9642 14.1797C23.3204 13.2234 23.3111 10.4765 22.9501 9.67498C22.8282 9.41248 22.5798 9.13591 22.3548 9.01873C22.2751 8.98123 22.0642 8.9156 21.8861 8.8781C20.6439 8.62029 19.772 7.81873 19.4767 6.65623C19.3642 6.22966 19.4017 5.4281 19.547 5.03904C19.6923 4.64529 19.697 4.18122 19.5564 3.86716C19.4204 3.57654 19.3032 3.44529 18.7829 3.04216C17.7517 2.2406 16.1439 1.42498 15.4876 1.37341C14.9954 1.33123 14.7939 1.42966 14.1798 2.01091C13.7814 2.39529 13.5657 2.55466 13.2986 2.68591C12.4642 3.09841 11.5501 3.09841 10.7017 2.68591C10.4157 2.54529 10.2282 2.40466 9.81574 2.01091C9.41731 1.63123 9.24387 1.49529 9.07043 1.43435C8.75637 1.33123 8.42356 1.3406 8.06262 1.47185ZM12.8907 8.36248C13.8657 8.62498 14.6157 9.15935 15.1407 9.97029C16.2657 11.6859 15.7642 14.0109 14.0298 15.1406C13.3923 15.5578 12.8157 15.7265 12.0001 15.7265C10.9407 15.7265 10.0876 15.375 9.35637 14.6437C8.62512 13.9125 8.27356 13.0594 8.27356 12C8.27356 11.1844 8.44231 10.6078 8.85949 9.97029C9.42199 9.1031 10.2986 8.51716 11.3204 8.3156C11.7189 8.2406 12.5251 8.25935 12.8907 8.36248Z" fill="#E50914"/>
</svg>
