<svg width="28" height="28" viewBox="0 0 28 28" fill="none" xmlns="http://www.w3.org/2000/svg">
<path d="M11.5117 0.0655823C11.2273 0.169489 11.0633 0.322613 10.9156 0.612457C10.7351 0.978863 10.7351 1.22496 10.9266 1.59136C11.0469 1.82652 11.1344 1.91402 11.3695 2.03433C11.6375 2.17652 11.7086 2.18746 12.2828 2.18746H12.9062V3.27574V4.36402L12.7586 4.39683C12.6711 4.40777 12.4851 4.44058 12.332 4.45699C11.2601 4.59371 9.96405 4.9984 8.83202 5.55074C7.56327 6.17418 6.71561 6.77027 5.7203 7.75464C3.54921 9.89293 2.32968 12.6546 2.20389 15.7226C2.07264 19.0093 3.31952 22.1921 5.66014 24.5273C8.62968 27.4914 12.8844 28.6562 16.975 27.6226C19.7695 26.9117 22.2633 25.1343 23.8875 22.6953C24.8172 21.3007 25.4789 19.5617 25.7359 17.8281C25.8672 16.975 25.8672 15.3453 25.7359 14.5031C25.4242 12.4687 24.6695 10.6421 23.4719 9.05074L23.1383 8.61324L23.7344 8.01167C24.3414 7.39371 24.4617 7.21871 24.5273 6.88511C24.6422 6.27808 24.057 5.6273 23.4062 5.63277C23.1109 5.63824 22.7719 5.86246 22.1758 6.45308L21.5742 7.05464L21.3281 6.8523C20.5734 6.24527 19.2828 5.51246 18.2875 5.12418C17.5055 4.81793 16.368 4.53902 15.3562 4.4023L15.0937 4.36949V3.27574V2.18746H15.7226C16.4172 2.18746 16.6469 2.1273 16.9148 1.87027C17.15 1.64605 17.243 1.4273 17.243 1.09371C17.243 0.760113 17.15 0.541363 16.9148 0.317144C16.5867 -4.19617e-05 16.5648 -4.19617e-05 14.0164 0.00542641C12.5125 0.00542641 11.6156 0.0273018 11.5117 0.0655823ZM14.9351 6.56792C18.6812 6.94527 21.8258 9.39527 23.1 12.9062C24.2812 16.1765 23.5867 19.8242 21.2789 22.5148C20.2617 23.6961 18.6648 24.7734 17.1719 25.282C16.182 25.6156 15.4328 25.7523 14.3555 25.7961C11.1125 25.9164 8.0828 24.4179 6.13593 21.7218C5.72577 21.1476 5.09686 19.9062 4.86718 19.2117C3.19374 14.1367 5.96093 8.65699 11.0305 7.00542C12.3539 6.57339 13.6226 6.43121 14.9351 6.56792Z" fill="white"/>
<path d="M17.8555 10.9046C17.6422 11.0085 17.0953 11.5226 15.3617 13.2671C14.1367 14.4976 13.0922 15.5913 13.043 15.6952C12.8516 16.0671 12.9664 16.6906 13.2672 16.9585C13.5953 17.2429 14.1367 17.3249 14.4922 17.1445C14.7437 17.0241 19.1187 12.6656 19.25 12.414C19.4961 11.9382 19.4305 11.4898 19.0641 11.1234C18.7031 10.7624 18.3094 10.6913 17.8555 10.9046Z" fill="white"/>
</svg>
