<svg width="30" height="30" viewBox="0 0 30 30" fill="none" xmlns="http://www.w3.org/2000/svg">
<g clip-path="url(#clip0_112_422)">
<path d="M13.2129 0.0644512C10.5234 0.386717 7.79883 1.52344 5.66016 3.21094C5.0625 3.67969 3.80859 4.92187 3.31055 5.54297C1.93945 7.23633 0.925781 9.28125 0.410156 11.3789C0.0761719 12.7383 0.0292969 13.1895 0.0292969 14.9707C0.0292969 16.6934 0.0644531 17.0625 0.333984 18.2812C0.832031 20.5664 1.875 22.7051 3.36914 24.5215C3.85547 25.1074 5.13867 26.4023 5.49023 26.6484L5.67188 26.7773L5.71289 26.3848C5.82422 25.2773 6.15234 24.1348 6.65039 23.1328C7.13086 22.166 7.61133 21.5039 8.4375 20.6836C9.25195 19.8633 9.9375 19.3652 10.8867 18.8906L11.4961 18.5918L11.2676 18.4219C10.7637 18.0527 10.2949 17.6016 9.93164 17.1504C9.46875 16.5762 8.90039 15.4629 8.73047 14.7949C8.13867 12.5156 8.76562 10.207 10.4238 8.54883C12.1934 6.77929 14.7949 6.16992 17.1035 6.98437C18.0938 7.33594 18.7793 7.76367 19.5469 8.52539C21.2285 10.1836 21.8613 12.4922 21.2695 14.7949C21.0996 15.4629 20.5312 16.5703 20.0684 17.1504C19.7051 17.6016 19.2363 18.0527 18.7324 18.4219L18.5098 18.5859L19.1133 18.8906C20.9297 19.7988 22.5 21.3809 23.373 23.168C23.8418 24.1289 24.1816 25.3301 24.2871 26.3848L24.3281 26.7773L24.5098 26.6484C24.9199 26.3672 26.543 24.6738 27.0234 24.0234C28.623 21.8555 29.5898 19.4707 29.9121 16.875C30.0293 15.9199 30.0293 14.0801 29.9121 13.125C29.5781 10.4473 28.4766 7.81054 26.7949 5.66601C26.3027 5.03906 24.7148 3.48633 24.0762 3.00586C22.4766 1.80469 20.6191 0.914061 18.7383 0.433592C17.4492 0.111326 16.8867 0.0468731 15.2344 0.0234356C14.3789 0.0175762 13.4707 0.0351543 13.2129 0.0644512Z" fill="#E50914"/>
<path d="M14.0918 8.4082C13.1953 8.57227 12.2988 9.04102 11.6426 9.68555C11.0332 10.2891 10.582 11.0566 10.3594 11.8887C10.1953 12.498 10.1836 13.6758 10.3359 14.2676C10.7871 15.9902 12.082 17.2969 13.7988 17.7598C14.4551 17.9355 15.5449 17.9355 16.2012 17.7598C17.625 17.3789 18.7559 16.4238 19.3652 15.0996C20.1855 13.3066 19.8047 11.1621 18.4219 9.75586C17.2969 8.61328 15.6855 8.10938 14.0918 8.4082Z" fill="#E50914"/>
<path d="M14.0625 19.6699C13.0371 19.8281 12.334 20.0508 11.5195 20.4668C8.95312 21.7793 7.38281 24.3691 7.38281 27.3047V27.9844L8.01562 28.3125C10.2012 29.4609 12.4336 30 15 30C17.5723 30 19.7461 29.4785 21.9902 28.3184L22.6172 27.9902V27.3105C22.6172 24.293 20.9883 21.6797 18.3105 20.3848C17.1914 19.8457 16.2012 19.623 14.9414 19.6348C14.5371 19.6406 14.1445 19.6582 14.0625 19.6699Z" fill="#E50914"/>
</g>
<defs>
<clipPath id="clip0_112_422">
<rect width="30" height="30" fill="white"/>
</clipPath>
</defs>
</svg>
