<svg width="16" height="45" viewBox="0 0 16 45" fill="none" xmlns="http://www.w3.org/2000/svg">
<g clip-path="url(#clip0_158_1566)">
<path fill-rule="evenodd" clip-rule="evenodd" d="M6.45792 41.3999C6.45792 41.3999 5.46244 41.0697 4.42715 41.3547C4.38371 41.3651 4.38733 43.1027 4.46697 43.0992C4.5466 43.0957 6.22624 42.4806 6.25882 42.4389C6.29502 42.3938 6.45792 41.3999 6.45792 41.3999Z" fill="white"/>
<path fill-rule="evenodd" clip-rule="evenodd" d="M9.51672 41.3999C9.51672 41.3999 10.5122 41.0697 11.5475 41.3547C11.5909 41.3651 11.5873 43.1027 11.5077 43.0992C11.4317 43.0957 9.7484 42.4806 9.71582 42.4389C9.67962 42.3938 9.51672 41.3999 9.51672 41.3999Z" fill="white"/>
<path d="M11.8697 16.1456C12.4271 12.6496 12.4344 8.96245 12.3041 8.93813C12.3041 8.93813 12.257 8.93118 12.2353 8.92422C12.0543 8.88947 11.533 8.77132 10.9104 8.48983C10.1357 8.13884 8.92307 8.30912 8.92307 8.30912H6.99366C6.99366 8.30912 5.81357 8.13884 5.05339 8.48983C4.44524 8.77132 3.93846 8.88947 3.76108 8.92422C3.73574 8.9277 3.71402 8.93117 3.6923 8.93813C3.6923 8.93813 3.56923 12.5523 4.11221 16.0449C4.65158 19.5061 3.8552 21.3688 4.14479 23.0751C4.24253 23.6659 7.18552 22.7832 7.40995 23.513C7.40995 23.513 7.8371 23.5304 7.94932 23.5165C8.06153 23.5304 8.49954 23.513 8.49954 23.513C8.73122 22.7832 11.7611 23.6659 11.8624 23.0751C12.1484 21.3653 11.3158 19.6034 11.8697 16.1456Z" fill="#E4AE84"/>
<path d="M6.15023 7.08594C6.15023 7.08594 6.60633 8.13196 5.96923 8.67757C5.32851 9.21969 9.41538 8.99033 9.41538 8.67757C9.41538 8.3648 8.98823 7.57594 9.25249 7.08594C9.25249 7.08594 7.66697 7.11721 6.15023 7.08594Z" fill="#E4AE84"/>
<path d="M4.23529 31.6068C4.20271 31.8605 4.29321 32.6737 4.14841 32.9969C3.83348 33.7128 4.29683 35.6902 4.46696 37.1393C4.6371 38.5885 4.69502 41.0975 4.69502 41.0975L6.21176 41.0767C6.21176 41.0767 6.3457 37.7787 6.71493 35.7388C7.1276 33.4452 6.8561 33.0178 6.89954 31.9509C6.75837 31.5651 4.40904 31.3392 4.23529 31.6068Z" fill="#E4AE84"/>
<path d="M4.40181 32.4617C4.50316 32.8892 6.79819 33.3652 6.9104 32.6007C6.97918 31.0369 9.18009 22.9085 7.06606 22.1752C7.06606 22.1752 4.5285 18.8356 4.02534 22.3003C3.65611 24.8476 3.82986 28.8614 3.88054 29.9179C3.9095 30.6477 4.14841 31.7667 4.40181 32.4617Z" fill="#E4AE84"/>
<path d="M6.39277 42.5291C6.40363 42.1955 6.50136 42.1677 6.33485 41.782C6.16471 41.3893 6.19005 40.2112 6.19005 40.2112L4.79277 40.3849C4.79277 40.3849 4.72399 41.5109 4.25702 42.5256H6.39277V42.5291Z" fill="#E4AE84"/>
<path d="M11.8407 31.6068C11.8733 31.8605 11.7828 32.6737 11.9276 32.9969C12.2425 33.7128 11.7792 35.6902 11.609 37.1393C11.4389 38.5885 11.3774 41.0975 11.3774 41.0975L9.86062 41.0767C9.86062 41.0767 9.72668 37.7787 9.35745 35.7388C8.94478 33.4452 9.21627 33.0178 9.16922 31.9509C9.31401 31.5651 11.6633 31.3392 11.8407 31.6068Z" fill="#E4AE84"/>
<path d="M11.6742 32.4617C11.5728 32.8891 9.28505 32.7119 9.17645 31.9474C9.10767 30.3835 6.89953 22.9085 9.00993 22.1752C9.00993 22.1752 11.5475 18.8356 12.0507 22.3003C12.4199 24.8476 12.1231 28.9726 12.0724 30.0291C12.0398 30.7623 11.924 31.7667 11.6742 32.4617Z" fill="#E4AE84"/>
<path d="M10.5339 4.37526C10.5339 6.04682 9.30316 7.40214 7.7828 7.40214C6.26243 7.40214 5.02805 6.04682 5.02805 4.37526C5.02805 2.70371 6.26243 1.34839 7.7828 1.34839C9.30316 1.34839 10.5339 2.70371 10.5339 4.37526Z" fill="#E4AE84"/>
<path d="M13.6543 23.4505C13.6543 23.4505 13.7557 24.0587 13.6543 24.5139C13.571 24.8997 13.5638 25.0387 13.4661 25.6746C13.3611 26.3662 13.2923 26.394 13.1909 26.6095C13.0896 26.8214 13.5167 27.169 13.781 26.5782C14.0489 25.9874 14.0344 25.7997 14.0344 25.7997C14.0344 25.7997 13.9982 26.7728 14.0199 27.2767C14.038 27.7806 14.0344 28.0968 14.2878 28.0551C14.4145 28.0343 14.4652 27.9648 14.4724 27.2906C14.476 26.6164 14.4941 25.8588 14.4941 25.8588C14.4941 25.8588 14.5376 28.3366 14.8416 28.3262C15.0371 28.3192 15.1023 28.2046 15.0588 27.4053C15.0154 26.606 14.9357 25.8449 14.9357 25.8449C14.9357 25.8449 15.2471 27.8987 15.3339 28.0482C15.3882 28.1385 15.7357 28.4582 15.6054 27.6381C15.4751 26.818 15.305 25.7407 15.305 25.7407C15.305 25.7407 15.6452 27.4643 15.8878 27.4087C16.1376 27.3497 15.9095 26.6129 15.667 25.5634C15.4244 24.5139 15.3339 24.5591 15.171 24.2985C15.0081 24.0378 14.8633 23.1934 14.8633 23.1934L13.6543 23.4505Z" fill="#E4AE84"/>
<path d="M2.34569 23.4505C2.34569 23.4505 2.24795 24.0587 2.34569 24.5139C2.42895 24.8997 2.43619 25.0387 2.53393 25.6746C2.6389 26.3662 2.70768 26.394 2.80904 26.6095C2.9104 26.8214 2.48687 27.169 2.219 26.5782C1.95112 25.9874 1.9656 25.7997 1.9656 25.7997C1.9656 25.7997 2.0018 26.7728 1.98008 27.2767C1.96198 27.7806 1.9656 28.0968 1.71221 28.0551C1.58189 28.0343 1.53483 27.9648 1.52759 27.2906C1.52035 26.6164 1.50587 25.8588 1.50587 25.8588C1.50587 25.8588 1.46243 28.3366 1.15836 28.3262C0.962887 28.3192 0.897728 28.2046 0.941167 27.4053C0.984606 26.606 1.06424 25.8449 1.06424 25.8449C1.06424 25.8449 0.752932 27.8987 0.662434 28.0482C0.608136 28.1385 0.260624 28.4582 0.390941 27.6381C0.521258 26.818 0.691393 25.7407 0.691393 25.7407C0.691393 25.7407 0.351122 27.4643 0.108588 27.4087C-0.141186 27.3497 0.0868686 26.6129 0.329403 25.5634C0.571936 24.5139 0.662434 24.5591 0.82533 24.2985C0.988226 24.0378 1.13302 23.1934 1.13302 23.1934L2.34569 23.4505Z" fill="#E4AE84"/>
<path d="M10.0959 5.49419C10.0959 5.49419 9.66515 6.43248 8.94117 6.8356C8.84706 6.88773 8.74208 6.75568 8.66244 6.8356C8.04705 7.46461 7.86606 6.86341 7.86606 6.86341L7.73574 6.86688L7.54751 6.85646C7.54751 6.85646 7.39909 7.37426 6.81267 6.87731C6.76199 6.83213 6.70769 6.92248 6.64615 6.89468C5.80995 6.52979 5.37194 5.53937 5.37194 5.53937C5.23801 4.7922 4.61176 3.99987 4.90859 5.20227C5.16199 6.16837 5.79547 7.56887 7.6923 7.56887C9.96561 7.56887 10.3529 5.59844 10.4615 5.34476C10.6461 4.92426 10.2299 4.74703 10.0959 5.49419Z" fill="white"/>
<path d="M8.39458 5.90415C7.98553 5.925 7.79005 5.92847 7.73576 6.11961C7.68146 5.95627 7.4715 5.9389 7.03349 5.9389C6.38191 5.9389 6.58824 6.94322 6.58824 6.94322L6.95385 7.37762C6.95385 7.37762 7.34842 7.18648 7.10227 7.09613C6.85612 7.00578 6.80182 7.02663 6.80182 6.64783C6.80182 6.26904 6.92852 6.19606 7.31223 6.32812C7.6163 6.43237 7.81539 6.43237 8.11947 6.32812C8.50318 6.19606 8.67331 6.26904 8.67331 6.64783C8.67331 7.02315 8.61901 7.00578 8.37286 7.09613C8.1267 7.18648 8.4706 7.28031 8.4706 7.28031L8.88689 6.93975C8.88327 6.94322 9.02444 5.86939 8.39458 5.90415Z" fill="white"/>
<path d="M5.75202 6.81492C5.75202 6.81492 5.62532 6.62379 5.46967 6.3562C5.5855 6.71414 5.75202 6.81492 5.75202 6.81492Z" fill="white"/>
<path d="M11.1674 2.62003C11.1493 2.40109 11.0914 2.19953 11.0298 2.01535C10.9466 1.77904 10.5701 1.42109 10.3783 1.16393C10.3565 1.13266 10.3348 1.0979 10.3131 1.06663C10.3131 1.06663 10.3131 1.06663 10.3131 1.06315C10.2878 1.02145 10.2552 0.983223 10.2154 0.948472C10.0633 0.792089 9.85699 0.663507 9.54206 0.573153C9.51672 0.566203 9.48776 0.559252 9.46242 0.548827C9.42622 0.531451 9.38641 0.5106 9.35021 0.489749C9.19817 0.406345 9.03166 0.364643 8.84342 0.333366C8.25337 0.10748 7.82984 -0.0975551 7.31582 0.0345014C7.30858 0.0345014 7.29048 0.0379766 7.2579 0.0449269C7.21446 0.0379766 7.17464 0.0345014 7.14568 0.0345014C6.88867 0.0345014 6.71491 0.159608 6.29138 0.274288C5.87147 0.388969 5.71582 0.524501 5.32487 0.840741C5.14025 0.990174 5.04613 1.09443 4.97736 1.20911C4.87238 1.33769 4.77826 1.48365 4.70948 1.64003C4.13754 2.92932 4.72034 4.5001 4.86152 5.0735C4.9122 5.28201 5.4407 6.28286 5.4769 6.34541C5.40813 6.1369 5.36107 5.84151 5.37193 5.42797C5.37193 5.37932 5.36831 5.30286 5.36469 5.20903C5.01356 2.50187 6.03799 2.40804 6.97917 2.69996C6.97917 2.69996 6.99003 2.70343 7.01175 2.70691C7.07328 2.73471 7.14206 2.75904 7.22894 2.79031C7.54749 2.90152 7.65609 2.81464 7.86966 2.68258C7.95292 2.65826 8.03618 2.62698 8.12306 2.5818C8.25699 2.51577 8.39455 2.4567 8.53573 2.41152C10.3565 2.16826 10.1611 4.33329 10.1068 4.65995C10.0525 4.9901 10.0199 5.91797 10.1212 5.49052C10.1285 5.46619 10.219 5.56002 10.2443 5.35846C10.2516 5.37584 10.2371 5.34456 10.2443 5.35846C10.4072 5.70251 10.0054 6.24463 10.0054 6.24463C10.0054 6.24463 10.0814 6.12648 10.2009 5.87279L10.085 6.24463C10.085 6.24463 10.4 5.76506 10.6172 5.29591C10.7873 4.92407 11.0624 3.73556 11.1312 3.24208C11.2036 2.95365 11.2217 2.78336 11.1674 2.62003Z" fill="white"/>
<path d="M9.67964 42.5291C9.66878 42.1955 9.57104 42.1677 9.73756 41.782C9.90769 41.3893 9.88235 40.2112 9.88235 40.2112L11.2796 40.3849C11.2796 40.3849 11.3484 41.5109 11.8154 42.5256H9.67964V42.5291Z" fill="#E4AE84"/>
<path d="M4.06152 21.3862C4.06152 21.3862 3.47872 23.5895 3.30496 27.016L3.44614 31.2349L7.87691 31.3183L8.02532 24.8579L8.09048 23.52V21.765L4.06152 21.3862Z" fill="#E50914"/>
<path d="M11.9023 21.4453C11.9023 21.4453 12.4633 23.2872 12.6045 26.9569V31.2349L8.19185 31.3183L7.94208 24.8579L7.87692 23.52V21.5009L11.9023 21.4453Z" fill="#E50914"/>
<path d="M3.92398 21.157C3.92398 21.157 7.35204 21.4767 12.0543 21.157L12.1557 22.0675C12.1557 22.0675 5.75928 22.4984 3.82986 22.0327L3.92398 21.157Z" fill="white"/>
<g opacity="0.26">
<path d="M7.40633 14.1997C7.26878 14.2831 7.12036 14.3491 6.96833 14.4012C6.81629 14.4534 6.65701 14.4881 6.49774 14.5124C6.17919 14.5576 5.84977 14.5576 5.53846 14.4916C5.22715 14.429 4.9267 14.3039 4.70588 14.0954C4.59728 13.9946 4.50679 13.8695 4.45249 13.734C4.39457 13.5985 4.36923 13.449 4.36923 13.2996C4.36561 13.1293 4.34751 12.9625 4.32217 12.7957C4.26063 12.6497 4.18461 12.5073 4.10136 12.3717C4.08326 12.3439 4.06516 12.3161 4.04706 12.2883C4.0543 12.3161 4.06154 12.3405 4.06516 12.3683C4.13394 12.6775 4.18099 12.9903 4.17737 13.2996C4.17375 13.4699 4.20271 13.6436 4.26787 13.8035C4.33303 13.9634 4.43801 14.1128 4.5647 14.2344C4.6914 14.3561 4.84344 14.4499 5.00271 14.5194C5.16199 14.5889 5.32851 14.641 5.49864 14.6723C5.66878 14.7036 5.84253 14.7175 6.01267 14.714C6.1828 14.714 6.35656 14.6966 6.52308 14.6619C6.85973 14.5958 7.18552 14.4742 7.46063 14.2796C7.59819 14.1823 7.72127 14.0641 7.819 13.9321C7.91674 13.8 7.98552 13.6471 8.0181 13.4907C7.91312 13.7931 7.68145 14.0363 7.40633 14.1997Z" fill="white"/>
<path d="M7.63799 15.0962C7.57645 15.1031 7.51492 15.1136 7.45338 15.1309C7.33392 15.1622 7.21446 15.2074 7.10587 15.263C6.88505 15.3707 6.67872 15.5063 6.49048 15.6557C6.30225 15.8016 6.11763 15.9441 5.92578 16.0797C5.83166 16.1492 5.73392 16.2187 5.63618 16.2812C5.53845 16.3472 5.43709 16.4098 5.32849 16.4619C5.45157 16.4515 5.57102 16.4098 5.68324 16.3646C5.79546 16.316 5.90768 16.2638 6.01265 16.2048C6.22623 16.0866 6.42532 15.9511 6.61718 15.8051C6.80179 15.6592 6.99003 15.5202 7.1855 15.395C7.28324 15.3325 7.3846 15.2699 7.48958 15.2213C7.54026 15.1935 7.59455 15.1726 7.65247 15.1518C7.70677 15.1309 7.76469 15.1136 7.82623 15.1101C7.76469 15.0858 7.70315 15.0892 7.63799 15.0962Z" fill="white"/>
<path d="M5.84977 15.3918C5.99095 15.3466 6.11765 15.2701 6.21176 15.1659C6.07059 15.2006 5.94389 15.2284 5.81357 15.2423C5.68688 15.2562 5.56018 15.2493 5.43348 15.2319C5.31041 15.2145 5.18371 15.1833 5.06063 15.1416C4.93394 15.0999 4.81086 15.0512 4.68054 14.9956C4.75656 15.1138 4.86878 15.2076 4.99185 15.2806C5.11493 15.3535 5.25611 15.4057 5.40452 15.4265C5.55656 15.4474 5.7086 15.437 5.84977 15.3918Z" fill="white"/>
<path d="M7.79367 17.2683C7.65974 17.31 7.53666 17.3483 7.41358 17.3622C7.29051 17.3795 7.17105 17.3726 7.05159 17.3517C6.93214 17.3309 6.81268 17.2927 6.69684 17.244C6.57738 17.1954 6.46155 17.1363 6.33847 17.0737C6.40363 17.1954 6.50137 17.2961 6.6172 17.3761C6.73304 17.456 6.86698 17.5151 7.01539 17.5429C7.16019 17.5707 7.31585 17.5568 7.4534 17.5081C7.59096 17.4595 7.71042 17.3761 7.79367 17.2683Z" fill="white"/>
<path d="M7.71765 18.0119C7.59457 18.0466 7.48235 18.0779 7.37375 18.0883C7.26516 18.1022 7.16018 18.0953 7.05158 18.0779C6.9466 18.0605 6.84163 18.0258 6.73665 17.9841C6.63167 17.9424 6.5267 17.8937 6.41086 17.8381C6.46516 17.9493 6.55565 18.0397 6.65701 18.1161C6.76199 18.1891 6.88145 18.2447 7.01538 18.2691C7.1457 18.2934 7.28688 18.283 7.41357 18.2343C7.53665 18.1891 7.64525 18.1127 7.71765 18.0119Z" fill="white"/>
<path d="M7.06243 18.8842C6.99003 18.8703 6.91763 18.853 6.84161 18.8252C6.76559 18.8008 6.68596 18.7696 6.59546 18.7383C6.62804 18.8252 6.68958 18.8981 6.76198 18.9572C6.83437 19.0128 6.92487 19.058 7.02623 19.0754C7.12397 19.0927 7.23256 19.0823 7.32306 19.0441C7.41356 19.0059 7.48958 18.9433 7.53664 18.8634C7.44252 18.8808 7.35926 18.8947 7.28324 18.8981C7.2036 18.9016 7.13483 18.8981 7.06243 18.8842Z" fill="white"/>
<path d="M9.51312 17.2474C9.39367 17.2961 9.27783 17.3343 9.15837 17.3552C9.03891 17.376 8.91946 17.3795 8.79638 17.3656C8.6733 17.3517 8.55023 17.3135 8.41629 17.2718C8.49955 17.3795 8.61901 17.4629 8.75656 17.5115C8.89412 17.5602 9.04977 17.5706 9.19457 17.5463C9.33937 17.522 9.47692 17.4594 9.59276 17.3795C9.70498 17.2996 9.80634 17.1988 9.87149 17.0771C9.7448 17.1397 9.62896 17.1988 9.51312 17.2474Z" fill="white"/>
<path d="M9.79548 17.8416C9.68326 17.8972 9.57466 17.9458 9.46969 17.9875C9.36471 18.0292 9.25973 18.0605 9.15475 18.0813C9.04978 18.0987 8.9448 18.1057 8.8362 18.0918C8.72398 18.0813 8.61539 18.0501 8.49231 18.0153C8.56471 18.1161 8.67331 18.1925 8.79638 18.2377C8.91946 18.2829 9.06064 18.2933 9.19457 18.2725C9.32489 18.2481 9.44797 18.1925 9.55294 18.1196C9.65068 18.0431 9.73756 17.9528 9.79548 17.8416Z" fill="white"/>
<path d="M9.14389 18.8842C9.07149 18.8947 8.99909 18.9016 8.92307 18.8981C8.84705 18.8947 8.7638 18.8808 8.66968 18.8634C8.71674 18.9433 8.79275 19.0059 8.88325 19.0441C8.97375 19.0823 9.08235 19.0927 9.18008 19.0754C9.27782 19.058 9.36832 19.0163 9.44434 18.9572C9.51674 18.8981 9.57827 18.8286 9.61085 18.7383C9.52036 18.7696 9.44072 18.8008 9.3647 18.8252C9.28868 18.853 9.21628 18.8703 9.14389 18.8842Z" fill="white"/>
<path d="M11.9747 12.9108C11.971 12.8378 11.971 12.7648 11.9747 12.6883C11.9783 12.5563 11.9928 12.4242 12.0145 12.2957C11.9421 12.3721 11.8733 12.452 11.8118 12.532C11.8045 12.5806 11.8009 12.6293 11.7973 12.6779C11.7901 12.7579 11.7901 12.8343 11.7901 12.9142C11.7901 12.9907 11.8009 13.0741 11.8009 13.1436C11.8045 13.2826 11.7828 13.4251 11.7285 13.5537C11.6742 13.6822 11.591 13.8004 11.4896 13.9012C11.2869 14.1062 11.0082 14.2418 10.7186 14.3252C10.4253 14.412 10.1177 14.4398 9.80996 14.4225C9.50589 14.4051 9.1982 14.3356 8.93032 14.1931C8.79639 14.1236 8.67331 14.0298 8.56833 13.9186C8.46697 13.8074 8.38372 13.6753 8.33304 13.5328C8.36562 13.6822 8.43078 13.8247 8.52489 13.9533C8.61901 14.0784 8.74209 14.1861 8.87602 14.273C9.15114 14.4468 9.47331 14.5406 9.79548 14.5719C10.1213 14.6066 10.4507 14.5788 10.7692 14.4989C11.0842 14.4155 11.3919 14.2696 11.6344 14.0332C11.7539 13.9151 11.848 13.7761 11.9095 13.6197C11.971 13.4633 11.9964 13.2965 11.9891 13.1332C11.9891 13.0532 11.9783 12.9837 11.9747 12.9108Z" fill="white"/>
<path d="M10.4833 16.3612C10.5991 16.4029 10.7149 16.448 10.838 16.4585C10.7294 16.4063 10.6281 16.3438 10.5303 16.2778C10.4326 16.2152 10.3349 16.1457 10.2407 16.0762C10.0489 15.9372 9.86426 15.7947 9.67603 15.6522C9.48779 15.5028 9.28146 15.3673 9.06065 15.2595C8.94843 15.2074 8.83259 15.1622 8.71313 15.1275C8.6516 15.1136 8.59006 15.0997 8.52852 15.0927C8.46698 15.0858 8.40182 15.0858 8.3439 15.1031C8.40544 15.1066 8.46336 15.1275 8.51766 15.1448C8.57196 15.1657 8.62626 15.19 8.68055 15.2144C8.78553 15.2665 8.88689 15.3256 8.98463 15.3881C9.1801 15.5132 9.36834 15.6522 9.55295 15.7982C9.74481 15.9441 9.9439 16.0797 10.1575 16.1978C10.2588 16.2639 10.3674 16.316 10.4833 16.3612Z" fill="white"/>
<path d="M10.3457 15.2423C10.219 15.2319 10.0887 15.2006 9.94751 15.1659C10.0416 15.2701 10.1719 15.3466 10.3095 15.3918C10.4507 15.437 10.6027 15.4474 10.7511 15.4265C10.8995 15.4057 11.0407 15.3535 11.1638 15.2806C11.2869 15.2076 11.3991 15.1138 11.4751 14.9956C11.3448 15.0512 11.2181 15.1033 11.095 15.1416C10.9719 15.1833 10.8452 15.2145 10.7222 15.2319C10.6027 15.2528 10.476 15.2562 10.3457 15.2423Z" fill="white"/>
<path d="M8.18825 17.9773C8.18825 17.7375 8.18101 17.4977 8.16653 17.2579C8.15205 17.0181 8.13033 16.7784 8.08689 16.5386C8.04345 16.7784 8.02535 17.0181 8.00725 17.2579C7.99277 17.4977 7.98553 17.7375 7.98553 17.9773C7.98553 18.2171 7.99277 18.4569 8.00725 18.6967C8.02173 18.9364 8.04345 19.1762 8.08689 19.4125C8.13033 19.1728 8.15205 18.933 8.16653 18.6967C8.18463 18.4569 8.19187 18.2171 8.18825 17.9773Z" fill="white"/>
</g>
<path d="M3.10588 18.3282C3.15294 18.4186 3.17104 18.5506 3.18914 18.6514C3.30136 19.263 2.97919 21.2473 2.63529 22.3768C2.28778 23.5062 2.28416 24.3993 2.28416 24.3993L0.879639 24.1804C0.879639 24.1804 1.07873 23.3394 0.991856 21.7026C0.901358 20.0693 1.18733 18.8495 1.57828 18.0154C1.74118 17.7235 3.02262 18.0919 3.10588 18.3282Z" fill="#E4AE84"/>
<path d="M2.45792 18.6513C2.43258 18.5262 3.18914 18.6513 3.18914 18.6513C3.18914 18.6513 4.12669 15.5132 3.85882 14.6791C3.85882 14.6791 4.42353 12.8442 4.31131 12.0067C5.15475 9.71659 5.65068 8.45163 3.47149 8.9173C2.31674 9.12234 1.48416 9.8556 1.66154 11.3291C1.87149 13.091 1.56742 13.647 1.41538 14.3872C1.21267 15.3846 1.37918 17.8867 1.4552 18.3072C2.09955 18.3732 1.87873 18.9154 2.45792 18.6513Z" fill="#E4AE84"/>
<g opacity="0.26">
<path d="M1.75565 12.3787C1.86062 12.681 1.9475 12.9868 2.038 13.2892C2.08144 13.4421 2.1285 13.5915 2.17556 13.7409C2.22261 13.8904 2.27329 14.0398 2.33121 14.1892C2.23347 14.0606 2.16108 13.9147 2.09954 13.7653C2.03438 13.6193 1.9837 13.4664 1.94026 13.3135C1.89682 13.1606 1.857 13.0042 1.82804 12.8478C1.79184 12.6949 1.76651 12.5385 1.75565 12.3787Z" fill="white"/>
<path d="M1.54208 17.2056C1.63982 17.2681 1.71584 17.3376 1.79548 17.4106L1.90769 17.5183C1.94389 17.5531 1.98371 17.5878 2.02715 17.6261C1.96561 17.6295 1.90769 17.6122 1.85702 17.5844C1.80634 17.5566 1.75928 17.5253 1.71946 17.4871C1.67964 17.4488 1.64344 17.4071 1.61086 17.3619C1.5819 17.3098 1.55294 17.2612 1.54208 17.2056Z" fill="white"/>
</g>
<path d="M12.9158 18.3282C12.8688 18.4186 12.8507 18.5506 12.8326 18.6514C12.7204 19.263 13.0425 21.2473 13.3864 22.3768C13.7303 23.5062 13.7375 24.3993 13.7375 24.3993L15.1783 24.2985C15.1783 24.2985 14.9394 23.3359 15.0299 21.7026C15.1204 20.0693 14.8344 18.8495 14.4434 18.0154C14.2805 17.7235 12.9991 18.0919 12.9158 18.3282Z" fill="#E4AE84"/>
<path d="M13.5638 18.6513C13.5891 18.5262 12.8326 18.6513 12.8326 18.6513C12.8326 18.6513 11.895 15.5132 12.1629 14.6791C12.1629 14.6791 11.5982 12.8442 11.7104 12.0067C10.867 9.71659 10.371 8.45163 12.5502 8.9173C13.705 9.12234 14.5339 9.8556 14.3602 11.3291C14.1502 13.091 14.4543 13.647 14.6063 14.3872C14.809 15.3846 14.6425 17.8867 14.5629 18.3072C13.9222 18.3732 14.143 18.9154 13.5638 18.6513Z" fill="#E4AE84"/>
<g opacity="0.26">
<path d="M14.2661 12.3787C14.1611 12.681 14.0778 12.9868 13.9873 13.2892C13.9439 13.4421 13.8968 13.5915 13.8498 13.7409C13.8027 13.8904 13.752 14.0398 13.6941 14.1892C13.7919 14.0606 13.8643 13.9147 13.9258 13.7653C13.991 13.6193 14.0416 13.4664 14.0851 13.3135C14.1285 13.1606 14.1683 13.0042 14.1973 12.8478C14.2299 12.6949 14.2552 12.5385 14.2661 12.3787Z" fill="white"/>
<path d="M14.4796 17.2056C14.3819 17.2681 14.3059 17.3376 14.2262 17.4106L14.114 17.5183C14.0778 17.5531 14.038 17.5878 13.9946 17.6261C14.0561 17.6295 14.114 17.6122 14.1647 17.5844C14.2154 17.5566 14.2624 17.5253 14.3023 17.4871C14.3421 17.4488 14.3783 17.4071 14.4109 17.3619C14.4398 17.3098 14.4652 17.2612 14.4796 17.2056Z" fill="white"/>
</g>
<path d="M4.15925 8.8235C4.15925 8.8235 4.89047 12.1423 3.9312 14.7104C3.9312 14.7104 4.17373 17.0423 4.04342 18.3524C3.9131 19.6626 3.92396 21.1534 3.92396 21.1534C3.92396 21.1534 7.19636 21.6017 12.0543 21.1534C12.0543 21.1534 11.8117 19.7216 11.8552 20.024C11.895 20.3194 12.0615 16.4863 12.0217 15.6244C12.0036 15.2317 12.0688 14.7104 12.0688 14.7104C12.0688 14.7104 10.7909 11.4368 11.7973 8.8235L11.2 8.61499C11.2 8.61499 10.0923 12.6149 8.09047 12.6149C6.08866 12.6149 5.03165 10.4186 4.68414 8.61499L4.15925 8.8235Z" fill="#E50914"/>
<path fill-rule="evenodd" clip-rule="evenodd" d="M4.59003 41.5109L4.65518 41.1008H6.26242L6.30586 41.57C6.30224 41.57 4.7131 42.0496 4.59003 41.5109Z" fill="white"/>
<path fill-rule="evenodd" clip-rule="evenodd" d="M11.4932 41.5109L11.4281 41.1008H9.82081L9.77737 41.57C9.77737 41.57 11.3701 42.0496 11.4932 41.5109Z" fill="white"/>
<path d="M3.88778 43.2869C3.88778 43.2869 3.79367 43.8846 3.8733 44.1835C3.95294 44.4823 4.15928 45.0453 5.44434 44.9932L5.46244 44.7291C5.46606 44.7325 3.88054 43.332 3.88778 43.2869Z" fill="#D3D5D6"/>
<path d="M6.90316 43.2869C6.90316 43.2869 6.99728 43.8846 6.91764 44.1835C6.838 44.4823 6.62804 45.0453 5.3466 44.9932L5.3285 44.7291C5.32488 44.7325 6.90678 43.332 6.90316 43.2869Z" fill="#D3D5D6"/>
<path fill-rule="evenodd" clip-rule="evenodd" d="M4.44888 41.5841C4.44888 41.5841 5.343 41.32 6.28418 41.5771C6.28418 41.5771 6.14662 42.1192 6.00182 42.2305C5.85703 42.3451 4.95205 42.439 4.92309 42.432C4.89775 42.4216 4.44888 41.5841 4.44888 41.5841Z" fill="white"/>
<path fill-rule="evenodd" clip-rule="evenodd" d="M6.53032 41.8724C6.5448 40.8368 6.08869 41.65 6.05611 41.7403C5.99457 41.8967 4.80362 41.8967 4.74208 41.7403C4.70588 41.65 4.31855 40.7464 4.23891 41.9106C4.23891 41.9106 3.82986 43.4779 3.91674 43.9644C4.11222 44.6908 4.23891 44.7707 5.39729 44.7707C6.55566 44.7707 6.77647 44.6421 6.87783 43.9644C6.96471 43.4779 6.53032 41.8724 6.53032 41.8724Z" fill="#E50914"/>
<path fill-rule="evenodd" clip-rule="evenodd" d="M5.85702 44.7534C5.85702 44.8612 5.69412 44.8647 5.4914 44.8647C5.28869 44.8647 5.12579 44.8612 5.12579 44.7534C5.12579 44.6457 5.28869 44.5588 5.4914 44.5588C5.69412 44.5588 5.85702 44.6457 5.85702 44.7534Z" fill="#D3D5D6"/>
<path fill-rule="evenodd" clip-rule="evenodd" d="M6.87785 43.9645C6.90319 43.8186 6.88147 43.5718 6.84165 43.3008C6.77288 43.266 6.7041 43.2382 6.64256 43.2139C6.27333 43.0714 5.61088 42.6544 5.86066 43.3459C5.86066 43.3459 6.76926 43.8081 6.47604 44.6561C6.73306 44.5414 6.82355 44.3329 6.87785 43.9645Z" fill="white"/>
<path fill-rule="evenodd" clip-rule="evenodd" d="M3.96021 43.2245C4.2317 42.6754 4.81812 42.5607 4.81812 42.5607L4.80364 42.3279C4.48147 42.3661 4.22446 42.5851 4.0507 42.7936C4.286 42.2619 4.7964 42.1854 4.7964 42.1854L4.78192 41.9109C4.49595 42.0047 4.28238 42.1785 4.13758 42.3244C4.07966 42.5781 4.00726 42.9152 3.96021 43.2245Z" fill="white"/>
<path fill-rule="evenodd" clip-rule="evenodd" d="M5.99819 42.1852C5.99819 42.1852 6.5086 42.2617 6.74389 42.7934C6.56652 42.5849 6.31312 42.366 5.99095 42.3277L5.97647 42.5606C5.97647 42.5606 6.55204 42.6752 6.82715 43.2069C6.77647 42.8977 6.70045 42.5606 6.63891 42.3034C6.49774 42.1609 6.28778 42.0011 6.01267 41.9072L5.99819 42.1852Z" fill="white"/>
<path fill-rule="evenodd" clip-rule="evenodd" d="M4.93757 43.3426C5.31766 42.5641 4.52128 43.068 4.15567 43.2105C4.09051 43.2348 4.01811 43.2661 3.94933 43.3009C3.90951 43.5719 3.89141 43.8152 3.91675 43.9646C4.01811 44.3399 4.10137 44.545 4.32218 44.6527C3.90227 43.7631 4.93757 43.3426 4.93757 43.3426Z" fill="white"/>
<path d="M4.84343 41.6467C4.84343 41.6467 4.99909 43.5198 5.22714 43.7283C5.4552 43.9403 5.64705 43.704 5.79185 43.0124C5.93664 42.3243 6.06334 41.6154 6.06334 41.6154C6.06334 41.6154 6.14298 41.3687 5.73755 41.2783C5.30316 41.181 4.69864 41.327 4.84343 41.6467Z" fill="white"/>
<path fill-rule="evenodd" clip-rule="evenodd" d="M5.14026 41.8273C5.14026 41.8273 5.08958 41.7127 4.78189 41.7439C4.78189 41.7439 4.79637 42.9046 4.93755 43.339C5.08234 43.7734 5.15474 43.9854 5.52759 43.9437C5.89682 43.9055 5.98732 43.3112 6.08868 42.8282C6.19004 42.3451 6.19728 41.7613 6.19728 41.7613C6.19728 41.7613 5.9475 41.6883 5.79909 41.8239C5.79909 41.8239 5.73393 43.7839 5.46605 43.829C5.19818 43.8742 5.07872 42.2722 5.14026 41.8273Z" fill="white"/>
<path fill-rule="evenodd" clip-rule="evenodd" d="M5.78462 42.0915C5.83892 42.1089 5.9077 42.0985 5.94028 42.0707C5.97286 42.0429 5.95476 42.0046 5.90046 41.9873C5.84616 41.9699 5.77738 41.9803 5.7448 42.0081C5.71222 42.0359 5.73032 42.0741 5.78462 42.0915Z" fill="white"/>
<path fill-rule="evenodd" clip-rule="evenodd" d="M5.79548 42.078C5.83891 42.0919 5.89321 42.085 5.91855 42.0607C5.94389 42.0363 5.92941 42.0085 5.88597 41.9946C5.84253 41.9807 5.78824 41.9877 5.7629 42.012C5.73756 42.0363 5.75204 42.0676 5.79548 42.078Z" fill="white"/>
<path fill-rule="evenodd" clip-rule="evenodd" d="M5.73031 42.5189C5.78099 42.5398 5.84977 42.5328 5.88959 42.505C5.92578 42.4772 5.91493 42.439 5.86425 42.4181C5.81357 42.3973 5.74479 42.4042 5.70497 42.432C5.66877 42.4598 5.67963 42.4981 5.73031 42.5189Z" fill="white"/>
<path fill-rule="evenodd" clip-rule="evenodd" d="M5.74479 42.5085C5.78461 42.5259 5.84253 42.5189 5.87149 42.4981C5.90045 42.4772 5.89321 42.4459 5.85339 42.4285C5.81357 42.4112 5.75565 42.4181 5.72669 42.439C5.69773 42.4598 5.70497 42.4911 5.74479 42.5085Z" fill="white"/>
<path fill-rule="evenodd" clip-rule="evenodd" d="M5.63983 42.929C5.68688 42.9533 5.75566 42.9498 5.7991 42.9255C5.84254 42.9012 5.83892 42.8629 5.79548 42.8386C5.74842 42.8143 5.67964 42.8178 5.63621 42.8421C5.59277 42.8664 5.59277 42.9046 5.63983 42.929Z" fill="white"/>
<path fill-rule="evenodd" clip-rule="evenodd" d="M5.6543 42.9189C5.6905 42.9362 5.74842 42.9362 5.781 42.9154C5.81357 42.8945 5.81357 42.8633 5.77738 42.8459C5.74118 42.8285 5.68326 42.8285 5.65068 42.8494C5.6181 42.8702 5.6181 42.9015 5.6543 42.9189Z" fill="white"/>
<path fill-rule="evenodd" clip-rule="evenodd" d="M5.60001 43.3426C5.63621 43.3704 5.70861 43.3739 5.75928 43.3565C5.80996 43.3357 5.82082 43.2974 5.781 43.2696C5.7448 43.2418 5.67241 43.2384 5.62173 43.2557C5.57467 43.2766 5.56381 43.3148 5.60001 43.3426Z" fill="white"/>
<path fill-rule="evenodd" clip-rule="evenodd" d="M5.61811 43.3357C5.64707 43.3565 5.70499 43.3635 5.74481 43.3461C5.78462 43.3288 5.79186 43.3009 5.76291 43.2766C5.73395 43.2558 5.67603 43.2488 5.63621 43.2662C5.59639 43.2836 5.58915 43.3148 5.61811 43.3357Z" fill="white"/>
<path fill-rule="evenodd" clip-rule="evenodd" d="M5.77739 42.2861C5.83169 42.3035 5.90046 42.293 5.93304 42.2652C5.96562 42.234 5.94752 42.1992 5.89323 42.1818C5.83893 42.1645 5.77015 42.1749 5.73757 42.2027C5.70499 42.2305 5.72309 42.2687 5.77739 42.2861Z" fill="white"/>
<path fill-rule="evenodd" clip-rule="evenodd" d="M5.78824 42.2755C5.83168 42.2894 5.88598 42.2825 5.91132 42.2582C5.93666 42.2338 5.92218 42.206 5.87874 42.1921C5.8353 42.1782 5.781 42.1852 5.75566 42.2095C5.73032 42.2304 5.7448 42.2616 5.78824 42.2755Z" fill="white"/>
<path fill-rule="evenodd" clip-rule="evenodd" d="M5.70497 42.7172C5.75565 42.738 5.82805 42.7311 5.86425 42.7033C5.90045 42.6754 5.88959 42.6372 5.83891 42.6164C5.78823 42.5955 5.71945 42.6025 5.67963 42.6303C5.64705 42.6581 5.65429 42.6963 5.70497 42.7172Z" fill="white"/>
<path fill-rule="evenodd" clip-rule="evenodd" d="M5.71946 42.7067C5.75928 42.7241 5.8172 42.7171 5.84616 42.6963C5.87512 42.6754 5.86788 42.6442 5.82806 42.6268C5.78824 42.6094 5.73394 42.6164 5.70136 42.6372C5.6724 42.6615 5.67964 42.6893 5.71946 42.7067Z" fill="white"/>
<path fill-rule="evenodd" clip-rule="evenodd" d="M5.62533 43.1306C5.66877 43.155 5.74117 43.1515 5.78461 43.1272C5.82804 43.1028 5.82442 43.0646 5.78099 43.0403C5.73393 43.016 5.66515 43.0194 5.62171 43.0438C5.57827 43.0681 5.57827 43.1063 5.62533 43.1306Z" fill="white"/>
<path fill-rule="evenodd" clip-rule="evenodd" d="M5.6398 43.1205C5.676 43.1379 5.73392 43.1379 5.7665 43.117C5.79908 43.0962 5.79908 43.0649 5.76288 43.0475C5.72668 43.0302 5.66876 43.0302 5.63618 43.051C5.6036 43.0719 5.6036 43.1031 5.6398 43.1205Z" fill="white"/>
<path fill-rule="evenodd" clip-rule="evenodd" d="M5.52397 43.5372C5.56017 43.565 5.63256 43.5685 5.68324 43.5511C5.73392 43.5302 5.74478 43.492 5.70496 43.4642C5.66876 43.4364 5.59637 43.4329 5.54569 43.4503C5.49501 43.4712 5.48777 43.5129 5.52397 43.5372Z" fill="white"/>
<path fill-rule="evenodd" clip-rule="evenodd" d="M5.54206 43.5303C5.57102 43.5511 5.62894 43.5546 5.66876 43.5407C5.70857 43.5233 5.71581 43.4955 5.68686 43.4712C5.6579 43.4504 5.59998 43.4434 5.56016 43.4608C5.52034 43.4782 5.5131 43.5094 5.54206 43.5303Z" fill="white"/>
<path fill-rule="evenodd" clip-rule="evenodd" d="M5.05701 42.0915C5.00271 42.1089 4.93394 42.0985 4.90136 42.0707C4.86878 42.0429 4.88688 42.0046 4.94118 41.9873C4.99547 41.9699 5.06425 41.9803 5.09683 42.0081C5.12941 42.0359 5.11131 42.0741 5.05701 42.0915Z" fill="white"/>
<path fill-rule="evenodd" clip-rule="evenodd" d="M5.04616 42.078C5.00272 42.0919 4.94842 42.085 4.92308 42.0607C4.89774 42.0363 4.91222 42.0085 4.95566 41.9946C4.9991 41.9807 5.0534 41.9877 5.07874 42.012C5.10408 42.0363 5.0896 42.0676 5.04616 42.078Z" fill="white"/>
<path fill-rule="evenodd" clip-rule="evenodd" d="M5.84615 42.234C5.82081 42.2097 5.82443 42.1923 5.66878 42.2271C5.35747 42.2966 5.19457 42.1159 5.07873 42.0116C5.07873 42.0116 4.8905 42.0012 4.94842 42.0915C4.94842 42.0915 5.20181 42.3417 5.43348 42.3278C5.43348 42.3278 5.43348 42.3278 5.4371 42.3244C5.48054 42.3278 5.53846 42.3278 5.61086 42.3209C5.86787 42.2931 5.86787 42.2549 5.84615 42.234Z" fill="#BCBEC0"/>
<path fill-rule="evenodd" clip-rule="evenodd" d="M5.11132 42.5189C5.06064 42.5398 4.98824 42.5328 4.95204 42.505C4.91584 42.4772 4.9267 42.439 4.97738 42.4181C5.02806 42.3973 5.09684 42.4042 5.13666 42.432C5.16923 42.4598 5.15838 42.4981 5.11132 42.5189Z" fill="white"/>
<path fill-rule="evenodd" clip-rule="evenodd" d="M5.09683 42.5085C5.05701 42.5259 4.99909 42.5189 4.97013 42.4981C4.94117 42.4772 4.94841 42.4459 4.98823 42.4285C5.02805 42.4112 5.08597 42.4181 5.11493 42.439C5.14388 42.4598 5.13665 42.4911 5.09683 42.5085Z" fill="white"/>
<path fill-rule="evenodd" clip-rule="evenodd" d="M5.7846 42.6683C5.76288 42.6405 5.77012 42.6197 5.60723 42.651C5.57827 42.6579 5.54931 42.6614 5.52035 42.6614C5.28868 42.6231 5.29592 42.5675 5.11492 42.439C5.11492 42.439 4.92668 42.439 5.0027 42.5258C5.0027 42.5258 5.10768 42.6058 5.238 42.6683C5.2561 42.7135 5.32487 42.7552 5.53483 42.7448C5.79184 42.7274 5.8027 42.6892 5.7846 42.6683Z" fill="#BCBEC0"/>
<path fill-rule="evenodd" clip-rule="evenodd" d="M5.20182 42.929C5.15476 42.9533 5.08598 42.9498 5.04254 42.9255C4.99911 42.9012 5.00273 42.8629 5.04616 42.8386C5.09322 42.8143 5.162 42.8178 5.20544 42.8421C5.24888 42.8664 5.24888 42.9046 5.20182 42.929Z" fill="white"/>
<path fill-rule="evenodd" clip-rule="evenodd" d="M5.18735 42.9189C5.15115 42.9362 5.09323 42.9362 5.06065 42.9154C5.02807 42.8945 5.02807 42.8633 5.06427 42.8459C5.10047 42.8285 5.15839 42.8285 5.19097 42.8494C5.22355 42.8702 5.22355 42.9015 5.18735 42.9189Z" fill="white"/>
<path fill-rule="evenodd" clip-rule="evenodd" d="M5.71222 43.0854C5.70498 43.068 5.70498 43.0541 5.6724 43.0506C5.66516 43.0471 5.6543 43.0437 5.63982 43.0437C5.38643 43.0193 5.40091 42.9742 5.18733 42.8525C5.18733 42.8525 4.9991 42.863 5.09322 42.9464C5.09322 42.9464 5.13666 42.9742 5.20181 43.0054C5.57828 43.2001 5.72308 43.1097 5.71222 43.0854Z" fill="#BCBEC0"/>
<path fill-rule="evenodd" clip-rule="evenodd" d="M5.24163 43.3426C5.20543 43.3704 5.13304 43.3739 5.08236 43.3565C5.03168 43.3357 5.02082 43.2974 5.06064 43.2696C5.09684 43.2418 5.16923 43.2384 5.21991 43.2557C5.26697 43.2766 5.27783 43.3148 5.24163 43.3426Z" fill="white"/>
<path fill-rule="evenodd" clip-rule="evenodd" d="M5.21991 43.3357C5.19095 43.3565 5.13303 43.3635 5.09321 43.3461C5.05339 43.3288 5.04615 43.3009 5.07511 43.2766C5.10407 43.2558 5.16199 43.2488 5.20181 43.2662C5.24163 43.2836 5.24887 43.3148 5.21991 43.3357Z" fill="white"/>
<path fill-rule="evenodd" clip-rule="evenodd" d="M5.62534 43.4538C5.41176 43.419 5.44434 43.3704 5.20181 43.2661C5.20181 43.2661 5.02081 43.2939 5.13665 43.3669C5.13665 43.3669 5.38642 43.5233 5.59276 43.5302C5.61448 43.5268 5.63258 43.5233 5.6543 43.5198C5.65792 43.5198 5.71946 43.4711 5.62534 43.4538Z" fill="#BCBEC0"/>
<path fill-rule="evenodd" clip-rule="evenodd" d="M5.06425 42.2861C5.00995 42.3035 4.94117 42.293 4.90859 42.2652C4.87601 42.234 4.89411 42.1992 4.94841 42.1818C5.00271 42.1645 5.07149 42.1749 5.10406 42.2027C5.13664 42.2305 5.11854 42.2687 5.06425 42.2861Z" fill="white"/>
<path fill-rule="evenodd" clip-rule="evenodd" d="M5.04976 42.2755C5.00632 42.2894 4.95202 42.2825 4.92668 42.2582C4.90134 42.2338 4.91582 42.206 4.95926 42.1921C5.0027 42.1782 5.057 42.1852 5.08234 42.2095C5.10768 42.2304 5.0932 42.2616 5.04976 42.2755Z" fill="white"/>
<path fill-rule="evenodd" clip-rule="evenodd" d="M5.76289 42.0116C5.65067 42.1159 5.62895 42.1715 5.53483 42.2132C5.44796 42.2549 5.35746 42.2757 5.17284 42.2236C5.02081 42.1819 5.02081 42.2028 4.99547 42.2306C4.97375 42.2514 4.97375 42.2827 5.23076 42.3174C5.66153 42.38 5.89321 42.0881 5.89321 42.0881C5.95112 42.0012 5.76289 42.0116 5.76289 42.0116Z" fill="white"/>
<path fill-rule="evenodd" clip-rule="evenodd" d="M5.13303 42.7172C5.08235 42.738 5.00996 42.7311 4.97376 42.7033C4.93756 42.6754 4.94842 42.6372 4.99548 42.6164C5.04615 42.5955 5.11493 42.6025 5.15475 42.6303C5.19457 42.6581 5.18371 42.6963 5.13303 42.7172Z" fill="white"/>
<path fill-rule="evenodd" clip-rule="evenodd" d="M5.11857 42.7067C5.07875 42.7241 5.02445 42.7171 4.99549 42.6963C4.96653 42.6754 4.97377 42.6442 5.01359 42.6268C5.05341 42.6094 5.11133 42.6164 5.14029 42.6372C5.16924 42.6615 5.15839 42.6893 5.11857 42.7067Z" fill="white"/>
<path d="M5.8389 42.5258C5.91492 42.439 5.72669 42.439 5.72669 42.439C5.54207 42.571 5.59637 42.6197 5.33574 42.6579C5.2923 42.6614 5.25972 42.6544 5.23438 42.651C5.07148 42.6197 5.07872 42.6405 5.057 42.6683C5.0389 42.6927 5.04614 42.7274 5.30678 42.7413C5.65067 42.7587 5.8389 42.5258 5.8389 42.5258Z" fill="white"/>
<path d="M5.68326 42.6301C5.68326 42.6301 5.68326 42.6338 5.68326 42.641C5.68688 42.6374 5.68688 42.6338 5.68326 42.6301Z" fill="white"/>
<path fill-rule="evenodd" clip-rule="evenodd" d="M5.21629 43.1306C5.16923 43.155 5.10045 43.1515 5.05701 43.1272C5.01357 43.1028 5.01719 43.0646 5.06063 43.0403C5.10769 43.016 5.17647 43.0194 5.21991 43.0438C5.26334 43.0681 5.26334 43.1063 5.21629 43.1306Z" fill="white"/>
<path fill-rule="evenodd" clip-rule="evenodd" d="M5.20181 43.1205C5.16561 43.1379 5.1077 43.1379 5.07512 43.117C5.04254 43.0962 5.04254 43.0649 5.07874 43.0475C5.11494 43.0302 5.17285 43.0302 5.20543 43.051C5.23801 43.0719 5.23439 43.1031 5.20181 43.1205Z" fill="white"/>
<path fill-rule="evenodd" clip-rule="evenodd" d="M5.65068 42.8491C5.43711 42.9708 5.45521 43.0159 5.20181 43.0403C5.18734 43.0403 5.17648 43.0437 5.16924 43.0472C5.13666 43.0507 5.13666 43.0646 5.12942 43.082C5.11856 43.1063 5.22715 43.148 5.63982 42.9986C5.70498 42.9673 5.74842 42.9395 5.74842 42.9395C5.83892 42.863 5.65068 42.8491 5.65068 42.8491Z" fill="white"/>
<path fill-rule="evenodd" clip-rule="evenodd" d="M5.31765 43.5372C5.28145 43.565 5.20905 43.5685 5.15838 43.5511C5.1077 43.5302 5.09684 43.492 5.13666 43.4642C5.17286 43.4364 5.24525 43.4329 5.29593 43.4503C5.34299 43.4712 5.35385 43.5129 5.31765 43.5372Z" fill="white"/>
<path fill-rule="evenodd" clip-rule="evenodd" d="M5.29956 43.5303C5.2706 43.5511 5.21268 43.5546 5.17286 43.5407C5.13304 43.5233 5.1258 43.4955 5.15476 43.4712C5.18372 43.4504 5.24164 43.4434 5.28146 43.4608C5.32128 43.4782 5.32852 43.5094 5.29956 43.5303Z" fill="white"/>
<path fill-rule="evenodd" clip-rule="evenodd" d="M5.63619 43.2661C5.43348 43.4155 5.19818 43.4781 5.2199 43.4816C5.21628 43.4885 5.21628 43.4955 5.21628 43.5024C5.21266 43.5268 5.238 43.5928 5.68325 43.3738C5.69411 43.3704 5.69773 43.3669 5.69773 43.3669C5.82081 43.2974 5.63619 43.2661 5.63619 43.2661Z" fill="white"/>
<path fill-rule="evenodd" clip-rule="evenodd" d="M5.46968 41.9733C5.46968 41.9733 6.60272 41.9281 6.46154 41.3686C6.32036 40.8091 5.60362 41.6744 5.46606 41.9142L5.53122 41.9246C5.53122 41.9246 5.95475 41.3443 6.19729 41.3304C6.43982 41.3165 6.3819 41.5007 6.30226 41.5702C6.23349 41.6292 6.01629 41.8204 5.64344 41.9316C5.62172 41.9385 5.53484 41.9107 5.5095 41.9177C5.47692 41.9246 5.50588 41.9663 5.46968 41.9733Z" fill="#BCBEC0"/>
<path fill-rule="evenodd" clip-rule="evenodd" d="M5.53483 41.8447C5.53483 41.8447 5.19818 41.1914 4.75293 41.2331C4.30768 41.2748 4.28958 41.5945 4.92307 41.8065C5.55655 42.0185 5.55655 42.0185 5.55655 42.0185L5.56017 41.9212C5.56017 41.9212 5.09682 41.7926 4.88687 41.6745C4.67692 41.5563 4.46334 41.4138 4.65882 41.3756C4.85429 41.3374 4.99909 41.3339 5.25248 41.6015C5.37194 41.7301 5.44796 41.8725 5.49863 41.9247C5.55655 41.9838 5.58913 41.9455 5.58913 41.9455L5.53483 41.8447Z" fill="#BCBEC0"/>
<path fill-rule="evenodd" clip-rule="evenodd" d="M5.45882 42.029C5.45882 42.029 5.42262 42.1402 5.23439 42.3521C5.04615 42.5641 5.06425 42.929 5.08235 42.9429C5.10045 42.9568 5.05339 43.0194 5.05339 43.0194C5.05339 43.0194 4.98461 43.0228 4.94117 42.9047C4.89773 42.79 4.82896 42.5607 5.14389 42.2931C5.45882 42.0255 5.49502 41.9073 5.49502 41.9073C5.49502 41.9073 5.63258 41.8865 5.45882 42.029Z" fill="white"/>
<path fill-rule="evenodd" clip-rule="evenodd" d="M5.49139 41.8828C5.49139 41.8828 5.61085 42.2686 5.63619 42.4875C5.66153 42.7064 5.84615 43.0088 5.82443 43.1304C5.80271 43.252 5.9113 43.2416 5.9113 43.2416C5.9113 43.2416 5.98008 43.186 5.79909 42.7794C5.61809 42.3728 5.66877 42.2164 5.62171 42.0844C5.57103 41.9454 5.57465 41.8967 5.49139 41.8828Z" fill="white"/>
<path d="M12.0869 43.2869C12.0869 43.2869 12.181 43.8846 12.1014 44.1835C12.0217 44.4823 11.8154 45.0453 10.5303 44.9932L10.5122 44.7291C10.5086 44.7325 12.0941 43.332 12.0869 43.2869Z" fill="#D3D5D6"/>
<path d="M9.0751 43.2869C9.0751 43.2869 8.98098 43.8846 9.06062 44.1835C9.14026 44.4823 9.34659 45.0453 10.6317 44.9932L10.6498 44.7291C10.6498 44.7325 9.06786 43.332 9.0751 43.2869Z" fill="#D3D5D6"/>
<path fill-rule="evenodd" clip-rule="evenodd" d="M11.5258 41.5841C11.5258 41.5841 10.6317 41.32 9.69049 41.5771C9.69049 41.5771 9.82805 42.1192 9.97284 42.2305C10.1176 42.3451 11.0226 42.439 11.0516 42.432C11.0769 42.4216 11.5258 41.5841 11.5258 41.5841Z" fill="white"/>
<path fill-rule="evenodd" clip-rule="evenodd" d="M9.44433 41.8724C9.42985 40.8368 9.88596 41.65 9.91853 41.7403C9.98007 41.8967 11.171 41.8967 11.2326 41.7403C11.2688 41.65 11.6561 40.7464 11.7357 41.9106C11.7357 41.9106 12.1448 43.4779 12.0579 43.9644C11.8624 44.6908 11.7357 44.7707 10.5774 44.7707C9.41899 44.7707 9.19817 44.6421 9.09682 43.9644C9.00994 43.4779 9.44433 41.8724 9.44433 41.8724Z" fill="#E50914"/>
<path fill-rule="evenodd" clip-rule="evenodd" d="M10.1176 44.7534C10.1176 44.8612 10.2805 44.8647 10.4833 44.8647C10.686 44.8647 10.8489 44.8612 10.8489 44.7534C10.8489 44.6457 10.686 44.5588 10.4833 44.5588C10.2805 44.5588 10.1176 44.6457 10.1176 44.7534Z" fill="#D3D5D6"/>
<path fill-rule="evenodd" clip-rule="evenodd" d="M9.09682 43.9645C9.07148 43.8186 9.0932 43.5718 9.13302 43.3008C9.2018 43.266 9.27058 43.2382 9.33212 43.2139C9.70135 43.0714 10.3638 42.6544 10.114 43.3459C10.114 43.3459 9.20542 43.8081 9.49863 44.6561C9.24162 44.5414 9.15112 44.3329 9.09682 43.9645Z" fill="white"/>
<path fill-rule="evenodd" clip-rule="evenodd" d="M12.0181 43.2245C11.7466 42.6754 11.1602 42.5607 11.1602 42.5607L11.1746 42.3279C11.4968 42.3661 11.7538 42.5851 11.9276 42.7936C11.6923 42.2619 11.1819 42.1854 11.1819 42.1854L11.1964 41.9109C11.4823 42.0047 11.6959 42.1785 11.8407 42.3244C11.8986 42.5781 11.9674 42.9152 12.0181 43.2245Z" fill="white"/>
<path fill-rule="evenodd" clip-rule="evenodd" d="M9.97645 42.1852C9.97645 42.1852 9.46604 42.2617 9.23075 42.7934C9.40812 42.5849 9.66152 42.366 9.98369 42.3277L9.99817 42.5606C9.99817 42.5606 9.4226 42.6752 9.14749 43.2069C9.19817 42.8977 9.27419 42.5606 9.33573 42.3034C9.4769 42.1609 9.68686 42.0011 9.96197 41.9072L9.97645 42.1852Z" fill="white"/>
<path fill-rule="evenodd" clip-rule="evenodd" d="M11.0407 43.3426C10.6606 42.5641 11.457 43.068 11.8226 43.2105C11.8878 43.2348 11.9602 43.2661 12.0289 43.3009C12.0688 43.5719 12.0869 43.8152 12.0615 43.9646C11.9602 44.3399 11.8769 44.545 11.6561 44.6527C12.0724 43.7631 11.0407 43.3426 11.0407 43.3426Z" fill="white"/>
<path d="M11.1312 41.6467C11.1312 41.6467 10.9756 43.5198 10.7475 43.7283C10.5194 43.9403 10.3276 43.704 10.1828 43.0124C10.038 42.3243 9.9113 41.6154 9.9113 41.6154C9.9113 41.6154 9.83167 41.3687 10.2371 41.2783C10.6751 41.181 11.2796 41.327 11.1312 41.6467Z" fill="white"/>
<path fill-rule="evenodd" clip-rule="evenodd" d="M10.838 41.8273C10.838 41.8273 10.8887 41.7127 11.1964 41.7439C11.1964 41.7439 11.1819 42.9046 11.0407 43.339C10.8959 43.7734 10.8235 43.9854 10.4543 43.9437C10.0814 43.9055 9.99094 43.3112 9.8932 42.8282C9.79185 42.3451 9.78461 41.7613 9.78461 41.7613C9.78461 41.7613 10.0344 41.6883 10.1828 41.8239C10.1828 41.8239 10.248 43.7839 10.5158 43.829C10.7801 43.8742 10.8959 42.2722 10.838 41.8273Z" fill="white"/>
<path fill-rule="evenodd" clip-rule="evenodd" d="M10.1936 42.0915C10.1394 42.1089 10.0706 42.0985 10.038 42.0707C10.009 42.0429 10.0235 42.0046 10.0778 41.9873C10.1321 41.9699 10.2009 41.9803 10.2335 42.0081C10.266 42.0359 10.2479 42.0741 10.1936 42.0915Z" fill="white"/>
<path fill-rule="evenodd" clip-rule="evenodd" d="M10.1792 42.078C10.1357 42.0919 10.0814 42.085 10.0561 42.0607C10.0307 42.0363 10.0452 42.0085 10.0887 41.9946C10.1321 41.9807 10.1864 41.9877 10.2117 42.012C10.2371 42.0363 10.2226 42.0676 10.1792 42.078Z" fill="white"/>
<path fill-rule="evenodd" clip-rule="evenodd" d="M10.2443 42.5189C10.1937 42.5398 10.1213 42.5328 10.0851 42.505C10.0489 42.4772 10.0597 42.439 10.1104 42.4181C10.1611 42.3973 10.2299 42.4042 10.2697 42.432C10.3059 42.4598 10.295 42.4981 10.2443 42.5189Z" fill="white"/>
<path fill-rule="evenodd" clip-rule="evenodd" d="M10.2299 42.5085C10.19 42.5259 10.1357 42.5189 10.1032 42.4981C10.0742 42.4772 10.0814 42.4459 10.1213 42.4285C10.1611 42.4112 10.2154 42.4181 10.248 42.439C10.2805 42.4598 10.2697 42.4911 10.2299 42.5085Z" fill="white"/>
<path fill-rule="evenodd" clip-rule="evenodd" d="M10.3384 42.929C10.2914 42.9533 10.2226 42.9498 10.1792 42.9255C10.1357 42.9012 10.1394 42.8629 10.1828 42.8386C10.2299 42.8143 10.2986 42.8178 10.3421 42.8421C10.3855 42.8664 10.3819 42.9046 10.3384 42.929Z" fill="white"/>
<path fill-rule="evenodd" clip-rule="evenodd" d="M10.3203 42.9189C10.2841 42.9362 10.2262 42.9362 10.1936 42.9154C10.1611 42.8945 10.1611 42.8633 10.1973 42.8459C10.2335 42.8285 10.2914 42.8285 10.324 42.8494C10.3565 42.8702 10.3565 42.9015 10.3203 42.9189Z" fill="white"/>
<path fill-rule="evenodd" clip-rule="evenodd" d="M10.3747 43.3426C10.3385 43.3704 10.2661 43.3739 10.2154 43.3565C10.1647 43.3357 10.1538 43.2974 10.1937 43.2696C10.2299 43.2418 10.3023 43.2384 10.3529 43.2557C10.4036 43.2766 10.4109 43.3148 10.3747 43.3426Z" fill="white"/>
<path fill-rule="evenodd" clip-rule="evenodd" d="M10.3566 43.3357C10.3276 43.3565 10.2697 43.3635 10.2299 43.3461C10.19 43.3288 10.1828 43.3009 10.2118 43.2766C10.2407 43.2558 10.2986 43.2488 10.3385 43.2662C10.3783 43.2836 10.3855 43.3148 10.3566 43.3357Z" fill="white"/>
<path fill-rule="evenodd" clip-rule="evenodd" d="M10.1973 42.2861C10.143 42.3035 10.0742 42.293 10.0416 42.2652C10.009 42.234 10.0271 42.1992 10.0814 42.1818C10.1357 42.1645 10.2045 42.1749 10.2371 42.2027C10.2697 42.2305 10.2516 42.2687 10.1973 42.2861Z" fill="white"/>
<path fill-rule="evenodd" clip-rule="evenodd" d="M10.1864 42.2755C10.143 42.2894 10.0887 42.2825 10.0633 42.2582C10.038 42.2338 10.0525 42.206 10.0959 42.1921C10.1394 42.1782 10.1937 42.1852 10.219 42.2095C10.2443 42.2304 10.2299 42.2616 10.1864 42.2755Z" fill="white"/>
<path fill-rule="evenodd" clip-rule="evenodd" d="M10.2697 42.7172C10.219 42.738 10.1466 42.7311 10.1104 42.7033C10.0742 42.6754 10.0851 42.6372 10.1357 42.6164C10.1864 42.5955 10.2552 42.6025 10.295 42.6303C10.3312 42.6581 10.3204 42.6963 10.2697 42.7172Z" fill="white"/>
<path fill-rule="evenodd" clip-rule="evenodd" d="M10.2552 42.7067C10.2154 42.7241 10.1574 42.7171 10.1285 42.6963C10.0995 42.6754 10.1068 42.6442 10.1466 42.6268C10.1864 42.6094 10.2443 42.6164 10.2733 42.6372C10.3022 42.6615 10.295 42.6893 10.2552 42.7067Z" fill="white"/>
<path fill-rule="evenodd" clip-rule="evenodd" d="M10.3529 43.1306C10.3059 43.155 10.2371 43.1515 10.1936 43.1272C10.1502 43.1028 10.1538 43.0646 10.1973 43.0403C10.2443 43.016 10.3131 43.0194 10.3565 43.0438C10.4 43.0681 10.3964 43.1063 10.3529 43.1306Z" fill="white"/>
<path fill-rule="evenodd" clip-rule="evenodd" d="M10.3348 43.1205C10.2986 43.1379 10.2407 43.1379 10.2081 43.117C10.1755 43.0962 10.1755 43.0649 10.2117 43.0475C10.2479 43.0302 10.3022 43.0302 10.3384 43.051C10.371 43.0719 10.371 43.1031 10.3348 43.1205Z" fill="white"/>
<path fill-rule="evenodd" clip-rule="evenodd" d="M10.4507 43.5372C10.4145 43.565 10.3421 43.5685 10.2914 43.5511C10.2407 43.5302 10.2299 43.492 10.2697 43.4642C10.3059 43.4364 10.3783 43.4329 10.429 43.4503C10.4796 43.4712 10.4905 43.5129 10.4507 43.5372Z" fill="white"/>
<path fill-rule="evenodd" clip-rule="evenodd" d="M10.4326 43.5303C10.4036 43.5511 10.3457 43.5546 10.3059 43.5407C10.2661 43.5233 10.2588 43.4955 10.2878 43.4712C10.3167 43.4504 10.3747 43.4434 10.4145 43.4608C10.4543 43.4782 10.4615 43.5094 10.4326 43.5303Z" fill="white"/>
<path fill-rule="evenodd" clip-rule="evenodd" d="M10.9176 42.0915C10.9719 42.1089 11.0407 42.0985 11.0733 42.0707C11.1059 42.0429 11.0878 42.0046 11.0335 41.9873C10.9792 41.9699 10.9104 41.9803 10.8778 42.0081C10.8452 42.0359 10.8633 42.0741 10.9176 42.0915Z" fill="white"/>
<path fill-rule="evenodd" clip-rule="evenodd" d="M10.9285 42.078C10.9719 42.0919 11.0262 42.085 11.0515 42.0607C11.0769 42.0363 11.0624 42.0085 11.019 41.9946C10.9755 41.9807 10.9212 41.9877 10.8959 42.012C10.8742 42.0363 10.8887 42.0676 10.9285 42.078Z" fill="white"/>
<path fill-rule="evenodd" clip-rule="evenodd" d="M10.1321 42.234C10.1574 42.2097 10.1538 42.1923 10.3095 42.2271C10.6208 42.2966 10.7837 42.1159 10.8995 42.0116C10.8995 42.0116 11.0878 42.0012 11.0298 42.0915C11.0298 42.0915 10.7764 42.3417 10.5448 42.3278C10.5448 42.3278 10.5448 42.3278 10.5412 42.3244C10.4977 42.3278 10.4398 42.3278 10.3674 42.3209C10.1104 42.2931 10.1068 42.2549 10.1321 42.234Z" fill="#BCBEC0"/>
<path fill-rule="evenodd" clip-rule="evenodd" d="M10.867 42.5189C10.9176 42.5398 10.9864 42.5328 11.0262 42.505C11.0624 42.4772 11.0516 42.439 11.0009 42.4181C10.9502 42.3973 10.8778 42.4042 10.8416 42.432C10.8054 42.4598 10.8163 42.4981 10.867 42.5189Z" fill="white"/>
<path fill-rule="evenodd" clip-rule="evenodd" d="M10.8778 42.5085C10.9176 42.5259 10.9756 42.5189 11.0045 42.4981C11.0335 42.4772 11.0262 42.4459 10.9864 42.4285C10.9466 42.4112 10.8887 42.4181 10.8597 42.439C10.8308 42.4598 10.838 42.4911 10.8778 42.5085Z" fill="white"/>
<path fill-rule="evenodd" clip-rule="evenodd" d="M10.19 42.6683C10.2118 42.6405 10.2045 42.6197 10.3674 42.651C10.3964 42.6579 10.4253 42.6614 10.4543 42.6614C10.686 42.6231 10.6787 42.5675 10.8597 42.439C10.8597 42.439 11.0479 42.439 10.9756 42.5258C10.9756 42.5258 10.8706 42.6058 10.7403 42.6683C10.7222 42.7135 10.6534 42.7552 10.4434 42.7448C10.1828 42.7274 10.1719 42.6892 10.19 42.6683Z" fill="#BCBEC0"/>
<path fill-rule="evenodd" clip-rule="evenodd" d="M10.7728 42.929C10.8199 42.9533 10.8887 42.9498 10.9321 42.9255C10.9756 42.9012 10.9719 42.8629 10.9285 42.8386C10.8814 42.8143 10.8127 42.8178 10.7692 42.8421C10.7258 42.8664 10.7294 42.9046 10.7728 42.929Z" fill="white"/>
<path fill-rule="evenodd" clip-rule="evenodd" d="M10.791 42.9189C10.8272 42.9362 10.8851 42.9362 10.9177 42.9154C10.9502 42.8945 10.9502 42.8633 10.914 42.8459C10.8778 42.8285 10.8199 42.8285 10.7873 42.8494C10.7511 42.8702 10.7548 42.9015 10.791 42.9189Z" fill="white"/>
<path fill-rule="evenodd" clip-rule="evenodd" d="M10.2624 43.0854C10.2697 43.068 10.2697 43.0541 10.3023 43.0506C10.3095 43.0471 10.3204 43.0437 10.3348 43.0437C10.5882 43.0193 10.5737 42.9742 10.7873 42.8525C10.7873 42.8525 10.9756 42.863 10.8814 42.9464C10.8814 42.9464 10.838 42.9742 10.7728 43.0054C10.3964 43.2001 10.2516 43.1097 10.2624 43.0854Z" fill="#BCBEC0"/>
<path fill-rule="evenodd" clip-rule="evenodd" d="M10.7366 43.3426C10.7728 43.3704 10.8452 43.3739 10.8959 43.3565C10.9466 43.3357 10.9574 43.2974 10.9176 43.2696C10.8814 43.2418 10.809 43.2384 10.7584 43.2557C10.7077 43.2766 10.6968 43.3148 10.7366 43.3426Z" fill="white"/>
<path fill-rule="evenodd" clip-rule="evenodd" d="M10.7547 43.3357C10.7837 43.3565 10.8416 43.3635 10.8814 43.3461C10.9213 43.3288 10.9285 43.3009 10.8995 43.2766C10.8706 43.2558 10.8127 43.2488 10.7728 43.2662C10.733 43.2836 10.7258 43.3148 10.7547 43.3357Z" fill="white"/>
<path fill-rule="evenodd" clip-rule="evenodd" d="M10.3203 43.5198C10.3384 43.5268 10.3602 43.5302 10.3819 43.5302C10.5882 43.5233 10.838 43.3669 10.838 43.3669C10.9574 43.2974 10.7728 43.2661 10.7728 43.2661C10.5303 43.3704 10.5592 43.419 10.3493 43.4538C10.2588 43.4711 10.3203 43.5198 10.3203 43.5198Z" fill="#BCBEC0"/>
<path fill-rule="evenodd" clip-rule="evenodd" d="M10.9104 42.2861C10.9647 42.3035 11.0335 42.293 11.066 42.2652C11.0986 42.234 11.0805 42.1992 11.0262 42.1818C10.9719 42.1645 10.9032 42.1749 10.8706 42.2027C10.8416 42.2305 10.8597 42.2687 10.9104 42.2861Z" fill="white"/>
<path fill-rule="evenodd" clip-rule="evenodd" d="M10.9249 42.2755C10.9683 42.2894 11.0226 42.2825 11.0479 42.2582C11.0733 42.2338 11.0588 42.206 11.0154 42.1921C10.9719 42.1782 10.9176 42.1852 10.8923 42.2095C10.867 42.2304 10.8814 42.2616 10.9249 42.2755Z" fill="white"/>
<path fill-rule="evenodd" clip-rule="evenodd" d="M10.2118 42.0116C10.324 42.1159 10.3457 42.1715 10.4398 42.2132C10.5267 42.2549 10.6172 42.2757 10.8018 42.2236C10.9538 42.1819 10.9538 42.2028 10.9792 42.2306C11.0009 42.2514 11.0009 42.2827 10.7439 42.3174C10.3131 42.38 10.0814 42.0881 10.0814 42.0881C10.0235 42.0012 10.2118 42.0116 10.2118 42.0116Z" fill="white"/>
<path fill-rule="evenodd" clip-rule="evenodd" d="M10.8416 42.7172C10.8923 42.738 10.9611 42.7311 11.0009 42.7033C11.0371 42.6754 11.0262 42.6372 10.9755 42.6164C10.9249 42.5955 10.8561 42.6025 10.8163 42.6303C10.7801 42.6581 10.7909 42.6963 10.8416 42.7172Z" fill="white"/>
<path fill-rule="evenodd" clip-rule="evenodd" d="M10.8561 42.7067C10.8959 42.7241 10.9502 42.7171 10.9828 42.6963C11.0117 42.6754 11.0045 42.6442 10.9647 42.6268C10.9249 42.6094 10.8706 42.6164 10.838 42.6372C10.8054 42.6615 10.8163 42.6893 10.8561 42.7067Z" fill="white"/>
<path d="M10.1357 42.5258C10.0597 42.439 10.2479 42.439 10.2479 42.439C10.4289 42.571 10.3783 42.6197 10.6389 42.6579C10.6823 42.6614 10.7149 42.6544 10.7403 42.651C10.8995 42.6197 10.8959 42.6405 10.9176 42.6683C10.9357 42.6927 10.9285 42.7274 10.6679 42.7413C10.324 42.7587 10.1357 42.5258 10.1357 42.5258Z" fill="white"/>
<path d="M10.2914 42.6301C10.2914 42.6301 10.2914 42.6338 10.2914 42.641C10.2878 42.6374 10.2914 42.6338 10.2914 42.6301Z" fill="white"/>
<path fill-rule="evenodd" clip-rule="evenodd" d="M10.7584 43.1306C10.8054 43.155 10.8742 43.1515 10.9176 43.1272C10.9611 43.1028 10.9574 43.0646 10.914 43.0403C10.867 43.016 10.7982 43.0194 10.7547 43.0438C10.7113 43.0681 10.7149 43.1063 10.7584 43.1306Z" fill="white"/>
<path fill-rule="evenodd" clip-rule="evenodd" d="M10.7765 43.1205C10.8127 43.1379 10.8706 43.1379 10.9032 43.117C10.9357 43.0962 10.9357 43.0649 10.8995 43.0475C10.8633 43.0302 10.8054 43.0302 10.7728 43.051C10.7366 43.0719 10.7403 43.1031 10.7765 43.1205Z" fill="white"/>
<path fill-rule="evenodd" clip-rule="evenodd" d="M10.324 42.8491C10.5375 42.9708 10.5231 43.0159 10.7765 43.0403C10.7909 43.0403 10.8018 43.0437 10.809 43.0472C10.838 43.0507 10.8416 43.0646 10.8488 43.082C10.8633 43.1063 10.7511 43.148 10.3384 42.9986C10.2733 42.9673 10.2298 42.9395 10.2298 42.9395C10.1357 42.863 10.324 42.8491 10.324 42.8491Z" fill="white"/>
<path fill-rule="evenodd" clip-rule="evenodd" d="M10.657 43.5372C10.6932 43.565 10.7656 43.5685 10.8163 43.5511C10.8669 43.5302 10.8778 43.492 10.838 43.4642C10.8018 43.4364 10.7294 43.4329 10.6787 43.4503C10.6316 43.4712 10.6208 43.5129 10.657 43.5372Z" fill="white"/>
<path fill-rule="evenodd" clip-rule="evenodd" d="M10.6787 43.5303C10.7077 43.5511 10.7656 43.5546 10.8054 43.5407C10.8452 43.5233 10.8525 43.4955 10.8235 43.4712C10.7946 43.4504 10.7366 43.4434 10.6968 43.4608C10.657 43.4782 10.6461 43.5094 10.6787 43.5303Z" fill="white"/>
<path fill-rule="evenodd" clip-rule="evenodd" d="M10.2733 43.3669C10.2733 43.3669 10.2805 43.3704 10.2878 43.3738C10.7366 43.5928 10.762 43.5268 10.7583 43.5024C10.7583 43.4955 10.7583 43.4885 10.7547 43.4816C10.7764 43.4781 10.5412 43.4155 10.3384 43.2661C10.3384 43.2661 10.1574 43.2974 10.2733 43.3669Z" fill="white"/>
<path fill-rule="evenodd" clip-rule="evenodd" d="M10.505 41.9733C10.505 41.9733 9.37195 41.9281 9.51312 41.3686C9.6543 40.8091 10.371 41.6744 10.5086 41.9142L10.4398 41.9246C10.4398 41.9246 10.0163 41.3443 9.77376 41.3304C9.53122 41.3165 9.58914 41.5007 9.66878 41.5702C9.73756 41.6292 9.95475 41.8204 10.3276 41.9316C10.3529 41.9385 10.4362 41.9107 10.4615 41.9177C10.4977 41.9246 10.4688 41.9663 10.505 41.9733Z" fill="#BCBEC0"/>
<path fill-rule="evenodd" clip-rule="evenodd" d="M10.4398 41.8447C10.4398 41.8447 10.7765 41.1914 11.2217 41.2331C11.667 41.2748 11.6851 41.5945 11.0516 41.8065C10.4181 42.0185 10.4181 42.0185 10.4181 42.0185L10.4145 41.9212C10.4145 41.9212 10.8778 41.7926 11.0878 41.6745C11.2977 41.5563 11.5113 41.4138 11.3158 41.3756C11.1204 41.3374 10.9756 41.3339 10.7222 41.6015C10.5991 41.7301 10.5267 41.8725 10.476 41.9247C10.4181 41.9838 10.3855 41.9455 10.3855 41.9455L10.4398 41.8447Z" fill="#BCBEC0"/>
<path fill-rule="evenodd" clip-rule="evenodd" d="M10.5158 42.029C10.5158 42.029 10.552 42.1402 10.7403 42.3521C10.9285 42.5641 10.9104 42.929 10.8923 42.9429C10.8742 42.9568 10.9213 43.0194 10.9213 43.0194C10.9213 43.0194 10.99 43.0228 11.0335 42.9047C11.0769 42.79 11.1457 42.5607 10.8308 42.2931C10.5158 42.0255 10.476 41.9073 10.476 41.9073C10.476 41.9073 10.3421 41.8865 10.5158 42.029Z" fill="white"/>
<path fill-rule="evenodd" clip-rule="evenodd" d="M10.4833 41.8828C10.4833 41.8828 10.3638 42.2686 10.3385 42.4875C10.3131 42.7064 10.1285 43.0088 10.1502 43.1304C10.1683 43.252 10.0634 43.2416 10.0634 43.2416C10.0634 43.2416 9.99458 43.186 10.1756 42.7794C10.3566 42.3728 10.3059 42.2164 10.353 42.0844C10.4036 41.9454 10.4 41.8967 10.4833 41.8828Z" fill="white"/>
</g>
<defs>
<clipPath id="clip0_158_1566">
<rect width="16" height="45" fill="white"/>
</clipPath>
</defs>
</svg>
