<svg width="29" height="40" viewBox="0 0 29 40" fill="none" xmlns="http://www.w3.org/2000/svg">
<g clip-path="url(#clip0_158_1784)">
<path d="M17.7846 14.369C18.2584 11.2584 18.2645 7.97589 18.1514 7.95442C18.1514 7.95442 18.1116 7.94521 18.0902 7.94215C17.9343 7.91147 17.4911 7.80717 16.9592 7.55561C16.2989 7.24271 15.2657 7.39303 15.2657 7.39303H13.6212C13.6212 7.39303 12.6155 7.24271 11.9705 7.55561C11.4539 7.80717 11.0198 7.9084 10.867 7.94215C10.8456 7.94521 10.8273 7.94828 10.8089 7.95442C10.8089 7.95442 10.705 11.1694 11.1666 14.2801C11.6251 17.36 10.9495 19.0197 11.1941 20.5382C11.2797 21.0659 13.7832 20.2775 13.9758 20.9309C13.9758 20.9309 14.3395 20.9462 14.4343 20.9339C14.5291 20.9462 14.905 20.9309 14.905 20.9309C15.1007 20.2805 17.6806 21.0659 17.7693 20.5382C18.023 19.0197 17.3138 17.449 17.7846 14.369Z" fill="#E4AE84"/>
<path d="M18.8178 15.8814C18.8178 15.8814 17.7173 13.8107 17.9466 13.0683C17.9466 13.0683 17.4666 11.4363 17.5614 10.6908C16.8431 8.6508 17.1212 7.85933 18.0902 7.94523C19.0715 8.12622 19.9641 8.77658 19.8143 10.0865C19.637 11.6541 19.8968 12.148 20.0252 12.8106C20.1994 13.7003 20.6763 14.5439 20.609 14.9212C20.1261 16.3201 18.8178 15.8814 18.8178 15.8814Z" fill="#D3A17B"/>
<path fill-rule="evenodd" clip-rule="evenodd" d="M11.8482 36.8677C11.8482 36.8677 11.029 36.4996 10.1303 36.6714C10.0936 36.6775 9.95911 38.2175 10.0264 38.2206C10.0936 38.2237 11.567 37.8065 11.5976 37.7697C11.6312 37.7359 11.8482 36.8677 11.8482 36.8677Z" fill="white"/>
<path fill-rule="evenodd" clip-rule="evenodd" d="M16.8828 36.8709C16.8828 36.8709 17.699 36.5027 18.6007 36.6715C18.6374 36.6776 18.775 38.2176 18.7077 38.2206C18.6405 38.2237 17.1671 37.8096 17.1334 37.7728C17.1029 37.739 16.8828 36.8709 16.8828 36.8709Z" fill="white"/>
<path d="M10.7325 28.0142C10.6836 28.2351 10.6958 28.9652 10.5491 29.2413C10.2251 29.8518 10.4635 31.6403 10.4941 32.9379C10.5246 34.2356 10.3779 36.4658 10.3779 36.4658L11.6648 36.564C11.6648 36.564 12.0377 33.6496 12.5116 31.8704C13.0434 29.8671 12.8478 29.4683 12.967 28.5265C12.8784 28.1707 10.9006 27.7903 10.7325 28.0142Z" fill="#E4AE84"/>
<path d="M10.8058 28.7872C10.8578 29.1738 12.7683 29.7689 12.9212 29.1002C13.1046 27.7197 15.6081 20.6793 13.8749 19.8694C13.8749 19.8694 11.9858 16.7158 11.2858 19.7497C10.7722 21.98 10.6041 25.5508 10.5613 26.4926C10.5338 27.1399 10.6469 28.1492 10.8058 28.7872Z" fill="#E4AE84"/>
<path d="M11.7046 37.8616C11.7412 37.5671 11.8268 37.5517 11.7137 37.1959C11.6006 36.837 11.7168 35.7939 11.7168 35.7939L10.5185 35.843C10.5185 35.843 10.3718 36.837 9.89493 37.7021L11.7046 37.8616Z" fill="#E4AE84"/>
<path d="M18.0627 28.0082C18.1116 28.2291 18.0994 28.9592 18.2492 29.2353C18.5732 29.8457 18.3409 31.6342 18.3134 32.9319C18.2859 34.2295 18.4387 36.4597 18.4387 36.4597L17.1518 36.561C17.1518 36.561 16.7697 33.6497 16.2959 31.8704C15.7609 29.8672 15.9535 29.4715 15.8312 28.5266C15.9168 28.1708 17.8915 27.7842 18.0627 28.0082Z" fill="#E4AE84"/>
<path d="M17.9894 28.7812C17.9374 29.1677 15.9841 29.1892 15.8282 28.5174C15.6417 27.1369 13.1657 20.6824 14.8989 19.8695C14.8989 19.8695 16.7819 16.7128 17.488 19.7437C18.0077 21.9739 18.0872 25.6521 18.133 26.5939C18.1636 27.2443 18.1483 28.1431 17.9894 28.7812Z" fill="#E4AE84"/>
<path d="M17.1151 37.8587C17.0784 37.5642 16.9928 37.5488 17.1029 37.193C17.216 36.831 17.0968 35.791 17.0968 35.791L18.295 35.837C18.295 35.837 18.4448 36.831 18.9217 37.693L17.1151 37.8587Z" fill="#E4AE84"/>
<path d="M11.1329 19.0381C11.1329 19.0381 10.6347 21.0014 10.491 24.0507L10.1456 27.8087L13.9207 27.8823L14.5107 22.1334L14.5657 20.9431V19.3786L11.1329 19.0381Z" fill="#E50914"/>
<path d="M17.8121 19.0872C17.8121 19.0872 18.2889 20.7253 18.4081 23.9924L18.6068 27.8025L14.85 27.8762L14.4373 22.1273L14.3823 20.937V19.1393L17.8121 19.0872Z" fill="#E50914"/>
<path d="M11.0168 18.8325C11.0168 18.8325 13.933 19.1178 17.9404 18.8325L18.026 19.6424C18.026 19.6424 12.5819 20.0259 10.9373 19.6117L11.0168 18.8325Z" fill="#E50914"/>
<g opacity="0.26">
<path d="M13.9819 12.6388C13.8657 12.7124 13.7404 12.7707 13.6089 12.8167C13.4775 12.8627 13.343 12.8964 13.2085 12.9149C12.9364 12.9547 12.6552 12.9547 12.3893 12.8964C12.1233 12.8412 11.8666 12.7308 11.6801 12.5437C11.5853 12.4516 11.512 12.3443 11.4631 12.2215C11.4142 12.0988 11.3928 11.97 11.3897 11.835C11.3866 11.6847 11.3714 11.5344 11.35 11.3871C11.298 11.2552 11.2307 11.1294 11.1635 11.0098C11.1482 10.9853 11.1329 10.9607 11.1176 10.9331C11.1238 10.9576 11.1299 10.9791 11.1329 11.0037C11.191 11.2798 11.2307 11.5559 11.2277 11.8319C11.2246 11.9823 11.2491 12.1387 11.3041 12.2798C11.3591 12.424 11.4478 12.5559 11.5578 12.6633C11.6679 12.7707 11.7963 12.8535 11.9308 12.9179C12.0653 12.9823 12.2089 13.0253 12.3526 13.0529C12.4963 13.0805 12.6461 13.0928 12.7897 13.0897C12.9365 13.0897 13.0832 13.0744 13.2238 13.0437C13.5081 12.9885 13.7862 12.878 14.0216 12.7032C14.1378 12.6142 14.2448 12.513 14.3273 12.3933C14.4098 12.2737 14.4679 12.1387 14.4985 12.0007C14.4129 12.2768 14.2173 12.4946 13.9819 12.6388Z" fill="white"/>
<path d="M14.1806 13.4363C14.1286 13.4424 14.0766 13.4516 14.0247 13.467C13.9207 13.4976 13.8229 13.5345 13.7282 13.5835C13.5386 13.6786 13.3644 13.8013 13.2024 13.9333C13.0434 14.0621 12.8845 14.1909 12.7225 14.3137C12.6399 14.375 12.5605 14.4364 12.4749 14.4947C12.3893 14.5529 12.3067 14.6082 12.212 14.6542C12.3159 14.645 12.4168 14.6051 12.5146 14.5683C12.6124 14.5253 12.7072 14.4793 12.7958 14.4272C12.9762 14.3229 13.1474 14.2001 13.3094 14.0713C13.4683 13.9425 13.6273 13.8167 13.7954 13.7062C13.8779 13.651 13.9635 13.5958 14.0552 13.5529C14.1011 13.5283 14.1469 13.5099 14.1928 13.4884C14.2417 13.47 14.2876 13.4547 14.3395 13.4486C14.2906 13.4302 14.2356 13.4302 14.1806 13.4363Z" fill="white"/>
<path d="M12.6583 13.7002C12.7775 13.6603 12.8876 13.5928 12.967 13.5008C12.8478 13.5315 12.7378 13.556 12.6277 13.5683C12.5177 13.5806 12.4107 13.5744 12.3037 13.5591C12.1967 13.5437 12.0897 13.5161 11.9858 13.4793C11.8788 13.4425 11.7718 13.3996 11.6618 13.3474C11.726 13.4517 11.8207 13.5345 11.9277 13.602C12.0316 13.6665 12.1539 13.7125 12.2792 13.7309C12.4076 13.7493 12.5391 13.7401 12.6583 13.7002Z" fill="white"/>
<path d="M14.312 15.372C14.1989 15.4088 14.0919 15.4425 13.988 15.4548C13.8841 15.4702 13.7801 15.4671 13.6793 15.4487C13.5784 15.4303 13.4775 15.3965 13.3766 15.3536C13.2758 15.3106 13.1779 15.2585 13.071 15.2002C13.126 15.3076 13.2116 15.3965 13.3094 15.4702C13.4072 15.5407 13.5234 15.5959 13.6487 15.6174C13.774 15.6419 13.9055 15.6327 14.0216 15.5867C14.1378 15.5438 14.2417 15.4671 14.312 15.372Z" fill="white"/>
<path d="M14.2478 16.0316C14.1439 16.0622 14.0491 16.0898 13.9544 16.0991C13.8596 16.1113 13.7709 16.1052 13.6823 16.0898C13.5937 16.0745 13.505 16.0438 13.4133 16.007C13.3216 15.9702 13.2329 15.9273 13.1351 15.8782C13.181 15.9763 13.2574 16.0592 13.343 16.1267C13.4316 16.1911 13.5356 16.2402 13.6487 16.2616C13.7618 16.2831 13.881 16.2739 13.988 16.234C14.095 16.1911 14.1867 16.1236 14.2478 16.0316Z" fill="white"/>
<path d="M13.6884 16.811C13.6273 16.7987 13.5662 16.7834 13.4989 16.7588C13.4347 16.7373 13.3675 16.7097 13.291 16.6821C13.3186 16.7619 13.3705 16.8232 13.4317 16.8754C13.4959 16.9275 13.5723 16.9644 13.6548 16.9797C13.7373 16.995 13.829 16.9858 13.9085 16.9521C13.9849 16.9183 14.0522 16.8631 14.0889 16.7895C14.0094 16.8018 13.9391 16.8171 13.8718 16.8202C13.8107 16.8263 13.7496 16.8202 13.6884 16.811Z" fill="white"/>
<path d="M15.7762 15.3536C15.6754 15.3965 15.5745 15.4303 15.4736 15.4487C15.3727 15.4671 15.2688 15.4702 15.1649 15.4548C15.0609 15.4425 14.954 15.4088 14.8409 15.372C14.9112 15.4671 15.0151 15.5438 15.1312 15.5867C15.2474 15.6297 15.3819 15.6419 15.5042 15.6174C15.6295 15.5959 15.7426 15.5407 15.8435 15.4702C15.9413 15.3965 16.0269 15.3076 16.0819 15.2002C15.9749 15.2585 15.8771 15.3076 15.7762 15.3536Z" fill="white"/>
<path d="M16.0147 15.8813C15.9168 15.9304 15.8282 15.9734 15.7395 16.0102C15.6509 16.047 15.5592 16.0777 15.4705 16.093C15.3819 16.1084 15.2902 16.1114 15.1985 16.1022C15.1037 16.093 15.009 16.0654 14.905 16.0347C14.9662 16.1237 15.0579 16.1943 15.1649 16.2341C15.2718 16.274 15.3911 16.2863 15.5042 16.2617C15.6173 16.2403 15.7212 16.1912 15.8098 16.1268C15.8954 16.0593 15.9688 15.9795 16.0147 15.8813Z" fill="white"/>
<path d="M15.4644 16.8108C15.4033 16.8231 15.3422 16.8262 15.278 16.8231C15.2138 16.82 15.1435 16.8078 15.0609 16.7924C15.1007 16.8661 15.1649 16.9213 15.2413 16.955C15.3177 16.9888 15.4094 16.998 15.492 16.9826C15.5775 16.9673 15.654 16.9274 15.7182 16.8783C15.7793 16.8262 15.8343 16.7618 15.8588 16.6851C15.7824 16.7127 15.7151 16.7403 15.6509 16.7618C15.5867 16.7802 15.5256 16.7986 15.4644 16.8108Z" fill="white"/>
<path d="M17.8732 11.4914C17.8701 11.4269 17.8701 11.3595 17.8732 11.295C17.8793 11.1785 17.8915 11.0619 17.9099 10.9453C17.8487 11.0128 17.7876 11.0834 17.7356 11.157C17.7295 11.1999 17.7265 11.2459 17.7234 11.2889C17.7173 11.3595 17.7173 11.4269 17.7173 11.4975C17.7173 11.5681 17.7265 11.6386 17.7265 11.7C17.7295 11.8257 17.7112 11.9485 17.6653 12.065C17.6195 12.1785 17.5492 12.2828 17.4636 12.3718C17.2893 12.5528 17.054 12.6724 16.8064 12.7491C16.5588 12.8258 16.2928 12.8504 16.033 12.8381C15.7732 12.8228 15.5103 12.7614 15.2841 12.6326C15.1679 12.5681 15.064 12.4884 14.9784 12.3902C14.8928 12.292 14.8225 12.1724 14.7766 12.0466C14.8042 12.1785 14.8592 12.3074 14.9387 12.4209C15.0181 12.5344 15.1251 12.6295 15.2382 12.7062C15.4705 12.8596 15.7457 12.9424 16.0208 12.9731C16.2989 13.0038 16.5802 12.9823 16.8492 12.9087C17.1182 12.832 17.381 12.7031 17.5859 12.4945C17.6867 12.3902 17.7693 12.2644 17.8212 12.1264C17.8732 11.9883 17.8976 11.838 17.8885 11.6938C17.8854 11.6171 17.8763 11.5558 17.8732 11.4914Z" fill="white"/>
<path d="M16.6016 14.5653C16.6994 14.6051 16.8003 14.642 16.9042 14.6512C16.8094 14.6051 16.7269 14.5499 16.6413 14.4916C16.5557 14.4334 16.4762 14.372 16.3937 14.3106C16.2317 14.1879 16.0727 14.0591 15.9138 13.9302C15.7518 13.7983 15.5775 13.6756 15.388 13.5805C15.2932 13.5314 15.1954 13.4916 15.0915 13.464C15.0395 13.4517 14.9876 13.4394 14.9356 13.4333C14.8836 13.4271 14.8286 13.4271 14.7766 13.4425C14.8286 13.4486 14.8775 13.464 14.9234 13.4824C14.9692 13.5008 15.0151 13.5222 15.0609 13.5468C15.1496 13.5928 15.2352 13.6449 15.3208 13.7002C15.4889 13.8137 15.6478 13.9364 15.8068 14.0652C15.9688 14.1971 16.14 14.3168 16.3203 14.4211C16.412 14.4763 16.5068 14.5223 16.6016 14.5653Z" fill="white"/>
<path d="M16.4885 13.5683C16.3784 13.5591 16.2684 13.5315 16.1492 13.5008C16.2317 13.5928 16.3387 13.6603 16.4579 13.7002C16.5771 13.7401 16.7086 13.7493 16.8339 13.7309C16.9592 13.7125 17.0784 13.6665 17.1854 13.602C17.2894 13.5376 17.3841 13.4548 17.4514 13.3474C17.3413 13.3965 17.2343 13.4425 17.1273 13.4793C17.0204 13.5161 16.9164 13.5437 16.8094 13.5591C16.7025 13.5744 16.5955 13.5775 16.4885 13.5683Z" fill="white"/>
<path d="M14.6513 16.001C14.6513 15.7894 14.6452 15.5746 14.633 15.3629C14.6207 15.1482 14.6024 14.9365 14.5657 14.7249C14.529 14.9396 14.5138 15.1513 14.4985 15.3629C14.4862 15.5746 14.4801 15.7894 14.4801 16.001C14.4801 16.2158 14.4862 16.4274 14.4985 16.6391C14.5107 16.8508 14.529 17.0655 14.5657 17.2772C14.6024 17.0655 14.6207 16.8508 14.633 16.6391C14.6452 16.4274 14.6513 16.2158 14.6513 16.001Z" fill="white"/>
</g>
<path d="M10.0906 15.8813C10.0906 15.8813 11.191 13.8106 10.9618 13.0682C10.9618 13.0682 11.4417 11.4362 11.3469 10.6907C12.0653 8.65067 11.7932 7.669 10.6316 7.94203C9.65038 8.12303 8.9412 8.77645 9.09099 10.0894C9.26828 11.657 9.00845 12.1509 8.88007 12.8136C8.70583 13.7032 8.22896 14.5468 8.29621 14.9242C8.78225 16.32 10.0906 15.8813 10.0906 15.8813Z" fill="#D3A17B"/>
<path d="M11.2185 7.85325C11.2185 7.85325 11.8391 10.8075 11.026 13.096C11.026 13.096 11.2338 15.1728 11.1238 16.3386C11.0137 17.5074 11.0198 18.8326 11.0198 18.8326C11.0198 18.8326 13.8046 19.2314 17.9435 18.8326C17.9435 18.8326 17.7387 17.5595 17.7723 17.8264C17.806 18.0902 17.9466 14.6789 17.913 13.9089C17.8977 13.5592 17.9527 13.096 17.9527 13.096C17.9527 13.096 16.8645 10.1817 17.7204 7.85325L17.2129 7.66919C17.2129 7.66919 16.2714 11.2308 14.5657 11.2308C12.86 11.2308 11.9613 9.27361 11.6679 7.66919L11.2185 7.85325Z" fill="#E50914"/>
<path fill-rule="evenodd" clip-rule="evenodd" d="M10.2526 36.8216L10.3412 36.4626L11.7046 36.5854V37.0026C11.7046 37.0026 10.3168 37.3093 10.2526 36.8216Z" fill="white"/>
<path fill-rule="evenodd" clip-rule="evenodd" d="M18.5702 36.8155L18.4815 36.4565L17.1182 36.5793V36.9995C17.1212 36.9995 18.509 37.3032 18.5702 36.8155Z" fill="white"/>
<path d="M9.51893 38.3433C9.51893 38.3433 9.3936 38.8678 9.4364 39.1378C9.48225 39.4078 9.61369 39.9262 10.705 39.9753L10.7417 39.7421C10.7447 39.7452 9.50976 38.3862 9.51893 38.3433Z" fill="#D3D5D6"/>
<path d="M12.0744 38.5732C12.0744 38.5732 12.1081 39.1101 12.0133 39.3708C11.9216 39.6316 11.7015 40.1132 10.6163 39.9691L10.6194 39.7328C10.6224 39.7328 12.0775 38.6131 12.0744 38.5732Z" fill="#D3D5D6"/>
<path fill-rule="evenodd" clip-rule="evenodd" d="M10.1303 36.8768C10.1303 36.8768 10.9098 36.7111 11.6893 37.0087C11.6893 37.0087 11.5272 37.4781 11.3989 37.567C11.2674 37.656 10.491 37.6713 10.4696 37.6621C10.4451 37.6529 10.1303 36.8768 10.1303 36.8768Z" fill="white"/>
<path fill-rule="evenodd" clip-rule="evenodd" d="M11.8696 37.2911C11.9613 36.3739 11.515 37.0611 11.4753 37.1377C11.4111 37.2727 10.4024 37.1838 10.3626 37.0365C10.3382 36.9537 10.0814 36.1223 9.92243 37.1469C9.92243 37.1469 9.45168 38.5059 9.48837 38.9416C9.59535 39.5981 9.69929 39.6809 10.6805 39.7698C11.6648 39.8588 11.8635 39.7606 12.0011 39.1655C12.1142 38.7452 11.8696 37.2911 11.8696 37.2911Z" fill="#E50914"/>
<path fill-rule="evenodd" clip-rule="evenodd" d="M11.0749 39.7942C11.0657 39.8893 10.9281 39.8801 10.757 39.8647C10.5858 39.8494 10.4482 39.8341 10.4543 39.739C10.4635 39.6439 10.6072 39.5794 10.7783 39.5948C10.9526 39.6101 11.084 39.6991 11.0749 39.7942Z" fill="#D3D5D6"/>
<path fill-rule="evenodd" clip-rule="evenodd" d="M12.0041 39.1714C12.0377 39.0457 12.0377 38.8248 12.0255 38.5794C11.9705 38.5425 11.9124 38.5119 11.8604 38.4873C11.5609 38.3309 11.029 37.9137 11.1849 38.5456C11.1849 38.5456 11.9185 39.0242 11.6037 39.7543C11.8329 39.6715 11.9277 39.4935 12.0041 39.1714Z" fill="#E50914"/>
<path fill-rule="evenodd" clip-rule="evenodd" d="M9.5831 38.2941C9.85516 37.8278 10.3626 37.7695 10.3626 37.7695L10.3687 37.5609C10.0936 37.5701 9.85821 37.745 9.69314 37.9167C9.93463 37.4627 10.3748 37.432 10.3748 37.432L10.384 37.1897C10.1333 37.2541 9.93769 37.3891 9.80625 37.5087C9.73594 37.7296 9.65035 38.0241 9.5831 38.2941Z" fill="#E50914"/>
<path fill-rule="evenodd" clip-rule="evenodd" d="M11.3989 37.5273C11.3989 37.5273 11.8268 37.6346 11.9827 38.1255C11.8482 37.9291 11.6495 37.7144 11.3805 37.6561L11.3499 37.8616C11.3499 37.8616 11.8299 38.0058 12.0194 38.4997C12.001 38.2206 11.9613 37.9169 11.9307 37.6837C11.8207 37.5457 11.6587 37.3892 11.4325 37.2849L11.3989 37.5273Z" fill="#E50914"/>
<path fill-rule="evenodd" clip-rule="evenodd" d="M10.4054 38.472C10.7875 37.8094 10.0753 38.1959 9.75123 38.2972C9.69315 38.3156 9.63202 38.337 9.56783 38.3616C9.5128 38.5978 9.47612 38.8125 9.48835 38.9475C9.54337 39.288 9.59839 39.4752 9.77569 39.5887C9.49446 38.7665 10.4054 38.472 10.4054 38.472Z" fill="#E50914"/>
<path d="M10.4574 36.9598C10.4574 36.9598 10.439 38.6317 10.6194 38.8373C10.7967 39.0428 10.977 38.8465 11.1543 38.2452C11.3316 37.6439 11.4967 37.0273 11.4967 37.0273C11.4967 37.0273 11.5853 36.8156 11.2491 36.7021C10.8853 36.5825 10.3596 36.6684 10.4574 36.9598Z" fill="#20245E"/>
<path fill-rule="evenodd" clip-rule="evenodd" d="M10.6958 37.1469C10.6958 37.1469 10.6622 37.0395 10.3993 37.0457C10.3993 37.0457 10.3198 38.0764 10.4054 38.4722C10.491 38.8679 10.5369 39.0612 10.8548 39.055C11.1727 39.0489 11.2949 38.5274 11.4172 38.1071C11.5395 37.6868 11.5945 37.1714 11.5945 37.1714C11.5945 37.1714 11.3867 37.0886 11.2522 37.196C11.2522 37.196 11.0443 38.9292 10.812 38.9476C10.5827 38.9661 10.6102 37.5334 10.6958 37.1469Z" fill="white"/>
<path fill-rule="evenodd" clip-rule="evenodd" d="M11.2216 37.426C11.2674 37.4444 11.3255 37.4413 11.353 37.4168C11.3836 37.3922 11.3683 37.3585 11.3255 37.337C11.2796 37.3186 11.2216 37.3217 11.191 37.3462C11.1635 37.3738 11.1757 37.4076 11.2216 37.426Z" fill="white"/>
<path fill-rule="evenodd" clip-rule="evenodd" d="M11.2308 37.4169C11.2644 37.4322 11.3133 37.4292 11.3347 37.4108C11.3561 37.3924 11.3469 37.3648 11.3133 37.3494C11.2766 37.3341 11.2308 37.3371 11.2094 37.3556C11.188 37.374 11.1971 37.4016 11.2308 37.4169Z" fill="white"/>
<path fill-rule="evenodd" clip-rule="evenodd" d="M11.1421 37.8002C11.1818 37.8217 11.243 37.8217 11.2766 37.8002C11.3102 37.7787 11.3041 37.745 11.2644 37.7205C11.2246 37.699 11.1635 37.699 11.1299 37.7205C11.0962 37.745 11.1023 37.7787 11.1421 37.8002Z" fill="white"/>
<path fill-rule="evenodd" clip-rule="evenodd" d="M11.1543 37.7942C11.1879 37.8126 11.2338 37.8126 11.2613 37.7942C11.2888 37.7757 11.2827 37.7481 11.2491 37.7328C11.2154 37.7144 11.1696 37.7144 11.1421 37.7328C11.1176 37.7481 11.1237 37.7757 11.1543 37.7942Z" fill="white"/>
<path fill-rule="evenodd" clip-rule="evenodd" d="M11.0321 38.1591C11.0687 38.1836 11.1299 38.1867 11.1666 38.1683C11.2063 38.1499 11.2063 38.1131 11.1696 38.0916C11.1329 38.0671 11.0718 38.064 11.0351 38.0824C10.9954 38.1008 10.9954 38.1345 11.0321 38.1591Z" fill="white"/>
<path fill-rule="evenodd" clip-rule="evenodd" d="M11.0473 38.1529C11.0748 38.1714 11.1238 38.1744 11.1543 38.1621C11.1849 38.1468 11.1849 38.1192 11.1574 38.1008C11.1268 38.0824 11.081 38.0793 11.0504 38.0916C11.0198 38.1069 11.0168 38.1345 11.0473 38.1529Z" fill="white"/>
<path fill-rule="evenodd" clip-rule="evenodd" d="M10.9678 38.5241C10.9984 38.5517 11.0565 38.5609 11.1023 38.5456C11.1451 38.5303 11.1574 38.4965 11.1298 38.472C11.0993 38.4444 11.0412 38.4352 10.9954 38.4505C10.9495 38.4628 10.9373 38.4965 10.9678 38.5241Z" fill="white"/>
<path fill-rule="evenodd" clip-rule="evenodd" d="M10.9831 38.5179C11.0076 38.5394 11.0534 38.5486 11.0901 38.5363C11.1237 38.524 11.1329 38.4995 11.1115 38.478C11.0871 38.4565 11.0412 38.4473 11.0045 38.4596C10.9709 38.4688 10.9617 38.4964 10.9831 38.5179Z" fill="white"/>
<path fill-rule="evenodd" clip-rule="evenodd" d="M11.2002 37.6008C11.246 37.6192 11.3041 37.6161 11.3347 37.5916C11.3652 37.5671 11.3499 37.5333 11.3071 37.5118C11.2613 37.4934 11.2032 37.4965 11.1726 37.521C11.1451 37.5456 11.1574 37.5824 11.2002 37.6008Z" fill="white"/>
<path fill-rule="evenodd" clip-rule="evenodd" d="M11.2124 37.5917C11.2491 37.6071 11.2949 37.604 11.3163 37.5856C11.3408 37.5672 11.3286 37.5396 11.2949 37.5242C11.2583 37.5089 11.2124 37.512 11.1879 37.5304C11.1665 37.5488 11.1757 37.5764 11.2124 37.5917Z" fill="white"/>
<path fill-rule="evenodd" clip-rule="evenodd" d="M11.1054 37.9782C11.1451 37.9997 11.2063 37.9997 11.2399 37.9782C11.2735 37.9567 11.2674 37.923 11.2277 37.8984C11.1879 37.877 11.1268 37.877 11.0932 37.8984C11.0596 37.9199 11.0657 37.9536 11.1054 37.9782Z" fill="white"/>
<path fill-rule="evenodd" clip-rule="evenodd" d="M11.1176 37.969C11.1512 37.9874 11.1971 37.9874 11.2246 37.969C11.2521 37.9506 11.246 37.9229 11.2124 37.9076C11.1788 37.8892 11.1329 37.8892 11.1054 37.9076C11.0809 37.9229 11.087 37.9506 11.1176 37.969Z" fill="white"/>
<path fill-rule="evenodd" clip-rule="evenodd" d="M11.0045 38.3371C11.0412 38.3616 11.1024 38.3647 11.1421 38.3463C11.1818 38.3279 11.1818 38.2941 11.1452 38.2696C11.1085 38.245 11.0473 38.242 11.0107 38.2604C10.9679 38.2757 10.9679 38.3125 11.0045 38.3371Z" fill="white"/>
<path fill-rule="evenodd" clip-rule="evenodd" d="M11.0198 38.3278C11.0504 38.3462 11.0963 38.3492 11.1268 38.337C11.1574 38.3216 11.1574 38.294 11.1299 38.2756C11.0993 38.2572 11.0535 38.2541 11.0229 38.2664C10.9923 38.2817 10.9893 38.3093 11.0198 38.3278Z" fill="white"/>
<path fill-rule="evenodd" clip-rule="evenodd" d="M10.8853 38.6899C10.9159 38.7175 10.974 38.7267 11.0198 38.7114C11.0626 38.6961 11.0748 38.6623 11.0473 38.6378C11.0168 38.6102 10.9587 38.601 10.9128 38.6132C10.87 38.6316 10.8578 38.6654 10.8853 38.6899Z" fill="white"/>
<path fill-rule="evenodd" clip-rule="evenodd" d="M10.9037 38.6868C10.9281 38.7083 10.974 38.7144 11.0076 38.7052C11.0443 38.693 11.0535 38.6684 11.029 38.647C11.0046 38.6255 10.9587 38.6163 10.922 38.6285C10.8884 38.6377 10.8792 38.6654 10.9037 38.6868Z" fill="white"/>
<path fill-rule="evenodd" clip-rule="evenodd" d="M10.6041 37.3708C10.5582 37.3831 10.5002 37.3677 10.4757 37.3401C10.4513 37.3125 10.4696 37.2788 10.5155 37.2665C10.5613 37.2542 10.6194 37.2696 10.6438 37.2972C10.6713 37.3278 10.653 37.3616 10.6041 37.3708Z" fill="white"/>
<path fill-rule="evenodd" clip-rule="evenodd" d="M10.5949 37.3616C10.5582 37.3708 10.5124 37.3585 10.494 37.337C10.4757 37.3155 10.491 37.2879 10.5277 37.2787C10.5643 37.2695 10.6102 37.2818 10.6285 37.3033C10.6469 37.3278 10.6347 37.3524 10.5949 37.3616Z" fill="white"/>
<path fill-rule="evenodd" clip-rule="evenodd" d="M11.2613 37.5579C11.243 37.5334 11.246 37.5211 11.1115 37.5395C10.8425 37.5763 10.7172 37.4045 10.6285 37.3033C10.6285 37.3033 10.4696 37.2788 10.5124 37.3646C10.5124 37.3646 10.708 37.607 10.9037 37.6101C10.9037 37.6101 10.9037 37.6101 10.9067 37.6101C10.9434 37.6162 10.9923 37.6193 11.0534 37.6193C11.2766 37.6131 11.2796 37.5794 11.2613 37.5579Z" fill="#BCBEC0"/>
<path fill-rule="evenodd" clip-rule="evenodd" d="M10.6163 37.7543C10.5735 37.7696 10.5124 37.7573 10.4849 37.7297C10.4543 37.7021 10.4665 37.6684 10.5124 37.6561C10.5552 37.6408 10.6163 37.653 10.6469 37.6806C10.6713 37.7052 10.6622 37.742 10.6163 37.7543Z" fill="white"/>
<path fill-rule="evenodd" clip-rule="evenodd" d="M10.6041 37.745C10.5674 37.7573 10.5215 37.7481 10.4971 37.7266C10.4726 37.7052 10.4849 37.6775 10.5185 37.6683C10.5521 37.6561 10.601 37.6653 10.6224 37.6867C10.6499 37.7051 10.6408 37.7328 10.6041 37.745Z" fill="white"/>
<path fill-rule="evenodd" clip-rule="evenodd" d="M11.1757 37.9382C11.1604 37.9137 11.1665 37.8953 11.029 37.9106C11.0045 37.9137 10.9801 37.9137 10.9526 37.9137C10.76 37.8615 10.7691 37.8155 10.6255 37.6867C10.6255 37.6867 10.4635 37.6713 10.5215 37.7542C10.5215 37.7542 10.6041 37.8339 10.708 37.8953C10.7202 37.9352 10.7753 37.9781 10.9556 37.9842C11.1788 37.9934 11.1879 37.9597 11.1757 37.9382Z" fill="#BCBEC0"/>
<path fill-rule="evenodd" clip-rule="evenodd" d="M10.6622 38.1255C10.6224 38.1439 10.5613 38.1378 10.5277 38.1102C10.4941 38.0857 10.4971 38.0488 10.5399 38.0335C10.5796 38.0182 10.6408 38.0243 10.6744 38.0488C10.708 38.0765 10.7019 38.1102 10.6622 38.1255Z" fill="white"/>
<path fill-rule="evenodd" clip-rule="evenodd" d="M10.6499 38.1163C10.6194 38.1286 10.5705 38.1255 10.543 38.1041C10.5154 38.0826 10.5185 38.055 10.5521 38.0427C10.5827 38.0274 10.6316 38.0335 10.6591 38.055C10.6866 38.0764 10.6805 38.1041 10.6499 38.1163Z" fill="white"/>
<path fill-rule="evenodd" clip-rule="evenodd" d="M11.084 38.3033C11.0779 38.288 11.0779 38.2757 11.0534 38.2696C11.0473 38.2665 11.0381 38.2634 11.0259 38.2603C10.8119 38.2205 10.8303 38.1806 10.6591 38.0579C10.6591 38.0579 10.4971 38.0548 10.5705 38.1346C10.5705 38.1346 10.6041 38.1622 10.656 38.1959C10.9587 38.3953 11.0901 38.3248 11.084 38.3033Z" fill="#BCBEC0"/>
<path fill-rule="evenodd" clip-rule="evenodd" d="M10.6622 38.4966C10.6286 38.5181 10.5674 38.5181 10.5277 38.4966C10.4879 38.4751 10.4818 38.4383 10.5154 38.4199C10.5491 38.3984 10.6102 38.3984 10.6499 38.4199C10.6897 38.4383 10.6958 38.4751 10.6622 38.4966Z" fill="white"/>
<path fill-rule="evenodd" clip-rule="evenodd" d="M10.6469 38.4874C10.6194 38.5027 10.5705 38.5027 10.5399 38.4874C10.5063 38.469 10.5032 38.4413 10.5307 38.426C10.5583 38.4076 10.6041 38.4107 10.6377 38.426C10.6683 38.4444 10.6744 38.472 10.6469 38.4874Z" fill="white"/>
<path fill-rule="evenodd" clip-rule="evenodd" d="M10.9801 38.6254C10.8028 38.5794 10.8334 38.5395 10.6347 38.426C10.6347 38.426 10.4788 38.4383 10.5735 38.5089C10.5735 38.5089 10.7753 38.6684 10.9495 38.6898C10.9679 38.6898 10.9831 38.6868 11.0015 38.6837C11.0015 38.6837 11.0565 38.6469 10.9801 38.6254Z" fill="#BCBEC0"/>
<path fill-rule="evenodd" clip-rule="evenodd" d="M10.5949 37.5457C10.5491 37.558 10.491 37.5426 10.4665 37.515C10.4421 37.4874 10.4604 37.4537 10.5093 37.4445C10.5552 37.4322 10.6133 37.4475 10.6377 37.4751C10.6622 37.5028 10.6408 37.5334 10.5949 37.5457Z" fill="white"/>
<path fill-rule="evenodd" clip-rule="evenodd" d="M10.5857 37.5365C10.5491 37.5457 10.5032 37.5334 10.4849 37.5119C10.4665 37.4904 10.4788 37.4628 10.5185 37.4567C10.5552 37.4475 10.601 37.4598 10.6194 37.4812C10.6377 37.4997 10.6224 37.5273 10.5857 37.5365Z" fill="white"/>
<path fill-rule="evenodd" clip-rule="evenodd" d="M11.2093 37.3555C11.1054 37.4383 11.084 37.4874 11.0015 37.5181C10.9251 37.5487 10.8456 37.561 10.6927 37.5027C10.5674 37.4536 10.5644 37.472 10.5399 37.4935C10.5185 37.5119 10.5185 37.5365 10.7325 37.5886C11.0932 37.6776 11.3133 37.4352 11.3133 37.4352C11.3714 37.3585 11.2093 37.3555 11.2093 37.3555Z" fill="white"/>
<path fill-rule="evenodd" clip-rule="evenodd" d="M10.6224 37.9322C10.5796 37.9476 10.5185 37.9353 10.4879 37.9077C10.4574 37.8801 10.4696 37.8463 10.5154 37.8341C10.5613 37.8187 10.6194 37.831 10.6499 37.8586C10.6774 37.8862 10.6652 37.92 10.6224 37.9322Z" fill="white"/>
<path fill-rule="evenodd" clip-rule="evenodd" d="M10.6102 37.923C10.5766 37.9353 10.5277 37.9261 10.5063 37.9046C10.4818 37.8831 10.494 37.8555 10.5277 37.8463C10.5613 37.834 10.6102 37.8432 10.6316 37.8647C10.6561 37.8862 10.6469 37.9107 10.6102 37.923Z" fill="white"/>
<path d="M11.2338 37.8156C11.3041 37.7451 11.1451 37.7297 11.1451 37.7297C10.9801 37.834 11.0198 37.8801 10.7967 37.8954C10.76 37.8954 10.7294 37.8862 10.7111 37.8801C10.5766 37.8402 10.5796 37.8586 10.5613 37.8801C10.5429 37.8985 10.5491 37.9322 10.7661 37.9629C11.0565 38.0089 11.2338 37.8156 11.2338 37.8156Z" fill="white"/>
<path d="M11.0932 37.8984C11.0932 37.8984 11.0932 37.9015 11.0932 37.9076C11.0962 37.9046 11.0962 37.9015 11.0932 37.8984Z" fill="white"/>
<path fill-rule="evenodd" clip-rule="evenodd" d="M10.6591 38.3064C10.6194 38.3248 10.5582 38.3187 10.5246 38.2911C10.491 38.2665 10.494 38.2297 10.5368 38.2144C10.5766 38.196 10.6377 38.2021 10.6713 38.2297C10.705 38.2543 10.6988 38.288 10.6591 38.3064Z" fill="white"/>
<path fill-rule="evenodd" clip-rule="evenodd" d="M10.6438 38.2942C10.6132 38.3065 10.5643 38.3034 10.5368 38.2819C10.5093 38.2604 10.5124 38.2359 10.546 38.2206C10.5766 38.2083 10.6255 38.2114 10.653 38.2328C10.6805 38.2543 10.6774 38.2819 10.6438 38.2942Z" fill="white"/>
<path fill-rule="evenodd" clip-rule="evenodd" d="M11.0473 38.0918C10.8578 38.1808 10.867 38.2268 10.65 38.2268C10.6377 38.2268 10.6286 38.2298 10.6224 38.2298C10.5949 38.2329 10.5949 38.2452 10.5858 38.2575C10.5735 38.2789 10.6652 38.3219 11.0229 38.2206C11.081 38.1961 11.1176 38.1777 11.1176 38.1777C11.2094 38.1163 11.0473 38.0918 11.0473 38.0918Z" fill="white"/>
<path fill-rule="evenodd" clip-rule="evenodd" d="M10.7111 38.6745C10.6774 38.696 10.6163 38.696 10.5766 38.6745C10.5368 38.653 10.5307 38.6162 10.5643 38.5947C10.598 38.5732 10.6591 38.5732 10.6988 38.5947C10.7386 38.6193 10.7447 38.653 10.7111 38.6745Z" fill="white"/>
<path fill-rule="evenodd" clip-rule="evenodd" d="M10.6958 38.6684C10.6683 38.6838 10.6194 38.6838 10.5888 38.6684C10.5552 38.65 10.5521 38.6224 10.5796 38.6071C10.6071 38.5887 10.6561 38.5887 10.6866 38.6071C10.7172 38.6224 10.7233 38.65 10.6958 38.6684Z" fill="white"/>
<path fill-rule="evenodd" clip-rule="evenodd" d="M11.0045 38.4597C10.8211 38.5763 10.6163 38.6162 10.6347 38.6192C10.6316 38.6254 10.6316 38.6315 10.6316 38.6376C10.6255 38.6591 10.6438 38.7174 11.0382 38.5579C11.0473 38.5548 11.0535 38.5517 11.0535 38.5517C11.1574 38.4996 11.0045 38.4597 11.0045 38.4597Z" fill="white"/>
<path fill-rule="evenodd" clip-rule="evenodd" d="M10.9648 37.3002C10.9648 37.3002 11.9277 37.3462 11.8513 36.837C11.7749 36.3308 11.0993 37.0425 10.9648 37.245L11.0198 37.2573C11.0198 37.2573 11.4233 36.7756 11.6312 36.7818C11.8391 36.7879 11.7749 36.9474 11.7015 36.9996C11.6373 37.0456 11.4386 37.202 11.1146 37.2726C11.0932 37.2757 11.0229 37.245 11.0015 37.2481C10.974 37.2573 10.9954 37.2971 10.9648 37.3002Z" fill="#BCBEC0"/>
<path fill-rule="evenodd" clip-rule="evenodd" d="M11.029 37.1929C11.029 37.1929 10.7936 36.5855 10.4146 36.5916C10.0325 36.5947 9.99273 36.8769 10.5124 37.1131C11.0351 37.3493 11.0351 37.3493 11.0351 37.3493L11.0473 37.2634C11.0473 37.2634 10.6652 37.1131 10.494 36.9935C10.3259 36.8738 10.1547 36.7296 10.3229 36.7112C10.491 36.6928 10.6163 36.699 10.8089 36.9567C10.9006 37.0794 10.9526 37.2113 10.9923 37.2634C11.0351 37.3186 11.0657 37.288 11.0657 37.288L11.029 37.1929Z" fill="#BCBEC0"/>
<path fill-rule="evenodd" clip-rule="evenodd" d="M10.9526 37.3463C10.9526 37.3463 10.9128 37.4414 10.7386 37.6163C10.5613 37.7911 10.5491 38.1163 10.5643 38.1286C10.5796 38.1439 10.5338 38.193 10.5338 38.193C10.5338 38.193 10.4757 38.1899 10.4482 38.0856C10.4207 37.9783 10.3809 37.7697 10.6683 37.558C10.9556 37.3463 10.9984 37.242 10.9984 37.242C10.9984 37.242 11.1115 37.2359 10.9526 37.3463Z" fill="#D1D3D4"/>
<path fill-rule="evenodd" clip-rule="evenodd" d="M10.9893 37.2205C10.9893 37.2205 11.0596 37.5702 11.0657 37.7696C11.0718 37.9659 11.2002 38.2481 11.1757 38.3524C11.1482 38.4598 11.2399 38.4598 11.2399 38.4598C11.2399 38.4598 11.3011 38.4138 11.1788 38.0395C11.0565 37.6653 11.1115 37.5303 11.084 37.4107C11.0535 37.2849 11.0596 37.2389 10.9893 37.2205Z" fill="#D1D3D4"/>
<path d="M19.2182 38.3433C19.2182 38.3433 19.3466 38.8678 19.3007 39.1378C19.2549 39.4078 19.1265 39.9262 18.0322 39.9784L17.9924 39.7452C17.9955 39.7452 19.2274 38.3831 19.2182 38.3433Z" fill="#D3D5D6"/>
<path d="M16.6596 38.5796C16.6596 38.5796 16.6291 39.1195 16.7208 39.3772C16.8125 39.6349 17.0356 40.1196 18.1177 39.9723L18.1116 39.7361C18.1147 39.7361 16.6596 38.6195 16.6596 38.5796Z" fill="#D3D5D6"/>
<path fill-rule="evenodd" clip-rule="evenodd" d="M18.6038 36.8771C18.6038 36.8771 17.8243 36.7145 17.0448 37.0121C17.0448 37.0121 17.2068 37.4814 17.3383 37.5704C17.4697 37.6594 18.2461 37.6747 18.2675 37.6655C18.2889 37.6532 18.6038 36.8771 18.6038 36.8771Z" fill="white"/>
<path fill-rule="evenodd" clip-rule="evenodd" d="M16.8614 37.2972C16.7666 36.38 17.216 37.0672 17.2557 37.1438C17.3199 37.2788 18.3287 37.1868 18.3684 37.0426C18.3928 36.9598 18.6466 36.1284 18.8086 37.1531C18.8086 37.1531 19.2824 38.509 19.2488 38.9477C19.1418 39.6042 19.0409 39.687 18.0566 39.779C17.0723 39.868 16.8767 39.7729 16.733 39.1777C16.623 38.7513 16.8614 37.2972 16.8614 37.2972Z" fill="#E50914"/>
<path fill-rule="evenodd" clip-rule="evenodd" d="M17.6653 39.7944C17.6745 39.8895 17.8121 39.8803 17.9832 39.865C18.1544 39.8496 18.292 39.8343 18.2828 39.7392C18.2736 39.6441 18.1269 39.5797 17.9557 39.595C17.7876 39.6104 17.6562 39.6993 17.6653 39.7944Z" fill="#D3D5D6"/>
<path fill-rule="evenodd" clip-rule="evenodd" d="M16.7361 39.1748C16.7024 39.049 16.6994 38.8281 16.7147 38.5827C16.7697 38.5459 16.8278 38.5152 16.8797 38.4876C17.1793 38.3311 17.7112 37.9109 17.5553 38.5428C17.5553 38.5428 16.8247 39.0214 17.1396 39.7515C16.9072 39.6748 16.8125 39.4999 16.7361 39.1748Z" fill="#E50914"/>
<path fill-rule="evenodd" clip-rule="evenodd" d="M19.1509 38.2943C18.8758 37.8311 18.3684 37.7728 18.3684 37.7728L18.3623 37.5642C18.6374 37.5734 18.8728 37.7482 19.0378 37.92C18.7963 37.466 18.3562 37.4384 18.3562 37.4384L18.347 37.196C18.5976 37.2574 18.7933 37.3924 18.9278 37.512C18.9981 37.7298 19.0867 38.0213 19.1509 38.2943Z" fill="#E50914"/>
<path fill-rule="evenodd" clip-rule="evenodd" d="M17.3382 37.5304C17.3382 37.5304 16.9103 37.6378 16.7544 38.1286C16.8858 37.9292 17.0876 37.7176 17.3566 37.6562L17.3902 37.8617C17.3902 37.8617 16.9103 38.009 16.7208 38.5029C16.7391 38.2237 16.7758 37.92 16.8064 37.6869C16.9164 37.5488 17.0784 37.3893 17.3046 37.2881L17.3382 37.5304Z" fill="#E50914"/>
<path fill-rule="evenodd" clip-rule="evenodd" d="M18.3317 38.4723C17.9465 37.8096 18.6618 38.1962 18.9859 38.2943C19.0439 38.3128 19.1051 38.3342 19.1693 38.3588C19.2243 38.595 19.261 38.8097 19.2487 38.9447C19.1937 39.2852 19.1387 39.4723 18.9614 39.5859C19.2426 38.7668 18.3317 38.4723 18.3317 38.4723Z" fill="#E50914"/>
<path d="M18.2736 36.963C18.2736 36.963 18.295 38.6349 18.1177 38.8404C17.9404 39.0459 17.7601 38.8496 17.5797 38.2514C17.3994 37.6501 17.2343 37.0335 17.2343 37.0335C17.2343 37.0335 17.1457 36.8219 17.4819 36.7083C17.8487 36.5856 18.3715 36.6685 18.2736 36.963Z" fill="#20245E"/>
<path fill-rule="evenodd" clip-rule="evenodd" d="M18.0383 37.1469C18.0383 37.1469 18.0719 37.0395 18.3348 37.0457C18.3348 37.0457 18.4173 38.0764 18.3317 38.4752C18.2461 38.871 18.2003 39.0642 17.8824 39.0581C17.5645 39.052 17.4391 38.5335 17.3169 38.1132C17.1946 37.693 17.1365 37.1776 17.1365 37.1776C17.1365 37.1776 17.3444 37.0947 17.4789 37.2021C17.4789 37.2021 17.6928 38.9354 17.9221 38.9538C18.1544 38.9661 18.1239 37.5365 18.0383 37.1469Z" fill="white"/>
<path fill-rule="evenodd" clip-rule="evenodd" d="M17.5125 37.429C17.4667 37.4474 17.4086 37.4444 17.378 37.4198C17.3474 37.3953 17.3627 37.3615 17.4055 37.3431C17.4483 37.3247 17.5095 37.3278 17.537 37.3523C17.5706 37.3738 17.5584 37.4106 17.5125 37.429Z" fill="white"/>
<path fill-rule="evenodd" clip-rule="evenodd" d="M17.5033 37.4198C17.4666 37.4352 17.4208 37.4321 17.3994 37.4137C17.3749 37.3953 17.3872 37.3677 17.4208 37.3524C17.4575 37.337 17.5033 37.3401 17.5247 37.3585C17.5461 37.3769 17.537 37.4045 17.5033 37.4198Z" fill="white"/>
<path fill-rule="evenodd" clip-rule="evenodd" d="M17.592 37.8034C17.5523 37.8249 17.4911 37.8249 17.4575 37.8034C17.4239 37.7819 17.43 37.7451 17.4697 37.7236C17.5095 37.7022 17.5706 37.7022 17.6042 37.7236C17.6378 37.7482 17.6348 37.7819 17.592 37.8034Z" fill="white"/>
<path fill-rule="evenodd" clip-rule="evenodd" d="M17.5798 37.7973C17.5461 37.8157 17.5003 37.8157 17.4728 37.7973C17.4453 37.7789 17.4514 37.7513 17.485 37.736C17.5186 37.7176 17.5645 37.7176 17.592 37.736C17.6164 37.7513 17.6134 37.7789 17.5798 37.7973Z" fill="white"/>
<path fill-rule="evenodd" clip-rule="evenodd" d="M17.7051 38.1623C17.6684 38.1868 17.6073 38.1929 17.5675 38.1715C17.5278 38.1531 17.5278 38.1193 17.5645 38.0948C17.6011 38.0702 17.6623 38.0672 17.699 38.0856C17.7387 38.104 17.7418 38.1377 17.7051 38.1623Z" fill="white"/>
<path fill-rule="evenodd" clip-rule="evenodd" d="M17.6898 38.1561C17.6623 38.1745 17.6134 38.1807 17.5828 38.1653C17.5522 38.15 17.5522 38.1224 17.5797 38.104C17.6103 38.0856 17.6562 38.0825 17.6867 38.0948C17.7173 38.107 17.7173 38.1346 17.6898 38.1561Z" fill="white"/>
<path fill-rule="evenodd" clip-rule="evenodd" d="M17.7693 38.5273C17.7387 38.5549 17.6806 38.5642 17.6348 38.5488C17.592 38.5365 17.5798 38.5028 17.6073 38.4752C17.6378 38.4476 17.6959 38.4384 17.7418 38.4506C17.7876 38.466 17.7999 38.4997 17.7693 38.5273Z" fill="white"/>
<path fill-rule="evenodd" clip-rule="evenodd" d="M17.754 38.5213C17.7296 38.5428 17.6837 38.552 17.647 38.5397C17.6103 38.5274 17.6042 38.5029 17.6256 38.4814C17.6501 38.4599 17.6959 38.4507 17.7296 38.463C17.7662 38.4722 17.7754 38.4998 17.754 38.5213Z" fill="white"/>
<path fill-rule="evenodd" clip-rule="evenodd" d="M17.5339 37.6039C17.488 37.6223 17.43 37.6193 17.4025 37.5978C17.3719 37.5733 17.3872 37.5395 17.43 37.5211C17.4758 37.5027 17.5339 37.5058 17.5614 37.5303C17.592 37.5487 17.5798 37.5825 17.5339 37.6039Z" fill="white"/>
<path fill-rule="evenodd" clip-rule="evenodd" d="M17.5217 37.5946C17.485 37.61 17.4391 37.6069 17.4177 37.5885C17.3933 37.5701 17.4055 37.5425 17.4391 37.5272C17.4758 37.5118 17.5217 37.5149 17.5431 37.5333C17.5675 37.5517 17.5584 37.5793 17.5217 37.5946Z" fill="white"/>
<path fill-rule="evenodd" clip-rule="evenodd" d="M17.6287 37.9782C17.5889 37.9997 17.5278 37.9997 17.4942 37.9782C17.4606 37.9567 17.4667 37.923 17.5064 37.8984C17.5461 37.877 17.6073 37.877 17.6409 37.8984C17.6776 37.923 17.6715 37.9567 17.6287 37.9782Z" fill="white"/>
<path fill-rule="evenodd" clip-rule="evenodd" d="M17.6164 37.9721C17.5828 37.9905 17.537 37.9905 17.5095 37.9721C17.4819 37.9537 17.4881 37.9261 17.5186 37.9108C17.5522 37.8924 17.5981 37.8924 17.6256 37.9108C17.6531 37.9292 17.6501 37.9537 17.6164 37.9721Z" fill="white"/>
<path fill-rule="evenodd" clip-rule="evenodd" d="M17.7326 38.3373C17.6959 38.3618 17.6348 38.3649 17.5981 38.3465C17.5584 38.3281 17.5584 38.2944 17.595 38.2698C17.6317 38.2453 17.6929 38.2422 17.7326 38.2606C17.7662 38.279 17.7693 38.3128 17.7326 38.3373Z" fill="white"/>
<path fill-rule="evenodd" clip-rule="evenodd" d="M17.7173 38.3312C17.6867 38.3496 17.6409 38.3526 17.6103 38.3404C17.5798 38.325 17.5798 38.2974 17.6073 38.279C17.6378 38.2606 17.6837 38.2575 17.7143 38.2698C17.7448 38.2852 17.7479 38.3128 17.7173 38.3312Z" fill="white"/>
<path fill-rule="evenodd" clip-rule="evenodd" d="M17.8518 38.6929C17.8212 38.7205 17.7632 38.7297 17.7173 38.7175C17.6745 38.7052 17.6623 38.6715 17.6898 38.6439C17.7204 38.6162 17.7784 38.607 17.8243 38.6224C17.8671 38.6316 17.8793 38.6653 17.8518 38.6929Z" fill="white"/>
<path fill-rule="evenodd" clip-rule="evenodd" d="M17.8335 38.6868C17.809 38.7083 17.7632 38.7175 17.7295 38.7052C17.6929 38.693 17.6837 38.6684 17.7081 38.647C17.7326 38.6255 17.7784 38.6163 17.8151 38.6285C17.8487 38.6408 17.8579 38.6654 17.8335 38.6868Z" fill="white"/>
<path fill-rule="evenodd" clip-rule="evenodd" d="M18.1269 37.3739C18.1758 37.3862 18.2308 37.3709 18.2553 37.3402C18.2798 37.3126 18.2614 37.2788 18.2125 37.2696C18.1636 37.2573 18.1086 37.2727 18.0841 37.3034C18.0627 37.331 18.0811 37.3616 18.1269 37.3739Z" fill="white"/>
<path fill-rule="evenodd" clip-rule="evenodd" d="M18.1361 37.3617C18.1728 37.3709 18.2186 37.3586 18.24 37.3371C18.2584 37.3156 18.2431 37.288 18.2064 37.2819C18.1697 37.2727 18.1239 37.285 18.1055 37.3064C18.0872 37.3279 18.0994 37.3525 18.1361 37.3617Z" fill="white"/>
<path fill-rule="evenodd" clip-rule="evenodd" d="M17.4728 37.561C17.4911 37.5365 17.4881 37.5242 17.6226 37.5426C17.8916 37.5794 18.0169 37.4076 18.1055 37.3064C18.1055 37.3064 18.2645 37.2818 18.2217 37.3647C18.2217 37.3647 18.0261 37.607 17.8304 37.6131C17.8304 37.6131 17.8304 37.6131 17.8274 37.6131C17.7907 37.6193 17.7418 37.6254 17.6806 37.6224C17.4606 37.6162 17.4544 37.5825 17.4728 37.561Z" fill="#BCBEC0"/>
<path fill-rule="evenodd" clip-rule="evenodd" d="M18.1178 37.7543C18.1606 37.7696 18.2217 37.7573 18.2523 37.7297C18.2798 37.7021 18.2706 37.6684 18.2247 37.6561C18.182 37.6408 18.1208 37.653 18.0933 37.6806C18.0627 37.7082 18.075 37.742 18.1178 37.7543Z" fill="white"/>
<path fill-rule="evenodd" clip-rule="evenodd" d="M18.13 37.745C18.1636 37.7573 18.2125 37.7481 18.2339 37.7266C18.2584 37.7052 18.2462 37.6775 18.2125 37.6683C18.1758 37.6561 18.13 37.6653 18.1086 37.6867C18.0841 37.7082 18.0964 37.7358 18.13 37.745Z" fill="white"/>
<path fill-rule="evenodd" clip-rule="evenodd" d="M17.5584 37.9415C17.5737 37.917 17.5675 37.8986 17.7051 37.9139C17.7296 37.917 17.754 37.917 17.7815 37.917C17.9741 37.8648 17.9649 37.8158 18.1086 37.6869C18.1086 37.6869 18.2706 37.6716 18.2125 37.7544C18.2125 37.7544 18.13 37.8342 18.0261 37.8986C18.0138 37.9385 17.9588 37.9814 17.7785 37.9875C17.5553 37.9968 17.5461 37.963 17.5584 37.9415Z" fill="#BCBEC0"/>
<path fill-rule="evenodd" clip-rule="evenodd" d="M18.075 38.1287C18.1147 38.1471 18.1758 38.1379 18.2095 38.1133C18.2431 38.0888 18.237 38.052 18.1972 38.0366C18.1575 38.0182 18.0964 38.0244 18.0627 38.052C18.0291 38.0765 18.0322 38.1103 18.075 38.1287Z" fill="white"/>
<path fill-rule="evenodd" clip-rule="evenodd" d="M18.0872 38.1194C18.1178 38.1316 18.1667 38.1286 18.1942 38.1071C18.2217 38.0887 18.2186 38.0611 18.185 38.0458C18.1544 38.0335 18.1055 38.0365 18.078 38.058C18.0505 38.0764 18.0536 38.104 18.0872 38.1194Z" fill="white"/>
<path fill-rule="evenodd" clip-rule="evenodd" d="M17.6531 38.3066C17.6592 38.2913 17.6592 38.279 17.6837 38.2729C17.6898 38.2698 17.699 38.2667 17.7112 38.2637C17.9252 38.2238 17.9068 38.1808 18.078 38.0581C18.078 38.0581 18.24 38.0551 18.1667 38.1348C18.1667 38.1348 18.133 38.1624 18.0811 38.1962C17.7784 38.3986 17.6439 38.3281 17.6531 38.3066Z" fill="#BCBEC0"/>
<path fill-rule="evenodd" clip-rule="evenodd" d="M18.075 38.4967C18.1086 38.5182 18.1697 38.5182 18.2095 38.4967C18.2492 38.4753 18.2553 38.4385 18.2217 38.417C18.1881 38.3955 18.1269 38.3955 18.0872 38.417C18.0474 38.4415 18.0413 38.4753 18.075 38.4967Z" fill="white"/>
<path fill-rule="evenodd" clip-rule="evenodd" d="M18.0902 38.4906C18.1177 38.5059 18.1667 38.5059 18.1972 38.4906C18.2308 38.4722 18.2339 38.4446 18.2064 38.4292C18.1789 38.4139 18.13 38.4139 18.0994 38.4292C18.0688 38.4446 18.0627 38.4722 18.0902 38.4906Z" fill="white"/>
<path fill-rule="evenodd" clip-rule="evenodd" d="M17.7357 38.6869C17.7509 38.69 17.7693 38.693 17.7876 38.693C17.9619 38.6715 18.1636 38.512 18.1636 38.512C18.2584 38.4384 18.1025 38.4292 18.1025 38.4292C17.9068 38.5427 17.9343 38.5826 17.7571 38.6286C17.6806 38.647 17.7357 38.6869 17.7357 38.6869Z" fill="#BCBEC0"/>
<path fill-rule="evenodd" clip-rule="evenodd" d="M18.1392 37.5488C18.185 37.561 18.2431 37.5457 18.2675 37.515C18.292 37.4874 18.2737 37.4537 18.2247 37.4445C18.1789 37.4322 18.1208 37.4475 18.0964 37.4751C18.075 37.5028 18.0933 37.5365 18.1392 37.5488Z" fill="white"/>
<path fill-rule="evenodd" clip-rule="evenodd" d="M18.1483 37.5366C18.185 37.5458 18.2309 37.5335 18.2523 37.5121C18.2706 37.4906 18.2553 37.463 18.2186 37.4538C18.1819 37.4446 18.1361 37.4568 18.1178 37.4783C18.0964 37.5029 18.1116 37.5274 18.1483 37.5366Z" fill="white"/>
<path fill-rule="evenodd" clip-rule="evenodd" d="M17.5247 37.3586C17.6287 37.4415 17.6531 37.4906 17.7326 37.5212C17.809 37.5519 17.8885 37.5642 18.0413 37.5028C18.1697 37.4537 18.1697 37.4721 18.1942 37.4936C18.2156 37.512 18.2156 37.5366 18.0016 37.5887C17.6409 37.6777 17.4208 37.4353 17.4208 37.4353C17.3627 37.3617 17.5247 37.3586 17.5247 37.3586Z" fill="white"/>
<path fill-rule="evenodd" clip-rule="evenodd" d="M18.1147 37.9353C18.1575 37.9476 18.2186 37.9384 18.2492 37.9107C18.2798 37.8831 18.2675 37.8494 18.2217 37.8371C18.1789 37.8248 18.1178 37.8341 18.0903 37.8617C18.0566 37.8862 18.0689 37.92 18.1147 37.9353Z" fill="white"/>
<path fill-rule="evenodd" clip-rule="evenodd" d="M18.1239 37.923C18.1606 37.9353 18.2064 37.9261 18.2278 37.9046C18.2523 37.8831 18.24 37.8555 18.2064 37.8463C18.1728 37.834 18.1239 37.8432 18.1025 37.8647C18.0811 37.8862 18.0903 37.9138 18.1239 37.923Z" fill="white"/>
<path d="M17.5003 37.8188C17.43 37.7482 17.5889 37.7329 17.5889 37.7329C17.754 37.8372 17.7143 37.8832 17.9374 37.8986C17.9741 37.8986 18.0047 37.8894 18.023 37.8832C18.1575 37.8403 18.1544 37.8618 18.1728 37.8832C18.1911 37.9016 18.185 37.9354 17.968 37.9691C17.6806 38.009 17.5003 37.8188 17.5003 37.8188Z" fill="white"/>
<path fill-rule="evenodd" clip-rule="evenodd" d="M18.078 38.3064C18.1178 38.3248 18.1789 38.3156 18.2125 38.2911C18.2462 38.2665 18.2431 38.2297 18.2003 38.2144C18.1606 38.196 18.0994 38.2021 18.0658 38.2297C18.0322 38.2543 18.0383 38.288 18.078 38.3064Z" fill="white"/>
<path fill-rule="evenodd" clip-rule="evenodd" d="M18.0903 38.2972C18.1239 38.3095 18.1697 38.3064 18.1973 38.285C18.2248 38.2635 18.2217 38.2389 18.1881 38.2236C18.1575 38.2083 18.1086 38.2144 18.0811 38.2359C18.0566 38.2574 18.0597 38.2819 18.0903 38.2972Z" fill="white"/>
<path fill-rule="evenodd" clip-rule="evenodd" d="M17.6868 38.0947C17.8763 38.1837 17.8671 38.2297 18.0841 38.2297C18.0964 38.2297 18.1055 38.2328 18.1117 38.2358C18.1392 38.2389 18.1392 38.2512 18.1483 38.2635C18.1606 38.2849 18.0719 38.3279 17.7112 38.2297C17.6531 38.2052 17.6165 38.1868 17.6165 38.1868C17.5278 38.1193 17.6868 38.0947 17.6868 38.0947Z" fill="white"/>
<path fill-rule="evenodd" clip-rule="evenodd" d="M18.0261 38.6777C18.0597 38.6991 18.1208 38.6991 18.1606 38.6777C18.2003 38.6562 18.2064 38.6194 18.1728 38.5979C18.1392 38.5764 18.078 38.5764 18.0383 38.5979C17.9955 38.6194 17.9924 38.6562 18.0261 38.6777Z" fill="white"/>
<path fill-rule="evenodd" clip-rule="evenodd" d="M18.0413 38.6685C18.0689 38.6839 18.1178 38.6839 18.1483 38.6685C18.182 38.6501 18.185 38.6225 18.1575 38.6072C18.13 38.5888 18.0811 38.5918 18.0505 38.6072C18.0199 38.6225 18.0138 38.6532 18.0413 38.6685Z" fill="white"/>
<path fill-rule="evenodd" clip-rule="evenodd" d="M17.6868 38.5551C17.6868 38.5551 17.6929 38.5581 17.699 38.5612C18.0964 38.7207 18.1117 38.6624 18.1086 38.6379C18.1055 38.6318 18.1055 38.6256 18.1025 38.6195C18.1208 38.6164 17.916 38.5796 17.7326 38.46C17.7326 38.46 17.5798 38.5029 17.6868 38.5551Z" fill="white"/>
<path fill-rule="evenodd" clip-rule="evenodd" d="M17.7693 37.3035C17.7693 37.3035 16.8064 37.3526 16.8797 36.8433C16.9561 36.3372 17.6317 37.0489 17.7662 37.2513L17.7112 37.2636C17.7112 37.2636 17.3077 36.782 17.0998 36.7881C16.8919 36.7942 16.9592 36.9538 17.0295 37.009C17.0937 37.055 17.2924 37.2084 17.6164 37.2789C17.6378 37.282 17.7081 37.2513 17.7295 37.2544C17.7601 37.2605 17.7387 37.3004 17.7693 37.3035Z" fill="#BCBEC0"/>
<path fill-rule="evenodd" clip-rule="evenodd" d="M17.7051 37.193C17.7051 37.193 17.9374 36.5856 18.3195 36.5886C18.7016 36.5917 18.7413 36.8739 18.2217 37.1101C17.702 37.3494 17.702 37.3494 17.702 37.3494L17.6898 37.2635C17.6898 37.2635 18.0719 37.1132 18.2431 36.9936C18.4143 36.8739 18.5824 36.7298 18.4143 36.7113C18.2461 36.6929 18.1208 36.7021 17.9282 36.9598C17.8365 37.0825 17.7845 37.2145 17.7448 37.2666C17.702 37.3218 17.6714 37.2911 17.6714 37.2911L17.7051 37.193Z" fill="#BCBEC0"/>
<path fill-rule="evenodd" clip-rule="evenodd" d="M17.7815 37.3495C17.7815 37.3495 17.8212 37.4446 17.9985 37.6194C18.1758 37.7943 18.188 38.1195 18.1758 38.1317C18.1605 38.1471 18.2064 38.1962 18.2064 38.1962C18.2064 38.1962 18.2645 38.1931 18.292 38.0888C18.3195 37.9814 18.3592 37.7728 18.0719 37.5612C17.7845 37.3495 17.7417 37.2452 17.7417 37.2452C17.7417 37.2452 17.6225 37.239 17.7815 37.3495Z" fill="#D1D3D4"/>
<path fill-rule="evenodd" clip-rule="evenodd" d="M17.7417 37.2207C17.7417 37.2207 17.6714 37.5704 17.6684 37.7698C17.6653 37.9662 17.5339 38.2484 17.5583 38.3527C17.5858 38.4601 17.4941 38.4601 17.4941 38.4601C17.4941 38.4601 17.433 38.414 17.5522 38.0398C17.6745 37.6655 17.6164 37.5305 17.647 37.4109C17.6806 37.2851 17.6714 37.2422 17.7417 37.2207Z" fill="#D1D3D4"/>
<path d="M8.28092 7.00032C8.28398 7.00952 8.28398 7.01873 8.28703 7.02486C8.28703 7.01566 8.28398 7.00952 8.28092 7.00032L9.04207 6.89295V6.89909C9.04207 6.89909 9.04207 6.89602 9.04207 6.89295L9.36915 6.84694C9.36915 6.91136 9.36915 6.94817 9.36915 6.94817C9.36915 6.94817 9.3722 6.91136 9.37526 6.84694L9.72068 6.79785C9.71457 6.88375 9.70539 6.96964 9.69928 7.06168C9.62286 8.01574 9.54338 7.98813 9.43945 8.23661C9.33552 8.4851 9.31412 9.24589 9.31412 9.24589L8.25952 9.16306C8.25952 9.16306 8.26869 8.61701 8.12808 8.22741C8.00886 7.8961 7.98747 7.77645 7.82545 7.22733C7.81017 7.17211 7.79489 7.12303 7.7796 7.07395L8.28092 7.00032Z" fill="#E4AE84"/>
<path d="M8.97483 15.6943C8.92592 15.6206 8.29621 15.3906 8.17394 14.4365C7.88354 12.1695 8.01193 11.1786 8.16477 10.1417C8.31761 9.1048 8.21062 8.3164 8.21062 8.3164L9.41501 8.0127C9.41501 8.0127 9.27134 9.52508 9.83073 10.9454C10.3626 12.2983 10.6133 14.2218 10.3871 15.004C10.1914 16.7434 9.0757 15.8906 8.97483 15.6943Z" fill="#E4AE84"/>
<path d="M9.59842 6.36535C9.43946 6.57702 9.5006 6.96969 9.5006 6.96969C9.5006 6.96969 9.39361 6.86232 9.39361 6.72427L9.0543 6.77335C9.0543 6.85311 9.0543 6.89913 9.0543 6.89913C9.0543 6.89913 9.05125 6.85311 9.04819 6.77642L8.65386 6.83164C8.66303 6.9022 8.66609 6.94208 8.66609 6.94208C8.66609 6.94208 8.65998 6.9022 8.64775 6.83164L8.25342 6.88379C8.26565 6.94821 8.27482 6.9973 8.27787 7.02491C8.27176 7.00036 8.25953 6.95742 8.23202 6.88686L7.91717 6.93287C7.94162 7.0065 7.76739 7.12307 7.79795 7.22737C7.96302 7.7765 7.98442 7.89921 8.10669 8.22745C8.25036 8.61705 8.12809 8.73669 8.12809 8.73669L9.47309 8.73976C9.47309 8.73976 9.3447 8.48207 9.45475 8.23359C9.56174 7.9851 9.82156 7.94829 9.9041 6.99423C9.91633 6.85925 9.94689 6.45124 9.84296 6.37148C9.73597 6.28865 9.59842 6.36535 9.59842 6.36535Z" fill="#010001"/>
<g opacity="0.26">
<path d="M8.73944 10.9424C8.68748 11.2215 8.65385 11.5007 8.61411 11.7768C8.59577 11.9149 8.57438 12.056 8.55603 12.194C8.53464 12.3321 8.51018 12.4701 8.47961 12.6082C8.54686 12.4824 8.58966 12.3443 8.62328 12.2063C8.65997 12.0682 8.68442 11.9302 8.70276 11.7891C8.7211 11.648 8.73333 11.5068 8.73944 11.3657C8.74861 11.2246 8.74861 11.0835 8.73944 10.9424Z" fill="white"/>
<path d="M10.1884 14.2249C10.1119 14.2893 10.0569 14.3629 10.0019 14.4335L9.91937 14.5408C9.89186 14.5776 9.86434 14.6114 9.83072 14.6482C9.88268 14.6451 9.92854 14.6206 9.96828 14.593C10.008 14.5623 10.0416 14.5286 10.0722 14.4887C10.1028 14.4488 10.1272 14.4089 10.1486 14.3629C10.167 14.32 10.1823 14.2739 10.1884 14.2249Z" fill="white"/>
</g>
<path d="M20.6274 7.00032C20.6244 7.00952 20.6244 7.01873 20.6213 7.02486C20.6244 7.01566 20.6244 7.00952 20.6274 7.00032L19.8663 6.89295V6.89909C19.8663 6.89909 19.8663 6.89602 19.8663 6.89295L19.5392 6.84694C19.5392 6.91136 19.5392 6.94817 19.5392 6.94817C19.5392 6.94817 19.5361 6.91136 19.5331 6.84694L19.1877 6.79785C19.1938 6.88375 19.2029 6.96964 19.2091 7.06168C19.2855 8.01574 19.3649 7.98813 19.4689 8.23661C19.5728 8.4851 19.5942 9.24589 19.5942 9.24589L20.6488 9.16306C20.6488 9.16306 20.6396 8.61701 20.7803 8.22741C20.8995 7.8961 20.9209 7.77645 21.0829 7.22733C21.0982 7.17211 21.1134 7.12303 21.1287 7.07395L20.6274 7.00032Z" fill="#E4AE84"/>
<path d="M19.9335 15.6943C19.9824 15.6206 20.6121 15.3906 20.7344 14.4365C21.0248 12.1695 20.8964 11.1786 20.7436 10.1417C20.5907 9.1048 20.6977 8.3164 20.6977 8.3164L19.4933 8.0127C19.4933 8.0127 19.637 9.52508 19.0776 10.9454C18.5457 12.2983 18.2951 14.2218 18.5213 15.004C18.7199 16.7434 19.8326 15.8906 19.9335 15.6943Z" fill="#E4AE84"/>
<path d="M19.313 6.36535C19.4719 6.57702 19.4108 6.96969 19.4108 6.96969C19.4108 6.96969 19.5178 6.86232 19.5178 6.72427L19.8571 6.77335C19.8571 6.85311 19.8571 6.89913 19.8571 6.89913C19.8571 6.89913 19.8601 6.85311 19.8632 6.77642L20.2575 6.83164C20.2484 6.9022 20.2453 6.94208 20.2453 6.94208C20.2453 6.94208 20.2514 6.9022 20.2636 6.83164L20.6641 6.88686C20.6519 6.95128 20.6427 7.00036 20.6396 7.02797C20.6457 7.00343 20.658 6.96048 20.6855 6.88993L20.9973 6.93287C20.9728 7.0065 21.1471 7.12307 21.1165 7.22737C20.9514 7.7765 20.93 7.89921 20.8078 8.22745C20.6641 8.61705 20.7864 8.73669 20.7864 8.73669L19.4414 8.73976C19.4414 8.73976 19.5697 8.48207 19.4597 8.23359C19.3527 7.9851 19.0929 7.94829 19.0103 6.99423C18.9981 6.85925 18.9676 6.45124 19.0715 6.37148C19.1724 6.28865 19.313 6.36535 19.313 6.36535Z" fill="#010001"/>
<g opacity="0.26">
<path d="M20.1719 10.9424C20.2239 11.2215 20.2575 11.5007 20.2972 11.7768C20.3156 11.9149 20.337 12.056 20.3553 12.194C20.3767 12.3321 20.4012 12.4701 20.4317 12.6082C20.3645 12.4824 20.3217 12.3443 20.2881 12.2063C20.2514 12.0682 20.2269 11.9302 20.2086 11.7891C20.1903 11.648 20.175 11.5068 20.1689 11.3657C20.1627 11.2246 20.1597 11.0835 20.1719 10.9424Z" fill="white"/>
<path d="M18.7199 14.2249C18.7964 14.2893 18.8514 14.3629 18.9064 14.4335L18.9889 14.5408C19.0165 14.5776 19.044 14.6114 19.0776 14.6482C19.0256 14.6451 18.9798 14.6206 18.94 14.593C18.9003 14.5623 18.8667 14.5286 18.8361 14.4887C18.8055 14.4488 18.7811 14.4089 18.7627 14.3629C18.7413 14.32 18.7261 14.2739 18.7199 14.2249Z" fill="white"/>
</g>
<path d="M26.8541 7.22433H28.8991C28.9542 7.22433 28.997 7.09242 28.997 6.9329C28.997 6.77338 28.9542 6.64453 28.8991 6.64453H26.8541V7.22433Z" fill="#A7A9AC"/>
<path d="M2.14588 6.64136H0.0978181C0.0427954 6.64136 0 6.77327 0 6.93279C0 7.09231 0.0427954 7.22422 0.0978181 7.22422H2.14283V6.64136H2.14588Z" fill="#A7A9AC"/>
<path d="M26.0624 2.18726H25.0445V2.55231H26.0624V2.18726Z" fill="#414042"/>
<path d="M26.0624 2.55225H25.0445V2.9173H26.0624V2.55225Z" fill="white"/>
<path d="M26.0624 2.91748H25.0445V3.28254H26.0624V2.91748Z" fill="white"/>
<path d="M26.0624 3.28247H25.0445V3.64753H26.0624V3.28247Z" fill="white"/>
<path d="M26.0624 3.64746H25.0445V4.01252H26.0624V3.64746Z" fill="white"/>
<path d="M26.0624 4.01245H25.0445V4.37751H26.0624V4.01245Z" fill="white"/>
<path d="M26.0624 4.37769H25.0445V4.74274H26.0624V4.37769Z" fill="#363637"/>
<path d="M26.0624 4.74268H25.0445V5.10773H26.0624V4.74268Z" fill="#343435"/>
<path d="M26.0624 5.10767H25.0445V5.47272H26.0624V5.10767Z" fill="#323233"/>
<path d="M26.0624 5.4729H25.0445V5.83796H26.0624V5.4729Z" fill="#303031"/>
<path d="M26.0624 5.83789H25.0445V6.20295H26.0624V5.83789Z" fill="#2E2E2F"/>
<path d="M26.0624 6.20288H25.0445V6.56794H26.0624V6.20288Z" fill="#2C2C2D"/>
<path d="M26.0624 6.56787H25.0445V6.93293H26.0624V6.56787Z" fill="#2A292B"/>
<path d="M26.0624 6.93311H25.0445V7.29816H26.0624V6.93311Z" fill="#272728"/>
<path d="M26.0624 7.2981H25.0445V7.66315H26.0624V7.2981Z" fill="#252526"/>
<path d="M26.0624 7.66309H25.0445V8.02814H26.0624V7.66309Z" fill="#232223"/>
<path d="M26.0624 8.02808H25.0445V8.39314H26.0624V8.02808Z" fill="#202021"/>
<path d="M26.0624 8.39331H25.0445V8.75837H26.0624V8.39331Z" fill="white"/>
<path d="M26.0624 8.7583H25.0445V9.12336H26.0624V8.7583Z" fill="white"/>
<path d="M26.0624 9.12329H25.0445V9.48835H26.0624V9.12329Z" fill="white"/>
<path d="M26.0624 9.48853H25.0445V9.85358H26.0624V9.48853Z" fill="white"/>
<path d="M26.0624 9.85352H25.0445V10.2186H26.0624V9.85352Z" fill="white"/>
<path d="M26.0624 10.2185H25.0445V10.5836H26.0624V10.2185Z" fill="white"/>
<path d="M26.0624 10.5835H25.0445V10.9486H26.0624V10.5835Z" fill="white"/>
<path d="M26.0624 10.9487H25.0445V11.3138H26.0624V10.9487Z" fill="#040404"/>
<path d="M26.0624 11.3137H25.0445V11.6788H26.0624V11.3137Z" fill="white"/>
<path d="M24.21 6.93302C24.21 4.31319 24.5768 2.18726 25.0292 2.18726C25.4816 2.18726 25.8484 4.31319 25.8484 6.93302C25.8484 9.55592 25.4816 11.6818 25.0292 11.6818C24.5768 11.6818 24.21 9.55285 24.21 6.93302Z" fill="#4E4E4D"/>
<path d="M24.5737 6.90848C24.5737 5.18135 24.7785 3.78247 25.0292 3.78247C25.2799 3.78247 25.4847 5.18135 25.4847 6.90848C25.4847 8.6356 25.2799 10.0345 25.0292 10.0345C24.7785 10.0345 24.5737 8.6356 24.5737 6.90848Z" fill="#4E4E4D"/>
<path d="M24.5921 6.90825C24.5921 5.28236 24.7602 3.96631 24.965 3.96631C25.1729 3.96631 25.3379 5.28236 25.3379 6.90825C25.3379 8.53414 25.1729 9.8502 24.965 9.8502C24.7602 9.8502 24.5921 8.53414 24.5921 6.90825Z" fill="#7F7D7C"/>
<path d="M24.6165 6.87161C24.6165 5.30094 24.7571 4.02783 24.9283 4.02783C25.0995 4.02783 25.2432 5.30094 25.2432 6.87161C25.2432 8.44228 25.1026 9.71538 24.9283 9.71538C24.7571 9.71538 24.6165 8.44228 24.6165 6.87161Z" fill="#4E4E4D"/>
<path d="M25.8454 6.93291C25.8454 9.52514 25.4877 11.6296 25.0414 11.6787H26.258C26.7104 11.6787 27.0773 9.55275 27.0773 6.92984C27.0773 4.31001 26.7104 2.18408 26.258 2.18408H25.0414C25.4877 2.23623 25.8454 4.34069 25.8454 6.93291Z" fill="#7F7D7C"/>
<path d="M25.4846 6.90848C25.4846 8.6356 25.2798 10.0345 25.0292 10.0345H25.1667C25.4174 10.0345 25.6191 8.6356 25.6191 6.90848C25.6191 5.18135 25.4143 3.78247 25.1667 3.78247H25.0292C25.2798 3.78247 25.4846 5.18135 25.4846 6.90848Z" fill="#6F6D6C"/>
<path d="M24.7205 6.93302C24.7205 7.10788 24.7663 7.24593 24.8244 7.24593C24.8825 7.24593 24.9283 7.10788 24.9283 6.93302C24.9283 6.76123 24.8825 6.62012 24.8244 6.62012C24.7663 6.62012 24.7205 6.76123 24.7205 6.93302Z" fill="#636466"/>
<path d="M24.9283 6.93302C24.9283 7.10788 24.8825 7.24593 24.8244 7.24593H24.9375C24.9986 7.24593 25.0445 7.10788 25.0445 6.93302C25.0445 6.76123 24.9956 6.62012 24.9375 6.62012H24.8244C24.8794 6.62012 24.9283 6.76123 24.9283 6.93302Z" fill="#A7A9AC"/>
<path d="M24.913 6.93302C24.913 7.09868 24.8702 7.23673 24.8152 7.24593C24.8183 7.24593 24.8213 7.24593 24.8213 7.24593C24.8794 7.24593 24.9253 7.10788 24.9253 6.93302C24.9253 6.76123 24.8794 6.62012 24.8213 6.62012C24.8183 6.62012 24.8183 6.62012 24.8152 6.62012C24.8702 6.63239 24.913 6.76737 24.913 6.93302Z" fill="#636466"/>
<path d="M3.55814 2.18726H2.54022V2.55231H3.55814V2.18726Z" fill="#414042"/>
<path d="M3.55814 2.55225H2.54022V2.9173H3.55814V2.55225Z" fill="white"/>
<path d="M3.55814 2.91748H2.54022V3.28254H3.55814V2.91748Z" fill="white"/>
<path d="M3.55814 3.28247H2.54022V3.64753H3.55814V3.28247Z" fill="white"/>
<path d="M3.55814 3.64746H2.54022V4.01252H3.55814V3.64746Z" fill="white"/>
<path d="M3.55814 4.01245H2.54022V4.37751H3.55814V4.01245Z" fill="white"/>
<path d="M3.55814 4.37769H2.54022V4.74274H3.55814V4.37769Z" fill="#363637"/>
<path d="M3.55814 4.74268H2.54022V5.10773H3.55814V4.74268Z" fill="#343435"/>
<path d="M3.55814 5.10767H2.54022V5.47272H3.55814V5.10767Z" fill="#323233"/>
<path d="M3.55814 5.4729H2.54022V5.83796H3.55814V5.4729Z" fill="#303031"/>
<path d="M3.55814 5.83789H2.54022V6.20295H3.55814V5.83789Z" fill="#2E2E2F"/>
<path d="M3.55814 6.20288H2.54022V6.56794H3.55814V6.20288Z" fill="#2C2C2D"/>
<path d="M3.55814 6.56787H2.54022V6.93293H3.55814V6.56787Z" fill="#2A292B"/>
<path d="M3.55814 6.93311H2.54022V7.29816H3.55814V6.93311Z" fill="#272728"/>
<path d="M3.55814 7.2981H2.54022V7.66315H3.55814V7.2981Z" fill="#252526"/>
<path d="M3.55814 7.66309H2.54022V8.02814H3.55814V7.66309Z" fill="#232223"/>
<path d="M3.55814 8.02808H2.54022V8.39314H3.55814V8.02808Z" fill="#202021"/>
<path d="M3.55814 8.39331H2.54022V8.75837H3.55814V8.39331Z" fill="white"/>
<path d="M3.55814 8.7583H2.54022V9.12336H3.55814V8.7583Z" fill="white"/>
<path d="M3.55814 9.12329H2.54022V9.48835H3.55814V9.12329Z" fill="white"/>
<path d="M3.55814 9.48853H2.54022V9.85358H3.55814V9.48853Z" fill="white"/>
<path d="M3.55814 9.85352H2.54022V10.2186H3.55814V9.85352Z" fill="white"/>
<path d="M3.55814 10.2185H2.54022V10.5836H3.55814V10.2185Z" fill="white"/>
<path d="M3.55814 10.5835H2.54022V10.9486H3.55814V10.5835Z" fill="white"/>
<path d="M3.55814 10.9487H2.54022V11.3138H3.55814V10.9487Z" fill="#040404"/>
<path d="M3.55814 11.3137H2.54022V11.6788H3.55814V11.3137Z" fill="white"/>
<path d="M4.39266 6.93302C4.39266 4.31319 4.02585 2.18726 3.57344 2.18726C3.12103 2.18726 2.75421 4.31012 2.75421 6.93302C2.75421 9.55592 3.12103 11.6818 3.57344 11.6818C4.02585 11.6818 4.39266 9.55285 4.39266 6.93302Z" fill="#4E4E4D"/>
<path d="M4.02583 6.90848C4.02583 5.18135 3.82102 3.78247 3.57036 3.78247C3.31971 3.78247 3.1149 5.18135 3.1149 6.90848C3.1149 8.6356 3.31665 10.0345 3.57036 10.0345C3.82408 10.0345 4.02583 8.6356 4.02583 6.90848Z" fill="#4E4E4D"/>
<path d="M4.01054 6.90825C4.01054 5.28236 3.84242 3.96631 3.63761 3.96631C3.42975 3.96631 3.26468 5.28236 3.26468 6.90825C3.26468 8.53414 3.42975 9.8502 3.63761 9.8502C3.84242 9.8502 4.01054 8.53414 4.01054 6.90825Z" fill="#7F7D7C"/>
<path d="M3.98303 6.87161C3.98303 5.30094 3.84242 4.02783 3.67124 4.02783C3.50005 4.02783 3.35638 5.30094 3.35638 6.87161C3.35638 8.44228 3.497 9.71538 3.67124 9.71538C3.84547 9.71538 3.98303 8.44228 3.98303 6.87161Z" fill="#4E4E4D"/>
<path d="M2.7542 6.93291C2.7542 9.52514 3.11185 11.6296 3.55815 11.6787H2.34153C1.88913 11.6787 1.52231 9.55275 1.52231 6.92984C1.52231 4.31001 1.88913 2.18408 2.34153 2.18408H3.55815C3.11185 2.23623 2.7542 4.34069 2.7542 6.93291Z" fill="#7F7D7C"/>
<path d="M3.11796 6.90848C3.11796 8.6356 3.31971 10.0345 3.57342 10.0345H3.43587C3.18521 10.0345 2.98346 8.6356 2.98346 6.90848C2.98346 5.18135 3.18521 3.78247 3.43587 3.78247H3.57342C3.32277 3.78247 3.11796 5.18135 3.11796 6.90848Z" fill="#6F6D6C"/>
<path d="M3.88215 6.93302C3.88215 7.10788 3.8363 7.24593 3.77822 7.24593C3.72014 7.24593 3.67429 7.10788 3.67429 6.93302C3.67429 6.76123 3.72014 6.62012 3.77822 6.62012C3.8363 6.62012 3.88215 6.76123 3.88215 6.93302Z" fill="#636466"/>
<path d="M3.66819 7.22433H11.9277H13.2177H24.9345C24.9895 7.22433 25.0323 7.09242 25.0323 6.9329C25.0323 6.77338 24.9895 6.64453 24.9345 6.64453H13.2146H11.9246H3.66819C3.61317 6.64453 3.57037 6.77338 3.57037 6.9329C3.57037 7.09242 3.61317 7.22433 3.66819 7.22433Z" fill="#A7A9AC"/>
<path d="M3.67429 6.93302C3.67429 7.10788 3.72015 7.24593 3.77823 7.24593H3.66512C3.60399 7.24593 3.55814 7.10788 3.55814 6.93302C3.55814 6.76123 3.60704 6.62012 3.66512 6.62012H3.77823C3.72015 6.62012 3.67429 6.76123 3.67429 6.93302Z" fill="#A7A9AC"/>
<path d="M3.68651 6.93302C3.68651 7.09868 3.72931 7.23673 3.78433 7.24593C3.78127 7.24593 3.77822 7.24593 3.77822 7.24593C3.72014 7.24593 3.67429 7.10788 3.67429 6.93302C3.67429 6.76123 3.72014 6.62012 3.77822 6.62012C3.78127 6.62012 3.78127 6.62012 3.78433 6.62012C3.73237 6.63239 3.68651 6.76737 3.68651 6.93302Z" fill="#636466"/>
<path d="M12.915 6.30713C12.915 6.30713 13.3033 7.23972 12.7591 7.72135C12.212 8.20605 15.6937 8.00051 15.6937 7.72135C15.6937 7.44525 15.3299 6.74275 15.5561 6.30713C15.5561 6.30713 14.205 6.33474 12.915 6.30713Z" fill="#E4AE84"/>
<path d="M14.3028 6.58931C15.5977 6.58931 16.6474 5.38341 16.6474 3.89585C16.6474 2.40829 15.5977 1.20239 14.3028 1.20239C13.008 1.20239 11.9583 2.40829 11.9583 3.89585C11.9583 5.38341 13.008 6.58931 14.3028 6.58931Z" fill="#E4AE84"/>
<path d="M16.2745 4.88991C16.2745 4.88991 15.9107 5.7274 15.2902 6.08325C15.2107 6.12927 15.122 6.01269 15.0548 6.08632C14.529 6.64464 14.3762 6.11086 14.3762 6.11086L14.2631 6.11393L14.1041 6.10473C14.1041 6.10473 13.9757 6.56488 13.4775 6.12313C13.4316 6.08325 13.3888 6.16301 13.3369 6.13847C12.6246 5.81636 12.2517 4.93286 12.2517 4.93286C12.1386 4.26716 11.6037 3.56159 11.8574 4.63222C12.0744 5.49118 12.6124 6.73974 14.2295 6.73974C16.1675 6.73974 16.4946 4.98501 16.5893 4.758C16.7422 4.38373 16.3876 4.22421 16.2745 4.88991Z" fill="white"/>
<path d="M14.8225 5.25487C14.474 5.27635 14.3089 5.27635 14.26 5.44814C14.2142 5.30089 14.0338 5.28862 13.6609 5.28862C13.1076 5.28862 13.2818 6.18439 13.2818 6.18439L13.5936 6.57399C13.5936 6.57399 13.9299 6.40527 13.719 6.32551C13.5111 6.24575 13.4653 6.26108 13.4653 5.9267C13.4653 5.59232 13.5722 5.52483 13.9024 5.64141C14.1592 5.73344 14.3303 5.73344 14.5902 5.64141C14.9172 5.52483 15.0609 5.58925 15.0609 5.9267C15.0609 6.26108 15.0151 6.24575 14.8072 6.32551C14.5993 6.40527 14.8897 6.49116 14.8897 6.49116L15.2443 6.18746C15.2413 6.18132 15.3635 5.2242 14.8225 5.25487Z" fill="white"/>
<path d="M12.5757 6.06475C12.5757 6.06475 12.4688 5.89295 12.3343 5.65674C12.4321 5.97578 12.5757 6.06475 12.5757 6.06475Z" fill="white"/>
<path d="M17.1854 2.33136C17.1701 2.13503 17.1212 1.9571 17.0693 1.79451C16.9989 1.58284 16.678 1.26686 16.516 1.03678C16.4946 1.00917 16.4762 0.981564 16.4548 0.950887C16.4548 0.950887 16.4548 0.950887 16.4548 0.947819C16.4334 0.911006 16.4029 0.877262 16.3692 0.843517C16.2409 0.705469 16.0636 0.588896 15.7946 0.509135C15.7701 0.503 15.7487 0.496864 15.7273 0.487661C15.6967 0.472323 15.6631 0.453916 15.6325 0.43551C15.5042 0.358817 15.3605 0.325072 15.2015 0.297462C14.7002 0.094993 14.3365 -0.0860025 13.8993 0.0305709C13.8932 0.0336386 13.8779 0.0367063 13.8474 0.0428418C13.8107 0.0367063 13.7771 0.0336386 13.7496 0.0336386C13.5295 0.0336386 13.3827 0.144077 13.022 0.248379C12.6644 0.352681 12.5329 0.472323 12.1997 0.754553C12.0438 0.886465 11.9644 0.981564 11.9032 1.07973C11.8115 1.1963 11.7351 1.32208 11.674 1.4632C11.1849 2.61052 11.6831 4.0094 11.8054 4.51864C11.8513 4.70578 12.2976 5.59541 12.3281 5.65063C12.2701 5.46657 12.2303 5.20275 12.2395 4.83462C12.2395 4.79167 12.2364 4.72418 12.2334 4.64135C11.9338 2.23013 12.805 2.1473 13.6059 2.40805C13.6059 2.40805 13.6151 2.41112 13.6334 2.41419C13.6854 2.43873 13.7465 2.46327 13.8168 2.48781C14.0919 2.59518 14.1836 2.51542 14.367 2.39885C14.4373 2.37738 14.5107 2.3467 14.5841 2.30989C14.6972 2.24853 14.8164 2.19945 14.9356 2.1565C16.4854 1.93869 16.3203 3.86522 16.2745 4.15972C16.2286 4.45116 16.2011 5.27944 16.2867 4.89904C16.2928 4.87757 16.3723 4.96346 16.3906 4.78247C16.3968 4.79781 16.3845 4.7702 16.3906 4.78247C16.5313 5.08924 16.1889 5.57087 16.1889 5.57087C16.1889 5.57087 16.2531 5.46657 16.357 5.23956L16.2561 5.57087C16.2561 5.57087 16.5251 5.14446 16.7085 4.72725C16.8522 4.39594 17.0876 3.33757 17.1457 2.89889C17.219 2.62893 17.2313 2.47861 17.1854 2.33136Z" fill="white"/>
<path d="M8.04248 6.26422C8.88616 6.20286 9.49141 6.18446 9.577 6.61087C9.64425 6.95446 9.5984 7.31952 9.54644 7.52812C9.53421 7.58027 9.43028 7.60481 9.36914 7.60175C9.36914 7.60175 9.2591 7.60788 9.20407 7.568C9.15516 7.53119 9.12765 7.43916 9.13377 7.32258L9.1246 7.32872C9.1246 7.32872 9.16433 7.51892 9.08791 7.74593C9.06957 7.79808 8.95036 7.80728 8.88922 7.80728C8.81586 7.80728 8.72415 7.80728 8.68441 7.74286C8.58048 7.57414 8.60799 7.21828 8.59882 6.89617C8.59882 6.89617 8.61716 7.40848 8.57743 7.67537C8.5652 7.7582 8.44293 7.79808 8.36039 7.79194C8.2962 7.78581 8.17698 7.77047 8.15864 7.68764C8.1189 7.53119 8.1403 7.2735 8.14947 7.00047C8.14947 7.00047 8.20144 7.27963 8.10056 7.51278C8.07917 7.56186 7.97829 7.568 7.90798 7.568C7.8499 7.568 7.75209 7.51892 7.73069 7.44222C7.68178 7.28577 7.72458 7.03422 7.72458 7.03422C7.72458 7.03422 7.63593 6.2949 8.04248 6.26422Z" fill="white"/>
<g opacity="0.25">
<path d="M8.11585 7.48201C8.1128 7.27954 8.11585 7.07707 8.12197 6.8746C8.13114 6.6752 8.14031 6.46967 8.14337 6.27333L8.21367 6.27026C8.21979 6.47887 8.19839 6.67827 8.18616 6.88074C8.16782 7.08014 8.14642 7.27954 8.11585 7.48201Z" fill="white"/>
</g>
<g opacity="0.25">
<path d="M8.61717 6.24585C8.64774 6.44832 8.64468 6.65386 8.64774 6.85633C8.64163 7.0588 8.63551 7.26433 8.59883 7.4668C8.57132 7.26126 8.57132 7.0588 8.57132 6.85633C8.58049 6.65386 8.5866 6.44832 8.61717 6.24585Z" fill="white"/>
</g>
<g opacity="0.25">
<path d="M9.10015 6.27026C9.13683 6.43285 9.14294 6.59851 9.15211 6.76417C9.15211 6.92982 9.15211 7.09241 9.1246 7.25807C9.09098 7.09548 9.08486 6.92982 9.07569 6.76417C9.07569 6.59851 9.07264 6.43592 9.10015 6.27026Z" fill="white"/>
</g>
<path d="M20.4684 6.26422C19.6248 6.20286 19.0195 6.18446 18.9339 6.61087C18.8667 6.95446 18.9125 7.31952 18.9645 7.52812C18.9767 7.58027 19.0806 7.60481 19.1418 7.60175C19.1418 7.60175 19.2518 7.60788 19.3068 7.568C19.3558 7.53119 19.3833 7.43916 19.3772 7.32258L19.3863 7.32872C19.3863 7.32872 19.3466 7.51892 19.4261 7.74593C19.4444 7.79808 19.5636 7.80728 19.6248 7.80728C19.6981 7.80728 19.7898 7.80728 19.8296 7.74286C19.9335 7.57414 19.906 7.21828 19.9152 6.89617C19.9152 6.89617 19.8968 7.40848 19.9366 7.67537C19.9488 7.7582 20.0711 7.79808 20.1536 7.79194C20.2178 7.78581 20.337 7.77047 20.3553 7.68764C20.3951 7.53119 20.3737 7.2735 20.3645 7.00047C20.3645 7.00047 20.3125 7.27963 20.4134 7.51278C20.4348 7.56186 20.5357 7.568 20.606 7.568C20.6641 7.568 20.7619 7.51892 20.7833 7.44222C20.8322 7.28577 20.7894 7.03422 20.7894 7.03422C20.7894 7.03422 20.875 6.2949 20.4684 6.26422Z" fill="white"/>
<g opacity="0.25">
<path d="M20.3951 7.48215C20.3645 7.28275 20.3431 7.08028 20.3248 6.87781C20.3125 6.67534 20.2911 6.47594 20.2972 6.26733L20.3676 6.2704C20.3737 6.46674 20.3828 6.67227 20.392 6.87167C20.3951 7.07721 20.3981 7.27968 20.3951 7.48215Z" fill="white"/>
</g>
<g opacity="0.25">
<path d="M19.8907 6.24585C19.9243 6.44832 19.9304 6.65386 19.9366 6.85633C19.9366 7.0588 19.9366 7.26433 19.909 7.4668C19.8754 7.26433 19.8693 7.0588 19.8601 6.85633C19.8632 6.65386 19.8632 6.45139 19.8907 6.24585Z" fill="white"/>
</g>
<g opacity="0.25">
<path d="M19.4108 6.27026C19.4352 6.43592 19.4352 6.59851 19.4352 6.76417C19.426 6.92982 19.423 7.09241 19.3863 7.25807C19.3588 7.09241 19.3588 6.92982 19.3588 6.76417C19.368 6.59851 19.3741 6.43285 19.4108 6.27026Z" fill="white"/>
</g>
</g>
<defs>
<clipPath id="clip0_158_1784">
<rect width="29" height="40" fill="white"/>
</clipPath>
</defs>
</svg>
