<svg width="10" height="41" viewBox="0 0 10 41" fill="none" xmlns="http://www.w3.org/2000/svg">
<g clip-path="url(#clip0_158_3918)">
<path d="M7.56394 39.2901C7.56394 39.9504 6.96838 40.4859 6.23824 40.4859C5.50809 40.4859 4.91589 39.9473 4.91589 39.2871C4.91589 38.6268 5.51145 38.0913 6.2416 38.0913C6.97175 38.0913 7.56394 38.6299 7.56394 39.2901Z" fill="#E4AE84"/>
<path d="M6.88424 27.7436C6.91452 27.9718 6.96836 29.0733 7.12986 29.3562C7.6413 30.2538 7.90039 32.3533 7.42596 33.8685C7.02892 35.1403 6.78666 37.3219 6.78666 37.3219L5.13794 37.967C5.13794 37.967 4.88558 35.4416 4.60631 32.5632C4.40106 30.4607 4.0343 29.7396 3.99393 28.7751C4.12852 28.4191 6.716 27.5002 6.88424 27.7436Z" fill="#CD9D78"/>
<path d="M6.54778 29.3012C6.4502 29.6876 4.24966 29.5233 4.14535 28.8296C4.08142 27.4117 3.19313 19.8263 5.22543 19.163C5.22543 19.163 7.82974 17.2705 8.3109 20.4075C8.6642 22.7169 7.18708 25.8387 6.98856 27.0192C6.87752 27.6795 6.7934 28.6714 6.54778 29.3012Z" fill="#CD9D78"/>
<path d="M6.86407 36.3633C6.86407 36.3633 6.67228 37.8359 7.37551 38.6818C7.95088 39.3725 6.0599 40.0814 6.23487 40.4831C6.23487 40.4831 2.71199 40.7721 2.41925 39.8989C2.24429 39.3755 3.51279 38.3684 4.428 38.4445C5.44752 38.5297 5.27255 36.7223 5.27255 36.7223L6.86407 36.3633Z" fill="#CD9D78"/>
<path d="M4.92261 38.1008L5.06393 37.6018C5.06393 37.6018 6.24495 37.8452 6.90444 37.5684L7.11305 37.9061C7.10969 37.9061 6.42665 38.7094 4.92261 38.1008Z" fill="white"/>
<path d="M3.91321 26.6997C3.91321 26.6997 3.76853 27.7464 3.86274 28.5983C3.95695 29.4503 4.15884 29.3681 4.44484 29.7758C4.73084 30.1836 4.98656 29.7576 4.98656 29.7576C4.98656 29.7576 5.00675 28.0811 4.98993 28.0385C4.9731 27.9959 3.91321 26.6997 3.91321 26.6997Z" fill="#CD9D78"/>
<path d="M7.96771 39.9868C7.98453 40.2515 7.95088 40.5102 6.22814 40.568C5.6023 40.5893 4.87551 40.5528 3.81562 40.6745C2.25102 40.8509 1.2988 40.6653 0.790721 40.4949C0.370129 40.355 0.0134668 40.2089 7.80402e-06 40.1085C7.80402e-06 40.0933 -0.00335693 40.0781 -0.00335693 40.0629C-0.00335693 40.1146 0.00337254 40.1633 0.00673728 40.1998C0.0201962 40.3033 0.376858 40.4463 0.797451 40.5862C1.30553 40.7566 2.22746 40.9118 3.7988 40.7931C4.87551 40.711 5.60903 40.6805 6.2315 40.6592C8.00472 40.6014 7.9879 40.3276 7.97107 40.0538C7.97107 40.0325 7.96771 40.0112 7.96771 39.9868Z" fill="#717375"/>
<path d="M7.59758 37.3426C7.53365 37.3213 7.46635 37.3821 7.41588 37.5008C7.33176 37.7016 7.36541 37.8903 7.36541 37.8994H7.37214C7.35195 37.9663 7.33849 38.0363 7.34859 38.1215L7.4327 38.1124C7.41588 37.9633 7.47308 37.8598 7.53701 37.7381C7.56729 37.6803 7.60094 37.6195 7.62449 37.5525C7.6817 37.3913 7.62449 37.3517 7.59758 37.3426ZM7.54374 37.5282C7.52019 37.5921 7.48991 37.6499 7.45962 37.7047C7.45626 37.7138 7.44953 37.7229 7.44616 37.732C7.45289 37.6712 7.46635 37.6012 7.49664 37.5282C7.52355 37.4643 7.55047 37.4339 7.56393 37.4217C7.56393 37.443 7.56056 37.4734 7.54374 37.5282Z" fill="#0D0B42"/>
<path fill-rule="evenodd" clip-rule="evenodd" d="M6.37284 39.9901C6.00944 40.0114 5.71671 40.0996 5.18508 40.194C4.65345 40.2883 3.85601 40.4161 3.23017 40.4465C2.60769 40.4769 1.71604 40.4161 1.33919 40.3796C0.706617 40.3217 0.077411 40.1027 0.0673168 40.0935L0.0168457 39.9323C0.0168457 39.9323 0.0673168 39.8014 0.195177 39.7193C0.323037 39.6371 0.605675 39.5641 1.3762 39.3146C2.36207 38.9951 2.67835 38.8521 3.16288 38.4901C3.6474 38.128 4.25305 37.7933 4.42465 37.8328C4.59625 37.8724 4.89908 38.0458 5.50137 38.201C6.68239 38.5053 6.06328 38.5296 6.9011 38.2162C7.27795 38.0732 7.27458 37.6533 7.30823 37.7416C7.30823 37.7416 7.29814 38.0823 7.51685 38.3227C7.78266 38.6209 7.88024 39.129 7.8365 39.6706C7.46974 39.8775 6.72613 39.9688 6.37284 39.9901Z" fill="#E50914"/>
<path fill-rule="evenodd" clip-rule="evenodd" d="M5.19516 37.4279C5.0673 37.2849 5.08076 37.1236 4.89906 37.008C4.80148 36.9471 4.57268 37.0384 4.28668 37.504C4.03769 37.9056 3.52625 38.2311 3.52625 38.2311L3.55317 38.2281C2.87349 38.7119 2.27457 38.934 2.27457 38.934L2.3385 39.0496C3.0821 38.6936 3.74832 38.3316 4.21602 38.0729C4.42127 37.9999 4.74428 38.0973 4.86878 38.0303C5.24899 37.8234 5.27591 37.5192 5.19516 37.4279Z" fill="#0D0B42"/>
<path fill-rule="evenodd" clip-rule="evenodd" d="M0.14134 39.999C0.174987 40.1329 0.286023 40.1663 0.353318 40.1876C0.383601 40.1968 0.413883 40.2059 0.447531 40.215H0.450895C0.484543 40.2241 0.51819 40.2333 0.555202 40.2424C0.592214 40.2515 0.629227 40.2607 0.669603 40.2698H0.672968C0.70998 40.2789 0.750357 40.288 0.790734 40.2972C0.794099 40.2972 0.797463 40.2972 0.800828 40.3002C0.841205 40.3093 0.881582 40.3185 0.925323 40.3245H0.928688C0.97243 40.3337 1.01617 40.3398 1.05991 40.3458C1.06328 40.3458 1.06664 40.3458 1.07001 40.3489C1.11038 40.355 1.15413 40.3611 1.19787 40.3671C1.20123 40.3671 1.2046 40.3671 1.20796 40.3702C1.2517 40.3763 1.29881 40.3793 1.34255 40.3854C1.7194 40.4189 2.60769 40.4797 3.23353 40.4523C3.85937 40.4219 4.65682 40.2972 5.18845 40.1998C5.60904 40.1207 7.50339 39.9473 7.87351 39.7343C7.87687 39.6886 7.83649 39.5243 7.83986 39.4817C7.79612 39.5152 7.58077 39.6765 7.50002 39.716C6.9583 39.9807 5.22882 40.0872 4.63326 40.1968C4.03771 40.3063 2.73219 40.5041 1.01954 40.1481C1.01954 40.1481 0.255741 39.9412 0.787369 39.6795C1.24497 39.4543 2.34188 39.0558 2.34188 39.0558L2.32842 38.9219C0.757087 39.5973 0.64605 39.3113 0.265835 39.5578C0.20527 39.5973 0.0269385 39.7525 0.0370328 39.8894C0.0605859 39.8803 0.121151 39.9168 0.14134 39.999Z" fill="#E50914"/>
<path d="M7.84995 39.5152C7.87687 39.0132 7.77256 38.6055 7.5202 38.3195C7.50674 38.3042 7.49665 38.2921 7.48656 38.2769C7.4058 38.2921 7.36543 38.3529 7.47983 38.5142C7.68171 38.7972 7.7591 39.3479 7.77929 39.5487C7.80284 39.5335 7.82639 39.5243 7.84995 39.5152Z" fill="#E50914"/>
<path fill-rule="evenodd" clip-rule="evenodd" d="M2.25103 39.3721C2.25103 39.3721 2.60096 38.9552 2.0727 39.077C1.88091 39.1226 0.286019 39.6581 0.423974 39.8894C0.514822 40.0384 0.467715 40.0537 0.817648 40.1845C1.17095 40.3153 2.80284 40.4036 2.50338 40.3397C1.85399 40.2027 1.95829 39.9624 2.35533 39.6399C2.75237 39.3173 2.92061 39.2321 2.92061 39.2321L2.25103 39.3721Z" fill="#E50914"/>
<path d="M2.73889 39.2688C2.73889 39.2688 4.465 40.352 3.08546 40.3642C3.08546 40.3642 4.07806 40.4038 4.28331 40.2425C4.48856 40.0782 4.20928 39.5244 3.33109 38.9585L2.73889 39.2688Z" fill="#E50914"/>
<path d="M3.48251 38.8153C3.48251 38.8153 5.28265 40.0568 4.28669 40.2606C4.28669 40.2606 5.05385 40.2697 5.22881 40.0781C5.58211 39.6947 4.9529 39.0648 4.07471 38.502L3.48251 38.8153Z" fill="#E50914"/>
<path d="M4.23956 38.4169C4.23956 38.4169 6.38627 39.8835 5.27927 40.1421C5.27927 40.1421 6.23822 40.1543 6.41318 39.9656C6.63526 39.7253 5.46769 38.8459 6.59488 38.3804C6.82032 38.2891 5.03364 38.277 4.7039 38.064L4.23956 38.4169Z" fill="#E50914"/>
<path fill-rule="evenodd" clip-rule="evenodd" d="M7.62449 38.4563C7.59421 38.4076 7.56056 38.362 7.52019 38.3194C7.51346 38.3102 7.50336 38.3011 7.49663 38.292C7.36877 38.0121 7.3755 37.7595 7.3755 37.7595C7.36541 37.1844 7.07604 37.507 7.05249 37.5952C7.00202 37.7899 7.01548 38.2281 6.09354 38.219C5.32638 38.2098 4.79475 37.9421 4.67698 37.8782C4.41453 37.7413 4.30686 37.7443 4.27321 37.7534C3.83916 37.9573 3.78869 38.0972 3.42194 38.3893C2.59758 38.9401 2.12651 39.1105 1.94818 39.1957C1.94818 39.1957 2.21063 39.4878 2.62113 39.3691C2.63459 39.366 2.64805 39.36 2.66151 39.3569C2.67496 39.3508 2.69179 39.3478 2.70525 39.3417C2.70861 39.3417 2.71198 39.3387 2.71198 39.3387C2.72544 39.3326 2.73553 39.3295 2.74899 39.3234C2.76581 39.3174 2.77927 39.3082 2.7961 39.2991C3.34118 39.0192 4.20928 38.4593 4.42463 38.3437C4.63997 38.2281 5.09085 38.2768 5.41386 38.3589C6.35935 38.5962 6.48721 38.3498 7.07941 38.5019C7.28466 38.5537 7.55383 38.7788 7.76245 39.2443C7.76581 39.2535 7.72544 38.8214 7.73553 38.8214C7.73889 38.8214 7.50336 38.5293 7.50673 38.5293C7.51346 38.5293 7.52019 38.5293 7.52692 38.5293H7.53028C7.53701 38.5263 7.5471 38.5232 7.55383 38.5202C7.55383 38.5202 7.55383 38.5202 7.5572 38.5171C7.56393 38.5141 7.57066 38.508 7.57739 38.5019C7.57739 38.5019 7.57739 38.5019 7.58075 38.5019C7.59758 38.4837 7.61103 38.4715 7.62449 38.4563Z" fill="#E50914"/>
<path fill-rule="evenodd" clip-rule="evenodd" d="M4.36743 37.9755C4.3708 38.0212 4.41117 38.0546 4.46164 38.0516C4.51211 38.0485 4.54913 38.012 4.54576 37.9664C4.5424 37.9208 4.50202 37.8873 4.45155 37.8903C4.40108 37.8903 4.36407 37.9299 4.36743 37.9755Z" fill="white"/>
<path fill-rule="evenodd" clip-rule="evenodd" d="M4.38425 37.9727C4.38761 38.0092 4.42126 38.0336 4.45827 38.0336C4.49528 38.0305 4.52557 38.0001 4.52557 37.9666C4.5222 37.9301 4.48855 37.9058 4.45154 37.9058C4.41453 37.9088 4.38425 37.9392 4.38425 37.9727Z" fill="black"/>
<path fill-rule="evenodd" clip-rule="evenodd" d="M4.41454 38.0394C4.41454 38.0394 4.00068 38.0698 3.91992 37.9207C3.91992 37.9207 3.93002 37.8264 3.99058 37.8629C4.15882 37.9633 4.21265 37.9146 4.45492 37.9055C4.45155 37.9055 4.54913 38.0089 4.41454 38.0394Z" fill="#BCBEC0"/>
<path fill-rule="evenodd" clip-rule="evenodd" d="M3.90648 38.356C3.90311 38.4017 3.94349 38.4382 3.9906 38.4412C4.04107 38.4443 4.08144 38.4108 4.08481 38.3652C4.08817 38.3195 4.0478 38.283 4.00069 38.28C3.95022 38.2769 3.90984 38.3104 3.90648 38.356Z" fill="white"/>
<path fill-rule="evenodd" clip-rule="evenodd" d="M3.92668 38.3563C3.92331 38.3928 3.9536 38.4202 3.99397 38.4232C4.03435 38.4262 4.06463 38.3989 4.068 38.3623C4.07136 38.3258 4.04108 38.2985 4.0007 38.2954C3.96032 38.2954 3.92668 38.3228 3.92668 38.3563Z" fill="black"/>
<path fill-rule="evenodd" clip-rule="evenodd" d="M3.94685 38.4258C3.94685 38.4258 3.53299 38.4167 3.46906 38.2615C3.46906 38.2615 3.48924 38.1672 3.54644 38.2098C3.70122 38.3284 3.76179 38.2828 4.00068 38.298C4.00068 38.295 4.08144 38.4076 3.94685 38.4258Z" fill="#BCBEC0"/>
<path fill-rule="evenodd" clip-rule="evenodd" d="M3.42531 38.6727C3.41522 38.7183 3.44887 38.7579 3.49934 38.767C3.54644 38.7731 3.59355 38.7457 3.60364 38.7001C3.61037 38.6575 3.58009 38.6149 3.52962 38.6058C3.47915 38.5997 3.43204 38.6301 3.42531 38.6727Z" fill="white"/>
<path fill-rule="evenodd" clip-rule="evenodd" d="M3.44549 38.6757C3.43876 38.7092 3.46568 38.7426 3.50269 38.7487C3.5397 38.7548 3.57672 38.7305 3.58345 38.697C3.59018 38.6635 3.56326 38.6301 3.52625 38.624C3.48587 38.6179 3.44886 38.6422 3.44549 38.6757Z" fill="black"/>
<path fill-rule="evenodd" clip-rule="evenodd" d="M3.45558 38.7454C3.45558 38.7454 3.05854 38.6967 3.0148 38.5354C3.0148 38.5354 3.04845 38.4441 3.09892 38.4928C3.23687 38.6267 3.28734 38.5841 3.52624 38.6236C3.52624 38.6236 3.59354 38.7454 3.45558 38.7454Z" fill="#BCBEC0"/>
<path fill-rule="evenodd" clip-rule="evenodd" d="M2.91051 38.9496C2.89369 38.9922 2.91724 39.0378 2.96435 39.053C3.01145 39.0682 3.06192 39.0469 3.07875 39.0043C3.09557 38.9618 3.07202 38.9161 3.02491 38.9009C2.97781 38.8857 2.92733 38.907 2.91051 38.9496Z" fill="white"/>
<path fill-rule="evenodd" clip-rule="evenodd" d="M2.92734 38.9554C2.91388 38.9889 2.93407 39.0254 2.97108 39.0376C3.00809 39.0498 3.04847 39.0315 3.06193 38.998C3.07539 38.9646 3.0552 38.9281 3.02155 38.9159C2.98118 38.9037 2.9408 38.922 2.92734 38.9554Z" fill="black"/>
<path fill-rule="evenodd" clip-rule="evenodd" d="M2.92732 39.0252C2.92732 39.0252 2.58075 38.9431 2.56729 38.7788C2.56729 38.7788 2.61776 38.6936 2.65814 38.7483C2.76918 38.9005 2.79273 38.8366 3.02153 38.9126C3.01817 38.9157 3.06191 39.0435 2.92732 39.0252Z" fill="#BCBEC0"/>
<path fill-rule="evenodd" clip-rule="evenodd" d="M4.1622 38.1581C4.16556 38.2038 4.20594 38.2373 4.25641 38.2342C4.30688 38.2312 4.3439 38.1947 4.34053 38.149C4.33717 38.1034 4.29679 38.0699 4.24632 38.0729C4.19585 38.076 4.15883 38.1125 4.1622 38.1581Z" fill="white"/>
<path fill-rule="evenodd" clip-rule="evenodd" d="M4.17902 38.1553C4.18238 38.1918 4.21603 38.2162 4.25304 38.2162C4.29005 38.2131 4.32034 38.1827 4.32034 38.1492C4.31697 38.1127 4.28332 38.0884 4.24631 38.0884C4.20593 38.0914 4.17902 38.1218 4.17902 38.1553Z" fill="black"/>
<path fill-rule="evenodd" clip-rule="evenodd" d="M4.08145 37.8115C4.08145 37.8115 3.81563 37.8754 4.0478 38.0823C4.19248 38.2132 4.23622 38.1858 4.25641 38.1584C4.2766 38.1249 4.30352 38.1097 4.18575 38.0489C4.04107 37.9758 4.02424 37.8237 4.08145 37.8115Z" fill="white"/>
<path fill-rule="evenodd" clip-rule="evenodd" d="M3.68104 38.5172C3.67768 38.5628 3.71806 38.5993 3.76516 38.6024C3.81563 38.6054 3.85601 38.5689 3.85937 38.5263C3.86274 38.4807 3.82573 38.4442 3.77526 38.4411C3.72479 38.4381 3.68104 38.4715 3.68104 38.5172Z" fill="white"/>
<path fill-rule="evenodd" clip-rule="evenodd" d="M3.69788 38.5174C3.69788 38.5539 3.72479 38.5813 3.76517 38.5843C3.80555 38.5874 3.83583 38.56 3.83919 38.5235C3.84256 38.487 3.81228 38.4596 3.7719 38.4565C3.73489 38.4565 3.70124 38.4839 3.69788 38.5174Z" fill="black"/>
<path fill-rule="evenodd" clip-rule="evenodd" d="M3.64402 38.1489C3.64402 38.1489 3.37147 38.2007 3.57672 38.4319C3.70458 38.5779 3.75169 38.5536 3.77524 38.5293C3.79879 38.4988 3.82571 38.4836 3.71804 38.4136C3.58345 38.3254 3.58345 38.1581 3.64402 38.1489Z" fill="white"/>
<path fill-rule="evenodd" clip-rule="evenodd" d="M3.17967 38.8095C3.17294 38.8521 3.20323 38.8947 3.2537 38.9038C3.3008 38.9099 3.34791 38.8825 3.358 38.8369C3.36473 38.7943 3.33445 38.7517 3.28398 38.7425C3.23351 38.7365 3.1864 38.7638 3.17967 38.8095Z" fill="white"/>
<path fill-rule="evenodd" clip-rule="evenodd" d="M3.1965 38.8125C3.18977 38.849 3.21669 38.8795 3.2537 38.8855C3.29408 38.8916 3.32772 38.8673 3.33445 38.8338C3.34118 38.8004 3.31427 38.7669 3.27725 38.7608C3.24024 38.7547 3.20323 38.776 3.1965 38.8125Z" fill="black"/>
<path fill-rule="evenodd" clip-rule="evenodd" d="M3.20324 38.4595C3.20324 38.4595 2.91387 38.4595 3.08883 38.712C3.19651 38.8702 3.24698 38.852 3.27053 38.8276C3.29745 38.8003 3.32773 38.7881 3.23015 38.7059C3.10902 38.6055 3.14267 38.4625 3.20324 38.4595Z" fill="white"/>
<path fill-rule="evenodd" clip-rule="evenodd" d="M2.64132 39.0438C2.62449 39.0864 2.64804 39.1321 2.69515 39.1473C2.74226 39.1625 2.79273 39.1412 2.80955 39.0986C2.82638 39.056 2.80282 39.0103 2.75572 38.9951C2.70861 38.9799 2.65814 39.0012 2.64132 39.0438Z" fill="white"/>
<path fill-rule="evenodd" clip-rule="evenodd" d="M2.6615 39.0497C2.64804 39.0832 2.66823 39.1197 2.70524 39.1318C2.74226 39.144 2.78263 39.1257 2.79609 39.0923C2.80955 39.0588 2.78936 39.0223 2.75235 39.0101C2.71197 38.998 2.6716 39.0162 2.6615 39.0497Z" fill="black"/>
<path fill-rule="evenodd" clip-rule="evenodd" d="M2.76582 38.7089C2.76582 38.7089 2.44954 38.6602 2.57067 38.9371C2.64806 39.1105 2.69853 39.1014 2.72881 39.0801C2.76246 39.0557 2.79274 39.0496 2.71199 38.9523C2.61441 38.8336 2.70526 38.6997 2.76582 38.7089Z" fill="white"/>
<path fill-rule="evenodd" clip-rule="evenodd" d="M4.0949 37.8599C4.0949 37.8599 4.90917 37.5252 4.6299 37.1784C4.35399 36.8315 4.09827 37.6196 4.07135 37.8204L4.12182 37.8082C4.12182 37.8082 4.24968 37.297 4.42465 37.221C4.59961 37.1449 4.61307 37.291 4.57606 37.3579C4.54241 37.4157 4.44484 37.6074 4.20594 37.7839C4.19248 37.796 4.11846 37.7991 4.10163 37.8082C4.08481 37.8234 4.11846 37.8447 4.0949 37.8599Z" fill="#BCBEC0"/>
<path fill-rule="evenodd" clip-rule="evenodd" d="M4.17564 37.7505C4.17564 37.7505 4.31696 37.2241 4.02422 37.0446C3.73149 36.8651 3.55316 37.0385 3.8257 37.4493C4.09825 37.8601 4.09825 37.8601 4.09825 37.8601L4.15208 37.8053C4.15208 37.8053 3.94011 37.5193 3.87281 37.358C3.80552 37.1937 3.75168 37.0172 3.893 37.0842C4.03095 37.1511 4.1218 37.215 4.1319 37.4858C4.13862 37.6136 4.10834 37.7292 4.11171 37.784C4.11507 37.8418 4.15545 37.8357 4.15545 37.8357L4.17564 37.7505Z" fill="#BCBEC0"/>
<path fill-rule="evenodd" clip-rule="evenodd" d="M4.05451 37.8358C4.05451 37.8358 3.97375 37.8814 3.74832 37.9179C3.52288 37.9545 3.34455 38.1705 3.34455 38.1857C3.34791 38.204 3.28735 38.2161 3.28735 38.2161C3.28735 38.2161 3.2436 38.1857 3.28062 38.1005C3.31763 38.0153 3.39502 37.854 3.72476 37.8449C4.05451 37.8358 4.14199 37.7871 4.14199 37.7871C4.14199 37.7871 4.23284 37.8358 4.05451 37.8358Z" fill="#D1D3D4"/>
<path fill-rule="evenodd" clip-rule="evenodd" d="M4.16554 37.7749C4.16554 37.7749 3.893 37.9422 3.72813 38.0092C3.56326 38.0761 3.37147 38.2678 3.27052 38.283C3.16958 38.2982 3.20323 38.3682 3.20323 38.3682C3.20323 38.3682 3.26379 38.4017 3.53634 38.1857C3.80888 37.9696 3.94347 37.9696 4.03768 37.9088C4.13526 37.8449 4.17564 37.8358 4.16554 37.7749Z" fill="#D1D3D4"/>
<path d="M7.92397 39.7464C7.89706 39.6916 7.84995 39.5395 7.83649 39.4756C7.62788 39.5486 6.69584 39.9776 5.24564 40.1054C4.70728 40.1541 3.83918 40.2941 3.21671 40.3245C2.59423 40.3549 1.75304 40.3458 1.37619 40.3123C1.00271 40.2789 0.609034 40.1967 0.366773 40.1267C0.299478 40.1085 0.195171 40.0537 0.185077 39.9016C0.178347 39.7646 0.127876 39.6338 0.0437577 39.7738C-0.0100781 39.859 0.00338089 40.0902 0.0101104 40.1541C0.0235693 40.2576 0.380232 40.4006 0.800824 40.5405C1.3089 40.7109 2.24766 40.8661 3.81899 40.7474C4.89234 40.6653 5.6124 40.6348 6.23824 40.6135C8.01146 40.5557 7.99463 40.2819 7.97444 40.0081C7.96772 39.9107 7.9408 39.7768 7.92397 39.7464Z" fill="#D3D5D6"/>
<path d="M7.51346 39.9353C7.51346 39.9353 6.41992 40.2457 5.94213 40.27C5.19179 40.3096 5.67295 40.4343 6.44684 40.4617C7.75909 40.5074 7.99798 39.8867 7.51346 39.9353Z" fill="#ABADB0"/>
<path d="M2.80283 40.708C2.80283 40.708 1.47713 40.7871 0.575378 40.4067C0.575378 40.4067 1.10028 40.4585 1.46367 40.495C2.79947 40.6289 2.95425 40.355 2.80283 40.708Z" fill="#ABADB0"/>
<path d="M8.68441 18.5117C8.68441 18.5117 9.15547 20.5077 8.46234 22.9844C7.68508 25.7563 7.93407 27.4572 7.93407 27.4572H3.24026L4.00406 18.5665L8.68441 18.5117Z" fill="white"/>
<path d="M9.30351 14.705C9.84187 11.5376 9.98318 10.0528 8.14604 7.31135C7.71872 6.67239 5.75035 7.42088 5.75035 7.42088C5.75035 7.42088 5.49463 7.91379 4.86878 8.71097C3.61037 10.3114 3.43204 11.8906 4.12518 12.7182C4.48184 13.1441 4.29678 14.5346 4.27996 15.2375C4.21266 18.5023 4.37417 19.692 4.62316 22.0075C4.68036 22.549 8.42195 23.4497 9.09153 23.2641C9.17565 22.6069 9.91589 21.4385 9.92262 20.2305C9.92598 18.2102 8.77188 17.839 9.30351 14.705Z" fill="#E4AE84"/>
<g opacity="0.26">
<path d="M5.67969 15.7034C5.56529 15.746 5.45425 15.7825 5.33985 15.8008C5.22545 15.819 5.11105 15.8221 4.99328 15.8099C4.87552 15.7947 4.75439 15.7643 4.62653 15.7247C4.70728 15.8221 4.82168 15.8981 4.95627 15.9438C5.08749 15.9894 5.23891 15.9985 5.37686 15.9742C5.51818 15.9499 5.64604 15.8981 5.76044 15.8251C5.87148 15.7521 5.96569 15.6608 6.02962 15.5513C5.90513 15.6091 5.79072 15.6608 5.67969 15.7034Z" fill="#511D06"/>
<path d="M5.94886 16.2417C5.83783 16.2904 5.73689 16.336 5.63594 16.3725C5.535 16.409 5.43406 16.4395 5.33312 16.4577C5.23218 16.4729 5.13123 16.479 5.02356 16.4669C4.91589 16.4577 4.81158 16.4303 4.69382 16.3969C4.76448 16.4882 4.86542 16.5581 4.98655 16.6007C5.10432 16.6433 5.24227 16.6525 5.36676 16.6312C5.49462 16.6099 5.61239 16.5612 5.70997 16.4942C5.81091 16.4243 5.89839 16.3421 5.94886 16.2417Z" fill="#511D06"/>
<path d="M5.3264 17.188C5.25574 17.2001 5.18845 17.2032 5.11442 17.2001C5.0404 17.1971 4.96301 17.1819 4.87216 17.1697C4.9159 17.2427 4.98993 17.3005 5.07741 17.334C5.16489 17.3675 5.2692 17.3766 5.36341 17.3614C5.45763 17.3462 5.54511 17.3066 5.61577 17.2549C5.68643 17.2032 5.74699 17.1362 5.77391 17.0571C5.68643 17.0845 5.6124 17.1119 5.53838 17.1362C5.46436 17.1575 5.3937 17.1758 5.3264 17.188Z" fill="#511D06"/>
<path d="M8.04174 11.7751C8.03838 11.7081 8.03838 11.6412 8.04174 11.5743C8.04847 11.4556 8.06529 11.3369 8.08885 11.2183C8.00473 11.2882 7.92734 11.3582 7.85668 11.4343C7.84995 11.4799 7.84322 11.5225 7.83986 11.5682C7.83313 11.6382 7.82976 11.7112 7.83313 11.7812C7.83313 11.8511 7.84322 11.9272 7.84659 11.9881C7.84995 12.1159 7.8264 12.2406 7.76583 12.3593C7.70527 12.4749 7.61105 12.5814 7.49665 12.6727C7.26449 12.8583 6.9482 12.98 6.61846 13.056C6.28871 13.1321 5.93542 13.1595 5.58885 13.1443C5.24228 13.126 4.89235 13.0652 4.58952 12.9343C4.43474 12.8704 4.29679 12.7852 4.17902 12.6848C4.06462 12.5844 3.97041 12.4658 3.91321 12.3349C3.95022 12.4688 4.02424 12.5996 4.13192 12.7153C4.23959 12.8309 4.37754 12.9282 4.53232 13.0074C4.84188 13.1625 5.20863 13.2477 5.57539 13.2782C5.94551 13.3086 6.319 13.2842 6.68239 13.2112C7.04241 13.1351 7.39235 13.0013 7.66489 12.7913C7.79948 12.6848 7.91052 12.557 7.97781 12.4171C8.04847 12.2771 8.07875 12.125 8.06866 11.9789C8.0552 11.9029 8.04511 11.842 8.04174 11.7751Z" fill="#511D06"/>
<path d="M6.61173 14.903C6.72277 14.9425 6.83381 14.9821 6.95494 14.9912C6.84726 14.9456 6.75305 14.8877 6.65884 14.8269C6.56463 14.7691 6.47041 14.7052 6.37957 14.6443C6.1945 14.5196 6.01617 14.3887 5.83784 14.2579C5.65615 14.124 5.45763 13.9993 5.24565 13.9019C5.13798 13.8532 5.02694 13.8137 4.91254 13.7833C4.85534 13.7711 4.79477 13.7589 4.73421 13.7528C4.67364 13.7467 4.61308 13.7467 4.55588 13.762C4.61308 13.768 4.67028 13.7833 4.72411 13.8015C4.77795 13.8198 4.82842 13.8411 4.87889 13.8654C4.97983 13.911 5.07741 13.9658 5.17162 14.0236C5.36005 14.1392 5.54175 14.264 5.72008 14.3948C5.90177 14.5287 6.09693 14.6504 6.30218 14.7569C6.39639 14.8117 6.50406 14.8604 6.61173 14.903Z" fill="#511D06"/>
<path d="M6.4805 13.8896C6.35601 13.8805 6.23151 13.8531 6.09692 13.8227C6.18777 13.917 6.31227 13.987 6.44686 14.0265C6.58145 14.0661 6.72949 14.0782 6.87081 14.0569C7.01213 14.0387 7.14672 13.993 7.26785 13.9261C7.38562 13.8592 7.49329 13.774 7.56731 13.6675C7.44282 13.7192 7.32169 13.7648 7.20392 13.8014C7.08279 13.8379 6.96503 13.8683 6.8439 13.8835C6.72613 13.8957 6.605 13.8987 6.4805 13.8896Z" fill="#511D06"/>
<path d="M4.40783 16.3662C4.40783 16.1502 4.4011 15.9342 4.38764 15.7151C4.37418 15.4991 4.35063 15.283 4.31025 15.064C4.26988 15.28 4.24969 15.496 4.23287 15.7151C4.21941 15.9311 4.21268 16.1472 4.21268 16.3662C4.21268 16.5823 4.21941 16.7983 4.23287 17.0174C4.24632 17.2334 4.26988 17.4494 4.31025 17.6685C4.35063 17.4525 4.37082 17.2334 4.38764 17.0174C4.4011 16.7983 4.40783 16.5823 4.40783 16.3662Z" fill="#511D06"/>
</g>
<path d="M5.67296 6.64836C5.67296 6.64836 5.96906 7.6068 5.43743 8.09972C4.9058 8.59263 8.35802 8.22142 8.35802 7.93846C8.35802 7.65549 8.20324 6.33193 8.42195 5.8877C8.42532 5.8877 6.93474 6.67575 5.67296 6.64836Z" fill="#E4AE84"/>
<path d="M9.25978 3.63901C9.25978 5.14209 9.54241 6.02447 7.33851 6.45957C6.5478 6.61779 5.47108 6.85207 5.04376 6.9038C4.32034 6.99204 4.0377 6.20703 3.6945 4.50921C3.42196 3.14914 3.93003 1.53652 3.93003 1.53652C4.50204 0.867137 6.07673 0.906692 7.00877 0.906692C8.73488 0.909735 9.25978 1.85296 9.25978 3.63901Z" fill="#E4AE84"/>
<path d="M3.72479 2.98193C3.72479 2.98193 3.51281 4.61281 3.45224 4.74973C3.38831 4.88665 3.32775 5.12397 3.79208 5.11789C4.2766 5.1118 4.38764 4.93229 4.38764 4.93229L3.72479 2.98193Z" fill="#E4AE84"/>
<path d="M6.72949 4.08951C6.72949 4.08951 6.63527 5.75081 5.58548 5.96684C5.48453 5.98814 5.4307 6.19809 5.35331 6.27111C4.76111 6.84009 4.27323 6.30154 4.27323 6.30154L4.19247 6.30762C4.24631 6.47497 4.28669 6.52365 4.34052 6.6058C4.46838 6.81575 4.53904 6.93746 4.72074 6.9192C6.72276 6.80966 7.24766 6.13723 7.35196 5.91512C7.5202 5.54087 6.85735 3.411 6.72949 4.08951Z" fill="white"/>
<path d="M5.03366 5.25499C4.64335 5.27629 3.89974 5.22456 3.856 5.4771C3.83917 5.59881 3.94012 5.74182 3.98386 5.75094C4.11172 5.75399 4.57942 5.68096 4.73756 5.65358C4.99664 5.60794 5.20189 5.84222 5.20189 6.183C5.20189 6.52378 5.30284 6.4325 5.0673 6.51466C4.83177 6.59681 5.16152 6.682 5.16152 6.682L5.56192 6.37469C5.56528 6.37165 5.64267 5.22456 5.03366 5.25499Z" fill="white"/>
<path d="M6.63525 5.75082C6.63525 5.75082 6.7261 5.6352 6.80013 5.48307C6.81358 5.44351 6.82368 5.41309 6.82368 5.41309C6.70591 5.64433 6.63525 5.75082 6.63525 5.75082Z" fill="white"/>
<path d="M7.75909 2.45546C7.74226 2.25769 7.68843 2.07513 7.62786 1.90778C7.55047 1.69175 7.18708 1.36923 7.00202 1.13798C6.98183 1.10756 6.96164 1.08017 6.93809 1.04975C6.91454 1.01019 6.88089 0.976722 6.84388 0.943253C6.69919 0.80329 6.49731 0.684626 6.19448 0.605516C6.16757 0.599431 6.14401 0.593345 6.11709 0.584217C6.08008 0.565961 6.04644 0.550748 6.00942 0.532492C5.86137 0.456425 5.70323 0.419913 5.52154 0.392529C5.23217 0.286036 4.98318 0.18867 4.74428 0.130859C4.55922 0.14303 4.38089 0.185627 4.21938 0.270822C4.0747 0.349932 3.95357 0.453383 3.84926 0.569004C3.73486 0.696796 3.61709 0.824588 3.56999 0.98585C3.52288 1.14103 3.50942 1.30229 3.51279 1.46355C3.51615 1.64915 3.58681 1.81041 3.62046 1.98993C3.64738 2.13902 3.59691 2.28811 3.68439 2.42808C3.70794 2.46459 3.73486 2.50719 3.76851 2.54674C3.82571 2.56804 3.88964 2.59238 3.96703 2.61976C4.27322 2.72017 4.37753 2.64106 4.58277 2.5224C4.66353 2.5011 4.74428 2.47067 4.8284 2.43112C4.95626 2.37027 5.09085 2.31854 5.22544 2.27594C6.97847 2.05383 6.65545 4.50318 6.60162 4.80136C6.54778 5.09954 6.65209 5.45249 6.74967 5.06607C6.75639 5.04477 6.84388 5.12997 6.86743 4.94741C6.86743 4.94437 6.86407 4.93828 6.86743 4.94741C6.94818 5.10867 6.88425 5.31557 6.8035 5.47988C6.76985 5.58028 6.71265 5.74763 6.71265 5.74763C6.71265 5.74763 7.01548 5.31557 7.22409 4.88655C7.38897 4.54882 7.65142 3.47476 7.71871 3.02748C7.7961 2.75668 7.81292 2.60455 7.75909 2.45546Z" fill="white"/>
<path d="M4.74094 0.127792C4.74094 0.127792 5.27593 0.0121707 5.81765 0.0821521C6.35938 0.155176 6.36947 0 6.7295 0C7.08952 0 7.69518 0.13692 8.0552 0.286011C9.36745 0.836735 9.35399 1.42397 9.53905 1.68868C9.72411 1.9534 10.0438 2.51629 9.93609 2.82664C9.83178 3.13699 9.72411 3.23436 9.83178 3.66338C9.93609 4.09544 9.80823 3.9859 9.64672 4.32059C9.48522 4.65529 9.60635 4.64312 9.48522 4.93217C9.36745 5.21818 9.48185 5.24861 9.27324 5.40987C9.06126 5.57418 9.15547 5.60764 9.03434 5.74761C8.91658 5.88757 8.97714 5.93625 8.76853 6.02145C8.55991 6.10664 7.76584 6.62085 7.24767 6.17662C6.61173 5.63199 6.92802 5.37032 6.86745 5.30642C6.81025 5.24252 7.04915 4.11673 7.04915 4.11673C7.04915 4.11673 7.27458 3.34998 7.24767 3.26783C7.22075 3.18263 7.26112 2.65625 7.1299 2.41892C6.99531 2.17855 5.75036 1.05276 5.69316 1.0193C5.63259 0.982783 4.74094 0.127792 4.74094 0.127792Z" fill="white"/>
<path d="M8.70457 39.4542C8.70457 40.1144 8.10901 40.65 7.37886 40.65C6.64871 40.65 6.05652 40.1114 6.05652 39.4511C6.05652 38.7909 6.65208 38.2554 7.38223 38.2554C8.11574 38.2584 8.70793 38.7939 8.70457 39.4542Z" fill="#E4AE84"/>
<path d="M8.02489 27.9072C8.05517 28.1354 8.10901 29.2368 8.27052 29.5198C8.78196 30.4174 9.04104 32.5168 8.56661 34.0321C8.16958 35.3039 7.92731 37.4855 7.92731 37.4855L6.27859 38.1306C6.27859 38.1306 6.02624 35.6052 5.74696 32.7268C5.54172 30.6243 5.17496 29.9032 5.13458 28.9356C5.26917 28.5827 7.85666 27.6638 8.02489 27.9072Z" fill="#E4AE84"/>
<path d="M7.69179 29.4682C7.59421 29.8546 5.39367 29.6903 5.28937 28.9965C5.22544 27.5787 3.49933 20.0572 5.52826 19.3969C5.52826 19.3969 8.97039 17.4374 9.45155 20.5775C9.80485 22.8869 8.32773 26.0086 8.12921 27.1892C8.02153 27.8464 7.93405 28.8353 7.69179 29.4682Z" fill="#E4AE84"/>
<path d="M8.00808 36.5273C8.00808 36.5273 7.81629 38 8.51953 38.8459C9.09489 39.5365 7.20391 40.2455 7.37888 40.6471C7.37888 40.6471 3.85263 40.9362 3.56327 40.0629C3.3883 39.5396 4.65681 38.5325 5.57201 38.6085C6.59153 38.6937 6.41656 36.8864 6.41656 36.8864L8.00808 36.5273Z" fill="#E4AE84"/>
<path d="M6.06326 38.2673L6.20458 37.7683C6.20458 37.7683 7.3856 38.0117 8.04509 37.7349L8.25371 38.0726C8.25371 38.0696 7.57067 38.8728 6.06326 38.2673Z" fill="white"/>
<path d="M5.05719 26.8638C5.05719 26.8638 4.91251 27.9104 5.00672 28.7624C5.10093 29.6143 5.30282 29.5322 5.58882 29.9399C5.87482 30.3476 6.13054 29.9217 6.13054 29.9217C6.13054 29.9217 6.15073 28.2451 6.13391 28.2025C6.11372 28.1599 5.05719 26.8638 5.05719 26.8638Z" fill="#E4AE84"/>
<path d="M9.11171 40.1538C9.12853 40.4185 9.09489 40.6771 7.37214 40.735C6.7463 40.7563 6.01952 40.7197 4.96299 40.8415C3.39839 41.0179 2.44617 40.8323 1.93809 40.6619C1.5175 40.522 1.16084 40.3759 1.14738 40.2755C1.14738 40.2603 1.14401 40.2451 1.14401 40.2299C1.14401 40.2816 1.15074 40.3303 1.15411 40.3668C1.16757 40.4702 1.52423 40.6133 1.94482 40.7532C2.4529 40.9236 3.37483 41.0788 4.94617 40.9601C6.01952 40.878 6.75639 40.8475 7.37887 40.8262C9.15209 40.7684 9.13526 40.4946 9.11844 40.2207C9.11171 40.1994 9.11171 40.1751 9.11171 40.1538Z" fill="#717375"/>
<path d="M8.73822 37.5101C8.67429 37.4888 8.60699 37.5496 8.55652 37.6683C8.46904 37.8691 8.50605 38.0577 8.50605 38.0669H8.51278C8.49259 38.1338 8.4825 38.2038 8.48923 38.289L8.57335 38.2799C8.55652 38.1308 8.61372 38.0273 8.67765 37.9056C8.70794 37.8478 8.74158 37.7869 8.76514 37.72C8.8257 37.5557 8.76514 37.5192 8.73822 37.5101ZM8.68438 37.6926C8.66083 37.7565 8.63055 37.8143 8.60026 37.8691C8.59354 37.8782 8.59017 37.8873 8.58681 37.8965C8.59354 37.8356 8.60699 37.7656 8.63728 37.6926C8.66419 37.6287 8.69111 37.5983 8.70457 37.5861C8.70794 37.6074 8.70457 37.6409 8.68438 37.6926Z" fill="#0D0B42"/>
<path fill-rule="evenodd" clip-rule="evenodd" d="M7.51682 40.1571C7.15343 40.1784 6.86069 40.2666 6.32906 40.3609C5.79744 40.4553 4.99999 40.5831 4.37415 40.6135C3.75168 40.6439 2.86002 40.5831 2.48317 40.5465C1.8506 40.4887 1.22139 40.2697 1.2113 40.2605L1.16083 40.0993C1.16083 40.0993 1.2113 39.9684 1.33916 39.8863C1.46702 39.8041 1.74966 39.7311 2.52018 39.4816C3.50605 39.1621 3.82234 39.0191 4.30686 38.657C4.79138 38.295 5.39703 37.9603 5.56863 37.9998C5.74024 38.0394 6.04306 38.2128 6.64535 38.368C7.82637 38.6723 7.20726 38.6966 8.04508 38.3832C8.42193 38.2402 8.41857 37.8203 8.45221 37.9086C8.45221 37.9086 8.44212 38.2493 8.66083 38.4897C8.92664 38.7879 9.02422 39.296 8.98048 39.8376C8.61372 40.0445 7.87011 40.1358 7.51682 40.1571Z" fill="#E50914"/>
<path fill-rule="evenodd" clip-rule="evenodd" d="M6.33581 37.5919C6.20795 37.4489 6.22141 37.2877 6.03972 37.1721C5.94214 37.1112 5.71334 37.2025 5.42734 37.668C5.17834 38.0696 4.6669 38.3952 4.6669 38.3952L4.69382 38.3922C4.01415 38.876 3.41522 39.0981 3.41522 39.0981L3.47915 39.2137C4.22276 38.8577 4.88898 38.4956 5.35668 38.237C5.56193 38.164 5.88494 38.2613 6.00944 38.1944C6.39302 37.9905 6.41657 37.6863 6.33581 37.5919Z" fill="#0D0B42"/>
<path fill-rule="evenodd" clip-rule="evenodd" d="M1.28533 40.1659C1.31898 40.2998 1.43001 40.3333 1.49394 40.3515C1.52423 40.3607 1.55451 40.3698 1.58816 40.3789H1.59152C1.62517 40.3881 1.65882 40.3972 1.69583 40.4063C1.73284 40.4154 1.76985 40.4246 1.81023 40.4337H1.81359C1.85061 40.4428 1.89098 40.452 1.93136 40.458C1.93472 40.458 1.93809 40.4611 1.94145 40.4611C1.98183 40.4702 2.02557 40.4793 2.06595 40.4854H2.06931C2.11305 40.4945 2.1568 40.5006 2.20054 40.5067C2.2039 40.5067 2.20727 40.5067 2.21063 40.5067C2.25101 40.5128 2.29475 40.5189 2.33849 40.525C2.34186 40.525 2.34522 40.525 2.34859 40.525C2.39233 40.5311 2.43943 40.5341 2.48318 40.5402C2.85666 40.5737 3.74832 40.6376 4.37416 40.6071C5 40.5767 5.79744 40.452 6.32907 40.3546C6.74966 40.2755 8.64401 40.102 9.01413 39.8891C9.0175 39.8465 8.98048 39.6791 8.98048 39.6365C8.93674 39.67 8.72476 39.8312 8.64065 39.8708C8.09892 40.1355 6.36945 40.242 5.77389 40.3515C5.17833 40.4611 3.87281 40.6589 2.16016 40.3029C2.16016 40.3029 1.39637 40.096 1.92799 39.8343C2.3856 39.6091 3.4825 39.2105 3.4825 39.2105L3.46904 39.0767C1.89771 39.7521 1.78668 39.4661 1.40646 39.7095C1.34589 39.7491 1.16756 39.9043 1.17766 40.0412C1.20458 40.0473 1.26178 40.0807 1.28533 40.1659Z" fill="#E50914"/>
<path d="M8.99396 39.6793C9.02088 39.1772 8.91657 38.7695 8.66422 38.4835C8.65076 38.4683 8.64066 38.4561 8.63057 38.4409C8.54981 38.4561 8.50944 38.517 8.62384 38.6782C8.82572 38.9643 8.90311 39.5119 8.9233 39.7128C8.94349 39.7006 8.96704 39.6915 8.99396 39.6793Z" fill="#E50914"/>
<path fill-rule="evenodd" clip-rule="evenodd" d="M3.39501 39.5362C3.39501 39.5362 3.74494 39.1193 3.21668 39.241C3.02489 39.2867 1.43 39.8222 1.56796 40.0534C1.6588 40.2025 1.6117 40.2177 1.96163 40.3486C2.31493 40.4794 3.95019 40.5676 3.65073 40.5037C3.00133 40.3668 3.10564 40.1264 3.50268 39.8039C3.89972 39.4814 4.06796 39.3962 4.06796 39.3962L3.39501 39.5362Z" fill="#E50914"/>
<path d="M3.8829 39.4329C3.8829 39.4329 5.60901 40.5161 4.22947 40.5283C4.22947 40.5283 5.22207 40.5678 5.42732 40.4066C5.63257 40.2423 5.35329 39.6885 4.4751 39.1226L3.8829 39.4329Z" fill="#E50914"/>
<path d="M4.62314 38.9827C4.62314 38.9827 6.42327 40.2241 5.42731 40.428C5.42731 40.428 6.19447 40.4371 6.36944 40.2485C6.72273 39.8651 6.09353 39.2353 5.21533 38.6724L4.62314 38.9827Z" fill="#E50914"/>
<path d="M5.38022 38.581C5.38022 38.581 7.52692 40.0475 6.41992 40.3062C6.41992 40.3062 7.37887 40.3183 7.55384 40.1297C7.77591 39.8893 6.60835 39.01 7.73553 38.5445C7.96097 38.4501 6.1743 38.441 5.84455 38.228L5.38022 38.581Z" fill="#E50914"/>
<path fill-rule="evenodd" clip-rule="evenodd" d="M8.76515 38.6234C8.73487 38.5747 8.70122 38.5291 8.66084 38.4865C8.65411 38.4773 8.64402 38.4682 8.63729 38.456C8.50943 38.1761 8.51616 37.9236 8.51616 37.9236C8.50606 37.3485 8.2167 37.671 8.19314 37.7593C8.14267 37.954 8.15613 38.3921 7.23419 38.383C6.46703 38.3739 5.93541 38.1061 5.81764 38.0422C5.55519 37.9053 5.44752 37.9084 5.41387 37.9175C4.97982 38.1244 4.92935 38.2613 4.56259 38.5534C3.73823 39.1041 3.26717 39.2745 3.08884 39.3597C3.08884 39.3597 3.35129 39.6518 3.76178 39.5331C3.76178 39.5331 3.76178 39.5331 3.76515 39.5331C3.77861 39.5301 3.79207 39.524 3.80553 39.521C3.81898 39.5149 3.83581 39.5118 3.84927 39.5058C3.85263 39.5058 3.856 39.5027 3.856 39.5027C3.86946 39.4966 3.87955 39.4936 3.89301 39.4875C3.90983 39.4814 3.92329 39.4723 3.94012 39.4632C4.4852 39.1863 5.3533 38.6234 5.56865 38.5078C5.78399 38.3921 6.23487 38.4408 6.55788 38.523C7.50337 38.7603 7.63123 38.5139 8.22343 38.666C8.42868 38.7177 8.69785 38.9429 8.90647 39.4084C8.90983 39.4175 8.86946 38.9855 8.87955 38.9855C8.88292 38.9855 8.64738 38.6934 8.65075 38.6934C8.65748 38.6934 8.66421 38.6934 8.67094 38.6934H8.6743C8.68103 38.6903 8.69113 38.6873 8.69785 38.6842C8.69785 38.6842 8.70122 38.6842 8.70122 38.6812C8.70795 38.6782 8.71468 38.6721 8.72141 38.669C8.72141 38.669 8.72141 38.669 8.72477 38.666C8.7416 38.6508 8.75169 38.6356 8.76515 38.6234Z" fill="#E50914"/>
<path fill-rule="evenodd" clip-rule="evenodd" d="M5.50809 38.1396C5.51145 38.1852 5.55183 38.2187 5.6023 38.2157C5.65277 38.2126 5.68978 38.1761 5.68642 38.1305C5.68305 38.0848 5.64268 38.0513 5.59221 38.0544C5.5451 38.0574 5.50809 38.0939 5.50809 38.1396Z" fill="white"/>
<path fill-rule="evenodd" clip-rule="evenodd" d="M5.52827 38.1397C5.53164 38.1762 5.56528 38.2005 5.60229 38.2005C5.64267 38.1975 5.66959 38.1671 5.66959 38.1336C5.66622 38.0971 5.63258 38.0728 5.59556 38.0728C5.55519 38.0728 5.52491 38.1032 5.52827 38.1397Z" fill="black"/>
<path fill-rule="evenodd" clip-rule="evenodd" d="M5.55519 38.2068C5.55519 38.2068 5.14133 38.2373 5.06058 38.0882C5.06058 38.0882 5.07067 37.9939 5.13124 38.0304C5.29947 38.1308 5.35331 38.0821 5.59557 38.073C5.59557 38.0699 5.68978 38.1764 5.55519 38.2068Z" fill="#BCBEC0"/>
<path fill-rule="evenodd" clip-rule="evenodd" d="M5.05049 38.523C5.04712 38.5687 5.0875 38.6052 5.13461 38.6082C5.18508 38.6113 5.22546 38.5748 5.22882 38.5322C5.23218 38.4865 5.19181 38.45 5.1447 38.447C5.09423 38.4439 5.05049 38.4774 5.05049 38.523Z" fill="white"/>
<path fill-rule="evenodd" clip-rule="evenodd" d="M5.0673 38.523C5.06394 38.5595 5.09422 38.5869 5.1346 38.5899C5.17497 38.593 5.20526 38.5656 5.20862 38.5291C5.21199 38.4926 5.1817 38.4652 5.14133 38.4621C5.10431 38.4591 5.07067 38.4865 5.0673 38.523Z" fill="black"/>
<path fill-rule="evenodd" clip-rule="evenodd" d="M5.0875 38.59C5.0875 38.59 4.67364 38.5778 4.60971 38.4226C4.60971 38.4226 4.6299 38.3283 4.6871 38.3709C4.84188 38.4896 4.90244 38.4439 5.14134 38.4591C5.14134 38.4622 5.22546 38.5748 5.0875 38.59Z" fill="#BCBEC0"/>
<path fill-rule="evenodd" clip-rule="evenodd" d="M4.56932 38.8396C4.56259 38.8822 4.59287 38.9247 4.64334 38.9339C4.69045 38.94 4.73756 38.9126 4.74765 38.8669C4.75775 38.8243 4.7241 38.7817 4.67363 38.7726C4.62316 38.7635 4.57605 38.7939 4.56932 38.8396Z" fill="white"/>
<path fill-rule="evenodd" clip-rule="evenodd" d="M4.58615 38.8427C4.57942 38.8762 4.60634 38.9097 4.64335 38.9157C4.68036 38.9218 4.71737 38.8975 4.7241 38.864C4.73083 38.8305 4.70391 38.7971 4.6669 38.791C4.62989 38.7819 4.59288 38.8062 4.58615 38.8427Z" fill="black"/>
<path fill-rule="evenodd" clip-rule="evenodd" d="M4.59624 38.9123C4.59624 38.9123 4.1992 38.8637 4.15546 38.7024C4.15546 38.7024 4.1891 38.6111 4.23957 38.6598C4.37753 38.7937 4.428 38.7511 4.6669 38.7906C4.6669 38.7876 4.73419 38.9093 4.59624 38.9123Z" fill="#BCBEC0"/>
<path fill-rule="evenodd" clip-rule="evenodd" d="M4.05452 39.1136C4.0377 39.1562 4.06125 39.2019 4.10836 39.2171C4.15547 39.2323 4.20594 39.211 4.22276 39.1684C4.23958 39.1258 4.21603 39.0802 4.16892 39.065C4.12182 39.0497 4.07135 39.071 4.05452 39.1136Z" fill="white"/>
<path fill-rule="evenodd" clip-rule="evenodd" d="M4.07135 39.1195C4.05789 39.153 4.07808 39.1895 4.11509 39.2017C4.15211 39.2138 4.19248 39.1956 4.20594 39.1621C4.2194 39.1286 4.19921 39.0921 4.1622 39.08C4.12519 39.0678 4.08481 39.086 4.07135 39.1195Z" fill="black"/>
<path fill-rule="evenodd" clip-rule="evenodd" d="M4.06797 39.1924C4.06797 39.1924 3.72141 39.1102 3.70795 38.9459C3.70795 38.9459 3.75842 38.8607 3.79879 38.9186C3.90983 39.0707 3.93338 39.0068 4.16219 39.0829C4.16219 39.0798 4.20593 39.2106 4.06797 39.1924Z" fill="#BCBEC0"/>
<path fill-rule="evenodd" clip-rule="evenodd" d="M5.30286 38.3222C5.30622 38.3678 5.34996 38.4013 5.39707 38.3983C5.44754 38.3952 5.48455 38.3587 5.48119 38.3131C5.47782 38.2674 5.43744 38.234 5.38697 38.237C5.3365 38.2401 5.29949 38.2766 5.30286 38.3222Z" fill="white"/>
<path fill-rule="evenodd" clip-rule="evenodd" d="M5.32304 38.3223C5.3264 38.3588 5.36005 38.3832 5.39706 38.3832C5.43744 38.3801 5.46436 38.3497 5.46436 38.3162C5.46099 38.2797 5.43071 38.2554 5.39033 38.2554C5.34996 38.2554 5.31968 38.2858 5.32304 38.3223Z" fill="black"/>
<path fill-rule="evenodd" clip-rule="evenodd" d="M5.22546 37.9756C5.22546 37.9756 4.95964 38.0395 5.19181 38.2494C5.33649 38.3803 5.3836 38.3529 5.39706 38.3255C5.41725 38.292 5.44417 38.2768 5.3264 38.216C5.18508 38.1399 5.16826 37.9878 5.22546 37.9756Z" fill="white"/>
<path fill-rule="evenodd" clip-rule="evenodd" d="M4.8217 38.6815C4.81833 38.7272 4.85871 38.7637 4.90582 38.7667C4.95629 38.7698 4.99667 38.7363 5.00003 38.6907C5.00339 38.645 4.96638 38.6085 4.91591 38.6055C4.86544 38.6055 4.82506 38.6389 4.8217 38.6815Z" fill="white"/>
<path fill-rule="evenodd" clip-rule="evenodd" d="M4.84189 38.6846C4.84189 38.7211 4.86881 38.7485 4.90918 38.7516C4.94956 38.7546 4.98321 38.7272 4.98321 38.6907C4.98657 38.6542 4.95629 38.6268 4.91591 38.6238C4.87554 38.6207 4.84189 38.6481 4.84189 38.6846Z" fill="black"/>
<path fill-rule="evenodd" clip-rule="evenodd" d="M4.78467 38.3164C4.78467 38.3164 4.51213 38.3681 4.71738 38.5994C4.84524 38.7454 4.89234 38.7211 4.9159 38.6937C4.93945 38.6633 4.96637 38.6481 4.85869 38.5781C4.72747 38.4898 4.72747 38.3225 4.78467 38.3164Z" fill="white"/>
<path fill-rule="evenodd" clip-rule="evenodd" d="M4.32033 38.9735C4.3136 39.0161 4.34388 39.0587 4.39435 39.0678C4.44146 39.0739 4.48856 39.0465 4.49866 39.0009C4.50539 38.9583 4.47511 38.9157 4.42463 38.9065C4.37416 38.9005 4.33042 38.9309 4.32033 38.9735Z" fill="white"/>
<path fill-rule="evenodd" clip-rule="evenodd" d="M4.34051 38.9765C4.33378 39.01 4.3607 39.0434 4.39771 39.0495C4.43472 39.0556 4.47174 39.0313 4.47847 38.9978C4.4852 38.9643 4.45828 38.9308 4.42127 38.9248C4.38425 38.9187 4.34724 38.943 4.34051 38.9765Z" fill="black"/>
<path fill-rule="evenodd" clip-rule="evenodd" d="M4.34725 38.6265C4.34725 38.6265 4.05788 38.6265 4.23285 38.879C4.34052 39.0372 4.39099 39.019 4.41454 38.9946C4.44146 38.9672 4.47174 38.9551 4.37417 38.8729C4.25304 38.7725 4.28668 38.6265 4.34725 38.6265Z" fill="white"/>
<path fill-rule="evenodd" clip-rule="evenodd" d="M3.78536 39.2079C3.76853 39.2505 3.79209 39.2961 3.83919 39.3113C3.8863 39.3265 3.93677 39.3052 3.9536 39.2626C3.97042 39.22 3.94687 39.1744 3.89976 39.1592C3.85265 39.147 3.80218 39.1683 3.78536 39.2079Z" fill="white"/>
<path fill-rule="evenodd" clip-rule="evenodd" d="M3.80219 39.214C3.78873 39.2475 3.80892 39.284 3.84593 39.2962C3.88294 39.3084 3.92332 39.2901 3.93678 39.2566C3.95024 39.2232 3.93005 39.1867 3.89304 39.1745C3.85602 39.1654 3.81565 39.1806 3.80219 39.214Z" fill="black"/>
<path fill-rule="evenodd" clip-rule="evenodd" d="M3.90648 38.8729C3.90648 38.8729 3.59019 38.8242 3.71132 39.1011C3.78871 39.2746 3.84255 39.2654 3.86946 39.2441C3.90311 39.2198 3.93339 39.2167 3.85264 39.1163C3.75506 39.0007 3.84928 38.8668 3.90648 38.8729Z" fill="white"/>
<path fill-rule="evenodd" clip-rule="evenodd" d="M5.23892 38.0274C5.23892 38.0274 6.05318 37.6927 5.77391 37.3459C5.498 36.999 5.24228 37.787 5.21536 37.9879L5.26583 37.9757C5.26583 37.9757 5.39369 37.4645 5.56866 37.3885C5.74363 37.3124 5.75709 37.4584 5.72007 37.5254C5.68643 37.5832 5.58885 37.7749 5.34995 37.9514C5.33649 37.9635 5.26247 37.9666 5.24565 37.9757C5.22882 37.9909 5.26247 38.0122 5.23892 38.0274Z" fill="#BCBEC0"/>
<path fill-rule="evenodd" clip-rule="evenodd" d="M5.31629 37.9146C5.31629 37.9146 5.45761 37.3882 5.16488 37.2087C4.87215 37.0292 4.69382 37.2026 4.96636 37.6134C5.2389 38.0241 5.2389 38.0241 5.2389 38.0241L5.29274 37.9694C5.29274 37.9694 5.08076 37.6834 5.01347 37.5221C4.94617 37.3578 4.8957 37.1813 5.03365 37.2482C5.17161 37.3152 5.26246 37.3821 5.27255 37.6499C5.27928 37.7777 5.249 37.8933 5.25236 37.9481C5.25909 38.0059 5.2961 37.9998 5.2961 37.9998L5.31629 37.9146Z" fill="#BCBEC0"/>
<path fill-rule="evenodd" clip-rule="evenodd" d="M5.19516 38.0029C5.19516 38.0029 5.11441 38.0485 4.88897 38.085C4.66353 38.1216 4.48184 38.3376 4.4852 38.3528C4.48857 38.3711 4.428 38.3802 4.428 38.3802C4.428 38.3802 4.38426 38.3498 4.42127 38.2646C4.45828 38.1794 4.53567 38.0181 4.86542 38.009C5.19516 37.9999 5.28265 37.9512 5.28265 37.9512C5.28265 37.9512 5.37686 37.9999 5.19516 38.0029Z" fill="#D1D3D4"/>
<path fill-rule="evenodd" clip-rule="evenodd" d="M5.30959 37.9419C5.30959 37.9419 5.03704 38.1092 4.87217 38.1762C4.7073 38.2431 4.51551 38.4348 4.41457 38.45C4.31362 38.4652 4.34727 38.5352 4.34727 38.5352C4.34727 38.5352 4.40784 38.5687 4.68038 38.3527C4.95292 38.1366 5.08751 38.1366 5.18173 38.0758C5.27594 38.0088 5.31632 38.0027 5.30959 37.9419Z" fill="#D1D3D4"/>
<path d="M9.06461 39.9108C9.03769 39.8591 8.99058 39.7039 8.97712 39.6431C8.76851 39.7161 7.83648 40.1451 6.38627 40.2729C5.84792 40.3216 4.97981 40.4615 4.35734 40.4889C3.7315 40.5194 2.89368 40.5102 2.51683 40.4768C2.14334 40.4433 1.74967 40.3611 1.50404 40.2912C1.44011 40.2729 1.33244 40.2181 1.32234 40.066C1.31562 39.9291 1.26514 39.7982 1.18103 39.9382C1.12719 40.0234 1.14065 40.2546 1.14738 40.3185C1.16084 40.4189 1.5175 40.565 1.93809 40.705C2.44617 40.8754 3.38493 41.0305 4.95626 40.9119C6.02961 40.8297 6.74967 40.7993 7.37551 40.778C9.14872 40.7202 9.1319 40.4463 9.11508 40.1725C9.10835 40.0751 9.08479 39.9443 9.06461 39.9108Z" fill="#D3D5D6"/>
<path d="M8.65412 40.1023C8.65412 40.1023 7.56058 40.4127 7.08279 40.437C6.33245 40.4766 6.81361 40.6013 7.59086 40.6287C8.89975 40.6744 9.13864 40.0537 8.65412 40.1023Z" fill="#ABADB0"/>
<path d="M3.94349 40.872C3.94349 40.872 2.61778 40.9511 1.71603 40.5708C1.71603 40.5708 2.24093 40.6225 2.60432 40.659C3.94013 40.796 4.0949 40.5191 3.94349 40.872Z" fill="#ABADB0"/>
<path d="M9.69381 18.7944C9.69381 18.7944 10.4374 20.7904 9.60633 23.1484C8.64401 25.8716 9.07806 27.6212 9.07806 27.6212H4.38089L4.14199 21.7701L4.07806 20.5591V18.7305L9.69381 18.7944Z" fill="#E50914"/>
<path d="M3.99732 18.3623C3.99732 18.3623 6.17094 18.6787 9.57605 18.3866L9.81158 19.199C9.81158 19.199 5.32975 19.5763 3.93002 19.1564L3.99732 18.3623Z" fill="white"/>
<path d="M9.05114 8.26982C8.79206 8.00815 7.57402 7.79821 7.20727 7.81646C7.19717 7.80429 6.93809 7.83168 6.84051 7.85602C6.03297 7.95034 4.40444 9.35606 4.23621 9.67249C3.57672 10.9169 3.57335 12.0549 4.12517 12.7182C4.48183 13.1442 4.08816 14.9333 4.07133 15.6331C4.04105 17.0753 3.9502 17.4556 3.99731 18.3654C5.36339 18.4628 6.19785 18.5297 6.82705 18.4749C7.84657 18.5632 9.57604 18.3897 9.57604 18.3897C9.45491 17.8786 9.32705 17.2913 9.50538 15.1736C9.89569 10.5701 10.3062 9.53862 9.05114 8.26982ZM6.81359 12.633C5.1716 12.5417 4.93607 9.06092 7.2039 8.43717C7.32167 8.3824 7.19381 8.26678 7.34859 8.3398C8.62382 8.76578 9.74764 12.1736 6.81359 12.633Z" fill="#E50914"/>
<path d="M6.23822 16.9265C6.18102 16.9996 6.14401 17.1182 6.11372 17.2065C5.92193 17.742 5.95558 19.5615 6.12718 20.6143C6.30215 21.6701 6.18438 22.4703 6.18438 22.4703L7.55383 22.3942C7.55383 22.3942 7.47644 21.6609 7.786 20.2035C8.09555 18.7491 7.99125 17.6203 7.73553 16.8231C7.62113 16.5462 6.34926 16.7257 6.23822 16.9265Z" fill="#E4AE84"/>
<path d="M6.2315 21.5394C6.2315 21.5394 6.25168 22.0963 6.09691 22.4948C5.96905 22.8326 5.94213 22.9573 5.77053 23.5172C5.5821 24.1257 5.51481 24.147 5.39031 24.3265C5.26918 24.506 5.62921 24.8651 5.95895 24.363C6.2887 23.861 6.29879 23.6906 6.29879 23.6906C6.29879 23.6906 6.14065 24.5608 6.09691 25.0172C6.05317 25.4706 6.00606 25.7566 6.25505 25.7475C6.37954 25.7414 6.43674 25.6866 6.52759 25.0811C6.61844 24.4756 6.72948 23.7971 6.72948 23.7971C6.72948 23.7971 6.4603 26.0274 6.74967 26.0548C6.93473 26.07 7.01548 25.9757 7.07268 25.2515C7.13325 24.5273 7.15007 23.8367 7.15007 23.8367C7.15007 23.8367 7.18708 25.717 7.25438 25.86C7.29475 25.9452 7.58749 26.2738 7.5673 25.5193C7.54711 24.7647 7.52019 23.7819 7.52019 23.7819C7.52019 23.7819 7.62786 25.3702 7.86676 25.3458C8.11238 25.3215 7.98789 24.6308 7.89031 23.6632C7.79273 22.6926 7.69852 22.723 7.57739 22.4705C7.45626 22.221 7.58412 21.4634 7.58412 21.4634L6.2315 21.5394Z" fill="#E4AE84"/>
<path d="M6.81022 17.2948C6.8506 17.1853 6.11372 17.2065 6.11372 17.2065C6.11372 17.2065 5.65275 14.2795 6.02287 13.5645C6.02287 13.5645 5.36675 11.7876 5.58882 11.0482C5.10093 8.89093 6.26513 7.99943 7.62785 8.16982C8.90982 8.33108 9.15208 9.73983 8.78196 11.0421C8.34118 12.5999 8.35127 12.9133 8.39501 13.5949C8.45221 14.5168 7.95087 16.738 7.81628 17.1061C7.19044 17.0879 7.32839 17.6021 6.81022 17.2948Z" fill="#E4AE84"/>
<g opacity="0.26">
<path d="M8.3412 11.748C8.19988 12.0067 8.07538 12.2683 7.94752 12.53C7.88359 12.6608 7.81966 12.7917 7.75573 12.9195C7.68844 13.0503 7.62114 13.1781 7.54712 13.3059C7.65816 13.1994 7.74564 13.0777 7.82639 12.9529C7.90715 12.8282 7.97781 12.6974 8.04174 12.5665C8.10567 12.4357 8.16287 12.2988 8.21334 12.1619C8.26381 12.028 8.31091 11.8911 8.3412 11.748Z" fill="#511D06"/>
<path d="M7.8836 16.1084C7.78265 16.151 7.69853 16.2058 7.61442 16.2605L7.49329 16.3427C7.45291 16.3701 7.41253 16.3975 7.36206 16.4248C7.41926 16.434 7.47646 16.4248 7.5303 16.4066C7.58413 16.3883 7.63124 16.364 7.67498 16.3336C7.71872 16.3031 7.7591 16.2697 7.79275 16.2331C7.82976 16.1966 7.86341 16.1571 7.8836 16.1084Z" fill="#511D06"/>
</g>
<path d="M8.34119 7.50928C8.34119 7.50928 8.75505 8.53466 8.93338 8.75982C9.11171 8.98497 9.50539 11.2183 9.50539 11.2183L9.76111 9.87343C9.76447 9.87343 9.23284 8.21518 8.34119 7.50928Z" fill="#E6E7E8"/>
</g>
<defs>
<clipPath id="clip0_158_3918">
<rect width="10" height="41" fill="white"/>
</clipPath>
</defs>
</svg>
