<svg width="29" height="40" viewBox="0 0 29 40" fill="none" xmlns="http://www.w3.org/2000/svg">
<g clip-path="url(#clip0_158_3742)">
<path d="M19.8468 11.6428C19.8238 11.7196 19.8238 11.8232 19.8238 11.9067C19.8172 12.3976 20.2934 13.9105 20.6875 14.7521C21.0816 15.5937 21.1933 16.2917 21.1933 16.2917L22.1917 15.9143C22.1917 15.9143 21.952 15.3199 21.8173 14.0307C21.6827 12.7449 21.3247 11.8232 20.9338 11.2187C20.7795 11.0083 19.8796 11.4491 19.8468 11.6428Z" fill="#E4AE84"/>
<path d="M20.993 15.4999C20.993 15.4999 21.1473 15.9608 21.1309 16.3282C21.1178 16.6421 21.1309 16.749 21.144 17.26C21.1572 17.811 21.1112 17.8444 21.0652 18.0248C21.0192 18.2051 21.3772 18.4189 21.4954 17.9246C21.617 17.427 21.5808 17.2834 21.5808 17.2834C21.5808 17.2834 21.6826 18.0482 21.7615 18.4389C21.8436 18.8297 21.8797 19.0801 22.0603 19.0134C22.1523 18.98 22.1786 18.9198 22.0965 18.3922C22.0111 17.8678 21.9257 17.2733 21.9257 17.2733C21.9257 17.2733 22.2837 19.2004 22.507 19.1536C22.6482 19.1236 22.6843 19.0267 22.5464 18.4089C22.4085 17.791 22.2508 17.2066 22.2508 17.2066C22.2508 17.2066 22.75 18.7695 22.8354 18.8731C22.888 18.9365 23.1868 19.1403 22.9832 18.5157C22.7796 17.8912 22.5136 17.0763 22.5136 17.0763C22.5136 17.0763 22.9898 18.3788 23.1606 18.302C23.3379 18.2252 23.0719 17.6775 22.7566 16.8893C22.4413 16.1011 22.3789 16.1479 22.2245 15.9642C22.0702 15.7805 21.9782 15.1226 21.9782 15.1226L20.993 15.4999Z" fill="#E4AE84"/>
<path d="M20.7039 11.9701C20.6317 11.8999 20.3985 12.431 20.3985 12.431C20.3985 12.431 17.9846 11.6261 17.5609 11.085C17.5609 11.085 15.9648 10.8613 15.4721 10.4204C13.6428 9.93284 13.3571 8.76059 13.9581 7.86221C14.523 7.01725 15.6922 7.3913 16.5658 8.1561C17.6135 9.07119 17.8565 9.18474 18.3984 9.41852C19.1275 9.7358 20.6678 10.9515 20.9043 11.1886C20.6777 11.6194 21.121 11.7229 20.7039 11.9701Z" fill="#E4AE84"/>
<g opacity="0.26">
<path d="M16.9632 8.74072C17.1142 8.94111 17.2752 9.13147 17.4295 9.32184C17.5084 9.41535 17.5872 9.5122 17.6627 9.60905C17.7382 9.70591 17.8138 9.80276 17.886 9.90629C17.8433 9.78606 17.7809 9.67585 17.712 9.57232C17.643 9.46878 17.5675 9.36859 17.4886 9.27174C17.4098 9.17489 17.3244 9.08472 17.2358 8.99454C17.1504 8.90437 17.0617 8.81754 16.9632 8.74072Z" fill="#511D06"/>
<path d="M20.162 10.7515C20.162 10.8416 20.1752 10.9218 20.1883 10.9986L20.208 11.1188C20.2146 11.1589 20.2211 11.1957 20.2244 11.2424C20.2507 11.2057 20.2638 11.1623 20.2671 11.1188C20.2704 11.0754 20.2704 11.032 20.2605 10.9886C20.254 10.9452 20.2408 10.9051 20.2244 10.865C20.2113 10.8249 20.1916 10.7849 20.162 10.7515Z" fill="#511D06"/>
</g>
<path d="M12.2798 26.0368C12.1091 26.3374 10.5195 25.6861 10.618 25.0816C10.93 23.8827 12.201 17.3468 13.876 17.27C13.876 17.27 16.2899 16.2981 15.8498 19.03C15.5247 21.0372 13.9023 23.3016 13.4556 24.2434C13.2027 24.7644 12.6214 25.5692 12.2798 26.0368Z" fill="#D3A17B"/>
<path d="M10.9859 23.248C10.9859 23.248 10.6115 24.0863 10.4669 24.8211C10.3192 25.5558 10.4899 25.5324 10.5983 25.9399C10.7067 26.3473 11.0056 26.0534 11.0056 26.0534C11.0056 26.0534 11.4457 24.6608 11.4457 24.6207C11.4424 24.5773 10.9859 23.248 10.9859 23.248Z" fill="#D3A17B"/>
<path d="M12.7922 25.0084C12.7495 25.2054 12.3258 27.1658 12.3652 27.443C12.4835 28.318 12.0795 30.1148 11.3011 31.2403C10.6508 32.1855 9.85276 33.9221 9.85276 33.9221L8.46024 34.0223C8.46024 34.0223 8.99229 31.8749 9.60316 29.4268C10.0498 27.6401 10.1812 26.2073 10.4242 25.3991C10.6278 25.142 12.7396 24.7646 12.7922 25.0084Z" fill="#D3A17B"/>
<path d="M8.43396 33.942L8.7591 32.8433C8.7591 32.8433 9.49478 33.5747 10.0728 33.5212L9.83962 34.0957C9.83634 34.0957 9.56374 34.6167 8.43396 33.942Z" fill="white"/>
<path d="M12.7593 23.7056C12.7593 23.7056 11.8627 23.8291 11.173 24.0963C10.4833 24.3602 10.5293 24.5873 10.3487 24.9646C10.1122 25.4522 10.6016 26.6445 10.6016 26.6445C10.6016 26.6445 11.8299 24.8511 11.8627 24.8277C11.8956 24.8043 12.7593 23.7056 12.7593 23.7056Z" fill="#D3A17B"/>
<path d="M10.4768 35.4283C10.4439 35.6588 10.375 35.8725 9.05471 35.6621C8.57521 35.5853 8.02674 35.445 7.1991 35.3882C5.97736 35.3048 5.28438 34.9975 4.92311 34.7771C4.62753 34.5934 4.37792 34.4164 4.38449 34.3262C4.38778 34.3128 4.38778 34.2995 4.39106 34.2861C4.38449 34.3295 4.37792 34.373 4.37464 34.403C4.36807 34.4932 4.61439 34.6702 4.91326 34.8539C5.27453 35.0776 5.95108 35.3515 7.16626 35.4884C8.00046 35.5819 8.56535 35.6654 9.04486 35.7423C10.4078 35.9593 10.4374 35.7256 10.4702 35.4884C10.4702 35.4684 10.4735 35.4484 10.4768 35.4283Z" fill="#717375"/>
<path d="M10.6279 33.1072C10.5819 33.0805 10.5195 33.1206 10.4637 33.2141C10.3651 33.3744 10.3586 33.5414 10.3586 33.5481H10.3651C10.3389 33.6015 10.3192 33.6616 10.3126 33.7351L10.3783 33.7418C10.3914 33.6115 10.4505 33.5314 10.5195 33.4379C10.5523 33.3911 10.5885 33.3444 10.618 33.2909C10.687 33.1607 10.6476 33.1173 10.6279 33.1072ZM10.5556 33.2575C10.5294 33.3076 10.4965 33.3544 10.4637 33.3978C10.4571 33.4045 10.4538 33.4112 10.4472 33.4178C10.4604 33.3677 10.4834 33.3076 10.5195 33.2509C10.5491 33.2008 10.5753 33.1807 10.5885 33.1707C10.5885 33.1874 10.5819 33.2141 10.5556 33.2575Z" fill="white"/>
<path fill-rule="evenodd" clip-rule="evenodd" d="M9.25832 35.1911C8.97587 35.1544 8.7394 35.1845 8.31902 35.1845C7.89863 35.1845 7.26806 35.1744 6.78855 35.1043C6.30905 35.0342 5.63906 34.8472 5.3599 34.7603C4.88697 34.6167 4.44359 34.3328 4.43703 34.3228L4.42389 34.1759C4.42389 34.1759 4.48301 34.0723 4.59467 34.0189C4.70634 33.9688 4.93295 33.9488 5.56353 33.8486C6.36817 33.725 6.63419 33.6482 7.06443 33.4111C7.49467 33.1739 8.0103 32.9802 8.1351 33.0404C8.2599 33.1005 8.46353 33.2942 8.89705 33.5179C9.74767 33.9588 9.27145 33.8853 9.96115 33.7417C10.2732 33.6782 10.3388 33.3142 10.352 33.3944C10.352 33.3944 10.2896 33.6849 10.4144 33.9254C10.5687 34.2226 10.5589 34.6701 10.4374 35.1277C10.1155 35.2613 9.53419 35.2245 9.25832 35.1911Z" fill="#E50914"/>
<path fill-rule="evenodd" clip-rule="evenodd" d="M8.78213 32.8132C8.70988 32.6696 8.746 32.536 8.62448 32.4091C8.5588 32.3423 8.3716 32.3857 8.07601 32.743C7.81984 33.0503 7.37647 33.2507 7.37647 33.2507H7.39946C6.80172 33.5646 6.30908 33.6615 6.30908 33.6615L6.33864 33.7683C6.96593 33.578 7.53083 33.3676 7.93151 33.2139C8.099 33.1839 8.3289 33.3141 8.43728 33.2774C8.75914 33.1638 8.83139 32.9067 8.78213 32.8132Z" fill="white"/>
<path fill-rule="evenodd" clip-rule="evenodd" d="M4.50601 34.2525C4.5093 34.3727 4.58812 34.4195 4.6341 34.4462C4.6538 34.4596 4.67679 34.4696 4.70307 34.483H4.70635C4.72934 34.4963 4.75562 34.5097 4.78189 34.523C4.80816 34.5364 4.83772 34.5498 4.864 34.5631C4.864 34.5631 4.864 34.5631 4.86728 34.5631C4.89355 34.5765 4.92311 34.5898 4.95267 34.6032C4.95595 34.6032 4.95596 34.6065 4.95924 34.6065C4.9888 34.6199 5.01836 34.6332 5.0512 34.6466C5.08404 34.66 5.1136 34.6733 5.14644 34.6867C5.14973 34.6867 5.14973 34.69 5.15301 34.69C5.18257 34.7034 5.21541 34.7134 5.24497 34.7234C5.24825 34.7234 5.25154 34.7268 5.25482 34.7268C5.28767 34.7401 5.32051 34.7501 5.35663 34.7602C5.6358 34.847 6.30579 35.034 6.78529 35.1042C7.26479 35.1743 7.89537 35.1876 8.31575 35.1843C8.64746 35.181 10.1221 35.3179 10.4407 35.191C10.4505 35.1542 10.4472 35.0073 10.4571 34.9706C10.4177 34.9939 10.2272 35.0975 10.1615 35.1175C9.70499 35.2611 8.3683 35.0908 7.89537 35.0975C7.42243 35.1008 6.39446 35.0741 5.14644 34.5063C5.14644 34.5063 4.59797 34.2124 5.04463 34.0688C5.43217 33.9453 6.33206 33.7683 6.33206 33.7683L6.3452 33.6514C5.03478 33.992 4.99865 33.7315 4.66694 33.8818C4.61439 33.9052 4.45346 34.0121 4.43704 34.1323C4.4666 34.139 4.50601 34.179 4.50601 34.2525Z" fill="#E50914"/>
<path d="M10.4636 35.0076C10.5687 34.5801 10.5556 34.216 10.4111 33.9322C10.4045 33.9188 10.398 33.9054 10.3914 33.8921C10.3257 33.8921 10.2863 33.9388 10.3487 34.0958C10.4571 34.3697 10.4242 34.8539 10.4078 35.0276C10.4242 35.0142 10.4439 35.0109 10.4636 35.0076Z" fill="#E50914"/>
<path fill-rule="evenodd" clip-rule="evenodd" d="M6.22039 34.0357C6.22039 34.0357 6.55538 33.7318 6.13171 33.7552C5.97735 33.7652 4.6735 33.9823 4.73918 34.2027C4.78188 34.343 4.74575 34.3497 4.99207 34.5166C5.23839 34.6836 6.46999 35.0042 6.25323 34.9074C5.78029 34.6903 5.89853 34.5033 6.25651 34.2862C6.61121 34.0691 6.75572 34.0224 6.75572 34.0224L6.22039 34.0357Z" fill="#E50914"/>
<path d="M6.60794 34.0188C6.60794 34.0188 7.74429 35.2077 6.69333 35.0107C6.69333 35.0107 7.44543 35.1944 7.62606 35.0875C7.80998 34.9773 7.68846 34.4596 7.11372 33.8418L6.60794 34.0188Z" fill="#E50914"/>
<path d="M7.24835 33.7449C7.24835 33.7449 8.41755 35.0808 7.62276 35.1075C7.62276 35.1075 8.20736 35.2311 8.37157 35.0941C8.70328 34.8169 8.32887 34.1857 7.75084 33.5679L7.24835 33.7449Z" fill="#E50914"/>
<path d="M7.89209 33.518C7.89209 33.518 9.28462 35.1011 8.40115 35.1545C8.40115 35.1545 9.13025 35.3115 9.29447 35.1745C9.50138 35.0042 8.75913 34.0691 9.69515 33.8453C9.88235 33.7986 8.52267 33.5214 8.30591 33.2876L7.89209 33.518Z" fill="#E50914"/>
<path fill-rule="evenodd" clip-rule="evenodd" d="M10.4669 34.0657C10.4505 34.0189 10.4341 33.9755 10.4111 33.9321C10.4045 33.9221 10.4012 33.912 10.398 33.9054C10.3454 33.6482 10.3947 33.4311 10.3947 33.4311C10.4833 32.9368 10.2075 33.1706 10.1746 33.2408C10.1057 33.4011 10.04 33.7785 9.34042 33.6282C8.75583 33.5046 8.39784 33.194 8.31573 33.1205C8.13838 32.9636 8.05628 32.9502 8.02672 32.9535C7.66217 33.0638 7.59977 33.1773 7.27134 33.371C6.55209 33.7183 6.16455 33.7918 6.01675 33.8386C6.01675 33.8386 6.16783 34.1291 6.50282 34.0891C6.51268 34.0891 6.52581 34.0857 6.53567 34.0824C6.5488 34.079 6.55866 34.079 6.57179 34.0757C6.57508 34.0757 6.57508 34.0757 6.57836 34.0724C6.58822 34.069 6.59807 34.069 6.6112 34.0657C6.62434 34.0623 6.63748 34.059 6.6539 34.0523C7.1137 33.8953 7.87236 33.5447 8.05299 33.4812C8.23691 33.4144 8.57191 33.5246 8.80509 33.6449C9.48493 33.9922 9.62615 33.7985 10.0498 34.0189C10.1976 34.0957 10.3651 34.3262 10.4472 34.757C10.4472 34.7637 10.4899 34.3896 10.4965 34.3896C10.4965 34.3896 10.3684 34.1024 10.3684 34.1058C10.375 34.1058 10.3782 34.1091 10.3848 34.1091C10.3848 34.1091 10.3848 34.1091 10.3881 34.1091C10.3947 34.1091 10.4012 34.1091 10.4078 34.1058H10.4111C10.4177 34.1058 10.4242 34.1024 10.4308 34.0957C10.4308 34.0957 10.4308 34.0957 10.4341 34.0957C10.4406 34.0857 10.4538 34.0757 10.4669 34.0657Z" fill="#E50914"/>
<path fill-rule="evenodd" clip-rule="evenodd" d="M8.06287 33.1573C8.0563 33.1974 8.08586 33.2308 8.12199 33.2375C8.1614 33.2442 8.19424 33.2141 8.20081 33.1774C8.20738 33.1373 8.17782 33.1039 8.14169 33.0972C8.10228 33.0905 8.06944 33.1173 8.06287 33.1573Z" fill="white"/>
<path fill-rule="evenodd" clip-rule="evenodd" d="M8.07601 33.1607C8.07273 33.1908 8.09243 33.2208 8.12199 33.2242C8.15155 33.2275 8.17782 33.2075 8.18439 33.1774C8.18767 33.1473 8.16797 33.1173 8.13841 33.1139C8.10885 33.1073 8.08258 33.1306 8.07601 33.1607Z" fill="black"/>
<path fill-rule="evenodd" clip-rule="evenodd" d="M8.08912 33.2206C8.08912 33.2206 7.77055 33.1838 7.73114 33.0469C7.73114 33.0469 7.75413 32.9668 7.79354 33.0068C7.90521 33.1204 7.95447 33.0836 8.13839 33.1137C8.13839 33.1104 8.19422 33.2139 8.08912 33.2206Z" fill="#BCBEC0"/>
<path fill-rule="evenodd" clip-rule="evenodd" d="M7.64905 33.4144C7.63919 33.4512 7.66218 33.4912 7.69831 33.5013C7.73444 33.5113 7.77385 33.4879 7.7837 33.4478C7.79355 33.4111 7.77056 33.371 7.73444 33.361C7.69503 33.3543 7.6589 33.3777 7.64905 33.4144Z" fill="white"/>
<path fill-rule="evenodd" clip-rule="evenodd" d="M7.66217 33.418C7.65561 33.4481 7.67203 33.4781 7.70159 33.4848C7.73114 33.4915 7.7607 33.4748 7.76727 33.4447C7.77384 33.4147 7.75742 33.3846 7.72786 33.3779C7.6983 33.3712 7.66874 33.3879 7.66217 33.418Z" fill="black"/>
<path fill-rule="evenodd" clip-rule="evenodd" d="M7.66546 33.4811C7.66546 33.4811 7.35017 33.411 7.32718 33.2674C7.32718 33.2674 7.36002 33.1906 7.39615 33.234C7.49468 33.3576 7.54722 33.3309 7.72786 33.3776C7.72786 33.3776 7.77384 33.4878 7.66546 33.4811Z" fill="#BCBEC0"/>
<path fill-rule="evenodd" clip-rule="evenodd" d="M7.22865 33.6149C7.21551 33.6516 7.23193 33.6917 7.26806 33.705C7.30418 33.7184 7.34359 33.7017 7.35673 33.665C7.36987 33.6282 7.35345 33.5882 7.31732 33.5748C7.28448 33.5581 7.24178 33.5781 7.22865 33.6149Z" fill="white"/>
<path fill-rule="evenodd" clip-rule="evenodd" d="M7.24179 33.6184C7.23194 33.6484 7.24508 33.6785 7.27463 33.6885C7.30419 33.6985 7.33375 33.6852 7.3436 33.6551C7.35346 33.625 7.34032 33.595 7.31076 33.585C7.28449 33.575 7.25493 33.5917 7.24179 33.6184Z" fill="black"/>
<path fill-rule="evenodd" clip-rule="evenodd" d="M7.23849 33.6816C7.23849 33.6816 6.94291 33.578 6.93634 33.4344C6.93634 33.4344 6.97575 33.3609 7.00531 33.411C7.08742 33.548 7.1334 33.5179 7.31075 33.588C7.31403 33.588 7.34687 33.7016 7.23849 33.6816Z" fill="#BCBEC0"/>
<path fill-rule="evenodd" clip-rule="evenodd" d="M6.79185 33.7719C6.77214 33.8053 6.782 33.8488 6.81484 33.8688C6.84768 33.8888 6.89038 33.8788 6.91008 33.8454C6.92979 33.812 6.91993 33.7686 6.88709 33.7486C6.85425 33.7285 6.81155 33.7385 6.79185 33.7719Z" fill="white"/>
<path fill-rule="evenodd" clip-rule="evenodd" d="M6.80499 33.7787C6.78857 33.8054 6.79843 33.8388 6.8247 33.8555C6.85097 33.8722 6.88382 33.8622 6.90024 33.8354C6.91666 33.8087 6.90681 33.7753 6.88053 33.7586C6.85426 33.7453 6.82142 33.752 6.80499 33.7787Z" fill="black"/>
<path fill-rule="evenodd" clip-rule="evenodd" d="M6.79183 33.8387C6.79183 33.8387 6.53895 33.7151 6.55865 33.5749C6.55865 33.5749 6.6112 33.5114 6.6309 33.5649C6.69002 33.7118 6.71958 33.6617 6.88051 33.7619C6.88051 33.7619 6.89365 33.8788 6.79183 33.8387Z" fill="#BCBEC0"/>
<path fill-rule="evenodd" clip-rule="evenodd" d="M7.87564 33.2843C7.86908 33.3244 7.89863 33.3578 7.93476 33.3644C7.97417 33.3711 8.00701 33.3444 8.01358 33.3043C8.02015 33.2676 7.99388 33.2308 7.95447 33.2242C7.91506 33.2175 7.88221 33.2442 7.87564 33.2843Z" fill="white"/>
<path fill-rule="evenodd" clip-rule="evenodd" d="M7.88878 33.2844C7.8855 33.3145 7.90521 33.3445 7.93476 33.3479C7.96432 33.3512 7.99388 33.3312 7.99717 33.3011C8.00045 33.2711 7.98074 33.241 7.95119 33.2377C7.92163 33.2343 7.89535 33.2544 7.88878 33.2844Z" fill="black"/>
<path fill-rule="evenodd" clip-rule="evenodd" d="M7.87237 32.9736C7.87237 32.9736 7.6589 32.987 7.80012 33.2007C7.8888 33.3343 7.92821 33.321 7.94463 33.2976C7.96433 33.2709 7.98732 33.2608 7.9085 33.1941C7.81654 33.1106 7.8264 32.977 7.87237 32.9736Z" fill="white"/>
<path fill-rule="evenodd" clip-rule="evenodd" d="M7.4487 33.5178C7.43885 33.5545 7.46184 33.5946 7.49796 33.6046C7.53409 33.6146 7.5735 33.5912 7.58335 33.5545C7.59321 33.5178 7.57022 33.4777 7.53409 33.4677C7.49468 33.4576 7.45855 33.481 7.4487 33.5178Z" fill="white"/>
<path fill-rule="evenodd" clip-rule="evenodd" d="M7.46183 33.521C7.45526 33.5511 7.47168 33.5811 7.50124 33.5878C7.5308 33.5945 7.56035 33.5778 7.56692 33.5477C7.57349 33.5177 7.55707 33.4876 7.52751 33.481C7.50124 33.4743 7.47168 33.491 7.46183 33.521Z" fill="black"/>
<path fill-rule="evenodd" clip-rule="evenodd" d="M7.48153 33.1973C7.48153 33.1973 7.26477 33.2006 7.38301 33.431C7.45526 33.5747 7.49796 33.5646 7.51766 33.5413C7.54065 33.5179 7.56364 33.5112 7.49467 33.4344C7.40928 33.3375 7.43555 33.1973 7.48153 33.1973Z" fill="white"/>
<path fill-rule="evenodd" clip-rule="evenodd" d="M7.01847 33.6916C7.00533 33.7284 7.02175 33.7684 7.05788 33.7818C7.09401 33.7952 7.13342 33.7785 7.14656 33.7417C7.15969 33.705 7.14327 33.6649 7.10715 33.6515C7.0743 33.6382 7.03161 33.6549 7.01847 33.6916Z" fill="white"/>
<path fill-rule="evenodd" clip-rule="evenodd" d="M7.03162 33.6983C7.02176 33.7284 7.0349 33.7584 7.06446 33.7718C7.09402 33.7818 7.12358 33.7684 7.13671 33.7384C7.14657 33.7083 7.13343 33.6783 7.10387 33.6649C7.07431 33.6549 7.04475 33.6682 7.03162 33.6983Z" fill="black"/>
<path fill-rule="evenodd" clip-rule="evenodd" d="M7.09399 33.3976C7.09399 33.3976 6.87394 33.3542 6.96262 33.5946C7.01845 33.7449 7.06115 33.7382 7.08414 33.7215C7.11041 33.7015 7.1334 33.6982 7.07428 33.6113C6.99875 33.5078 7.05129 33.3909 7.09399 33.3976Z" fill="white"/>
<path fill-rule="evenodd" clip-rule="evenodd" d="M6.57179 33.812C6.55208 33.8454 6.56193 33.8888 6.59478 33.9088C6.62762 33.9289 6.67031 33.9189 6.69002 33.8855C6.70973 33.8521 6.69987 33.8086 6.66703 33.7886C6.63419 33.7686 6.59149 33.7786 6.57179 33.812Z" fill="white"/>
<path fill-rule="evenodd" clip-rule="evenodd" d="M6.58493 33.8221C6.56851 33.8489 6.57836 33.8823 6.60464 33.899C6.63091 33.9157 6.66375 33.9056 6.68018 33.8789C6.6966 33.8522 6.68674 33.8188 6.66047 33.8021C6.6342 33.7854 6.59807 33.7954 6.58493 33.8221Z" fill="black"/>
<path fill-rule="evenodd" clip-rule="evenodd" d="M6.71959 33.5449C6.71959 33.5449 6.48641 33.4547 6.53567 33.7085C6.56523 33.8688 6.60793 33.8688 6.63092 33.8555C6.66048 33.8388 6.68347 33.8421 6.63749 33.7452C6.58165 33.6283 6.6769 33.5282 6.71959 33.5449Z" fill="white"/>
<path fill-rule="evenodd" clip-rule="evenodd" d="M7.87567 33.017C7.87567 33.017 8.54894 32.8533 8.39786 32.5127C8.2435 32.172 7.91836 32.8099 7.86581 32.9802L7.90851 32.9769C7.90851 32.9769 8.09243 32.5594 8.23694 32.5193C8.38144 32.4793 8.36831 32.6062 8.32889 32.6596C8.29605 32.703 8.18767 32.8533 7.97748 32.9702C7.96434 32.9769 7.90851 32.9702 7.89537 32.9769C7.87238 32.9869 7.89537 33.0103 7.87567 33.017Z" fill="#BCBEC0"/>
<path fill-rule="evenodd" clip-rule="evenodd" d="M7.95118 32.9368C7.95118 32.9368 8.14495 32.506 7.95118 32.3089C7.75741 32.1119 7.59319 32.2321 7.73113 32.6262C7.87236 33.0203 7.87235 33.0203 7.87235 33.0203L7.92162 32.9836C7.92162 32.9836 7.80667 32.7064 7.78368 32.5561C7.76069 32.4058 7.75084 32.2455 7.8428 32.3223C7.93804 32.3991 7.99387 32.4693 7.96103 32.703C7.94461 32.8132 7.90191 32.9068 7.89535 32.9535C7.88878 33.0036 7.91833 33.007 7.91833 33.007L7.95118 32.9368Z" fill="#BCBEC0"/>
<path fill-rule="evenodd" clip-rule="evenodd" d="M7.84608 32.99C7.84608 32.99 7.77711 33.0168 7.59976 33.0134C7.42241 33.0101 7.24835 33.1671 7.24835 33.1837C7.24835 33.1971 7.19908 33.2004 7.19908 33.2004C7.19908 33.2004 7.16952 33.1671 7.21222 33.1003C7.25492 33.0335 7.34031 32.9066 7.59319 32.9466C7.84608 32.99 7.92162 32.96 7.92162 32.96C7.92162 32.96 7.98402 33.0168 7.84608 32.99Z" fill="#D1D3D4"/>
<path fill-rule="evenodd" clip-rule="evenodd" d="M7.94135 32.957C7.94135 32.957 7.70488 33.0606 7.56694 33.094C7.429 33.1274 7.25165 33.2609 7.17283 33.2609C7.09401 33.2576 7.10714 33.3244 7.10714 33.3244C7.10714 33.3244 7.14656 33.3611 7.39287 33.2175C7.63591 33.0739 7.74101 33.094 7.81983 33.0539C7.90522 33.0105 7.93806 33.0105 7.94135 32.957Z" fill="#D1D3D4"/>
<path d="M10.4801 35.2147C10.4669 35.1646 10.4571 35.0276 10.4571 34.9709C10.2863 35.0009 9.50464 35.228 8.37814 35.1178C7.96104 35.0777 7.27463 35.0644 6.79513 34.9976C6.31563 34.9274 5.6752 34.7939 5.39604 34.707C5.11688 34.6202 4.83114 34.4899 4.65708 34.3931C4.6111 34.3664 4.53885 34.3029 4.55527 34.1727C4.57169 34.0558 4.55527 33.9355 4.46988 34.0424C4.41733 34.1092 4.38777 34.3063 4.3812 34.363C4.37463 34.4532 4.62095 34.6302 4.91982 34.8139C5.28109 35.0377 5.9675 35.3115 7.18596 35.4484C8.01687 35.542 8.57191 35.6255 9.05142 35.7023C10.4144 35.9193 10.4439 35.6822 10.4768 35.4484C10.4866 35.365 10.4899 35.2447 10.4801 35.2147Z" fill="#D3D5D6"/>
<path d="M10.1385 35.3149C10.1385 35.3149 9.25506 35.4151 8.88394 35.365C8.30591 35.2849 8.65076 35.4652 9.23864 35.6055C10.2305 35.8426 10.5129 35.3483 10.1385 35.3149Z" fill="#ABADB0"/>
<path d="M6.41744 35.2614C6.41744 35.2614 5.39275 35.1278 4.76874 34.6636C4.76874 34.6636 5.15956 34.7871 5.42887 34.874C6.42729 35.1979 6.5915 34.9842 6.41744 35.2614Z" fill="#ABADB0"/>
<path d="M16.6085 17.534C16.6085 17.534 16.4508 19.3107 15.3079 21.2143C14.0271 23.3451 13.7807 24.8213 13.7807 24.8213L10.2961 23.7225L13.1206 16.4819L16.6085 17.534Z" fill="#E50914"/>
<path d="M17.6726 25.5961C17.6726 25.9434 15.4393 26.3242 15.2258 25.7531C14.904 24.5574 12.6904 18.3255 14.1026 17.4037C14.1026 17.4037 16.3326 15.1294 17.2982 17.7143C18.0076 19.618 17.5708 22.42 17.6496 23.462C17.6956 24.0431 17.7383 25.0183 17.6726 25.5961Z" fill="#E4AE84"/>
<path d="M16.2571 24.1898C16.4541 24.1631 17.8335 24.1631 18.0766 24.0362C18.8451 23.6287 20.8222 23.6621 22.1261 24.0295C23.2197 24.3367 25.095 24.5204 25.095 24.5204L25.6566 25.8196C25.6566 25.8196 23.489 26.03 21.016 26.2638C19.2096 26.4374 17.8401 26.7915 17.0092 26.8282C16.707 26.7213 16.0502 24.3234 16.2571 24.1898Z" fill="#E4AE84"/>
<path d="M25.5909 25.8763L24.4644 25.9364C24.4644 25.9364 24.8914 24.9879 24.6516 24.4502L25.2625 24.4803C25.2625 24.4769 25.834 24.5671 25.5909 25.8763Z" fill="white"/>
<path d="M15.4524 23.5552C15.4524 23.5552 15.0912 25.018 15.2258 25.7527C15.3605 26.4875 15.5871 26.4841 15.9221 26.7313C16.3556 27.0519 17.5905 26.7747 17.5905 26.7747C17.5905 26.7747 16.0731 25.2284 16.0567 25.1916C16.0436 25.1582 15.4524 23.5552 15.4524 23.5552Z" fill="#E4AE84"/>
<path d="M26.4449 23.258C26.6682 23.2212 26.8948 23.2246 27.0984 24.6473C27.174 25.1649 27.2101 25.7728 27.4071 26.6378C27.7027 27.9202 27.6272 28.7251 27.5319 29.1659C27.4498 29.5266 27.3579 29.8372 27.2725 29.8573C27.2594 29.8606 27.2462 29.8606 27.2331 29.864C27.2791 29.8573 27.3185 29.8506 27.348 29.8439C27.4334 29.8239 27.5254 29.5133 27.6075 29.1526C27.706 28.7117 27.7553 27.9369 27.5122 26.6411C27.3447 25.7561 27.2495 25.1482 27.1772 24.6339C26.9638 23.1678 26.7339 23.2079 26.504 23.2479C26.4843 23.2513 26.4646 23.2546 26.4449 23.258Z" fill="#717375"/>
<path d="M24.2214 23.8124C24.2083 23.8658 24.2674 23.9193 24.3725 23.9493C24.5531 24.0028 24.7108 23.956 24.7173 23.9527V23.946C24.7765 23.956 24.8389 23.9594 24.9078 23.9427L24.8947 23.8725C24.7699 23.8992 24.6746 23.8625 24.5663 23.8224C24.5137 23.8024 24.4579 23.7823 24.3988 23.7657C24.2543 23.7356 24.228 23.7857 24.2214 23.8124ZM24.3823 23.8391C24.4382 23.8525 24.4907 23.8725 24.54 23.8926C24.5498 23.8959 24.5564 23.8992 24.5663 23.9026C24.5137 23.9026 24.4546 23.8992 24.3889 23.8792C24.3331 23.8625 24.3035 23.8425 24.2937 23.8324C24.3068 23.8291 24.3364 23.8258 24.3823 23.8391Z" fill="white"/>
<path fill-rule="evenodd" clip-rule="evenodd" d="M26.5959 24.5806C26.6485 24.8812 26.7503 25.115 26.8784 25.5491C27.0064 25.98 27.1904 26.6346 27.2725 27.1489C27.3546 27.6632 27.3841 28.408 27.3874 28.7252C27.3973 29.2529 27.2659 29.7973 27.2593 29.8073L27.1247 29.8641C27.1247 29.8641 27.0064 29.834 26.9243 29.7372C26.8422 29.6403 26.7536 29.4099 26.4711 28.7954C26.1066 28.0072 25.9555 27.7567 25.6041 27.3893C25.2527 27.0186 24.9111 26.5477 24.9275 26.4008C24.9439 26.2538 25.0654 25.9867 25.1443 25.4723C25.2953 24.4637 25.3742 24.9747 25.0293 24.3068C24.875 24.0062 24.5137 24.0496 24.5859 24.0129C24.5859 24.0129 24.8782 23.9895 25.0655 23.7858C25.2986 23.5353 25.719 23.4084 26.1854 23.395C26.3989 23.6822 26.5434 24.2901 26.5959 24.5806Z" fill="#E50914"/>
<path fill-rule="evenodd" clip-rule="evenodd" d="M24.5104 25.7963C24.3988 25.9132 24.2608 25.9199 24.1787 26.0802C24.136 26.167 24.2345 26.3474 24.6582 26.5411C25.026 26.7114 25.3479 27.1055 25.3479 27.1055L25.3413 27.0821C25.8176 27.6031 26.0606 28.0773 26.0606 28.0773L26.1525 28.0139C25.7814 27.4294 25.4136 26.9084 25.1476 26.5477C25.0655 26.3841 25.1213 26.1069 25.0523 26.0101C24.8454 25.7128 24.5827 25.7228 24.5104 25.7963Z" fill="white"/>
<path fill-rule="evenodd" clip-rule="evenodd" d="M27.1674 29.7536C27.2758 29.7135 27.2987 29.6167 27.3086 29.5632C27.3119 29.5365 27.3184 29.5098 27.3217 29.4797V29.4764C27.325 29.4463 27.3316 29.4163 27.3349 29.3862C27.3382 29.3528 27.3447 29.3228 27.348 29.2894V29.286C27.3513 29.2526 27.3546 29.2192 27.3611 29.1858C27.3611 29.1825 27.3611 29.1791 27.3611 29.1791C27.3644 29.1458 27.3677 29.109 27.371 29.0723C27.3743 29.0355 27.3776 28.9988 27.3776 28.9621C27.3776 28.9587 27.3776 28.9554 27.3776 28.9554C27.3776 28.9186 27.3809 28.8852 27.3809 28.8485C27.3809 28.8452 27.3809 28.8418 27.3809 28.8385C27.3809 28.8018 27.3809 28.7617 27.3809 28.7249C27.3776 28.411 27.348 27.6662 27.2659 27.1486C27.1838 26.6343 27.0032 25.9797 26.8718 25.5489C26.7667 25.2082 26.4448 23.6519 26.2314 23.3613C26.1919 23.3613 26.0573 23.4114 26.0179 23.4114C26.0507 23.4448 26.2051 23.6085 26.2478 23.6719C26.5237 24.0994 26.7733 25.5221 26.9211 26.0064C27.0688 26.4907 27.3579 27.556 27.2068 29.0122C27.2068 29.0122 27.0984 29.6667 26.8291 29.2493C26.5959 28.8886 26.1525 28.0169 26.1525 28.0169L26.0409 28.0403C26.7601 29.2827 26.5269 29.3996 26.77 29.6935C26.8094 29.7402 26.9572 29.8738 27.0721 29.8538C27.0754 29.8304 27.0984 29.777 27.1674 29.7536Z" fill="#E50914"/>
<path d="M26.054 23.3984C25.6205 23.4218 25.2822 23.5454 25.0622 23.7825C25.0523 23.7959 25.0392 23.8059 25.0293 23.8159C25.0523 23.8827 25.1049 23.9094 25.233 23.7992C25.4563 23.6055 25.9194 23.4886 26.0901 23.4552C26.0737 23.4385 26.0639 23.4185 26.054 23.3984Z" fill="#E50914"/>
<path fill-rule="evenodd" clip-rule="evenodd" d="M26.4383 28.0605C26.4383 28.0605 26.0507 27.81 26.2018 28.2375C26.2577 28.3945 26.862 29.6669 27.0459 29.53C27.1641 29.4431 27.1805 29.4799 27.2626 29.176C27.3447 28.872 27.2692 27.5061 27.2429 27.7599C27.1838 28.311 26.9703 28.2475 26.6583 27.9469C26.3463 27.6464 26.2577 27.5161 26.2577 27.5161L26.4383 28.0605Z" fill="#E50914"/>
<path d="M26.3069 27.663C26.3069 27.663 27.0754 26.1301 27.2101 27.2723C27.2101 27.2723 27.1543 26.444 26.9966 26.2904C26.839 26.1368 26.389 26.4173 25.9883 27.1988L26.3069 27.663Z" fill="#E50914"/>
<path d="M25.8537 27.0887C25.8537 27.0887 26.7503 25.479 27.0163 26.2872C27.0163 26.2872 26.9539 25.6493 26.7765 25.5224C26.4153 25.2652 25.9358 25.843 25.5351 26.6245L25.8537 27.0887Z" fill="#E50914"/>
<path d="M25.4431 26.4977C25.4431 26.4977 26.5007 24.5807 26.8225 25.4757C26.8225 25.4757 26.747 24.6775 26.5696 24.5506C26.3463 24.3903 25.6993 25.439 25.2001 24.5439C25.1016 24.3669 25.2527 25.8498 25.1049 26.1437L25.4431 26.4977Z" fill="#E50914"/>
<path fill-rule="evenodd" clip-rule="evenodd" d="M25.1706 23.6857C25.1311 23.7157 25.095 23.7491 25.0622 23.7825C25.0556 23.7892 25.0457 23.7959 25.0392 23.8059C24.8126 23.9395 24.5925 23.9562 24.5925 23.9562C24.1032 24.0163 24.4053 24.23 24.4809 24.2401C24.6516 24.2634 25.026 24.2133 25.1016 24.9781C25.164 25.616 24.9834 26.0803 24.9407 26.1871C24.8487 26.4176 24.8618 26.5077 24.8717 26.5345C25.0852 26.8751 25.21 26.9052 25.4924 27.1824C26.0376 27.8136 26.2281 28.191 26.3135 28.3312C26.3135 28.3312 26.5401 28.0874 26.3989 27.7568C26.3956 27.7468 26.389 27.7334 26.3857 27.7234C26.3792 27.7101 26.3726 27.7 26.3693 27.6867C26.3693 27.6833 26.366 27.6833 26.366 27.68C26.3595 27.67 26.3562 27.66 26.3496 27.6499C26.343 27.6366 26.3332 27.6232 26.3266 27.6132C26.0376 27.1891 25.4793 26.5178 25.361 26.3508C25.2428 26.1838 25.2428 25.8064 25.2855 25.5292C25.4037 24.721 25.1804 24.6375 25.2559 24.1332C25.2822 23.9562 25.4497 23.7124 25.8274 23.4986C25.834 23.4953 25.4694 23.5688 25.4694 23.5621C25.4694 23.5621 25.2428 23.7825 25.2428 23.7792C25.2428 23.7725 25.2428 23.7658 25.2395 23.7625V23.7591C25.2362 23.7525 25.233 23.7458 25.2297 23.7391C25.2297 23.7391 25.2297 23.7391 25.2264 23.7358C25.2231 23.7291 25.2165 23.7257 25.2132 23.7191C25.1968 23.7057 25.1837 23.6957 25.1706 23.6857Z" fill="#E50914"/>
<path fill-rule="evenodd" clip-rule="evenodd" d="M25.0523 26.4342C25.0917 26.4275 25.1147 26.3908 25.1082 26.3507C25.1016 26.3106 25.0655 26.2839 25.026 26.2906C24.9899 26.2973 24.9636 26.334 24.9702 26.3741C24.9801 26.4108 25.0162 26.4409 25.0523 26.4342Z" fill="white"/>
<path fill-rule="evenodd" clip-rule="evenodd" d="M25.0523 26.4175C25.0819 26.4109 25.1016 26.3808 25.0983 26.3508C25.0917 26.3174 25.0655 26.2973 25.0359 26.3007C25.0063 26.3073 24.9866 26.3374 24.9932 26.3674C24.9932 26.4008 25.0228 26.4242 25.0523 26.4175Z" fill="black"/>
<path fill-rule="evenodd" clip-rule="evenodd" d="M25.1049 26.3874C25.1049 26.3874 25.1673 26.728 25.049 26.8082C25.049 26.8082 24.9669 26.8082 24.9932 26.7548C25.0655 26.6045 25.0162 26.5644 24.9866 26.3673C24.9866 26.3707 25.0687 26.2805 25.1049 26.3874Z" fill="#BCBEC0"/>
<path fill-rule="evenodd" clip-rule="evenodd" d="M25.4235 26.7815C25.4629 26.7815 25.4891 26.7447 25.4891 26.7046C25.4859 26.6646 25.453 26.6312 25.4169 26.6345C25.3775 26.6378 25.3479 26.6712 25.3512 26.7113C25.3512 26.7514 25.384 26.7815 25.4235 26.7815Z" fill="white"/>
<path fill-rule="evenodd" clip-rule="evenodd" d="M25.4202 26.7648C25.4497 26.7648 25.4727 26.7347 25.4727 26.7013C25.4694 26.6679 25.4432 26.6445 25.4136 26.6445C25.384 26.6445 25.3611 26.6746 25.3611 26.7046C25.3643 26.7414 25.3906 26.7648 25.4202 26.7648Z" fill="black"/>
<path fill-rule="evenodd" clip-rule="evenodd" d="M25.4793 26.7415C25.4793 26.7415 25.5088 27.0855 25.3807 27.1523C25.3807 27.1523 25.2986 27.1423 25.3282 27.0922C25.4136 26.9519 25.3709 26.9085 25.361 26.7081C25.361 26.7081 25.4497 26.628 25.4793 26.7415Z" fill="#BCBEC0"/>
<path fill-rule="evenodd" clip-rule="evenodd" d="M25.7355 27.1486C25.7749 27.1519 25.8077 27.1219 25.8077 27.0785C25.811 27.0384 25.7814 27.0016 25.742 26.9983C25.7026 26.995 25.6698 27.025 25.6698 27.0684C25.6698 27.1119 25.6993 27.1486 25.7355 27.1486Z" fill="white"/>
<path fill-rule="evenodd" clip-rule="evenodd" d="M25.7387 27.1352C25.7683 27.1386 25.7946 27.1119 25.7979 27.0818C25.7979 27.0484 25.7749 27.0217 25.7453 27.0183C25.7158 27.015 25.6895 27.0417 25.6862 27.0718C25.6829 27.1052 25.7059 27.1319 25.7387 27.1352Z" fill="black"/>
<path fill-rule="evenodd" clip-rule="evenodd" d="M25.7978 27.1188C25.7978 27.1188 25.7913 27.4528 25.6599 27.5029C25.6599 27.5029 25.5778 27.4829 25.6172 27.4361C25.719 27.3092 25.6763 27.2691 25.6895 27.0688C25.6862 27.0721 25.7814 27.0053 25.7978 27.1188Z" fill="#BCBEC0"/>
<path fill-rule="evenodd" clip-rule="evenodd" d="M26.0179 27.5527C26.054 27.5627 26.0934 27.5393 26.1 27.4992C26.1099 27.4591 26.0869 27.4191 26.0475 27.4091C26.0113 27.399 25.9719 27.4224 25.9654 27.4625C25.9588 27.4992 25.9818 27.5426 26.0179 27.5527Z" fill="white"/>
<path fill-rule="evenodd" clip-rule="evenodd" d="M26.0212 27.5357C26.0508 27.5424 26.0803 27.5257 26.0869 27.4923C26.0935 27.4589 26.0737 27.4289 26.0442 27.4222C26.0146 27.4155 25.9851 27.4355 25.9785 27.4656C25.9752 27.4957 25.9916 27.5291 26.0212 27.5357Z" fill="black"/>
<path fill-rule="evenodd" clip-rule="evenodd" d="M26.0836 27.5331C26.0836 27.5331 26.0442 27.8303 25.9062 27.8537C25.9062 27.8537 25.8307 27.8203 25.8734 27.7802C25.9949 27.6733 25.9391 27.66 25.9818 27.4629C25.9818 27.4663 26.0869 27.4162 26.0836 27.5331Z" fill="#BCBEC0"/>
<path fill-rule="evenodd" clip-rule="evenodd" d="M25.2297 26.5879C25.2691 26.5812 25.2921 26.5444 25.2855 26.501C25.2789 26.4609 25.2428 26.4309 25.2034 26.4409C25.1673 26.4476 25.141 26.4843 25.1476 26.5244C25.1541 26.5678 25.1903 26.5945 25.2297 26.5879Z" fill="white"/>
<path fill-rule="evenodd" clip-rule="evenodd" d="M25.2264 26.5714C25.2559 26.568 25.2756 26.5346 25.2723 26.5046C25.2658 26.4712 25.2395 26.4511 25.2099 26.4545C25.1804 26.4611 25.1607 26.4912 25.1673 26.5213C25.1673 26.5547 25.1968 26.578 25.2264 26.5714Z" fill="black"/>
<path fill-rule="evenodd" clip-rule="evenodd" d="M24.9407 26.6846C24.9407 26.6846 25.0195 26.8983 25.1771 26.6879C25.2757 26.5543 25.2494 26.5209 25.2231 26.5076C25.1936 26.4942 25.1771 26.4742 25.1344 26.5777C25.0852 26.7013 24.9571 26.7313 24.9407 26.6846Z" fill="white"/>
<path fill-rule="evenodd" clip-rule="evenodd" d="M25.5811 26.9553C25.6205 26.9553 25.65 26.9185 25.6468 26.8785C25.6435 26.8384 25.6106 26.805 25.5745 26.8083C25.5351 26.8117 25.5055 26.8451 25.5088 26.8852C25.5088 26.9252 25.5417 26.9553 25.5811 26.9553Z" fill="white"/>
<path fill-rule="evenodd" clip-rule="evenodd" d="M25.5811 26.9387C25.6106 26.9387 25.6336 26.9086 25.6336 26.8786C25.6304 26.8452 25.6074 26.8218 25.5745 26.8218C25.545 26.8218 25.522 26.8518 25.522 26.8819C25.522 26.9153 25.5482 26.9387 25.5811 26.9387Z" fill="black"/>
<path fill-rule="evenodd" clip-rule="evenodd" d="M25.2691 27.0186C25.2691 27.0186 25.338 27.2391 25.5154 27.0487C25.6271 26.9285 25.6041 26.8917 25.5778 26.875C25.5482 26.8583 25.5351 26.835 25.4825 26.9318C25.4234 27.052 25.2822 27.0654 25.2691 27.0186Z" fill="white"/>
<path fill-rule="evenodd" clip-rule="evenodd" d="M25.8734 27.3424C25.9128 27.3458 25.9456 27.3157 25.9456 27.2723C25.9489 27.2322 25.9194 27.1955 25.88 27.1921C25.8406 27.1888 25.8077 27.2189 25.8077 27.2623C25.8077 27.3024 25.8373 27.3391 25.8734 27.3424Z" fill="white"/>
<path fill-rule="evenodd" clip-rule="evenodd" d="M25.8767 27.3257C25.9062 27.329 25.9325 27.3023 25.9358 27.2722C25.9358 27.2388 25.9128 27.2121 25.8833 27.2088C25.8537 27.2054 25.8274 27.2322 25.8241 27.2622C25.8208 27.2956 25.8438 27.3257 25.8767 27.3257Z" fill="black"/>
<path fill-rule="evenodd" clip-rule="evenodd" d="M25.5745 27.3557C25.5745 27.3557 25.6008 27.5961 25.8011 27.4292C25.9259 27.3256 25.9062 27.2855 25.8832 27.2655C25.857 27.2455 25.8438 27.2221 25.7847 27.3123C25.7092 27.4191 25.5811 27.4024 25.5745 27.3557Z" fill="white"/>
<path fill-rule="evenodd" clip-rule="evenodd" d="M26.123 27.7665C26.1591 27.7765 26.1985 27.7532 26.2051 27.7131C26.215 27.673 26.192 27.6329 26.1526 27.6229C26.1164 27.6129 26.077 27.6363 26.0705 27.6764C26.0639 27.7164 26.0869 27.7565 26.123 27.7665Z" fill="white"/>
<path fill-rule="evenodd" clip-rule="evenodd" d="M26.1296 27.7498C26.1591 27.7564 26.1887 27.7364 26.1953 27.7064C26.2018 27.673 26.1821 27.6429 26.1526 27.6362C26.123 27.6295 26.0934 27.6462 26.0869 27.6796C26.0803 27.7097 26.0967 27.7431 26.1296 27.7498Z" fill="black"/>
<path fill-rule="evenodd" clip-rule="evenodd" d="M25.8274 27.6965C25.8274 27.6965 25.8143 27.9637 26.0376 27.8368C26.1788 27.7566 26.1657 27.7132 26.146 27.6932C26.123 27.6698 26.1164 27.6431 26.0409 27.7199C25.9489 27.81 25.8241 27.7466 25.8274 27.6965Z" fill="white"/>
<path fill-rule="evenodd" clip-rule="evenodd" d="M24.9801 26.6712C24.9801 26.6712 24.6188 26.0266 24.3495 26.2905C24.0769 26.5543 24.7732 26.6912 24.9505 26.6946L24.9374 26.6512C24.9374 26.6512 24.4874 26.5911 24.4086 26.4541C24.3265 26.3172 24.4513 26.2938 24.5104 26.3172C24.563 26.3372 24.7337 26.404 24.9078 26.5844C24.9177 26.5944 24.9275 26.6545 24.9374 26.6679C24.9505 26.6812 24.9669 26.6512 24.9801 26.6712Z" fill="#BCBEC0"/>
<path fill-rule="evenodd" clip-rule="evenodd" d="M24.8815 26.6143C24.8815 26.6143 24.4185 26.5475 24.2904 26.8046C24.1656 27.0651 24.3298 27.1954 24.6549 26.9315C24.9801 26.6677 24.9801 26.6677 24.9801 26.6677L24.9308 26.6276C24.9308 26.6276 24.7075 26.8313 24.5728 26.9015C24.4382 26.9716 24.2904 27.0317 24.3364 26.9115C24.3823 26.7913 24.4283 26.7111 24.6582 26.6744C24.7666 26.6577 24.8684 26.671 24.9144 26.6643C24.9636 26.6543 24.9571 26.6243 24.9571 26.6243L24.8815 26.6143Z" fill="#BCBEC0"/>
<path fill-rule="evenodd" clip-rule="evenodd" d="M24.9637 26.7081C24.9637 26.7081 25.0096 26.7682 25.0622 26.9552C25.1147 27.1389 25.3151 27.2692 25.3282 27.2658C25.3413 27.2625 25.3578 27.3092 25.3578 27.3092C25.3578 27.3092 25.3381 27.3493 25.2592 27.3259C25.1837 27.3059 25.0359 27.2558 24.9998 26.9819C24.9637 26.7081 24.9111 26.6413 24.9111 26.6413C24.9111 26.6413 24.9472 26.5578 24.9637 26.7081Z" fill="#D1D3D4"/>
<path fill-rule="evenodd" clip-rule="evenodd" d="M24.9012 26.6176C24.9012 26.6176 25.0687 26.828 25.141 26.9616C25.2133 27.0919 25.3972 27.2321 25.4169 27.3156C25.4366 27.3958 25.4957 27.3624 25.4957 27.3624C25.4957 27.3624 25.5187 27.309 25.3085 27.1019C25.0983 26.8948 25.0852 26.7813 25.026 26.7111C24.9636 26.6377 24.9538 26.6043 24.9012 26.6176Z" fill="#D1D3D4"/>
<path d="M26.2445 23.3181C26.2018 23.3482 26.0737 23.3983 26.0212 23.415C26.1033 23.582 26.5532 24.3167 26.7963 25.509C26.8849 25.9499 27.0853 26.6579 27.1674 27.1722C27.2495 27.6865 27.3185 28.3879 27.3217 28.7018C27.3283 29.0124 27.2922 29.3497 27.2528 29.5568C27.2429 29.6135 27.2068 29.7071 27.0754 29.7271C26.9605 29.7471 26.8521 29.7972 26.9802 29.8573C27.059 29.8941 27.2528 29.8607 27.3086 29.8507C27.394 29.8306 27.486 29.52 27.5681 29.1593C27.6666 28.7218 27.7126 27.9303 27.4695 26.6345C27.302 25.7528 27.2101 25.155 27.1345 24.6373C26.9244 23.1712 26.6912 23.2113 26.4613 23.2514C26.3792 23.2647 26.2708 23.2981 26.2445 23.3181Z" fill="#D3D5D6"/>
<path d="M26.4449 23.6385C26.4449 23.6385 26.8094 24.5168 26.8751 24.9109C26.9769 25.5287 27.0393 25.1213 26.9933 24.4734C26.9079 23.3813 26.3562 23.241 26.4449 23.6385Z" fill="#ABADB0"/>
<path d="M27.5319 27.4792C27.5319 27.4792 27.7224 28.5713 27.4761 29.3595C27.4761 29.3595 27.4728 28.9186 27.4728 28.6147C27.4662 27.4892 27.2166 27.3857 27.5319 27.4792Z" fill="#ABADB0"/>
<path d="M17.1241 12.5542C17.2883 9.75882 17.2818 8.45966 15.6429 6.20534C15.2619 5.681 13.8004 6.47252 13.8004 6.47252C13.8004 6.47252 13.6395 6.92004 13.2191 7.65813C12.3751 9.14097 12.3587 10.527 12.9597 11.1982C13.2684 11.5422 13.2356 12.7679 13.2782 13.3758C13.4852 16.2212 13.7019 17.2465 14.0763 19.2437C14.165 19.7112 17.1274 20.2222 17.6332 20.0118C17.6463 19.434 17.8072 18.5824 17.7153 17.5337C17.5609 15.7804 16.9599 15.3195 17.1241 12.5542Z" fill="#E4AE84"/>
<g opacity="0.26">
<path d="M14.3982 13.6898C14.3128 13.7365 14.2307 13.7733 14.142 13.8C14.0566 13.8234 13.9647 13.8367 13.8727 13.8334C13.7807 13.83 13.6855 13.81 13.5837 13.7866C13.6526 13.8668 13.7479 13.9235 13.8563 13.9536C13.9614 13.9837 14.0796 13.9803 14.1847 13.9503C14.2931 13.9202 14.3883 13.8634 14.4671 13.7933C14.546 13.7198 14.6149 13.6363 14.6543 13.5361C14.5624 13.5896 14.4803 13.643 14.3982 13.6898Z" fill="#511D06"/>
<path d="M14.6511 14.1372C14.569 14.1873 14.4967 14.2341 14.4212 14.2741C14.3456 14.3142 14.2701 14.3476 14.1946 14.3676C14.119 14.3877 14.0402 14.401 13.9581 14.3977C13.876 14.3977 13.7906 14.381 13.6953 14.361C13.7577 14.4344 13.8431 14.4879 13.9384 14.5146C14.0336 14.5413 14.1387 14.5413 14.2372 14.5146C14.3325 14.4879 14.4212 14.4344 14.4934 14.371C14.5591 14.3075 14.6182 14.2274 14.6511 14.1372Z" fill="#511D06"/>
<path d="M14.2405 15.0053C14.188 15.0186 14.1354 15.0286 14.0796 15.0286C14.0238 15.032 13.9614 15.0253 13.8891 15.0186C13.9285 15.0787 13.9909 15.1222 14.0599 15.1455C14.1289 15.1689 14.211 15.1689 14.2832 15.1489C14.3555 15.1288 14.4212 15.0888 14.4704 15.0387C14.5197 14.9886 14.5624 14.9285 14.5788 14.855C14.5131 14.885 14.4573 14.9151 14.4015 14.9418C14.3489 14.9685 14.2931 14.9886 14.2405 15.0053Z" fill="#511D06"/>
<path d="M15.9122 10.0994C15.9057 10.0426 15.8991 9.98253 15.8958 9.92575C15.8925 9.82222 15.8958 9.71535 15.9024 9.61182C15.8433 9.67861 15.7874 9.74541 15.7414 9.81554C15.7382 9.85562 15.7382 9.89569 15.7382 9.93243C15.7382 9.99589 15.7414 10.056 15.748 10.1195C15.7546 10.1796 15.7677 10.2464 15.7743 10.2998C15.7874 10.41 15.7776 10.5236 15.7414 10.6271C15.7053 10.734 15.6396 10.8308 15.5575 10.921C15.3933 11.098 15.1601 11.2282 14.9105 11.3184C14.6609 11.4086 14.3916 11.4587 14.119 11.472C13.8497 11.4821 13.5738 11.4553 13.3275 11.3618C13.2027 11.3184 13.091 11.255 12.9925 11.1748C12.894 11.0947 12.8152 10.9978 12.7593 10.8909C12.7987 11.0078 12.8644 11.1147 12.9597 11.2049C13.0516 11.2984 13.1666 11.3719 13.2914 11.4286C13.5443 11.5422 13.8333 11.5889 14.119 11.5889C14.408 11.5889 14.6971 11.5422 14.9696 11.452C15.2422 11.3585 15.5017 11.2182 15.6955 11.0145C15.7907 10.911 15.8662 10.7941 15.9089 10.6672C15.9516 10.5403 15.9648 10.4067 15.9451 10.2798C15.9352 10.2096 15.9221 10.1562 15.9122 10.0994Z" fill="#511D06"/>
<path d="M15.055 12.9246C15.1437 12.9514 15.2324 12.9747 15.3276 12.9747C15.2422 12.9413 15.1634 12.8979 15.0846 12.8545C15.0058 12.8111 14.9302 12.7643 14.8547 12.7142C14.7036 12.6174 14.5525 12.5205 14.4048 12.4203C14.2537 12.3168 14.0895 12.2233 13.9187 12.1565C13.8333 12.1231 13.7413 12.0964 13.6494 12.0763C13.6034 12.0697 13.5574 12.063 13.5081 12.063C13.4622 12.063 13.4129 12.0663 13.3702 12.083C13.4162 12.083 13.4589 12.093 13.5016 12.1031C13.5443 12.1164 13.587 12.1298 13.6264 12.1465C13.7085 12.1799 13.7873 12.22 13.8661 12.2634C14.0205 12.3502 14.1716 12.4471 14.3194 12.5473C14.4704 12.6508 14.6314 12.7443 14.7989 12.8211C14.881 12.8612 14.9696 12.8946 15.055 12.9246Z" fill="#511D06"/>
<path d="M14.8744 12.0497C14.7791 12.0497 14.6806 12.0363 14.5722 12.0163C14.6511 12.0931 14.7496 12.1432 14.858 12.1665C14.9663 12.1933 15.0813 12.1899 15.1897 12.1632C15.2981 12.1365 15.3999 12.0864 15.4853 12.0196C15.5707 11.9528 15.6462 11.8727 15.6955 11.7725C15.6035 11.8259 15.5148 11.8727 15.4229 11.9161C15.3342 11.9561 15.2422 11.9895 15.1503 12.0129C15.0649 12.0396 14.9696 12.0497 14.8744 12.0497Z" fill="#511D06"/>
<path d="M13.4654 14.3574C13.449 14.1671 13.426 13.98 13.3965 13.793C13.3669 13.606 13.3341 13.419 13.2848 13.2319C13.2717 13.4223 13.2717 13.6127 13.2782 13.803C13.2848 13.9934 13.2979 14.1804 13.3144 14.3708C13.3308 14.5578 13.3538 14.7482 13.3833 14.9352C13.4129 15.1222 13.4457 15.3092 13.495 15.4963C13.5081 15.3059 13.5081 15.1155 13.5016 14.9252C13.495 14.7348 13.4851 14.5445 13.4654 14.3574Z" fill="#511D06"/>
</g>
<path d="M13.6757 5.81145C13.6757 5.81145 13.9811 6.623 13.61 7.09057C13.2389 7.55813 15.8794 6.98369 15.8564 6.73989C15.8334 6.49275 15.6101 5.3539 15.7447 4.95314C15.7447 4.9498 14.6544 5.74465 13.6757 5.81145Z" fill="#E4AE84"/>
<path d="M16.5461 3.44703C16.4082 4.75286 16.5461 5.54104 14.8021 5.73474C14.1781 5.80488 13.3242 5.91509 12.9892 5.92511C12.4211 5.94181 12.2766 5.23378 12.1682 3.7309C12.0828 2.52526 12.6214 1.16933 12.6214 1.16933C13.1239 0.634969 14.3391 0.801956 15.0583 0.882109C16.3884 1.0324 16.7103 1.89405 16.5461 3.44703Z" fill="#E4AE84"/>
<path d="M12.3291 2.4082C12.3291 2.4082 12.0171 3.80755 11.9547 3.9211C11.8923 4.03465 11.8233 4.23504 12.1846 4.26844C12.559 4.30517 12.6608 4.15822 12.6608 4.15822L12.3291 2.4082Z" fill="#E4AE84"/>
<path d="M14.5493 3.62409C14.5493 3.62409 14.3227 5.06017 13.4917 5.16036C13.4096 5.17038 13.3505 5.34739 13.2848 5.40416C12.7758 5.84835 12.4474 5.34071 12.4474 5.34071H12.3849C12.4112 5.491 12.4408 5.53775 12.4703 5.61457C12.5524 5.80827 12.5951 5.91848 12.7364 5.91848C14.2931 5.99196 14.7595 5.45426 14.8613 5.26724C15.0288 4.94996 14.7102 3.04631 14.5493 3.62409Z" fill="white"/>
<path d="M13.1337 4.49264C12.8283 4.47594 12.2601 4.36907 12.2043 4.58615C12.1813 4.68969 12.247 4.82328 12.2798 4.8333C12.3784 4.84665 12.7462 4.82328 12.871 4.80992C13.0779 4.78988 13.2126 5.01364 13.183 5.30754C13.1535 5.60477 13.2388 5.5313 13.0484 5.58474C12.8579 5.63817 13.1042 5.73836 13.1042 5.73836L13.4425 5.50458C13.4392 5.50792 13.6067 4.51602 13.1337 4.49264Z" fill="white"/>
<path d="M14.3227 5.05991C14.3227 5.05991 14.4015 4.9664 14.4737 4.83949C14.4869 4.80609 14.4967 4.78271 14.4967 4.78271C14.3883 4.97308 14.3227 5.05991 14.3227 5.05991Z" fill="white"/>
<path d="M15.4951 2.29108C15.5017 2.11742 15.4754 1.95377 15.4426 1.80348C15.4032 1.60978 15.1536 1.29918 15.0288 1.0821C15.0156 1.05538 15.0025 1.02866 14.9861 1.00195C14.9697 0.965209 14.95 0.931812 14.9237 0.901754C14.8252 0.768165 14.6806 0.647935 14.454 0.554422C14.4343 0.544403 14.4146 0.537723 14.3949 0.531044C14.3686 0.514345 14.3424 0.494307 14.3161 0.474268C14.211 0.394115 14.0895 0.350698 13.9515 0.310622C13.7381 0.193731 13.5541 0.0868593 13.3735 0.0167249C13.229 0.0100454 13.0878 0.0334235 12.9564 0.0968785C12.8382 0.153654 12.7364 0.233808 12.6411 0.32398C12.5426 0.424172 12.4375 0.527704 12.3849 0.661294C12.3357 0.791543 12.3094 0.931812 12.2963 1.07208C12.2799 1.23573 12.3225 1.37934 12.3291 1.53964C12.339 1.67323 12.2831 1.7968 12.339 1.92705C12.3521 1.96045 12.3718 2.00053 12.3948 2.03726C12.4375 2.06064 12.4835 2.08736 12.5426 2.11742C12.7692 2.23097 12.8579 2.17085 13.0287 2.08402C13.0943 2.07066 13.16 2.05396 13.2257 2.02725C13.3308 1.98383 13.4392 1.95043 13.5443 1.92705C14.9171 1.88364 14.4442 3.98433 14.3752 4.23815C14.3062 4.49197 14.3555 4.80924 14.4639 4.48195C14.4705 4.46191 14.5329 4.5454 14.5657 4.38844C14.5657 4.3851 14.5657 4.38176 14.5657 4.38844C14.615 4.53539 14.546 4.70905 14.4705 4.84598C14.4343 4.92947 14.3752 5.06974 14.3752 5.06974C14.3752 5.06974 14.6478 4.71907 14.8481 4.36506C15.0058 4.08786 15.3079 3.17277 15.3999 2.79204C15.4951 2.55492 15.5214 2.42467 15.4951 2.29108Z" fill="white"/>
<path d="M13.3768 0.0136023C13.3768 0.0136023 13.8005 -0.0431732 14.2143 0.0636983C14.6281 0.17391 14.6478 0.0369804 14.927 0.0670381C15.2061 0.0970957 15.6594 0.267422 15.9254 0.427729C16.8877 1.01552 16.822 1.5265 16.9435 1.7703C17.0617 2.0141 17.2555 2.53176 17.1471 2.79226C17.0355 3.05276 16.9468 3.12624 16.9895 3.5103C17.0322 3.89437 16.9402 3.79084 16.7859 4.06804C16.6315 4.34524 16.7235 4.34524 16.6052 4.5857C16.487 4.82616 16.5757 4.85956 16.395 4.98313C16.2177 5.1067 16.2867 5.14343 16.1816 5.25699C16.0765 5.37054 16.1192 5.41729 15.9517 5.47073C15.7809 5.5275 15.124 5.90489 14.7628 5.47741C14.3227 4.95307 14.5887 4.74935 14.5493 4.68923C14.5099 4.62912 14.7989 3.67061 14.7989 3.67061C14.7989 3.67061 15.0419 3.0227 15.0288 2.94923C15.0156 2.87575 15.0945 2.42155 15.0156 2.20113C14.9335 1.98071 14.0763 0.898632 14.0337 0.861895C13.9877 0.831837 13.3768 0.0136023 13.3768 0.0136023Z" fill="white"/>
<path d="M17.3606 16.0444C17.3606 16.0444 18.5134 17.8078 18.336 19.9619C18.1291 22.45 18.3688 23.7793 18.3688 23.7793L14.8153 24.6075L13.5114 19.668L13.1797 18.3923L13.1206 16.4819L17.3606 16.0444Z" fill="#E50914"/>
<path d="M13.1666 15.9475C13.1666 15.9475 15.0583 16.1679 17.5445 15.9141L17.7153 16.6221C17.7153 16.6221 14.1355 17.0095 13.1173 16.6421L13.1666 15.9475Z" fill="white"/>
<path d="M16.418 6.97696C16.1947 6.76656 15.239 6.67304 14.9565 6.71646C14.9467 6.70644 14.7496 6.74986 14.6774 6.77658C14.0599 6.91684 12.9104 8.25942 12.8053 8.54664C12.3948 9.67881 12.4802 10.6674 12.9597 11.2017C13.2684 11.5457 13.1042 13.1321 13.1502 13.7399C13.2421 14.999 13.4425 15.343 13.3013 15.9809C14.3654 15.9675 15.0255 16.1045 15.505 16.0109C16.2998 16.0143 17.5347 15.9108 17.5347 15.9108C17.4 15.4732 17.3475 14.7986 17.3179 12.9451C17.2522 8.91401 17.4887 7.9889 16.418 6.97696ZM15.0321 10.9345C13.7545 10.9746 13.298 7.96218 15.0025 7.25416C15.0912 7.19738 14.9828 7.10721 15.1076 7.16065C16.1257 7.43784 17.2654 10.3234 15.0321 10.9345Z" fill="#E50914"/>
<path d="M12.5623 13.5462C12.4868 13.5261 12.3817 13.5295 12.3028 13.5328C11.82 13.5428 10.352 14.0839 9.53749 14.5147C8.72299 14.9455 8.04315 15.0858 8.04315 15.0858L8.4504 16.0877C8.4504 16.0877 9.02843 15.8205 10.2863 15.6402C11.5442 15.4565 12.4375 15.0591 13.0188 14.6383C13.2224 14.4679 12.7528 13.5695 12.5623 13.5462Z" fill="#E4AE84"/>
<path d="M8.81495 14.8521C8.81495 14.8521 8.36829 15.0257 8.00374 15.0224C7.69502 15.0224 7.58992 15.0391 7.09071 15.0691C6.54881 15.1025 6.51597 15.0558 6.33862 15.0157C6.16127 14.9756 5.96093 15.3463 6.45357 15.4499C6.94621 15.5534 7.08743 15.5133 7.08743 15.5133C7.08743 15.5133 6.33862 15.6436 5.96093 15.7404C5.57995 15.8373 5.33692 15.884 5.40917 16.0644C5.4453 16.1579 5.50442 16.1813 6.02005 16.0777C6.53239 15.9742 7.1137 15.8607 7.1137 15.8607C7.1137 15.8607 5.23182 16.2948 5.28766 16.5186C5.32378 16.6622 5.41903 16.6922 6.02333 16.5319C6.62763 16.3716 7.19253 16.1879 7.19253 16.1879C7.19253 16.1879 5.6752 16.749 5.57667 16.8425C5.51755 16.896 5.32378 17.2099 5.93137 16.9795C6.53896 16.749 7.33046 16.4518 7.33046 16.4518C7.33046 16.4518 6.06931 16.9828 6.14813 17.1531C6.23024 17.3301 6.759 17.0429 7.52095 16.6922C8.2829 16.3416 8.23692 16.2815 8.41099 16.1178C8.58505 15.9542 9.23205 15.8373 9.23205 15.8373L8.81495 14.8521Z" fill="#E4AE84"/>
<path d="M12.27 14.431C12.339 14.3575 11.8069 14.1371 11.8069 14.1371C11.8069 14.1371 12.513 11.6557 13.0254 11.2048C13.0254 11.2048 13.1863 9.57503 13.6034 9.05737C14.0172 7.18044 15.1569 6.84646 16.06 7.42424C16.9107 7.96862 16.5855 9.17092 15.8663 10.086C15.0058 11.1814 14.904 11.4353 14.6905 11.993C14.4048 12.7444 13.2651 14.3542 13.0418 14.6047C12.6148 14.3876 12.5295 14.8418 12.27 14.431Z" fill="#E4AE84"/>
<g opacity="0.26">
<path d="M15.3112 10.5068C15.1207 10.6671 14.9401 10.8375 14.7562 11.0045C14.6642 11.088 14.5755 11.1714 14.4836 11.2549C14.3916 11.3351 14.2964 11.4152 14.1978 11.4921C14.3128 11.4453 14.4212 11.3752 14.5197 11.3017C14.6215 11.2282 14.7168 11.1481 14.8087 11.0646C14.9007 10.9811 14.9894 10.8909 15.0715 10.8007C15.1568 10.7072 15.239 10.6104 15.3112 10.5068Z" fill="#511D06"/>
<path d="M13.449 13.833C13.3604 13.833 13.2848 13.853 13.206 13.8664L13.0911 13.8931C13.0516 13.9031 13.0155 13.9098 12.9695 13.9165C13.0057 13.9432 13.0516 13.9532 13.0943 13.9566C13.137 13.9599 13.1797 13.9566 13.2224 13.9466C13.2651 13.9365 13.3045 13.9232 13.3439 13.9031C13.3801 13.8864 13.4195 13.8631 13.449 13.833Z" fill="#511D06"/>
</g>
<path d="M15.8071 6.36572C15.8071 6.36572 16.2078 7.22737 16.3655 7.41106C16.5231 7.59475 17.0026 9.50841 17.0026 9.50841L17.0946 8.31947C17.0946 8.31947 16.5527 6.91344 15.8071 6.36572Z" fill="#E50914"/>
<path d="M25.4694 37.6092C25.4694 38.2471 25.9785 38.7647 26.6058 38.7647C27.2331 38.7647 27.7421 38.2471 27.7421 37.6092C27.7421 36.9713 27.2331 36.4536 26.6058 36.4536C25.9785 36.457 25.4694 36.9713 25.4694 37.6092Z" fill="white"/>
<path d="M1.24146 37.6092C1.24146 38.2471 1.75052 38.7647 2.37781 38.7647C3.0051 38.7647 3.51416 38.2471 3.51416 37.6092C3.51416 36.9713 3.0051 36.4536 2.37781 36.4536C1.75052 36.457 1.24146 36.9713 1.24146 37.6092Z" fill="white"/>
<path d="M2.29242 39.0719C1.52719 39.0285 0.932739 38.3873 0.932739 37.6091C0.932739 36.8143 1.54361 36.173 2.32198 36.143C2.33512 36.1396 2.34497 36.1396 2.35811 36.1396H26.6222C26.6353 36.1396 26.6518 36.1396 26.6649 36.143C27.44 36.1764 28.0476 36.8176 28.0476 37.6091C28.0476 38.3806 27.4531 39.0218 26.6945 39.0719C26.6748 39.0753 26.6518 39.0786 26.6222 39.0786H2.36139C2.33512 39.0786 2.31213 39.0753 2.29242 39.0719ZM2.36139 36.3701C2.35482 36.3701 2.35154 36.3701 2.34497 36.3701H2.33512C1.67498 36.3901 1.15607 36.9345 1.15607 37.6091C1.15607 38.2671 1.66184 38.8114 2.30884 38.8448H2.3187C2.33512 38.8482 2.34825 38.8482 2.36139 38.8482H26.6255C26.6419 38.8482 26.6551 38.8482 26.6715 38.8448H26.6813C27.325 38.8048 27.8275 38.2637 27.8275 37.6091C27.8275 36.9412 27.3119 36.3968 26.6551 36.3701H26.6452C26.6386 36.3701 26.6353 36.3701 26.6288 36.3701H2.36139Z" fill="white"/>
<path d="M2.32198 38.7614C1.72096 38.728 1.25131 38.2204 1.25131 37.6092C1.25131 36.9847 1.73081 36.4771 2.34497 36.457C2.35482 36.457 2.36468 36.457 2.37453 36.457H26.6189C26.6288 36.457 26.6419 36.457 26.6518 36.4604C27.2626 36.4871 27.7389 36.9914 27.7389 37.6126C27.7389 38.2204 27.2725 38.7247 26.6748 38.7648C26.6616 38.7681 26.6386 38.7681 26.6189 38.7681H2.37453C2.35482 38.7648 2.3384 38.7648 2.32198 38.7614ZM2.37453 36.634C2.37124 36.634 2.36468 36.634 2.36139 36.634H2.35482C1.83591 36.6507 1.42866 37.0782 1.42866 37.6092C1.42866 38.1269 1.82606 38.5544 2.3384 38.5811H2.34497C2.35811 38.5811 2.36796 38.5844 2.37781 38.5844H26.6222C26.6353 38.5844 26.6485 38.5844 26.6583 38.5811H26.6649C27.1707 38.551 27.5681 38.1236 27.5681 37.6092C27.5681 37.0816 27.1641 36.6541 26.6452 36.634H26.6353C26.6321 36.634 26.6255 36.634 26.6222 36.634H2.37453Z" fill="white"/>
<path d="M0 37.6094C0 38.8151 0.929445 39.8137 2.11506 39.8905C2.15776 39.8972 2.20045 39.8972 2.23986 39.8972H2.9624L3.17916 40.0007L3.39592 39.8972H3.55028L3.76704 40.0007L3.98381 39.8972H4.13817L4.35493 40.0007L4.57169 39.8972H4.72605L4.94281 40.0007L5.15957 39.8972H5.31393L5.53069 40.0007L5.74745 39.8972H5.9051L6.12186 40.0007L6.33862 39.8972H6.49298L6.70974 40.0007L6.9265 39.8972H7.08086L7.29762 40.0007L7.51438 39.8972H7.66874L7.8855 40.0007L8.10227 39.8972H8.25663L8.47339 40.0007L8.69015 39.8972H8.84451L9.06127 40.0007L9.27803 39.8972H9.43239L9.64915 40.0007L9.86591 39.8972H10.0203L10.237 40.0007L10.4538 39.8972H10.6082L10.8249 40.0007L11.0417 39.8972H11.196L11.4128 40.0007L11.6296 39.8972H11.7839L12.0007 40.0007L12.2174 39.8972H12.3718L12.5886 40.0007L12.8053 39.8972H12.9597L13.1764 40.0007L13.3932 39.8972H13.5476L13.7643 40.0007L13.9811 39.8972H14.1354L14.3522 40.0007L14.569 39.8972H14.7233L14.9401 40.0007L15.1569 39.8972H15.3112L15.528 40.0007L15.7447 39.8972H15.8991L16.1159 40.0007L16.3326 39.8972H16.487L16.7037 40.0007L16.9205 39.8972H17.0749L17.2916 40.0007L17.5084 39.8972H17.6627L17.8795 40.0007L18.0963 39.8972H18.2506L18.4674 40.0007L18.6841 39.8972H18.8385L19.0553 40.0007L19.272 39.8972H19.4264L19.6431 40.0007L19.8599 39.8972H20.0143L20.231 40.0007L20.4478 39.8972H20.6022L20.8189 40.0007L21.0357 39.8972H21.19L21.4068 40.0007L21.6236 39.8972H21.7779L21.9947 40.0007L22.2114 39.8972H22.3658L22.5826 40.0007L22.7993 39.8972H22.9537L23.1704 40.0007L23.3872 39.8972H23.5416L23.7583 40.0007L23.9751 39.8972H24.1294L24.3462 40.0007L24.563 39.8972H24.7173L24.9341 40.0007L25.1509 39.8972H26.7667C26.8127 39.8972 26.8587 39.8938 26.9046 39.8871C28.0837 39.8036 29.0066 38.8017 29.0066 37.6061C29.0066 36.3837 28.0607 35.3818 26.8554 35.3217C26.8291 35.3184 26.7963 35.3184 26.7667 35.3184H25.7322L25.5154 35.2148L25.2986 35.3184H25.1443L24.9275 35.2148L24.7108 35.3184H24.5564L24.3396 35.2148L24.1229 35.3184H23.9685L23.7518 35.2148L23.535 35.3184H23.3806L23.1639 35.2148L22.9471 35.3184H22.7928L22.576 35.2148L22.3592 35.3184H22.2049L21.9881 35.2148L21.7713 35.3184H21.6104L21.3937 35.2148L21.1769 35.3184H21.0193L20.8025 35.2148L20.5857 35.3184H20.4314L20.2146 35.2148L19.9978 35.3184H19.8435L19.6267 35.2148L19.41 35.3184H19.2556L19.0388 35.2148L18.8221 35.3184H18.6677L18.451 35.2148L18.2342 35.3184H18.0798L17.8631 35.2148L17.6463 35.3184H17.492L17.2752 35.2148L17.0584 35.3184H16.9041L16.6873 35.2148L16.4706 35.3184H16.3162L16.0994 35.2148L15.8827 35.3184H15.7316L15.5148 35.2148L15.2981 35.3184H15.1437L14.927 35.2148L14.7102 35.3184H14.5558L14.3391 35.2148L14.1223 35.3217H13.9679L13.7512 35.2182L13.5344 35.3217H13.3801L13.1633 35.2182L12.9465 35.3217H12.7922L12.5754 35.2182L12.3587 35.3217H12.2043L11.9875 35.2182L11.7708 35.3217H11.6164L11.3997 35.2182L11.1829 35.3217H11.0285L10.8118 35.2182L10.595 35.3217H10.4407L10.2239 35.2182L10.0071 35.3217H9.85277L9.63601 35.2182L9.41925 35.3217H9.26489L9.04813 35.2182L8.83137 35.3217H8.67701L8.46025 35.2182L8.24349 35.3217H8.08913L7.87237 35.2182L7.65561 35.3217H7.50125L7.28448 35.2182L7.06772 35.3217H6.91336L6.6966 35.2182L6.47984 35.3217H6.32548L6.10872 35.2182L5.89196 35.3217H5.7376L5.52084 35.2182L5.30408 35.3217H5.14972L4.93296 35.2182L4.71619 35.3217H4.56512L4.34836 35.2182L4.1316 35.3217H3.97724L3.76048 35.2182L3.54371 35.3217H3.38935L3.17259 35.2182L2.95583 35.3217H2.73907C2.30883 35.3217 2.20374 35.3251 2.17089 35.3251C0.952435 35.3718 0 36.3737 0 37.6094ZM2.16433 39.1791C1.34983 39.129 0.7094 38.441 0.7094 37.6128C0.7094 36.7645 1.35968 36.0765 2.19388 36.0431H2.21031C2.22016 36.0431 2.23001 36.0431 2.23658 36.0431H26.7667C26.7766 36.0431 26.7864 36.0431 26.793 36.0431L26.8094 36.0464C27.637 36.0832 28.2873 36.7712 28.2873 37.6161C28.2873 38.441 27.6535 39.129 26.8455 39.1824L26.8258 39.1858C26.8028 39.1891 26.7831 39.1891 26.7634 39.1891H2.23658C2.21687 39.1891 2.19717 39.1858 2.18075 39.1858L2.16433 39.1791Z" fill="white"/>
<path d="M1.94757 37.6862C1.94757 37.9701 2.17418 38.2005 2.45335 38.2005H2.53874C2.8179 38.2005 3.04451 37.9701 3.04451 37.6862V16.362C3.04451 16.0781 2.8179 15.8477 2.53874 15.8477H2.45335C2.17418 15.8477 1.94757 16.0781 1.94757 16.362V37.6862Z" fill="#95979A"/>
<path d="M1.72095 19.8686C1.72095 20.2693 2.03952 20.5933 2.43363 20.5933H2.55515C2.94926 20.5933 3.26783 20.2693 3.26783 19.8686V16.0379C3.26783 15.6371 1.72095 15.6371 1.72095 16.0379V19.8686Z" fill="white"/>
<path d="M2.22015 37.5124C2.22015 37.646 2.32525 37.7529 2.45662 37.7529C2.58799 37.7529 2.69309 37.646 2.69309 37.5124C2.69309 37.3788 2.58799 37.272 2.45662 37.272C2.32525 37.272 2.22015 37.3788 2.22015 37.5124Z" fill="white"/>
<path d="M26.3693 37.5124C26.3693 37.646 26.4744 37.7529 26.6058 37.7529C26.7372 37.7529 26.8423 37.646 26.8423 37.5124C26.8423 37.3788 26.7372 37.272 26.6058 37.272C26.4744 37.272 26.3693 37.3788 26.3693 37.5124Z" fill="#E5DCD2"/>
</g>
<defs>
<clipPath id="clip0_158_3742">
<rect width="29" height="40" fill="white"/>
</clipPath>
</defs>
</svg>
