<svg width="16" height="43" viewBox="0 0 16 43" fill="none" xmlns="http://www.w3.org/2000/svg">
<g clip-path="url(#clip0_155_1183)">
<path d="M10.1029 20.6291C12.3941 19.656 13.9769 16.4636 13.9003 16.3976C13.9003 16.3976 13.8747 16.3735 13.8588 16.3615C13.7535 16.2684 13.4599 15.9921 13.1663 15.5747C12.8025 15.0521 11.9314 14.6977 11.9314 14.6977L10.6581 13.9589C10.6581 13.9589 9.94973 13.3973 9.30194 13.3343C8.7818 13.2832 8.39887 13.1661 8.26485 13.121C8.24889 13.115 8.22974 13.109 8.21379 13.103L5.73433 13.7307C5.73433 13.7307 5.41522 16.0522 5.30992 16.2924C4.22177 18.7431 2.54646 21.1546 2.20501 23.8996C2.14757 24.3501 4.65575 23.389 4.4962 23.9476C4.4962 23.9476 4.77063 24.1218 4.85041 24.1549C4.91742 24.2059 5.21738 24.3621 5.21738 24.3621C5.68008 23.9777 7.30433 25.7075 7.62025 25.3651C8.53609 24.3711 7.52771 21.7222 10.1029 20.6291Z" fill="#E4AE84"/>
<path fill-rule="evenodd" clip-rule="evenodd" d="M2.08696 40.27C2.08696 40.27 1.29557 40.0207 0.469086 40.234C0.433984 40.243 0.440366 41.5614 0.500997 41.5584C0.561627 41.5554 1.90187 41.0899 1.9274 41.0568C1.95612 41.0238 2.08696 40.27 2.08696 40.27Z" fill="#0D0B42"/>
<path d="M1.29876 32.699C1.2477 32.8882 1.31152 33.4829 1.23813 33.7411C0.836054 35.1466 0.746704 36.0056 0.746704 37.4831C0.746704 38.9968 0.749895 39.8977 0.749895 39.8977L1.94974 40.0118C1.94974 40.0118 2.68687 37.8165 2.90386 36.2578C3.1783 34.2757 3.23573 33.9904 3.37295 33.1915C3.29956 32.8822 1.4615 32.5098 1.29876 32.699Z" fill="#E4AE84"/>
<path d="M1.34663 33.3566C1.38493 33.687 3.21341 33.747 3.37296 33.1794C3.58038 32.0052 6.04388 25.8516 4.44516 25.1218C4.44516 25.1218 2.75708 22.3889 2.02633 24.9596C1.48704 26.8487 1.32749 30.6898 1.26366 31.4916C1.22218 32.0442 1.2158 32.81 1.34663 33.3566Z" fill="#E4AE84"/>
<path d="M1.95292 41.1169C1.99441 40.8676 2.07418 40.8526 1.97845 40.5493C1.88272 40.24 2.01674 39.354 2.01674 39.354L0.893489 39.366C0.893489 39.366 0.730744 40.2099 0.261658 40.9367L1.95292 41.1169Z" fill="#E4AE84"/>
<path d="M2.22735 24.3259C2.22735 24.3259 1.60509 25.6684 1.14238 28.4223L0.619049 32.789L4.63022 32.852L5.43756 27.2721L5.51733 26.3921L5.40884 24.7103L2.22735 24.3259Z" fill="#E50914"/>
<path fill-rule="evenodd" clip-rule="evenodd" d="M0.619049 40.1949L0.708399 39.8916L1.98163 40.0267L1.96887 40.3841C1.96887 40.3841 0.663724 40.6124 0.619049 40.1949Z" fill="white"/>
<path d="M0.0382829 41.7026C0.0382829 41.7026 -0.0383027 42.1591 0.0287097 42.3844C0.092531 42.6126 0.258466 43.0391 1.27961 43L1.29556 42.7988C1.29237 42.7988 0.0319008 41.7357 0.0382829 41.7026Z" fill="#D3D5D6"/>
<path d="M2.43797 41.7026C2.43797 41.7026 2.51456 42.1591 2.44755 42.3844C2.38373 42.6126 2.21779 43.0391 1.19665 43L1.18069 42.7988C1.18069 42.7988 2.44436 41.7357 2.43797 41.7026Z" fill="#D3D5D6"/>
<path fill-rule="evenodd" clip-rule="evenodd" d="M0.485046 40.4084C0.485046 40.4084 1.19665 40.2072 1.94655 40.4024C1.94655 40.4024 1.83487 40.8138 1.72318 40.8979C1.6083 40.985 0.887121 41.0571 0.864783 41.0481C0.842446 41.0451 0.485046 40.4084 0.485046 40.4084Z" fill="white"/>
<path fill-rule="evenodd" clip-rule="evenodd" d="M2.1412 40.6276C2.15077 39.8437 1.79018 40.4594 1.76146 40.5284C1.71041 40.6486 0.765851 40.6486 0.714794 40.5284C0.686074 40.4594 0.376541 39.7716 0.312719 40.6576C0.312719 40.6576 -0.0127692 41.8469 0.0574342 42.2163C0.213796 42.7658 0.312719 42.8289 1.23813 42.8289C2.16035 42.8289 2.33905 42.7298 2.41882 42.2163C2.48903 41.8469 2.1412 40.6276 2.1412 40.6276Z" fill="#E50914"/>
<path fill-rule="evenodd" clip-rule="evenodd" d="M1.6051 42.8139C1.6051 42.895 1.47426 42.898 1.31471 42.898C1.15516 42.898 1.02432 42.895 1.02432 42.8139C1.02432 42.7328 1.15516 42.6667 1.31471 42.6667C1.47426 42.6667 1.6051 42.7328 1.6051 42.8139Z" fill="#D3D5D6"/>
<path fill-rule="evenodd" clip-rule="evenodd" d="M2.41882 42.2161C2.43797 42.105 2.42202 41.9188 2.3901 41.7116C2.33586 41.6845 2.28161 41.6635 2.23055 41.6455C1.93697 41.5374 1.40726 41.222 1.60829 41.7446C1.60829 41.7446 2.32947 42.096 2.09972 42.7387C2.30395 42.6516 2.37415 42.4954 2.41882 42.2161Z" fill="white"/>
<path fill-rule="evenodd" clip-rule="evenodd" d="M0.0925293 41.6545C0.309522 41.2401 0.775417 41.15 0.775417 41.15L0.762653 40.9728C0.507368 41.0028 0.30314 41.168 0.162733 41.3272C0.351006 40.9218 0.756271 40.8647 0.756271 40.8647L0.743507 40.6575C0.516941 40.7295 0.344623 40.8587 0.229745 40.9698C0.188261 41.165 0.130822 41.4173 0.0925293 41.6545Z" fill="white"/>
<path fill-rule="evenodd" clip-rule="evenodd" d="M1.71998 40.8647C1.71998 40.8647 2.12844 40.9248 2.31352 41.3272C2.17311 41.171 1.96889 41.0028 1.7136 40.9728L1.70084 41.15C1.70084 41.15 2.16035 41.2371 2.37734 41.6425C2.33586 41.4053 2.27523 41.153 2.22736 40.9578C2.11567 40.8497 1.94974 40.7265 1.72956 40.6575L1.71998 40.8647Z" fill="white"/>
<path fill-rule="evenodd" clip-rule="evenodd" d="M0.871162 41.7417C1.17431 41.15 0.539291 41.5314 0.248904 41.6425C0.197847 41.6606 0.140408 41.6846 0.0829688 41.7116C0.0510582 41.9158 0.0351028 42.102 0.0574403 42.2132C0.137217 42.4985 0.204229 42.6546 0.379738 42.7357C0.0478671 42.063 0.871162 41.7417 0.871162 41.7417Z" fill="white"/>
<path d="M0.79776 40.4563C0.79776 40.4563 0.919021 41.8768 1.1041 42.036C1.28599 42.1982 1.43916 42.018 1.55404 41.4924C1.66892 40.9699 1.77104 40.4323 1.77104 40.4323C1.77104 40.4323 1.83486 40.2461 1.51256 40.174C1.16473 40.1019 0.682882 40.2131 0.79776 40.4563Z" fill="white"/>
<path fill-rule="evenodd" clip-rule="evenodd" d="M1.03388 40.5944C1.03388 40.5944 0.992399 40.5073 0.749878 40.5313C0.749878 40.5313 0.762642 41.4142 0.874329 41.7446C0.989208 42.0749 1.04665 42.2341 1.34342 42.2041C1.64019 42.174 1.71039 41.7236 1.79017 41.3572C1.86994 40.9908 1.87632 40.5463 1.87632 40.5463C1.87632 40.5463 1.67529 40.4922 1.56041 40.5914C1.56041 40.5914 1.50935 42.0809 1.29555 42.114C1.07856 42.147 0.986017 40.9307 1.03388 40.5944Z" fill="white"/>
<path fill-rule="evenodd" clip-rule="evenodd" d="M1.54764 40.7927C1.59231 40.8047 1.64656 40.7987 1.67209 40.7746C1.69762 40.7536 1.68166 40.7236 1.64018 40.7116C1.59869 40.6996 1.54126 40.7056 1.51573 40.7296C1.4902 40.7506 1.50296 40.7806 1.54764 40.7927Z" fill="white"/>
<path fill-rule="evenodd" clip-rule="evenodd" d="M1.55721 40.7836C1.59231 40.7926 1.6338 40.7866 1.65613 40.7686C1.67528 40.7506 1.66571 40.7266 1.6306 40.7176C1.5955 40.7086 1.55402 40.7116 1.53168 40.7296C1.50934 40.7506 1.52211 40.7746 1.55721 40.7836Z" fill="white"/>
<path fill-rule="evenodd" clip-rule="evenodd" d="M1.50615 41.1169C1.54763 41.132 1.60188 41.1289 1.63379 41.1079C1.66251 41.0869 1.65613 41.0569 1.61464 41.0419C1.57316 41.0268 1.51891 41.0298 1.49019 41.0509C1.45509 41.0719 1.46466 41.1019 1.50615 41.1169Z" fill="white"/>
<path fill-rule="evenodd" clip-rule="evenodd" d="M1.51572 41.111C1.54763 41.123 1.59231 41.12 1.61464 41.102C1.63698 41.0839 1.6306 41.0629 1.59869 41.0509C1.56678 41.0389 1.5221 41.0419 1.49977 41.0599C1.47743 41.0749 1.48381 41.096 1.51572 41.111Z" fill="white"/>
<path fill-rule="evenodd" clip-rule="evenodd" d="M1.43276 41.4294C1.46786 41.4474 1.5253 41.4474 1.5604 41.4264C1.5955 41.4084 1.59231 41.3783 1.55721 41.3603C1.52211 41.3423 1.46467 41.3423 1.42957 41.3633C1.39446 41.3814 1.39446 41.4114 1.43276 41.4294Z" fill="white"/>
<path fill-rule="evenodd" clip-rule="evenodd" d="M1.44553 41.4234C1.47425 41.4384 1.51893 41.4354 1.54765 41.4204C1.57637 41.4053 1.57318 41.3813 1.54446 41.3693C1.51574 41.3543 1.47106 41.3573 1.44234 41.3693C1.41362 41.3843 1.41681 41.4083 1.44553 41.4234Z" fill="white"/>
<path fill-rule="evenodd" clip-rule="evenodd" d="M1.40086 41.7446C1.42958 41.7657 1.48702 41.7687 1.52851 41.7537C1.56999 41.7386 1.57637 41.7086 1.54765 41.6876C1.51893 41.6666 1.46149 41.6636 1.42001 41.6786C1.37853 41.6936 1.37214 41.7236 1.40086 41.7446Z" fill="white"/>
<path fill-rule="evenodd" clip-rule="evenodd" d="M1.4168 41.7387C1.43914 41.7567 1.48382 41.7597 1.51573 41.7447C1.54764 41.7327 1.55402 41.7086 1.53168 41.6936C1.50615 41.6786 1.46148 41.6726 1.43276 41.6846C1.39766 41.6996 1.39127 41.7206 1.4168 41.7387Z" fill="white"/>
<path fill-rule="evenodd" clip-rule="evenodd" d="M1.54124 40.9428C1.58273 40.9548 1.64017 40.9488 1.66251 40.9248C1.68803 40.9038 1.67208 40.8737 1.63059 40.8617C1.58911 40.8497 1.53167 40.8557 1.50933 40.8797C1.48381 40.9008 1.49976 40.9278 1.54124 40.9428Z" fill="white"/>
<path fill-rule="evenodd" clip-rule="evenodd" d="M1.55082 40.9339C1.58592 40.9459 1.62741 40.9369 1.64974 40.9219C1.66889 40.9038 1.65932 40.8828 1.62422 40.8708C1.58911 40.8588 1.54763 40.8678 1.52529 40.8828C1.50615 40.9008 1.51891 40.9219 1.55082 40.9339Z" fill="white"/>
<path fill-rule="evenodd" clip-rule="evenodd" d="M1.48383 41.2671C1.52532 41.2821 1.57957 41.2791 1.61148 41.2581C1.6402 41.2371 1.63381 41.2071 1.59233 41.192C1.55085 41.177 1.4966 41.18 1.46788 41.2041C1.43597 41.2251 1.44554 41.2521 1.48383 41.2671Z" fill="white"/>
<path fill-rule="evenodd" clip-rule="evenodd" d="M1.49659 41.261C1.5285 41.2731 1.57317 41.2701 1.59551 41.255C1.61785 41.237 1.61147 41.216 1.57955 41.204C1.54764 41.192 1.50297 41.195 1.48063 41.213C1.45829 41.225 1.46468 41.249 1.49659 41.261Z" fill="white"/>
<path fill-rule="evenodd" clip-rule="evenodd" d="M1.42 41.5825C1.45511 41.6005 1.51255 41.6005 1.54765 41.5795C1.58275 41.5615 1.57956 41.5314 1.54446 41.5134C1.50935 41.4954 1.45192 41.4954 1.41681 41.5164C1.38171 41.5374 1.3849 41.5645 1.42 41.5825Z" fill="white"/>
<path fill-rule="evenodd" clip-rule="evenodd" d="M1.43278 41.5735C1.4615 41.5885 1.50618 41.5855 1.5349 41.5704C1.56362 41.5554 1.56043 41.5314 1.53171 41.5194C1.50299 41.5044 1.45831 41.5074 1.42959 41.5224C1.40406 41.5374 1.40406 41.5614 1.43278 41.5735Z" fill="white"/>
<path fill-rule="evenodd" clip-rule="evenodd" d="M1.34023 41.8919C1.36895 41.9129 1.42639 41.9159 1.46787 41.9009C1.50936 41.8859 1.51574 41.8558 1.48702 41.8348C1.4583 41.8138 1.40086 41.8108 1.36257 41.8258C1.31789 41.8438 1.30832 41.8708 1.34023 41.8919Z" fill="white"/>
<path fill-rule="evenodd" clip-rule="evenodd" d="M1.3562 41.8858C1.38172 41.9008 1.42321 41.9068 1.45512 41.8948C1.48703 41.8828 1.49341 41.8588 1.47107 41.8437C1.44874 41.8257 1.40406 41.8227 1.37215 41.8377C1.33705 41.8467 1.33067 41.8708 1.3562 41.8858Z" fill="white"/>
<path fill-rule="evenodd" clip-rule="evenodd" d="M0.970059 40.7927C0.925384 40.8047 0.871136 40.7987 0.845607 40.7746C0.820079 40.7536 0.836034 40.7236 0.877518 40.7116C0.919002 40.6996 0.976441 40.7056 0.998778 40.7296C1.0275 40.7506 1.01154 40.7806 0.970059 40.7927Z" fill="white"/>
<path fill-rule="evenodd" clip-rule="evenodd" d="M0.960485 40.7836C0.925384 40.7926 0.8839 40.7866 0.861562 40.7686C0.842416 40.7506 0.851989 40.7266 0.887091 40.7176C0.922193 40.7086 0.963677 40.7116 0.986014 40.7296C1.00516 40.7506 0.992396 40.7746 0.960485 40.7836Z" fill="white"/>
<path fill-rule="evenodd" clip-rule="evenodd" d="M1.59552 40.9007C1.57637 40.8827 1.57637 40.8707 1.45511 40.8947C1.20621 40.9458 1.07537 40.8106 0.986023 40.7326C0.986023 40.7326 0.836043 40.7236 0.880717 40.7926C0.880717 40.7926 1.08175 40.9818 1.26684 40.9728C1.26684 40.9728 1.26684 40.9728 1.27003 40.9698C1.30513 40.9728 1.3498 40.9728 1.40724 40.9668C1.61147 40.9458 1.61466 40.9188 1.59552 40.9007Z" fill="#BCBEC0"/>
<path fill-rule="evenodd" clip-rule="evenodd" d="M1.01155 41.1169C0.970067 41.132 0.915819 41.1289 0.8871 41.1079C0.85838 41.0869 0.864762 41.0569 0.906246 41.0419C0.94773 41.0268 1.00198 41.0298 1.0307 41.0509C1.05942 41.0719 1.04984 41.1019 1.01155 41.1169Z" fill="white"/>
<path fill-rule="evenodd" clip-rule="evenodd" d="M0.998774 41.111C0.966864 41.123 0.922189 41.12 0.899851 41.102C0.877514 41.0839 0.883896 41.0629 0.915807 41.0509C0.947717 41.0389 0.992392 41.0419 1.01473 41.0599C1.03707 41.0749 1.03069 41.096 0.998774 41.111Z" fill="white"/>
<path fill-rule="evenodd" clip-rule="evenodd" d="M1.54764 41.2312C1.53169 41.2102 1.53488 41.1952 1.40724 41.2192C1.3849 41.2222 1.35937 41.2252 1.33703 41.2282C1.15514 41.1982 1.15833 41.1562 1.01473 41.0601C1.01473 41.0601 0.864754 41.0601 0.925384 41.1261C0.925384 41.1261 1.00835 41.1862 1.11366 41.2342C1.12642 41.2673 1.18067 41.2973 1.3498 41.2913C1.55402 41.2763 1.56041 41.2493 1.54764 41.2312Z" fill="#BCBEC0"/>
<path fill-rule="evenodd" clip-rule="evenodd" d="M1.08492 41.4294C1.04982 41.4474 0.992382 41.4474 0.95728 41.4264C0.922178 41.4054 0.92537 41.3783 0.960471 41.3603C0.995573 41.3423 1.05301 41.3423 1.08811 41.3633C1.12002 41.3814 1.12002 41.4114 1.08492 41.4294Z" fill="white"/>
<path fill-rule="evenodd" clip-rule="evenodd" d="M1.07217 41.4234C1.04345 41.4384 0.998779 41.4354 0.970059 41.4204C0.944531 41.4053 0.944531 41.3813 0.97325 41.3693C1.00197 41.3543 1.04664 41.3573 1.07536 41.3693C1.10089 41.3843 1.10089 41.4083 1.07217 41.4234Z" fill="white"/>
<path fill-rule="evenodd" clip-rule="evenodd" d="M1.49021 41.5495C1.48383 41.5375 1.48383 41.5255 1.4583 41.5225C1.45192 41.5195 1.44554 41.5165 1.43277 41.5165C1.23173 41.4985 1.24131 41.4624 1.07218 41.3723C1.07218 41.3723 0.922202 41.3813 0.995596 41.4414C0.995596 41.4414 1.0307 41.4624 1.08175 41.4864C1.38172 41.6366 1.49978 41.5675 1.49021 41.5495Z" fill="#BCBEC0"/>
<path fill-rule="evenodd" clip-rule="evenodd" d="M1.11364 41.7446C1.08492 41.7657 1.02749 41.7687 0.989193 41.7537C0.947709 41.7386 0.941327 41.7086 0.970046 41.6876C0.998766 41.6666 1.05621 41.6636 1.09769 41.6786C1.13598 41.6936 1.14236 41.7236 1.11364 41.7446Z" fill="white"/>
<path fill-rule="evenodd" clip-rule="evenodd" d="M1.09768 41.7387C1.07535 41.7567 1.03067 41.7597 0.998762 41.7447C0.966851 41.7327 0.960469 41.7086 0.985998 41.6936C1.00834 41.6786 1.05301 41.6726 1.08492 41.6846C1.11683 41.6996 1.12321 41.7206 1.09768 41.7387Z" fill="white"/>
<path fill-rule="evenodd" clip-rule="evenodd" d="M1.42319 41.8287C1.25406 41.8017 1.27959 41.7657 1.08494 41.6846C1.08494 41.6846 0.93815 41.7056 1.03388 41.7597C1.03388 41.7597 1.23492 41.8798 1.39766 41.8858C1.41362 41.8828 1.42957 41.8828 1.44553 41.8768C1.44553 41.8798 1.49659 41.8407 1.42319 41.8287Z" fill="#BCBEC0"/>
<path fill-rule="evenodd" clip-rule="evenodd" d="M0.973263 40.9428C0.931779 40.9548 0.87434 40.9488 0.848811 40.9248C0.823283 40.9038 0.839238 40.8737 0.880722 40.8617C0.922206 40.8497 0.979645 40.8557 1.00517 40.8797C1.0307 40.9008 1.01475 40.9278 0.973263 40.9428Z" fill="white"/>
<path fill-rule="evenodd" clip-rule="evenodd" d="M0.96369 40.9339C0.928588 40.9459 0.887104 40.9369 0.864767 40.9219C0.84562 40.9038 0.855194 40.8828 0.890295 40.8708C0.925397 40.8588 0.966881 40.8678 0.989218 40.8828C1.00836 40.9008 0.998792 40.9219 0.96369 40.9339Z" fill="white"/>
<path fill-rule="evenodd" clip-rule="evenodd" d="M1.5317 40.7326C1.44235 40.8106 1.42639 40.8527 1.34981 40.8857C1.2828 40.9188 1.2094 40.9338 1.06261 40.8947C0.941352 40.8617 0.941352 40.8797 0.922206 40.9007C0.903059 40.9188 0.90625 40.9398 1.10729 40.9668C1.44873 41.0149 1.637 40.7926 1.637 40.7926C1.68168 40.7236 1.5317 40.7326 1.5317 40.7326Z" fill="white"/>
<path fill-rule="evenodd" clip-rule="evenodd" d="M1.03069 41.2671C0.989202 41.2821 0.934954 41.2791 0.906234 41.2581C0.877515 41.2371 0.883897 41.2071 0.925381 41.192C0.966864 41.177 1.02111 41.18 1.04983 41.2041C1.07855 41.2251 1.06898 41.2521 1.03069 41.2671Z" fill="white"/>
<path fill-rule="evenodd" clip-rule="evenodd" d="M1.01792 41.261C0.98601 41.2731 0.941335 41.2701 0.918997 41.255C0.893469 41.237 0.903042 41.216 0.934953 41.204C0.966863 41.192 1.01154 41.195 1.03388 41.213C1.05621 41.225 1.04983 41.249 1.01792 41.261Z" fill="white"/>
<path d="M1.59231 41.123C1.65294 41.0569 1.50296 41.0569 1.50296 41.0569C1.35617 41.156 1.39766 41.192 1.19343 41.2251C1.15833 41.2281 1.1328 41.2221 1.11046 41.2191C0.982818 41.195 0.986009 41.21 0.970054 41.2311C0.95729 41.2491 0.963672 41.2791 1.1679 41.2881C1.43914 41.3001 1.59231 41.123 1.59231 41.123Z" fill="white"/>
<path fill-rule="evenodd" clip-rule="evenodd" d="M1.09451 41.5825C1.0594 41.6005 1.00196 41.6005 0.966863 41.5795C0.931761 41.5615 0.934952 41.5314 0.970054 41.5134C1.00516 41.4954 1.06259 41.4954 1.0977 41.5164C1.1328 41.5344 1.1328 41.5645 1.09451 41.5825Z" fill="white"/>
<path fill-rule="evenodd" clip-rule="evenodd" d="M1.08176 41.5735C1.05304 41.5885 1.00836 41.5855 0.979642 41.5704C0.954113 41.5554 0.954113 41.5314 0.982833 41.5194C1.01155 41.5044 1.05623 41.5074 1.08495 41.5224C1.11367 41.5374 1.11048 41.5614 1.08176 41.5735Z" fill="white"/>
<path fill-rule="evenodd" clip-rule="evenodd" d="M1.44235 41.3694C1.27322 41.4595 1.28599 41.4955 1.08176 41.5135C1.069 41.5135 1.05942 41.5165 1.05623 41.5195C1.0307 41.5225 1.0307 41.5346 1.02432 41.5466C1.01475 41.5646 1.10091 41.5976 1.42959 41.4835C1.48064 41.4595 1.51575 41.4385 1.51575 41.4385C1.59233 41.3784 1.44235 41.3694 1.44235 41.3694Z" fill="white"/>
<path fill-rule="evenodd" clip-rule="evenodd" d="M1.17428 41.8919C1.14556 41.9129 1.08812 41.9159 1.04983 41.9009C1.00835 41.8859 1.00197 41.8558 1.03068 41.8348C1.0594 41.8138 1.11684 41.8108 1.15833 41.8258C1.19662 41.8438 1.20619 41.8708 1.17428 41.8919Z" fill="white"/>
<path fill-rule="evenodd" clip-rule="evenodd" d="M1.16152 41.8858C1.13599 41.9008 1.09451 41.9068 1.0626 41.8948C1.03069 41.8828 1.0243 41.8588 1.04664 41.8437C1.07217 41.8257 1.11365 41.8227 1.14556 41.8377C1.17747 41.8467 1.18386 41.8708 1.16152 41.8858Z" fill="white"/>
<path fill-rule="evenodd" clip-rule="evenodd" d="M1.42957 41.6875C1.26683 41.8016 1.08175 41.8497 1.0977 41.8497C1.09451 41.8557 1.09451 41.8587 1.09451 41.8647C1.09132 41.8827 1.11047 41.9338 1.46786 41.7656C1.47744 41.7626 1.48063 41.7596 1.48063 41.7596C1.57636 41.7085 1.42957 41.6875 1.42957 41.6875Z" fill="white"/>
<path fill-rule="evenodd" clip-rule="evenodd" d="M1.29555 40.7056C1.29555 40.7056 2.19862 40.6695 2.08374 40.2461C1.97206 39.8226 1.40085 40.4803 1.29236 40.6605L1.34661 40.6665C1.34661 40.6665 1.68167 40.2281 1.87632 40.2161C2.07098 40.204 2.02311 40.3452 1.95929 40.3962C1.90504 40.4413 1.73273 40.5855 1.43277 40.6725C1.41362 40.6786 1.34661 40.6575 1.32427 40.6605C1.30193 40.6665 1.32427 40.6996 1.29555 40.7056Z" fill="#BCBEC0"/>
<path fill-rule="evenodd" clip-rule="evenodd" d="M1.3498 40.6065C1.3498 40.6065 1.08175 40.1109 0.727547 40.141C0.373338 40.174 0.357383 40.4173 0.861571 40.5764C1.36576 40.7386 1.36576 40.7386 1.36576 40.7386L1.36895 40.6635C1.36895 40.6635 0.998787 40.5674 0.832852 40.4773C0.663725 40.3872 0.494599 40.2791 0.650961 40.2491C0.807323 40.219 0.922202 40.219 1.12324 40.4203C1.21897 40.5164 1.2796 40.6275 1.32108 40.6665C1.36576 40.7116 1.39129 40.6815 1.39129 40.6815L1.3498 40.6065Z" fill="#BCBEC0"/>
<path fill-rule="evenodd" clip-rule="evenodd" d="M1.28918 40.7477C1.28918 40.7477 1.26046 40.8318 1.11048 40.994C0.960501 41.1562 0.976457 41.4324 0.989221 41.4445C1.00199 41.4565 0.963692 41.5015 0.963692 41.5015C0.963692 41.5015 0.909444 41.5045 0.874343 41.4144C0.842432 41.3273 0.784993 41.1532 1.0339 40.9489C1.2828 40.7477 1.31471 40.6576 1.31471 40.6576C1.31471 40.6576 1.42959 40.6396 1.28918 40.7477Z" fill="#D1D3D4"/>
<path fill-rule="evenodd" clip-rule="evenodd" d="M1.3147 40.6335C1.3147 40.6335 1.40724 40.9249 1.42958 41.093C1.44872 41.2612 1.59551 41.4895 1.57956 41.5826C1.5636 41.6757 1.64976 41.6697 1.64976 41.6697C1.64976 41.6697 1.70401 41.6276 1.56041 41.3183C1.41681 41.0089 1.4551 40.8888 1.42 40.7897C1.37852 40.6846 1.38171 40.6456 1.3147 40.6335Z" fill="#D1D3D4"/>
<path fill-rule="evenodd" clip-rule="evenodd" d="M8.63501 40.27C8.63501 40.27 9.42639 40.0207 10.2529 40.234C10.288 40.243 10.2848 41.5614 10.221 41.5584C10.1603 41.5554 8.82009 41.0899 8.79137 41.0568C8.76584 41.0238 8.63501 40.27 8.63501 40.27Z" fill="#0D0B42"/>
<path d="M9.42321 32.699C9.47427 32.8882 9.41044 33.4829 9.48384 33.7411C9.88591 35.1466 9.97526 36.0056 9.97526 37.4831C9.97526 38.9968 9.97207 39.8977 9.97207 39.8977L8.76904 40.0118C8.76904 40.0118 8.0319 37.8165 7.81491 36.2578C7.54048 34.2757 7.48304 33.9904 7.34583 33.1915C7.41922 32.8822 9.26046 32.5098 9.42321 32.699Z" fill="#E4AE84"/>
<path d="M8.76585 41.1169C8.72437 40.8676 8.64459 40.8526 8.74032 40.5493C8.83605 40.24 8.70203 39.354 8.70203 39.354L9.82528 39.366C9.82528 39.366 9.98803 40.2099 10.4571 40.9367L8.76585 41.1169Z" fill="#E4AE84"/>
<path fill-rule="evenodd" clip-rule="evenodd" d="M10.1029 40.1949L10.0136 39.8916L8.74033 40.0267L8.75309 40.3841C8.75309 40.3841 10.0582 40.6124 10.1029 40.1949Z" fill="white"/>
<path d="M10.6837 41.7026C10.6837 41.7026 10.7571 42.1591 10.6933 42.3844C10.6295 42.6126 10.4635 43.0391 9.44238 43L9.42642 42.7988C9.42642 42.7988 10.6901 41.7357 10.6837 41.7026Z" fill="#D3D5D6"/>
<path d="M8.28401 41.7026C8.28401 41.7026 8.20742 42.1591 8.27444 42.3844C8.33826 42.6126 8.50419 43.0391 9.52533 43L9.54129 42.7988C9.54129 42.7988 8.27763 41.7357 8.28401 41.7026Z" fill="#D3D5D6"/>
<path fill-rule="evenodd" clip-rule="evenodd" d="M10.2369 40.4084C10.2369 40.4084 9.52532 40.2072 8.77542 40.4024C8.77542 40.4024 8.88711 40.8138 9.00199 40.8979C9.11686 40.985 9.83805 41.0571 9.86038 41.0481C9.87953 41.0451 10.2369 40.4084 10.2369 40.4084Z" fill="white"/>
<path fill-rule="evenodd" clip-rule="evenodd" d="M8.58077 40.6276C8.5712 39.8437 8.93179 40.4594 8.96051 40.5284C9.00838 40.6486 9.95612 40.6486 10.0072 40.5284C10.0359 40.4594 10.3454 39.7716 10.4093 40.6576C10.4093 40.6576 10.7347 41.8469 10.6645 42.2163C10.5082 42.7658 10.4093 42.8289 9.48384 42.8289C8.56163 42.8289 8.38293 42.7298 8.30315 42.2163C8.23295 41.8469 8.58077 40.6276 8.58077 40.6276Z" fill="#E50914"/>
<path fill-rule="evenodd" clip-rule="evenodd" d="M9.11368 42.8139C9.11368 42.895 9.24451 42.898 9.40406 42.898C9.56362 42.898 9.69445 42.895 9.69445 42.8139C9.69445 42.7328 9.56362 42.6667 9.40406 42.6667C9.24451 42.6667 9.11368 42.7328 9.11368 42.8139Z" fill="#D3D5D6"/>
<path fill-rule="evenodd" clip-rule="evenodd" d="M8.30317 42.2161C8.28083 42.105 8.29998 41.9188 8.33189 41.7116C8.38613 41.6845 8.44357 41.6635 8.49144 41.6455C8.78502 41.5374 9.31473 41.222 9.1137 41.7446C9.1137 41.7446 8.39252 42.096 8.62227 42.7387C8.41804 42.6516 8.34465 42.4954 8.30317 42.2161Z" fill="white"/>
<path fill-rule="evenodd" clip-rule="evenodd" d="M10.6295 41.6545C10.4125 41.2401 9.94656 41.15 9.94656 41.15L9.95933 40.9728C10.2146 41.0028 10.4188 41.168 10.5592 41.3272C10.371 40.9218 9.96571 40.8647 9.96571 40.8647L9.97847 40.6575C10.205 40.7295 10.3774 40.8587 10.4922 40.9698C10.5337 41.165 10.588 41.4173 10.6295 41.6545Z" fill="white"/>
<path fill-rule="evenodd" clip-rule="evenodd" d="M9.00199 40.8647C9.00199 40.8647 8.59354 40.9248 8.40846 41.3272C8.54886 41.171 8.75309 41.0028 9.00838 40.9728L9.02114 41.15C9.02114 41.15 8.56163 41.2371 8.34464 41.6425C8.38612 41.4053 8.44675 41.153 8.49462 40.9578C8.6063 40.8497 8.77224 40.7265 8.99242 40.6575L9.00199 40.8647Z" fill="white"/>
<path fill-rule="evenodd" clip-rule="evenodd" d="M9.84765 41.7417C9.5445 41.15 10.1795 41.5314 10.4699 41.6425C10.521 41.6606 10.5784 41.6846 10.6358 41.7116C10.6678 41.9158 10.6837 42.102 10.6614 42.2132C10.5816 42.4985 10.5146 42.6546 10.3391 42.7357C10.6709 42.063 9.84765 41.7417 9.84765 41.7417Z" fill="white"/>
<path d="M9.92421 40.4563C9.92421 40.4563 9.80295 41.8768 9.61787 42.036C9.43598 42.1982 9.28281 42.018 9.16793 41.4924C9.05305 40.9699 8.95094 40.4323 8.95094 40.4323C8.95094 40.4323 8.88712 40.2461 9.20941 40.174C9.55724 40.1019 10.0391 40.2131 9.92421 40.4563Z" fill="white"/>
<path fill-rule="evenodd" clip-rule="evenodd" d="M9.68807 40.5944C9.68807 40.5944 9.72955 40.5073 9.97526 40.5313C9.97526 40.5313 9.96569 41.4142 9.85081 41.7446C9.73593 42.0749 9.67849 42.2341 9.38172 42.2041C9.08495 42.174 9.01475 41.7236 8.93497 41.3572C8.8552 40.9908 8.84882 40.5463 8.84882 40.5463C8.84882 40.5463 9.04985 40.4922 9.16473 40.5914C9.16473 40.5914 9.21579 42.0809 9.42959 42.114C9.6402 42.147 9.73593 40.9307 9.68807 40.5944Z" fill="white"/>
<path fill-rule="evenodd" clip-rule="evenodd" d="M9.17431 40.7927C9.13283 40.8047 9.07539 40.7987 9.04986 40.7746C9.02433 40.7536 9.04029 40.7236 9.08177 40.7116C9.12326 40.6996 9.18069 40.7056 9.20303 40.7296C9.23175 40.7506 9.21899 40.7806 9.17431 40.7927Z" fill="white"/>
<path fill-rule="evenodd" clip-rule="evenodd" d="M9.16474 40.7836C9.12964 40.7926 9.08815 40.7866 9.06582 40.7686C9.04667 40.7506 9.05624 40.7266 9.09135 40.7176C9.12645 40.7086 9.16793 40.7116 9.18708 40.7296C9.20941 40.7506 9.19984 40.7746 9.16474 40.7836Z" fill="white"/>
<path fill-rule="evenodd" clip-rule="evenodd" d="M9.21581 41.1169C9.17432 41.132 9.12007 41.1289 9.09135 41.1079C9.06263 41.0869 9.06902 41.0569 9.1105 41.0419C9.15198 41.0268 9.20623 41.0298 9.23495 41.0509C9.26367 41.0719 9.25729 41.1019 9.21581 41.1169Z" fill="white"/>
<path fill-rule="evenodd" clip-rule="evenodd" d="M9.20623 41.111C9.17432 41.123 9.12965 41.12 9.10731 41.102C9.08497 41.0839 9.09135 41.0629 9.12327 41.0509C9.15518 41.0389 9.19985 41.0419 9.22219 41.0599C9.24453 41.0749 9.23814 41.096 9.20623 41.111Z" fill="white"/>
<path fill-rule="evenodd" clip-rule="evenodd" d="M9.28918 41.4294C9.25408 41.4474 9.19664 41.4474 9.16153 41.4264C9.12643 41.4084 9.12962 41.3783 9.16473 41.3603C9.19983 41.3423 9.25727 41.3423 9.29237 41.3633C9.32747 41.3814 9.32428 41.4114 9.28918 41.4294Z" fill="white"/>
<path fill-rule="evenodd" clip-rule="evenodd" d="M9.27642 41.4234C9.2477 41.4384 9.20303 41.4354 9.17431 41.4204C9.14559 41.4053 9.14878 41.3813 9.1775 41.3693C9.20622 41.3543 9.25089 41.3573 9.27961 41.3693C9.30833 41.3843 9.30514 41.4083 9.27642 41.4234Z" fill="white"/>
<path fill-rule="evenodd" clip-rule="evenodd" d="M9.32109 41.7446C9.29237 41.7657 9.23493 41.7687 9.19345 41.7537C9.15196 41.7386 9.14558 41.7086 9.1743 41.6876C9.20302 41.6666 9.26046 41.6636 9.30194 41.6786C9.34024 41.6936 9.34981 41.7236 9.32109 41.7446Z" fill="white"/>
<path fill-rule="evenodd" clip-rule="evenodd" d="M9.30514 41.7387C9.28281 41.7567 9.23813 41.7597 9.20622 41.7447C9.17431 41.7327 9.16793 41.7086 9.19346 41.6936C9.21579 41.6786 9.26047 41.6726 9.29238 41.6846C9.3211 41.6996 9.32748 41.7206 9.30514 41.7387Z" fill="white"/>
<path fill-rule="evenodd" clip-rule="evenodd" d="M9.1775 40.9428C9.13602 40.9548 9.07858 40.9488 9.05624 40.9248C9.03071 40.9038 9.04667 40.8737 9.08815 40.8617C9.12963 40.8497 9.18707 40.8557 9.2126 40.8797C9.23813 40.9008 9.22218 40.9278 9.1775 40.9428Z" fill="white"/>
<path fill-rule="evenodd" clip-rule="evenodd" d="M9.17112 40.9339C9.13602 40.9459 9.09453 40.9369 9.07219 40.9219C9.05305 40.9038 9.06262 40.8828 9.09772 40.8708C9.13283 40.8588 9.17431 40.8678 9.19665 40.8828C9.21579 40.9008 9.20303 40.9219 9.17112 40.9339Z" fill="white"/>
<path fill-rule="evenodd" clip-rule="evenodd" d="M9.23496 41.2671C9.19347 41.2821 9.13923 41.2791 9.10731 41.2581C9.0786 41.2371 9.08498 41.2071 9.12646 41.192C9.16794 41.177 9.22219 41.18 9.2541 41.2041C9.28282 41.2251 9.27644 41.2521 9.23496 41.2671Z" fill="white"/>
<path fill-rule="evenodd" clip-rule="evenodd" d="M9.2254 41.261C9.19349 41.2731 9.14881 41.2701 9.12648 41.255C9.10414 41.237 9.11052 41.216 9.14243 41.204C9.17434 41.192 9.21902 41.195 9.24135 41.213C9.26369 41.225 9.25731 41.249 9.2254 41.261Z" fill="white"/>
<path fill-rule="evenodd" clip-rule="evenodd" d="M9.30196 41.5825C9.26686 41.6005 9.20942 41.6005 9.17432 41.5795C9.13922 41.5615 9.14241 41.5314 9.17751 41.5134C9.21261 41.4954 9.27005 41.4954 9.30515 41.5164C9.34026 41.5344 9.33707 41.5645 9.30196 41.5825Z" fill="white"/>
<path fill-rule="evenodd" clip-rule="evenodd" d="M9.28921 41.5735C9.26049 41.5885 9.21581 41.5855 9.18709 41.5704C9.15837 41.5554 9.16157 41.5314 9.19029 41.5194C9.219 41.5044 9.26368 41.5074 9.2924 41.5224C9.31793 41.5374 9.31793 41.5614 9.28921 41.5735Z" fill="white"/>
<path fill-rule="evenodd" clip-rule="evenodd" d="M9.38174 41.8919C9.35302 41.9129 9.29558 41.9159 9.25729 41.9009C9.21581 41.8859 9.20942 41.8558 9.23814 41.8348C9.26686 41.8138 9.3243 41.8108 9.36579 41.8258C9.40408 41.8438 9.41046 41.8708 9.38174 41.8919Z" fill="white"/>
<path fill-rule="evenodd" clip-rule="evenodd" d="M9.36577 41.8858C9.34344 41.9008 9.29876 41.9068 9.26685 41.8948C9.23494 41.8828 9.22856 41.8588 9.25089 41.8437C9.27323 41.8257 9.31791 41.8227 9.34982 41.8377C9.38492 41.8467 9.3913 41.8708 9.36577 41.8858Z" fill="white"/>
<path fill-rule="evenodd" clip-rule="evenodd" d="M9.75191 40.7927C9.79658 40.8047 9.85083 40.7987 9.87636 40.7746C9.90189 40.7536 9.88593 40.7236 9.84445 40.7116C9.80296 40.6996 9.74553 40.7056 9.72 40.7296C9.69447 40.7506 9.71042 40.7806 9.75191 40.7927Z" fill="white"/>
<path fill-rule="evenodd" clip-rule="evenodd" d="M9.76147 40.7836C9.79657 40.7926 9.83805 40.7866 9.86039 40.7686C9.87953 40.7506 9.86996 40.7266 9.83486 40.7176C9.79976 40.7086 9.75827 40.7116 9.73913 40.7296C9.71679 40.7506 9.72636 40.7746 9.76147 40.7836Z" fill="white"/>
<path fill-rule="evenodd" clip-rule="evenodd" d="M9.12644 40.9007C9.14559 40.8827 9.14559 40.8707 9.27004 40.8947C9.51575 40.9458 9.64659 40.8106 9.73913 40.7326C9.73913 40.7326 9.88911 40.7236 9.84443 40.7926C9.84443 40.7926 9.6434 40.9818 9.45831 40.9728C9.45831 40.9728 9.45831 40.9728 9.45512 40.9698C9.42002 40.9728 9.37535 40.9728 9.31472 40.9668C9.1073 40.9458 9.1073 40.9188 9.12644 40.9007Z" fill="#BCBEC0"/>
<path fill-rule="evenodd" clip-rule="evenodd" d="M9.7104 41.1169C9.75188 41.132 9.80613 41.1289 9.83804 41.1079C9.86676 41.0869 9.86038 41.0569 9.81889 41.0419C9.77741 41.0268 9.72316 41.0298 9.69444 41.0509C9.66253 41.0719 9.6721 41.1019 9.7104 41.1169Z" fill="white"/>
<path fill-rule="evenodd" clip-rule="evenodd" d="M9.72315 41.111C9.75506 41.123 9.79974 41.12 9.82207 41.102C9.84441 41.0839 9.83803 41.0629 9.80612 41.0509C9.77421 41.0389 9.72953 41.0419 9.70719 41.0599C9.68486 41.0749 9.69124 41.096 9.72315 41.111Z" fill="white"/>
<path fill-rule="evenodd" clip-rule="evenodd" d="M9.17431 41.2312C9.19026 41.2102 9.18707 41.1952 9.31471 41.2192C9.33705 41.2222 9.36258 41.2252 9.38492 41.2282C9.57 41.1982 9.56362 41.1562 9.70721 41.0601C9.70721 41.0601 9.85719 41.0601 9.79656 41.1261C9.79656 41.1261 9.7136 41.1862 9.61148 41.2342C9.59872 41.2673 9.54447 41.2973 9.37534 41.2913C9.16792 41.2763 9.15835 41.2493 9.17431 41.2312Z" fill="#BCBEC0"/>
<path fill-rule="evenodd" clip-rule="evenodd" d="M9.63702 41.4294C9.67212 41.4474 9.72956 41.4474 9.76466 41.4264C9.79976 41.4084 9.79657 41.3783 9.76147 41.3603C9.72637 41.3423 9.66893 41.3423 9.63382 41.3633C9.59872 41.3814 9.60191 41.4114 9.63702 41.4294Z" fill="white"/>
<path fill-rule="evenodd" clip-rule="evenodd" d="M9.64977 41.4234C9.67849 41.4384 9.72317 41.4354 9.75189 41.4204C9.78061 41.4053 9.77742 41.3813 9.7487 41.3693C9.71998 41.3543 9.6753 41.3573 9.64977 41.3693C9.62105 41.3843 9.62105 41.4083 9.64977 41.4234Z" fill="white"/>
<path fill-rule="evenodd" clip-rule="evenodd" d="M9.23175 41.5495C9.23813 41.5375 9.23813 41.5255 9.26366 41.5225C9.27004 41.5195 9.27643 41.5165 9.28919 41.5165C9.49023 41.4985 9.48065 41.4624 9.64978 41.3723C9.64978 41.3723 9.79976 41.3813 9.72317 41.4414C9.72317 41.4414 9.68807 41.4624 9.63702 41.4864C9.33706 41.6366 9.22218 41.5675 9.23175 41.5495Z" fill="#BCBEC0"/>
<path fill-rule="evenodd" clip-rule="evenodd" d="M9.60829 41.7446C9.63701 41.7657 9.69445 41.7687 9.73274 41.7537C9.77422 41.7386 9.78061 41.7086 9.75189 41.6876C9.72317 41.6666 9.66573 41.6636 9.62744 41.6786C9.58595 41.6936 9.57638 41.7236 9.60829 41.7446Z" fill="white"/>
<path fill-rule="evenodd" clip-rule="evenodd" d="M9.62107 41.7387C9.64341 41.7567 9.68808 41.7597 9.71999 41.7447C9.7519 41.7327 9.75828 41.7086 9.73275 41.6936C9.71042 41.6786 9.66574 41.6726 9.63383 41.6846C9.60511 41.6996 9.59873 41.7206 9.62107 41.7387Z" fill="white"/>
<path fill-rule="evenodd" clip-rule="evenodd" d="M9.27644 41.8797C9.29239 41.8827 9.30835 41.8857 9.3243 41.8887C9.48705 41.8827 9.68809 41.7626 9.68809 41.7626C9.78382 41.7085 9.63703 41.6875 9.63703 41.6875C9.44557 41.7686 9.4679 41.8046 9.29878 41.8317C9.22538 41.8407 9.27644 41.8797 9.27644 41.8797Z" fill="#BCBEC0"/>
<path fill-rule="evenodd" clip-rule="evenodd" d="M9.74871 40.9428C9.79019 40.9548 9.84763 40.9488 9.87316 40.9248C9.89869 40.9038 9.88273 40.8737 9.84125 40.8617C9.79976 40.8497 9.74232 40.8557 9.71999 40.8797C9.69127 40.9008 9.70403 40.9278 9.74871 40.9428Z" fill="white"/>
<path fill-rule="evenodd" clip-rule="evenodd" d="M9.75829 40.9339C9.79339 40.9459 9.83488 40.9369 9.85721 40.9219C9.87636 40.9038 9.86679 40.8828 9.83168 40.8708C9.79658 40.8588 9.75191 40.8678 9.73276 40.8828C9.71042 40.9008 9.72319 40.9219 9.75829 40.9339Z" fill="white"/>
<path fill-rule="evenodd" clip-rule="evenodd" d="M9.19027 40.7326C9.27962 40.8106 9.29877 40.8527 9.37216 40.8857C9.43918 40.9188 9.51257 40.9338 9.65936 40.8947C9.78062 40.8617 9.78062 40.8797 9.80296 40.9007C9.81891 40.9188 9.81891 40.9398 9.61787 40.9668C9.27643 41.0149 9.09135 40.7926 9.09135 40.7926C9.04029 40.7236 9.19027 40.7326 9.19027 40.7326Z" fill="white"/>
<path fill-rule="evenodd" clip-rule="evenodd" d="M9.69127 41.2671C9.73275 41.2821 9.787 41.2791 9.81572 41.2581C9.84444 41.2371 9.83805 41.2071 9.79657 41.192C9.75509 41.177 9.70084 41.18 9.66893 41.2041C9.6434 41.2251 9.64978 41.2521 9.69127 41.2671Z" fill="white"/>
<path fill-rule="evenodd" clip-rule="evenodd" d="M9.70401 41.261C9.73593 41.2731 9.7806 41.2701 9.80294 41.255C9.82527 41.237 9.81889 41.216 9.78698 41.204C9.75507 41.192 9.7104 41.195 9.68806 41.213C9.66572 41.225 9.6721 41.249 9.70401 41.261Z" fill="white"/>
<path d="M9.12964 41.123C9.06901 41.0569 9.21899 41.0569 9.21899 41.0569C9.36578 41.156 9.32429 41.192 9.52852 41.2251C9.56362 41.2281 9.59234 41.2221 9.61149 41.2191C9.73913 41.195 9.73594 41.21 9.7519 41.2311C9.76466 41.2491 9.75828 41.2791 9.55405 41.2881C9.27962 41.3001 9.12964 41.123 9.12964 41.123Z" fill="white"/>
<path d="M9.2541 41.2041C9.2541 41.2041 9.2541 41.2072 9.2541 41.2104C9.25091 41.2104 9.2541 41.2072 9.2541 41.2041Z" fill="white"/>
<path fill-rule="evenodd" clip-rule="evenodd" d="M9.62743 41.5825C9.66253 41.6005 9.71997 41.6005 9.75507 41.5795C9.79017 41.5615 9.78698 41.5314 9.75188 41.5134C9.71678 41.4954 9.65934 41.4954 9.62424 41.5164C9.58914 41.5344 9.58914 41.5645 9.62743 41.5825Z" fill="white"/>
<path fill-rule="evenodd" clip-rule="evenodd" d="M9.64021 41.5735C9.66893 41.5885 9.7136 41.5855 9.74232 41.5704C9.77104 41.5554 9.76785 41.5314 9.73913 41.5194C9.71041 41.5044 9.66573 41.5074 9.63702 41.5224C9.6083 41.5374 9.61149 41.5614 9.64021 41.5735Z" fill="white"/>
<path fill-rule="evenodd" clip-rule="evenodd" d="M9.27962 41.3694C9.44875 41.4595 9.43599 41.4955 9.64021 41.5135C9.65298 41.5135 9.65936 41.5165 9.66574 41.5195C9.69127 41.5225 9.69127 41.5346 9.69765 41.5466C9.70723 41.5646 9.61788 41.5976 9.29239 41.4835C9.24133 41.4595 9.20623 41.4385 9.20623 41.4385C9.12964 41.3784 9.27962 41.3694 9.27962 41.3694Z" fill="white"/>
<path fill-rule="evenodd" clip-rule="evenodd" d="M9.54447 41.8919C9.57319 41.9129 9.63063 41.9159 9.67211 41.9009C9.7136 41.8859 9.71998 41.8558 9.69126 41.8348C9.66254 41.8138 9.6051 41.8108 9.56362 41.8258C9.52532 41.8438 9.51575 41.8708 9.54447 41.8919Z" fill="white"/>
<path fill-rule="evenodd" clip-rule="evenodd" d="M9.56043 41.8858C9.58596 41.9008 9.62745 41.9068 9.65936 41.8948C9.69127 41.8828 9.69765 41.8588 9.67531 41.8437C9.65298 41.8257 9.6083 41.8227 9.57639 41.8377C9.54448 41.8467 9.5381 41.8708 9.56043 41.8858Z" fill="white"/>
<path fill-rule="evenodd" clip-rule="evenodd" d="M9.24132 41.7628C9.24132 41.7628 9.24452 41.7658 9.25409 41.7688C9.61149 41.934 9.63063 41.8859 9.62744 41.8679C9.62744 41.8619 9.62744 41.8559 9.62425 41.8529C9.64021 41.8499 9.45513 41.8018 9.29238 41.6907C9.28919 41.6877 9.14559 41.7087 9.24132 41.7628Z" fill="white"/>
<path fill-rule="evenodd" clip-rule="evenodd" d="M9.42323 40.7056C9.42323 40.7056 8.52016 40.6695 8.63504 40.2461C8.74673 39.8226 9.31793 40.4803 9.42642 40.6605L9.37217 40.6665C9.37217 40.6665 9.03711 40.2281 8.84246 40.2161C8.6478 40.204 8.69567 40.3452 8.75949 40.3962C8.81374 40.4413 8.98606 40.5855 9.28602 40.6725C9.30516 40.6786 9.37217 40.6575 9.39451 40.6605C9.41685 40.6665 9.3977 40.6996 9.42323 40.7056Z" fill="#BCBEC0"/>
<path fill-rule="evenodd" clip-rule="evenodd" d="M9.37217 40.6065C9.37217 40.6065 9.64022 40.1109 9.99443 40.141C10.3486 40.174 10.3646 40.4173 9.86041 40.5764C9.35622 40.7386 9.35622 40.7386 9.35622 40.7386L9.35303 40.6635C9.35303 40.6635 9.72319 40.5674 9.88912 40.4773C10.0583 40.3872 10.2274 40.2791 10.071 40.2491C9.91465 40.219 9.79978 40.219 9.59874 40.4203C9.50301 40.5164 9.44238 40.6275 9.40089 40.6665C9.35622 40.7116 9.33069 40.6815 9.33069 40.6815L9.37217 40.6065Z" fill="#BCBEC0"/>
<path fill-rule="evenodd" clip-rule="evenodd" d="M9.43279 40.7477C9.43279 40.7477 9.46151 40.8318 9.61149 40.994C9.76147 41.1562 9.74552 41.4324 9.73275 41.4445C9.7168 41.4565 9.75828 41.5015 9.75828 41.5015C9.75828 41.5015 9.81253 41.5045 9.84763 41.4144C9.87954 41.3273 9.93698 41.1532 9.68808 40.9489C9.43918 40.7477 9.40726 40.6576 9.40726 40.6576C9.40726 40.6576 9.29239 40.6396 9.43279 40.7477Z" fill="#D1D3D4"/>
<path fill-rule="evenodd" clip-rule="evenodd" d="M9.40729 40.6335C9.40729 40.6335 9.31475 40.9249 9.29241 41.093C9.27007 41.2612 9.12647 41.4895 9.14243 41.5826C9.15838 41.6757 9.07542 41.6697 9.07542 41.6697C9.07542 41.6697 9.02117 41.6276 9.16477 41.3183C9.30836 41.0089 9.27007 40.8888 9.30517 40.7897C9.34347 40.6846 9.34028 40.6456 9.40729 40.6335Z" fill="#D1D3D4"/>
<path d="M9.37214 33.3566C9.33384 33.687 7.50536 33.747 7.34581 33.1794C7.13839 32.0052 4.67489 25.8516 6.27361 25.1218C6.27361 25.1218 7.96169 22.3889 8.69244 24.9596C9.23173 26.8487 9.39128 30.6898 9.4551 31.4916C9.49978 32.0442 9.50616 32.81 9.37214 33.3566Z" fill="#E4AE84"/>
<path d="M8.49462 24.3259C8.49462 24.3259 9.11688 25.6684 9.57958 28.4223L10.1029 32.789H6.09494L5.35461 27.3171L5.30994 26.305V24.7133L8.49462 24.3259Z" fill="#E50914"/>
<path d="M10.6262 12.8447C10.6262 12.8447 10.4858 13.6976 9.83165 13.8028C9.18067 13.9079 11.9729 15.3224 12.1037 15.1212C12.2345 14.9199 12.2888 14.2472 12.6685 14.031C12.6717 14.034 11.6123 13.4454 10.6262 12.8447Z" fill="#E4AE84"/>
<path d="M14.6629 12.7726C13.9545 13.8537 12.5696 14.2592 11.5676 13.6765C10.5656 13.0939 10.3263 11.7485 11.0347 10.6673C11.7431 9.58617 13.128 9.18073 14.13 9.76336C15.132 10.343 15.3714 11.6914 14.6629 12.7726Z" fill="#E4AE84"/>
<path d="M8.11501 3.74196C8.11501 3.74196 8.332 3.32151 8.60324 3.07825C8.83619 2.87404 8.9032 2.78995 9.25741 2.43256C9.64353 2.04515 9.70097 2.05716 9.86052 1.96406C10.0233 1.87397 9.91158 1.48054 9.46802 1.73882C9.02447 1.9971 8.94788 2.12023 8.94788 2.12023C8.94788 2.12023 9.42016 1.5286 9.63715 1.20425C9.85733 0.882905 10.0073 0.684693 9.82542 0.606609C9.73288 0.567568 9.66906 0.58859 9.35634 1.00604C9.04361 1.42348 8.68302 1.88898 8.68302 1.88898C8.68302 1.88898 9.7967 0.327311 9.59886 0.204179C9.47121 0.126095 9.37548 0.171144 9.03723 0.687696C8.69579 1.20425 8.39583 1.71179 8.39583 1.71179C8.39583 1.71179 9.14253 0.300282 9.1553 0.171144C9.16168 0.0930601 9.08829 -0.252309 8.79152 0.312295C8.49794 0.879902 8.10863 1.61869 8.10863 1.61869C8.10863 1.61869 8.68621 0.399388 8.50751 0.33632C8.32243 0.27025 8.12459 0.822841 7.7991 1.57965C7.47042 2.33346 7.547 2.34547 7.53105 2.57371C7.51509 2.80196 7.21832 3.39059 7.21832 3.39059L8.11501 3.74196Z" fill="#E4AE84"/>
<path d="M13.9003 13.3252C13.9003 13.3252 13.2206 13.7667 12.5696 13.7486C12.4866 13.7456 12.4739 13.6225 12.3845 13.6435C11.7112 13.8117 11.8484 13.3552 11.8484 13.3552L11.7591 13.3072L11.641 13.2291C11.641 13.2291 11.3251 13.5084 11.1496 12.9618C11.1336 12.9137 11.0634 12.9498 11.0347 12.9107C10.639 12.3581 10.7698 11.5473 10.7698 11.5473C10.9996 11.0127 10.9198 10.2619 10.6071 11.1509C10.3646 11.8716 10.1891 13.0189 11.4432 13.7456C12.943 14.6166 14.0311 13.4904 14.213 13.3672C14.5034 13.169 14.3055 12.8927 13.9003 13.3252Z" fill="white"/>
<path d="M12.6047 12.9408C12.3271 12.7997 12.1963 12.7246 12.0782 12.8297C12.1133 12.7035 11.9793 12.6135 11.6889 12.4423C11.2613 12.193 10.9709 12.9228 10.9709 12.9228L11.0251 13.3432C11.0251 13.3432 11.3666 13.3703 11.2421 13.2171C11.1177 13.0639 11.0762 13.0579 11.2357 12.8117C11.3953 12.5684 11.5102 12.5684 11.708 12.8027C11.8644 12.9859 11.9952 13.0609 12.2409 13.112C12.5505 13.1751 12.6302 13.2862 12.4707 13.5294C12.3111 13.7727 12.2856 13.7397 12.0846 13.7036C11.8835 13.6706 12.0686 13.8598 12.0686 13.8598L12.4866 13.7997C12.4866 13.7997 13.0355 13.16 12.6047 12.9408Z" fill="white"/>
<path d="M10.4763 12.5204C10.4763 12.5204 10.4763 12.3492 10.4826 12.115C10.4092 12.3883 10.4763 12.5204 10.4763 12.5204Z" fill="white"/>
<path d="M15.8213 11.8778C15.9011 11.7306 15.9489 11.5775 15.9872 11.4363C16.0319 11.2531 15.9362 10.8777 15.917 10.6375C15.917 10.6074 15.917 10.5804 15.9138 10.5504C15.9138 10.5504 15.9138 10.5504 15.9138 10.5474C15.9138 10.5083 15.9074 10.4723 15.8979 10.4332C15.8628 10.2741 15.783 10.1119 15.6107 9.93471C15.5947 9.91969 15.582 9.90467 15.5692 9.88966C15.5532 9.86263 15.5341 9.8356 15.5213 9.80857C15.4575 9.69445 15.3618 9.60435 15.2533 9.51426C14.9597 9.14186 14.765 8.84754 14.3725 8.73643C14.3693 8.73643 14.3534 8.73042 14.3279 8.72141C14.3023 8.70039 14.2768 8.68537 14.2577 8.67336C14.0885 8.57425 13.9194 8.58927 13.5939 8.50217C13.2684 8.41508 13.1089 8.44511 12.7164 8.49917C12.5313 8.5262 12.426 8.55623 12.3335 8.60428C12.209 8.64633 12.0877 8.70639 11.9729 8.78147C11.0506 9.39413 10.7698 10.6345 10.6198 11.0579C10.5656 11.2141 10.489 12.061 10.489 12.115C10.5337 11.9559 10.6262 11.7456 10.8081 11.4814C10.8305 11.4513 10.8592 11.4003 10.8943 11.3372C11.8101 9.45119 12.5249 9.78455 13.0195 10.3311C13.0195 10.3311 13.0259 10.3371 13.0355 10.3491C13.0642 10.3882 13.0993 10.4332 13.144 10.4873C13.3067 10.6795 13.4152 10.6645 13.6131 10.6615C13.6801 10.6765 13.7471 10.6885 13.8237 10.6945C13.9386 10.7005 14.0566 10.7185 14.1683 10.7426C15.4735 11.2801 14.4268 12.6046 14.2513 12.7968C14.0758 12.989 13.6609 13.5776 13.9098 13.3403C13.9226 13.3253 13.9449 13.4244 14.0471 13.3013C14.0439 13.3133 14.0471 13.2893 14.0471 13.3013C14.0088 13.5866 13.5173 13.7818 13.5173 13.7818C13.5173 13.7818 13.6163 13.7338 13.8045 13.6166L13.562 13.8149C13.562 13.8149 13.9705 13.6257 14.3151 13.4034C14.5832 13.2292 15.2692 12.5655 15.5213 12.2742C15.7064 12.109 15.7894 12.0069 15.8213 11.8778Z" fill="white"/>
<path d="M2.20822 23.8965C2.20822 23.8965 4.86319 24.1397 8.50738 23.8965L8.58397 24.5872C8.58397 24.5872 3.63144 24.9146 2.13483 24.5602L2.20822 23.8965Z" fill="white"/>
<g opacity="0.26">
<path d="M8.44357 17.9233C8.31912 17.9263 8.19147 17.9112 8.07021 17.8842C7.94895 17.8572 7.82769 17.8242 7.71281 17.7761C7.48306 17.683 7.26606 17.5569 7.08736 17.3947C6.90866 17.2355 6.76188 17.0403 6.70444 16.8211C6.67572 16.713 6.66933 16.5988 6.68848 16.4907C6.70763 16.3796 6.75549 16.2775 6.81612 16.1784C6.88633 16.0673 6.94696 15.9532 6.99801 15.836C7.01716 15.7159 7.02993 15.5958 7.03312 15.4786C7.03312 15.4546 7.03312 15.4276 7.03312 15.4036C7.02673 15.4246 7.02035 15.4426 7.01397 15.4636C6.92781 15.6889 6.82889 15.9081 6.69486 16.1093C6.62147 16.2174 6.56722 16.3406 6.54169 16.4697C6.51616 16.5988 6.52255 16.734 6.55446 16.8601C6.58637 16.9863 6.647 17.1064 6.72358 17.2115C6.80017 17.3196 6.88952 17.4127 6.98844 17.4998C7.08736 17.5839 7.19586 17.659 7.31074 17.725C7.42562 17.7911 7.54369 17.8452 7.66814 17.8872C7.91704 17.9743 8.18509 18.0194 8.44676 17.9983C8.57759 17.9863 8.70843 17.9593 8.82969 17.9112C8.95095 17.8632 9.05944 17.7911 9.14879 17.701C8.94776 17.8572 8.69247 17.9233 8.44357 17.9233Z" fill="white"/>
<path d="M8.21699 18.5929C8.17231 18.5719 8.12764 18.5569 8.07977 18.5449C7.98723 18.5209 7.8915 18.5028 7.79577 18.4968C7.6043 18.4818 7.40965 18.4908 7.22457 18.5149C7.03948 18.5359 6.85759 18.5569 6.67251 18.5749C6.57997 18.5839 6.48743 18.5899 6.39489 18.5929C6.30235 18.5959 6.20981 18.599 6.11407 18.5899C6.20023 18.629 6.29597 18.647 6.38851 18.665C6.48424 18.677 6.57997 18.686 6.67251 18.689C6.86398 18.6951 7.05225 18.683 7.24052 18.662C7.4256 18.638 7.60749 18.62 7.78938 18.614C7.88192 18.611 7.97127 18.611 8.06382 18.617C8.10849 18.62 8.15636 18.626 8.20103 18.635C8.24571 18.644 8.29038 18.653 8.33506 18.674C8.30315 18.635 8.26166 18.614 8.21699 18.5929Z" fill="white"/>
<path d="M6.91184 18.1004C7.02353 18.1244 7.13841 18.1244 7.2469 18.0944C7.1416 18.0643 7.04267 18.0313 6.95332 17.9923C6.86397 17.9502 6.78101 17.9022 6.70761 17.8421C6.63422 17.782 6.56401 17.716 6.50019 17.6409C6.43637 17.5658 6.37574 17.4877 6.31192 17.4006C6.31192 17.5057 6.34702 17.6109 6.39808 17.704C6.44914 17.7971 6.51934 17.8842 6.60869 17.9562C6.69485 18.0223 6.80015 18.0764 6.91184 18.1004Z" fill="white"/>
<path d="M7.39689 20.0554C7.29158 20.0314 7.19266 20.0074 7.1065 19.9713C7.01715 19.9353 6.94056 19.8873 6.87036 19.8272C6.80016 19.7671 6.73953 19.6981 6.68209 19.623C6.62465 19.5479 6.57359 19.4638 6.51934 19.3767C6.50977 19.4788 6.5353 19.5809 6.57678 19.68C6.61827 19.7761 6.68209 19.8662 6.76825 19.9383C6.85441 20.0104 6.95971 20.0614 7.0714 20.0825C7.18308 20.1035 7.29796 20.0945 7.39689 20.0554Z" fill="white"/>
<path d="M7.03309 20.5091C6.93736 20.485 6.8512 20.461 6.77462 20.428C6.69803 20.3949 6.62783 20.3499 6.5672 20.2988C6.50657 20.2478 6.44913 20.1847 6.39807 20.1186C6.34701 20.0526 6.29596 19.9805 6.2449 19.8994C6.23214 19.9925 6.25447 20.0856 6.28958 20.1727C6.32787 20.2598 6.38531 20.3409 6.46189 20.407C6.53848 20.473 6.6374 20.5211 6.73632 20.5361C6.84163 20.5541 6.94374 20.5451 7.03309 20.5091Z" fill="white"/>
<path d="M6.23215 20.8214C6.19067 20.7854 6.14918 20.7433 6.11089 20.6983C6.0726 20.6532 6.03111 20.6022 5.98644 20.5481C5.97048 20.6172 5.98006 20.6862 6.00239 20.7523C6.02792 20.8184 6.06941 20.8785 6.12685 20.9295C6.18428 20.9776 6.25768 21.0136 6.33426 21.0226C6.41085 21.0316 6.48744 21.0226 6.55126 20.9866C6.48105 20.9595 6.42361 20.9385 6.36937 20.9115C6.31831 20.8875 6.27363 20.8574 6.23215 20.8214Z" fill="white"/>
<path d="M8.5393 20.7013C8.44038 20.6893 8.34784 20.6683 8.25849 20.6353C8.17233 20.6022 8.08936 20.5602 8.01597 20.5031C7.94258 20.4461 7.87556 20.374 7.80536 20.2959C7.81493 20.398 7.85961 20.4971 7.92662 20.5812C7.99682 20.6653 8.09256 20.7314 8.20105 20.7704C8.30955 20.8094 8.42443 20.8215 8.53292 20.8155C8.64461 20.8064 8.74991 20.7794 8.84565 20.7254C8.74034 20.7224 8.63823 20.7133 8.5393 20.7013Z" fill="white"/>
<path d="M8.47548 21.1906C8.37656 21.1816 8.28721 21.1756 8.19786 21.1606C8.1117 21.1486 8.02873 21.1276 7.95214 21.1005C7.87556 21.0735 7.80216 21.0345 7.73515 20.9834C7.66814 20.9354 7.60751 20.8723 7.5405 20.8032C7.54688 20.8963 7.58517 20.9864 7.6458 21.0645C7.70962 21.1426 7.79578 21.2027 7.89471 21.2387C7.99044 21.2747 8.09574 21.2867 8.19467 21.2777C8.29678 21.2687 8.39251 21.2417 8.47548 21.1906Z" fill="white"/>
<path d="M7.6075 21.6173C7.55325 21.5993 7.50538 21.5753 7.45752 21.5422C7.40965 21.5092 7.36179 21.4702 7.30435 21.4221C7.30116 21.4912 7.32349 21.5603 7.36817 21.6233C7.41284 21.6834 7.47666 21.7284 7.55006 21.7555C7.62345 21.7825 7.70004 21.7885 7.77343 21.7795C7.84683 21.7705 7.91703 21.7465 7.97447 21.7014C7.90108 21.6864 7.83725 21.6774 7.77662 21.6624C7.71599 21.6534 7.65856 21.6384 7.6075 21.6173Z" fill="white"/>
<path d="M12.0016 18.8391C12.0303 18.7911 12.0622 18.743 12.0941 18.698C12.1548 18.6139 12.2186 18.5358 12.2888 18.4577C12.209 18.4787 12.1292 18.5058 12.0527 18.5328C12.0271 18.5628 12.0048 18.5929 11.9793 18.6229C11.9442 18.671 11.9091 18.722 11.8772 18.7731C11.8452 18.8241 11.8165 18.8812 11.7878 18.9262C11.7304 19.0193 11.657 19.1004 11.5676 19.1635C11.4783 19.2265 11.373 19.2716 11.2645 19.2956C11.0443 19.3497 10.8018 19.3317 10.5752 19.2746C10.3486 19.2175 10.1316 19.1184 9.93379 18.9923C9.73914 18.8632 9.56682 18.701 9.45194 18.5058C9.3945 18.4067 9.34983 18.3016 9.33068 18.1904C9.31153 18.0793 9.31153 17.9622 9.34025 17.8511C9.29877 17.9592 9.27962 18.0763 9.2892 18.1964C9.29877 18.3136 9.33387 18.4307 9.38493 18.5388C9.49343 18.755 9.66574 18.9382 9.86359 19.0824C10.0646 19.2295 10.2912 19.3377 10.5369 19.4067C10.7794 19.4728 11.0443 19.4968 11.3028 19.4368C11.4304 19.4067 11.5549 19.3527 11.6602 19.2746C11.7655 19.1995 11.8548 19.1004 11.9186 18.9923C11.9505 18.9352 11.9729 18.8872 12.0016 18.8391Z" fill="white"/>
<path d="M9.55404 20.5C9.61148 20.572 9.67211 20.6441 9.7487 20.6982C9.69764 20.6231 9.65935 20.545 9.62106 20.4639C9.58276 20.3858 9.54766 20.3017 9.51575 20.2237C9.44874 20.0615 9.38492 19.8963 9.32429 19.7311C9.26047 19.563 9.18388 19.3948 9.08496 19.2416C9.0339 19.1635 8.97646 19.0915 8.90945 19.0254C8.87435 18.9923 8.83924 18.9593 8.80095 18.9323C8.76266 18.9053 8.72118 18.8782 8.67331 18.8662C8.7116 18.8932 8.74032 18.9263 8.76904 18.9593C8.79776 18.9923 8.82329 19.0284 8.84563 19.0674C8.89349 19.1395 8.93498 19.2176 8.97327 19.2957C9.04986 19.4518 9.11368 19.614 9.17431 19.7792C9.23813 19.9474 9.31152 20.1125 9.40406 20.2687C9.44874 20.3498 9.4998 20.4249 9.55404 20.5Z" fill="white"/>
<path d="M9.94018 19.7222C9.8604 19.6651 9.787 19.5991 9.71042 19.521C9.72957 19.6261 9.78062 19.7222 9.85402 19.8063C9.92741 19.8904 10.0263 19.9565 10.1316 19.9985C10.2369 20.0406 10.3518 20.0616 10.4635 20.0616C10.5752 20.0616 10.6901 20.0436 10.789 19.9985C10.6805 19.9865 10.5752 19.9685 10.4763 19.9475C10.3774 19.9264 10.2816 19.8994 10.1923 19.8634C10.1029 19.8273 10.02 19.7823 9.94018 19.7222Z" fill="white"/>
<path d="M7.36178 20.6653C7.46389 20.5121 7.55962 20.3529 7.65216 20.1938C7.74471 20.0316 7.83086 19.8694 7.90426 19.6982C7.77662 19.8364 7.65855 19.9835 7.54686 20.1307C7.43517 20.2809 7.32987 20.431 7.22775 20.5872C7.12564 20.7434 7.02991 20.8995 6.93737 21.0587C6.84483 21.2179 6.75867 21.383 6.68527 21.5512C6.81291 21.4131 6.93098 21.2659 7.04267 21.1188C7.15436 20.9746 7.25966 20.8214 7.36178 20.6653Z" fill="white"/>
</g>
<path d="M6.24172 7.25277C6.31193 7.21674 6.38532 7.14166 6.44276 7.0876C6.79697 6.75124 7.50539 5.38177 7.80535 4.53487C8.10531 3.68796 8.51376 3.12636 8.51376 3.12636L7.51815 2.68188C7.51815 2.68188 7.25967 3.29154 6.44914 4.27058C5.6418 5.25264 5.26207 6.13258 5.12485 6.81431C5.09613 7.06357 6.08217 7.3669 6.24172 7.25277Z" fill="#E4AE84"/>
<path d="M5.92262 6.60413C5.90985 6.70023 6.48743 6.5771 6.48743 6.5771C6.48743 6.5771 7.33945 8.92261 7.16394 9.56529C7.16394 9.56529 7.67451 10.9348 7.62026 11.5744C9.01157 13.2743 8.38612 15.0432 6.68528 14.7699C5.7854 14.6557 5.52373 13.3073 5.60032 12.1841C5.69286 10.8417 5.43438 10.4302 5.28759 9.87162C5.08975 9.12082 5.11847 7.21978 5.16314 6.89544C5.65457 6.82937 5.4631 6.42393 5.92262 6.60413Z" fill="#E4AE84"/>
<g opacity="0.26">
<path d="M5.63223 11.3852C5.70244 11.1509 5.75349 10.9167 5.81412 10.6854C5.84284 10.5683 5.87156 10.4542 5.90347 10.3371C5.93538 10.2199 5.96729 10.1058 6.00559 9.9917C5.93538 10.0938 5.88433 10.2079 5.84284 10.3221C5.80136 10.4362 5.76626 10.5533 5.73754 10.6704C5.70882 10.7876 5.68648 10.9077 5.66733 11.0278C5.645 11.1449 5.63223 11.2651 5.63223 11.3852Z" fill="white"/>
<path d="M5.27164 7.73326C5.34503 7.6822 5.40247 7.62514 5.45672 7.56808L5.53969 7.48399C5.56841 7.45396 5.59713 7.42693 5.62904 7.3999C5.58436 7.3999 5.5365 7.41492 5.4982 7.43594C5.45991 7.45696 5.42481 7.48399 5.39609 7.51703C5.36737 7.54706 5.33865 7.5801 5.31631 7.61613C5.29717 7.65217 5.28121 7.68821 5.27164 7.73326Z" fill="white"/>
</g>
<path d="M14.5831 23.269C14.5927 23.1729 14.0215 23.326 14.0215 23.326C14.0215 23.326 13.0259 21.0316 13.1599 20.3799C13.1599 20.3799 11.9697 19.2627 11.9824 18.62C11.1336 16.9562 11.2389 15.821 12.9557 16.0012C13.862 16.0643 14.5672 16.5538 14.5608 17.68C14.5544 19.0254 14.8352 19.4219 15.0171 19.9684C15.2597 20.7072 15.349 22.6083 15.3267 22.9326C14.8352 23.0317 15.0522 23.4251 14.5831 23.269Z" fill="#E4AE84"/>
<path d="M8.5744 13.208C8.5744 13.208 7.12565 14.5775 5.40886 15.8719C5.40886 15.8719 4.29199 17.5356 3.52294 19.1874C2.14121 22.1516 2.13483 24.0977 2.13483 24.0977C2.13483 24.0977 5.09294 24.2028 8.56163 24.2028C8.56163 24.2028 9.00838 23.1847 8.90627 23.3949C8.80734 23.6021 10.1061 21.2746 10.4476 20.701C10.6007 20.4397 11.2964 20.0433 11.2964 20.0433C11.2964 20.0433 11.8389 17.4395 13.6099 16.1331L13.3036 15.7697C13.3036 15.7697 10.8815 17.9321 9.56043 17.1662C8.23933 16.4004 8.47228 14.5775 9.00838 13.2771L8.5744 13.208Z" fill="#E50914"/>
<path d="M10.9741 22.9566C10.9741 22.9566 10.489 23.0527 10.1157 22.9957C9.79976 22.9476 9.68807 22.9476 9.17112 22.8996C8.60949 22.8485 8.58397 22.8005 8.40846 22.7344C8.23295 22.6683 7.97128 22.9897 8.45632 23.1639C8.94456 23.338 9.09454 23.32 9.09454 23.32C9.09454 23.32 8.30953 23.329 7.90427 23.3621C7.499 23.3951 7.24053 23.4011 7.2852 23.5843C7.30754 23.6774 7.36498 23.7104 7.90746 23.6894C8.44994 23.6684 9.06263 23.6534 9.06263 23.6534C9.06263 23.6534 7.06821 23.7765 7.08736 23.9958C7.10012 24.1369 7.19585 24.182 7.83726 24.1219C8.48185 24.0618 9.09135 23.9747 9.09135 23.9747C9.09135 23.9747 7.44795 24.2751 7.33307 24.3471C7.26286 24.3892 7.01715 24.6565 7.67451 24.5303C8.33187 24.4042 9.19346 24.242 9.19346 24.242C9.19346 24.242 7.81492 24.5544 7.86917 24.7255C7.92661 24.9057 8.51376 24.7135 9.34982 24.4973C10.1859 24.2841 10.1476 24.218 10.3518 24.0919C10.556 23.9657 11.2294 23.8276 11.2294 23.8276L10.9741 22.9566Z" fill="#E4AE84"/>
<path d="M15.2437 22.1546C15.1703 22.1246 14.8927 22.1907 14.8097 22.1816C14.3119 22.1216 12.726 22.4279 11.8293 22.7192C10.9326 23.0105 10.2114 23.0496 10.2114 23.0496L10.3454 24.0947C10.3454 24.0947 11.1113 23.8875 12.4324 23.8935C13.7503 23.8995 14.5959 23.7073 15.2565 23.3919C15.4862 23.2628 15.4384 22.2057 15.2437 22.1546Z" fill="#E4AE84"/>
<g opacity="0.26">
<path d="M14.5768 18.4788C14.5225 18.716 14.4842 18.9503 14.4396 19.1875C14.4204 19.3046 14.3981 19.4248 14.3726 19.5419C14.3502 19.659 14.3247 19.7761 14.2928 19.8933C14.3566 19.7882 14.3981 19.671 14.4364 19.5539C14.4715 19.4368 14.5002 19.3197 14.5194 19.1995C14.5417 19.0794 14.5576 18.9593 14.5672 18.8391C14.5768 18.722 14.5832 18.5989 14.5768 18.4788Z" fill="white"/>
<path d="M15.1639 22.1067C15.0937 22.1607 15.0427 22.2208 14.9884 22.2809L14.9087 22.371C14.8831 22.401 14.8576 22.431 14.8257 22.4611C14.8704 22.4581 14.915 22.44 14.9533 22.416C14.9916 22.392 15.0235 22.362 15.0522 22.3319C15.081 22.2989 15.1033 22.2659 15.1225 22.2268C15.1416 22.1908 15.1576 22.1517 15.1639 22.1067Z" fill="white"/>
</g>
</g>
<defs>
<clipPath id="clip0_155_1183">
<rect width="16" height="43" fill="white"/>
</clipPath>
</defs>
</svg>
