<svg width="35" height="19" viewBox="0 0 35 19" fill="none" xmlns="http://www.w3.org/2000/svg">
<g clip-path="url(#clip0_158_2519)">
<path d="M9.47813 9.42407C9.34489 9.10951 11.0366 8.21772 11.4456 8.65226C12.1893 9.60891 16.6727 14.0062 15.7804 15.4201C14.2869 17.8491 12.716 15.5499 12.9918 15.8417C14.3489 17.2848 10.451 12.067 9.98317 11.1493C9.726 10.6434 9.64544 9.9786 9.47813 9.42407Z" fill="#D1A07A"/>
<path d="M11.5944 8.31812C11.5944 8.31812 10.7175 7.13123 10.0885 6.78748C9.45953 6.44049 9.3263 6.62534 8.94209 6.73884C8.44324 6.88477 7.91031 8.03923 7.91031 8.03923C7.91031 8.03923 9.97387 7.78304 10.0111 7.79277C10.0482 7.8025 11.5944 8.31812 11.5944 8.31812Z" fill="#D1A07A"/>
<path d="M10.042 8.60003C9.94909 8.77515 9.01956 10.5166 8.97618 10.7922C8.84605 11.6581 7.97848 13.2503 6.9498 14.0967C6.08534 14.8069 4.87075 16.2273 4.87075 16.2273L3.55701 15.916C3.55701 15.916 4.63836 14.0286 5.87774 11.8753C6.78248 10.3058 7.29683 8.97945 7.7461 8.28223C8.00017 8.09414 10.0606 8.35357 10.042 8.60003Z" fill="#D1A07A"/>
<path d="M8.14891 7.72153C7.98779 7.41994 9.58969 6.36276 10.0359 6.75515C10.8631 7.63073 15.7339 11.5514 14.9779 13.0528C14.9779 13.0528 14.1599 16.1335 12.1397 14.3694C10.6556 13.0723 9.3635 10.2575 8.81508 9.39161C8.50523 8.91166 8.3658 8.2566 8.14891 7.72153Z" fill="#D1A07A"/>
<path d="M3.55392 15.8284L4.15502 14.875C4.15502 14.875 4.63528 15.783 5.1837 15.903L4.80879 16.3829C4.81189 16.3829 4.41529 16.798 3.55392 15.8284Z" fill="white"/>
<path d="M11.1606 8.08467C11.1606 8.08467 10.4975 7.48798 9.86543 7.141C9.23645 6.79401 9.10321 6.97885 8.71901 7.09235C8.22016 7.23828 7.68723 8.39275 7.68723 8.39275C7.68723 8.39275 9.75079 8.13656 9.78797 8.14629C9.82515 8.15926 11.1606 8.08467 11.1606 8.08467Z" fill="#D1A07A"/>
<path d="M5.98309 17.7222C5.99239 17.9524 5.9676 18.1762 4.67555 18.2183C4.20768 18.2345 3.65926 18.1989 2.86606 18.2994C1.69175 18.4453 0.979108 18.2799 0.594901 18.1275C0.27886 18.0011 0.0123938 17.8713 0 17.7838C0 17.7708 0 17.7578 0 17.7449C0 17.7903 0.00309844 17.8324 0.00619688 17.8649C0.0154922 17.9524 0.281958 18.0821 0.597999 18.2054C0.979108 18.3545 1.67006 18.494 2.85057 18.3999C3.65926 18.3351 4.21078 18.3091 4.67865 18.2962C6.01098 18.254 5.99858 18.0173 5.98619 17.7805C5.98309 17.7611 5.98309 17.7416 5.98309 17.7222Z" fill="#717375"/>
<path d="M5.71663 15.4233C5.67015 15.4071 5.61748 15.459 5.5772 15.5595C5.51213 15.7347 5.53692 15.8968 5.53692 15.9065H5.54311C5.52762 15.9649 5.51833 16.0265 5.52452 16.0979L5.58959 16.0914C5.5772 15.9617 5.62058 15.8709 5.67015 15.7671C5.69494 15.7152 5.71663 15.6633 5.73832 15.6049C5.78169 15.4655 5.73832 15.4298 5.71663 15.4233ZM5.67635 15.5822C5.65776 15.6374 5.63607 15.6893 5.61128 15.7347C5.60818 15.7411 5.60508 15.7509 5.59889 15.7574C5.60199 15.7055 5.61438 15.6439 5.63607 15.5822C5.65776 15.5271 5.67635 15.5012 5.68874 15.4914C5.69184 15.5077 5.69184 15.5368 5.67635 15.5822Z" fill="white"/>
<path fill-rule="evenodd" clip-rule="evenodd" d="M4.78399 17.7159C4.51133 17.7321 4.29134 17.8067 3.89164 17.8845C3.49194 17.9623 2.89084 18.0726 2.42298 18.0953C1.95511 18.118 1.28585 18.0596 1.00389 18.0272C0.52983 17.9721 0.0588668 17.7807 0.0495714 17.771L0.0123901 17.6316C0.0123901 17.6316 0.0526699 17.518 0.145623 17.4467C0.241675 17.3754 0.455467 17.3137 1.03488 17.0997C1.7754 16.8273 2.01398 16.7041 2.3827 16.3928C2.74831 16.0815 3.20379 15.7928 3.33392 15.8285C3.46405 15.8642 3.69024 16.0166 4.13951 16.1528C5.02567 16.422 4.5609 16.4414 5.18989 16.1723C5.47494 16.0523 5.47184 15.6858 5.49973 15.7604C5.49973 15.7604 5.49044 16.0555 5.65155 16.2663C5.84985 16.529 5.92112 16.9668 5.88394 17.437C5.60818 17.6251 5.05046 17.6997 4.78399 17.7159Z" fill="#E50914"/>
<path fill-rule="evenodd" clip-rule="evenodd" d="M3.91333 15.4815C3.82038 15.355 3.82968 15.2156 3.69334 15.1151C3.62208 15.0599 3.44857 15.141 3.23168 15.5431C3.04267 15.8901 2.65537 16.169 2.65537 16.169L2.67706 16.1658C2.16271 16.5841 1.71344 16.7722 1.71344 16.7722L1.75992 16.8727C2.32073 16.5679 2.82268 16.2566 3.17281 16.0328C3.32773 15.9712 3.56941 16.0555 3.66236 16.0004C3.95361 15.8285 3.9753 15.5626 3.91333 15.4815Z" fill="white"/>
<path fill-rule="evenodd" clip-rule="evenodd" d="M0.105335 17.6901C0.130123 17.8069 0.213781 17.836 0.263356 17.8523C0.285045 17.8587 0.309832 17.8685 0.33462 17.875H0.337718C0.362506 17.8814 0.390392 17.8912 0.415179 17.8977C0.443065 17.9041 0.470951 17.9139 0.501936 17.9236H0.505034C0.53292 17.9301 0.563905 17.9398 0.591791 17.9463C0.594889 17.9463 0.597988 17.9463 0.597988 17.9495C0.628972 17.956 0.659956 17.9658 0.690941 17.9722C0.690941 17.9722 0.690941 17.9722 0.694039 17.9722C0.725024 17.9787 0.759106 17.9852 0.790091 17.9917C0.793189 17.9917 0.793189 17.9917 0.796288 17.9917C0.827272 17.9982 0.858257 18.0047 0.89234 18.0079C0.895438 18.0079 0.898536 18.0079 0.901635 18.0079C0.935718 18.0144 0.969801 18.0177 1.00388 18.0209C1.28584 18.0533 1.95201 18.1117 2.42297 18.089C2.89083 18.0663 3.49193 17.9625 3.89163 17.8782C4.20767 17.8134 5.63296 17.6707 5.91182 17.4891C5.91491 17.4501 5.88703 17.3075 5.88703 17.2685C5.85295 17.2977 5.69183 17.4339 5.62986 17.4696C5.22086 17.6966 3.92262 17.7809 3.47644 17.875C3.02717 17.969 2.04806 18.1312 0.762205 17.8133C0.762205 17.8133 0.188993 17.6285 0.588692 17.4047C0.935718 17.2102 1.7599 16.8697 1.7599 16.8697L1.75061 16.7529C0.567003 17.3302 0.486444 17.0837 0.198289 17.2945C0.151812 17.3269 0.0185789 17.4631 0.0247758 17.5799C0.0464649 17.5863 0.089843 17.6188 0.105335 17.6901Z" fill="#E50914"/>
<path d="M5.89635 17.3105C5.92114 16.8727 5.84368 16.5193 5.65467 16.2696C5.64538 16.2566 5.63608 16.2469 5.62988 16.2339C5.56791 16.2469 5.54003 16.2987 5.62369 16.4414C5.77241 16.6911 5.83128 17.1678 5.84368 17.3397C5.85917 17.3267 5.87776 17.317 5.89635 17.3105Z" fill="#E50914"/>
<path fill-rule="evenodd" clip-rule="evenodd" d="M1.69484 17.1549C1.69484 17.1549 1.95821 16.7949 1.56161 16.8987C1.41598 16.9376 0.216886 17.3948 0.319134 17.5959C0.384201 17.7256 0.350119 17.7386 0.613486 17.8553C0.876854 17.9721 2.10384 18.0564 1.88075 17.998C1.39429 17.8748 1.47485 17.6672 1.7723 17.3883C2.07285 17.1095 2.19989 17.0349 2.19989 17.0349L1.69484 17.1549Z" fill="#E50914"/>
<path d="M2.06046 17.0706C2.06046 17.0706 3.34941 18.0208 2.31453 18.024C2.31453 18.024 3.06125 18.0629 3.21308 17.9235C3.368 17.784 3.1635 17.2976 2.50663 16.8047L2.06046 17.0706Z" fill="#E50914"/>
<path d="M2.62128 16.6814C2.62128 16.6814 3.966 17.7678 3.21618 17.9429C3.21618 17.9429 3.79249 17.9559 3.92572 17.7905C4.19219 17.4597 3.72432 16.9084 3.06745 16.4155L2.62128 16.6814Z" fill="#E50914"/>
<path d="M3.19141 16.3375C3.19141 16.3375 4.7933 17.6217 3.96292 17.8422C3.96292 17.8422 4.68176 17.8585 4.81499 17.6931C4.98231 17.4855 4.11164 16.7137 4.96062 16.3148C5.13103 16.237 3.78941 16.2176 3.54153 16.0327L3.19141 16.3375Z" fill="#E50914"/>
<path fill-rule="evenodd" clip-rule="evenodd" d="M5.73212 16.3896C5.71043 16.3474 5.68564 16.3085 5.65466 16.2696C5.64846 16.2598 5.64226 16.2534 5.63607 16.2436C5.54001 16.0004 5.54931 15.7799 5.54931 15.7799C5.54621 15.2805 5.32622 15.5594 5.30763 15.6372C5.27045 15.8058 5.27665 16.1885 4.58259 16.1723C4.00628 16.1626 3.60968 15.9258 3.51983 15.8707C3.32463 15.7507 3.24097 15.754 3.21618 15.7604C2.88775 15.9356 2.85057 16.0588 2.57171 16.3085C1.94892 16.7819 1.5957 16.9279 1.46246 16.9992C1.46246 16.9992 1.65767 17.2522 1.96751 17.1516C1.9768 17.1484 1.9892 17.1452 1.99849 17.1419C2.00779 17.1387 2.02018 17.1322 2.03258 17.1289C2.03568 17.1289 2.03568 17.1257 2.03877 17.1257C2.04807 17.1225 2.05736 17.116 2.06666 17.1127C2.07905 17.1062 2.09145 17.0997 2.10384 17.0933C2.51284 16.8533 3.1697 16.3701 3.33082 16.2696C3.49194 16.169 3.82967 16.2144 4.07445 16.289C4.78399 16.4998 4.88005 16.2858 5.32312 16.422C5.47804 16.4674 5.67944 16.6652 5.83127 17.0706C5.83436 17.077 5.80648 16.7009 5.81268 16.7041C5.81577 16.7041 5.63916 16.4479 5.64226 16.4512C5.64846 16.4512 5.65156 16.4512 5.65775 16.4512C5.65775 16.4512 5.65775 16.4512 5.66085 16.4512C5.66705 16.4512 5.67325 16.4479 5.67944 16.4447C5.67944 16.4447 5.67944 16.4447 5.68254 16.4447C5.68874 16.4414 5.69494 16.4382 5.69803 16.4317C5.71353 16.4123 5.72282 16.4025 5.73212 16.3896Z" fill="#E50914"/>
<path fill-rule="evenodd" clip-rule="evenodd" d="M3.29055 15.9518C3.29365 15.9907 3.32463 16.0199 3.36181 16.0166C3.39899 16.0134 3.42688 15.981 3.42688 15.9421C3.42378 15.9031 3.3928 15.874 3.35562 15.8772C3.31534 15.8804 3.28745 15.9161 3.29055 15.9518Z" fill="white"/>
<path fill-rule="evenodd" clip-rule="evenodd" d="M3.30295 15.9517C3.30295 15.9809 3.33083 16.0068 3.35872 16.0036C3.38661 16.0036 3.41139 15.9777 3.4083 15.9452C3.4083 15.916 3.38041 15.8901 3.35252 15.8933C3.32464 15.8966 3.30295 15.9225 3.30295 15.9517Z" fill="black"/>
<path fill-rule="evenodd" clip-rule="evenodd" d="M3.32463 16.0102C3.32463 16.0102 3.01479 16.0329 2.95282 15.9065C2.95282 15.9065 2.96212 15.8222 3.00549 15.8546C3.13253 15.9421 3.17281 15.9 3.35252 15.8935C3.35252 15.8935 3.42688 15.9843 3.32463 16.0102Z" fill="#BCBEC0"/>
<path fill-rule="evenodd" clip-rule="evenodd" d="M2.9435 16.2824C2.9404 16.3213 2.96829 16.3537 3.00547 16.357C3.04265 16.3602 3.07364 16.331 3.07674 16.2921C3.07983 16.2532 3.05195 16.2208 3.01477 16.2175C2.97449 16.2143 2.9435 16.2435 2.9435 16.2824Z" fill="white"/>
<path fill-rule="evenodd" clip-rule="evenodd" d="M2.95589 16.2824C2.95279 16.3115 2.97758 16.3407 3.00547 16.3407C3.03335 16.344 3.05814 16.318 3.06124 16.2888C3.06434 16.2597 3.03955 16.2305 3.01166 16.2305C2.98378 16.2305 2.95899 16.2532 2.95589 16.2824Z" fill="black"/>
<path fill-rule="evenodd" clip-rule="evenodd" d="M2.97139 16.3442C2.97139 16.3442 2.66154 16.3312 2.61197 16.1982C2.61197 16.1982 2.62746 16.1172 2.67084 16.1561C2.78548 16.2598 2.83196 16.2209 3.01167 16.2339C3.01167 16.2307 3.07364 16.3279 2.97139 16.3442Z" fill="#BCBEC0"/>
<path fill-rule="evenodd" clip-rule="evenodd" d="M2.57788 16.5547C2.57169 16.5937 2.59647 16.6293 2.63366 16.6358C2.67084 16.6423 2.70492 16.6164 2.71112 16.5807C2.71731 16.5418 2.69253 16.5061 2.65844 16.4996C2.62126 16.4899 2.58408 16.5158 2.57788 16.5547Z" fill="white"/>
<path fill-rule="evenodd" clip-rule="evenodd" d="M2.59338 16.5577C2.58718 16.5869 2.60577 16.6161 2.63676 16.6226C2.66465 16.6291 2.69253 16.6064 2.69873 16.5772C2.70492 16.548 2.68324 16.5188 2.65535 16.5123C2.62437 16.5059 2.59648 16.5286 2.59338 16.5577Z" fill="black"/>
<path fill-rule="evenodd" clip-rule="evenodd" d="M2.59958 16.6198C2.59958 16.6198 2.30213 16.5744 2.27115 16.4349C2.27115 16.4349 2.29594 16.3571 2.33312 16.3992C2.43537 16.516 2.47565 16.4803 2.65226 16.5127C2.65536 16.5127 2.70493 16.6198 2.59958 16.6198Z" fill="#BCBEC0"/>
<path fill-rule="evenodd" clip-rule="evenodd" d="M2.19059 16.7918C2.1782 16.8275 2.19679 16.8696 2.23087 16.8826C2.26495 16.8956 2.30523 16.8761 2.31763 16.8404C2.33002 16.8048 2.31143 16.7626 2.27735 16.7496C2.24326 16.7367 2.20298 16.7561 2.19059 16.7918Z" fill="white"/>
<path fill-rule="evenodd" clip-rule="evenodd" d="M2.20609 16.7982C2.19679 16.8274 2.20918 16.8598 2.23707 16.8695C2.26496 16.8793 2.29594 16.8663 2.30524 16.8371C2.31453 16.8079 2.30214 16.7755 2.27425 16.7658C2.24637 16.7528 2.21538 16.769 2.20609 16.7982Z" fill="black"/>
<path fill-rule="evenodd" clip-rule="evenodd" d="M2.20298 16.86C2.20298 16.86 1.94271 16.7886 1.93341 16.6459C1.93341 16.6459 1.97059 16.5713 2.00158 16.62C2.08523 16.7529 2.10382 16.6978 2.27114 16.7659C2.27114 16.7627 2.30522 16.8762 2.20298 16.86Z" fill="#BCBEC0"/>
<path fill-rule="evenodd" clip-rule="evenodd" d="M3.13251 16.1105C3.13561 16.1494 3.16659 16.1786 3.20377 16.1753C3.24095 16.1721 3.26884 16.1397 3.26884 16.1007C3.26574 16.0618 3.23476 16.0326 3.19757 16.0359C3.16039 16.0391 3.13251 16.0716 3.13251 16.1105Z" fill="white"/>
<path fill-rule="evenodd" clip-rule="evenodd" d="M3.148 16.1104C3.1511 16.1396 3.17588 16.1655 3.20377 16.1623C3.23166 16.1623 3.25644 16.1363 3.25335 16.1039C3.25335 16.0747 3.22856 16.0488 3.19757 16.052C3.16969 16.052 3.1449 16.078 3.148 16.1104Z" fill="black"/>
<path fill-rule="evenodd" clip-rule="evenodd" d="M3.07675 15.8091C3.07675 15.8091 2.87535 15.861 3.04886 16.0458C3.1573 16.1626 3.19139 16.1366 3.20378 16.1139C3.21927 16.0847 3.23786 16.0718 3.15111 16.0166C3.04576 15.9518 3.03337 15.8188 3.07675 15.8091Z" fill="white"/>
<path fill-rule="evenodd" clip-rule="evenodd" d="M2.77001 16.422C2.76691 16.461 2.7948 16.4934 2.83198 16.4966C2.86916 16.4999 2.90015 16.4707 2.90324 16.4318C2.90634 16.3929 2.87846 16.3604 2.84127 16.3572C2.80409 16.3539 2.77311 16.3831 2.77001 16.422Z" fill="white"/>
<path fill-rule="evenodd" clip-rule="evenodd" d="M2.78551 16.4223C2.78241 16.4547 2.8072 16.4774 2.83509 16.4806C2.86607 16.4806 2.89086 16.4579 2.89086 16.4288C2.89396 16.3963 2.86917 16.3704 2.84128 16.3704C2.8103 16.3671 2.78551 16.3931 2.78551 16.4223Z" fill="black"/>
<path fill-rule="evenodd" clip-rule="evenodd" d="M2.74521 16.1011C2.74521 16.1011 2.54071 16.1432 2.69253 16.3475C2.78858 16.474 2.82577 16.4545 2.84126 16.4318C2.85985 16.4059 2.88154 16.3929 2.79788 16.3313C2.69873 16.2535 2.70183 16.1076 2.74521 16.1011Z" fill="white"/>
<path fill-rule="evenodd" clip-rule="evenodd" d="M2.39197 16.6715C2.38578 16.7104 2.41056 16.746 2.44465 16.7525C2.48183 16.759 2.51591 16.7331 2.52211 16.6974C2.52831 16.6585 2.50352 16.6228 2.46634 16.6163C2.43535 16.6098 2.39817 16.6325 2.39197 16.6715Z" fill="white"/>
<path fill-rule="evenodd" clip-rule="evenodd" d="M2.40747 16.6749C2.40127 16.7041 2.41986 16.7333 2.45085 16.7398C2.47873 16.7463 2.50662 16.7236 2.51281 16.6944C2.51901 16.6652 2.50042 16.636 2.46944 16.6295C2.43845 16.623 2.41366 16.6457 2.40747 16.6749Z" fill="black"/>
<path fill-rule="evenodd" clip-rule="evenodd" d="M2.41368 16.3701C2.41368 16.3701 2.19679 16.3701 2.32692 16.5874C2.40748 16.7236 2.44466 16.7106 2.46325 16.6879C2.48494 16.662 2.50663 16.6555 2.43227 16.5809C2.34241 16.4966 2.3703 16.3701 2.41368 16.3701Z" fill="white"/>
<path fill-rule="evenodd" clip-rule="evenodd" d="M1.9892 16.8728C1.97681 16.9085 1.9954 16.9507 2.02948 16.9637C2.06357 16.9766 2.10385 16.9572 2.11624 16.9215C2.12863 16.8858 2.11004 16.8437 2.07596 16.8307C2.03878 16.8177 2.0016 16.8372 1.9892 16.8728Z" fill="white"/>
<path fill-rule="evenodd" clip-rule="evenodd" d="M2.00159 16.8792C1.99229 16.9084 2.00469 16.9408 2.03257 16.9506C2.06046 16.9603 2.09144 16.9473 2.10074 16.9181C2.11003 16.889 2.09764 16.8565 2.06975 16.8468C2.04187 16.8338 2.01398 16.85 2.00159 16.8792Z" fill="black"/>
<path fill-rule="evenodd" clip-rule="evenodd" d="M2.08214 16.5839C2.08214 16.5839 1.84666 16.5417 1.93652 16.7817C1.99229 16.9309 2.03257 16.9244 2.05426 16.9049C2.07905 16.8855 2.10383 16.879 2.04187 16.7947C1.9675 16.6909 2.03877 16.5742 2.08214 16.5839Z" fill="white"/>
<path fill-rule="evenodd" clip-rule="evenodd" d="M3.08605 15.8513C3.08605 15.8513 3.69644 15.5659 3.49194 15.2611C3.28745 14.9595 3.08915 15.6405 3.07056 15.8156L3.11084 15.8059C3.11084 15.8059 3.20999 15.3616 3.34012 15.2968C3.47026 15.2319 3.47955 15.3584 3.45167 15.4168C3.42688 15.4686 3.35251 15.634 3.17281 15.7865C3.16041 15.7962 3.10774 15.7994 3.09534 15.8092C3.07985 15.8221 3.10464 15.8416 3.08605 15.8513Z" fill="#BCBEC0"/>
<path fill-rule="evenodd" clip-rule="evenodd" d="M3.14491 15.7572C3.14491 15.7572 3.25336 15.2999 3.03646 15.1443C2.81957 14.9854 2.68324 15.1378 2.88464 15.4945C3.08604 15.8545 3.08604 15.8545 3.08604 15.8545L3.12632 15.8091C3.12632 15.8091 2.9683 15.5594 2.91872 15.4167C2.86915 15.274 2.83197 15.1183 2.93422 15.1767C3.03646 15.2351 3.10463 15.2935 3.11083 15.5269C3.11393 15.6404 3.09224 15.7377 3.09533 15.7864C3.09843 15.8383 3.12632 15.8318 3.12632 15.8318L3.14491 15.7572Z" fill="#BCBEC0"/>
<path fill-rule="evenodd" clip-rule="evenodd" d="M3.05507 15.8315C3.05507 15.8315 2.9962 15.8704 2.82579 15.8996C2.65537 15.9288 2.51904 16.1169 2.52214 16.1299C2.52524 16.1461 2.47876 16.1558 2.47876 16.1558C2.47876 16.1558 2.44778 16.1299 2.47256 16.0553C2.50045 15.9807 2.55932 15.8413 2.8072 15.8348C3.05507 15.8283 3.12014 15.7861 3.12014 15.7861C3.12014 15.7861 3.1914 15.8315 3.05507 15.8315Z" fill="#D1D3D4"/>
<path fill-rule="evenodd" clip-rule="evenodd" d="M3.1387 15.7798C3.1387 15.7798 2.9342 15.9225 2.80717 15.9808C2.68323 16.0392 2.5376 16.2046 2.46324 16.2176C2.38888 16.2305 2.41366 16.2889 2.41366 16.2889C2.41366 16.2889 2.46014 16.3181 2.66464 16.1333C2.87223 15.9484 2.97138 15.9484 3.04265 15.8933C3.11391 15.8382 3.1449 15.8317 3.1387 15.7798Z" fill="#D1D3D4"/>
<path d="M5.94901 17.5118C5.92732 17.4664 5.89633 17.3334 5.88394 17.2783C5.72902 17.3399 5.02567 17.7096 3.93502 17.8134C3.52913 17.8523 2.87845 17.9691 2.41059 17.9918C1.94272 18.0145 1.31064 18.0015 1.02868 17.9723C0.749823 17.9399 0.452372 17.8685 0.269564 17.8037C0.219989 17.7875 0.13943 17.7388 0.136331 17.6059C0.130135 17.4859 0.0960517 17.3724 0.0309844 17.4956C-0.00929536 17.5702 -3.94648e-08 17.7712 0.0030984 17.8264C0.0123937 17.9139 0.27886 18.0436 0.594901 18.1669C0.976009 18.316 1.67936 18.4555 2.85986 18.3614C3.66546 18.2966 4.20768 18.2739 4.67555 18.2577C6.00788 18.2155 5.99548 17.9788 5.98309 17.7421C5.97999 17.6545 5.9614 17.5378 5.94901 17.5118Z" fill="#D3D5D6"/>
<path d="M5.63917 17.6739C5.63917 17.6739 4.81808 17.9366 4.45866 17.9593C3.89475 17.9917 4.25417 18.102 4.83667 18.1279C5.82198 18.1701 6.00479 17.635 5.63917 17.6739Z" fill="#ABADB0"/>
<path d="M2.10075 18.3193C2.10075 18.3193 1.10615 18.3809 0.430695 18.0469C0.430695 18.0469 0.824197 18.0955 1.09686 18.1279C2.09766 18.2512 2.2154 18.0144 2.10075 18.3193Z" fill="#ABADB0"/>
<path d="M15.4674 17.035C14.448 16.9215 14.1785 17.2879 11.3465 13.9089C9.90573 12.1901 9.43787 11.9437 9.43787 11.9437L11.771 8.17871C11.771 8.17871 13.6456 10.306 14.1103 10.6628C14.7083 11.12 14.6835 11.1168 15.5635 11.8983L18.5845 15.1833C18.5845 15.1866 16.9764 17.2036 15.4674 17.035Z" fill="#313A7F"/>
<path d="M27.5111 8.78495C27.4863 8.50282 27.3747 8.41851 27.4925 8.15259C27.6908 7.71156 28.0099 5.96689 27.9944 5.03943C27.9789 4.11197 28.0533 3.23315 28.0533 3.23315L27.353 3.21045C27.353 3.21045 27.1052 4.00171 26.7179 5.22427C26.3306 6.4436 26.2872 7.42943 26.3925 8.14286C26.4452 8.39581 27.4057 8.95034 27.5111 8.78495Z" fill="#D1A07A"/>
<path d="M26.9038 8.16235C26.8697 8.25639 27.4243 8.25639 27.4243 8.25639C27.4243 8.25639 27.9046 10.8669 27.6071 11.4798C27.6071 11.4798 27.9139 13.1175 27.728 13.7531C28.0347 15.6372 27.0556 16.2533 26.0362 16.0685C25.0788 15.8966 24.9363 14.6643 25.2492 13.5423C25.6241 12.203 25.6241 11.9306 25.6117 11.3371C25.5962 10.5361 26.2531 7.98399 26.3646 7.66943C26.8294 7.69862 26.5227 7.88022 26.9038 8.16235Z" fill="#D1A07A"/>
<g opacity="0.26">
<path d="M25.5962 12.936C25.7109 12.7155 25.81 12.4885 25.9123 12.268C25.9618 12.1545 26.0145 12.0442 26.0672 11.934C26.1199 11.8237 26.1756 11.7135 26.2345 11.6064C26.1477 11.694 26.0796 11.7978 26.0145 11.9048C25.9494 12.0118 25.8937 12.1221 25.841 12.2356C25.7883 12.3491 25.7418 12.4626 25.7016 12.5825C25.6644 12.6961 25.6241 12.8128 25.5962 12.936Z" fill="#D1A07A"/>
<path d="M26.0641 9.1614C26.1415 9.12573 26.2066 9.08033 26.2686 9.03493L26.3615 8.96683C26.3925 8.94413 26.4235 8.92143 26.4607 8.89873C26.4173 8.889 26.3739 8.89548 26.3336 8.90846C26.2934 8.92143 26.2562 8.94413 26.2221 8.96683C26.188 8.99277 26.157 9.01871 26.1292 9.05114C26.1044 9.08681 26.0796 9.12249 26.0641 9.1614Z" fill="#D1A07A"/>
</g>
<path d="M28.013 3.32407C28.013 3.32407 28.1958 3.02248 28.2733 1.72533L28.4592 0.233608C28.4716 0.120107 28.3972 0.0163352 28.2888 0.0033637C28.1803 -0.00960779 28.0812 0.0682212 28.0688 0.181722L28.0595 0.246579C28.0068 0.275765 27.9665 0.330894 27.9573 0.398994L27.7559 2.00097C27.7435 2.04637 27.7373 2.02043 27.7373 1.8291L27.7311 1.84856L27.7342 1.6475C27.7373 1.534 27.6505 1.43996 27.539 1.43671C27.4305 1.43347 27.3407 1.52427 27.3407 1.64102L27.3035 3.32082C27.2942 3.39865 27.2818 3.47648 27.257 3.54458C27.1795 3.76834 27.604 3.8786 27.604 3.8786L28.013 3.32407Z" fill="#D1A07A"/>
<path d="M17.9493 14.7616C18.9563 15.2512 20.1089 15.0177 21.1685 15.3777C22.2592 15.7506 23.387 15.9874 24.5025 16.2565C24.7318 16.3117 24.9703 16.3538 25.1903 16.4349C25.4196 16.5192 25.6365 16.6359 25.8658 16.7235C26.0672 16.8013 26.2748 16.8435 26.4824 16.8662C27.3592 16.717 28.1772 16.3506 29.1656 15.4945C29.6428 15.0826 28.8155 13.646 28.8155 13.646C28.8155 13.646 28.3817 13.5098 27.6598 13.1239C26.2097 12.3489 24.8929 12.4072 24.2856 13.0493C23.9757 13.3801 22.7704 13.3996 22.1941 13.4774C19.9199 13.779 18.1445 13.3412 16.555 13.2698C16.8679 13.9054 17.3141 14.4535 17.9493 14.7616Z" fill="#E4AE84"/>
<g opacity="0.26">
<path d="M22.002 14.6356C21.9525 14.5545 21.9122 14.4702 21.8843 14.3826C21.8564 14.2951 21.8409 14.2075 21.8409 14.1135C21.8409 14.0194 21.8533 13.9221 21.8719 13.8184C21.8006 13.8929 21.7511 13.9935 21.7294 14.1005C21.7077 14.2075 21.7139 14.3275 21.7511 14.4313C21.7851 14.5383 21.844 14.6323 21.9153 14.7101C21.9865 14.788 22.0733 14.8496 22.1693 14.8853C22.1043 14.7977 22.0485 14.7166 22.002 14.6356Z" fill="white"/>
<path d="M21.5899 14.9142C21.5373 14.8363 21.4877 14.7618 21.4474 14.6872C21.404 14.6126 21.3699 14.538 21.3452 14.4634C21.3204 14.3856 21.3049 14.3077 21.3049 14.2234C21.3018 14.1391 21.3111 14.0548 21.3266 13.9575C21.2584 14.0224 21.2119 14.1132 21.1902 14.2105C21.1685 14.3077 21.1747 14.4148 21.2057 14.5121C21.2367 14.6093 21.2894 14.6937 21.3576 14.7618C21.4226 14.8299 21.5001 14.885 21.5899 14.9142Z" fill="white"/>
<path d="M19.7309 13.3481C19.7154 13.2962 19.703 13.2443 19.6968 13.186C19.6906 13.1276 19.6937 13.066 19.6968 12.9946C19.641 13.0368 19.6038 13.1016 19.5821 13.173C19.5636 13.2443 19.5666 13.3254 19.5914 13.3967C19.6162 13.4681 19.6565 13.5297 19.7061 13.5816C19.7588 13.6302 19.8176 13.6659 19.8858 13.6821C19.8517 13.6173 19.8238 13.5621 19.7959 13.5102C19.7711 13.4519 19.7464 13.4 19.7309 13.3481Z" fill="white"/>
<path d="M25.4847 15.9779C25.5405 15.965 25.5931 15.9585 25.6489 15.952C25.7481 15.9423 25.8472 15.939 25.9464 15.9423C25.8813 15.8871 25.8131 15.8352 25.745 15.7898C25.7078 15.7898 25.6706 15.7898 25.6334 15.7931C25.5745 15.7963 25.5157 15.8028 25.4568 15.8125C25.3979 15.8223 25.3391 15.8385 25.2895 15.8482C25.1841 15.8677 25.0788 15.8644 24.9765 15.832C24.8743 15.7996 24.7782 15.7412 24.6884 15.6601C24.5118 15.5045 24.3754 15.2742 24.2794 15.0278C24.1802 14.7813 24.1183 14.5089 24.0935 14.2365C24.0687 13.9641 24.0811 13.6852 24.1555 13.4323C24.1926 13.3058 24.2453 13.1858 24.3135 13.082C24.3847 12.9783 24.4715 12.8907 24.5706 12.8291C24.4622 12.8745 24.363 12.9491 24.2825 13.0464C24.1988 13.1437 24.1369 13.2636 24.0873 13.3934C23.9912 13.656 23.9633 13.9511 23.9788 14.2398C23.9943 14.5316 24.0532 14.8202 24.1524 15.0926C24.2546 15.3618 24.4002 15.618 24.6047 15.8028C24.707 15.8936 24.8247 15.965 24.9456 16.0006C25.0695 16.0395 25.1965 16.0428 25.3174 16.0136C25.3824 16.0039 25.432 15.9877 25.4847 15.9779Z" fill="white"/>
<path d="M22.7611 15.2613C22.7426 15.3521 22.7209 15.4461 22.7271 15.5369C22.7549 15.4494 22.789 15.3683 22.8293 15.2872C22.8665 15.2061 22.9068 15.1251 22.9502 15.0472C23.0338 14.8883 23.1206 14.7327 23.2073 14.577C23.2972 14.4181 23.3777 14.2495 23.4335 14.0711C23.4614 13.9836 23.4831 13.8895 23.4955 13.7955C23.5017 13.7468 23.5048 13.7014 23.5017 13.6528C23.4986 13.6074 23.4924 13.5588 23.4738 13.5166C23.4769 13.562 23.4676 13.6074 23.4614 13.6528C23.4521 13.6982 23.4397 13.7404 23.4273 13.7825C23.3994 13.8668 23.3653 13.9479 23.3282 14.029C23.2538 14.1911 23.1701 14.3468 23.0834 14.5024C22.9935 14.6613 22.913 14.8267 22.8479 15.0018C22.8107 15.0797 22.7828 15.1705 22.7611 15.2613Z" fill="white"/>
<path d="M23.5791 15.0309C23.576 14.9336 23.5822 14.8331 23.5946 14.7261C23.5265 14.8104 23.4831 14.9142 23.4645 15.0244C23.4459 15.1347 23.4552 15.2514 23.4862 15.3584C23.5172 15.4654 23.5698 15.566 23.638 15.6503C23.7062 15.7346 23.7867 15.806 23.8828 15.8514C23.827 15.7606 23.7774 15.673 23.7341 15.5854C23.6907 15.4979 23.6535 15.4071 23.6287 15.3163C23.6008 15.2222 23.5853 15.1282 23.5791 15.0309Z" fill="white"/>
</g>
<path d="M29.4383 13.4905C29.4383 13.4905 28.6823 13.844 28.2206 13.4905C27.7589 13.1403 28.4375 15.7768 28.6699 15.7411C28.9023 15.7054 29.9743 15.4168 30.3616 15.5336C30.3647 15.5336 29.5529 14.4731 29.4383 13.4905Z" fill="#E4AE84"/>
<path d="M31.5824 16.8243C30.3492 16.62 29.5932 16.7172 29.4971 14.9466C29.4631 14.311 29.398 13.4452 29.4042 13.1047C29.4166 12.5307 30.0951 12.4172 31.5266 12.388C32.673 12.3621 33.9341 12.975 33.9341 12.975C34.4175 13.51 34.1975 14.7294 34.089 15.4525C33.8814 16.7886 33.048 17.0675 31.5824 16.8243Z" fill="#E4AE84"/>
<path d="M32.7753 12.6183C32.7753 12.6183 31.4616 12.2324 31.3562 12.1643C31.2509 12.0962 31.065 12.0151 31.0123 12.3783C30.9596 12.7545 31.0929 12.8647 31.0929 12.8647L32.7753 12.6183Z" fill="#E4AE84"/>
<path d="M31.5143 14.7972C31.5143 14.7972 30.1633 14.4956 30.1107 13.6524C30.1045 13.5714 29.9402 13.5 29.8876 13.4319C29.491 12.8936 29.9898 12.5888 29.9898 12.5888L29.9929 12.5239C29.8473 12.5434 29.8039 12.5693 29.7296 12.5985C29.5405 12.6699 29.4352 12.7088 29.4259 12.8515C29.2803 14.421 29.7698 14.9204 29.9402 15.0307C30.2284 15.2123 32.0534 14.9885 31.5143 14.7972Z" fill="white"/>
<path d="M30.7582 13.3217C30.7861 13.0137 30.9163 12.4461 30.7149 12.378C30.6157 12.3489 30.4856 12.4072 30.4763 12.4397C30.4577 12.537 30.4639 12.9099 30.467 13.0364C30.4763 13.2439 30.2594 13.3704 29.9774 13.325C29.6986 13.2796 29.7605 13.3704 29.7203 13.1758C29.68 12.9812 29.5715 13.2244 29.5715 13.2244L29.776 13.5779C29.7791 13.5812 30.7118 13.7984 30.7582 13.3217Z" fill="white"/>
<path d="M30.1602 14.4961C30.1602 14.4961 30.2439 14.5837 30.3616 14.6615C30.3926 14.6777 30.4143 14.6874 30.4143 14.6874C30.2408 14.5674 30.1602 14.4961 30.1602 14.4961Z" fill="white"/>
<path d="M32.7319 15.819C32.8962 15.832 33.0542 15.8157 33.1967 15.7898C33.3826 15.7574 33.6894 15.5206 33.9032 15.4071C33.931 15.3974 33.9558 15.3844 33.9837 15.3682C34.0178 15.3553 34.0519 15.3326 34.0798 15.3099C34.213 15.2158 34.3338 15.0764 34.433 14.8526C34.4423 14.8332 34.4516 14.8137 34.4578 14.7975C34.4764 14.7715 34.495 14.7456 34.5135 14.7197C34.5941 14.6159 34.6437 14.4959 34.6871 14.3597C34.8079 14.1489 34.9194 13.9706 34.9938 13.7922C35.0062 13.6463 34.9938 13.5036 34.9411 13.3641C34.8947 13.2409 34.8234 13.1339 34.7397 13.0366C34.6499 12.9296 34.5569 12.8226 34.4299 12.761C34.3091 12.7026 34.1758 12.6702 34.0457 12.6507C33.8939 12.628 33.7513 12.6604 33.5995 12.6604C33.4725 12.6604 33.3578 12.6021 33.2308 12.6507C33.1998 12.6637 33.1595 12.6799 33.1254 12.6993C33.1007 12.7383 33.0728 12.7869 33.0418 12.842C32.924 13.0658 32.9767 13.1566 33.0511 13.335C33.0604 13.3998 33.0728 13.4679 33.0976 13.536C33.1316 13.643 33.1595 13.7565 33.1781 13.8635C33.1533 15.2515 31.1827 14.6678 30.9441 14.5867C30.7056 14.5056 30.405 14.5381 30.7087 14.6645C30.7273 14.671 30.6436 14.7294 30.7923 14.7715C30.7954 14.7715 30.7985 14.7715 30.7923 14.7715C30.6498 14.8137 30.4887 14.7359 30.3616 14.6516C30.2842 14.6126 30.1509 14.5445 30.1509 14.5445C30.1509 14.5445 30.4701 14.8396 30.7954 15.0569C31.0526 15.2288 31.9047 15.5823 32.261 15.6958C32.481 15.8093 32.6018 15.8417 32.7319 15.819Z" fill="white"/>
<path d="M34.9969 13.7954C34.9969 13.7954 35.0279 14.2267 34.907 14.6386C34.7831 15.0504 34.9101 15.0763 34.8668 15.3552C34.8234 15.6341 34.6406 16.0849 34.4733 16.3443C33.866 17.288 33.3888 17.1972 33.1502 17.3042C32.9116 17.4112 32.4128 17.5831 32.1711 17.4566C31.9294 17.3301 31.8613 17.2361 31.4957 17.2588C31.13 17.2815 31.2323 17.1939 30.9782 17.0253C30.721 16.8567 30.7179 16.9507 30.498 16.8178C30.2749 16.6848 30.2408 16.7724 30.1292 16.5875C30.0208 16.4027 29.9805 16.4708 29.8814 16.3573C29.7791 16.247 29.7326 16.2859 29.6893 16.1141C29.6459 15.9389 29.3174 15.2547 29.7419 14.911C30.2625 14.4926 30.4391 14.7715 30.5011 14.7358C30.563 14.7002 31.4554 15.0374 31.4554 15.0374C31.4554 15.0374 32.0565 15.3163 32.1277 15.3066C32.199 15.2969 32.6266 15.4006 32.8373 15.3325C33.048 15.2612 34.12 14.4505 34.1572 14.4083C34.1913 14.3726 34.9969 13.7954 34.9969 13.7954Z" fill="white"/>
<path d="M28.3383 16.4737C28.5738 16.2921 28.7009 15.1182 28.642 14.836C28.6513 14.8263 28.5986 14.6285 28.5707 14.5539C28.4065 13.9378 27.0742 12.8482 26.7953 12.7574C25.7016 12.4006 24.6512 12.0277 23.4397 12.592C22.5876 12.9876 19.0027 12.6049 18.2591 12.7541C18.1135 13.5875 17.7726 13.8405 17.8873 14.3204C17.9245 15.1246 19.2692 16.9763 19.2692 16.9763C19.6751 16.8174 26.346 18.0303 28.3383 16.4737ZM24.645 15.1344C24.5427 13.847 27.3747 13.2243 28.1338 14.9074C28.1927 14.9917 28.2733 14.8782 28.2299 15.0079C28.0192 16.0554 25.3421 17.359 24.645 15.1344Z" fill="#E50914"/>
<path d="M29.0231 15.6729C29.0231 15.6729 28.2268 16.1236 28.0595 16.2922C27.8953 16.4609 26.1013 17.0478 26.1013 17.0478L28.2764 16.5938C28.2764 16.5906 28.5397 16.4544 29.0231 15.6729Z" fill="#E6E7E8"/>
<path d="M27.0029 8.95683C26.9781 8.6747 26.8666 8.59038 26.9843 8.32446C27.1826 7.88343 27.5018 6.13877 27.4863 5.21131C27.4708 4.28384 27.5452 3.40502 27.5452 3.40502L26.8449 3.38232C26.8449 3.38232 26.597 4.17359 26.2097 5.39615C25.8224 6.61871 25.779 7.6013 25.8844 8.31474C25.9371 8.56768 26.8976 9.12221 27.0029 8.95683Z" fill="#E4AE84"/>
<path d="M26.3956 8.33112C26.3615 8.42516 26.9162 8.42516 26.9162 8.42516C26.9162 8.42516 27.3964 11.0357 27.099 11.6486C27.099 11.6486 27.4057 13.2862 27.2198 13.9218C27.5265 15.8059 26.5474 16.4221 25.5281 16.2372C24.5706 16.0654 24.4281 14.8331 24.741 13.711C25.116 12.3717 25.116 12.0993 25.1036 11.5059C25.0881 10.7017 25.748 8.15276 25.8565 7.83496C26.3213 7.87063 26.0145 8.05223 26.3956 8.33112Z" fill="#E4AE84"/>
<g opacity="0.26">
<path d="M25.0912 13.1082C25.2058 12.8877 25.305 12.6607 25.4072 12.4369C25.4568 12.3267 25.5095 12.2132 25.5621 12.1029C25.6148 11.9927 25.6706 11.8824 25.7295 11.7754C25.6427 11.8629 25.5745 11.9667 25.5095 12.0737C25.4444 12.1807 25.3886 12.291 25.336 12.4045C25.2833 12.518 25.2368 12.6315 25.1965 12.7483C25.1563 12.8682 25.1191 12.985 25.0912 13.1082Z" fill="white"/>
<path d="M25.5559 9.33328C25.6334 9.2976 25.6985 9.2522 25.7604 9.2068L25.8534 9.1387C25.8844 9.116 25.9154 9.0933 25.9525 9.0706C25.9092 9.06087 25.8658 9.06736 25.8255 9.08033C25.7852 9.0933 25.748 9.116 25.714 9.1387C25.6799 9.1614 25.6489 9.19059 25.621 9.22302C25.5993 9.25869 25.5745 9.29436 25.5559 9.33328Z" fill="white"/>
</g>
<path d="M27.5049 3.49594C27.5049 3.49594 27.6877 3.19435 27.7651 1.8972L27.951 0.405483C27.9665 0.291982 27.8891 0.18821 27.7806 0.175239C27.6722 0.162267 27.573 0.240096 27.5606 0.353597L27.5513 0.418454C27.4987 0.44764 27.4584 0.506012 27.4491 0.570869L27.2508 2.17285C27.2384 2.21825 27.2322 2.19231 27.2322 2.00098L27.2229 2.01719L27.226 1.81613C27.2291 1.70263 27.1424 1.60859 27.0339 1.60535C26.9255 1.6021 26.8356 1.6929 26.8325 1.8064L26.7953 3.48946C26.786 3.56729 26.7736 3.64511 26.7489 3.71321C26.6714 3.93697 27.0959 4.04723 27.0959 4.04723L27.5049 3.49594Z" fill="#E4AE84"/>
<path d="M18.3955 12.5984C17.6054 12.7606 15.7153 12.5368 14.1475 12.5401L14.4047 17.1352C16.7068 18.4291 18.9129 17.2876 18.9129 17.2876L18.3955 12.5984Z" fill="#E50914"/>
<path d="M19.0213 12.6375C19.0213 12.6375 18.8354 14.2687 19.6007 17.0868L18.9129 17.2878C18.9129 17.2878 18.0267 13.7239 18.3954 12.5986L19.0213 12.6375Z" fill="#333D83"/>
<path d="M9.63926 9.99487C9.50603 9.68031 11.1978 8.78852 11.6068 9.22306C12.3504 10.1797 16.8338 14.577 15.9415 15.9909C14.448 18.4199 13.7323 15.8839 14.0112 16.1758C15.3683 17.6189 10.6153 12.6378 10.1474 11.7233C9.88713 11.2142 9.80657 10.5494 9.63926 9.99487Z" fill="#E4AE84"/>
<path d="M11.7586 8.88892C11.7586 8.88892 10.8817 7.70203 10.2528 7.35828C9.62378 7.01129 9.49054 7.19614 9.10634 7.30964C8.60749 7.45557 8.07455 8.61003 8.07455 8.61003C8.07455 8.61003 10.1381 8.35384 10.1753 8.36357C10.2094 8.3733 11.7586 8.88892 11.7586 8.88892Z" fill="#E4AE84"/>
<path d="M10.2032 9.17083C10.1102 9.34595 9.18071 11.0874 9.13733 11.363C9.00719 12.2289 8.13963 13.8211 7.11095 14.6675C6.24958 15.3777 5.03499 16.7981 5.03499 16.7981L3.72125 16.4868C3.72125 16.4868 4.80261 14.5994 6.04199 12.4461C6.94673 10.8766 7.46107 9.55025 7.91035 8.85303C8.16442 8.66494 10.2218 8.92438 10.2032 9.17083Z" fill="#E4AE84"/>
<path d="M8.31004 8.29233C8.14893 7.99074 9.75082 6.93356 10.197 7.32595C11.0243 8.20153 15.895 12.1222 15.139 13.6236C15.139 13.6236 14.321 16.7043 12.3008 14.9402C10.8136 13.6431 9.52463 10.8283 8.97621 9.96241C8.66946 9.48246 8.52694 8.8274 8.31004 8.29233Z" fill="#E4AE84"/>
<path d="M3.71506 16.3992L4.31616 15.4458C4.31616 15.4458 4.79641 16.3538 5.34484 16.4738L4.96993 16.9537C4.97303 16.9537 4.57642 17.3688 3.71506 16.3992Z" fill="white"/>
<path d="M11.3217 8.65565C11.3217 8.65565 10.6555 8.05896 10.0266 7.71522C9.39758 7.36823 9.26435 7.55307 8.88014 7.66657C8.38129 7.8125 7.84836 8.96696 7.84836 8.96696C7.84836 8.96696 9.91192 8.71078 9.9491 8.72051C9.98628 8.73023 11.3217 8.65565 11.3217 8.65565Z" fill="#E4AE84"/>
<path d="M6.14422 18.29C6.15352 18.5203 6.12873 18.744 4.83668 18.7862C4.36882 18.7992 3.82039 18.7667 3.02719 18.8673C1.85288 19.0132 1.14024 18.8478 0.756034 18.6954C0.439993 18.5722 0.173527 18.4425 0.164231 18.3549C0.164231 18.3419 0.164231 18.329 0.161133 18.316C0.161133 18.3614 0.164231 18.4035 0.16733 18.4327C0.176625 18.5203 0.443091 18.65 0.759132 18.7732C1.14024 18.9224 1.83119 19.0651 3.0117 18.9678C3.82039 18.9029 4.37192 18.877 4.83978 18.864C6.17211 18.8219 6.15972 18.5851 6.14732 18.3484C6.14732 18.3322 6.14422 18.3127 6.14422 18.29Z" fill="#717375"/>
<path d="M5.87776 15.9936C5.83128 15.9742 5.77861 16.0293 5.73833 16.1298C5.67326 16.3049 5.69805 16.4671 5.69805 16.4736H5.70425C5.68876 16.5319 5.67946 16.5936 5.68566 16.6649L5.75072 16.6584C5.73833 16.5287 5.78171 16.4379 5.83128 16.3341C5.85607 16.2822 5.88086 16.2303 5.89945 16.172C5.94593 16.0325 5.89945 16.0001 5.87776 15.9936ZM5.83748 16.1525C5.81889 16.2077 5.7972 16.2563 5.77551 16.3049C5.77241 16.3114 5.76622 16.3212 5.76312 16.3309C5.76622 16.279 5.77861 16.2174 5.8003 16.1558C5.82199 16.1006 5.84058 16.0747 5.85297 16.065C5.85607 16.0779 5.85297 16.1071 5.83748 16.1525Z" fill="white"/>
<path fill-rule="evenodd" clip-rule="evenodd" d="M4.94824 18.2865C4.67557 18.3027 4.45558 18.3773 4.05588 18.4551C3.65619 18.533 3.05509 18.6432 2.58722 18.6659C2.11936 18.6886 1.4501 18.6303 1.16814 18.5978C0.694076 18.5459 0.223112 18.3514 0.213817 18.3416L0.176636 18.2022C0.176636 18.2022 0.216915 18.0887 0.309869 18.0173C0.40592 17.946 0.619713 17.8844 1.19912 17.6704C1.93965 17.398 2.18133 17.2747 2.54694 16.9634C2.91256 16.6521 3.36803 16.3635 3.49817 16.3992C3.6283 16.4348 3.85449 16.5872 4.30376 16.7234C5.18991 16.9926 4.72515 17.0121 5.35413 16.7429C5.63919 16.6197 5.63609 16.2532 5.66398 16.3311C5.66398 16.3311 5.65468 16.6262 5.8158 16.8369C6.0141 17.0996 6.08536 17.5374 6.04818 18.0076C5.77242 18.1925 5.2116 18.2703 4.94824 18.2865Z" fill="#E50914"/>
<path fill-rule="evenodd" clip-rule="evenodd" d="M4.07447 16.0523C3.98151 15.9258 3.99081 15.7864 3.85448 15.6859C3.78321 15.6307 3.6097 15.7118 3.39281 16.1139C3.2038 16.4609 2.8165 16.7398 2.8165 16.7398L2.83819 16.7366C2.32385 17.1549 1.87457 17.343 1.87457 17.343L1.92105 17.4467C2.48187 17.1419 2.98381 16.8306 3.33394 16.6068C3.48886 16.5452 3.73054 16.6295 3.82349 16.5744C4.11475 16.3993 4.13644 16.1334 4.07447 16.0523Z" fill="white"/>
<path fill-rule="evenodd" clip-rule="evenodd" d="M0.269567 18.2607C0.294354 18.3775 0.378012 18.4067 0.427587 18.4229C0.449276 18.4294 0.474064 18.4391 0.498851 18.4456H0.50195C0.526737 18.4521 0.554623 18.4618 0.579411 18.4683C0.607297 18.4748 0.635183 18.4845 0.666167 18.491H0.669266C0.697152 18.4975 0.728136 18.5072 0.756022 18.5137C0.75912 18.5137 0.75912 18.5137 0.762219 18.5137C0.793203 18.5202 0.824188 18.5299 0.855172 18.5364C0.886156 18.5429 0.920239 18.5494 0.954322 18.5558C0.957421 18.5558 0.957421 18.5558 0.960519 18.5558C0.991504 18.5623 1.02249 18.5656 1.05347 18.5721C1.05657 18.5721 1.05967 18.5721 1.06277 18.5753C1.09685 18.5785 1.13093 18.585 1.16502 18.5883C1.44697 18.6207 2.11314 18.6791 2.5841 18.6564C3.05197 18.6337 3.65307 18.5299 4.05276 18.4456C4.36881 18.3807 5.79099 18.238 6.07295 18.0564C6.07605 18.0175 6.04816 17.8748 6.04816 17.8359C6.01408 17.8651 5.85296 18.0013 5.79099 18.037C5.382 18.264 4.08375 18.3483 3.63757 18.4423C3.1914 18.5364 2.20919 18.6985 0.923338 18.3807C0.923338 18.3807 0.350126 18.1959 0.749825 17.9721C1.09685 17.7776 1.92104 17.4371 1.92104 17.4371L1.91174 17.3203C0.728136 17.8975 0.647576 17.6511 0.359421 17.8619C0.312945 17.8943 0.179712 18.0305 0.185909 18.1472C0.207598 18.157 0.254074 18.1894 0.269567 18.2607Z" fill="#E50914"/>
<path d="M6.05748 17.8813C6.08227 17.4435 6.00481 17.0901 5.8158 16.8404C5.80651 16.8274 5.79721 16.8144 5.79102 16.8047C5.72905 16.8177 5.70116 16.8695 5.78482 17.0122C5.93354 17.2587 5.99241 17.7386 6.00481 17.9105C6.0203 17.8975 6.03889 17.8878 6.05748 17.8813Z" fill="#E50914"/>
<path fill-rule="evenodd" clip-rule="evenodd" d="M1.85598 17.7257C1.85598 17.7257 2.11934 17.3657 1.72274 17.4695C1.57712 17.5084 0.378018 17.9656 0.480267 18.1667C0.545334 18.2964 0.511251 18.3094 0.774619 18.4261C1.03799 18.5429 2.26497 18.6272 2.04188 18.5688C1.55543 18.4456 1.63599 18.238 1.93344 17.9624C2.23399 17.6835 2.36102 17.6089 2.36102 17.6089L1.85598 17.7257Z" fill="#E50914"/>
<path d="M2.22159 17.6414C2.22159 17.6414 3.51054 18.5916 2.47566 18.5948C2.47566 18.5948 3.22238 18.6337 3.37421 18.4943C3.52913 18.3548 3.32463 17.8684 2.66776 17.3755L2.22159 17.6414Z" fill="#E50914"/>
<path d="M2.78241 17.2488C2.78241 17.2488 4.12713 18.3352 3.37731 18.5103C3.37731 18.5103 3.95362 18.52 4.08685 18.3579C4.35332 18.0271 3.88546 17.4758 3.22859 16.9829L2.78241 17.2488Z" fill="#E50914"/>
<path d="M3.35254 16.9083C3.35254 16.9083 4.95443 18.1925 4.12405 18.4098C4.12405 18.4098 4.84289 18.426 4.97612 18.2639C5.14344 18.0563 4.27278 17.2845 5.12175 16.8856C5.29216 16.8078 3.95054 16.7884 3.70266 16.6035L3.35254 16.9083Z" fill="#E50914"/>
<path fill-rule="evenodd" clip-rule="evenodd" d="M5.89326 16.9604C5.87157 16.9182 5.84679 16.8793 5.8158 16.8404C5.80961 16.8306 5.80341 16.8242 5.79721 16.8144C5.70116 16.5712 5.71046 16.3507 5.71046 16.3507C5.70736 15.8513 5.48737 16.1302 5.46878 16.208C5.4316 16.3766 5.43779 16.7561 4.74374 16.7431C4.16743 16.7334 3.77083 16.4966 3.68098 16.4415C3.48577 16.3215 3.40212 16.3248 3.37733 16.3312C3.05199 16.5064 3.01171 16.6296 2.73595 16.8793C2.11316 17.3527 1.75994 17.4987 1.62671 17.57C1.62671 17.57 1.82191 17.823 2.13176 17.7224C2.14105 17.7192 2.15344 17.716 2.16274 17.7127C2.17513 17.7095 2.18443 17.703 2.19682 17.6997C2.19992 17.6997 2.19992 17.6965 2.20302 17.6965C2.21231 17.6933 2.22161 17.6868 2.23091 17.6835C2.2433 17.677 2.25569 17.6706 2.26809 17.6641C2.67708 17.4241 3.33395 16.9409 3.49507 16.8404C3.65619 16.7398 3.99392 16.7852 4.2387 16.8598C4.94824 17.0706 5.04429 16.8566 5.48737 16.9928C5.64229 17.0382 5.84369 17.236 5.99551 17.6414C5.99861 17.6479 5.97073 17.2749 5.97692 17.2749C5.98002 17.2749 5.80341 17.0187 5.80651 17.0187C5.8127 17.0187 5.8158 17.0187 5.822 17.0187C5.822 17.0187 5.822 17.0187 5.8251 17.0187C5.83129 17.0187 5.83749 17.0155 5.84369 17.0122H5.84679C5.85298 17.009 5.85918 17.0058 5.86228 16.9993C5.87467 16.9831 5.88397 16.9733 5.89326 16.9604Z" fill="#E50914"/>
<path fill-rule="evenodd" clip-rule="evenodd" d="M3.45166 16.5223C3.45476 16.5613 3.48574 16.5904 3.52292 16.5904C3.56011 16.5872 3.58799 16.5548 3.58489 16.5159C3.5818 16.4769 3.55081 16.4478 3.51363 16.4478C3.47955 16.451 3.44856 16.4834 3.45166 16.5223Z" fill="white"/>
<path fill-rule="evenodd" clip-rule="evenodd" d="M3.46715 16.5225C3.46715 16.5517 3.49504 16.5776 3.52292 16.5744C3.55081 16.5712 3.5756 16.5485 3.5725 16.516C3.5725 16.4868 3.54461 16.4609 3.51673 16.4641C3.48574 16.4674 3.46405 16.4933 3.46715 16.5225Z" fill="black"/>
<path fill-rule="evenodd" clip-rule="evenodd" d="M3.48577 16.5811C3.48577 16.5811 3.17592 16.607 3.11395 16.4773C3.11395 16.4773 3.12325 16.393 3.16663 16.4254C3.29366 16.5162 3.33394 16.4708 3.51365 16.4643C3.51675 16.4643 3.58801 16.5551 3.48577 16.5811Z" fill="#BCBEC0"/>
<path fill-rule="evenodd" clip-rule="evenodd" d="M3.10464 16.8532C3.10154 16.8921 3.12942 16.9245 3.1666 16.9278C3.20379 16.931 3.23477 16.8986 3.23787 16.8629C3.24097 16.824 3.21308 16.7916 3.1759 16.7883C3.13872 16.7851 3.10773 16.8143 3.10464 16.8532Z" fill="white"/>
<path fill-rule="evenodd" clip-rule="evenodd" d="M3.11702 16.8532C3.11392 16.8823 3.13871 16.9083 3.1666 16.9115C3.19448 16.9148 3.21927 16.8888 3.22237 16.8596C3.22547 16.8305 3.20068 16.8013 3.17279 16.8013C3.14491 16.8013 3.12012 16.824 3.11702 16.8532Z" fill="black"/>
<path fill-rule="evenodd" clip-rule="evenodd" d="M3.13252 16.915C3.13252 16.915 2.82268 16.9052 2.7731 16.769C2.7731 16.769 2.78859 16.688 2.83197 16.7269C2.94661 16.8306 2.99309 16.7917 3.1728 16.8047C3.1728 16.8015 3.23477 16.8987 3.13252 16.915Z" fill="#BCBEC0"/>
<path fill-rule="evenodd" clip-rule="evenodd" d="M2.74213 17.1258C2.73593 17.1647 2.76072 17.2004 2.7979 17.2068C2.83508 17.2133 2.86917 17.1874 2.87536 17.1485C2.88156 17.1096 2.85677 17.0739 2.82269 17.0674C2.78241 17.0609 2.74833 17.0869 2.74213 17.1258Z" fill="white"/>
<path fill-rule="evenodd" clip-rule="evenodd" d="M2.75451 17.129C2.74832 17.1582 2.76691 17.1874 2.79789 17.1939C2.82578 17.2004 2.85366 17.1809 2.85986 17.1485C2.86606 17.1193 2.84437 17.0901 2.81648 17.0836C2.7886 17.0771 2.76071 17.0998 2.75451 17.129Z" fill="black"/>
<path fill-rule="evenodd" clip-rule="evenodd" d="M2.76383 17.1906C2.76383 17.1906 2.46638 17.1452 2.43539 17.0057C2.43539 17.0057 2.46018 16.9279 2.49736 16.97C2.59961 17.0868 2.63989 17.0511 2.8165 17.0835C2.8165 17.0835 2.86608 17.1873 2.76383 17.1906Z" fill="#BCBEC0"/>
<path fill-rule="evenodd" clip-rule="evenodd" d="M2.35484 17.3626C2.34244 17.3983 2.36103 17.4404 2.39511 17.4534C2.4292 17.4664 2.46638 17.4469 2.47877 17.4112C2.49117 17.3756 2.47258 17.3334 2.43849 17.3204C2.40441 17.3075 2.36723 17.3269 2.35484 17.3626Z" fill="white"/>
<path fill-rule="evenodd" clip-rule="evenodd" d="M2.36722 17.369C2.35792 17.3982 2.37032 17.4306 2.3982 17.4403C2.42609 17.4501 2.45707 17.4371 2.46637 17.4079C2.47566 17.3787 2.46327 17.3463 2.43538 17.3366C2.4075 17.3236 2.37651 17.3398 2.36722 17.369Z" fill="black"/>
<path fill-rule="evenodd" clip-rule="evenodd" d="M2.36411 17.4307C2.36411 17.4307 2.10384 17.3594 2.09454 17.2134C2.09454 17.2134 2.13172 17.1421 2.16271 17.1875C2.24637 17.3204 2.26496 17.2653 2.43227 17.3334C2.43537 17.3334 2.46636 17.4469 2.36411 17.4307Z" fill="#BCBEC0"/>
<path fill-rule="evenodd" clip-rule="evenodd" d="M3.29674 16.6813C3.29984 16.7203 3.33083 16.7494 3.36801 16.7462C3.40519 16.743 3.43307 16.7105 3.43307 16.6716C3.42998 16.6327 3.39899 16.6035 3.36181 16.6035C3.32153 16.61 3.29365 16.6424 3.29674 16.6813Z" fill="white"/>
<path fill-rule="evenodd" clip-rule="evenodd" d="M3.30914 16.6812C3.30914 16.7136 3.33703 16.7363 3.36491 16.7331C3.3959 16.7331 3.41759 16.7071 3.41449 16.6747C3.41449 16.6455 3.3866 16.6196 3.35872 16.6228C3.33083 16.6228 3.30914 16.6488 3.30914 16.6812Z" fill="black"/>
<path fill-rule="evenodd" clip-rule="evenodd" d="M3.23788 16.3799C3.23788 16.3799 3.03648 16.4318 3.20999 16.6166C3.31844 16.7301 3.35252 16.7074 3.36491 16.6847C3.38041 16.6555 3.399 16.6426 3.31224 16.5874C3.20689 16.5226 3.1976 16.3896 3.23788 16.3799Z" fill="white"/>
<path fill-rule="evenodd" clip-rule="evenodd" d="M2.93423 16.9928C2.93113 17.0318 2.95901 17.0642 2.99619 17.0674C3.03338 17.0707 3.06436 17.0415 3.06746 17.0026C3.07056 16.9637 3.04267 16.9312 3.00549 16.928C2.96521 16.9247 2.93423 16.9539 2.93423 16.9928Z" fill="white"/>
<path fill-rule="evenodd" clip-rule="evenodd" d="M2.94662 16.9931C2.94662 17.0223 2.96831 17.0482 2.9962 17.0515C3.02718 17.0547 3.05197 17.0287 3.05197 16.9996C3.05197 16.9704 3.03028 16.9444 3.0024 16.9412C2.97451 16.9379 2.94972 16.9639 2.94662 16.9931Z" fill="black"/>
<path fill-rule="evenodd" clip-rule="evenodd" d="M2.90634 16.6714C2.90634 16.6714 2.70184 16.7135 2.85367 16.9178C2.94972 17.0443 2.9869 17.0249 3.00239 17.0022C3.02098 16.9762 3.04267 16.9632 2.95901 16.9016C2.86296 16.8238 2.86296 16.6779 2.90634 16.6714Z" fill="white"/>
<path fill-rule="evenodd" clip-rule="evenodd" d="M2.55622 17.2422C2.55002 17.2812 2.57481 17.3168 2.60889 17.3233C2.64607 17.3298 2.68016 17.3039 2.68635 17.2649C2.69255 17.2293 2.67086 17.1936 2.63368 17.1871C2.5965 17.1774 2.56242 17.2033 2.55622 17.2422Z" fill="white"/>
<path fill-rule="evenodd" clip-rule="evenodd" d="M2.5686 17.2452C2.5624 17.2744 2.58409 17.3036 2.61198 17.3101C2.63986 17.3166 2.66775 17.2971 2.67395 17.2647C2.68014 17.2355 2.66155 17.2063 2.63057 17.1998C2.60268 17.1934 2.5748 17.2161 2.5686 17.2452Z" fill="black"/>
<path fill-rule="evenodd" clip-rule="evenodd" d="M2.57481 16.9409C2.57481 16.9409 2.35792 16.9409 2.48805 17.1582C2.56861 17.2976 2.60579 17.2814 2.62439 17.2587C2.64607 17.2328 2.66776 17.2263 2.5934 17.1517C2.50355 17.0674 2.53143 16.9409 2.57481 16.9409Z" fill="white"/>
<path fill-rule="evenodd" clip-rule="evenodd" d="M2.15034 17.4437C2.13794 17.4793 2.15653 17.5215 2.19062 17.5345C2.2247 17.5474 2.26498 17.528 2.27737 17.4923C2.28977 17.4566 2.27118 17.4145 2.23709 17.4015C2.20301 17.3885 2.16273 17.408 2.15034 17.4437Z" fill="white"/>
<path fill-rule="evenodd" clip-rule="evenodd" d="M2.16582 17.45C2.15342 17.4792 2.16892 17.5084 2.1968 17.5214C2.22469 17.5311 2.25567 17.5181 2.26497 17.489C2.27426 17.4598 2.26187 17.4273 2.23398 17.4176C2.2061 17.4046 2.17511 17.4209 2.16582 17.45Z" fill="black"/>
<path fill-rule="evenodd" clip-rule="evenodd" d="M2.24638 17.1518C2.24638 17.1518 2.0078 17.1096 2.10075 17.3496C2.15652 17.4988 2.1968 17.4923 2.21849 17.4728C2.24328 17.4534 2.26807 17.4469 2.2061 17.3626C2.13174 17.262 2.1999 17.1453 2.24638 17.1518Z" fill="white"/>
<path fill-rule="evenodd" clip-rule="evenodd" d="M3.24718 16.4221C3.24718 16.4221 3.85757 16.1367 3.65308 15.8319C3.44858 15.5303 3.25028 16.2113 3.23169 16.3864L3.27197 16.3767C3.27197 16.3767 3.37112 15.9324 3.50435 15.8676C3.63449 15.8027 3.64378 15.9292 3.6159 15.9876C3.59111 16.0394 3.51675 16.2048 3.33704 16.354C3.32464 16.3637 3.27197 16.367 3.25958 16.3767C3.24098 16.3929 3.26577 16.4091 3.24718 16.4221Z" fill="#BCBEC0"/>
<path fill-rule="evenodd" clip-rule="evenodd" d="M3.30916 16.3279C3.30916 16.3279 3.4176 15.8706 3.20071 15.7117C2.98382 15.5561 2.84749 15.7052 3.04889 16.062C3.25028 16.4219 3.25028 16.4219 3.25028 16.4219L3.29056 16.3765C3.29056 16.3765 3.13254 16.1268 3.08297 15.9841C3.03339 15.8414 2.99621 15.6858 3.09846 15.7442C3.20071 15.8025 3.26888 15.8609 3.27817 16.0944C3.28127 16.2046 3.25958 16.3052 3.26268 16.3538C3.26578 16.4057 3.29676 16.3992 3.29676 16.3992L3.30916 16.3279Z" fill="#BCBEC0"/>
<path fill-rule="evenodd" clip-rule="evenodd" d="M3.2162 16.4023C3.2162 16.4023 3.15733 16.4412 2.98692 16.4704C2.8165 16.4996 2.68017 16.6877 2.68327 16.7007C2.68637 16.7169 2.63989 16.7266 2.63989 16.7266C2.63989 16.7266 2.60891 16.7007 2.6337 16.6261C2.66158 16.5515 2.72045 16.4121 2.96833 16.4056C3.2162 16.3991 3.28127 16.3569 3.28127 16.3569C3.28127 16.3569 3.35253 16.4023 3.2162 16.4023Z" fill="#D1D3D4"/>
<path fill-rule="evenodd" clip-rule="evenodd" d="M3.30295 16.3506C3.30295 16.3506 3.09845 16.4933 2.97141 16.5516C2.84747 16.61 2.70185 16.7754 2.62749 16.7884C2.55312 16.8013 2.57791 16.8597 2.57791 16.8597C2.57791 16.8597 2.62439 16.8889 2.82888 16.7041C3.03648 16.5192 3.13873 16.516 3.20689 16.4641C3.27816 16.409 3.30604 16.4025 3.30295 16.3506Z" fill="#D1D3D4"/>
<path d="M6.11325 18.0821C6.09157 18.0367 6.06058 17.9038 6.04819 17.8486C5.89327 17.9102 5.18992 18.2799 4.09927 18.3837C3.69647 18.4226 3.0427 18.5394 2.57483 18.5621C2.10697 18.5848 1.47489 18.5718 1.19293 18.5426C0.914069 18.5102 0.616618 18.4388 0.43381 18.374C0.384235 18.3578 0.303675 18.3091 0.300577 18.1762C0.29438 18.0594 0.260297 17.9427 0.19523 18.0659C0.15495 18.1405 0.164246 18.3383 0.167344 18.3967C0.176639 18.4842 0.443105 18.614 0.759146 18.7372C1.14025 18.8864 1.8436 19.0258 3.02411 18.9318C3.8297 18.8669 4.37193 18.8442 4.83979 18.828C6.17212 18.7858 6.15973 18.5491 6.14734 18.3124C6.14424 18.2248 6.12565 18.1081 6.11325 18.0821Z" fill="#D3D5D6"/>
<path d="M5.80339 18.2442C5.80339 18.2442 4.9823 18.5069 4.62288 18.5296C4.05896 18.562 4.41838 18.6723 5.00089 18.6982C5.9831 18.7404 6.1659 18.2053 5.80339 18.2442Z" fill="#ABADB0"/>
<path d="M2.26189 18.8899C2.26189 18.8899 1.26729 18.9515 0.591827 18.6143C0.591827 18.6143 0.98533 18.6629 1.25799 18.6953C2.25879 18.8218 2.37653 18.5851 2.26189 18.8899Z" fill="#ABADB0"/>
<path d="M15.6286 17.6058C14.6092 17.4923 14.1258 17.0448 11.5076 14.4797C9.91194 12.9198 9.599 12.5145 9.599 12.5145L11.9321 8.74951C11.9321 8.74951 13.8872 10.786 14.2715 11.2336C15.6069 12.7901 18.0949 12.5956 18.0949 12.5956L18.6557 16.8243C18.6557 16.8275 17.1375 17.7744 15.6286 17.6058Z" fill="#E50914"/>
</g>
<defs>
<clipPath id="clip0_158_2519">
<rect width="35" height="19" fill="white"/>
</clipPath>
</defs>
</svg>
