<svg width="22" height="39" viewBox="0 0 22 39" fill="none" xmlns="http://www.w3.org/2000/svg">
<g clip-path="url(#clip0_158_2135)">
<path d="M8.8946 9.08312C8.83926 9.02351 8.74243 8.97242 8.6705 8.93268C8.23614 8.6829 6.65088 8.37919 5.70747 8.32809C4.76406 8.277 4.08625 8.03857 4.08625 8.03857L3.93408 9.15408C3.93408 9.15408 4.58423 9.22504 5.79877 9.73595C7.01331 10.2469 8.00928 10.3689 8.74243 10.3065C9.00526 10.2667 9.05229 9.20801 8.8946 9.08312Z" fill="#CD9D78"/>
<path d="M4.89133 8.25137C4.89133 8.25137 4.40441 8.16622 4.08349 7.9732C3.80959 7.80857 3.70723 7.766 3.24521 7.52473C2.74445 7.2636 2.73892 7.20399 2.60336 7.07342C2.46503 6.94285 2.09707 7.16993 2.48163 7.52473C2.86618 7.88237 3.01281 7.91927 3.01281 7.91927C3.01281 7.91927 2.27966 7.63543 1.89234 7.51905C1.50502 7.40268 1.26432 7.31469 1.23389 7.51622C1.22006 7.6184 1.25879 7.67233 1.77061 7.85399C2.28243 8.03565 2.85512 8.24569 2.85512 8.24569C2.85512 8.24569 0.959996 7.62692 0.890831 7.85967C0.846565 8.00726 0.918497 8.08674 1.53822 8.26556C2.15793 8.44438 2.75552 8.58347 2.75552 8.58347C2.75552 8.58347 1.11493 8.27692 0.982129 8.3053C0.901897 8.32233 0.569905 8.49831 1.22836 8.61753C1.88681 8.7339 2.74445 8.89002 2.74445 8.89002C2.74445 8.89002 1.34732 8.69416 1.33072 8.89002C1.31412 9.09438 1.93107 9.11709 2.78872 9.21076C3.64636 9.30443 3.6353 9.22495 3.87323 9.17102C4.11115 9.11709 4.74747 9.35836 4.74747 9.35836L4.89133 8.25137Z" fill="#CD9D78"/>
<path d="M8.26936 9.47474C8.37173 9.4719 8.15317 8.90989 8.15317 8.90989C8.15317 8.90989 10.466 7.64679 11.1632 7.71208C11.1632 7.71208 12.4663 6.65334 13.1413 6.59657C14.8041 5.55203 15.8664 6.17649 16.0961 7.28347C16.3119 8.32518 15.2025 8.94679 14.0184 9.06317C12.6019 9.20225 12.3446 9.31011 11.7857 9.55422C11.0332 9.88347 9.08828 10.2979 8.74522 10.3092C8.59029 9.82103 8.15593 9.97146 8.26936 9.47474Z" fill="#CD9D78"/>
<g opacity="0.26">
<path d="M13.3101 8.94395C13.0556 8.91557 12.8038 8.90138 12.5521 8.88151C12.4248 8.87299 12.3003 8.86448 12.173 8.85312C12.0458 8.84177 11.9213 8.83042 11.794 8.81055C11.913 8.86448 12.0375 8.8957 12.1647 8.91841C12.292 8.94395 12.4193 8.95531 12.5465 8.96666C12.6738 8.97518 12.801 8.97801 12.9283 8.97518C13.0556 8.97234 13.1828 8.96382 13.3101 8.94395Z" fill="#CD9D78"/>
<path d="M9.55306 9.93735C9.48943 9.87206 9.42027 9.82665 9.35387 9.7784L9.2515 9.71027C9.21554 9.68757 9.18511 9.66202 9.14914 9.63647C9.15467 9.68189 9.17957 9.72447 9.21 9.75853C9.23767 9.79543 9.27364 9.82381 9.3096 9.84936C9.34557 9.8749 9.3843 9.89477 9.4258 9.90896C9.46453 9.92599 9.50603 9.93735 9.55306 9.93735Z" fill="#CD9D78"/>
</g>
<path d="M12.707 24.6319C12.4082 24.8249 10.8478 23.0395 11.2213 22.5314C12.0679 21.5777 16.1929 16.1308 17.7616 16.8801C17.7616 16.8801 20.9432 17.6096 19.2583 19.9115C18.0189 21.6061 15.374 22.7755 14.5247 23.4255C14.0516 23.786 13.2382 24.365 12.707 24.6319Z" fill="#CB9C77"/>
<path d="M13.1303 22.5827C13.2603 22.7445 14.0211 23.9792 14.2674 24.124C15.042 24.5838 16.1016 26.372 16.5055 27.743C16.8458 28.8925 17.7228 30.6722 17.7228 30.6722L16.9178 31.8956C16.9178 31.8956 15.5428 30.0733 13.9769 27.9928C12.8343 26.4742 11.7746 25.4438 11.285 24.7229C11.2103 24.3936 12.9034 22.4692 13.1303 22.5827Z" fill="#CB9C77"/>
<path d="M16.8348 31.867L16.1625 30.8906C16.1625 30.8906 17.2138 30.7458 17.5375 30.2292L17.8501 30.7941C17.8501 30.7941 18.0908 31.3561 16.8348 31.867Z" fill="white"/>
<path d="M13.2299 21.5125C13.2299 21.5125 11.7774 22.0035 11.2213 22.5314C10.6652 23.0622 10.7953 23.2609 10.7648 23.698C10.7261 24.2629 11.6474 25.2166 11.6474 25.2166C11.6474 25.2166 12.1343 22.9969 12.1592 22.9629C12.1841 22.9288 13.2299 21.5125 13.2299 21.5125Z" fill="#CB9C77"/>
<path d="M19.5516 31.1746C19.7065 31.3534 19.8282 31.5577 18.7188 32.5342C18.3177 32.889 17.8169 33.258 17.1833 33.9193C16.2455 34.8957 15.5151 35.2789 15.0835 35.435C14.7294 35.5628 14.414 35.6536 14.3476 35.5883C14.3393 35.577 14.3282 35.5684 14.3199 35.5571C14.3503 35.594 14.378 35.6252 14.4001 35.6479C14.4638 35.7132 14.7819 35.6224 15.1361 35.4946C15.5677 35.3385 16.2621 34.9497 17.2359 34.0101C17.9027 33.3687 18.3702 32.9457 18.7714 32.5909C19.914 31.5833 19.7508 31.3988 19.5875 31.2143C19.5765 31.2058 19.5654 31.1916 19.5516 31.1746Z" fill="#717375"/>
<path d="M17.8473 29.4943C17.7948 29.5142 17.7809 29.5965 17.8141 29.7072C17.8695 29.8974 17.994 30.0137 17.9995 30.0194L18.005 30.0137C18.0272 30.0705 18.0604 30.1301 18.1129 30.184L18.1655 30.1329C18.0742 30.0364 18.0521 29.9314 18.0272 29.8122C18.0161 29.7526 18.005 29.693 17.9829 29.6305C17.9331 29.4801 17.8722 29.4858 17.8473 29.4943ZM17.9137 29.6533C17.9331 29.71 17.9442 29.7696 17.9552 29.8236C17.958 29.8321 17.958 29.8406 17.9608 29.8519C17.9303 29.8065 17.9027 29.7498 17.8833 29.6816C17.8667 29.622 17.8667 29.5851 17.8722 29.5709C17.8833 29.5823 17.8971 29.605 17.9137 29.6533Z" fill="#0D0B42"/>
<path fill-rule="evenodd" clip-rule="evenodd" d="M18.4975 32.0431C18.2706 32.256 18.124 32.4774 17.8224 32.8322C17.5236 33.187 17.0644 33.715 16.6688 34.0754C16.2731 34.4359 15.6506 34.8759 15.3823 35.0547C14.9341 35.3556 14.3946 35.5429 14.3835 35.5401L14.2618 35.4521C14.2618 35.4521 14.2231 35.33 14.2618 35.2023C14.3005 35.0746 14.4472 34.8674 14.8207 34.2713C15.2965 33.5078 15.4266 33.2324 15.5483 32.713C15.67 32.1907 15.8858 31.623 16.0214 31.5578C16.1569 31.4925 16.453 31.4499 16.9371 31.2342C17.8861 30.8084 17.4904 31.1632 17.8722 30.482C18.0438 30.1754 17.8086 29.8774 17.8805 29.9228C17.8805 29.9228 18.0604 30.1698 18.337 30.2237C18.6801 30.2918 19.0204 30.6012 19.2915 31.0099C19.1615 31.3676 18.7188 31.8359 18.4975 32.0431Z" fill="white"/>
<path fill-rule="evenodd" clip-rule="evenodd" d="M16.3063 30.8596C16.1431 30.8255 16.0629 30.7063 15.8803 30.7233C15.7835 30.7319 15.6811 30.922 15.7475 31.4102C15.8056 31.8303 15.6451 32.3412 15.6451 32.3412L15.6617 32.3242C15.4791 33.0395 15.2052 33.522 15.2052 33.522L15.3104 33.5674C15.6064 32.9089 15.8498 32.2901 16.0131 31.853C16.1071 31.6884 16.3755 31.5834 16.4225 31.467C16.5609 31.1122 16.4115 30.8794 16.3063 30.8596Z" fill="#0D0B42"/>
<path fill-rule="evenodd" clip-rule="evenodd" d="M14.3808 35.4379C14.4749 35.5146 14.5689 35.4805 14.6242 35.4578C14.6491 35.4465 14.674 35.4351 14.7017 35.4237H14.7045C14.7321 35.4124 14.7598 35.401 14.7875 35.3868C14.7875 35.3868 14.7875 35.3868 14.7902 35.3868C14.8207 35.3727 14.8511 35.3585 14.8815 35.3443H14.8843C14.9147 35.3301 14.9452 35.313 14.9756 35.2989C14.9784 35.2989 14.9811 35.296 14.9839 35.296C15.0143 35.279 15.0475 35.262 15.0807 35.2449C15.0807 35.2449 15.0807 35.2449 15.0835 35.2449C15.1167 35.2279 15.1499 35.208 15.1831 35.191C15.1859 35.191 15.1886 35.1882 15.1914 35.1882C15.2218 35.1711 15.2523 35.1513 15.2855 35.1314C15.2882 35.1314 15.291 35.1286 15.2938 35.1257C15.327 35.1058 15.3574 35.0831 15.3906 35.0633C15.6562 34.8844 16.2814 34.4445 16.6771 34.084C17.0727 33.7235 17.5347 33.1984 17.8307 32.8408C18.0659 32.5569 19.2223 31.4017 19.3524 31.0497C19.3302 31.0157 19.214 30.9192 19.1919 30.8879C19.1808 30.9362 19.1283 31.1661 19.0951 31.2371C18.882 31.7196 17.7975 32.7358 17.4655 33.1388C17.1308 33.5419 16.3783 34.3906 15.0475 35.0661C15.0475 35.0661 14.4278 35.3329 14.6353 34.8589C14.8151 34.4502 15.3187 33.5703 15.3187 33.5703L15.2384 33.4823C14.5689 34.8192 14.3421 34.6744 14.2231 35.0548C14.2037 35.1172 14.1733 35.3244 14.2535 35.4152C14.2618 35.3954 14.3199 35.3897 14.3808 35.4379Z" fill="#E50914"/>
<path d="M19.2113 30.9021C18.9512 30.5302 18.6579 30.2947 18.3343 30.2294C18.3177 30.2265 18.3038 30.2237 18.2872 30.218C18.243 30.2748 18.2485 30.3372 18.4145 30.3912C18.705 30.4848 19.0591 30.834 19.1836 30.9645C19.1891 30.9418 19.203 30.9248 19.2113 30.9021Z" fill="white"/>
<path fill-rule="evenodd" clip-rule="evenodd" d="M15.4293 33.8427C15.4293 33.8427 15.4293 33.3573 15.1471 33.7292C15.0448 33.8654 14.2867 35.1143 14.5025 35.2051C14.6436 35.2619 14.6215 35.2988 14.9258 35.1995C15.2301 35.103 16.3617 34.277 16.1265 34.3934C15.623 34.6488 15.5594 34.4217 15.6451 33.9761C15.7309 33.5305 15.7945 33.3772 15.7945 33.3772L15.4293 33.8427Z" fill="#E50914"/>
<path d="M15.6949 33.505C15.6949 33.505 17.4323 33.3376 16.5277 34.0954C16.5277 34.0954 17.2055 33.5845 17.2525 33.3574C17.2995 33.1304 16.8071 32.8834 15.9162 32.96L15.6949 33.505Z" fill="#E50914"/>
<path d="M15.9384 32.7784C15.9384 32.7784 17.8114 32.6848 17.2664 33.3717C17.2664 33.3717 17.7782 32.9601 17.7892 32.7302C17.8114 32.2647 17.0506 32.1568 16.1597 32.2335L15.9384 32.7784Z" fill="#E50914"/>
<path d="M16.2178 32.0829C16.2178 32.0829 18.4449 31.9609 17.8556 32.7443C17.8556 32.7443 18.4975 32.2334 18.5085 32.0035C18.5224 31.7139 17.2663 31.7196 17.756 30.7744C17.8529 30.5871 16.666 31.5493 16.3312 31.5777L16.2178 32.0829Z" fill="#E50914"/>
<path fill-rule="evenodd" clip-rule="evenodd" d="M18.4809 30.272C18.4338 30.255 18.3868 30.2408 18.337 30.2294C18.3259 30.2266 18.3149 30.2238 18.3066 30.2209C18.0686 30.0932 17.9331 29.9059 17.9331 29.9059C17.6094 29.5 17.5956 29.8888 17.6288 29.9655C17.7035 30.1301 17.9524 30.4366 17.3383 30.9305C16.8264 31.3421 16.3285 31.4386 16.215 31.4585C15.966 31.5039 15.8969 31.5663 15.8803 31.589C15.706 31.9722 15.7502 32.1 15.6672 32.5059C15.4265 33.346 15.208 33.7235 15.136 33.8797C15.136 33.8797 15.4708 33.9449 15.6755 33.6355C15.6811 33.6242 15.6894 33.6157 15.6949 33.6043C15.7032 33.593 15.7087 33.5816 15.7143 33.5674C15.7143 33.5646 15.717 33.5617 15.717 33.5617C15.7226 33.5504 15.7281 33.5419 15.7336 33.5305C15.7392 33.5163 15.7475 33.5021 15.753 33.488C15.9605 32.9941 16.2261 32.1198 16.3036 31.9211C16.381 31.7224 16.7075 31.5124 16.9648 31.3932C17.7228 31.0497 17.6703 30.8028 18.1461 30.5899C18.3121 30.5161 18.6109 30.5303 19.0065 30.7489C19.0121 30.7517 18.7492 30.4679 18.7548 30.4622C18.7575 30.4622 18.4394 30.3799 18.4421 30.3799C18.4477 30.377 18.4504 30.3714 18.456 30.3685C18.456 30.3685 18.456 30.3685 18.4587 30.3657C18.4643 30.36 18.467 30.3543 18.4698 30.3458V30.343C18.4726 30.3345 18.4753 30.3288 18.4753 30.3203C18.4753 30.3203 18.4753 30.3203 18.4753 30.3174C18.4781 30.3061 18.4809 30.289 18.4809 30.272Z" fill="white"/>
<path fill-rule="evenodd" clip-rule="evenodd" d="M16.0601 31.6969C16.085 31.7281 16.132 31.7281 16.1652 31.6997C16.1957 31.6713 16.2012 31.6231 16.1735 31.5919C16.1486 31.5635 16.1016 31.5606 16.0684 31.589C16.038 31.6202 16.0324 31.6685 16.0601 31.6969Z" fill="white"/>
<path fill-rule="evenodd" clip-rule="evenodd" d="M16.0711 31.6856C16.0933 31.7083 16.1292 31.7112 16.1541 31.6885C16.179 31.6658 16.1818 31.6289 16.1597 31.6062C16.1375 31.5835 16.1016 31.5806 16.0767 31.6033C16.0545 31.626 16.0518 31.6629 16.0711 31.6856Z" fill="black"/>
<path fill-rule="evenodd" clip-rule="evenodd" d="M16.1265 31.7196C16.1265 31.7196 15.8692 31.9666 15.7336 31.9041C15.7336 31.9041 15.6866 31.8303 15.7475 31.8247C15.9162 31.8048 15.9218 31.7424 16.0767 31.6033C16.0795 31.6033 16.1984 31.6231 16.1265 31.7196Z" fill="#BCBEC0"/>
<path fill-rule="evenodd" clip-rule="evenodd" d="M15.966 32.2193C15.9882 32.2533 16.0352 32.259 16.0684 32.2335C16.1016 32.2079 16.1099 32.1625 16.0878 32.1285C16.0656 32.0944 16.0186 32.0887 15.9854 32.1143C15.9522 32.1398 15.9439 32.1852 15.966 32.2193Z" fill="white"/>
<path fill-rule="evenodd" clip-rule="evenodd" d="M15.9799 32.2107C15.9992 32.2363 16.0352 32.2419 16.0601 32.2221C16.0878 32.2022 16.0933 32.1653 16.0767 32.1398C16.0573 32.1142 16.0214 32.1085 15.9965 32.1284C15.9688 32.1454 15.9605 32.1852 15.9799 32.2107Z" fill="black"/>
<path fill-rule="evenodd" clip-rule="evenodd" d="M16.0297 32.2475C16.0297 32.2475 15.7503 32.4661 15.623 32.3895C15.623 32.3895 15.5843 32.31 15.6451 32.31C15.8139 32.31 15.8277 32.2475 15.9937 32.1255C15.9937 32.1255 16.1099 32.1624 16.0297 32.2475Z" fill="#BCBEC0"/>
<path fill-rule="evenodd" clip-rule="evenodd" d="M15.8222 32.7075C15.8416 32.7444 15.8858 32.7557 15.9218 32.7359C15.9577 32.716 15.9716 32.6677 15.9522 32.6337C15.9328 32.5968 15.8886 32.5854 15.8526 32.6081C15.8167 32.6252 15.8028 32.6706 15.8222 32.7075Z" fill="white"/>
<path fill-rule="evenodd" clip-rule="evenodd" d="M15.836 32.699C15.8499 32.7273 15.8858 32.7359 15.9163 32.7188C15.9439 32.7018 15.955 32.6649 15.9412 32.6365C15.9273 32.6081 15.8914 32.5996 15.8637 32.6166C15.8305 32.6337 15.8194 32.6706 15.836 32.699Z" fill="black"/>
<path fill-rule="evenodd" clip-rule="evenodd" d="M15.883 32.7444C15.883 32.7444 15.5925 32.9261 15.4763 32.8324C15.4763 32.8324 15.4487 32.7501 15.5095 32.7558C15.6755 32.7757 15.6838 32.716 15.8637 32.6167C15.8609 32.6167 15.9716 32.6678 15.883 32.7444Z" fill="#BCBEC0"/>
<path fill-rule="evenodd" clip-rule="evenodd" d="M15.6341 33.1814C15.6451 33.2211 15.6866 33.241 15.7254 33.2268C15.7641 33.2126 15.7862 33.17 15.7724 33.1303C15.7613 33.0906 15.7198 33.0707 15.6811 33.0849C15.6424 33.1019 15.6202 33.1445 15.6341 33.1814Z" fill="white"/>
<path fill-rule="evenodd" clip-rule="evenodd" d="M15.6479 33.1787C15.6589 33.2099 15.6894 33.2241 15.7226 33.2127C15.753 33.2014 15.7696 33.1673 15.7613 33.1361C15.7502 33.1049 15.7198 33.0907 15.6866 33.102C15.6562 33.1134 15.6396 33.1474 15.6479 33.1787Z" fill="black"/>
<path fill-rule="evenodd" clip-rule="evenodd" d="M15.6866 33.2297C15.6866 33.2297 15.4127 33.3603 15.3131 33.2496C15.3131 33.2496 15.2993 33.1616 15.3574 33.1786C15.5151 33.2269 15.4957 33.1672 15.6866 33.0991C15.6866 33.102 15.7862 33.1701 15.6866 33.2297Z" fill="#BCBEC0"/>
<path fill-rule="evenodd" clip-rule="evenodd" d="M16.0241 31.9411C16.049 31.9723 16.0961 31.9723 16.1293 31.9439C16.1597 31.9155 16.1652 31.8673 16.1376 31.836C16.1127 31.8048 16.0656 31.8048 16.0324 31.8332C16.002 31.8616 15.9965 31.9098 16.0241 31.9411Z" fill="white"/>
<path fill-rule="evenodd" clip-rule="evenodd" d="M16.0352 31.9297C16.0573 31.9524 16.0933 31.9552 16.1182 31.9325C16.1431 31.9098 16.1459 31.8729 16.1237 31.8474C16.1016 31.8247 16.0656 31.8218 16.0407 31.8445C16.0186 31.8672 16.0158 31.907 16.0352 31.9297Z" fill="black"/>
<path fill-rule="evenodd" clip-rule="evenodd" d="M15.7807 31.7368C15.7807 31.7368 15.6396 31.927 15.908 31.9497C16.0767 31.9639 16.0906 31.9213 16.0878 31.8901C16.0823 31.856 16.0905 31.8305 15.9799 31.8504C15.8471 31.8759 15.7503 31.7766 15.7807 31.7368Z" fill="white"/>
<path fill-rule="evenodd" clip-rule="evenodd" d="M15.9052 32.4576C15.9273 32.4916 15.9743 32.4973 16.0075 32.4718C16.0407 32.4462 16.049 32.4008 16.0269 32.3667C16.0048 32.3327 15.9577 32.327 15.9245 32.3525C15.8913 32.3781 15.8803 32.4235 15.9052 32.4576Z" fill="white"/>
<path fill-rule="evenodd" clip-rule="evenodd" d="M15.9162 32.449C15.9356 32.4745 15.9716 32.4802 15.9965 32.4604C16.0241 32.4405 16.0297 32.4036 16.0131 32.378C15.9937 32.3525 15.9577 32.3468 15.9328 32.3667C15.9052 32.3837 15.8996 32.4235 15.9162 32.449Z" fill="black"/>
<path fill-rule="evenodd" clip-rule="evenodd" d="M15.6783 32.2163C15.6783 32.2163 15.5261 32.4008 15.789 32.4547C15.9522 32.4888 15.9743 32.4462 15.9716 32.415C15.9688 32.3781 15.9826 32.3554 15.8692 32.3639C15.7336 32.3724 15.6423 32.2532 15.6783 32.2163Z" fill="white"/>
<path fill-rule="evenodd" clip-rule="evenodd" d="M15.7336 32.9374C15.753 32.9743 15.7973 32.9856 15.8332 32.9629C15.8692 32.9402 15.883 32.8948 15.8664 32.8607C15.8471 32.8238 15.8028 32.8125 15.7668 32.8352C15.7281 32.855 15.7143 32.9033 15.7336 32.9374Z" fill="white"/>
<path fill-rule="evenodd" clip-rule="evenodd" d="M15.7475 32.9289C15.7613 32.9573 15.7973 32.9658 15.8249 32.9488C15.8526 32.9318 15.8664 32.8949 15.8498 32.8665C15.836 32.8381 15.8 32.8296 15.7696 32.8466C15.7447 32.8665 15.7336 32.9006 15.7475 32.9289Z" fill="black"/>
<path fill-rule="evenodd" clip-rule="evenodd" d="M15.5566 32.6763C15.5566 32.6763 15.3657 32.8324 15.6202 32.9175C15.7779 32.9715 15.8028 32.9317 15.8056 32.9005C15.8083 32.8636 15.8222 32.8409 15.7115 32.8352C15.5759 32.8324 15.5178 32.7103 15.5566 32.6763Z" fill="white"/>
<path fill-rule="evenodd" clip-rule="evenodd" d="M15.5068 33.3971C15.5178 33.4369 15.5593 33.4567 15.5981 33.4397C15.6368 33.4255 15.6589 33.3829 15.6479 33.3432C15.6368 33.3035 15.5953 33.2836 15.5538 33.2978C15.5178 33.3148 15.4957 33.3574 15.5068 33.3971Z" fill="white"/>
<path fill-rule="evenodd" clip-rule="evenodd" d="M15.5234 33.3916C15.5317 33.4228 15.5649 33.437 15.5953 33.4256C15.6257 33.4143 15.6423 33.3802 15.634 33.349C15.623 33.3178 15.5925 33.3036 15.5621 33.3149C15.5317 33.3263 15.5123 33.3603 15.5234 33.3916Z" fill="black"/>
<path fill-rule="evenodd" clip-rule="evenodd" d="M15.4044 33.0906C15.4044 33.0906 15.1693 33.2268 15.4016 33.3574C15.5483 33.4397 15.5787 33.4028 15.5842 33.3744C15.5925 33.3404 15.6119 33.3177 15.504 33.2949C15.374 33.2637 15.3601 33.119 15.4044 33.0906Z" fill="white"/>
<path fill-rule="evenodd" clip-rule="evenodd" d="M15.8166 31.7651C15.8166 31.7651 16.1708 31.0839 15.7945 30.9874C15.421 30.8908 15.6866 31.5919 15.7807 31.7481L15.8083 31.7112C15.8083 31.7112 15.6119 31.2769 15.6838 31.1293C15.7558 30.9817 15.8471 31.0753 15.8581 31.1435C15.8692 31.2031 15.9079 31.3932 15.8471 31.6487C15.8443 31.6629 15.7973 31.7055 15.7945 31.7225C15.7917 31.7452 15.8249 31.7424 15.8166 31.7651Z" fill="#BCBEC0"/>
<path fill-rule="evenodd" clip-rule="evenodd" d="M15.8083 31.6431C15.8083 31.6431 15.6119 31.1918 15.3187 31.223C15.0282 31.2542 15.0033 31.4756 15.41 31.6204C15.8166 31.7651 15.8166 31.7651 15.8166 31.7651L15.8222 31.697C15.8222 31.697 15.5261 31.609 15.3906 31.5295C15.2578 31.4501 15.1222 31.3507 15.2523 31.3252C15.3795 31.2968 15.4764 31.2939 15.6313 31.4784C15.706 31.5664 15.7502 31.6658 15.7807 31.7027C15.8166 31.7424 15.8388 31.7169 15.8388 31.7169L15.8083 31.6431Z" fill="#BCBEC0"/>
<path fill-rule="evenodd" clip-rule="evenodd" d="M15.7751 31.7707C15.7751 31.7707 15.7475 31.8473 15.6174 31.9949C15.4874 32.1425 15.4874 32.3951 15.4985 32.4065C15.5095 32.4178 15.4763 32.4604 15.4763 32.4604C15.4763 32.4604 15.4321 32.4633 15.4072 32.3809C15.3851 32.3015 15.3463 32.1425 15.5593 31.958C15.7724 31.7735 15.8028 31.6884 15.8028 31.6884C15.8028 31.6884 15.8941 31.6713 15.7751 31.7707Z" fill="#D1D3D4"/>
<path fill-rule="evenodd" clip-rule="evenodd" d="M15.8166 31.6658C15.8166 31.6658 15.7281 31.9326 15.6562 32.0717C15.5842 32.2107 15.5621 32.452 15.504 32.5145C15.4459 32.5797 15.5068 32.611 15.5068 32.611C15.5068 32.611 15.5649 32.6025 15.6285 32.2987C15.6921 31.9979 15.7779 31.9212 15.8056 31.8304C15.8332 31.7339 15.8554 31.7027 15.8166 31.6658Z" fill="#D1D3D4"/>
<path d="M19.3883 31.0271C19.3413 31.0044 19.2279 30.9192 19.1836 30.8823C19.0868 31.047 18.705 31.8587 17.8169 32.7387C17.4877 33.0651 16.9925 33.6356 16.5941 33.9961C16.1984 34.3566 15.6368 34.8079 15.3685 34.9867C15.1029 35.1655 14.7958 35.3188 14.5966 35.4039C14.544 35.4266 14.4416 35.4437 14.3531 35.3415C14.2729 35.2478 14.1678 35.1825 14.1899 35.3273C14.2037 35.4181 14.3365 35.5742 14.3752 35.6168C14.4389 35.6821 14.757 35.5913 15.1112 35.4635C15.5428 35.3074 16.2455 34.9101 17.2193 33.9705C17.8833 33.329 18.3453 32.9146 18.7465 32.5627C19.8891 31.555 19.7259 31.3705 19.5626 31.186C19.5073 31.1208 19.416 31.0413 19.3883 31.0271Z" fill="#D3D5D6"/>
<path d="M19.2196 31.3847C19.2196 31.3847 18.6663 32.1994 18.3647 32.4775C17.8916 32.9147 18.2762 32.7415 18.8046 32.3385C19.6982 31.6601 19.5156 31.0867 19.2196 31.3847Z" fill="#ABADB0"/>
<path d="M16.5304 34.4955C16.5304 34.4955 15.6977 35.2733 14.8898 35.4918C14.8898 35.4918 15.2633 35.2449 15.5261 35.0717C16.4834 34.4416 16.4336 34.1606 16.5304 34.4955Z" fill="#ABADB0"/>
<path d="M20.8518 19.1481C20.4839 20.1813 19.8448 21.0499 17.8999 22.0887C15.6534 23.2894 14.6464 24.2431 14.6464 24.2431L11.9766 21.5239L15.1748 17.9616L15.255 17.3826L19.7341 15.8044C19.7341 15.8044 21.2226 18.1149 20.8518 19.1481Z" fill="white"/>
<path d="M2.82468 16.1536C3.16221 16.2444 3.4029 16.2416 3.42227 16.2416C3.5772 16.2387 3.69893 16.1082 3.69616 15.9492C3.69339 15.7931 3.56613 15.6654 3.4112 15.6682C3.3199 15.6682 1.25602 15.654 1.09279 12.6652L1.17025 6.87477C1.17302 6.71582 1.04852 6.58809 0.893594 6.58525C0.738664 6.58241 0.614167 6.71014 0.6114 6.86909L0.533936 12.668C0.533936 12.6737 0.533936 12.6794 0.533936 12.6879C0.633533 14.53 1.40265 15.4014 2.03343 15.8045C2.31286 15.9833 2.59229 16.0911 2.82468 16.1536Z" fill="#797A7D"/>
<path d="M0.74974 9.93182C0.782939 9.94033 0.816138 9.94601 0.849337 9.94601C1.08173 9.94885 1.26986 9.75867 1.27539 9.52308L1.31136 6.87767C1.31413 6.63924 1.12876 6.44623 0.89637 6.44339C0.666742 6.44055 0.475847 6.63073 0.47308 6.86632L0.437114 9.50889C0.431581 9.71042 0.567144 9.88073 0.74974 9.93182Z" fill="#27272D"/>
<path d="M16.7269 30.6751L17.7505 30.8284L19.2334 21.5127L18.2098 21.3594L16.7269 30.6751Z" fill="#95979A"/>
<path d="M4.03093 29.04L5.85135 29.7524L4.13606 15.461L2.61996 14.3455L4.03093 29.04Z" fill="#95979A"/>
<path d="M12.9172 33.0536C12.9172 35.2136 14.6242 36.9678 16.7296 36.9678C18.835 36.9678 20.542 35.2165 20.542 33.0536C20.542 30.8936 18.835 29.1394 16.7296 29.1394C14.6242 29.1394 12.9172 30.8936 12.9172 33.0536Z" fill="#4B4850"/>
<path d="M12.4552 37.7826L20.4507 37.8308L15.8858 29.2361H12.5105L12.4552 37.7826Z" fill="#4B4850"/>
<path d="M19.9914 35.0833C19.9914 35.0833 19.4547 35.9547 19.7341 36.4826C20.0136 37.0106 18.9291 36.8488 18.9291 36.8488C18.9291 36.8488 18.0825 36.247 18.0825 36.1591C18.0825 36.0711 17.8584 35.0067 17.9109 34.9556C17.9635 34.9045 17.9801 34.4759 18.2208 34.4418C18.4643 34.4077 19.6179 34.0615 19.9914 35.0833Z" fill="#4B4850"/>
<path d="M11.8327 31.3733C11.8327 34.2941 9.52538 36.6613 6.67855 36.6613C3.83172 36.6613 1.52161 34.2941 1.52161 31.3733C1.52161 28.4526 3.82895 26.0825 6.67855 26.0825C9.52538 26.0825 11.8327 28.4498 11.8327 31.3733Z" fill="#4B4850"/>
<path d="M12.4552 37.7655L1.64334 37.8507L7.82116 26.2131L17.0367 29.2361L12.4552 37.7655Z" fill="#4B4850"/>
<path d="M2.27136 34.1182C2.27136 34.1182 2.99898 35.2961 2.61995 36.0086C2.24093 36.721 3.70723 36.5053 3.70723 36.5053C3.70723 36.5053 4.84983 35.6907 4.84983 35.5714C4.84983 35.4522 5.15416 34.016 5.08223 33.9422C5.01306 33.8712 4.98816 33.295 4.6617 33.2468C4.33525 33.2014 2.77212 32.7358 2.27136 34.1182Z" fill="#4B4850"/>
<path d="M1.60736 38.6199C1.60736 38.8299 1.77336 39.0002 1.97809 39.0002H20.1187C20.3262 39.0002 20.4894 38.8299 20.4894 38.6199V38.0124C20.4894 37.8024 20.3234 37.6321 20.1187 37.6321H1.98085C1.77612 37.6321 1.61013 37.8024 1.61013 38.0124V38.6199H1.60736Z" fill="#4B4850"/>
<path d="M16.0795 20.1557C16.0795 20.1557 17.5679 20.0336 19.712 19.8293C21.8561 19.6249 22.1522 21.9127 21.3249 22.5655C20.5005 23.2184 20.0606 22.8125 19.2666 22.2788C18.4698 21.7481 17.5541 21.6629 16.5581 21.3563C15.5621 21.0526 15.3629 20.4821 16.0795 20.1557Z" fill="#27272D"/>
<path d="M16.1846 32.6817C15.6506 31.6882 14.4333 31.3277 13.465 31.8756C12.4967 32.4234 12.1454 33.6723 12.6793 34.6657C13.2133 35.6592 14.4306 36.0197 15.3989 35.4718C16.3644 34.924 16.7186 33.6751 16.1846 32.6817Z" fill="#27272D"/>
<path d="M14.7238 33.5106C14.6353 33.346 14.4333 33.2864 14.2729 33.3772C14.1124 33.468 14.0543 33.6752 14.1428 33.8399C14.2314 34.0045 14.4333 34.0641 14.5938 33.9733C14.7515 33.8824 14.8096 33.6752 14.7238 33.5106Z" fill="#E5DCD2"/>
<path d="M14.5329 33.7463C14.5385 33.7321 14.591 33.5958 14.5246 33.434C14.4582 33.2723 14.3061 33.1445 14.0709 33.0509C13.5702 32.8522 11.4371 32.029 11.415 32.0205L11.3126 32.3015C11.3348 32.31 13.4678 33.1332 13.9658 33.3319C14.1207 33.3915 14.2231 33.4709 14.2535 33.5504C14.2729 33.593 14.2646 33.6271 14.2646 33.6271L14.5329 33.7463Z" fill="#E5DCD2"/>
<path d="M13.6725 31.5918C13.6338 31.3931 13.4457 31.2654 13.252 31.3051L9.60838 32.0033C9.41472 32.0431 9.29023 32.2361 9.32896 32.4348C9.36769 32.6335 9.55582 32.7612 9.74948 32.7215L13.3931 32.0232C13.5868 31.9835 13.7113 31.7905 13.6725 31.5918Z" fill="#E5DCD2"/>
<path d="M2.61167 16.1961C2.92429 16.3579 3.15945 16.409 3.17605 16.4118C3.32822 16.443 3.47485 16.3437 3.50528 16.1876C3.53571 16.0343 3.43888 15.8839 3.28672 15.8498C3.19819 15.8299 1.18687 15.3588 1.65442 12.404L2.94919 6.76685C2.98516 6.61357 2.89109 6.45746 2.7417 6.4234C2.5923 6.3865 2.4429 6.483 2.40694 6.63628L1.1094 12.2848C1.1094 12.2904 1.10664 12.2961 1.10387 12.3046C0.813377 14.1241 1.3833 15.1459 1.91172 15.6795C2.14964 15.9179 2.39864 16.0826 2.61167 16.1961Z" fill="#95979A"/>
<path d="M1.78169 9.61387C1.81212 9.62806 1.84256 9.64225 1.87576 9.65077C2.09985 9.7047 2.32671 9.56277 2.37928 9.33002L2.97133 6.75557C3.0239 6.52566 2.88557 6.29291 2.6587 6.23898C2.43461 6.18505 2.21051 6.32697 2.15795 6.55688L1.5659 9.13133C1.51886 9.33002 1.6157 9.52588 1.78169 9.61387Z" fill="#27272D"/>
<path d="M5.04902 17.1839L3.09857 15.8754C3.09857 15.8754 1.80934 15.0806 1.81764 13.7267C1.8204 13.1136 2.06663 12.3728 3.29777 13.352C4.52614 14.337 7.96225 19.3298 5.04902 17.1839Z" fill="#6D6E71"/>
<path d="M18.5169 10.6357C17.3687 7.97323 16.7573 6.76973 14.2065 5.48393C13.6144 5.18589 12.6406 6.62781 12.6406 6.62781C12.6406 6.62781 12.7042 7.11886 12.66 8.00445C12.5742 9.78698 13.2077 11.0756 14.0709 11.4049C14.5136 11.5724 15.0531 12.7219 15.3795 13.2641C16.8929 15.7959 17.5679 16.6361 18.8433 18.3023C19.1393 18.6911 19.9859 18.1547 20.3511 17.7147C20.0938 17.1726 21.0262 15.9748 20.4535 15.0494C19.4907 13.4968 19.6512 13.2697 18.5169 10.6357Z" fill="#E4AE84"/>
<g opacity="0.26">
<path d="M16.5443 13.0056C16.4889 13.088 16.4281 13.1646 16.3589 13.2299C16.2897 13.2952 16.215 13.3491 16.1265 13.3888C16.0407 13.4314 15.9439 13.4598 15.8388 13.4853C15.9411 13.5251 16.0546 13.5308 16.1652 13.508C16.2759 13.4853 16.381 13.4257 16.464 13.3463C16.547 13.2668 16.6107 13.1674 16.6494 13.0624C16.6881 12.9574 16.7103 12.8439 16.6992 12.7332C16.6494 12.8325 16.5996 12.9205 16.5443 13.0056Z" fill="#511D06"/>
<path d="M16.9842 13.2952C16.9344 13.3803 16.8873 13.4598 16.8375 13.5336C16.7877 13.6074 16.7324 13.6755 16.6715 13.7323C16.6107 13.7891 16.5443 13.8373 16.4668 13.877C16.3893 13.9168 16.3063 13.9423 16.2095 13.9707C16.3008 14.0105 16.4032 14.0161 16.5028 13.9963C16.6051 13.9764 16.6992 13.9225 16.7739 13.8487C16.8486 13.7777 16.9067 13.6869 16.9399 13.5904C16.9786 13.4995 16.998 13.3973 16.9842 13.2952Z" fill="#511D06"/>
<path d="M17.0146 14.2973C16.9731 14.337 16.9288 14.3711 16.8763 14.3995C16.8237 14.4307 16.7656 14.4534 16.6964 14.4818C16.7601 14.5187 16.8375 14.5301 16.915 14.5187C16.9897 14.5073 17.0644 14.4676 17.1197 14.4137C17.1778 14.3597 17.2166 14.2916 17.2415 14.2207C17.2636 14.1497 17.2719 14.0731 17.2553 13.9993C17.211 14.0589 17.1723 14.1128 17.1336 14.1639C17.0948 14.2122 17.0561 14.2576 17.0146 14.2973Z" fill="#511D06"/>
<path d="M16.2648 8.94676C16.2316 8.89851 16.1984 8.84742 16.168 8.79349C16.1154 8.69982 16.0684 8.60047 16.0297 8.49829C16.0075 8.58912 15.9882 8.67711 15.9771 8.7651C15.9937 8.802 16.0103 8.8389 16.0297 8.8758C16.0601 8.93257 16.0905 8.98934 16.1265 9.04327C16.1597 9.0972 16.204 9.15113 16.2344 9.19654C16.298 9.29305 16.3423 9.40091 16.3561 9.51729C16.37 9.63366 16.3589 9.75571 16.3229 9.87777C16.2538 10.1219 16.1016 10.3546 15.9135 10.559C15.7281 10.7662 15.5013 10.9422 15.2606 11.0841C15.0171 11.2232 14.7543 11.331 14.4859 11.3679C14.3531 11.3878 14.2176 11.385 14.0903 11.3594C13.963 11.3339 13.8441 11.2828 13.7417 11.209C13.8302 11.297 13.9437 11.3651 14.0709 11.4048C14.1982 11.4446 14.3393 11.4588 14.4804 11.4503C14.7653 11.4332 15.0531 11.3367 15.3159 11.1976C15.5815 11.0586 15.8222 10.8741 16.0297 10.6583C16.2344 10.4398 16.4087 10.1843 16.4917 9.90047C16.5304 9.75855 16.5443 9.61379 16.5249 9.47471C16.5055 9.33563 16.453 9.20506 16.3755 9.0972C16.3368 9.04043 16.298 8.99785 16.2648 8.94676Z" fill="#511D06"/>
<path d="M16.7932 11.9782C16.8873 11.9584 16.9814 11.9385 17.0671 11.8931C16.9731 11.9044 16.8818 11.9044 16.7877 11.8988C16.6964 11.8959 16.6024 11.8902 16.5111 11.8817C16.3285 11.8675 16.1431 11.8477 15.9605 11.8278C15.7724 11.8051 15.5815 11.7994 15.3906 11.8193C15.2938 11.8278 15.1997 11.8477 15.1084 11.876C15.0614 11.8902 15.0171 11.9073 14.9728 11.9328C14.9313 11.9555 14.8871 11.9811 14.8566 12.018C14.8981 11.9953 14.9424 11.9839 14.9867 11.9726C15.0309 11.964 15.078 11.9555 15.1222 11.9527C15.2135 11.9413 15.3048 11.9413 15.3961 11.9442C15.5787 11.947 15.7613 11.9669 15.9439 11.9867C16.132 12.0066 16.3202 12.018 16.5111 12.0066C16.6024 12.0038 16.6992 11.9924 16.7932 11.9782Z" fill="#511D06"/>
<path d="M16.2206 11.2573C16.132 11.3027 16.0352 11.3396 15.9301 11.3737C16.038 11.4049 16.1514 11.4049 16.2621 11.3737C16.3727 11.3453 16.4779 11.2857 16.5636 11.2091C16.6494 11.1324 16.7186 11.0359 16.7684 10.9337C16.8154 10.8287 16.8486 10.718 16.8486 10.6045C16.7877 10.6982 16.7296 10.7862 16.666 10.8685C16.6024 10.9508 16.536 11.0246 16.4613 11.0899C16.3893 11.1551 16.3091 11.2119 16.2206 11.2573Z" fill="#511D06"/>
<path d="M16.002 14.0729C15.8996 13.9054 15.7917 13.7436 15.6783 13.5846C15.5649 13.4257 15.4487 13.2667 15.3159 13.1191C15.3934 13.3036 15.4819 13.4768 15.5759 13.6499C15.67 13.8231 15.7696 13.9905 15.872 14.158C15.9743 14.3255 16.0822 14.4873 16.1957 14.6462C16.3091 14.8052 16.4253 14.9641 16.5581 15.1117C16.4806 14.9272 16.3921 14.7512 16.298 14.5809C16.204 14.4078 16.1044 14.2403 16.002 14.0729Z" fill="#511D06"/>
</g>
<path d="M12.2201 6.07154C12.2201 6.07154 12.8785 6.67329 12.754 7.28639C12.6295 7.89949 14.7847 6.08573 14.6519 5.87001C14.5163 5.65429 13.7804 4.7091 13.7168 4.27198C13.714 4.26914 13.0832 5.53224 12.2201 6.07154Z" fill="#E4AE84"/>
<path d="M13.75 2.48932C14.2314 3.76377 14.7238 4.42796 13.216 5.45264C12.6765 5.81879 11.9461 6.33822 11.6418 6.51137C11.13 6.80089 10.668 6.21901 9.86843 4.88211C9.22934 3.80919 9.09378 2.29347 9.09378 2.29347C9.30681 1.55547 10.4964 1.12119 11.1936 0.845867C12.4829 0.332111 13.1773 0.976435 13.75 2.48932Z" fill="#E4AE84"/>
<path d="M9.40088 3.57349C9.40088 3.57349 9.76607 5.01825 9.7633 5.15449C9.76054 5.29074 9.79097 5.50929 10.1368 5.36453C10.4965 5.21694 10.5241 5.0296 10.5241 5.0296L9.40088 3.57349Z" fill="#E4AE84"/>
<path d="M11.9987 3.62171C11.9987 3.62171 12.4607 5.05796 11.7442 5.55468C11.675 5.60293 11.7027 5.79595 11.6667 5.8811C11.4039 6.53962 10.8699 6.22739 10.8699 6.22739L10.8118 6.25577C10.9059 6.3835 10.9529 6.41189 11.0166 6.46582C11.1798 6.60774 11.2711 6.68721 11.4011 6.61909C12.8619 5.93219 13.0389 5.20555 13.0445 4.987C13.0583 4.618 11.8797 3.00861 11.9987 3.62171Z" fill="white"/>
<path d="M11.1079 5.11179C10.8229 5.24519 10.2502 5.42118 10.3 5.64825C10.3277 5.75611 10.4494 5.84978 10.4826 5.84126C10.5794 5.80436 10.9031 5.60567 11.0138 5.53471C11.1936 5.41834 11.4205 5.55458 11.5312 5.8441C11.639 6.13362 11.6861 6.02292 11.5367 6.16484C11.3873 6.30393 11.6584 6.27838 11.6584 6.27838L11.8604 5.89803C11.8604 5.90371 11.5533 4.90458 11.1079 5.11179Z" fill="white"/>
<path d="M12.4608 5.05805C12.4608 5.05805 12.4912 4.93316 12.4995 4.77988C12.4967 4.74298 12.494 4.7146 12.494 4.7146C12.4801 4.94735 12.4608 5.05805 12.4608 5.05805Z" fill="white"/>
<path d="M12.2477 1.93016C12.1702 1.76837 12.0706 1.62929 11.9738 1.50723C11.8466 1.34828 11.4731 1.18082 11.26 1.03889C11.2351 1.01902 11.2102 1.00199 11.1853 0.984964C11.1853 0.984964 11.1853 0.984964 11.1826 0.984964C11.1521 0.959418 11.1162 0.939549 11.0774 0.925357C10.9225 0.848719 10.7371 0.808981 10.4854 0.831688C10.4633 0.834527 10.4411 0.834527 10.4218 0.837365C10.3886 0.834527 10.3581 0.82885 10.3249 0.823173C10.1921 0.800466 10.0593 0.817496 9.91547 0.848719C9.66647 0.845881 9.44791 0.834527 9.25148 0.857234C9.11869 0.922518 8.99696 1.01051 8.90566 1.13256C8.82266 1.24042 8.76733 1.36531 8.72583 1.49588C8.68156 1.6378 8.63453 1.78256 8.64837 1.933C8.6622 2.07776 8.7037 2.21968 8.75903 2.35592C8.81989 2.51204 8.92503 2.62841 9.00802 2.77033C9.07719 2.88955 9.08549 3.03147 9.19615 3.1223C9.22382 3.14501 9.25978 3.17339 9.29852 3.1961C9.34832 3.19894 9.40365 3.19894 9.47005 3.19894C9.73011 3.19326 9.78267 3.09392 9.89887 2.93213C9.95143 2.88955 10.004 2.8413 10.0538 2.78169C10.1313 2.69086 10.2143 2.60854 10.3 2.53191C11.5395 1.82514 12.0817 3.99654 12.137 4.26619C12.1924 4.53584 12.3833 4.80265 12.3335 4.44785C12.3307 4.42798 12.4248 4.47339 12.3833 4.31444C12.3805 4.3116 12.3777 4.30876 12.3833 4.3116C12.4967 4.42514 12.5161 4.61815 12.5078 4.78278C12.5133 4.87645 12.5271 5.03824 12.5271 5.03824C12.5271 5.03824 12.6157 4.58125 12.635 4.15833C12.6489 3.82339 12.5022 2.83278 12.4082 2.4354C12.3722 2.17426 12.3362 2.04086 12.2477 1.93016Z" fill="white"/>
<path d="M9.24594 0.854308C9.24594 0.854308 9.60837 0.596011 10.0372 0.496666C10.466 0.397321 10.4217 0.261076 10.6901 0.156054C10.9585 0.0481942 11.4537 -0.0142512 11.7746 0.00561775C12.9311 0.0850937 13.1081 0.584657 13.3322 0.752124C13.5535 0.919592 13.9713 1.30278 13.9934 1.59798C14.0128 1.89317 13.9658 2.00671 14.1816 2.34164C14.4001 2.67658 14.2673 2.62265 14.2535 2.95474C14.2424 3.28684 14.3254 3.24143 14.3282 3.51959C14.331 3.79776 14.4278 3.78924 14.3227 3.98793C14.2175 4.18946 14.2978 4.18946 14.2535 4.34557C14.2092 4.50169 14.2701 4.52439 14.1401 4.6578C14.01 4.79121 13.584 5.46391 13.0528 5.24252C12.4026 4.97003 12.5548 4.65496 12.4912 4.61806C12.4275 4.58116 12.2449 3.55649 12.2449 3.55649C12.2449 3.55649 12.1675 2.84121 12.1204 2.77592C12.0734 2.71348 11.9351 2.25365 11.7608 2.08902C11.5837 1.9244 10.2945 1.33968 10.2392 1.32833C10.1866 1.31129 9.24594 0.854308 9.24594 0.854308Z" fill="white"/>
<path d="M11.8549 21.9807C11.5118 22.0574 10.6514 19.8264 11.1743 19.4829C12.292 18.8925 18.0023 15.2537 19.2196 16.5139C19.2196 16.5139 21.9557 18.3334 19.5958 19.8917C17.8584 21.0384 14.9839 21.1945 13.9686 21.4982C13.4014 21.6657 12.4442 21.9183 11.8549 21.9807Z" fill="#E4AE84"/>
<path d="M13.1358 19.8831C13.1828 20.0874 13.3184 21.5407 13.4733 21.7848C13.9602 22.554 14.1235 24.6403 13.8828 26.051C13.6808 27.2346 13.6836 29.23 13.6836 29.23L12.4275 29.951C12.4275 29.951 11.9987 27.6887 11.5146 25.1086C11.1604 23.2239 10.6265 22.2333 10.5048 21.3619C10.585 21.0269 12.9809 19.6759 13.1358 19.8831Z" fill="#E4AE84"/>
<path d="M12.3639 29.8828L12.1924 28.6992C12.1924 28.6992 13.1939 29.054 13.7112 28.7475L13.7417 29.3946C13.7417 29.3975 13.7112 30.0077 12.3639 29.8828Z" fill="white"/>
<path d="M13.4042 19.2389C13.4042 19.2389 11.877 19.1822 11.1743 19.4802C10.4716 19.7782 10.5269 20.0138 10.3526 20.4112C10.1257 20.9278 10.668 22.1483 10.668 22.1483C10.668 22.1483 11.877 20.2409 11.9102 20.2182C11.9406 20.1955 13.4042 19.2389 13.4042 19.2389Z" fill="#E4AE84"/>
<path d="M15.0918 30.5215C15.1527 30.7542 15.1693 30.9898 13.7528 31.3503C13.2382 31.4809 12.6295 31.5802 11.7719 31.8783C10.5075 32.3182 9.68585 32.321 9.23213 32.2614C8.85864 32.2132 8.53772 32.1451 8.50728 32.0571C8.50452 32.0429 8.49898 32.0287 8.49622 32.0173C8.50728 32.0656 8.51835 32.1053 8.52665 32.1366C8.55708 32.2245 8.87801 32.2898 9.2515 32.3409C9.70522 32.4005 10.4965 32.375 11.7774 31.9861C12.6544 31.7221 13.2575 31.5604 13.7721 31.4298C15.2329 31.0608 15.1693 30.8195 15.1056 30.5811C15.1029 30.5612 15.0973 30.5414 15.0918 30.5215Z" fill="#717375"/>
<path d="M14.3116 28.2337C14.2563 28.2281 14.2092 28.2933 14.1871 28.4069C14.1511 28.5999 14.2148 28.7645 14.2175 28.7702L14.2231 28.7674C14.2175 28.8298 14.2203 28.8951 14.2424 28.9689L14.3116 28.9462C14.2729 28.8156 14.2978 28.7134 14.331 28.5971C14.3448 28.5403 14.3614 28.4807 14.3697 28.4154C14.3918 28.2593 14.3365 28.2366 14.3116 28.2337ZM14.3005 28.4069C14.2922 28.4665 14.2784 28.5261 14.2618 28.58C14.259 28.5885 14.2563 28.5971 14.2535 28.6084C14.248 28.5545 14.2452 28.4892 14.259 28.4182C14.2701 28.3586 14.2867 28.3246 14.2978 28.3132C14.3033 28.3274 14.3061 28.3558 14.3005 28.4069Z" fill="#0D0B42"/>
<path fill-rule="evenodd" clip-rule="evenodd" d="M13.7721 30.811C13.4733 30.8961 13.2465 31.0267 12.8232 31.2055C12.3999 31.3844 11.7608 31.6426 11.2462 31.7817C10.7344 31.9208 9.98465 32.0258 9.66649 32.0627C9.13253 32.1252 8.57091 32.0429 8.55985 32.0343L8.48792 31.9009C8.48792 31.9009 8.50728 31.7732 8.59858 31.6795C8.68988 31.583 8.9112 31.4667 9.50602 31.1062C10.2668 30.6435 10.5048 30.459 10.8423 30.0503C11.1798 29.6416 11.6225 29.2357 11.7719 29.2385C11.9213 29.2413 12.2035 29.3435 12.7319 29.3719C13.7666 29.4315 13.2575 29.5649 13.8966 29.1335C14.1843 28.9405 14.1041 28.5658 14.1484 28.6368C14.1484 28.6368 14.2009 28.9405 14.425 29.1193C14.6989 29.3378 14.8705 29.7721 14.9313 30.2603C14.6602 30.513 14.0598 30.7287 13.7721 30.811Z" fill="white"/>
<path fill-rule="evenodd" clip-rule="evenodd" d="M12.3362 28.7389C12.2062 28.6339 12.1868 28.4891 12.0153 28.4182C11.924 28.3813 11.7497 28.5062 11.5948 28.9717C11.462 29.3747 11.094 29.7551 11.094 29.7551L11.1162 29.7466C10.6376 30.3001 10.1811 30.6038 10.1811 30.6038L10.2558 30.6946C10.8091 30.2433 11.296 29.8033 11.6363 29.4883C11.794 29.3861 12.0789 29.4145 12.1702 29.3322C12.4524 29.0824 12.4192 28.807 12.3362 28.7389Z" fill="#0D0B42"/>
<path fill-rule="evenodd" clip-rule="evenodd" d="M8.60411 31.9352C8.6539 32.0459 8.7535 32.06 8.8116 32.0657C8.8365 32.0686 8.86693 32.0686 8.8946 32.0714H8.89736C8.9278 32.0742 8.95823 32.0742 8.98866 32.0771C9.02186 32.0799 9.05506 32.0799 9.08826 32.0828H9.09103C9.12423 32.0828 9.15742 32.0828 9.19339 32.0856C9.19616 32.0856 9.19892 32.0856 9.20169 32.0856C9.23766 32.0856 9.27362 32.0856 9.30959 32.0856H9.31235C9.34832 32.0856 9.38705 32.0856 9.42302 32.0828C9.42579 32.0828 9.42855 32.0828 9.43132 32.0828C9.46728 32.0799 9.50325 32.0799 9.53922 32.0771C9.54198 32.0771 9.54475 32.0771 9.55028 32.0771C9.58901 32.0742 9.62775 32.0714 9.66371 32.0657C9.98187 32.0288 10.7289 31.9238 11.2434 31.7847C11.7553 31.6456 12.3971 31.3902 12.8204 31.2085C13.1552 31.0638 14.6934 30.567 14.9645 30.3116C14.959 30.2718 14.8981 30.1328 14.8926 30.093C14.8622 30.1299 14.7128 30.3116 14.6519 30.3627C14.248 30.6948 12.8342 31.1007 12.3611 31.305C11.8881 31.5094 10.8395 31.921 9.35385 31.9096C9.35385 31.9096 8.68434 31.8614 9.07719 31.5321C9.41749 31.2483 10.253 30.6976 10.253 30.6976L10.2198 30.5812C9.03569 31.464 8.8946 31.2284 8.62347 31.5151C8.57921 31.5605 8.46024 31.7308 8.49344 31.85C8.51834 31.8443 8.57367 31.8642 8.60411 31.9352Z" fill="#E50914"/>
<path d="M14.9092 30.1212C14.8428 29.6671 14.6823 29.3236 14.4223 29.1164C14.4084 29.1051 14.3974 29.0966 14.3863 29.0852C14.3227 29.1136 14.3005 29.176 14.4223 29.2981C14.6408 29.5166 14.8041 29.9907 14.8566 30.1638C14.8732 30.1468 14.8926 30.1354 14.9092 30.1212Z" fill="white"/>
<path fill-rule="evenodd" clip-rule="evenodd" d="M10.2419 30.9955C10.2419 30.9955 10.455 30.5613 10.04 30.7656C9.8878 30.8394 8.6622 31.6058 8.81713 31.7846C8.91949 31.901 8.88353 31.9209 9.19892 31.9776C9.51431 32.0316 10.8838 31.8158 10.6265 31.813C10.0649 31.8073 10.1064 31.5746 10.3803 31.2169C10.6514 30.8593 10.7759 30.7514 10.7759 30.7514L10.2419 30.9955Z" fill="#E50914"/>
<path d="M10.6293 30.8168C10.6293 30.8168 12.2533 31.4725 11.1134 31.7279C11.1134 31.7279 11.9434 31.586 12.0845 31.4043C12.2256 31.2227 11.8964 30.777 11.0664 30.4336L10.6293 30.8168Z" fill="#E50914"/>
<path d="M11.1632 30.2831C11.1632 30.2831 12.8785 31.0665 12.0873 31.427C12.0873 31.427 12.7236 31.2964 12.837 31.0977C13.0611 30.6918 12.4275 30.2462 11.6003 29.8999L11.1632 30.2831Z" fill="#E50914"/>
<path d="M11.7193 29.7893C11.7193 29.7893 13.761 30.7118 12.8896 31.1376C12.8896 31.1376 13.6864 30.9758 13.797 30.7771C13.9381 30.5245 12.8121 29.9483 13.667 29.3323C13.8385 29.2103 12.3556 29.5197 12.043 29.3919L11.7193 29.7893Z" fill="#E50914"/>
<path fill-rule="evenodd" clip-rule="evenodd" d="M14.5329 29.2188C14.497 29.1819 14.461 29.145 14.4223 29.1138C14.414 29.1081 14.4057 29.0996 14.3974 29.0939C14.2397 28.8668 14.2009 28.6398 14.2009 28.6398C14.0903 28.1288 13.9049 28.4694 13.9021 28.5518C13.8966 28.7334 13.9824 29.1223 13.2188 29.2784C12.5797 29.409 12.0928 29.2642 11.9821 29.2301C11.7387 29.1535 11.6501 29.1791 11.6252 29.1932C11.3015 29.4544 11.2849 29.5878 11.0332 29.9114C10.4494 30.55 10.087 30.7856 9.95697 30.8935C9.95697 30.8935 10.2253 31.1063 10.5463 30.9275C10.5573 30.9218 10.5684 30.9162 10.5795 30.9077C10.5905 30.8991 10.6016 30.8935 10.6127 30.8849C10.6154 30.8821 10.6182 30.8821 10.6182 30.8793C10.6265 30.8736 10.6376 30.8651 10.6459 30.8566C10.6569 30.848 10.6708 30.8367 10.6818 30.8282C11.083 30.4819 11.7055 29.8262 11.8604 29.6843C12.0181 29.5424 12.3999 29.5055 12.6821 29.5197C13.5093 29.5622 13.5729 29.3181 14.0875 29.3465C14.2673 29.3579 14.5302 29.5083 14.7847 29.8858C14.7902 29.8915 14.6796 29.514 14.6851 29.514C14.6879 29.514 14.4416 29.2954 14.4416 29.2954C14.4472 29.2954 14.4527 29.2926 14.4582 29.2898C14.4582 29.2898 14.4582 29.2898 14.461 29.2898C14.4665 29.2869 14.4721 29.2812 14.4804 29.2784C14.4804 29.2784 14.4831 29.2784 14.4831 29.2756C14.4887 29.2699 14.4942 29.2642 14.497 29.2585C14.5163 29.25 14.5246 29.2358 14.5329 29.2188Z" fill="white"/>
<path fill-rule="evenodd" clip-rule="evenodd" d="M11.747 29.3748C11.758 29.4145 11.7995 29.4372 11.8383 29.4258C11.8798 29.4145 11.9019 29.3748 11.8936 29.335C11.8825 29.2953 11.841 29.2726 11.8023 29.2839C11.7608 29.2953 11.7359 29.335 11.747 29.3748Z" fill="white"/>
<path fill-rule="evenodd" clip-rule="evenodd" d="M11.7635 29.369C11.7718 29.4003 11.805 29.4173 11.8355 29.4088C11.8687 29.4003 11.8853 29.369 11.8797 29.3378C11.8714 29.3066 11.8382 29.2896 11.8078 29.2981C11.7746 29.3066 11.7552 29.3378 11.7635 29.369Z" fill="black"/>
<path fill-rule="evenodd" clip-rule="evenodd" d="M11.7967 29.4231C11.7967 29.4231 11.4592 29.5253 11.3652 29.4061C11.3652 29.4061 11.3569 29.3181 11.4122 29.3408C11.5699 29.4004 11.6059 29.3465 11.8023 29.2954C11.805 29.2982 11.9046 29.372 11.7967 29.4231Z" fill="#BCBEC0"/>
<path fill-rule="evenodd" clip-rule="evenodd" d="M11.4343 29.7949C11.4399 29.8347 11.4786 29.863 11.5201 29.8545C11.5616 29.8489 11.5893 29.8091 11.5837 29.7694C11.5782 29.7296 11.5395 29.7013 11.498 29.7098C11.4565 29.7183 11.4288 29.7552 11.4343 29.7949Z" fill="white"/>
<path fill-rule="evenodd" clip-rule="evenodd" d="M11.4482 29.7948C11.4537 29.826 11.4841 29.8488 11.5146 29.8431C11.5478 29.8374 11.5699 29.8062 11.5644 29.775C11.5588 29.7437 11.5284 29.721 11.498 29.7267C11.4675 29.7324 11.4454 29.7608 11.4482 29.7948Z" fill="black"/>
<path fill-rule="evenodd" clip-rule="evenodd" d="M11.4786 29.8518C11.4786 29.8518 11.1328 29.9171 11.0526 29.7894C11.0526 29.7894 11.0526 29.7014 11.1079 29.7298C11.2573 29.8064 11.2988 29.7581 11.5007 29.7269C11.5007 29.7269 11.5893 29.8121 11.4786 29.8518Z" fill="#BCBEC0"/>
<path fill-rule="evenodd" clip-rule="evenodd" d="M11.0913 30.164C11.0913 30.2038 11.1272 30.235 11.1687 30.235C11.2102 30.2322 11.2434 30.1981 11.2434 30.1584C11.2434 30.1186 11.2075 30.0874 11.166 30.0874C11.1245 30.0902 11.0913 30.1243 11.0913 30.164Z" fill="white"/>
<path fill-rule="evenodd" clip-rule="evenodd" d="M11.1079 30.1641C11.1079 30.1953 11.1356 30.2208 11.1688 30.218C11.202 30.218 11.2269 30.1896 11.2269 30.1584C11.2269 30.1272 11.1992 30.1016 11.166 30.1045C11.1328 30.1045 11.1051 30.1328 11.1079 30.1641Z" fill="black"/>
<path fill-rule="evenodd" clip-rule="evenodd" d="M11.13 30.2236C11.13 30.2236 10.7925 30.2491 10.7289 30.1157C10.7289 30.1157 10.7399 30.0277 10.7897 30.0618C10.928 30.1555 10.964 30.1072 11.166 30.1015C11.166 30.1015 11.2434 30.198 11.13 30.2236Z" fill="#BCBEC0"/>
<path fill-rule="evenodd" clip-rule="evenodd" d="M10.715 30.5016C10.7095 30.5414 10.7372 30.5783 10.7787 30.584C10.8202 30.5896 10.8589 30.5613 10.8644 30.5215C10.87 30.4818 10.8423 30.4449 10.8008 30.4392C10.7593 30.4335 10.7206 30.4619 10.715 30.5016Z" fill="white"/>
<path fill-rule="evenodd" clip-rule="evenodd" d="M10.7289 30.5045C10.7233 30.5357 10.7455 30.5641 10.7787 30.5698C10.8119 30.5726 10.8423 30.5499 10.8478 30.5187C10.8534 30.4875 10.8312 30.4562 10.798 30.4534C10.7648 30.4506 10.7344 30.4704 10.7289 30.5045Z" fill="black"/>
<path fill-rule="evenodd" clip-rule="evenodd" d="M10.7399 30.5671C10.7399 30.5671 10.4356 30.5557 10.3969 30.4109C10.3969 30.4109 10.4245 30.3258 10.466 30.3684C10.585 30.4847 10.596 30.4251 10.7952 30.4507C10.798 30.4535 10.8561 30.5614 10.7399 30.5671Z" fill="#BCBEC0"/>
<path fill-rule="evenodd" clip-rule="evenodd" d="M11.6086 29.5735C11.6197 29.6132 11.6612 29.6359 11.6999 29.6246C11.7414 29.6132 11.7635 29.5735 11.7552 29.5338C11.7442 29.494 11.7027 29.4713 11.6639 29.4827C11.6224 29.494 11.5976 29.5338 11.6086 29.5735Z" fill="white"/>
<path fill-rule="evenodd" clip-rule="evenodd" d="M11.6252 29.5707C11.6335 29.6019 11.6667 29.619 11.6971 29.6104C11.7303 29.6019 11.7497 29.5679 11.7414 29.5395C11.7331 29.5083 11.6999 29.4912 11.6695 29.4997C11.6363 29.5054 11.6169 29.5395 11.6252 29.5707Z" fill="black"/>
<path fill-rule="evenodd" clip-rule="evenodd" d="M11.4814 29.2783C11.4814 29.2783 11.2711 29.3805 11.5007 29.5281C11.6446 29.6189 11.6778 29.5877 11.6861 29.5593C11.6972 29.5253 11.7165 29.5082 11.6086 29.4742C11.4786 29.4316 11.4371 29.301 11.4814 29.2783Z" fill="white"/>
<path fill-rule="evenodd" clip-rule="evenodd" d="M11.2739 29.9795C11.2794 30.0192 11.3181 30.0476 11.3596 30.0391C11.4011 30.0334 11.4288 29.9937 11.4233 29.9539C11.4177 29.9142 11.379 29.8858 11.3375 29.8943C11.296 29.9029 11.2683 29.9398 11.2739 29.9795Z" fill="white"/>
<path fill-rule="evenodd" clip-rule="evenodd" d="M11.2905 29.9794C11.296 30.0106 11.3264 30.0333 11.3569 30.0276C11.3901 30.022 11.4122 29.9908 11.4067 29.9595C11.4011 29.9283 11.3707 29.9056 11.3403 29.9113C11.3071 29.9169 11.2849 29.9453 11.2905 29.9794Z" fill="black"/>
<path fill-rule="evenodd" clip-rule="evenodd" d="M11.177 29.6587C11.177 29.6587 10.9612 29.7524 11.1715 29.9227C11.3043 30.0305 11.3403 29.9993 11.3513 29.9709C11.3652 29.9397 11.3873 29.9227 11.2822 29.8773C11.1604 29.8262 11.13 29.6757 11.177 29.6587Z" fill="white"/>
<path fill-rule="evenodd" clip-rule="evenodd" d="M10.9114 30.3286C10.9114 30.3684 10.9474 30.3996 10.9889 30.3996C11.0304 30.3967 11.0636 30.3627 11.0608 30.3229C11.0608 30.2832 11.0249 30.252 10.9834 30.2548C10.9419 30.2548 10.9087 30.2889 10.9114 30.3286Z" fill="white"/>
<path fill-rule="evenodd" clip-rule="evenodd" d="M10.9253 30.3285C10.9253 30.3598 10.953 30.3853 10.9862 30.3825C11.0194 30.3796 11.0443 30.3541 11.0443 30.32C11.0443 30.2888 11.0166 30.2632 10.9834 30.2661C10.953 30.2689 10.9253 30.2973 10.9253 30.3285Z" fill="black"/>
<path fill-rule="evenodd" clip-rule="evenodd" d="M10.8699 30.0164C10.8699 30.0164 10.632 30.0674 10.8201 30.2605C10.9391 30.3825 10.9778 30.357 10.9917 30.3314C11.0083 30.3002 11.0332 30.286 10.9363 30.2321C10.8174 30.1611 10.8201 30.0277 10.8699 30.0164Z" fill="white"/>
<path fill-rule="evenodd" clip-rule="evenodd" d="M10.5075 30.6352C10.502 30.6749 10.5296 30.7118 10.5711 30.7175C10.6126 30.7232 10.6514 30.6948 10.6569 30.6551C10.6624 30.6153 10.6348 30.5784 10.5933 30.5727C10.5518 30.5671 10.513 30.5955 10.5075 30.6352Z" fill="white"/>
<path fill-rule="evenodd" clip-rule="evenodd" d="M10.5241 30.638C10.5186 30.6693 10.5407 30.6976 10.5739 30.7033C10.6071 30.7062 10.6375 30.6834 10.6431 30.6522C10.6486 30.621 10.6265 30.5926 10.5933 30.5869C10.5601 30.5841 10.5296 30.604 10.5241 30.638Z" fill="black"/>
<path fill-rule="evenodd" clip-rule="evenodd" d="M10.549 30.3145C10.549 30.3145 10.2779 30.3286 10.4301 30.55C10.5241 30.6891 10.5684 30.6721 10.5878 30.6494C10.6099 30.621 10.6348 30.6125 10.5518 30.5387C10.4467 30.4535 10.4992 30.3173 10.549 30.3145Z" fill="white"/>
<path fill-rule="evenodd" clip-rule="evenodd" d="M11.5007 29.3209C11.5007 29.3209 12.1149 28.8781 11.8244 28.617C11.5339 28.3587 11.462 29.1052 11.4758 29.2897L11.5173 29.2698C11.5173 29.2698 11.5339 28.7901 11.664 28.6936C11.794 28.5943 11.8327 28.722 11.8133 28.7873C11.7967 28.8441 11.7497 29.0342 11.5837 29.2329C11.5727 29.2443 11.5146 29.2613 11.5035 29.2727C11.4869 29.2897 11.5173 29.3039 11.5007 29.3209Z" fill="#BCBEC0"/>
<path fill-rule="evenodd" clip-rule="evenodd" d="M11.5478 29.2103C11.5478 29.2103 11.5699 28.7164 11.296 28.6085C11.0221 28.5007 10.9031 28.688 11.2019 29.0059C11.5007 29.3238 11.5007 29.3238 11.5007 29.3238L11.5367 29.267C11.5367 29.267 11.3098 29.0513 11.2268 28.9179C11.1438 28.7845 11.0664 28.6341 11.1936 28.6681C11.3209 28.7022 11.4067 28.7448 11.4648 28.9832C11.4924 29.0967 11.4869 29.2046 11.5007 29.2529C11.5146 29.3039 11.545 29.2926 11.545 29.2926L11.5478 29.2103Z" fill="#BCBEC0"/>
<path fill-rule="evenodd" clip-rule="evenodd" d="M11.462 29.3067C11.462 29.3067 11.4039 29.3634 11.2241 29.4344C11.0442 29.5054 10.9336 29.7324 10.9391 29.7466C10.9446 29.7608 10.8948 29.7835 10.8948 29.7835C10.8948 29.7835 10.8533 29.7665 10.8672 29.6813C10.881 29.599 10.917 29.4401 11.1881 29.3748C11.4592 29.3067 11.5229 29.2471 11.5229 29.2471C11.5229 29.2471 11.6114 29.2726 11.462 29.3067Z" fill="#D1D3D4"/>
<path fill-rule="evenodd" clip-rule="evenodd" d="M11.545 29.2329C11.545 29.2329 11.3486 29.4316 11.2241 29.5196C11.0996 29.6104 10.9751 29.8148 10.8948 29.846C10.8146 29.8772 10.8533 29.934 10.8533 29.934C10.8533 29.934 10.9087 29.9539 11.0968 29.7126C11.2849 29.4713 11.3956 29.4458 11.462 29.3748C11.5312 29.301 11.5616 29.284 11.545 29.2329Z" fill="#D1D3D4"/>
<path d="M15.0116 30.3143C14.9784 30.2717 14.9147 30.144 14.8926 30.0901C14.7321 30.1923 14.0349 30.7401 12.8564 31.1176C12.4193 31.2567 11.7248 31.5377 11.213 31.6739C10.7012 31.813 10.0012 31.9549 9.68585 31.9918C9.37046 32.0287 9.03017 32.0259 8.81437 32.006C8.75628 32.0003 8.65668 31.972 8.62348 31.8386C8.59305 31.7193 8.52941 31.6115 8.48238 31.7506C8.45472 31.8357 8.50728 32.0401 8.52111 32.094C8.55155 32.182 8.87247 32.2473 9.24596 32.2984C9.69969 32.358 10.502 32.3296 11.7857 31.9407C12.6599 31.6768 13.2548 31.5178 13.7666 31.3901C15.2274 31.0183 15.1637 30.7798 15.1001 30.5386C15.078 30.4534 15.0337 30.3399 15.0116 30.3143Z" fill="#D3D5D6"/>
<path d="M14.7045 30.5557C14.7045 30.5557 13.8551 31.0269 13.4623 31.1347C12.8481 31.305 13.2658 31.3306 13.916 31.2142C15.0116 31.0212 15.0973 30.428 14.7045 30.5557Z" fill="#ABADB0"/>
<path d="M10.9363 32.0884C10.9363 32.0884 9.85184 32.3978 9.03293 32.2189C9.03293 32.2189 9.47558 32.1707 9.78544 32.1395C10.9197 32.0203 11 31.7449 10.9363 32.0884Z" fill="#ABADB0"/>
<path d="M21.3499 19.7412C20.423 20.2947 19.5903 20.8284 17.4157 21.1094C14.9009 21.4358 13.8081 22.3072 13.8081 22.3072L12.2228 18.8046L16.4281 16.6048L16.6992 16.091L21.2752 15.0493C21.2752 15.0493 22.8549 18.8443 21.3499 19.7412Z" fill="#E50914"/>
<path d="M16.5498 15.4978C16.5498 15.4978 18.5002 15.248 20.9321 14.3738L21.2724 15.0493C21.2724 15.0493 17.7754 16.3323 16.666 16.2131L16.5498 15.4978Z" fill="white"/>
<path d="M15.2744 5.81604C14.9728 5.73089 14.0515 6.1084 13.8136 6.28722C13.7998 6.28438 13.6393 6.41779 13.584 6.48023C13.0832 6.90883 12.6544 8.7084 12.6931 9.02346C12.8425 10.2695 13.382 11.1438 14.0709 11.4049C14.5136 11.5724 15.1028 13.1165 15.4265 13.6615C16.0961 14.7798 16.2621 15.9492 16.4308 16.6049C17.4019 16.0741 18.8405 16.2984 19.2361 15.9804C19.9665 15.5973 21.1285 14.9274 21.1285 14.9274C20.9155 14.1156 19.7673 12.6027 18.8793 10.9025C16.9399 7.20403 16.7268 6.23045 15.2744 5.81604ZM15.8443 10.1503C14.6906 10.806 12.8702 8.24573 14.1041 6.76124C14.1594 6.66757 14.1816 6.71014 14.3199 6.69595C15.385 6.46036 17.6066 8.49835 15.8443 10.1503Z" fill="#E50914"/>
<path d="M14.4306 5.54907C14.4306 5.54907 15.1997 6.15082 15.4265 6.24449C15.6562 6.33532 16.9869 7.87374 16.9869 7.87374L16.5194 6.72986C16.5194 6.72986 15.3684 5.69383 14.4306 5.54907Z" fill="#E50914"/>
<path d="M8.3551 9.73881C8.29977 9.67636 8.20017 9.61959 8.12824 9.57418C7.68282 9.30169 6.04776 8.94121 5.07115 8.85889C4.09177 8.77942 3.39736 8.50977 3.39736 8.50977L3.20923 9.66501C3.20923 9.66501 3.88151 9.75867 5.12925 10.3264C6.37422 10.894 7.40616 11.0502 8.16698 11.0047C8.4381 10.9707 8.51557 9.87505 8.3551 9.73881Z" fill="#E4AE84"/>
<path d="M4.22457 8.75668C4.22457 8.75668 3.72105 8.6545 3.39183 8.44445C3.1124 8.26563 3.00727 8.22022 2.53418 7.95624C2.02513 7.66956 2.01959 7.60712 1.88126 7.46803C1.74293 7.32895 1.35561 7.55319 1.74293 7.93354C2.13302 8.31388 2.28242 8.3593 2.28242 8.3593C2.28242 8.3593 1.5299 8.04423 1.13151 7.91083C0.733124 7.77742 0.48413 7.68092 0.448164 7.88812C0.428798 7.99314 0.470297 8.05275 0.995951 8.25428C1.5216 8.45581 2.11089 8.69423 2.11089 8.69423C2.11089 8.69423 0.160437 7.99598 0.0829727 8.23441C0.0331739 8.38768 0.105105 8.47284 0.74419 8.67436C1.38327 8.87589 2.00023 9.04052 2.00023 9.04052C2.00023 9.04052 0.307067 8.67436 0.165971 8.69991C0.0829727 8.7141 -0.265619 8.89008 0.412198 9.03201C1.09001 9.17393 1.97809 9.36126 1.97809 9.36126C1.97809 9.36126 0.533928 9.11432 0.511796 9.31869C0.489663 9.52873 1.12875 9.57131 2.01683 9.69336C2.9049 9.81541 2.8966 9.7331 3.14283 9.68484C3.38906 9.63659 4.04474 9.9034 4.04474 9.9034L4.22457 8.75668Z" fill="#E4AE84"/>
<path d="M7.69665 10.1276C7.80455 10.1276 7.59152 9.53717 7.59152 9.53717C7.59152 9.53717 10.0289 8.29678 10.751 8.38193C10.751 8.38193 12.1315 7.3232 12.837 7.28346C14.5938 6.24744 15.6783 6.92866 15.883 8.08106C16.0795 9.16818 14.9092 9.78128 13.6753 9.86643C12.2007 9.96861 11.9296 10.0736 11.343 10.3092C10.5546 10.6271 8.4796 10.8798 8.12271 10.8826C7.97885 10.3773 7.56386 10.6385 7.69665 10.1276Z" fill="#E4AE84"/>
<g opacity="0.26">
<path d="M12.9421 9.72731C12.6793 9.69041 12.4165 9.66771 12.1564 9.64216C12.0264 9.63081 11.8964 9.61662 11.7636 9.60242C11.6335 9.58823 11.5035 9.5712 11.3735 9.54565C11.4952 9.60526 11.6252 9.63932 11.7553 9.66771C11.8853 9.69609 12.0181 9.71312 12.1481 9.72731C12.2809 9.73867 12.4137 9.74718 12.5465 9.74718C12.6793 9.74718 12.8093 9.74151 12.9421 9.72731Z" fill="#511D06"/>
<path d="M9.01355 10.647C8.94992 10.576 8.87799 10.5278 8.81159 10.4767L8.70923 10.4029C8.67326 10.3773 8.64006 10.3518 8.6041 10.3206C8.60963 10.3688 8.63453 10.4142 8.66219 10.4511C8.68986 10.488 8.72583 10.5192 8.76179 10.5476C8.79776 10.576 8.83926 10.5959 8.88075 10.6158C8.92225 10.6299 8.96652 10.6441 9.01355 10.647Z" fill="#511D06"/>
</g>
</g>
<defs>
<clipPath id="clip0_158_2135">
<rect width="22" height="39" fill="white"/>
</clipPath>
</defs>
</svg>
