<svg width="29" height="27" viewBox="0 0 29 27" fill="none" xmlns="http://www.w3.org/2000/svg">
<g clip-path="url(#clip0_158_2848)">
<path d="M12.2259 15.3914C12.054 15.01 14.2362 13.9285 14.7638 14.4555C15.723 15.6155 21.5062 20.9479 20.3552 22.6624C18.4288 25.6078 16.4024 22.8197 16.7581 23.1737C18.5087 24.9236 13.4809 18.5963 12.8774 17.4834C12.5456 16.87 12.4417 16.0599 12.2259 15.3914Z" fill="#D1A07A"/>
<path d="M14.9556 14.0466C14.9556 14.0466 13.8246 12.6073 13.0132 12.1905C12.2019 11.7697 12.03 11.9939 11.5345 12.1315C10.891 12.3085 10.2036 13.7084 10.2036 13.7084C10.2036 13.7084 12.8653 13.3977 12.9133 13.4095C12.9613 13.4213 14.9556 14.0466 14.9556 14.0466Z" fill="#D1A07A"/>
<path d="M12.9533 14.3928C12.8334 14.6051 11.6344 16.7168 11.5784 17.0511C11.4106 18.101 10.2915 20.0319 8.96458 21.0582C7.85349 21.9194 6.28679 23.6418 6.28679 23.6418L4.59219 23.2643C4.59219 23.2643 5.98704 20.9756 7.58572 18.3645C8.75275 16.4612 9.4162 14.8529 9.99572 14.0074C10.3195 13.7793 12.9773 14.09 12.9533 14.3928Z" fill="#D1A07A"/>
<path d="M10.5113 13.3272C10.3035 12.9615 12.3698 11.6795 12.9453 12.1553C14.0124 13.2171 20.2952 17.9714 19.32 19.7921C19.32 19.7921 18.2649 23.5279 15.659 21.3886C13.7406 19.8157 12.078 16.4023 11.3706 15.3524C10.9749 14.7664 10.7911 13.9721 10.5113 13.3272Z" fill="#D1A07A"/>
<path d="M4.5842 23.1542L5.35956 21.998C5.35956 21.998 5.97904 23.0991 6.68646 23.2446L6.20286 23.8266C6.20686 23.8306 5.69528 24.3339 4.5842 23.1542Z" fill="white"/>
<path d="M14.3961 13.7674C14.3961 13.7674 13.5368 13.0439 12.7255 12.6231C11.9141 12.2023 11.7423 12.4265 11.2467 12.5641C10.6032 12.7411 9.9158 14.141 9.9158 14.141C9.9158 14.141 12.5776 13.8304 12.6256 13.8421C12.6735 13.8579 14.3961 13.7674 14.3961 13.7674Z" fill="#D1A07A"/>
<path d="M7.71761 25.4502C7.7296 25.7294 7.69763 26.0007 6.03101 26.0519C5.42751 26.0715 4.72009 26.0283 3.69694 26.1502C2.18219 26.3271 1.26295 26.1266 0.767365 25.9417C0.359702 25.7923 0.0159868 25.635 0.00399669 25.5288C0.00399669 25.5131 0.00399669 25.4974 0 25.4817C0 25.5367 0.00399669 25.5878 0.00799338 25.6232C0.0199835 25.7294 0.363699 25.8867 0.771362 26.0361C1.26295 26.217 2.15422 26.39 3.67696 26.2721C4.72009 26.1934 5.43151 26.162 6.03501 26.1462C7.75358 26.0951 7.7376 25.808 7.72161 25.521C7.71761 25.4974 7.71761 25.4738 7.71761 25.4502Z" fill="#717375"/>
<path d="M7.3739 22.6622C7.31394 22.6426 7.246 22.7055 7.19404 22.8274C7.11011 23.0398 7.14209 23.2403 7.14209 23.2482H7.15008C7.1301 23.315 7.11811 23.3937 7.1261 23.4802L7.21003 23.4723C7.19404 23.315 7.25 23.2049 7.31394 23.0791C7.34592 23.0162 7.37789 22.9532 7.40187 22.8825C7.45783 22.7134 7.40187 22.674 7.3739 22.6622ZM7.32194 22.8549C7.29796 22.9218 7.26998 22.9808 7.23801 23.0398C7.23401 23.0516 7.23001 23.0594 7.22202 23.0712C7.22602 23.0083 7.242 22.9336 7.26998 22.8589C7.29796 22.792 7.32194 22.7606 7.33792 22.7488C7.34192 22.7645 7.34192 22.7999 7.32194 22.8549Z" fill="white"/>
<path fill-rule="evenodd" clip-rule="evenodd" d="M6.1709 25.4425C5.81919 25.4621 5.53542 25.5526 5.01985 25.6469C4.50428 25.7413 3.72892 25.875 3.12542 25.9025C2.52192 25.9301 1.65863 25.8593 1.29493 25.82C0.683439 25.7571 0.0759416 25.5211 0.0639515 25.5093L0.0159912 25.3402C0.0159912 25.3402 0.0639515 25.2026 0.187849 25.1161C0.311746 25.0296 0.587518 24.9548 1.3349 24.6953C2.29011 24.365 2.59785 24.2155 3.07346 23.838C3.54507 23.4605 4.13258 23.1105 4.30045 23.1538C4.46831 23.197 4.76007 23.3819 5.33959 23.547C6.48264 23.8734 5.88314 23.897 6.69446 23.5706C7.06216 23.4212 7.05816 22.9808 7.09413 23.0712C7.09413 23.0712 7.08214 23.4291 7.28997 23.6886C7.54576 24.0071 7.63768 24.538 7.58972 25.1082C7.23402 25.3323 6.51461 25.4228 6.1709 25.4425Z" fill="white"/>
<path fill-rule="evenodd" clip-rule="evenodd" d="M5.04783 22.7332C4.92793 22.5798 4.93992 22.4107 4.76406 22.2888C4.67214 22.2259 4.44832 22.3203 4.16855 22.8079C3.92476 23.2287 3.42517 23.5668 3.42517 23.5668L3.45315 23.5629C2.7897 24.0702 2.21017 24.2983 2.21017 24.2983L2.27012 24.4202C2.99353 24.0505 3.64099 23.673 4.09262 23.4017C4.29245 23.327 4.60419 23.4292 4.72409 23.3584C5.09978 23.1539 5.12776 22.8315 5.04783 22.7332Z" fill="white"/>
<path fill-rule="evenodd" clip-rule="evenodd" d="M0.135888 25.4152C0.167862 25.5528 0.275772 25.5922 0.33972 25.6118C0.367696 25.6236 0.39967 25.6315 0.431643 25.6393H0.43564C0.467614 25.6511 0.503584 25.659 0.535557 25.6708C0.571528 25.6787 0.607498 25.6905 0.647465 25.7023H0.651462C0.687432 25.7101 0.727399 25.7219 0.763369 25.7298C0.767366 25.7298 0.767366 25.7337 0.771362 25.7337C0.811329 25.7416 0.851296 25.7534 0.891263 25.7613C0.93123 25.7691 0.975194 25.777 1.01916 25.7848C1.02315 25.7848 1.02315 25.7848 1.02715 25.7888C1.06712 25.7966 1.10708 25.8045 1.15105 25.8084C1.15504 25.8084 1.15904 25.8084 1.16304 25.8124C1.207 25.8202 1.25097 25.8242 1.29493 25.8281C1.65863 25.8674 2.51792 25.9382 3.12541 25.9107C3.72891 25.8832 4.50427 25.7573 5.01985 25.6551C5.42751 25.5764 7.26199 25.4034 7.62169 25.1832C7.62569 25.136 7.58972 24.963 7.58972 24.9158C7.54576 24.9512 7.33793 25.1163 7.25799 25.1596C6.73043 25.4349 5.05582 25.5371 4.4763 25.6511C3.90077 25.7652 2.63382 25.9618 0.975194 25.5764C0.975194 25.5764 0.235805 25.3523 0.751379 25.0809C1.19501 24.845 2.25813 24.4321 2.25813 24.4321L2.24614 24.2905C0.719405 24.9944 0.615491 24.6916 0.243799 24.9472C0.183848 24.9905 0.0119907 25.1517 0.0199841 25.2933C0.059951 25.2894 0.115905 25.3287 0.135888 25.4152Z" fill="#E50914"/>
<path d="M7.60572 24.9511C7.63769 24.4202 7.53777 23.9916 7.29398 23.6888C7.28199 23.673 7.27 23.6573 7.262 23.6455C7.18207 23.6612 7.1421 23.7242 7.25401 23.8972C7.44585 24.196 7.52179 24.778 7.53777 24.9865C7.55776 24.9707 7.58174 24.9629 7.60572 24.9511Z" fill="white"/>
<path fill-rule="evenodd" clip-rule="evenodd" d="M2.18618 24.7663C2.18618 24.7663 2.5259 24.3298 2.01433 24.4517C1.82648 24.4989 0.279763 25.0533 0.411653 25.2971C0.495584 25.4544 0.45162 25.4702 0.791339 25.6117C1.13106 25.7533 2.71375 25.8555 2.42599 25.7848C1.79851 25.6353 1.90242 25.3876 2.2861 25.0494C2.67378 24.7112 2.83765 24.6208 2.83765 24.6208L2.18618 24.7663Z" fill="#E50914"/>
<path d="M2.65781 24.6599C2.65781 24.6599 4.32043 25.8121 2.98554 25.816C2.98554 25.816 3.94874 25.8632 4.14458 25.6941C4.34441 25.525 4.08063 24.9351 3.23333 24.3374L2.65781 24.6599Z" fill="#E50914"/>
<path d="M3.3812 24.1882C3.3812 24.1882 5.11576 25.5055 4.14856 25.7179C4.14856 25.7179 4.89194 25.7297 5.0638 25.5331C5.40752 25.132 4.80402 24.4635 3.95672 23.8657L3.3812 24.1882Z" fill="#E50914"/>
<path d="M4.11661 23.771C4.11661 23.771 6.1829 25.3283 5.11178 25.5957C5.11178 25.5957 6.03902 25.6153 6.21087 25.4148C6.4267 25.1631 5.30363 24.2272 6.39872 23.7435C6.61854 23.6491 4.88797 23.6255 4.56823 23.4014L4.11661 23.771Z" fill="#E50914"/>
<path fill-rule="evenodd" clip-rule="evenodd" d="M7.39389 23.8344C7.36591 23.7833 7.33394 23.7361 7.29397 23.6889C7.28598 23.681 7.27798 23.6693 7.26999 23.6575C7.14609 23.3625 7.15808 23.0951 7.15808 23.0951C7.15409 22.4895 6.87032 22.8277 6.84634 22.9221C6.79838 23.1266 6.80637 23.5867 5.91111 23.5709C5.16773 23.5591 4.65615 23.2721 4.54025 23.2052C4.28846 23.0597 4.18055 23.0637 4.14857 23.0715C3.72892 23.2839 3.67696 23.4333 3.32126 23.7361C2.51792 24.3102 2.0623 24.4872 1.89044 24.5737C1.89044 24.5737 2.14223 24.8844 2.5419 24.7585C2.55389 24.7546 2.56988 24.7507 2.58187 24.7467C2.59786 24.7428 2.60985 24.7349 2.62583 24.731C2.62983 24.731 2.62983 24.7271 2.63383 24.7271C2.64582 24.7231 2.65781 24.7153 2.6698 24.7113C2.68578 24.7035 2.70177 24.6956 2.71776 24.6877C3.24532 24.3967 4.09262 23.8108 4.30045 23.6889C4.50828 23.5709 4.94392 23.6221 5.25965 23.7125C6.1749 23.9681 6.29879 23.7086 6.87032 23.8737C7.07016 23.9288 7.32994 24.1687 7.52578 24.6602C7.52978 24.6681 7.49381 24.2159 7.5018 24.2159C7.5018 24.2159 7.27798 23.9052 7.28198 23.9052C7.28997 23.9052 7.29397 23.9052 7.30196 23.9052C7.30196 23.9052 7.30196 23.9052 7.30596 23.9052C7.31395 23.9052 7.32195 23.9013 7.32994 23.8973H7.33394C7.34193 23.8934 7.34992 23.8895 7.35392 23.8816C7.36991 23.8619 7.3819 23.8501 7.39389 23.8344Z" fill="white"/>
<path fill-rule="evenodd" clip-rule="evenodd" d="M4.24447 23.3071C4.24847 23.3542 4.28844 23.3896 4.3364 23.3857C4.38436 23.3818 4.42033 23.3424 4.41633 23.2953C4.41234 23.2481 4.37237 23.2127 4.32441 23.2166C4.27645 23.2205 4.24048 23.2599 4.24447 23.3071Z" fill="white"/>
<path fill-rule="evenodd" clip-rule="evenodd" d="M4.26047 23.3031C4.26047 23.3385 4.29244 23.3699 4.33241 23.366C4.36838 23.366 4.40035 23.3346 4.39636 23.2952C4.39636 23.2559 4.36038 23.2284 4.32441 23.2323C4.28844 23.2362 4.26047 23.2677 4.26047 23.3031Z" fill="white"/>
<path fill-rule="evenodd" clip-rule="evenodd" d="M4.28844 23.374C4.28844 23.374 3.88877 23.4016 3.80884 23.2482C3.80884 23.2482 3.82083 23.1459 3.87678 23.1853C4.04065 23.2914 4.0926 23.2403 4.32441 23.2325C4.32841 23.2364 4.42033 23.3426 4.28844 23.374Z" fill="#BCBEC0"/>
<path fill-rule="evenodd" clip-rule="evenodd" d="M3.79684 23.7044C3.79285 23.7516 3.82882 23.7909 3.87678 23.7949C3.92474 23.7988 3.9647 23.7634 3.9687 23.7162C3.9727 23.669 3.93673 23.6297 3.88877 23.6258C3.83681 23.6218 3.79684 23.6612 3.79684 23.7044Z" fill="white"/>
<path fill-rule="evenodd" clip-rule="evenodd" d="M3.81284 23.7083C3.80884 23.7476 3.84082 23.7791 3.87679 23.7791C3.91276 23.7791 3.94473 23.7516 3.94873 23.7162C3.95272 23.6769 3.92075 23.6454 3.88478 23.6454C3.84881 23.6415 3.81684 23.669 3.81284 23.7083Z" fill="white"/>
<path fill-rule="evenodd" clip-rule="evenodd" d="M3.83282 23.7791C3.83282 23.7791 3.43315 23.7634 3.3732 23.6022C3.3732 23.6022 3.39318 23.5039 3.44914 23.5471C3.59701 23.673 3.65696 23.6258 3.88877 23.6415C3.88478 23.6454 3.96471 23.7634 3.83282 23.7791Z" fill="#BCBEC0"/>
<path fill-rule="evenodd" clip-rule="evenodd" d="M3.32523 24.0349C3.31724 24.082 3.34921 24.1253 3.39717 24.1332C3.44513 24.141 3.48909 24.1096 3.49709 24.0663C3.50508 24.0191 3.47311 23.9759 3.42914 23.968C3.38118 23.9601 3.33722 23.9916 3.32523 24.0349Z" fill="white"/>
<path fill-rule="evenodd" clip-rule="evenodd" d="M3.34522 24.0389C3.33723 24.0743 3.36121 24.1097 3.40117 24.1175C3.43714 24.1254 3.47311 24.0979 3.48111 24.0625C3.4891 24.0271 3.46112 23.9917 3.42515 23.9838C3.38519 23.9799 3.35321 24.0035 3.34522 24.0389Z" fill="white"/>
<path fill-rule="evenodd" clip-rule="evenodd" d="M3.35322 24.1132C3.35322 24.1132 2.96953 24.0581 2.92957 23.889C2.92957 23.889 2.96154 23.7946 3.0095 23.8457C3.14139 23.9873 3.19335 23.9441 3.42116 23.9834C3.42516 23.9834 3.4891 24.1132 3.35322 24.1132Z" fill="#BCBEC0"/>
<path fill-rule="evenodd" clip-rule="evenodd" d="M2.82565 24.3218C2.80966 24.365 2.83364 24.4162 2.8776 24.4319C2.92157 24.4476 2.97353 24.424 2.98951 24.3808C3.0055 24.3375 2.98152 24.2903 2.93756 24.2746C2.89359 24.2549 2.84163 24.2785 2.82565 24.3218Z" fill="white"/>
<path fill-rule="evenodd" clip-rule="evenodd" d="M2.84564 24.3298C2.83365 24.3652 2.84964 24.4045 2.88561 24.4163C2.92158 24.4281 2.96155 24.4124 2.97354 24.377C2.98553 24.3416 2.96954 24.3023 2.93357 24.2905C2.8976 24.2787 2.85763 24.2944 2.84564 24.3298Z" fill="white"/>
<path fill-rule="evenodd" clip-rule="evenodd" d="M2.84164 24.4046C2.84164 24.4046 2.50592 24.3181 2.49393 24.1411C2.49393 24.1411 2.54189 24.0546 2.58185 24.1096C2.68977 24.2709 2.71375 24.204 2.92957 24.2866C2.93356 24.2905 2.97353 24.4282 2.84164 24.4046Z" fill="#BCBEC0"/>
<path fill-rule="evenodd" clip-rule="evenodd" d="M4.04465 23.496C4.04864 23.5432 4.08861 23.5786 4.13657 23.5786C4.18453 23.5746 4.2205 23.5353 4.2165 23.4881C4.21251 23.4409 4.17254 23.4055 4.12458 23.4095C4.07662 23.4095 4.04065 23.4527 4.04465 23.496Z" fill="white"/>
<path fill-rule="evenodd" clip-rule="evenodd" d="M4.06064 23.4959C4.06064 23.5313 4.09661 23.5628 4.13258 23.5588C4.16855 23.5588 4.20052 23.5274 4.19653 23.4881C4.19653 23.4527 4.16056 23.4212 4.12459 23.4251C4.08862 23.4291 4.06064 23.4605 4.06064 23.4959Z" fill="white"/>
<path fill-rule="evenodd" clip-rule="evenodd" d="M3.9687 23.1304C3.9687 23.1304 3.70892 23.1933 3.93273 23.4174C4.07261 23.559 4.11658 23.5315 4.13257 23.5C4.15255 23.4646 4.17653 23.4489 4.06462 23.382C3.92873 23.3034 3.91275 23.1461 3.9687 23.1304Z" fill="white"/>
<path fill-rule="evenodd" clip-rule="evenodd" d="M3.57303 23.8736C3.56903 23.9208 3.605 23.9601 3.65296 23.964C3.70092 23.964 3.74089 23.9326 3.74488 23.8815C3.74888 23.8343 3.71291 23.7949 3.66495 23.791C3.61699 23.791 3.57702 23.8264 3.57303 23.8736Z" fill="white"/>
<path fill-rule="evenodd" clip-rule="evenodd" d="M3.59302 23.8735C3.59302 23.9089 3.62099 23.9442 3.65696 23.9442C3.69693 23.9442 3.72891 23.9207 3.72891 23.8813C3.72891 23.842 3.70093 23.8105 3.66496 23.8105C3.62499 23.8105 3.59302 23.8381 3.59302 23.8735Z" fill="white"/>
<path fill-rule="evenodd" clip-rule="evenodd" d="M3.54105 23.4883C3.54105 23.4883 3.27727 23.5394 3.47311 23.7871C3.597 23.9405 3.64496 23.9169 3.66495 23.8894C3.68893 23.854 3.7169 23.8422 3.60899 23.7675C3.4811 23.6692 3.4851 23.4961 3.54105 23.4883Z" fill="white"/>
<path fill-rule="evenodd" clip-rule="evenodd" d="M3.08545 24.1765C3.07746 24.2236 3.10943 24.2669 3.15739 24.2748C3.20535 24.2826 3.24932 24.2512 3.25731 24.2079C3.2653 24.1607 3.23333 24.1175 3.18537 24.1096C3.14141 24.1017 3.09744 24.1332 3.08545 24.1765Z" fill="white"/>
<path fill-rule="evenodd" clip-rule="evenodd" d="M3.10544 24.1805C3.09744 24.2159 3.12542 24.2513 3.16139 24.2591C3.19736 24.267 3.23333 24.2434 3.24133 24.2041C3.24932 24.1687 3.22534 24.1333 3.18537 24.1254C3.1494 24.1215 3.11343 24.1451 3.10544 24.1805Z" fill="white"/>
<path fill-rule="evenodd" clip-rule="evenodd" d="M3.11342 23.8105C3.11342 23.8105 2.83365 23.8105 3.00151 24.074C3.10543 24.2392 3.15339 24.2235 3.17737 24.1959C3.20534 24.1645 3.23332 24.1566 3.1374 24.0662C3.0215 23.9639 3.05747 23.8105 3.11342 23.8105Z" fill="white"/>
<path fill-rule="evenodd" clip-rule="evenodd" d="M2.56588 24.4238C2.5499 24.4671 2.57388 24.5142 2.61784 24.5339C2.6618 24.5536 2.71376 24.526 2.72975 24.4828C2.74573 24.4395 2.72175 24.3884 2.67779 24.3727C2.63383 24.353 2.58187 24.3805 2.56588 24.4238Z" fill="white"/>
<path fill-rule="evenodd" clip-rule="evenodd" d="M2.58188 24.428C2.56989 24.4634 2.58588 24.5027 2.62185 24.5145C2.65782 24.5302 2.69778 24.5105 2.70977 24.4752C2.72176 24.4398 2.70578 24.4004 2.66981 24.3886C2.63384 24.3768 2.59787 24.3926 2.58188 24.428Z" fill="white"/>
<path fill-rule="evenodd" clip-rule="evenodd" d="M2.68577 24.0699C2.68577 24.0699 2.38202 24.0188 2.49793 24.3059C2.56987 24.4868 2.62182 24.4789 2.6498 24.4592C2.68177 24.4317 2.71375 24.4278 2.63381 24.3255C2.53789 24.1997 2.62982 24.0621 2.68577 24.0699Z" fill="white"/>
<path fill-rule="evenodd" clip-rule="evenodd" d="M3.98071 23.1854C3.98071 23.1854 4.76806 22.8354 4.50427 22.4697C4.24049 22.1039 3.9847 22.9298 3.96072 23.1421L4.01268 23.1303C4.01268 23.1303 4.14057 22.5916 4.30844 22.5129C4.4763 22.4343 4.48829 22.5876 4.45232 22.6584C4.42034 22.7213 4.32442 22.9219 4.09261 23.1067C4.07663 23.1185 4.00868 23.1224 3.9927 23.1303C3.97271 23.146 4.00469 23.1696 3.98071 23.1854Z" fill="#BCBEC0"/>
<path fill-rule="evenodd" clip-rule="evenodd" d="M4.05665 23.0674C4.05665 23.0674 4.19653 22.5129 3.91676 22.3241C3.633 22.1314 3.46114 22.3163 3.72093 22.7488C3.98071 23.1853 3.98071 23.1853 3.98071 23.1853L4.03267 23.1303C4.03267 23.1303 3.82884 22.8314 3.76489 22.6584C3.70094 22.4854 3.65298 22.2966 3.78487 22.3674C3.91676 22.4382 4.00469 22.5089 4.01268 22.7921C4.01668 22.9258 3.9887 23.0477 3.9927 23.1027C3.9967 23.1657 4.03666 23.1578 4.03666 23.1578L4.05665 23.0674Z" fill="#BCBEC0"/>
<path fill-rule="evenodd" clip-rule="evenodd" d="M3.94072 23.1576C3.94072 23.1576 3.86478 23.2048 3.64496 23.2401C3.42514 23.2755 3.24929 23.5036 3.25329 23.5194C3.25728 23.5429 3.19733 23.5547 3.19733 23.5547C3.19733 23.5547 3.15737 23.5233 3.18934 23.4328C3.22531 23.3424 3.30125 23.1733 3.62098 23.1654C3.94072 23.1576 4.02465 23.1064 4.02465 23.1064C4.02465 23.1064 4.11657 23.1576 3.94072 23.1576Z" fill="#D1D3D4"/>
<path fill-rule="evenodd" clip-rule="evenodd" d="M4.04865 23.0947C4.04865 23.0947 3.78487 23.2717 3.621 23.3385C3.46114 23.4093 3.27329 23.6099 3.17737 23.6256C3.08145 23.6413 3.11342 23.7121 3.11342 23.7121C3.11342 23.7121 3.17337 23.7475 3.43715 23.5234C3.70493 23.2992 3.83682 23.2953 3.92475 23.2324C4.02067 23.1694 4.05664 23.1576 4.04865 23.0947Z" fill="#D1D3D4"/>
<path d="M7.67763 25.1948C7.64966 25.1397 7.60969 24.9785 7.5937 24.9116C7.39387 24.9863 6.48662 25.4346 5.07978 25.5605C4.56021 25.6077 3.71691 25.7492 3.11341 25.7768C2.50991 25.8043 1.69459 25.7886 1.33089 25.7492C0.971185 25.7099 0.587502 25.6195 0.351697 25.5447C0.28775 25.5251 0.183836 25.4661 0.179839 25.3049C0.171846 25.1594 0.127882 25.0217 0.0439519 25.1712C-0.00800515 25.2616 0.00398493 25.5015 0.00798162 25.5683C0.0199717 25.6745 0.363687 25.8318 0.77135 25.9812C1.26294 26.1661 2.17019 26.3352 3.69293 26.2172C4.73207 26.1385 5.43149 26.111 6.03499 26.0913C7.75357 26.0402 7.73758 25.7532 7.7216 25.4661C7.7136 25.3678 7.68962 25.2301 7.67763 25.1948Z" fill="#D3D5D6"/>
<path d="M7.27796 25.3916C7.27796 25.3916 6.21884 25.7101 5.75522 25.7377C5.02783 25.773 5.49144 25.9107 6.24282 25.9421C7.50977 25.9972 7.74558 25.3444 7.27796 25.3916Z" fill="#ABADB0"/>
<path d="M2.70976 26.1741C2.70976 26.1741 1.42682 26.2488 0.555542 25.8438C0.555542 25.8438 1.06312 25.9027 1.41483 25.9421C2.70576 26.0954 2.85764 25.8044 2.70976 26.1741Z" fill="#ABADB0"/>
<path d="M19.9515 24.6208C18.6366 24.4832 18.2889 24.9275 14.6359 20.8299C12.7774 18.7458 12.1739 18.4469 12.1739 18.4469L15.1834 13.8813C15.1834 13.8813 17.6014 16.461 18.2009 16.8936C18.9723 17.4481 18.9443 17.4441 20.0754 18.3879L23.9722 22.3754C23.9722 22.3754 21.8979 24.8213 19.9515 24.6208Z" fill="white"/>
<path d="M16.7741 9.63466C16.4344 9.71724 16.3505 9.8706 16.0068 9.76836C15.4312 9.59533 13.245 9.50882 12.118 9.68971C10.9909 9.8706 9.90381 9.93745 9.90381 9.93745L10.0077 10.8222C10.0077 10.8222 11.0189 10.9953 12.5816 11.2666C14.1443 11.5379 15.3513 11.42 16.1986 11.1604C16.4984 11.0425 16.9939 9.7369 16.7741 9.63466Z" fill="#D1A07A"/>
<path d="M16.1267 10.5074C16.2506 10.5349 16.1426 9.83891 16.1426 9.83891C16.1426 9.83891 19.2321 8.77323 20.0354 9.0367C20.0354 9.0367 21.9738 8.36032 22.7812 8.48223C25.0233 7.76259 25.9545 8.88727 25.9226 10.1968C25.8906 11.4276 24.4158 11.8248 22.993 11.6321C21.2904 11.4001 20.9587 11.4473 20.2353 11.5692C19.2601 11.7304 16.0267 11.3568 15.6231 11.2742C15.5751 10.6804 15.8589 11.0344 16.1267 10.5074Z" fill="#D1A07A"/>
<g opacity="0.26">
<path d="M22.1976 11.3016C21.9059 11.1994 21.6141 11.1129 21.3224 11.0224C21.1745 10.9792 21.0306 10.932 20.8867 10.8848C20.7428 10.8376 20.599 10.7904 20.4551 10.7314C20.579 10.8219 20.7189 10.8927 20.8587 10.9556C20.9986 11.0185 21.1465 11.0696 21.2944 11.1129C21.4423 11.1561 21.5901 11.1955 21.742 11.2269C21.8899 11.2623 22.0418 11.2859 22.1976 11.3016Z" fill="#D1A07A"/>
<path d="M17.5055 11.3844C17.4496 11.2939 17.3816 11.2232 17.3137 11.1484L17.2137 11.0423C17.1818 11.0069 17.1498 10.9715 17.1138 10.9282C17.1098 10.9833 17.1258 11.0383 17.1498 11.0855C17.1738 11.1327 17.2058 11.176 17.2417 11.2153C17.2777 11.2546 17.3177 11.2861 17.3616 11.3175C17.4056 11.3451 17.4536 11.3687 17.5055 11.3844Z" fill="#D1A07A"/>
</g>
<path d="M10.0197 9.97238C10.0197 9.97238 9.62005 9.79935 8.02137 9.92912L6.16691 9.96058C6.02702 9.96451 5.91511 10.0746 5.91911 10.2162C5.92311 10.3538 6.03501 10.4639 6.1789 10.46H6.25883C6.30679 10.5229 6.37873 10.5622 6.46666 10.5622L8.46101 10.5308C8.51696 10.5386 8.48898 10.5504 8.25717 10.5819L8.28115 10.5898L8.02936 10.6173C7.88948 10.633 7.79356 10.7589 7.80955 10.8965C7.82553 11.0341 7.95343 11.1285 8.09331 11.1128L10.1516 10.8611C10.2475 10.8572 10.3434 10.8611 10.4314 10.8808C10.7191 10.9398 10.7751 10.3853 10.7751 10.3853L10.0197 9.97238Z" fill="#D1A07A"/>
<path d="M21.5342 18.7693C21.722 18.8479 21.1944 18.3013 21.3903 18.3603C21.8899 18.5097 22.3775 18.6945 22.8691 18.8676C23.7923 19.194 24.7315 19.481 25.7107 19.5872C25.6028 18.6906 25.5149 17.7232 26.1464 15.8829C27.2414 12.6858 27.6531 11.1679 26.4021 8.01803C26.1104 7.2866 24.1 7.73882 24.1 7.73882C24.1 7.73882 23.7643 8.21071 23.0209 8.93428C21.5262 10.3893 21.0666 11.9976 21.5741 12.9729C21.8339 13.4723 22.3055 15.8317 22.1616 16.5592C21.9658 17.5699 21.6421 18.0496 21.5342 18.7693Z" fill="#E4AE84"/>
<g opacity="0.26">
<path d="M22.5054 16.3277C22.3895 16.3552 22.2736 16.3709 22.1617 16.3709C22.0497 16.3709 21.9378 16.3552 21.8299 16.3237C21.718 16.2884 21.6101 16.2372 21.4982 16.1743C21.5581 16.2884 21.6541 16.3867 21.77 16.4535C21.8859 16.5204 22.0298 16.5558 22.1656 16.5558C22.3055 16.5558 22.4374 16.5204 22.5573 16.4614C22.6772 16.4024 22.7851 16.3237 22.8651 16.2215C22.7412 16.2648 22.6213 16.3002 22.5054 16.3277Z" fill="#511D06"/>
<path d="M22.6652 16.9295C22.5533 16.9609 22.4454 16.9924 22.3415 17.016C22.2376 17.0396 22.1377 17.0553 22.0378 17.0553C21.9378 17.0553 21.8379 17.0435 21.742 17.016C21.6421 16.9884 21.5462 16.9413 21.4383 16.8901C21.4902 16.9963 21.5742 17.0868 21.6781 17.1497C21.786 17.2126 21.9099 17.2441 22.0378 17.2441C22.1617 17.2441 22.2856 17.2126 22.3935 17.1575C22.5014 17.0986 22.5973 17.0278 22.6652 16.9295Z" fill="#511D06"/>
<path d="M21.8979 17.8102C21.8299 17.8102 21.762 17.8062 21.6941 17.7905C21.6261 17.7748 21.5542 17.7473 21.4662 17.7197C21.4942 17.8023 21.5542 17.8731 21.6301 17.9242C21.706 17.9753 21.802 17.9989 21.8979 17.9989C21.9938 17.9989 22.0817 17.9714 22.1617 17.9321C22.2376 17.8888 22.3056 17.8298 22.3495 17.7512C22.2616 17.7669 22.1857 17.7826 22.1097 17.7944C22.0378 17.8023 21.9658 17.8102 21.8979 17.8102Z" fill="#511D06"/>
<path d="M25.4869 12.6351C25.4949 12.5644 25.5069 12.4975 25.5229 12.4267C25.5509 12.3048 25.5868 12.1829 25.6348 12.0649C25.5429 12.1239 25.4549 12.1868 25.375 12.2498C25.359 12.293 25.347 12.3402 25.335 12.3874C25.3151 12.4582 25.2991 12.5329 25.2871 12.6076C25.2751 12.6823 25.2711 12.761 25.2631 12.8239C25.2431 12.9576 25.1952 13.0834 25.1152 13.1935C25.0353 13.3037 24.9274 13.398 24.7995 13.4727C24.5437 13.6261 24.22 13.7008 23.8922 13.7284C23.5605 13.7559 23.2208 13.7244 22.8931 13.6536C22.5653 13.5789 22.2456 13.457 21.9778 13.2722C21.8419 13.1817 21.726 13.0716 21.6341 12.9458C21.5422 12.8239 21.4742 12.6823 21.4423 12.5368C21.4503 12.6823 21.4982 12.8318 21.5781 12.9694C21.6581 13.107 21.774 13.2289 21.9059 13.3351C22.1737 13.5475 22.5054 13.6969 22.8531 13.7873C23.2008 13.8817 23.5605 13.9171 23.9202 13.9014C24.2759 13.8817 24.6356 13.7991 24.9354 13.6261C25.0832 13.5396 25.2111 13.4256 25.3031 13.2879C25.395 13.1542 25.4509 13.0009 25.4709 12.8475C25.4749 12.7728 25.4749 12.7059 25.4869 12.6351Z" fill="#511D06"/>
<path d="M23.5445 15.6513C23.6444 15.7102 23.7444 15.7692 23.8563 15.7967C23.7643 15.7299 23.6844 15.6552 23.6045 15.5805C23.5245 15.5058 23.4486 15.4232 23.3727 15.3445C23.2208 15.1833 23.0729 15.0221 22.925 14.8569C22.7772 14.6878 22.6093 14.5266 22.4255 14.3929C22.3335 14.326 22.2336 14.2631 22.1297 14.2159C22.0777 14.1923 22.0218 14.1687 21.9658 14.1569C21.9099 14.1412 21.8499 14.1294 21.794 14.1373C21.8499 14.153 21.8979 14.1766 21.9459 14.2041C21.9938 14.2316 22.0378 14.2631 22.0817 14.2946C22.1697 14.3575 22.2496 14.4322 22.3335 14.5069C22.4934 14.6563 22.6413 14.8176 22.7892 14.9827C22.941 15.1518 23.1009 15.3091 23.2767 15.4546C23.3567 15.5215 23.4486 15.5883 23.5445 15.6513Z" fill="#511D06"/>
<path d="M23.6085 14.5736C23.4925 14.5422 23.3766 14.495 23.2567 14.4399C23.3287 14.554 23.4326 14.6444 23.5525 14.7073C23.6724 14.7703 23.8123 14.8057 23.9522 14.8096C24.0921 14.8135 24.2279 14.786 24.3558 14.7388C24.4797 14.6877 24.5996 14.6208 24.6876 14.5186C24.5557 14.55 24.4358 14.5776 24.3159 14.5972C24.196 14.6169 24.0761 14.6248 23.9602 14.6248C23.8403 14.6248 23.7244 14.6051 23.6085 14.5736Z" fill="#511D06"/>
</g>
<path d="M24.168 6.92901C24.168 6.92901 24.2759 7.9711 23.6764 8.3958C23.0769 8.8205 26.4421 9.00139 26.4941 8.71039C26.546 8.41546 26.6419 7.01552 26.9337 6.59082C26.9337 6.59082 25.367 7.16495 24.168 6.92901Z" fill="#E4AE84"/>
<path d="M28.1447 4.39253C27.8689 5.95371 27.9768 6.91322 25.7907 7.00759C25.0073 7.03905 23.9362 7.10591 23.5205 7.09411C22.8131 7.07051 22.6892 6.20538 22.6772 4.3886C22.6652 2.92967 23.4486 1.34098 23.4486 1.34098C24.116 0.739316 25.6148 1.03818 26.5021 1.19154C28.1447 1.47468 28.4764 2.54036 28.1447 4.39253Z" fill="#E4AE84"/>
<path d="M22.989 2.80371C22.989 2.80371 22.4894 4.46319 22.4015 4.59296C22.3175 4.72666 22.2136 4.96261 22.6572 5.02946C23.1209 5.10418 23.2608 4.93508 23.2608 4.93508L22.989 2.80371Z" fill="#E4AE84"/>
<path d="M25.6468 4.44368C25.6468 4.44368 25.2511 6.15428 24.208 6.2054C24.108 6.20933 24.0161 6.41775 23.9322 6.4846C23.2607 6.97615 22.897 6.3391 22.897 6.3391L22.8211 6.33517C22.8411 6.51999 22.8731 6.57505 22.905 6.66942C22.989 6.9093 23.0329 7.04301 23.2088 7.05874C25.1392 7.27502 25.7627 6.66156 25.9026 6.44528C26.1384 6.07956 25.8946 3.76337 25.6468 4.44368Z" fill="#502919"/>
<path d="M23.8163 5.37573C23.4406 5.33248 22.7412 5.15945 22.6533 5.41506C22.6133 5.53696 22.6852 5.70606 22.7252 5.71785C22.8451 5.74145 23.3047 5.74145 23.4606 5.73752C23.7164 5.72965 23.8682 6.00885 23.8083 6.36277C23.7443 6.71669 23.8603 6.63804 23.6204 6.68523C23.3806 6.73242 23.6764 6.87399 23.6764 6.87399L24.116 6.62231C24.116 6.62231 24.4038 5.44258 23.8163 5.37573Z" fill="#502919"/>
<path d="M25.2511 6.15446C25.2511 6.15446 25.359 6.04829 25.4589 5.90279C25.4789 5.86346 25.4949 5.83594 25.4949 5.83594C25.339 6.05615 25.2511 6.15446 25.2511 6.15446Z" fill="#502919"/>
<path d="M26.9297 2.91399C26.9497 2.70557 26.9297 2.50502 26.9017 2.32413C26.8658 2.08818 26.582 1.69494 26.4461 1.4236C26.4341 1.38821 26.4181 1.35675 26.4021 1.32136C26.3862 1.2781 26.3622 1.23484 26.3302 1.19552C26.2183 1.02643 26.0464 0.86913 25.7747 0.73936C25.7507 0.727563 25.7267 0.715765 25.7067 0.703968C25.6747 0.680373 25.6428 0.656779 25.6148 0.633184C25.4909 0.530942 25.343 0.46409 25.1752 0.409036C24.9194 0.25174 24.6996 0.10624 24.4797 0.011862C24.3039 -0.00780008 24.124 0.00792961 23.9522 0.0708483C23.8003 0.129835 23.6684 0.216348 23.5445 0.322523C23.4126 0.436563 23.2767 0.550604 23.2008 0.7079C23.1289 0.861265 23.0849 1.02643 23.0569 1.19552C23.0249 1.38821 23.0649 1.5691 23.0609 1.76179C23.0609 1.92302 22.985 2.06852 23.0409 2.22581C23.0569 2.26514 23.0769 2.31233 23.1009 2.35952C23.1488 2.39098 23.2088 2.42637 23.2767 2.46569C23.5485 2.61906 23.6644 2.55221 23.8842 2.46569C23.9642 2.45389 24.0481 2.43817 24.136 2.41064C24.2679 2.36738 24.4078 2.33592 24.5437 2.31233C26.2543 2.37131 25.4989 4.86054 25.395 5.1594C25.2871 5.45826 25.323 5.84364 25.4869 5.45826C25.4949 5.43467 25.5668 5.54084 25.6228 5.35602C25.6228 5.35209 25.6228 5.34816 25.6228 5.35602C25.6707 5.53691 25.5708 5.7414 25.4669 5.8987C25.415 5.99701 25.331 6.16217 25.331 6.16217C25.331 6.16217 25.6987 5.76106 25.9785 5.35209C26.1983 5.02963 26.6459 3.95608 26.7938 3.50385C26.9097 3.23645 26.9537 3.07915 26.9297 2.91399Z" fill="#502919"/>
<path d="M24.4797 0.00806807C24.4797 0.00806807 25.0113 -0.0273237 25.5149 0.137838C26.0185 0.303 26.0544 0.14177 26.3981 0.200757C26.7419 0.259743 27.2934 0.499621 27.6131 0.715904C28.7642 1.50239 28.6403 2.10798 28.7682 2.41471C28.8961 2.71751 29.0959 3.35456 28.936 3.66129C28.7762 3.96802 28.6603 4.0506 28.6803 4.51462C28.7002 4.97865 28.5963 4.84495 28.3845 5.1674C28.1687 5.48986 28.2846 5.49773 28.1207 5.77693C27.9529 6.05613 28.0608 6.10332 27.829 6.24095C27.5972 6.37859 27.6811 6.42578 27.5412 6.55162C27.4013 6.67745 27.4533 6.73644 27.2375 6.79149C27.0216 6.84261 26.1703 7.24765 25.7587 6.70498C25.2511 6.03647 25.6028 5.81625 25.5588 5.74154C25.5149 5.66682 25.9505 4.53822 25.9505 4.53822C25.9505 4.53822 26.3062 3.77926 26.2982 3.68881C26.2902 3.59837 26.4261 3.05569 26.3422 2.78829C26.2583 2.51695 25.2791 1.14454 25.2271 1.09735C25.1752 1.03836 24.4797 0.00806807 24.4797 0.00806807Z" fill="#502919"/>
<path d="M27.0936 9.16255C26.8937 8.84795 25.7707 8.43112 25.419 8.39179C25.411 8.37606 25.1592 8.36427 25.0633 8.37213C24.2759 8.33674 22.4614 9.52826 22.2456 9.83106C21.3863 11.0147 21.1745 12.1944 21.5781 12.9731C21.8379 13.4725 21.4982 15.6314 21.4423 16.3667C21.3863 17.0785 20.7748 17.8571 20.6709 18.0695C21.9578 18.3959 20.9267 22.3204 21.5342 22.3637C22.4894 22.6232 24.6196 22.3637 24.6196 22.3637C25.0473 21.9272 27.5972 18.6279 27.9329 16.4139C28.7202 11.2389 28.0568 10.6844 27.0936 9.16255ZM24.156 13.327C22.6053 12.9613 23.021 9.31198 25.3031 9.03278C27.1735 9.28839 27.0416 13.3309 24.156 13.327Z" fill="#E50914"/>
<path d="M17.0819 10.2401C16.7421 10.3227 16.6582 10.48 16.3145 10.3738C15.739 10.2008 13.5528 10.1143 12.4257 10.2952C11.2986 10.4761 10.2115 10.5429 10.2115 10.5429L10.3155 11.4238C10.3155 11.4238 11.3266 11.5968 12.8893 11.8681C14.452 12.1395 15.659 12.0215 16.5063 11.762C16.8061 11.6479 17.2977 10.3424 17.0819 10.2401Z" fill="#E4AE84"/>
<path d="M16.4344 11.1129C16.5583 11.1365 16.4504 10.4444 16.4504 10.4444C16.4504 10.4444 19.5438 9.37869 20.3432 9.64217C20.3432 9.64217 22.2816 8.96579 23.0889 9.0877C25.331 8.36806 26.2623 9.49273 26.2303 10.8022C26.1983 12.0331 24.7235 12.4303 23.3007 12.2376C21.5981 12.0056 21.2664 12.0527 20.543 12.1707C19.5678 12.3319 16.3345 11.9584 15.9268 11.8758C15.8829 11.2859 16.1626 11.6398 16.4344 11.1129Z" fill="#E4AE84"/>
<g opacity="0.26">
<path d="M22.5014 11.9071C22.2096 11.8049 21.9179 11.7184 21.6261 11.6279C21.4782 11.5847 21.3343 11.5375 21.1905 11.4903C21.0466 11.4431 20.9027 11.3959 20.7588 11.3369C20.8827 11.4313 21.0226 11.4981 21.1625 11.5611C21.3024 11.624 21.4502 11.6751 21.5981 11.7184C21.746 11.7616 21.8939 11.8009 22.0458 11.8324C22.1936 11.8678 22.3455 11.8953 22.5014 11.9071Z" fill="#511D06"/>
<path d="M17.8132 11.9899C17.7573 11.8994 17.6893 11.8286 17.6214 11.7539L17.5215 11.6477C17.4895 11.6123 17.4575 11.5769 17.4216 11.5337C17.4176 11.5887 17.4336 11.6438 17.4575 11.691C17.4815 11.7382 17.5135 11.7814 17.5495 11.8208C17.5854 11.8601 17.6254 11.8915 17.6694 11.923C17.7133 11.9505 17.7573 11.9741 17.8132 11.9899Z" fill="#511D06"/>
</g>
<path d="M10.3275 10.5778C10.3275 10.5778 9.92779 10.4048 8.32911 10.5346L6.47464 10.566C6.33476 10.57 6.22285 10.6801 6.22685 10.8217C6.23085 10.9593 6.34675 11.0694 6.48264 11.0694H6.56657C6.61453 11.1323 6.69047 11.1716 6.7744 11.1677L8.76875 11.1362C8.8247 11.1441 8.79672 11.1559 8.56491 11.1913L8.58889 11.1992L8.3411 11.2306C8.20122 11.2464 8.10529 11.3722 8.12128 11.5098C8.14127 11.6475 8.26516 11.7418 8.40505 11.7261L10.4633 11.4744C10.5593 11.4705 10.6592 11.4744 10.7431 11.4941C11.0309 11.5531 11.0868 10.9986 11.0868 10.9986L10.3275 10.5778Z" fill="#E4AE84"/>
<path d="M26.558 8.2583C26.558 8.2583 26.7618 9.39084 26.8937 9.65431C27.0256 9.91778 26.9897 12.3008 26.9897 12.3008L27.4813 10.9481C27.4773 10.9481 27.2774 9.13523 26.558 8.2583Z" fill="#E50914"/>
<path d="M12.4337 16.0838C12.2619 15.7023 14.4441 14.6209 14.9716 15.1479C15.9308 16.3079 21.714 21.6403 20.563 23.3548C18.6366 26.3002 16.6103 23.5121 16.966 23.866C18.7165 25.616 13.6887 19.2887 13.0852 18.1758C12.7535 17.5624 12.6495 16.7523 12.4337 16.0838Z" fill="#E4AE84"/>
<path d="M15.1674 14.739C15.1674 14.739 14.0364 13.2997 13.225 12.8829C12.4137 12.4621 12.2419 12.6862 11.7463 12.8239C11.1028 13.0008 10.4154 14.4008 10.4154 14.4008C10.4154 14.4008 13.0772 14.0901 13.1251 14.1019C13.1691 14.1137 15.1674 14.739 15.1674 14.739Z" fill="#E4AE84"/>
<path d="M13.1651 15.0849C13.0452 15.2973 11.8462 17.409 11.7902 17.7432C11.6224 18.7932 10.5033 20.724 9.1764 21.7504C8.06532 22.6116 6.49861 24.33 6.49861 24.33L4.80402 23.9525C4.80402 23.9525 6.19886 21.6599 7.79754 19.0527C8.96457 17.1494 9.62802 15.5411 10.2075 14.6956C10.5313 14.4715 13.1851 14.7821 13.1651 15.0849Z" fill="#E4AE84"/>
<path d="M10.7191 14.0196C10.5113 13.6538 12.5776 12.3719 13.1531 12.8477C14.2202 13.9095 20.503 18.6638 19.5278 20.4845C19.5278 20.4845 18.4727 24.2203 15.8669 22.081C13.9485 20.5081 12.2858 17.0947 11.5784 16.0448C11.1827 15.4588 10.9989 14.6645 10.7191 14.0196Z" fill="#E4AE84"/>
<path d="M4.79202 23.8466L5.56738 22.6904C5.56738 22.6904 6.18687 23.7915 6.89428 23.937L6.41068 24.519C6.41468 24.5229 5.9071 25.0263 4.79202 23.8466Z" fill="white"/>
<path d="M14.6039 14.4559C14.6039 14.4559 13.7446 13.7323 12.9333 13.3155C12.122 12.8947 11.9501 13.1189 11.4545 13.2565C10.8111 13.4335 10.1236 14.8334 10.1236 14.8334C10.1236 14.8334 12.7854 14.5227 12.8334 14.5345C12.8813 14.5503 14.6039 14.4559 14.6039 14.4559Z" fill="#E4AE84"/>
<path d="M7.92544 26.1431C7.93743 26.4223 7.90545 26.6936 6.23883 26.7447C5.63533 26.7605 4.92792 26.7211 3.90477 26.8391C2.39002 27.0161 1.47078 26.8155 0.97519 26.6307C0.567527 26.4813 0.223811 26.324 0.211821 26.2178C0.211821 26.2021 0.211821 26.1863 0.207825 26.1706C0.207825 26.2256 0.211821 26.2768 0.215818 26.3122C0.227808 26.4183 0.571524 26.5756 0.979186 26.7251C1.47078 26.906 2.36204 27.079 3.88478 26.961C4.92792 26.8824 5.63933 26.8509 6.24283 26.8352C7.96141 26.784 7.94542 26.4931 7.92943 26.2099C7.92943 26.1903 7.92544 26.1667 7.92544 26.1431Z" fill="#717375"/>
<path d="M7.58572 23.3548C7.52577 23.3312 7.45782 23.3981 7.40587 23.52C7.32194 23.7323 7.35391 23.9289 7.35391 23.9368H7.3619C7.34192 24.0036 7.32993 24.0823 7.33792 24.1688L7.42185 24.1609C7.40587 24.0036 7.46182 23.8935 7.52577 23.7677C7.55774 23.7048 7.58572 23.6419 7.6097 23.5711C7.66965 23.4059 7.6097 23.3627 7.58572 23.3548ZM7.52976 23.5475C7.50578 23.6143 7.47781 23.6733 7.44583 23.7323C7.44184 23.7402 7.43784 23.752 7.42985 23.7598C7.43384 23.6969 7.44983 23.6222 7.47781 23.5475C7.50578 23.4806 7.52976 23.4492 7.54575 23.4374C7.55374 23.457 7.54975 23.4924 7.52976 23.5475Z" fill="white"/>
<path fill-rule="evenodd" clip-rule="evenodd" d="M6.38272 26.1352C6.03101 26.1549 5.74725 26.2453 5.23167 26.3436C4.7161 26.438 3.94074 26.5717 3.33724 26.5992C2.73374 26.6268 1.87045 26.556 1.50676 26.5167C0.895261 26.4537 0.287764 26.2178 0.275774 26.206L0.227814 26.0369C0.227814 26.0369 0.279771 25.8993 0.399672 25.8128C0.523569 25.7262 0.799341 25.6515 1.54672 25.392C2.50193 25.0617 2.81367 24.9122 3.28528 24.5347C3.75689 24.1572 4.34441 23.8072 4.51227 23.8505C4.68013 23.8937 4.97189 24.0786 5.55141 24.2437C6.69446 24.5701 6.09496 24.5937 6.90629 24.2673C7.27398 24.1218 7.26999 23.6774 7.30596 23.7679C7.30596 23.7679 7.29397 24.1257 7.50179 24.3814C7.75758 24.6999 7.84951 25.2347 7.80155 25.8049C7.44584 26.0251 6.72244 26.1155 6.38272 26.1352Z" fill="white"/>
<path fill-rule="evenodd" clip-rule="evenodd" d="M5.25565 23.4255C5.13575 23.2721 5.14774 23.103 4.97189 22.9811C4.87996 22.9143 4.65615 23.0126 4.37638 23.5002C4.13258 23.9249 3.63299 24.2592 3.63299 24.2592L3.66097 24.2552C2.99752 24.7625 2.418 24.9906 2.418 24.9906L2.47795 25.1125C3.20135 24.7429 3.84882 24.3654 4.30044 24.094C4.50028 24.0193 4.81202 24.1215 4.93192 24.0547C5.30761 23.8463 5.33558 23.5238 5.25565 23.4255Z" fill="white"/>
<path fill-rule="evenodd" clip-rule="evenodd" d="M0.347712 26.1076C0.379685 26.2492 0.487596 26.2846 0.547546 26.3042C0.575523 26.3121 0.607497 26.3239 0.63947 26.3318H0.643467C0.675441 26.3436 0.711411 26.3514 0.743384 26.3632C0.779355 26.3711 0.815325 26.3829 0.855292 26.3947H0.859289C0.895259 26.4065 0.935226 26.4143 0.971196 26.4222C0.975193 26.4222 0.975193 26.4222 0.979189 26.4261C1.01916 26.434 1.05912 26.4458 1.09909 26.4537C1.09909 26.4537 1.09909 26.4537 1.10309 26.4537C1.14305 26.4615 1.18702 26.4694 1.22698 26.4773C1.23098 26.4773 1.23498 26.4773 1.23498 26.4773C1.27494 26.4851 1.31491 26.4891 1.35488 26.4969C1.35888 26.4969 1.36287 26.4969 1.36687 26.4969C1.41083 26.5048 1.4548 26.5087 1.49876 26.5126C1.86246 26.552 2.72175 26.6228 3.32924 26.5952C3.93274 26.5677 4.7081 26.4419 5.22368 26.3396C5.63134 26.261 7.46582 26.0879 7.82952 25.8677C7.83352 25.8205 7.79755 25.6475 7.79755 25.6003C7.75358 25.6357 7.54576 25.8009 7.46582 25.8441C6.93826 26.1194 5.26364 26.2216 4.68812 26.3357C4.1126 26.4497 2.84564 26.6463 1.18702 26.261C1.18702 26.261 0.447629 26.0368 0.963202 25.7655C1.41083 25.5295 2.47395 25.1166 2.47395 25.1166L2.46196 24.979C0.935226 25.679 0.831312 25.3801 0.459619 25.6357C0.399669 25.675 0.227811 25.8402 0.235804 25.9818C0.271775 25.9818 0.327728 26.0172 0.347712 26.1076Z" fill="#E50914"/>
<path d="M7.81354 25.6435C7.84551 25.1126 7.7456 24.6839 7.5018 24.3811C7.48981 24.3654 7.47782 24.3536 7.46982 24.3379C7.38989 24.3536 7.35392 24.4165 7.46183 24.5896C7.65767 24.8884 7.72961 25.4704 7.74559 25.6788C7.76958 25.6631 7.78956 25.6553 7.81354 25.6435Z" fill="white"/>
<path fill-rule="evenodd" clip-rule="evenodd" d="M2.39401 25.4586C2.39401 25.4586 2.73373 25.0221 2.22215 25.144C2.03431 25.1912 0.487587 25.7457 0.619478 25.9895C0.703409 26.1468 0.659445 26.1625 0.999164 26.3041C1.33888 26.4457 2.92157 26.5479 2.63381 26.4771C2.00633 26.3277 2.11024 26.076 2.49792 25.7418C2.8856 25.4036 3.04947 25.3131 3.04947 25.3131L2.39401 25.4586Z" fill="#E50914"/>
<path d="M2.86563 25.3527C2.86563 25.3527 4.52826 26.5049 3.19336 26.5089C3.19336 26.5089 4.15656 26.5561 4.3524 26.387C4.55224 26.2179 4.28845 25.628 3.44115 25.0303L2.86563 25.3527Z" fill="#E50914"/>
<path d="M3.58902 24.8806C3.58902 24.8806 5.32358 26.1979 4.35638 26.4103C4.35638 26.4103 5.09977 26.4221 5.27163 26.2255C5.61534 25.8243 5.01184 25.1558 4.16454 24.5581L3.58902 24.8806Z" fill="#E50914"/>
<path d="M4.32443 24.4639C4.32443 24.4639 6.39072 26.0211 5.31961 26.2846C5.31961 26.2846 6.24684 26.3043 6.4187 26.1076C6.63452 25.856 5.51145 24.92 6.60654 24.4364C6.82636 24.338 5.09579 24.3184 4.77606 24.0942L4.32443 24.4639Z" fill="#E50914"/>
<path fill-rule="evenodd" clip-rule="evenodd" d="M7.60171 24.5267C7.57374 24.4755 7.53777 24.4283 7.5018 24.3812C7.4938 24.3733 7.48581 24.3615 7.47781 24.3497C7.35392 24.0548 7.36591 23.7874 7.36591 23.7874C7.36191 23.1818 7.07815 23.52 7.05417 23.6104C7.00621 23.8149 7.0142 24.2789 6.11894 24.2632C5.37555 24.2514 4.86398 23.9643 4.74807 23.8975C4.49628 23.752 4.38837 23.7559 4.3564 23.7638C3.93675 23.9761 3.88479 24.1256 3.52908 24.4283C2.72575 25.0025 2.27012 25.1794 2.09827 25.266C2.09827 25.266 2.35006 25.5766 2.74973 25.4508C2.76571 25.4468 2.7777 25.4429 2.78969 25.435C2.80168 25.4311 2.81767 25.4232 2.83366 25.4193C2.83765 25.4193 2.83765 25.4193 2.84165 25.4154C2.85364 25.4075 2.86563 25.4036 2.87762 25.3997C2.89361 25.3918 2.9096 25.3839 2.92558 25.3761C3.45315 25.0851 4.30044 24.4991 4.50827 24.3772C4.7161 24.2553 5.15174 24.3104 5.46748 24.4008C6.38272 24.6564 6.50662 24.3969 7.07815 24.562C7.27798 24.6171 7.53777 24.857 7.7336 25.3485C7.7376 25.3564 7.70163 24.9042 7.70962 24.9042C7.70962 24.9042 7.48581 24.5935 7.4898 24.5935C7.4978 24.5935 7.5018 24.5935 7.50979 24.5935C7.50979 24.5935 7.50979 24.5935 7.51378 24.5935C7.52178 24.5935 7.52977 24.5896 7.53777 24.5856C7.53777 24.5856 7.53777 24.5856 7.54176 24.5856C7.54976 24.5817 7.55775 24.5778 7.56175 24.5699C7.57773 24.5581 7.58972 24.5424 7.60171 24.5267Z" fill="white"/>
<path fill-rule="evenodd" clip-rule="evenodd" d="M4.45233 24.0001C4.45633 24.0473 4.4963 24.0827 4.54426 24.0827C4.59222 24.0788 4.62819 24.0394 4.62419 23.9922C4.62019 23.9451 4.58023 23.9097 4.53227 23.9097C4.4883 23.9136 4.44834 23.9529 4.45233 24.0001Z" fill="white"/>
<path fill-rule="evenodd" clip-rule="evenodd" d="M4.4723 23.9964C4.4723 24.0318 4.50827 24.0633 4.54424 24.0593C4.58021 24.0554 4.61219 24.0239 4.60819 23.9885C4.60819 23.9532 4.57622 23.9217 4.53625 23.9256C4.49628 23.9296 4.46831 23.961 4.4723 23.9964Z" fill="white"/>
<path fill-rule="evenodd" clip-rule="evenodd" d="M4.4963 24.0666C4.4963 24.0666 4.09663 24.098 4.01669 23.9407C4.01669 23.9407 4.02868 23.8424 4.08464 23.8778C4.2485 23.9879 4.30046 23.9329 4.53227 23.925C4.53626 23.925 4.62819 24.0351 4.4963 24.0666Z" fill="#BCBEC0"/>
<path fill-rule="evenodd" clip-rule="evenodd" d="M4.0047 24.3968C4.0007 24.444 4.03667 24.4833 4.08463 24.4873C4.13259 24.4912 4.17256 24.4558 4.17656 24.4086C4.18055 24.3614 4.14458 24.3221 4.09662 24.3182C4.04866 24.3142 4.00869 24.3496 4.0047 24.3968Z" fill="white"/>
<path fill-rule="evenodd" clip-rule="evenodd" d="M4.02069 24.3969C4.0167 24.4362 4.04867 24.4677 4.08464 24.4677C4.12061 24.4716 4.15258 24.4402 4.15658 24.4048C4.16058 24.3694 4.1286 24.334 4.09263 24.334C4.05666 24.334 4.02469 24.3615 4.02069 24.3969Z" fill="white"/>
<path fill-rule="evenodd" clip-rule="evenodd" d="M4.04067 24.4715C4.04067 24.4715 3.64101 24.4597 3.58105 24.2946C3.58105 24.2946 3.60104 24.1963 3.65699 24.2395C3.80487 24.3654 3.86482 24.3182 4.09663 24.3339C4.09663 24.3378 4.17656 24.4558 4.04067 24.4715Z" fill="#BCBEC0"/>
<path fill-rule="evenodd" clip-rule="evenodd" d="M3.53709 24.7274C3.52909 24.7746 3.56107 24.8178 3.60503 24.8296C3.65299 24.8375 3.69695 24.806 3.70495 24.7588C3.71294 24.7116 3.68097 24.6684 3.637 24.6605C3.58904 24.6526 3.54508 24.6802 3.53709 24.7274Z" fill="white"/>
<path fill-rule="evenodd" clip-rule="evenodd" d="M3.55308 24.7313C3.54508 24.7667 3.56906 24.802 3.60903 24.8099C3.645 24.8178 3.68097 24.7902 3.68896 24.7549C3.69696 24.7195 3.67298 24.6841 3.63301 24.6762C3.59704 24.6723 3.56107 24.6959 3.55308 24.7313Z" fill="white"/>
<path fill-rule="evenodd" clip-rule="evenodd" d="M3.56507 24.8061C3.56507 24.8061 3.18139 24.7511 3.14142 24.582C3.14142 24.582 3.17339 24.4837 3.22135 24.5387C3.35324 24.6803 3.4052 24.637 3.63301 24.6764C3.63301 24.6764 3.69696 24.8061 3.56507 24.8061Z" fill="#BCBEC0"/>
<path fill-rule="evenodd" clip-rule="evenodd" d="M3.0375 25.0145C3.02151 25.0578 3.04549 25.1089 3.08946 25.1246C3.13342 25.1403 3.18538 25.1167 3.20137 25.0735C3.21735 25.0302 3.19337 24.9791 3.14941 24.9634C3.10145 24.9477 3.05349 24.9713 3.0375 25.0145Z" fill="white"/>
<path fill-rule="evenodd" clip-rule="evenodd" d="M3.0535 25.0222C3.04151 25.0576 3.05749 25.0969 3.09346 25.1087C3.12943 25.1205 3.1694 25.1048 3.18139 25.0694C3.19338 25.034 3.17739 24.9947 3.14142 24.9829C3.10545 24.9711 3.06549 24.9868 3.0535 25.0222Z" fill="white"/>
<path fill-rule="evenodd" clip-rule="evenodd" d="M3.04949 25.0972C3.04949 25.0972 2.71377 25.0107 2.70178 24.8338C2.70178 24.8338 2.74974 24.7472 2.78971 24.8062C2.89762 24.9675 2.9216 24.9006 3.14142 24.9832C3.14142 24.9832 3.18139 25.1208 3.04949 25.0972Z" fill="#BCBEC0"/>
<path fill-rule="evenodd" clip-rule="evenodd" d="M4.2525 24.1886C4.2565 24.2358 4.29646 24.2712 4.34442 24.2673C4.39238 24.2633 4.42835 24.224 4.42835 24.1768C4.42436 24.1296 4.38439 24.0942 4.33643 24.0942C4.28447 24.1021 4.2485 24.1414 4.2525 24.1886Z" fill="white"/>
<path fill-rule="evenodd" clip-rule="evenodd" d="M4.26849 24.1888C4.26849 24.2242 4.30446 24.2557 4.34043 24.2518C4.3764 24.2478 4.40838 24.2203 4.40438 24.181C4.40438 24.1416 4.36841 24.1141 4.33244 24.118C4.29647 24.122 4.26849 24.1534 4.26849 24.1888Z" fill="white"/>
<path fill-rule="evenodd" clip-rule="evenodd" d="M4.18055 23.8228C4.18055 23.8228 3.92077 23.8857 4.14458 24.1098C4.28447 24.2514 4.32843 24.2199 4.34442 24.1924C4.3644 24.157 4.38838 24.1413 4.27647 24.0744C4.14059 23.9958 4.1246 23.8385 4.18055 23.8228Z" fill="white"/>
<path fill-rule="evenodd" clip-rule="evenodd" d="M3.78488 24.5663C3.78089 24.6134 3.82085 24.6528 3.86482 24.6567C3.91278 24.6606 3.95274 24.6252 3.95674 24.578C3.96074 24.5309 3.92477 24.4915 3.87681 24.4876C3.82485 24.4837 3.78488 24.5191 3.78488 24.5663Z" fill="white"/>
<path fill-rule="evenodd" clip-rule="evenodd" d="M3.80088 24.5663C3.79688 24.6057 3.82885 24.6371 3.86482 24.6371C3.90479 24.6411 3.93676 24.6096 3.93676 24.5742C3.93676 24.5388 3.90879 24.5034 3.87282 24.5034C3.83685 24.5034 3.80487 24.5309 3.80088 24.5663Z" fill="white"/>
<path fill-rule="evenodd" clip-rule="evenodd" d="M3.7489 24.1768C3.7489 24.1768 3.48512 24.2279 3.68096 24.4756C3.80486 24.629 3.85282 24.6054 3.8728 24.5779C3.89678 24.5464 3.92476 24.5307 3.81685 24.456C3.69295 24.3616 3.69295 24.1846 3.7489 24.1768Z" fill="white"/>
<path fill-rule="evenodd" clip-rule="evenodd" d="M3.29728 24.873C3.28929 24.9202 3.32126 24.9635 3.36522 24.9714C3.41318 24.9792 3.45715 24.9478 3.46514 24.9045C3.47313 24.8573 3.44116 24.8141 3.3972 24.8062C3.34924 24.7944 3.30527 24.8259 3.29728 24.873Z" fill="white"/>
<path fill-rule="evenodd" clip-rule="evenodd" d="M3.31326 24.8729C3.30527 24.9083 3.33325 24.9436 3.36922 24.9515C3.40519 24.9594 3.44116 24.9358 3.44915 24.8965C3.45714 24.8611 3.43316 24.8257 3.3932 24.8178C3.35723 24.8139 3.32126 24.8375 3.31326 24.8729Z" fill="white"/>
<path fill-rule="evenodd" clip-rule="evenodd" d="M3.32127 24.5034C3.32127 24.5034 3.04151 24.5034 3.20937 24.7669C3.31328 24.9321 3.36124 24.9163 3.38522 24.8888C3.4132 24.8573 3.44118 24.8495 3.34525 24.759C3.22935 24.6568 3.26532 24.5034 3.32127 24.5034Z" fill="white"/>
<path fill-rule="evenodd" clip-rule="evenodd" d="M2.77371 25.1126C2.75772 25.1559 2.7817 25.207 2.82566 25.2227C2.86963 25.2384 2.92158 25.2148 2.93757 25.1716C2.95356 25.1283 2.92958 25.0772 2.88561 25.0615C2.84165 25.0497 2.78969 25.0693 2.77371 25.1126Z" fill="white"/>
<path fill-rule="evenodd" clip-rule="evenodd" d="M2.79369 25.1203C2.7777 25.1557 2.79768 25.1951 2.83365 25.2069C2.86963 25.2187 2.90959 25.2029 2.92158 25.1675C2.93357 25.1321 2.91759 25.0928 2.88162 25.081C2.84564 25.0692 2.80568 25.085 2.79369 25.1203Z" fill="white"/>
<path fill-rule="evenodd" clip-rule="evenodd" d="M2.89761 24.7628C2.89761 24.7628 2.58987 24.7117 2.70977 24.9987C2.78171 25.1796 2.83366 25.1718 2.86164 25.1521C2.89361 25.1285 2.92559 25.1207 2.84565 25.0184C2.74973 24.8926 2.83766 24.7549 2.89761 24.7628Z" fill="white"/>
<path fill-rule="evenodd" clip-rule="evenodd" d="M4.18853 23.8782C4.18853 23.8782 4.97588 23.5282 4.7121 23.1625C4.44832 22.7928 4.19253 23.6226 4.16855 23.8349L4.22051 23.8231C4.22051 23.8231 4.3484 23.2844 4.52026 23.2057C4.68812 23.1271 4.70011 23.2805 4.66414 23.3473C4.63216 23.4102 4.53624 23.6108 4.30444 23.7956C4.28845 23.8074 4.22051 23.8113 4.20452 23.8231C4.18054 23.8389 4.21251 23.8625 4.18853 23.8782Z" fill="#BCBEC0"/>
<path fill-rule="evenodd" clip-rule="evenodd" d="M4.26849 23.7639C4.26849 23.7639 4.40837 23.2095 4.1286 23.0168C3.84883 22.828 3.67298 23.0089 3.93276 23.4415C4.19255 23.878 4.19255 23.878 4.19255 23.878L4.24451 23.8229C4.24451 23.8229 4.04067 23.5201 3.97673 23.3471C3.91278 23.1741 3.86482 22.9853 3.99671 23.0561C4.1286 23.1269 4.21653 23.1977 4.22452 23.4808C4.22852 23.6184 4.20054 23.7364 4.20454 23.7954C4.20854 23.8583 4.24451 23.8504 4.24451 23.8504L4.26849 23.7639Z" fill="#BCBEC0"/>
<path fill-rule="evenodd" clip-rule="evenodd" d="M4.14857 23.8505C4.14857 23.8505 4.07264 23.8977 3.85282 23.933C3.633 23.9684 3.45714 24.1965 3.46114 24.2122C3.46514 24.2319 3.40519 24.2437 3.40519 24.2437C3.40519 24.2437 3.36522 24.2122 3.39719 24.1218C3.43316 24.0314 3.5091 23.8623 3.82884 23.8544C4.14857 23.8465 4.2325 23.7954 4.2325 23.7954C4.2325 23.7954 4.32443 23.8505 4.14857 23.8505Z" fill="#D1D3D4"/>
<path fill-rule="evenodd" clip-rule="evenodd" d="M4.26047 23.7876C4.26047 23.7876 3.99669 23.9606 3.83283 24.0314C3.67296 24.1022 3.48511 24.3027 3.38919 24.3145C3.29327 24.3303 3.32525 24.405 3.32525 24.405C3.32525 24.405 3.3852 24.4404 3.64898 24.2162C3.91676 23.9921 4.04865 23.9882 4.13657 23.9252C4.2285 23.8623 4.26846 23.8505 4.26047 23.7876Z" fill="#D1D3D4"/>
<path d="M7.88546 25.8876C7.85748 25.8326 7.81752 25.6713 7.80553 25.6045C7.60569 25.6792 6.69844 26.1275 5.29161 26.2533C4.77204 26.3005 3.92873 26.4421 3.32523 26.4696C2.72173 26.4972 1.90641 26.4814 1.54271 26.446C1.18301 26.4067 0.799325 26.3163 0.56352 26.2415C0.499573 26.2219 0.395659 26.1629 0.391662 26.0017C0.383669 25.8562 0.339705 25.7185 0.255774 25.864C0.203817 25.9545 0.215807 26.1983 0.219804 26.2651C0.231794 26.3713 0.57551 26.5286 0.983172 26.678C1.47477 26.8589 2.38201 27.028 3.90475 26.914C4.94389 26.8353 5.64332 26.8078 6.24682 26.7882C7.96539 26.737 7.94941 26.45 7.93342 26.1629C7.92543 26.0607 7.90145 25.923 7.88546 25.8876Z" fill="#D3D5D6"/>
<path d="M7.48579 26.084C7.48579 26.084 6.42667 26.4025 5.96305 26.43C5.23565 26.4694 5.69927 26.5991 6.45065 26.6345C7.7176 26.6896 7.9534 26.0368 7.48579 26.084Z" fill="#ABADB0"/>
<path d="M2.91758 26.8665C2.91758 26.8665 1.63464 26.9412 0.759369 26.5322C0.759369 26.5322 1.26695 26.5912 1.61866 26.6305C2.91359 26.7878 3.06546 26.4968 2.91758 26.8665Z" fill="#ABADB0"/>
<path d="M20.1633 25.3132C18.8484 25.1755 18.5007 25.6199 14.8477 21.5223C12.9892 19.4421 12.3857 19.1393 12.3857 19.1393L15.3953 14.5737C15.3953 14.5737 17.8133 17.1534 18.4128 17.586C19.0123 18.0185 19.7716 18.5573 19.7716 18.5573L24.18 23.0678C24.18 23.0678 22.1057 25.5137 20.1633 25.3132Z" fill="#E50914"/>
<path d="M20.6669 18.0693C20.6669 18.0693 21.806 20.1378 24.6156 22.3635L24.0361 23.0674C24.0361 23.0674 20.1793 19.9412 19.7636 18.557L20.6669 18.0693Z" fill="white"/>
</g>
<defs>
<clipPath id="clip0_158_2848">
<rect width="29" height="27" fill="white"/>
</clipPath>
</defs>
</svg>
