<svg width="31" height="35" viewBox="0 0 31 35" fill="none" xmlns="http://www.w3.org/2000/svg">
<g clip-path="url(#clip0_158_3515)">
<path d="M18.4005 12.3023C18.8079 9.63905 18.8131 6.82875 18.7165 6.81037C18.7165 6.81037 18.6825 6.80511 18.6643 6.79986C18.531 6.7736 18.1523 6.6843 17.6979 6.46893C17.1337 6.20103 16.2509 6.32973 16.2509 6.32973H14.8457C14.8457 6.32973 13.9864 6.20103 13.4353 6.46893C12.9939 6.68167 12.6231 6.77097 12.4925 6.79986C12.4742 6.80249 12.4585 6.80511 12.4428 6.81037C12.4428 6.81037 12.3514 9.56288 12.7484 12.2287C13.1402 14.8657 12.563 16.284 12.7719 17.5867C12.8451 18.0384 14.9842 17.3634 15.1487 17.9202C15.1487 17.9202 15.4595 17.9334 15.5405 17.9229C15.6215 17.9334 15.9401 17.9202 15.9401 17.9202C16.1073 17.3634 18.3143 18.0384 18.3874 17.5867C18.6042 16.284 17.9982 14.9392 18.4005 12.3023Z" fill="#E4AE84"/>
<path fill-rule="evenodd" clip-rule="evenodd" d="M12.5891 32.2576C12.5891 32.2576 11.8656 32.0055 11.1134 32.2208C11.0821 32.2313 11.0847 33.5551 11.1422 33.5498C11.1996 33.5472 12.422 33.0797 12.4481 33.0455C12.4716 33.014 12.5891 32.2576 12.5891 32.2576Z" fill="#0D0B42"/>
<path d="M11.8708 24.6567C11.8238 24.8458 11.8839 25.4446 11.816 25.7047C11.4503 27.1151 11.3668 27.9765 11.3668 29.4605C11.3668 30.9812 11.3694 31.882 11.3694 31.882L12.4663 31.995C12.4663 31.995 13.1402 29.7914 13.3361 28.226C13.5868 26.2378 13.6417 25.9515 13.767 25.1478C13.6991 24.8406 12.0197 24.4702 11.8708 24.6567Z" fill="#E4AE84"/>
<path d="M11.9153 25.3185C11.9492 25.6521 13.6208 25.7099 13.7671 25.1399C13.9551 23.9633 16.2065 17.7859 14.7465 17.0531C14.7465 17.0531 13.2055 14.3085 12.5369 16.8876C12.0458 18.7839 11.8996 22.6369 11.8395 23.4432C11.8003 24 11.7951 24.7696 11.9153 25.3185Z" fill="#E4AE84"/>
<path d="M12.469 33.1086C12.5055 32.8591 12.5813 32.846 12.4925 32.5387C12.4037 32.2287 12.5264 31.3384 12.5264 31.3384L11.5 31.3515C11.5 31.3515 11.3511 32.1972 10.9254 32.9274L12.469 33.1086Z" fill="#E4AE84"/>
<path d="M12.7197 16.2524C12.7197 16.2524 12.1529 17.5998 11.7272 20.3655L11.2492 24.7464L14.9137 24.8094L15.6502 19.2098L15.7233 18.3273L15.6241 16.6385L12.7197 16.2524Z" fill="#E50914"/>
<path fill-rule="evenodd" clip-rule="evenodd" d="M11.2492 32.1841L11.3328 31.8794L12.4951 32.016L12.4846 32.3732C12.4846 32.3732 11.291 32.6017 11.2492 32.1841Z" fill="white"/>
<path d="M10.719 33.6943C10.719 33.6943 10.6511 34.1513 10.7086 34.3798C10.766 34.6083 10.9175 35.0365 11.8526 34.9971L11.8682 34.7948C11.8656 34.7948 10.7138 33.7311 10.719 33.6943Z" fill="#D3D5D6"/>
<path d="M12.913 33.6943C12.913 33.6943 12.9809 34.1513 12.9234 34.3798C12.8634 34.6083 12.7145 35.0365 11.7794 34.9971L11.7638 34.7948C11.7638 34.7948 12.9156 33.7311 12.913 33.6943Z" fill="#D3D5D6"/>
<path fill-rule="evenodd" clip-rule="evenodd" d="M11.1265 32.3968C11.1265 32.3968 11.7768 32.1972 12.4637 32.3889C12.4637 32.3889 12.3619 32.8012 12.2574 32.8879C12.1529 32.9746 11.4921 33.0481 11.4738 33.0402C11.4529 33.035 11.1265 32.3968 11.1265 32.3968Z" fill="black"/>
<path fill-rule="evenodd" clip-rule="evenodd" d="M12.6413 32.6176C12.6518 31.8297 12.3201 32.4469 12.294 32.5178C12.2496 32.6386 11.3824 32.6386 11.338 32.5178C11.3119 32.4469 11.0298 31.7588 10.9724 32.6465C10.9724 32.6465 10.6746 33.8389 10.7373 34.2119C10.8783 34.7634 10.9724 34.8265 11.816 34.8265C12.6596 34.8265 12.8216 34.7267 12.8947 34.2119C12.9574 33.8389 12.6413 32.6176 12.6413 32.6176Z" fill="#E50914"/>
<path fill-rule="evenodd" clip-rule="evenodd" d="M12.1503 34.8133C12.1503 34.8947 12.0302 34.8973 11.8839 34.8973C11.7376 34.8973 11.6175 34.8947 11.6175 34.8133C11.6175 34.7319 11.7376 34.6636 11.8839 34.6636C12.0328 34.6636 12.1503 34.7292 12.1503 34.8133Z" fill="#D3D5D6"/>
<path fill-rule="evenodd" clip-rule="evenodd" d="M12.8947 34.2089C12.913 34.0986 12.8973 33.9095 12.8686 33.702C12.8189 33.6757 12.7693 33.6547 12.7223 33.6337C12.4533 33.5234 11.9701 33.2082 12.1529 33.7335C12.1529 33.7335 12.8137 34.0855 12.6021 34.7316C12.7876 34.6502 12.8555 34.4926 12.8947 34.2089Z" fill="#E50914"/>
<path fill-rule="evenodd" clip-rule="evenodd" d="M10.7686 33.6469C10.9645 33.2293 11.3929 33.14 11.3929 33.14L11.3824 32.9614C11.15 32.9902 10.9619 33.1583 10.8339 33.3159C11.0037 32.9088 11.3772 32.851 11.3772 32.851L11.3668 32.6436C11.1578 32.7171 11.0011 32.8484 10.8992 32.9587C10.8574 33.1557 10.8052 33.4105 10.7686 33.6469Z" fill="#E50914"/>
<path fill-rule="evenodd" clip-rule="evenodd" d="M12.2548 32.8535C12.2548 32.8535 12.6257 32.9113 12.798 33.3184C12.6701 33.1582 12.4846 32.9927 12.2496 32.9638L12.2391 33.1424C12.2391 33.1424 12.657 33.2291 12.8581 33.6362C12.8215 33.3998 12.7667 33.1424 12.7223 32.948C12.6178 32.8404 12.4663 32.7169 12.2678 32.646L12.2548 32.8535Z" fill="#E50914"/>
<path fill-rule="evenodd" clip-rule="evenodd" d="M11.4817 33.7362C11.7585 33.1426 11.1787 33.526 10.9123 33.6363C10.8653 33.6547 10.813 33.6784 10.7608 33.7046C10.7321 33.9121 10.719 34.0986 10.7373 34.2089C10.8104 34.4952 10.8705 34.6502 11.0324 34.7342C10.7295 34.0566 11.4817 33.7362 11.4817 33.7362Z" fill="#E50914"/>
<path d="M11.4138 32.4441C11.4138 32.4441 11.5261 33.8703 11.6932 34.0305C11.8604 34.1907 11.9988 34.0121 12.1059 33.4842C12.213 32.9589 12.3044 32.4205 12.3044 32.4205C12.3044 32.4205 12.3619 32.234 12.0693 32.1631C11.7481 32.0896 11.3067 32.1999 11.4138 32.4441Z" fill="#E50914"/>
<path fill-rule="evenodd" clip-rule="evenodd" d="M11.6279 32.5832C11.6279 32.5832 11.5914 32.4966 11.3668 32.5202C11.3668 32.5202 11.3772 33.4053 11.4817 33.7362C11.5862 34.0672 11.6384 34.2274 11.91 34.1985C12.179 34.1696 12.247 33.7152 12.3175 33.3475C12.3906 32.9798 12.3984 32.536 12.3984 32.536C12.3984 32.536 12.2156 32.4808 12.1085 32.5832C12.1085 32.5832 12.0615 34.0777 11.8656 34.1092C11.6697 34.1433 11.5862 32.922 11.6279 32.5832Z" fill="#00002D"/>
<path fill-rule="evenodd" clip-rule="evenodd" d="M12.0981 32.7832C12.1373 32.7963 12.1869 32.7884 12.2104 32.7648C12.2339 32.7438 12.2208 32.7149 12.1817 32.7017C12.1425 32.6886 12.0929 32.6965 12.0694 32.7175C12.0458 32.7411 12.0589 32.77 12.0981 32.7832Z" fill="white"/>
<path fill-rule="evenodd" clip-rule="evenodd" d="M12.1059 32.7751C12.1373 32.7856 12.1764 32.7804 12.1947 32.762C12.213 32.7436 12.2026 32.72 12.1712 32.7095C12.1399 32.699 12.1007 32.7042 12.0824 32.7226C12.0641 32.741 12.0746 32.7646 12.1059 32.7751Z" fill="black"/>
<path fill-rule="evenodd" clip-rule="evenodd" d="M12.0589 33.1088C12.0955 33.1245 12.1477 33.1193 12.1738 33.0983C12.1999 33.0772 12.1921 33.0484 12.1555 33.0326C12.119 33.0168 12.0667 33.0221 12.0406 33.0431C12.0145 33.0641 12.0223 33.093 12.0589 33.1088Z" fill="white"/>
<path fill-rule="evenodd" clip-rule="evenodd" d="M12.0693 33.1011C12.0981 33.1142 12.1399 33.1089 12.1608 33.0932C12.1817 33.0774 12.1764 33.0538 12.1477 33.0406C12.119 33.0275 12.0772 33.0328 12.0563 33.0485C12.0354 33.0643 12.0406 33.0879 12.0693 33.1011Z" fill="black"/>
<path fill-rule="evenodd" clip-rule="evenodd" d="M11.991 33.4212C12.025 33.4396 12.0772 33.4369 12.1085 33.4185C12.1399 33.4002 12.1373 33.3713 12.1059 33.3529C12.072 33.3345 12.0197 33.3371 11.9884 33.3555C11.9571 33.3739 11.9597 33.4054 11.991 33.4212Z" fill="white"/>
<path fill-rule="evenodd" clip-rule="evenodd" d="M12.0041 33.4161C12.0302 33.4292 12.072 33.4292 12.0955 33.4135C12.119 33.3977 12.119 33.3741 12.0929 33.3609C12.0668 33.3478 12.025 33.3478 12.0015 33.3609C11.9753 33.3767 11.9779 33.4003 12.0041 33.4161Z" fill="black"/>
<path fill-rule="evenodd" clip-rule="evenodd" d="M11.9649 33.7364C11.991 33.7575 12.0432 33.7601 12.0798 33.747C12.1164 33.7312 12.1242 33.7023 12.0955 33.6813C12.0694 33.6603 12.0171 33.655 11.9806 33.6708C11.944 33.6865 11.9362 33.7154 11.9649 33.7364Z" fill="white"/>
<path fill-rule="evenodd" clip-rule="evenodd" d="M11.9779 33.7314C11.9988 33.7471 12.0406 33.7497 12.0694 33.7392C12.0981 33.7261 12.1033 33.7051 12.0824 33.6867C12.0615 33.671 12.0197 33.6657 11.991 33.6788C11.9623 33.692 11.9571 33.7156 11.9779 33.7314Z" fill="black"/>
<path fill-rule="evenodd" clip-rule="evenodd" d="M12.0929 32.9331C12.132 32.9462 12.1817 32.9383 12.2052 32.9147C12.2287 32.891 12.2156 32.8648 12.1738 32.8516C12.1347 32.8385 12.085 32.8464 12.0615 32.8674C12.0406 32.891 12.0537 32.9199 12.0929 32.9331Z" fill="white"/>
<path fill-rule="evenodd" clip-rule="evenodd" d="M12.1007 32.925C12.1321 32.9355 12.1712 32.9303 12.1895 32.9119C12.2078 32.8935 12.1973 32.8725 12.166 32.8594C12.1347 32.8489 12.0955 32.8541 12.0772 32.8725C12.0589 32.8909 12.0694 32.9145 12.1007 32.925Z" fill="black"/>
<path fill-rule="evenodd" clip-rule="evenodd" d="M12.0406 33.2611C12.0772 33.2769 12.1294 33.2716 12.1555 33.2506C12.1817 33.2296 12.1738 33.2007 12.1373 33.1849C12.1007 33.1692 12.0485 33.1744 12.0223 33.1954C11.9962 33.2165 12.0041 33.2454 12.0406 33.2611Z" fill="white"/>
<path fill-rule="evenodd" clip-rule="evenodd" d="M12.0511 33.2534C12.0798 33.2665 12.1216 33.2613 12.1425 33.2455C12.1634 33.2298 12.1582 33.2061 12.1294 33.193C12.1007 33.1799 12.0589 33.1851 12.038 33.2009C12.0171 33.2166 12.0223 33.2403 12.0511 33.2534Z" fill="black"/>
<path fill-rule="evenodd" clip-rule="evenodd" d="M11.9831 33.5735C12.0171 33.5919 12.0693 33.5893 12.0981 33.5709C12.1294 33.5525 12.1268 33.521 12.0955 33.5052C12.0615 33.4868 12.0093 33.4895 11.9779 33.5078C11.9466 33.5262 11.9492 33.5578 11.9831 33.5735Z" fill="white"/>
<path fill-rule="evenodd" clip-rule="evenodd" d="M11.9936 33.5681C12.0197 33.5812 12.0615 33.5812 12.085 33.5655C12.1085 33.5497 12.1085 33.5261 12.0824 33.513C12.0563 33.4998 12.0145 33.4998 11.991 33.5156C11.9675 33.5287 11.9675 33.5524 11.9936 33.5681Z" fill="black"/>
<path fill-rule="evenodd" clip-rule="evenodd" d="M11.9074 33.8863C11.9335 33.9074 11.9858 33.91 12.0223 33.8969C12.0589 33.8811 12.0667 33.8522 12.038 33.8312C12.0119 33.8102 11.9597 33.8049 11.9231 33.8207C11.8891 33.8364 11.8813 33.8653 11.9074 33.8863Z" fill="white"/>
<path fill-rule="evenodd" clip-rule="evenodd" d="M11.9231 33.8813C11.944 33.897 11.9858 33.9023 12.0145 33.8891C12.0432 33.876 12.0485 33.855 12.0276 33.8366C12.0067 33.8209 11.9649 33.8156 11.9362 33.8287C11.9074 33.8419 11.8996 33.8655 11.9231 33.8813Z" fill="black"/>
<path fill-rule="evenodd" clip-rule="evenodd" d="M11.5705 32.7832C11.5313 32.7963 11.4817 32.7884 11.4582 32.7648C11.4347 32.7438 11.4477 32.7149 11.4869 32.7017C11.5261 32.6886 11.5757 32.6965 11.5992 32.7175C11.6227 32.7411 11.6097 32.77 11.5705 32.7832Z" fill="white"/>
<path fill-rule="evenodd" clip-rule="evenodd" d="M11.56 32.7751C11.5287 32.7856 11.4895 32.7804 11.4712 32.762C11.453 32.7436 11.4634 32.72 11.4948 32.7095C11.5261 32.699 11.5653 32.7042 11.5836 32.7226C11.6018 32.741 11.5914 32.7646 11.56 32.7751Z" fill="black"/>
<path fill-rule="evenodd" clip-rule="evenodd" d="M12.1425 32.8908C12.1242 32.8724 12.1268 32.8593 12.0119 32.8856C11.7847 32.9381 11.6671 32.8015 11.5835 32.7227C11.5835 32.7227 11.4477 32.7122 11.4895 32.7831C11.4895 32.7831 11.675 32.9749 11.8421 32.9617C11.8421 32.9617 11.8421 32.9617 11.8447 32.9591C11.8761 32.9617 11.9179 32.9617 11.9727 32.9565C12.1582 32.9355 12.1582 32.9092 12.1425 32.8908Z" fill="#BCBEC0"/>
<path fill-rule="evenodd" clip-rule="evenodd" d="M11.607 33.1088C11.5705 33.1245 11.5182 33.1193 11.4921 33.0983C11.466 33.0772 11.4738 33.0484 11.5104 33.0326C11.547 33.0168 11.5992 33.0221 11.6253 33.0431C11.6514 33.0641 11.6436 33.093 11.607 33.1088Z" fill="white"/>
<path fill-rule="evenodd" clip-rule="evenodd" d="M11.5966 33.1011C11.5679 33.1142 11.5261 33.1089 11.5052 33.0932C11.4843 33.0774 11.4895 33.0538 11.5182 33.0406C11.547 33.0275 11.5888 33.0328 11.6096 33.0485C11.6332 33.0643 11.6253 33.0879 11.5966 33.1011Z" fill="black"/>
<path fill-rule="evenodd" clip-rule="evenodd" d="M12.0981 33.2219C12.0824 33.2009 12.0876 33.1851 11.9701 33.2087C11.9492 33.214 11.9283 33.2166 11.9074 33.2166C11.7403 33.1851 11.7429 33.1457 11.6123 33.0459C11.6123 33.0459 11.4738 33.0459 11.5287 33.1116C11.5287 33.1116 11.6044 33.172 11.6985 33.2192C11.7115 33.2534 11.7611 33.2849 11.9152 33.277C12.1059 33.2691 12.1111 33.2403 12.0981 33.2219Z" fill="#BCBEC0"/>
<path fill-rule="evenodd" clip-rule="evenodd" d="M11.675 33.4212C11.641 33.4396 11.5888 33.4369 11.5574 33.4185C11.5261 33.4002 11.5287 33.3713 11.56 33.3529C11.594 33.3345 11.6462 33.3371 11.6776 33.3555C11.7089 33.3739 11.7089 33.4054 11.675 33.4212Z" fill="white"/>
<path fill-rule="evenodd" clip-rule="evenodd" d="M11.6619 33.4161C11.6358 33.4292 11.594 33.4292 11.5705 33.4135C11.547 33.3977 11.547 33.3741 11.5731 33.3609C11.5992 33.3478 11.641 33.3478 11.6645 33.3609C11.6906 33.3767 11.688 33.4003 11.6619 33.4161Z" fill="black"/>
<path fill-rule="evenodd" clip-rule="evenodd" d="M12.0459 33.5424C12.0406 33.5292 12.0406 33.5187 12.0171 33.5161C12.0119 33.5135 12.0041 33.5108 11.9936 33.5108C11.8082 33.4925 11.8186 33.4557 11.6645 33.3638C11.6645 33.3638 11.5261 33.3743 11.5966 33.4347C11.5966 33.4347 11.628 33.4557 11.675 33.4793C11.9492 33.629 12.0537 33.5608 12.0459 33.5424Z" fill="#BCBEC0"/>
<path fill-rule="evenodd" clip-rule="evenodd" d="M11.7011 33.7364C11.675 33.7575 11.6227 33.7601 11.5861 33.747C11.5496 33.7312 11.5417 33.7023 11.5705 33.6813C11.5966 33.6603 11.6488 33.655 11.6854 33.6708C11.722 33.6865 11.7298 33.7154 11.7011 33.7364Z" fill="white"/>
<path fill-rule="evenodd" clip-rule="evenodd" d="M11.688 33.7314C11.6671 33.7471 11.6253 33.7497 11.5966 33.7392C11.5679 33.7261 11.5626 33.7051 11.5835 33.6867C11.6044 33.671 11.6462 33.6657 11.675 33.6788C11.7037 33.692 11.7089 33.7156 11.688 33.7314Z" fill="black"/>
<path fill-rule="evenodd" clip-rule="evenodd" d="M11.9831 33.8232C11.829 33.7969 11.8499 33.7601 11.6749 33.6787C11.6749 33.6787 11.5417 33.7024 11.6279 33.7549C11.6279 33.7549 11.8108 33.8757 11.9596 33.8809C11.9753 33.8783 11.9884 33.8757 12.004 33.8704C12.004 33.8731 12.0511 33.8337 11.9831 33.8232Z" fill="#BCBEC0"/>
<path fill-rule="evenodd" clip-rule="evenodd" d="M11.5731 32.9331C11.5339 32.9462 11.4843 32.9383 11.4608 32.9147C11.4373 32.891 11.4504 32.8648 11.4895 32.8516C11.5287 32.8385 11.5783 32.8464 11.6018 32.8674C11.6253 32.891 11.6123 32.9199 11.5731 32.9331Z" fill="white"/>
<path fill-rule="evenodd" clip-rule="evenodd" d="M11.5653 32.925C11.5339 32.9355 11.4947 32.9303 11.4765 32.9119C11.4582 32.8935 11.4686 32.8725 11.5 32.8594C11.5313 32.8489 11.5705 32.8541 11.5888 32.8725C11.6071 32.8909 11.5966 32.9145 11.5653 32.925Z" fill="black"/>
<path fill-rule="evenodd" clip-rule="evenodd" d="M12.0824 32.7229C12.0014 32.8017 11.9858 32.8437 11.9179 32.8779C11.8552 32.912 11.7899 32.9252 11.6541 32.8884C11.5418 32.8569 11.5444 32.8726 11.5235 32.8936C11.5078 32.9094 11.5078 32.933 11.6932 32.9619C12.0067 33.0092 12.1764 32.786 12.1764 32.786C12.2208 32.715 12.0824 32.7229 12.0824 32.7229Z" fill="white"/>
<path fill-rule="evenodd" clip-rule="evenodd" d="M11.6253 33.2611C11.5888 33.2769 11.5365 33.2716 11.5104 33.2506C11.4843 33.2296 11.4921 33.2007 11.5287 33.1849C11.5653 33.1692 11.6175 33.1744 11.6436 33.1954C11.6697 33.2165 11.6619 33.2454 11.6253 33.2611Z" fill="white"/>
<path fill-rule="evenodd" clip-rule="evenodd" d="M11.6149 33.2534C11.5861 33.2665 11.5443 33.2613 11.5235 33.2455C11.5026 33.2298 11.5078 33.2061 11.5365 33.193C11.5652 33.1799 11.607 33.1851 11.6279 33.2009C11.6514 33.2166 11.6436 33.2403 11.6149 33.2534Z" fill="black"/>
<path d="M12.1373 33.114C12.1921 33.0483 12.0537 33.0483 12.0537 33.0483C11.9205 33.1481 11.9597 33.1849 11.769 33.2164C11.7376 33.2191 11.7115 33.2138 11.6932 33.2112C11.5757 33.1875 11.5809 33.2033 11.5653 33.2243C11.5522 33.2427 11.5574 33.2716 11.7481 33.2795C12.0014 33.29 12.1373 33.114 12.1373 33.114Z" fill="white"/>
<path d="M12.0249 33.1953C12.0249 33.1953 12.0249 33.1978 12.0249 33.2027C12.0274 33.1978 12.0274 33.1978 12.0249 33.1953Z" fill="white"/>
<path fill-rule="evenodd" clip-rule="evenodd" d="M11.6854 33.5735C11.6514 33.5919 11.5992 33.5893 11.5679 33.5709C11.5365 33.5525 11.5391 33.521 11.5705 33.5052C11.6044 33.4868 11.6567 33.4895 11.688 33.5078C11.7194 33.5262 11.7194 33.5578 11.6854 33.5735Z" fill="white"/>
<path fill-rule="evenodd" clip-rule="evenodd" d="M11.6723 33.5681C11.6462 33.5812 11.6044 33.5812 11.5809 33.5655C11.5574 33.5497 11.5574 33.5261 11.5835 33.513C11.6096 33.4998 11.6514 33.4998 11.6749 33.5156C11.7011 33.5287 11.6984 33.5524 11.6723 33.5681Z" fill="black"/>
<path fill-rule="evenodd" clip-rule="evenodd" d="M12.0014 33.3608C11.8474 33.4528 11.8578 33.4895 11.6724 33.5079C11.6619 33.5079 11.6541 33.5105 11.6488 33.5132C11.6253 33.5158 11.6253 33.5263 11.6201 33.5394C11.6123 33.5578 11.6906 33.5893 11.991 33.4764C12.038 33.4528 12.0694 33.4318 12.0694 33.4318C12.1373 33.3713 12.0014 33.3608 12.0014 33.3608Z" fill="white"/>
<path fill-rule="evenodd" clip-rule="evenodd" d="M11.7585 33.8863C11.7324 33.9074 11.6802 33.91 11.6436 33.8969C11.607 33.8811 11.5992 33.8522 11.6279 33.8312C11.6541 33.8102 11.7063 33.8049 11.7429 33.8207C11.7768 33.8364 11.7873 33.8653 11.7585 33.8863Z" fill="white"/>
<path fill-rule="evenodd" clip-rule="evenodd" d="M11.7455 33.8813C11.7246 33.897 11.6828 33.9023 11.6541 33.8891C11.6253 33.876 11.6201 33.855 11.641 33.8366C11.6619 33.8209 11.7037 33.8156 11.7324 33.8287C11.7611 33.8419 11.7664 33.8655 11.7455 33.8813Z" fill="black"/>
<path fill-rule="evenodd" clip-rule="evenodd" d="M11.991 33.6787C11.8421 33.7916 11.6724 33.8416 11.688 33.8442C11.6854 33.8494 11.6854 33.8547 11.6854 33.8599C11.6828 33.8783 11.7011 33.9282 12.0276 33.7628C12.0354 33.7601 12.038 33.7575 12.038 33.7575C12.1242 33.7023 11.991 33.6787 11.991 33.6787Z" fill="white"/>
<path fill-rule="evenodd" clip-rule="evenodd" d="M11.8682 32.6937C11.8682 32.6937 12.6909 32.6595 12.5891 32.2314C12.4846 31.8033 11.9649 32.4652 11.8656 32.649L11.9152 32.6569C11.9152 32.6569 12.2208 32.2157 12.3984 32.2052C12.576 32.1947 12.5316 32.3365 12.4742 32.3864C12.4245 32.431 12.2652 32.5781 11.9936 32.6622C11.9779 32.6674 11.9152 32.6464 11.8969 32.6517C11.8734 32.6569 11.8943 32.6884 11.8682 32.6937Z" fill="#BCBEC0"/>
<path fill-rule="evenodd" clip-rule="evenodd" d="M11.9178 32.5964C11.9178 32.5964 11.6723 32.0974 11.3485 32.1289C11.0246 32.1604 11.0115 32.4047 11.4712 32.5675C11.9335 32.7303 11.9335 32.7303 11.9335 32.7303L11.9361 32.6568C11.9361 32.6568 11.5992 32.5596 11.4451 32.4703C11.291 32.381 11.1369 32.2733 11.2779 32.2418C11.419 32.2129 11.5261 32.2103 11.7115 32.4152C11.8003 32.5123 11.8526 32.6226 11.8917 32.662C11.9335 32.7067 11.957 32.6778 11.957 32.6778L11.9178 32.5964Z" fill="#BCBEC0"/>
<path fill-rule="evenodd" clip-rule="evenodd" d="M11.863 32.7355C11.863 32.7355 11.8369 32.8196 11.7011 32.9824C11.5653 33.1452 11.5783 33.421 11.5914 33.4341C11.6044 33.4447 11.5705 33.4919 11.5705 33.4919C11.5705 33.4919 11.5209 33.4946 11.4895 33.4053C11.4582 33.3186 11.4085 33.1426 11.6358 32.9404C11.863 32.7381 11.8917 32.6462 11.8917 32.6462C11.8917 32.6462 11.9884 32.6278 11.863 32.7355Z" fill="#D1D3D4"/>
<path fill-rule="evenodd" clip-rule="evenodd" d="M11.8865 32.6226C11.8865 32.6226 11.9727 32.9167 11.991 33.0848C12.0093 33.2529 12.1425 33.4814 12.1294 33.576C12.1137 33.6679 12.1921 33.6626 12.1921 33.6626C12.1921 33.6626 12.2417 33.618 12.1085 33.3107C11.9753 33.0008 12.0119 32.8826 11.9805 32.7801C11.944 32.6725 11.9466 32.6357 11.8865 32.6226Z" fill="#D1D3D4"/>
<path fill-rule="evenodd" clip-rule="evenodd" d="M18.5728 32.2576C18.5728 32.2576 19.2963 32.0055 20.0485 32.2208C20.0799 32.2313 20.0773 33.5551 20.0198 33.5498C19.9623 33.5472 18.74 33.0797 18.7165 33.0455C18.6904 33.014 18.5728 32.2576 18.5728 32.2576Z" fill="#0D0B42"/>
<path d="M19.2911 24.6567C19.3381 24.8458 19.278 25.4446 19.3459 25.7047C19.7116 27.1151 19.7952 27.9765 19.7952 29.4605C19.7952 30.9812 19.7926 31.882 19.7926 31.882L18.6956 31.995C18.6956 31.995 18.0217 29.7914 17.8259 28.226C17.5751 26.2378 17.5203 25.9515 17.3949 25.1478C17.4628 24.8406 19.1422 24.4702 19.2911 24.6567Z" fill="#E4AE84"/>
<path d="M18.693 33.1086C18.6564 32.8591 18.5807 32.846 18.6695 32.5387C18.7583 32.2287 18.6355 31.3384 18.6355 31.3384L19.662 31.3515C19.662 31.3515 19.8109 32.1972 20.2366 32.9274L18.693 33.1086Z" fill="#E4AE84"/>
<path fill-rule="evenodd" clip-rule="evenodd" d="M19.9127 32.1841L19.8291 31.8794L18.6669 32.016L18.6773 32.3732C18.6773 32.3732 19.8709 32.6017 19.9127 32.1841Z" fill="white"/>
<path d="M20.4429 33.6943C20.4429 33.6943 20.5108 34.1513 20.4534 34.3798C20.3933 34.6083 20.2444 35.0365 19.3094 34.9971L19.2937 34.7948C19.2963 34.7948 20.4481 33.7311 20.4429 33.6943Z" fill="#D3D5D6"/>
<path d="M18.2516 33.6943C18.2516 33.6943 18.1837 34.1513 18.2411 34.3798C18.3012 34.6083 18.4501 35.0365 19.3851 34.9971L19.3982 34.7948C19.3982 34.7948 18.2464 33.7311 18.2516 33.6943Z" fill="#D3D5D6"/>
<path fill-rule="evenodd" clip-rule="evenodd" d="M20.0355 32.3968C20.0355 32.3968 19.3851 32.1972 18.6982 32.3889C18.6982 32.3889 18.8001 32.8012 18.9045 32.8879C19.009 32.9746 19.6672 33.0481 19.6881 33.0402C19.709 33.035 20.0355 32.3968 20.0355 32.3968Z" fill="black"/>
<path fill-rule="evenodd" clip-rule="evenodd" d="M18.5206 32.6176C18.5102 31.8297 18.8419 32.4469 18.868 32.5178C18.9124 32.6386 19.7795 32.6386 19.8239 32.5178C19.85 32.4469 20.1321 31.7588 20.1896 32.6465C20.1896 32.6465 20.4873 33.8389 20.4246 34.2119C20.2836 34.7634 20.1896 34.8265 19.346 34.8265C18.5023 34.8265 18.3404 34.7267 18.2673 34.2119C18.2046 33.8389 18.5206 32.6176 18.5206 32.6176Z" fill="#E50914"/>
<path fill-rule="evenodd" clip-rule="evenodd" d="M19.009 34.8133C19.009 34.8947 19.1291 34.8973 19.2754 34.8973C19.4217 34.8973 19.5418 34.8947 19.5418 34.8133C19.5418 34.7319 19.4217 34.6636 19.2754 34.6636C19.1291 34.6636 19.009 34.7292 19.009 34.8133Z" fill="#D3D5D6"/>
<path fill-rule="evenodd" clip-rule="evenodd" d="M18.2673 34.2089C18.249 34.0986 18.2646 33.9095 18.2934 33.702C18.343 33.6757 18.3952 33.6547 18.4396 33.6337C18.706 33.5234 19.1918 33.2082 19.009 33.7335C19.009 33.7335 18.3482 34.0855 18.5598 34.7316C18.3743 34.6502 18.3064 34.4926 18.2673 34.2089Z" fill="#E50914"/>
<path fill-rule="evenodd" clip-rule="evenodd" d="M20.3907 33.6469C20.1948 33.2293 19.7664 33.14 19.7664 33.14L19.7769 32.9614C20.0094 32.9902 20.1974 33.1583 20.3254 33.3159C20.1556 32.9088 19.7821 32.851 19.7821 32.851L19.7926 32.6436C20.0015 32.7171 20.1556 32.8484 20.2601 32.9587C20.3045 33.1557 20.3567 33.4105 20.3907 33.6469Z" fill="#E50914"/>
<path fill-rule="evenodd" clip-rule="evenodd" d="M18.9072 32.8535C18.9072 32.8535 18.5363 32.9113 18.3639 33.3184C18.4919 33.1582 18.6799 32.9927 18.9124 32.9638L18.9228 33.1424C18.9228 33.1424 18.5049 33.2291 18.3038 33.6362C18.3404 33.3998 18.3952 33.1424 18.4396 32.948C18.5441 32.8404 18.6956 32.7169 18.8941 32.646L18.9072 32.8535Z" fill="#E50914"/>
<path fill-rule="evenodd" clip-rule="evenodd" d="M19.6803 33.7362C19.4034 33.1426 19.9832 33.526 20.2496 33.6363C20.2966 33.6547 20.3489 33.6784 20.4011 33.7046C20.4299 33.9121 20.4429 34.0986 20.4246 34.2089C20.3515 34.4952 20.2914 34.6502 20.1295 34.7342C20.4325 34.0566 19.6803 33.7362 19.6803 33.7362Z" fill="#E50914"/>
<path d="M19.7482 32.4441C19.7482 32.4441 19.6359 33.8703 19.4687 34.0305C19.3016 34.1907 19.1631 34.0121 19.056 33.4842C18.949 32.9589 18.8575 32.4205 18.8575 32.4205C18.8575 32.4205 18.8001 32.234 19.0926 32.1631C19.4139 32.0896 19.8553 32.1999 19.7482 32.4441Z" fill="#E50914"/>
<path fill-rule="evenodd" clip-rule="evenodd" d="M19.534 32.5832C19.534 32.5832 19.5706 32.4966 19.7952 32.5202C19.7952 32.5202 19.7847 33.4053 19.6803 33.7362C19.5758 34.0672 19.5235 34.2274 19.2519 34.1985C18.9829 34.1696 18.915 33.7152 18.8445 33.3475C18.7713 32.9798 18.7661 32.536 18.7661 32.536C18.7661 32.536 18.9489 32.4808 19.056 32.5832C19.056 32.5832 19.103 34.0777 19.2989 34.1092C19.4922 34.1433 19.5758 32.922 19.534 32.5832Z" fill="#00002D"/>
<path fill-rule="evenodd" clip-rule="evenodd" d="M19.0639 32.7832C19.0247 32.7963 18.9751 32.7884 18.9516 32.7648C18.9281 32.7438 18.9411 32.7149 18.9803 32.7017C19.0195 32.6886 19.0691 32.6965 19.0926 32.7175C19.1161 32.7411 19.103 32.77 19.0639 32.7832Z" fill="white"/>
<path fill-rule="evenodd" clip-rule="evenodd" d="M19.056 32.7751C19.0247 32.7856 18.9855 32.7804 18.9672 32.762C18.9489 32.7436 18.9594 32.72 18.9907 32.7095C19.0221 32.699 19.0612 32.7042 19.0795 32.7226C19.0978 32.741 19.0874 32.7646 19.056 32.7751Z" fill="black"/>
<path fill-rule="evenodd" clip-rule="evenodd" d="M19.103 33.1088C19.0665 33.1245 19.0142 33.1193 18.9881 33.0983C18.962 33.0772 18.9698 33.0484 19.0064 33.0326C19.043 33.0168 19.0952 33.0221 19.1213 33.0431C19.1475 33.0641 19.1396 33.093 19.103 33.1088Z" fill="white"/>
<path fill-rule="evenodd" clip-rule="evenodd" d="M19.0926 33.1011C19.0639 33.1142 19.0221 33.1089 19.0012 33.0932C18.9803 33.0774 18.9855 33.0538 19.0142 33.0406C19.043 33.0275 19.0848 33.0328 19.1056 33.0485C19.1265 33.0643 19.1213 33.0879 19.0926 33.1011Z" fill="black"/>
<path fill-rule="evenodd" clip-rule="evenodd" d="M19.1683 33.4212C19.1344 33.4396 19.0821 33.4369 19.0508 33.4185C19.0195 33.4002 19.0221 33.3713 19.0534 33.3529C19.0874 33.3345 19.1396 33.3371 19.171 33.3555C19.2049 33.3739 19.2023 33.4054 19.1683 33.4212Z" fill="white"/>
<path fill-rule="evenodd" clip-rule="evenodd" d="M19.1579 33.4161C19.1318 33.4292 19.09 33.4292 19.0665 33.4135C19.043 33.3977 19.043 33.3741 19.0691 33.3609C19.0952 33.3478 19.137 33.3478 19.1605 33.3609C19.1866 33.3767 19.184 33.4003 19.1579 33.4161Z" fill="black"/>
<path fill-rule="evenodd" clip-rule="evenodd" d="M19.1971 33.7364C19.171 33.7575 19.1187 33.7601 19.0822 33.747C19.0456 33.7312 19.0377 33.7023 19.0665 33.6813C19.0926 33.6603 19.1448 33.655 19.1814 33.6708C19.218 33.6865 19.2258 33.7154 19.1971 33.7364Z" fill="white"/>
<path fill-rule="evenodd" clip-rule="evenodd" d="M19.184 33.7314C19.1631 33.7471 19.1213 33.7497 19.0926 33.7392C19.0639 33.7261 19.0586 33.7051 19.0795 33.6867C19.1004 33.671 19.1422 33.6657 19.171 33.6788C19.1997 33.692 19.2049 33.7156 19.184 33.7314Z" fill="black"/>
<path fill-rule="evenodd" clip-rule="evenodd" d="M19.0691 32.9331C19.0299 32.9462 18.9803 32.9383 18.9568 32.9147C18.9333 32.891 18.9463 32.8648 18.9855 32.8516C19.0247 32.8385 19.0743 32.8464 19.0978 32.8674C19.1213 32.891 19.1083 32.9199 19.0691 32.9331Z" fill="white"/>
<path fill-rule="evenodd" clip-rule="evenodd" d="M19.0586 32.925C19.0273 32.9355 18.9881 32.9303 18.9698 32.9119C18.9516 32.8935 18.962 32.8725 18.9933 32.8594C19.0247 32.8489 19.0639 32.8541 19.0822 32.8725C19.1004 32.8909 19.09 32.9145 19.0586 32.925Z" fill="black"/>
<path fill-rule="evenodd" clip-rule="evenodd" d="M19.1213 33.2611C19.0848 33.2769 19.0325 33.2716 19.0064 33.2506C18.9803 33.2296 18.9881 33.2007 19.0247 33.1849C19.0613 33.1692 19.1135 33.1744 19.1396 33.1954C19.1657 33.2165 19.1579 33.2454 19.1213 33.2611Z" fill="white"/>
<path fill-rule="evenodd" clip-rule="evenodd" d="M19.1109 33.2534C19.0821 33.2665 19.0403 33.2613 19.0195 33.2455C18.9986 33.2298 19.0038 33.2061 19.0325 33.193C19.0612 33.1799 19.103 33.1851 19.1239 33.2009C19.1448 33.2166 19.1396 33.2403 19.1109 33.2534Z" fill="black"/>
<path fill-rule="evenodd" clip-rule="evenodd" d="M19.1788 33.5735C19.1448 33.5919 19.0926 33.5893 19.0612 33.5709C19.0299 33.5525 19.0325 33.521 19.0639 33.5052C19.0978 33.4868 19.15 33.4895 19.1814 33.5078C19.2153 33.5262 19.2127 33.5578 19.1788 33.5735Z" fill="white"/>
<path fill-rule="evenodd" clip-rule="evenodd" d="M19.1683 33.5681C19.1422 33.5812 19.1004 33.5812 19.0769 33.5655C19.0508 33.5497 19.0534 33.5261 19.0795 33.513C19.1057 33.4998 19.1474 33.4998 19.171 33.5156C19.1945 33.5287 19.1945 33.5524 19.1683 33.5681Z" fill="black"/>
<path fill-rule="evenodd" clip-rule="evenodd" d="M19.2545 33.8863C19.2284 33.9074 19.1762 33.91 19.1396 33.8969C19.103 33.8811 19.0952 33.8522 19.1239 33.8312C19.1527 33.8102 19.2023 33.8049 19.2389 33.8207C19.2728 33.8364 19.2807 33.8653 19.2545 33.8863Z" fill="white"/>
<path fill-rule="evenodd" clip-rule="evenodd" d="M19.2389 33.8813C19.218 33.897 19.1762 33.9023 19.1474 33.8891C19.1187 33.876 19.1135 33.855 19.1344 33.8366C19.1553 33.8209 19.1971 33.8156 19.2258 33.8287C19.2545 33.8419 19.2624 33.8655 19.2389 33.8813Z" fill="black"/>
<path fill-rule="evenodd" clip-rule="evenodd" d="M19.5915 32.7832C19.6306 32.7963 19.6803 32.7884 19.7038 32.7648C19.7273 32.7438 19.7142 32.7149 19.675 32.7017C19.6359 32.6886 19.5862 32.6965 19.5627 32.7175C19.5392 32.7411 19.5523 32.77 19.5915 32.7832Z" fill="white"/>
<path fill-rule="evenodd" clip-rule="evenodd" d="M19.6019 32.7751C19.6332 32.7856 19.6724 32.7804 19.6907 32.762C19.709 32.7436 19.6985 32.72 19.6672 32.7095C19.6359 32.699 19.5967 32.7042 19.5784 32.7226C19.5601 32.741 19.5706 32.7646 19.6019 32.7751Z" fill="black"/>
<path fill-rule="evenodd" clip-rule="evenodd" d="M19.0195 32.8908C19.0378 32.8724 19.0352 32.8593 19.1501 32.8856C19.3747 32.9381 19.4948 32.8015 19.5784 32.7227C19.5784 32.7227 19.7168 32.7122 19.6724 32.7831C19.6724 32.7831 19.487 32.9749 19.3198 32.9617C19.3198 32.9617 19.3198 32.9617 19.3172 32.9591C19.2859 32.9617 19.2441 32.9617 19.1919 32.9565C19.0038 32.9355 19.0038 32.9092 19.0195 32.8908Z" fill="#BCBEC0"/>
<path fill-rule="evenodd" clip-rule="evenodd" d="M19.5549 33.1088C19.5915 33.1245 19.6437 33.1193 19.6698 33.0983C19.6959 33.0772 19.6881 33.0484 19.6515 33.0326C19.615 33.0168 19.5627 33.0221 19.5366 33.0431C19.5105 33.0641 19.5183 33.093 19.5549 33.1088Z" fill="white"/>
<path fill-rule="evenodd" clip-rule="evenodd" d="M19.5653 33.1011C19.5941 33.1142 19.6359 33.1089 19.6568 33.0932C19.6777 33.0774 19.6724 33.0538 19.6437 33.0406C19.615 33.0275 19.5732 33.0328 19.5523 33.0485C19.5288 33.0643 19.5366 33.0879 19.5653 33.1011Z" fill="black"/>
<path fill-rule="evenodd" clip-rule="evenodd" d="M19.0639 33.2219C19.0795 33.2009 19.0743 33.1851 19.1918 33.2087C19.2127 33.214 19.2336 33.2166 19.2545 33.2166C19.4217 33.1851 19.4191 33.1457 19.5497 33.0459C19.5497 33.0459 19.6881 33.0459 19.6332 33.1116C19.6332 33.1116 19.5575 33.172 19.4635 33.2192C19.4504 33.2534 19.4008 33.2849 19.2467 33.277C19.056 33.2691 19.0508 33.2403 19.0639 33.2219Z" fill="#BCBEC0"/>
<path fill-rule="evenodd" clip-rule="evenodd" d="M19.487 33.4212C19.5209 33.4396 19.5732 33.4369 19.6045 33.4185C19.6359 33.4002 19.6332 33.3713 19.6019 33.3529C19.568 33.3345 19.5157 33.3371 19.4844 33.3555C19.453 33.3739 19.453 33.4054 19.487 33.4212Z" fill="white"/>
<path fill-rule="evenodd" clip-rule="evenodd" d="M19.5 33.4161C19.5262 33.4292 19.5679 33.4292 19.5915 33.4135C19.6176 33.3977 19.615 33.3741 19.5888 33.3609C19.5627 33.3478 19.5209 33.3478 19.4974 33.3609C19.4713 33.3767 19.4739 33.4003 19.5 33.4161Z" fill="black"/>
<path fill-rule="evenodd" clip-rule="evenodd" d="M19.1161 33.5424C19.1213 33.5292 19.1213 33.5187 19.1448 33.5161C19.1501 33.5135 19.1579 33.5108 19.1683 33.5108C19.3538 33.4925 19.3407 33.4557 19.4974 33.3638C19.4974 33.3638 19.6359 33.3743 19.5653 33.4347C19.5653 33.4347 19.534 33.4557 19.487 33.4793C19.2127 33.629 19.1057 33.5608 19.1161 33.5424Z" fill="#BCBEC0"/>
<path fill-rule="evenodd" clip-rule="evenodd" d="M19.4583 33.7364C19.4844 33.7575 19.5366 33.7601 19.5732 33.747C19.6098 33.7312 19.6176 33.7023 19.5889 33.6813C19.5627 33.6603 19.5105 33.655 19.4739 33.6708C19.44 33.6865 19.4321 33.7154 19.4583 33.7364Z" fill="white"/>
<path fill-rule="evenodd" clip-rule="evenodd" d="M19.4739 33.7314C19.4948 33.7471 19.5366 33.7497 19.5654 33.7392C19.5941 33.7261 19.5993 33.7051 19.5784 33.6867C19.5575 33.671 19.5157 33.6657 19.487 33.6788C19.4583 33.692 19.4504 33.7156 19.4739 33.7314Z" fill="black"/>
<path fill-rule="evenodd" clip-rule="evenodd" d="M19.1553 33.8734C19.1683 33.8786 19.184 33.8812 19.1997 33.8839C19.3486 33.8786 19.5314 33.7578 19.5314 33.7578C19.6176 33.7027 19.4844 33.6816 19.4844 33.6816C19.3094 33.7631 19.3303 33.7998 19.1762 33.8261C19.1109 33.834 19.1553 33.8734 19.1553 33.8734Z" fill="#BCBEC0"/>
<path fill-rule="evenodd" clip-rule="evenodd" d="M19.5888 32.9331C19.628 32.9462 19.6803 32.9383 19.7011 32.9147C19.7247 32.891 19.7116 32.8648 19.6724 32.8516C19.6332 32.8385 19.5836 32.8464 19.5601 32.8674C19.5366 32.891 19.5497 32.9199 19.5888 32.9331Z" fill="white"/>
<path fill-rule="evenodd" clip-rule="evenodd" d="M19.5967 32.925C19.628 32.9355 19.6672 32.9303 19.6855 32.9119C19.7038 32.8935 19.6933 32.8725 19.662 32.8594C19.6306 32.8489 19.5915 32.8541 19.5732 32.8725C19.5549 32.8909 19.5653 32.9145 19.5967 32.925Z" fill="black"/>
<path fill-rule="evenodd" clip-rule="evenodd" d="M19.0796 32.7229C19.1631 32.8017 19.1788 32.8437 19.2441 32.8779C19.3068 32.912 19.3721 32.9252 19.5079 32.8884C19.6202 32.8569 19.6202 32.8726 19.6385 32.8936C19.6542 32.9094 19.6542 32.933 19.4687 32.9619C19.1553 33.0092 18.9855 32.786 18.9855 32.786C18.9411 32.715 19.0796 32.7229 19.0796 32.7229Z" fill="white"/>
<path fill-rule="evenodd" clip-rule="evenodd" d="M19.5366 33.2611C19.5732 33.2769 19.6254 33.2716 19.6515 33.2506C19.6777 33.2296 19.6724 33.2007 19.6333 33.1849C19.5967 33.1692 19.5445 33.1744 19.5183 33.1954C19.4922 33.2165 19.5001 33.2454 19.5366 33.2611Z" fill="white"/>
<path fill-rule="evenodd" clip-rule="evenodd" d="M19.5471 33.2534C19.5758 33.2665 19.6176 33.2613 19.6385 33.2455C19.6594 33.2298 19.6541 33.2061 19.6254 33.193C19.5967 33.1799 19.5549 33.1851 19.534 33.2009C19.5105 33.2166 19.5183 33.2403 19.5471 33.2534Z" fill="black"/>
<path d="M19.0221 33.114C18.9672 33.0483 19.1056 33.0483 19.1056 33.0483C19.2389 33.1481 19.1997 33.1849 19.3903 33.2164C19.4217 33.2191 19.4478 33.2138 19.4661 33.2112C19.5836 33.1875 19.5784 33.2033 19.5941 33.2243C19.6071 33.2427 19.6019 33.2716 19.4112 33.2795C19.1605 33.29 19.0221 33.114 19.0221 33.114Z" fill="white"/>
<path d="M19.1369 33.1953C19.1369 33.1953 19.1369 33.1978 19.1369 33.2027C19.1344 33.1978 19.1344 33.1978 19.1369 33.1953Z" fill="white"/>
<path fill-rule="evenodd" clip-rule="evenodd" d="M19.4765 33.5735C19.5105 33.5919 19.5627 33.5893 19.5915 33.5709C19.6228 33.5525 19.6202 33.521 19.5888 33.5052C19.5549 33.4868 19.5027 33.4895 19.4713 33.5078C19.4426 33.5262 19.4426 33.5578 19.4765 33.5735Z" fill="white"/>
<path fill-rule="evenodd" clip-rule="evenodd" d="M19.4896 33.5681C19.5157 33.5812 19.5575 33.5812 19.581 33.5655C19.6045 33.5497 19.6045 33.5261 19.5784 33.513C19.5523 33.4998 19.5105 33.4998 19.487 33.5156C19.4609 33.5287 19.4635 33.5524 19.4896 33.5681Z" fill="black"/>
<path fill-rule="evenodd" clip-rule="evenodd" d="M19.1605 33.3608C19.3146 33.4528 19.3042 33.4895 19.4896 33.5079C19.5 33.5079 19.5079 33.5105 19.5131 33.5132C19.534 33.5158 19.5366 33.5263 19.5418 33.5394C19.5497 33.5578 19.4713 33.5893 19.1709 33.4764C19.1239 33.4528 19.0926 33.4318 19.0926 33.4318C19.0221 33.3713 19.1605 33.3608 19.1605 33.3608Z" fill="white"/>
<path fill-rule="evenodd" clip-rule="evenodd" d="M19.4034 33.8863C19.4295 33.9074 19.4818 33.91 19.5183 33.8969C19.5549 33.8811 19.5627 33.8522 19.534 33.8312C19.5079 33.8102 19.4556 33.8049 19.4191 33.8207C19.3825 33.8364 19.3773 33.8653 19.4034 33.8863Z" fill="white"/>
<path fill-rule="evenodd" clip-rule="evenodd" d="M19.4165 33.8813C19.4374 33.897 19.4791 33.9023 19.5079 33.8891C19.5366 33.876 19.5418 33.855 19.5209 33.8366C19.5 33.8209 19.4582 33.8156 19.4295 33.8287C19.4008 33.8419 19.3956 33.8655 19.4165 33.8813Z" fill="black"/>
<path fill-rule="evenodd" clip-rule="evenodd" d="M19.1239 33.7551C19.1239 33.7551 19.1265 33.7577 19.1344 33.7603C19.4609 33.9258 19.4791 33.8785 19.4765 33.8575C19.4765 33.8522 19.4765 33.847 19.4739 33.8417C19.4896 33.8391 19.3198 33.7918 19.171 33.6763C19.171 33.6789 19.0377 33.7025 19.1239 33.7551Z" fill="white"/>
<path fill-rule="evenodd" clip-rule="evenodd" d="M19.2937 32.6937C19.2937 32.6937 18.471 32.6595 18.5729 32.2314C18.6747 31.8033 19.1971 32.4652 19.2963 32.649L19.2467 32.6569C19.2467 32.6569 18.9411 32.2157 18.7635 32.2052C18.5859 32.1947 18.6303 32.3365 18.6878 32.3864C18.7374 32.431 18.8967 32.5781 19.1684 32.6622C19.184 32.6674 19.2467 32.6464 19.265 32.6517C19.2859 32.6569 19.2676 32.6884 19.2937 32.6937Z" fill="#BCBEC0"/>
<path fill-rule="evenodd" clip-rule="evenodd" d="M19.2441 32.5964C19.2441 32.5964 19.4896 32.0974 19.8135 32.1289C20.1373 32.1604 20.1504 32.4047 19.6907 32.5675C19.2284 32.7303 19.2284 32.7303 19.2284 32.7303L19.2258 32.6568C19.2258 32.6568 19.5627 32.5596 19.7168 32.4703C19.8709 32.381 20.025 32.2733 19.884 32.2418C19.7429 32.2129 19.6359 32.2103 19.453 32.4152C19.3642 32.5123 19.312 32.6226 19.2728 32.662C19.231 32.7067 19.2075 32.6778 19.2075 32.6778L19.2441 32.5964Z" fill="#BCBEC0"/>
<path fill-rule="evenodd" clip-rule="evenodd" d="M19.2989 32.7355C19.2989 32.7355 19.3251 32.8196 19.4609 32.9824C19.5967 33.1452 19.5836 33.421 19.5706 33.4341C19.5575 33.4447 19.5941 33.4919 19.5941 33.4919C19.5941 33.4919 19.6437 33.4946 19.675 33.4053C19.7064 33.3186 19.756 33.1426 19.5288 32.9404C19.3015 32.7381 19.2728 32.6462 19.2728 32.6462C19.2728 32.6462 19.1736 32.6278 19.2989 32.7355Z" fill="#D1D3D4"/>
<path fill-rule="evenodd" clip-rule="evenodd" d="M19.2754 32.6226C19.2754 32.6226 19.1893 32.9167 19.171 33.0848C19.1527 33.2529 19.0195 33.4814 19.0325 33.576C19.0482 33.6679 18.9699 33.6626 18.9699 33.6626C18.9699 33.6626 18.9202 33.618 19.0534 33.3107C19.184 33.0008 19.1501 32.8826 19.1814 32.7801C19.218 32.6725 19.2154 32.6357 19.2754 32.6226Z" fill="#D1D3D4"/>
<path d="M29.3833 7.14616C29.3101 7.28799 29.6549 7.20657 29.6053 7.21708C29.6967 7.20394 29.7777 7.39042 30.1224 7.35628L29.9997 8.92952C29.762 8.90851 30.065 8.95053 29.715 8.90851C28.9053 8.81133 28.8635 8.51717 28.6546 8.41999C28.4482 8.32281 27.7979 8.28079 27.7979 8.28079L27.905 7.37729C27.905 7.37729 28.362 7.36678 28.7068 7.29587C28.8635 7.26435 28.8687 7.22496 28.9784 7.16192C29.2109 7.03585 29.5217 6.87564 29.3833 7.14616Z" fill="#E4AE84"/>
<path d="M23.9898 7.21996C24.0525 7.18056 24.1517 7.1543 24.2275 7.13329C24.6793 7.00459 26.1994 7.08601 27.077 7.24885C27.9546 7.41432 28.6284 7.34865 28.6284 7.34865L28.5658 8.38873C28.5658 8.38873 27.9154 8.30731 26.6905 8.49904C25.4655 8.68814 24.5252 8.5752 23.8671 8.35721C23.632 8.26003 23.8174 7.29875 23.9898 7.21996Z" fill="#E4AE84"/>
<path d="M24.4051 7.10177C24.3137 7.13854 23.5772 7.09914 23.5772 7.09914C23.5772 7.09914 23.0339 7.1648 22.3339 7.11753C22.3339 7.11753 21.3231 6.77609 20.2706 6.91004C18.9594 6.30333 16.9587 6.53971 18.0165 8.89563C18.3352 9.69144 19.1005 9.44981 20.1687 9.10049C21.4459 8.68289 21.903 8.81684 22.4776 8.81158C23.2481 8.80633 24.2615 8.58046 24.5618 8.45964C24.5148 7.98951 24.6846 7.47998 24.4051 7.10177Z" fill="#E4AE84"/>
<g opacity="0.26">
<path d="M20.934 8.87477C21.1429 8.75395 21.3571 8.64627 21.5686 8.53596C21.6757 8.4808 21.7802 8.42565 21.8847 8.37049C21.9891 8.31271 22.0936 8.25493 22.1955 8.19189C22.1119 8.28119 22.0153 8.35473 21.9134 8.42302C21.8142 8.49131 21.7071 8.55172 21.6 8.60687C21.4929 8.66203 21.3832 8.71456 21.2709 8.75921C21.1638 8.80123 21.0489 8.84325 20.934 8.87477Z" fill="white"/>
<path d="M24.5514 8.29693C24.5827 8.21814 24.6245 8.15248 24.6663 8.08682L24.729 7.98964C24.7499 7.95812 24.7708 7.92398 24.7917 7.88721C24.8021 7.92923 24.7969 7.97388 24.7838 8.0159C24.7708 8.05793 24.7525 8.0947 24.7316 8.12884C24.7107 8.16298 24.682 8.19713 24.6532 8.22602C24.6219 8.25228 24.5905 8.27855 24.5514 8.29693Z" fill="white"/>
</g>
<path d="M14.2398 5.3999C14.2398 5.3999 14.5741 6.19834 14.1066 6.61069C13.6417 7.02567 16.614 6.84707 16.614 6.61069C16.614 6.37431 16.3031 5.77286 16.4964 5.3999C16.499 5.3999 15.3446 5.42354 14.2398 5.3999Z" fill="#E4AE84"/>
<path d="M19.2467 25.3185C19.2128 25.6521 17.5412 25.7099 17.3949 25.1399C17.2069 23.9633 14.9554 17.7859 16.4155 17.0531C16.4155 17.0531 17.9565 14.3085 18.6251 16.8876C19.1161 18.7839 19.2624 22.6369 19.3225 23.4432C19.3616 24 19.3669 24.7696 19.2467 25.3185Z" fill="#E4AE84"/>
<path d="M17.4289 3.33532C17.4289 4.60915 16.533 5.64396 15.4256 5.64396C14.3182 5.64396 13.4223 4.61177 13.4223 3.33532C13.4223 2.06149 14.3182 1.0293 15.4256 1.0293C16.533 1.02668 17.4289 2.06149 17.4289 3.33532Z" fill="#E4AE84"/>
<path d="M17.1102 4.18613C17.1102 4.18613 16.7968 4.90053 16.2692 5.20782C16.2013 5.24722 16.1256 5.14741 16.0681 5.20782C15.6189 5.68583 15.4883 5.22883 15.4883 5.22883L15.3916 5.23146L15.2558 5.22358C15.2558 5.22358 15.1487 5.61755 14.7204 5.23934C14.6838 5.20519 14.6446 5.27348 14.6002 5.25247C13.9917 4.97669 13.673 4.22028 13.673 4.22028C13.5764 3.65034 13.1193 3.04626 13.3361 3.96289C13.5215 4.69829 13.9812 5.76725 15.3629 5.76725C17.0162 5.76725 17.2983 4.26755 17.3792 4.07057C17.5124 3.75277 17.2069 3.61619 17.1102 4.18613Z" fill="white"/>
<path d="M15.8722 4.49866C15.5745 4.51705 15.4308 4.51705 15.3916 4.66413C15.3524 4.53806 15.1983 4.52756 14.8797 4.52756C14.407 4.52756 14.5558 5.29448 14.5558 5.29448L14.8222 5.62804C14.8222 5.62804 15.1095 5.48358 14.9293 5.41267C14.7517 5.34438 14.7125 5.35751 14.7125 5.07123C14.7125 4.78495 14.804 4.72717 15.086 4.82697C15.3054 4.90576 15.4517 4.90576 15.6737 4.82697C15.9532 4.72717 16.0759 4.78232 16.0759 5.07123C16.0759 5.35751 16.0367 5.34438 15.8591 5.41267C15.6789 5.48096 15.9297 5.5545 15.9297 5.5545L16.2326 5.29448C16.23 5.29185 16.3319 4.4724 15.8722 4.49866Z" fill="white"/>
<path d="M13.9499 5.19258C13.9499 5.19258 13.8585 5.0455 13.7436 4.84326C13.8298 5.11641 13.9499 5.19258 13.9499 5.19258Z" fill="#502919"/>
<path d="M17.8886 1.99598C17.8755 1.83051 17.8337 1.67555 17.7893 1.53635C17.7292 1.35513 17.4576 1.08198 17.3166 0.88762C17.3009 0.863982 17.2852 0.837718 17.2669 0.81408C17.2669 0.81408 17.2669 0.81408 17.2669 0.811453C17.2487 0.779936 17.2225 0.751045 17.1938 0.722154C17.0841 0.603964 16.9326 0.504159 16.7028 0.438498C16.6819 0.433245 16.6636 0.425366 16.6453 0.420113C16.6166 0.406981 16.5905 0.391222 16.5644 0.375463C16.452 0.312429 16.3319 0.283538 16.1935 0.2599C15.7651 0.0865543 15.4543 -0.0684059 15.0808 0.031399C15.0756 0.0340254 15.0625 0.0340254 15.0364 0.0392783C15.0051 0.0340254 14.9763 0.031399 14.9528 0.031399C14.7648 0.031399 14.6394 0.125951 14.3312 0.21525C14.0256 0.301923 13.9133 0.404354 13.6286 0.648614C13.4954 0.761551 13.4249 0.84297 13.3753 0.927017C13.2969 1.02682 13.2316 1.13451 13.1794 1.25532C12.7615 2.23761 13.1872 3.43527 13.2891 3.87126C13.3283 4.03147 13.7096 4.79314 13.7383 4.84042C13.6887 4.68283 13.6548 4.45696 13.6626 4.14179C13.6626 4.10502 13.6626 4.04723 13.6574 3.97632C13.4014 1.91193 14.1484 1.84102 14.8301 2.06427C14.8301 2.06427 14.8379 2.06689 14.8536 2.07215C14.898 2.09316 14.9502 2.11417 15.0129 2.13518C15.2454 2.21923 15.3237 2.15357 15.4804 2.05376C15.5405 2.03538 15.6032 2.00911 15.6659 1.97759C15.7625 1.92507 15.8644 1.88304 15.9662 1.84627C17.2904 1.65979 17.1494 3.3092 17.1102 3.56134C17.071 3.81085 17.0475 4.51999 17.1207 4.19431C17.1259 4.17593 17.1938 4.24947 17.2095 4.09451C17.2147 4.10764 17.2043 4.084 17.2095 4.09451C17.3296 4.35715 17.0371 4.76951 17.0371 4.76951C17.0371 4.76951 17.0919 4.68021 17.1807 4.48585L17.0946 4.76951C17.0946 4.76951 17.3244 4.40443 17.4811 4.04723C17.6039 3.76358 17.805 2.85745 17.8546 2.48187C17.9173 2.25075 17.9303 2.12205 17.8886 1.99598Z" fill="white"/>
<path d="M18.4423 16.2524C18.4423 16.2524 19.009 17.5998 19.4322 20.3655L19.9101 24.7464H16.2535L15.5771 19.2518L15.5353 18.2354V16.6359L18.4423 16.2524Z" fill="#E50914"/>
<path d="M12.6178 16.1235C12.6178 16.1235 15.1121 16.3678 18.5337 16.1235L18.6068 16.8169C18.6068 16.8169 13.9551 17.1452 12.5499 16.7907L12.6178 16.1235Z" fill="white"/>
<g opacity="0.26">
<path d="M15.1539 10.821C15.0547 10.884 14.9476 10.9339 14.8353 10.9733C14.723 11.0127 14.6081 11.0416 14.4931 11.06C14.2607 11.0941 14.023 11.0941 13.7932 11.0442C13.5659 10.9969 13.3465 10.8998 13.1872 10.7422C13.1062 10.6634 13.0436 10.5714 13.0018 10.4664C12.96 10.364 12.9417 10.251 12.9391 10.1355C12.9365 10.0068 12.926 9.87806 12.9051 9.75199C12.8607 9.63906 12.8033 9.53137 12.7458 9.42894C12.7328 9.40793 12.7197 9.38692 12.7066 9.36328C12.7119 9.38429 12.7171 9.40268 12.7197 9.42369C12.7693 9.66007 12.8033 9.89645 12.8007 10.1328C12.798 10.2615 12.8189 10.3928 12.866 10.5163C12.913 10.6397 12.9887 10.7527 13.0827 10.8446C13.1768 10.9365 13.2865 11.0074 13.4014 11.0626C13.5163 11.1177 13.6391 11.1545 13.7618 11.1782C13.8846 11.2018 14.0126 11.2123 14.1379 11.2097C14.2633 11.2097 14.3861 11.1965 14.5088 11.1703C14.7517 11.1204 14.9894 11.0284 15.1905 10.8787C15.2897 10.8026 15.3812 10.7159 15.4517 10.6135C15.5222 10.511 15.5718 10.3955 15.5979 10.2773C15.5222 10.511 15.355 10.6975 15.1539 10.821Z" fill="white"/>
<path d="M15.3237 11.504C15.2793 11.5093 15.2349 11.5198 15.1905 11.5303C15.1043 11.5539 15.0181 11.588 14.9371 11.6301C14.7752 11.7115 14.6263 11.8165 14.4879 11.9295C14.3521 12.0398 14.2163 12.1501 14.0778 12.2552C14.0073 12.3077 13.9394 12.3602 13.8663 12.4101C13.7931 12.46 13.7226 12.5073 13.6417 12.5467C13.7331 12.5388 13.8167 12.5073 13.9002 12.4732C13.9838 12.4364 14.0648 12.397 14.1405 12.3523C14.2946 12.263 14.4409 12.158 14.5793 12.0477C14.7151 11.9374 14.8509 11.8297 14.992 11.7351C15.0651 11.6879 15.1356 11.6406 15.214 11.6038C15.2532 11.5828 15.2923 11.567 15.3315 11.5486C15.3707 11.5329 15.4125 11.5198 15.4569 11.5171C15.4151 11.4987 15.3681 11.4987 15.3237 11.504Z" fill="white"/>
<path d="M14.023 11.7298C14.1249 11.6956 14.2189 11.6378 14.2868 11.5591C14.1849 11.5853 14.0909 11.609 13.9969 11.6168C13.9029 11.6273 13.8114 11.6247 13.72 11.609C13.6286 11.5958 13.5398 11.5722 13.4484 11.5407C13.357 11.5092 13.2682 11.4724 13.1715 11.4277C13.2264 11.517 13.3074 11.5879 13.3988 11.6457C13.4902 11.7009 13.592 11.7403 13.6991 11.756C13.8062 11.7718 13.9185 11.7639 14.023 11.7298Z" fill="white"/>
<path d="M15.436 13.1609C15.3394 13.1951 15.248 13.2213 15.1592 13.2319C15.0704 13.245 14.9816 13.2424 14.8954 13.224C14.8092 13.2082 14.723 13.1793 14.6368 13.1426C14.5506 13.1058 14.467 13.0611 14.3756 13.0112C14.4226 13.1032 14.4958 13.1793 14.5793 13.2424C14.6629 13.3028 14.7622 13.35 14.8692 13.3684C14.9737 13.3894 15.0886 13.3789 15.1879 13.3422C15.2871 13.3054 15.3733 13.2424 15.436 13.1609Z" fill="white"/>
<path d="M15.3812 13.726C15.2924 13.7523 15.2114 13.776 15.1304 13.7838C15.0521 13.7943 14.9737 13.7917 14.898 13.776C14.8222 13.7628 14.7465 13.7366 14.6681 13.705C14.5924 13.6735 14.514 13.6341 14.4305 13.5947C14.4696 13.6788 14.5349 13.7497 14.6107 13.8048C14.6864 13.86 14.7752 13.902 14.8719 13.9204C14.9685 13.9388 15.0704 13.9309 15.1592 13.8941C15.248 13.8626 15.3263 13.8048 15.3812 13.726Z" fill="white"/>
<path d="M14.9032 14.3901C14.851 14.3796 14.7987 14.3665 14.7413 14.3454C14.6864 14.3244 14.629 14.3034 14.5637 14.2798C14.5872 14.3481 14.6316 14.4006 14.6838 14.4453C14.7387 14.4899 14.804 14.5214 14.8745 14.5346C14.945 14.5477 15.0233 14.5398 15.0913 14.5109C15.1592 14.482 15.214 14.4347 15.2454 14.3717C15.1774 14.3848 15.1174 14.3953 15.0625 14.398C15.0077 14.4059 14.9554 14.4006 14.9032 14.3901Z" fill="white"/>
<path d="M16.6845 13.1453C16.5983 13.1821 16.5147 13.211 16.4259 13.2267C16.3397 13.2425 16.2509 13.2451 16.1621 13.2346C16.0733 13.2241 15.9819 13.1952 15.8853 13.1637C15.9453 13.2477 16.0341 13.3108 16.1334 13.3475C16.2326 13.3843 16.3449 13.3948 16.452 13.3738C16.5591 13.3554 16.6584 13.3081 16.7419 13.2477C16.8255 13.1847 16.8986 13.1085 16.9457 13.0166C16.8569 13.0613 16.7707 13.1059 16.6845 13.1453Z" fill="white"/>
<path d="M16.8908 13.5972C16.8072 13.6392 16.7315 13.676 16.6558 13.7075C16.58 13.739 16.5017 13.7653 16.4259 13.7784C16.3502 13.7915 16.2718 13.7942 16.1935 13.7863C16.1125 13.7784 16.0315 13.7548 15.9427 13.7285C15.995 13.8047 16.0733 13.8651 16.1647 13.8992C16.2561 13.9334 16.358 13.9412 16.452 13.9255C16.5487 13.9071 16.6375 13.8651 16.7132 13.8099C16.7863 13.7495 16.8516 13.6812 16.8908 13.5972Z" fill="white"/>
<path d="M16.4181 14.3904C16.3658 14.4009 16.3136 14.4035 16.2587 14.4009C16.2039 14.3983 16.1438 14.3878 16.0733 14.3746C16.1073 14.4377 16.1621 14.485 16.2274 14.5138C16.2927 14.5427 16.3711 14.5506 16.4442 14.5375C16.5173 14.5243 16.5826 14.4928 16.6375 14.4482C16.6897 14.4035 16.7341 14.3484 16.7576 14.2827C16.6923 14.3064 16.6348 14.33 16.58 14.3484C16.5252 14.3668 16.4703 14.3825 16.4181 14.3904Z" fill="white"/>
<path d="M18.4788 9.8386C18.4762 9.78345 18.4762 9.72566 18.4788 9.67051C18.484 9.5707 18.4919 9.4709 18.5102 9.37109C18.4579 9.42888 18.4057 9.48928 18.3613 9.55232C18.3561 9.58909 18.3534 9.62849 18.3508 9.66526C18.3482 9.72566 18.3456 9.78607 18.3456 9.84385C18.3456 9.90164 18.3534 9.9673 18.3534 10.0172C18.3561 10.1249 18.3404 10.2299 18.3012 10.3297C18.262 10.4269 18.202 10.5162 18.1288 10.5924C17.9799 10.7474 17.7788 10.8524 17.5673 10.9154C17.3557 10.9811 17.1285 11.0021 16.9065 10.9916C16.6845 10.9785 16.4599 10.9259 16.2666 10.8156C16.1673 10.7605 16.0785 10.6922 16.0054 10.6081C15.9296 10.5241 15.8722 10.4217 15.833 10.314C15.8565 10.4269 15.9035 10.5372 15.9714 10.6344C16.0393 10.7316 16.1281 10.813 16.2274 10.8787C16.4259 11.01 16.661 11.0809 16.896 11.1072C17.1337 11.1334 17.374 11.1124 17.6038 11.052C17.8337 10.9864 18.0583 10.876 18.2333 10.6974C18.3195 10.6081 18.39 10.5005 18.4344 10.3823C18.4788 10.2641 18.4997 10.1354 18.4919 10.0119C18.4893 9.94628 18.4814 9.89376 18.4788 9.8386Z" fill="white"/>
<path d="M17.3923 12.4705C17.4759 12.5046 17.5621 12.5361 17.6509 12.544C17.5699 12.5046 17.4994 12.4574 17.4262 12.4075C17.3531 12.3575 17.2852 12.305 17.2147 12.2525C17.0762 12.1474 16.9404 12.0371 16.8046 11.9268C16.6662 11.8139 16.5173 11.7114 16.3554 11.6274C16.2744 11.5854 16.1908 11.5512 16.102 11.5276C16.0576 11.5171 16.0132 11.5066 15.9688 11.5013C15.9244 11.4961 15.8774 11.4961 15.833 11.5092C15.8774 11.5118 15.9192 11.5276 15.9584 11.5407C16.0002 11.5565 16.0393 11.5749 16.0759 11.5959C16.1517 11.6353 16.2248 11.6799 16.2979 11.7272C16.4416 11.8244 16.5774 11.9294 16.7132 12.0397C16.8516 12.1527 16.9979 12.2551 17.152 12.3444C17.2277 12.3943 17.3087 12.4337 17.3923 12.4705Z" fill="white"/>
<path d="M17.293 11.6168C17.199 11.609 17.105 11.5853 17.0031 11.5591C17.0736 11.6378 17.165 11.6956 17.2669 11.7298C17.3688 11.7639 17.4811 11.7718 17.5882 11.756C17.6953 11.7403 17.7971 11.7009 17.8885 11.6457C17.9773 11.5906 18.0583 11.5197 18.1158 11.4277C18.0191 11.4698 17.9303 11.5092 17.8389 11.5407C17.7475 11.5722 17.6587 11.5958 17.5673 11.609C17.4785 11.6221 17.3871 11.6247 17.293 11.6168Z" fill="white"/>
<path d="M15.7233 13.6995C15.7233 13.5183 15.7181 13.3345 15.7076 13.1532C15.6972 12.972 15.6815 12.7882 15.6502 12.6069C15.6188 12.7908 15.6032 12.972 15.5927 13.1532C15.5823 13.3371 15.5771 13.5183 15.5771 13.6995C15.5771 13.8834 15.5823 14.0646 15.5927 14.2458C15.6032 14.4271 15.6188 14.6109 15.6502 14.7921C15.6815 14.6109 15.6972 14.4271 15.7076 14.2458C15.7181 14.0646 15.7233 13.8834 15.7233 13.6995Z" fill="white"/>
</g>
<path d="M31 8.28881C31.0026 9.05836 30.3862 9.68608 29.621 9.69133C28.8557 9.69396 28.2315 9.07412 28.2262 8.30194C28.2236 7.5324 28.84 6.90468 29.6053 6.89942C30.3732 6.8968 30.9974 7.51926 31 8.28881Z" fill="#4E4E4D"/>
<path d="M30.4332 8.29163C30.4358 8.74601 30.0702 9.11634 29.6183 9.11896C29.1665 9.12159 28.7982 8.75389 28.7956 8.29951C28.793 7.84514 29.1587 7.47481 29.6105 7.47218C30.0624 7.46956 30.4306 7.83726 30.4332 8.29163Z" fill="#6F6D6C"/>
<path d="M30.0127 8.29427C30.0127 8.51752 29.8351 8.69874 29.6157 8.69874C29.3937 8.69874 29.2161 8.52014 29.2135 8.29952C29.2135 8.0789 29.3911 7.89767 29.6105 7.89505C29.8325 7.89242 30.0127 8.07365 30.0127 8.29427Z" fill="#A7A9AC"/>
<path d="M1.61676 7.14616C1.68989 7.28799 1.34513 7.20657 1.39475 7.21708C1.30595 7.20394 1.22237 7.39042 0.880219 7.35628L1.00036 8.92952C1.23804 8.90851 0.935067 8.95053 1.28505 8.90851C2.09473 8.81133 2.13652 8.51717 2.34546 8.41999C2.5518 8.32281 3.20215 8.28079 3.20215 8.28079L3.09506 7.37729C3.09506 7.37729 2.63799 7.36678 2.29323 7.29587C2.13652 7.26435 2.13129 7.22496 2.01898 7.16192C1.78914 7.03585 1.47833 6.87564 1.61676 7.14616Z" fill="#E4AE84"/>
<path d="M7.01022 7.21996C6.94754 7.18056 6.84829 7.1543 6.77254 7.13329C6.31808 7.00459 4.8006 7.08601 3.92302 7.24885C3.04544 7.41432 2.37158 7.34865 2.37158 7.34865L2.43427 8.38873C2.43427 8.38873 3.08462 8.30731 4.30957 8.49904C5.53453 8.68814 6.47479 8.5752 7.13298 8.35721C7.36804 8.26003 7.1826 7.29875 7.01022 7.21996Z" fill="#E4AE84"/>
<path d="M6.59491 7.10177C6.68633 7.13854 7.42287 7.09914 7.42287 7.09914C7.42287 7.09914 7.96613 7.1648 8.66611 7.11753C8.66611 7.11753 9.67689 6.77609 10.7295 6.91004C12.0406 6.30333 14.0413 6.53971 12.9835 8.89563C12.6648 9.69144 11.8996 9.44981 10.8313 9.10049C9.55414 8.68289 9.09706 8.81684 8.52246 8.81158C7.75196 8.80633 6.73857 8.58046 6.4382 8.45964C6.48522 7.98951 6.31545 7.47998 6.59491 7.10177Z" fill="#E4AE84"/>
<g opacity="0.26">
<path d="M10.0661 8.87477C9.85711 8.75395 9.64294 8.64627 9.43138 8.53596C9.32429 8.4808 9.21982 8.42565 9.11535 8.37049C9.01087 8.31271 8.9064 8.25493 8.80453 8.19189C8.88811 8.28119 8.98475 8.35473 9.08661 8.42302C9.18586 8.49131 9.29295 8.55172 9.40004 8.60687C9.50712 8.66203 9.61682 8.71456 9.72913 8.75921C9.83621 8.80123 9.95114 8.84325 10.0661 8.87477Z" fill="white"/>
<path d="M6.44865 8.29693C6.41731 8.21814 6.37552 8.15248 6.33373 8.08682L6.27105 7.98964C6.25015 7.95812 6.22926 7.92398 6.20836 7.88721C6.19791 7.92923 6.20314 7.97388 6.21359 8.0159C6.22664 8.05793 6.24493 8.0947 6.26582 8.12884C6.28933 8.16298 6.31545 8.19713 6.34418 8.22602C6.37813 8.25228 6.40947 8.27855 6.44865 8.29693Z" fill="white"/>
</g>
<path d="M8.26976e-06 8.28881C-0.00260358 9.05836 0.613792 9.68608 1.37906 9.69133C2.14433 9.69396 2.76856 9.07412 2.77379 8.30194C2.7764 7.5324 2.16 6.90468 1.39473 6.89942C0.626851 6.8968 0.00262012 7.51926 8.26976e-06 8.28881Z" fill="#4E4E4D"/>
<path d="M0.566786 8.29163C0.564175 8.74601 0.929833 9.11634 1.38168 9.11896C1.83353 9.12159 2.2018 8.75389 2.20441 8.29951C2.20703 7.84514 1.84137 7.47481 1.38952 7.47218C0.937669 7.46956 0.569398 7.83726 0.566786 8.29163Z" fill="#6F6D6C"/>
<path d="M0.987274 8.29427C0.987274 8.51752 1.16488 8.69874 1.38427 8.69874C1.60367 8.69874 1.7865 8.52014 1.7865 8.29952C1.7865 8.0789 1.60889 7.89767 1.3895 7.89505C1.16749 7.89242 0.987274 8.07365 0.987274 8.29427Z" fill="#A7A9AC"/>
<path d="M12.7902 6.72369C12.7902 6.72369 13.3204 9.25296 12.6257 11.2123C12.6257 11.2123 12.8033 12.9904 12.7092 13.9884C12.6152 14.9865 12.6204 16.1237 12.6204 16.1237C12.6204 16.1237 14.9998 16.4652 18.5363 16.1237C18.5363 16.1237 18.3613 15.0338 18.39 15.2623C18.4187 15.4881 18.5389 12.5675 18.5102 11.9083C18.4971 11.6089 18.5441 11.2123 18.5441 11.2123C18.5441 11.2123 17.6143 8.71716 18.3456 6.72369L17.912 6.56348C17.912 6.56348 17.1076 9.61278 15.6502 9.61278C14.1928 9.61278 13.4249 7.93711 13.1742 6.56348L12.7902 6.72369Z" fill="#E50914"/>
</g>
<defs>
<clipPath id="clip0_158_3515">
<rect width="31" height="35" fill="white"/>
</clipPath>
</defs>
</svg>
