<svg width="23" height="37" viewBox="0 0 23 37" fill="none" xmlns="http://www.w3.org/2000/svg">
<g clip-path="url(#clip0_158_3362)">
<path d="M10.9682 19.6557C11.0888 19.9256 12.2515 22.5855 12.5314 22.8772C13.4142 23.7958 14.4649 26.2512 14.508 28.2494C14.5424 29.9255 15.0764 32.6507 15.0764 32.6507L13.5218 33.9829C13.5218 33.9829 12.3247 31.0051 10.9639 27.6051C9.96912 25.1236 8.90976 23.3343 8.50928 22.1763C8.53081 21.7062 10.6969 19.4162 10.9682 19.6557Z" fill="#C69874"/>
<path d="M8.15616 22.0371C7.66955 21.9239 8.182 19.0768 9.05187 18.9592C10.8304 18.8896 19.977 17.2657 20.7995 19.5992C22.2507 23.5521 18.1683 23.4563 18.7583 23.3736C21.6564 22.9774 12.0964 23.1646 10.6151 22.9339C9.78825 22.8033 8.94852 22.3157 8.15616 22.0371Z" fill="#E4AE84"/>
<path d="M13.4185 33.9134L12.8629 32.3418C12.8629 32.3418 14.3486 32.5508 14.986 31.9849L15.2013 32.8643C15.2013 32.8686 15.3218 33.7132 13.4185 33.9134Z" fill="white"/>
<path d="M8.79778 18.4761C8.79778 18.4761 6.63171 18.5065 5.66279 18.9724C4.69387 19.4382 4.7843 19.7603 4.56468 20.3306C4.28047 21.0664 5.12881 22.7294 5.12881 22.7294C5.12881 22.7294 6.70492 19.9867 6.75229 19.9475C6.79966 19.9171 8.79778 18.4761 8.79778 18.4761Z" fill="#E4AE84"/>
<path d="M15.7051 35.0842C15.7094 35.4194 15.6534 35.7459 13.5864 35.7372C12.8371 35.7329 11.9672 35.6545 10.6926 35.7546C8.80641 35.9027 7.67815 35.624 7.07527 35.3802C6.58005 35.18 6.16233 34.9797 6.14941 34.8535C6.14941 34.8317 6.14941 34.8143 6.14941 34.7969C6.14941 34.8622 6.14941 34.9231 6.15372 34.971C6.16233 35.1016 6.58435 35.3019 7.07958 35.5021C7.68246 35.7416 8.77626 35.9854 10.6667 35.9114C11.9586 35.8591 12.8414 35.8548 13.5907 35.8591C15.7223 35.8722 15.7137 35.5239 15.7094 35.1756C15.7094 35.1452 15.7094 35.1147 15.7051 35.0842Z" fill="#717375"/>
<path d="M15.408 31.7192C15.3348 31.6887 15.2443 31.7627 15.1797 31.9107C15.0678 32.1589 15.0979 32.4027 15.0979 32.4114H15.1065C15.0764 32.4941 15.0592 32.5855 15.0678 32.69L15.1711 32.6856C15.1582 32.4984 15.2314 32.3678 15.3175 32.2198C15.3563 32.1458 15.3994 32.0718 15.4338 31.9891C15.5113 31.7801 15.4424 31.7322 15.408 31.7192ZM15.3348 31.9499C15.3046 32.0283 15.2616 32.1023 15.2271 32.1719C15.2228 32.185 15.2142 32.1937 15.2056 32.2068C15.2142 32.1327 15.2357 32.0413 15.2745 31.9543C15.3089 31.8759 15.3434 31.8367 15.3649 31.8236C15.3649 31.8411 15.3606 31.8802 15.3348 31.9499Z" fill="#0D0B42"/>
<path fill-rule="evenodd" clip-rule="evenodd" d="M13.7974 35.0149C13.3625 35.028 13.0051 35.1237 12.3634 35.2152C11.7218 35.3066 10.7572 35.4328 10.0079 35.4415C9.25857 35.4502 8.19491 35.3283 7.74706 35.2674C6.99345 35.1629 6.24846 34.8538 6.23985 34.8408L6.18817 34.6318C6.18817 34.6318 6.25707 34.4664 6.4121 34.3706C6.56713 34.2705 6.91594 34.1921 7.85041 33.9135C9.04756 33.5565 9.43944 33.3867 10.038 32.9557C10.6409 32.5204 11.3816 32.1286 11.5883 32.1852C11.7907 32.2417 12.1438 32.4768 12.8586 32.7032C14.2582 33.1473 13.5175 33.1473 14.5381 32.7903C14.9989 32.6292 15.0161 32.0937 15.0549 32.2069C15.0549 32.2069 15.0247 32.6379 15.2702 32.9557C15.5716 33.3475 15.6621 33.9918 15.5802 34.6797C15.1152 34.9235 14.2194 35.0018 13.7974 35.0149Z" fill="#E50914"/>
<path fill-rule="evenodd" clip-rule="evenodd" d="M12.5271 31.7059C12.385 31.5187 12.4065 31.3141 12.1955 31.1617C12.0835 31.079 11.8036 31.1878 11.4333 31.7625C11.1146 32.2588 10.4816 32.6463 10.4816 32.6463L10.516 32.6419C9.67198 33.2209 8.94421 33.4734 8.94421 33.4734L9.01311 33.6214C9.92605 33.2079 10.7443 32.7812 11.317 32.4721C11.5668 32.3894 11.95 32.5287 12.1007 32.4504C12.5701 32.2153 12.6175 31.8278 12.5271 31.7059Z" fill="#0D0B42"/>
<path fill-rule="evenodd" clip-rule="evenodd" d="M6.32596 34.7228C6.36041 34.8926 6.4896 34.9449 6.56711 34.971C6.60157 34.984 6.64032 34.9971 6.67908 35.0102H6.68339C6.72214 35.0232 6.76521 35.0363 6.80827 35.0493C6.85133 35.0624 6.8987 35.0755 6.94607 35.0885H6.95038C6.99344 35.1016 7.04081 35.1146 7.08818 35.1277C7.09248 35.1277 7.09679 35.1277 7.09679 35.1277C7.14416 35.1408 7.19584 35.1538 7.24321 35.1669C7.24321 35.1669 7.24321 35.1669 7.24751 35.1669C7.29919 35.1799 7.35086 35.1886 7.40254 35.2017C7.40685 35.2017 7.41115 35.2017 7.41546 35.2061C7.46283 35.2148 7.5145 35.2278 7.56618 35.2365C7.57048 35.2365 7.57479 35.2365 7.5791 35.2409C7.63077 35.2496 7.68675 35.2583 7.73843 35.267C8.18629 35.328 9.24995 35.4499 9.99924 35.4411C10.7485 35.4324 11.7175 35.3149 12.3548 35.2148C12.8629 35.1364 15.1453 35.0058 15.6018 34.7533C15.6104 34.6967 15.5716 34.4877 15.5759 34.4311C15.5199 34.4747 15.2572 34.6662 15.1582 34.7098C14.4907 35.0189 12.4151 35.0711 11.6959 35.1799C10.9768 35.2888 9.40067 35.476 7.36809 34.9405C7.36809 34.9405 6.46376 34.6401 7.11402 34.3354C7.67814 34.0698 9.0131 33.6171 9.0131 33.6171L9.00449 33.4473C7.08387 34.2265 6.9676 33.8608 6.49821 34.1525C6.4207 34.2004 6.20108 34.3876 6.20538 34.5617C6.23553 34.5661 6.30443 34.614 6.32596 34.7228Z" fill="#E50914"/>
<path d="M15.5932 34.4792C15.6534 33.8436 15.5544 33.3212 15.2659 32.9511C15.253 32.9337 15.24 32.9163 15.2271 32.8945C15.1281 32.9119 15.0764 32.986 15.2056 33.1949C15.4338 33.565 15.4941 34.2659 15.507 34.5184C15.5329 34.501 15.563 34.4922 15.5932 34.4792Z" fill="#E50914"/>
<path fill-rule="evenodd" clip-rule="evenodd" d="M8.88822 34.0264C8.88822 34.0264 9.32746 33.5127 8.69013 33.6433C8.45759 33.6912 6.51544 34.2964 6.66616 34.5924C6.76521 34.7883 6.70923 34.8014 7.12263 34.9842C7.53604 35.167 9.4911 35.3586 9.13799 35.2628C8.36716 35.0582 8.50496 34.7578 9.00018 34.3704C9.49541 33.9785 9.70211 33.8784 9.70211 33.8784L8.88822 34.0264Z" fill="#E50914"/>
<path d="M9.48248 33.9218C9.48248 33.9218 11.4892 35.3759 9.8356 35.328C9.8356 35.328 11.0241 35.4238 11.2782 35.2279C11.5323 35.032 11.2308 34.3137 10.2102 33.5562L9.48248 33.9218Z" fill="#E50914"/>
<path d="M10.3954 33.3823C10.3954 33.3823 12.484 35.041 11.2782 35.2543C11.2782 35.2543 12.1998 35.3022 12.4194 35.0714C12.8673 34.6013 12.1481 33.7741 11.1275 33.0166L10.3954 33.3823Z" fill="#E50914"/>
<path d="M11.3256 32.9164C11.3256 32.9164 13.8146 34.8798 12.4754 35.1497C12.4754 35.1497 13.6252 35.2107 13.8448 34.9799C14.1247 34.6882 12.7768 33.5128 14.1505 32.9817C14.4261 32.8729 12.2859 32.7771 11.9026 32.4897L11.3256 32.9164Z" fill="#E50914"/>
<path fill-rule="evenodd" clip-rule="evenodd" d="M15.3822 33.1296C15.3477 33.0687 15.3089 33.0077 15.2659 32.9511C15.2573 32.9381 15.2487 32.925 15.24 32.912C15.1022 32.5506 15.1238 32.2285 15.1238 32.2285C15.1453 31.5014 14.775 31.8933 14.7448 32.0064C14.6759 32.2502 14.663 32.8075 13.5606 32.7509C12.639 32.703 12.0189 32.3373 11.8811 32.2502C11.5754 32.063 11.4419 32.063 11.4031 32.0717C10.8734 32.3112 10.8002 32.4853 10.3481 32.8336C9.33179 33.491 8.75474 33.6869 8.53943 33.7826C8.53943 33.7826 8.83656 34.1658 9.3361 34.0352C9.35332 34.0308 9.37055 34.0264 9.38777 34.0177C9.405 34.0134 9.42222 34.0047 9.44375 34.0003C9.44806 34.0003 9.45237 33.996 9.45237 33.996C9.46959 33.9916 9.48251 33.9829 9.49974 33.9786C9.51696 33.9699 9.53849 33.9611 9.56002 33.9524C10.2275 33.6259 11.2998 32.9555 11.5668 32.8205C11.8294 32.6856 12.3677 32.7683 12.751 32.8858C13.8706 33.2341 14.0386 32.925 14.7405 33.147C14.986 33.2254 15.296 33.5214 15.5157 34.1179C15.52 34.1266 15.4984 33.578 15.507 33.5824C15.507 33.5824 15.2444 33.2036 15.2487 33.2036C15.2573 33.2036 15.2659 33.2036 15.2745 33.2036H15.2788C15.2874 33.2036 15.3003 33.1993 15.3089 33.1949C15.3089 33.1949 15.3089 33.1949 15.3133 33.1949C15.3219 33.1906 15.3305 33.1862 15.3391 33.1775C15.3391 33.1775 15.3391 33.1775 15.3434 33.1775C15.3477 33.1645 15.3649 33.147 15.3822 33.1296Z" fill="#E50914"/>
<path fill-rule="evenodd" clip-rule="evenodd" d="M11.5022 32.3589C11.5022 32.4155 11.5538 32.459 11.6098 32.459C11.6701 32.459 11.7175 32.4111 11.7132 32.3545C11.7132 32.2979 11.6615 32.2544 11.6055 32.2544C11.5495 32.2587 11.5022 32.3023 11.5022 32.3589Z" fill="white"/>
<path fill-rule="evenodd" clip-rule="evenodd" d="M11.528 32.3591C11.528 32.4026 11.5668 32.4374 11.6141 32.4374C11.6615 32.4374 11.696 32.3983 11.696 32.3547C11.696 32.3112 11.6572 32.2764 11.6098 32.2764C11.5625 32.2764 11.5237 32.3155 11.528 32.3591Z" fill="black"/>
<path fill-rule="evenodd" clip-rule="evenodd" d="M11.5581 32.4463C11.5581 32.4463 11.0629 32.4637 10.9725 32.2721C10.9725 32.2721 10.9897 32.1502 11.0586 32.2025C11.2567 32.3374 11.3213 32.2808 11.6098 32.2765C11.6098 32.2765 11.7175 32.4114 11.5581 32.4463Z" fill="#BCBEC0"/>
<path fill-rule="evenodd" clip-rule="evenodd" d="M10.9294 32.8208C10.9251 32.8774 10.9682 32.9252 11.0242 32.9296C11.0845 32.9339 11.1361 32.8948 11.1404 32.8382C11.1448 32.7816 11.1017 32.7337 11.0457 32.7293C10.9897 32.725 10.938 32.7642 10.9294 32.8208Z" fill="white"/>
<path fill-rule="evenodd" clip-rule="evenodd" d="M10.951 32.8249C10.9466 32.8684 10.9811 32.9076 11.0285 32.912C11.0758 32.9163 11.1146 32.8815 11.1189 32.838C11.1232 32.7944 11.0888 32.7553 11.0414 32.7509C10.9983 32.7465 10.9596 32.777 10.951 32.8249Z" fill="black"/>
<path fill-rule="evenodd" clip-rule="evenodd" d="M10.9725 32.912C10.9725 32.912 10.4773 32.8772 10.4084 32.6769C10.4084 32.6769 10.4385 32.5594 10.5031 32.616C10.684 32.7727 10.7572 32.7205 11.0414 32.7466C11.0457 32.751 11.1404 32.8946 10.9725 32.912Z" fill="#BCBEC0"/>
<path fill-rule="evenodd" clip-rule="evenodd" d="M10.3352 33.1993C10.3222 33.2559 10.361 33.3081 10.417 33.3212C10.473 33.3342 10.5333 33.2994 10.5419 33.2428C10.5548 33.1862 10.516 33.134 10.46 33.1209C10.4041 33.1078 10.3481 33.1427 10.3352 33.1993Z" fill="white"/>
<path fill-rule="evenodd" clip-rule="evenodd" d="M10.3567 33.2037C10.3481 33.2473 10.3739 33.2908 10.4213 33.2995C10.4686 33.3082 10.5117 33.2821 10.5203 33.2386C10.5289 33.195 10.5031 33.1515 10.4557 33.1428C10.4127 33.1341 10.3696 33.1602 10.3567 33.2037Z" fill="black"/>
<path fill-rule="evenodd" clip-rule="evenodd" d="M10.3696 33.295C10.3696 33.295 9.89591 33.2122 9.85284 33.0076C9.85284 33.0076 9.90021 32.8944 9.9562 32.9597C10.1155 33.1339 10.1801 33.086 10.46 33.1426C10.46 33.1426 10.5332 33.2993 10.3696 33.295Z" fill="#BCBEC0"/>
<path fill-rule="evenodd" clip-rule="evenodd" d="M9.70644 33.5258C9.68491 33.5781 9.71075 33.639 9.76673 33.6608C9.82271 33.6826 9.883 33.6564 9.90453 33.6042C9.92606 33.552 9.90022 33.491 9.84424 33.4692C9.78826 33.4475 9.72797 33.4692 9.70644 33.5258Z" fill="white"/>
<path fill-rule="evenodd" clip-rule="evenodd" d="M9.72366 33.5301C9.70643 33.5736 9.72797 33.6215 9.77103 33.6346C9.81409 33.652 9.86146 33.6302 9.88299 33.591C9.90022 33.5475 9.87869 33.504 9.83562 33.4865C9.79256 33.4691 9.74088 33.4909 9.72366 33.5301Z" fill="black"/>
<path fill-rule="evenodd" clip-rule="evenodd" d="M9.71935 33.6217C9.71935 33.6217 9.30594 33.5042 9.30164 33.2909C9.30164 33.2909 9.36623 33.1864 9.4136 33.2604C9.53848 33.4606 9.57293 33.3823 9.83992 33.4868C9.83562 33.4868 9.88299 33.6522 9.71935 33.6217Z" fill="#BCBEC0"/>
<path fill-rule="evenodd" clip-rule="evenodd" d="M11.2481 32.581C11.2481 32.6376 11.2998 32.6812 11.3558 32.6812C11.4161 32.6812 11.4634 32.6333 11.4591 32.5767C11.4591 32.5201 11.4074 32.4766 11.3515 32.4766C11.2912 32.4809 11.2438 32.5244 11.2481 32.581Z" fill="white"/>
<path fill-rule="evenodd" clip-rule="evenodd" d="M11.2696 32.5812C11.2696 32.6248 11.3084 32.6596 11.3557 32.6596C11.4031 32.6596 11.4376 32.6204 11.4376 32.5769C11.4376 32.5334 11.3988 32.4985 11.3514 32.4985C11.3041 32.4985 11.2696 32.5377 11.2696 32.5812Z" fill="black"/>
<path fill-rule="evenodd" clip-rule="evenodd" d="M11.1706 32.1372C11.1706 32.1372 10.8476 32.2025 11.1146 32.4811C11.2825 32.6553 11.3385 32.6248 11.36 32.5856C11.3859 32.5421 11.4203 32.5247 11.2825 32.4419C11.1146 32.3462 11.1017 32.1546 11.1706 32.1372Z" fill="white"/>
<path fill-rule="evenodd" clip-rule="evenodd" d="M10.6495 33.0165C10.6452 33.0731 10.6883 33.121 10.7486 33.1253C10.8089 33.1297 10.8605 33.0905 10.8648 33.0339C10.8691 32.9773 10.8261 32.9294 10.7701 32.9207C10.7055 32.9164 10.6538 32.9599 10.6495 33.0165Z" fill="white"/>
<path fill-rule="evenodd" clip-rule="evenodd" d="M10.671 33.0163C10.6667 33.0598 10.7012 33.099 10.7486 33.1033C10.7959 33.1077 10.8347 33.0729 10.839 33.0293C10.8433 32.9858 10.8088 32.9466 10.7615 32.9423C10.7184 32.9379 10.6754 32.9727 10.671 33.0163Z" fill="black"/>
<path fill-rule="evenodd" clip-rule="evenodd" d="M10.628 32.5464C10.628 32.5464 10.3007 32.5986 10.5332 32.899C10.6797 33.0906 10.7356 33.0644 10.7658 33.0296C10.7959 32.9904 10.8304 32.9774 10.7055 32.8772C10.5462 32.7641 10.5548 32.5551 10.628 32.5464Z" fill="white"/>
<path fill-rule="evenodd" clip-rule="evenodd" d="M10.0337 33.3604C10.0208 33.417 10.0596 33.4692 10.1155 33.4823C10.1715 33.4954 10.2318 33.4605 10.2404 33.4039C10.2533 33.3473 10.2146 33.2951 10.1586 33.282C10.1026 33.269 10.0466 33.3038 10.0337 33.3604Z" fill="white"/>
<path fill-rule="evenodd" clip-rule="evenodd" d="M10.0553 33.3648C10.0466 33.4083 10.0725 33.4518 10.1199 33.4606C10.1672 33.4693 10.2103 33.4431 10.2189 33.3996C10.2275 33.3561 10.2017 33.3125 10.1543 33.3038C10.1112 33.2908 10.0639 33.3212 10.0553 33.3648Z" fill="black"/>
<path fill-rule="evenodd" clip-rule="evenodd" d="M10.0811 32.9205C10.0811 32.9205 9.73657 32.9074 9.93035 33.2339C10.0509 33.4385 10.1112 33.4211 10.1414 33.3907C10.1758 33.3558 10.2146 33.3428 10.0983 33.2339C9.9605 33.099 10.0122 32.9161 10.0811 32.9205Z" fill="white"/>
<path fill-rule="evenodd" clip-rule="evenodd" d="M9.37484 33.6303C9.3533 33.6825 9.37914 33.7435 9.43512 33.7609C9.49111 33.7827 9.55139 33.7565 9.57293 33.7043C9.59446 33.6521 9.56862 33.5911 9.51264 33.5693C9.46096 33.5519 9.40067 33.578 9.37484 33.6303Z" fill="white"/>
<path fill-rule="evenodd" clip-rule="evenodd" d="M9.39636 33.639C9.37913 33.6825 9.40066 33.726 9.44373 33.7434C9.48679 33.7609 9.53847 33.7391 9.55569 33.6999C9.57292 33.6607 9.55138 33.6128 9.50832 33.5954C9.46526 33.578 9.41358 33.5998 9.39636 33.639Z" fill="black"/>
<path fill-rule="evenodd" clip-rule="evenodd" d="M9.54279 33.2124C9.54279 33.2124 9.16814 33.134 9.29733 33.491C9.37915 33.713 9.44375 33.7043 9.4782 33.6782C9.51696 33.6477 9.55571 33.6434 9.46528 33.5171C9.35332 33.3647 9.47389 33.1993 9.54279 33.2124Z" fill="white"/>
<path fill-rule="evenodd" clip-rule="evenodd" d="M11.1835 32.2023C11.1835 32.2023 12.1782 31.8192 11.8639 31.3621C11.5538 30.9094 11.2007 31.8932 11.162 32.1501L11.2266 32.137C11.2266 32.137 11.4117 31.4971 11.6227 31.41C11.8337 31.3229 11.8424 31.5058 11.795 31.5885C11.7519 31.6625 11.6227 31.8976 11.3299 32.1109C11.3127 32.124 11.2266 32.124 11.205 32.137C11.1749 32.1544 11.2136 32.1849 11.1835 32.2023Z" fill="#BCBEC0"/>
<path fill-rule="evenodd" clip-rule="evenodd" d="M11.2869 32.0674C11.2869 32.0674 11.4849 31.4057 11.1447 31.1662C10.8045 30.9268 10.5806 31.1357 10.8821 31.6712C11.1835 32.2067 11.1835 32.2067 11.1835 32.2067L11.2524 32.1414C11.2524 32.1414 11.0113 31.7714 10.9424 31.5624C10.8734 31.3534 10.8175 31.1227 10.9811 31.2141C11.1447 31.3055 11.2481 31.3926 11.2481 31.7322C11.2481 31.8976 11.205 32.0369 11.205 32.1066C11.205 32.1806 11.2524 32.1762 11.2524 32.1762L11.2869 32.0674Z" fill="#BCBEC0"/>
<path fill-rule="evenodd" clip-rule="evenodd" d="M11.1361 32.1674C11.1361 32.1674 11.0371 32.224 10.7658 32.2545C10.4945 32.2893 10.2663 32.5549 10.2663 32.5766C10.2663 32.5984 10.1931 32.6114 10.1931 32.6114C10.1931 32.6114 10.1414 32.5723 10.1888 32.4678C10.2361 32.3633 10.3395 32.1587 10.7357 32.163C11.1318 32.1674 11.2395 32.1064 11.2395 32.1064C11.2395 32.1064 11.3515 32.1761 11.1361 32.1674Z" fill="#D1D3D4"/>
<path fill-rule="evenodd" clip-rule="evenodd" d="M11.2739 32.0977C11.2739 32.0977 10.938 32.2979 10.7356 32.3763C10.5333 32.4546 10.2921 32.6897 10.1715 32.7028C10.0509 32.7158 10.0854 32.8073 10.0854 32.8073C10.0854 32.8073 10.1586 32.8508 10.4988 32.5939C10.839 32.3327 11.0026 32.3371 11.1146 32.2674C11.2309 32.1847 11.2826 32.176 11.2739 32.0977Z" fill="#D1D3D4"/>
<path d="M15.6663 34.7753C15.6362 34.7057 15.5888 34.5098 15.5759 34.4314C15.3218 34.5141 14.1807 35.0104 12.4366 35.1062C11.7864 35.141 10.7399 35.276 9.99063 35.2847C9.24133 35.2934 8.23366 35.2411 7.7858 35.1802C7.34225 35.1192 6.87286 34.9973 6.58434 34.8929C6.50683 34.8667 6.38194 34.7927 6.38194 34.5968C6.38194 34.4227 6.33027 34.2573 6.2183 34.4314C6.1494 34.5359 6.15371 34.8276 6.15371 34.9103C6.16232 35.0409 6.58434 35.2411 7.07957 35.437C7.68245 35.6765 8.79348 35.9203 10.6839 35.8463C11.9758 35.794 12.8414 35.7897 13.5907 35.794C15.7223 35.8071 15.7137 35.4588 15.7094 35.1105C15.7094 34.9886 15.6879 34.8189 15.6663 34.7753Z" fill="#D3D5D6"/>
<path d="M15.1625 34.997C15.1625 34.997 13.8362 35.3366 13.2591 35.3453C12.3591 35.3584 12.9233 35.5412 13.8534 35.6109C15.4295 35.7328 15.7482 34.9579 15.1625 34.997Z" fill="#ABADB0"/>
<path d="M9.47388 35.7458C9.47388 35.7458 7.88055 35.7807 6.8212 35.2539C6.8212 35.2539 7.44561 35.3453 7.88055 35.4106C9.47388 35.6501 9.67628 35.3061 9.47388 35.7458Z" fill="#ABADB0"/>
<path d="M22.4789 21.0617C22.2076 22.1762 21.4023 23.0817 18.319 23.5824C15.0635 24.1135 13.0524 24.2267 13.0524 24.2267L11.4978 18.3408C11.4978 18.3408 16.5147 18.3887 17.3716 18.2189C18.2286 18.0448 18.2157 17.8489 18.2157 17.8489L21.1009 16.4775C21.1009 16.4775 23.2454 17.9359 22.4789 21.0617Z" fill="#E50914"/>
<path d="M13.5519 11.3059C10.2016 9.06387 9.26717 7.37038 5.27091 7.82314C4.34075 7.92762 4.27185 10.1348 4.27185 10.1348C4.27185 10.1348 4.69818 10.9054 5.30536 11.9763C6.52836 14.1356 8.24227 15.1631 9.51694 14.8844C10.1715 14.7408 11.6701 15.6724 12.4581 16.0599C16.1443 17.8709 17.574 18.3324 20.3344 19.3076C20.976 19.5339 21.299 19.1726 21.4067 18.3716C20.6961 17.9362 21.6263 16.1165 20.2569 15.4722C17.9573 14.3969 16.8721 13.5262 13.5519 11.3059Z" fill="#E4AE84"/>
<g opacity="0.26">
<path d="M13.6553 14.8581C13.651 14.9974 13.6381 15.1367 13.6036 15.2629C13.5692 15.3935 13.5175 15.5154 13.4486 15.6286C13.3754 15.7462 13.2806 15.8507 13.1773 15.9639C13.328 15.9334 13.4701 15.8507 13.5821 15.7375C13.694 15.6243 13.7802 15.4719 13.8189 15.3152C13.862 15.1585 13.862 14.993 13.8318 14.8363C13.8017 14.6839 13.7414 14.5359 13.6467 14.4097C13.651 14.5707 13.6596 14.7188 13.6553 14.8581Z" fill="#511D06"/>
<path d="M14.396 14.8623C14.4003 15.0016 14.4046 15.1322 14.396 15.2585C14.3917 15.3847 14.3788 15.5066 14.3486 15.6198C14.3185 15.733 14.2754 15.8418 14.2108 15.9463C14.1505 16.0508 14.0644 16.1466 13.974 16.2554C14.1118 16.2336 14.241 16.1596 14.3443 16.0595C14.4477 15.9594 14.5252 15.8201 14.5596 15.6764C14.5984 15.5327 14.5941 15.3847 14.5682 15.2454C14.5424 15.1017 14.4864 14.9711 14.396 14.8623Z" fill="#511D06"/>
<path d="M15.1754 16.0159C15.1539 16.0943 15.128 16.1683 15.0893 16.2423C15.0505 16.3163 14.9989 16.3903 14.9386 16.4774C15.0419 16.473 15.141 16.4251 15.2228 16.3511C15.3046 16.2771 15.3649 16.177 15.3907 16.0681C15.4166 15.9593 15.4166 15.8505 15.3907 15.746C15.3649 15.6459 15.3175 15.5501 15.24 15.4761C15.2314 15.5806 15.2271 15.672 15.2185 15.7634C15.2099 15.8548 15.1969 15.9375 15.1754 16.0159Z" fill="#511D06"/>
<path d="M10.305 10.3088C10.2275 10.2783 10.15 10.2435 10.0767 10.2043C9.94325 10.1346 9.81837 10.0519 9.69349 9.96484C9.73224 10.0867 9.77961 10.2086 9.82698 10.3218C9.87435 10.3523 9.92172 10.3828 9.9734 10.4089C10.0509 10.4524 10.1327 10.496 10.2145 10.5308C10.2964 10.5656 10.3868 10.5961 10.4557 10.6266C10.6021 10.6875 10.7356 10.7833 10.839 10.9095C10.9423 11.0358 11.0198 11.1882 11.0672 11.3579C11.1662 11.6975 11.1576 12.0893 11.0844 12.4768C11.0155 12.8642 10.8777 13.243 10.6969 13.5956C10.5117 13.9483 10.2748 14.2791 9.98201 14.5273C9.83559 14.6535 9.67626 14.7536 9.50401 14.8233C9.33175 14.893 9.1552 14.9234 8.97864 14.9147C9.15089 14.9495 9.33176 14.9408 9.51693 14.8886C9.69779 14.8364 9.87435 14.7449 10.038 14.6274C10.3653 14.388 10.6366 14.0527 10.8433 13.687C11.0543 13.3214 11.205 12.9165 11.2954 12.4986C11.3773 12.085 11.3945 11.6496 11.2825 11.2535C11.2265 11.0576 11.1318 10.8747 11.0069 10.7267C10.882 10.5787 10.7227 10.4655 10.5504 10.4002C10.46 10.361 10.3825 10.3392 10.305 10.3088Z" fill="#511D06"/>
<path d="M13.1859 13.4605C13.2806 13.3647 13.3797 13.2689 13.4486 13.1514C13.3452 13.2384 13.2333 13.3081 13.1213 13.3734C13.0093 13.443 12.8931 13.504 12.7811 13.5693C12.5529 13.6955 12.316 13.8131 12.0835 13.9306C11.8423 14.0482 11.6098 14.1875 11.3988 14.3573C11.2911 14.4443 11.1921 14.5401 11.106 14.6446C11.0629 14.6968 11.0198 14.7534 10.9854 14.8144C10.9509 14.8753 10.9208 14.9363 10.9122 15.0059C10.9466 14.9493 10.9897 14.8971 11.0371 14.8536C11.0844 14.81 11.1318 14.7665 11.1835 14.7273C11.2825 14.6446 11.3945 14.5749 11.5021 14.5053C11.7218 14.3703 11.95 14.2484 12.1868 14.1309C12.4237 14.009 12.6562 13.874 12.8758 13.7173C12.9792 13.6346 13.0869 13.5519 13.1859 13.4605Z" fill="#511D06"/>
<path d="M11.9672 13.0556C11.8983 13.1774 11.8079 13.295 11.7088 13.4169C11.8596 13.3734 11.9974 13.2819 12.105 13.16C12.217 13.0425 12.2988 12.8901 12.3419 12.7334C12.3892 12.5767 12.3978 12.4112 12.3806 12.2502C12.3634 12.0934 12.316 11.9367 12.2299 11.8018C12.2299 11.9585 12.2213 12.1065 12.2084 12.2545C12.1954 12.3982 12.1696 12.5375 12.1308 12.6724C12.0964 12.8031 12.0404 12.9337 11.9672 13.0556Z" fill="#511D06"/>
<path d="M13.8017 16.534C13.5563 16.4208 13.3065 16.3119 13.0524 16.2075C12.7983 16.1073 12.54 16.0159 12.2773 15.9419C12.5055 16.0986 12.7424 16.2336 12.9835 16.3685C13.2247 16.4991 13.4658 16.621 13.7156 16.7342C13.961 16.8518 14.2108 16.9562 14.4649 17.0607C14.719 17.1609 14.9773 17.2523 15.24 17.3263C15.0118 17.1696 14.7749 17.0303 14.5381 16.8997C14.2926 16.7691 14.0515 16.6472 13.8017 16.534Z" fill="#511D06"/>
</g>
<path d="M2.77325 8.54582C2.77325 8.54582 4.57329 10.248 4.87904 11.0621C5.18479 11.8806 6.40778 8.08436 6.08911 7.93634C5.76614 7.78832 4.18572 7.24414 3.78524 6.77832C3.78524 6.77832 3.40628 7.24849 2.77325 8.54582Z" fill="#E4AE84"/>
<path d="M7.37669 7.25283C6.95467 7.38343 5.55081 8.68076 5.40009 9.07257C5.37856 9.07693 5.29243 9.3599 5.2709 9.47309C4.9953 10.3655 5.37856 12.7599 5.58957 13.1518C7.77717 17.1744 10.1672 17.1744 11.3428 17.3267C13.1385 17.5662 14.7491 17.7664 14.5984 17.0176C15.7352 16.6737 18.1252 16.813 18.9779 16.2079C20.5368 15.5766 21.932 15.1935 21.932 15.1935C21.4282 13.9049 18.6334 13.4739 14.8438 11.1187C10.0466 8.12787 9.41788 6.62158 7.37669 7.25283ZM10.6969 12.046C9.80975 13.709 5.73598 12.1026 6.10202 9.40779C6.09771 9.25542 5.90393 9.32943 6.06326 9.20318C7.15707 8.10175 11.571 8.74171 10.6969 12.046Z" fill="#E50914"/>
<path d="M5.58957 7.72738C5.58957 7.72738 6.95467 7.84057 7.29487 7.77527C7.63507 7.70997 10.3653 8.48488 10.3653 8.48488L8.9571 7.501C8.96141 7.50535 6.81687 7.17449 5.58957 7.72738Z" fill="#E6E7E8"/>
<path d="M6.8341 5.54194C6.40347 7.39651 6.46376 8.55889 3.90151 8.52406C2.98426 8.511 1.72682 8.51971 1.24021 8.47182C0.413395 8.39346 0.327269 7.34863 0.439233 5.16319C0.525359 3.41311 1.55026 1.55418 1.55026 1.55418C2.37277 0.875042 4.1039 1.33651 5.13311 1.58465C7.0365 2.03306 7.34655 3.33474 6.8341 5.54194Z" fill="#E4AE84"/>
<path d="M0.908625 3.27783C0.908625 3.27783 0.211003 5.23689 0.0990392 5.38926C-0.00861855 5.54163 -0.14642 5.82025 0.370337 5.93344C0.904319 6.05098 1.08088 5.85943 1.08088 5.85943L0.908625 3.27783Z" fill="#E4AE84"/>
<path d="M3.9101 5.43313C3.9101 5.43313 3.32875 7.46184 2.10576 7.45313C1.98518 7.45313 1.86891 7.69692 1.76125 7.76658C0.943054 8.31076 0.559793 7.52278 0.559793 7.52278L0.46936 7.50972C0.482279 7.73175 0.512423 7.8014 0.546874 7.91895C0.628694 8.21063 0.671757 8.38041 0.87846 8.40653C3.12205 8.79399 3.89288 8.10179 4.06944 7.85365C4.37088 7.43136 4.24599 4.62774 3.9101 5.43313Z" fill="white"/>
<path d="M1.70528 6.42553C1.26603 6.34717 0.460754 6.09031 0.340178 6.3907C0.288502 6.53872 0.357403 6.73898 0.404772 6.76074C0.542574 6.79557 1.08086 6.8304 1.26603 6.83475C1.56748 6.84346 1.72681 7.18738 1.62776 7.60967C1.52872 8.03195 1.67083 7.94488 1.38661 7.98407C1.10239 8.02325 1.44259 8.2148 1.44259 8.2148L1.97227 7.94053C1.96796 7.94488 2.38567 6.54743 1.70528 6.42553Z" fill="white"/>
<path d="M3.32877 7.45749C3.32877 7.45749 3.46226 7.33994 3.58714 7.17016C3.61298 7.12227 3.63451 7.0918 3.63451 7.0918C3.44073 7.3443 3.32877 7.45749 3.32877 7.45749Z" fill="white"/>
<path d="M5.51638 3.68285C5.55514 3.4347 5.54653 3.19526 5.525 2.97323C5.49916 2.68591 5.19341 2.19397 5.05561 1.85875C5.04269 1.81522 5.02546 1.77603 5.00824 1.7325V1.72815C4.99101 1.67591 4.96518 1.62366 4.93503 1.57578C4.81446 1.36246 4.62928 1.16655 4.31492 0.98806C4.28478 0.970646 4.25894 0.957586 4.2331 0.940172C4.19865 0.909698 4.1642 0.879224 4.12975 0.848749C3.98764 0.718146 3.824 0.631077 3.63022 0.548361C3.3417 0.343749 3.09624 0.15655 2.84647 0.0215931C2.63977 -0.0132345 2.42876 -0.00888105 2.22636 0.0564208C2.0455 0.117369 1.88186 0.213145 1.73114 0.330688C1.5675 0.456938 1.40386 0.587542 1.30051 0.770387C1.20577 0.953232 1.14548 1.14914 1.10242 1.3494C1.05074 1.58013 1.08519 1.79345 1.06797 2.02854C1.05935 2.22009 0.960308 2.38987 1.01629 2.58578C1.02921 2.63367 1.05074 2.69461 1.07658 2.75121C1.13256 2.79474 1.19715 2.84263 1.27467 2.89052C1.58472 3.09513 1.72252 3.02112 1.98521 2.9297C2.07995 2.92099 2.17899 2.90793 2.28235 2.88181C2.44168 2.84263 2.60532 2.81216 2.76465 2.79474C4.76278 2.98194 3.70773 5.92052 3.56132 6.27315C3.4149 6.62578 3.43213 7.0916 3.64745 6.63884C3.66036 6.61708 3.73357 6.74768 3.81109 6.53001C3.81109 6.52565 3.81109 6.51695 3.81109 6.52565C3.85415 6.74768 3.72496 6.98712 3.59146 7.16561C3.52687 7.2788 3.4149 7.47471 3.4149 7.47471C3.4149 7.47471 3.87137 7.01759 4.22449 6.54742C4.50009 6.17302 5.10298 4.91488 5.30107 4.3794C5.46901 4.06595 5.53361 3.88311 5.51638 3.68285Z" fill="white"/>
<path d="M2.84647 0.0214901C2.84647 0.0214901 3.47088 0.0171367 4.04793 0.24787C4.62497 0.478603 4.68095 0.287051 5.07713 0.382827C5.47332 0.478603 6.10634 0.805112 6.45946 1.08373C7.75135 2.10679 7.56618 2.82947 7.69537 3.20386C7.82456 3.57826 8.01404 4.35753 7.80733 4.71016C7.60063 5.06714 7.45852 5.15857 7.44991 5.71581C7.4456 6.2774 7.32933 6.10762 7.05804 6.48202C6.78674 6.85641 6.92023 6.86947 6.70492 7.19598C6.4896 7.51814 6.61018 7.58344 6.33027 7.73146C6.05036 7.87947 6.1451 7.94478 5.97285 8.08844C5.80059 8.2321 5.85658 8.30611 5.5982 8.354C5.34413 8.40189 4.31922 8.83288 3.87567 8.14939C3.32877 7.31352 3.75079 7.06973 3.70773 6.97396C3.66036 6.87818 4.24602 5.55038 4.24602 5.55038C4.24602 5.55038 4.7111 4.66227 4.70679 4.55344C4.70249 4.4446 4.89627 3.80464 4.81876 3.47378C4.74124 3.14292 3.6862 1.42766 3.63452 1.36671C3.58715 1.30576 2.84647 0.0214901 2.84647 0.0214901Z" fill="white"/>
<path d="M7.71689 20.622C7.83747 20.8919 9.00017 23.5519 9.28008 23.8435C10.1629 24.7621 11.2136 27.2175 11.2567 29.2157C11.2911 30.8918 11.8294 33.6214 11.8294 33.6214L10.2791 34.9536C10.2791 34.9536 9.08199 31.9758 7.7212 28.5801C6.72644 26.0986 5.66709 24.3094 5.2666 23.1513C5.28383 22.6725 7.44559 20.3825 7.71689 20.622Z" fill="#E4AE84"/>
<path d="M4.98239 22.1677C4.48716 22.1024 4.72401 19.2161 5.57666 19.0158C7.33794 18.772 16.2864 16.2601 17.3286 18.5021C17.3286 18.5021 20.1406 22.2025 16.2735 23.1211C13.4271 23.8003 9.00448 22.9034 7.51019 22.8207C6.68338 22.7685 5.79628 22.368 4.98239 22.1677Z" fill="#E4AE84"/>
<path d="M10.1715 34.8841L9.616 33.3125C9.616 33.3125 11.1017 33.5215 11.739 32.9556L11.9543 33.835C11.9543 33.835 12.0749 34.6839 10.1715 34.8841Z" fill="white"/>
<path d="M8.1389 18.8066C8.1389 18.8066 6.84701 19.0983 5.87809 19.5641C4.90487 20.03 4.99961 20.3521 4.77998 20.9224C4.49577 21.6582 5.34411 23.3212 5.34411 23.3212C5.34411 23.3212 6.92022 20.5785 6.96759 20.5437C7.01065 20.5045 8.1389 18.8066 8.1389 18.8066Z" fill="#E4AE84"/>
<path d="M12.8586 36.1681C12.8629 36.5034 12.8113 36.8299 10.8562 36.8168C10.1457 36.8125 9.32316 36.7341 8.1174 36.8342C6.33458 36.9822 5.26662 36.6993 4.69819 36.4598C4.2288 36.2639 3.83262 36.0593 3.82401 35.9331C3.82401 35.9113 3.82401 35.8939 3.82401 35.8765C3.82401 35.9418 3.82401 36.0027 3.82831 36.0506C3.83692 36.1812 4.2331 36.3815 4.70249 36.5817C5.27093 36.8212 6.30444 37.065 8.09586 36.9909C9.31886 36.9387 10.1543 36.9344 10.8605 36.9387C12.8759 36.9518 12.8673 36.6035 12.863 36.2552C12.863 36.2247 12.8629 36.1986 12.8586 36.1681Z" fill="#717375"/>
<path d="M12.5787 32.8032C12.5098 32.7727 12.428 32.8467 12.3634 32.9947C12.2558 33.2429 12.2859 33.4866 12.2859 33.4954H12.2945C12.2687 33.5781 12.2514 33.6695 12.2558 33.774L12.3548 33.7696C12.3462 33.5781 12.4108 33.4518 12.4926 33.3038C12.5314 33.2298 12.5701 33.1558 12.6003 33.0731C12.6735 32.8641 12.6089 32.8119 12.5787 32.8032ZM12.5098 33.0295C12.4797 33.1079 12.4409 33.1819 12.4065 33.2516C12.4022 33.2646 12.3936 33.2733 12.3893 33.2864C12.3979 33.2124 12.4194 33.121 12.4582 33.0339C12.4926 32.9555 12.5227 32.9207 12.54 32.9033C12.5357 32.925 12.5314 32.9642 12.5098 33.0295Z" fill="#0D0B42"/>
<path fill-rule="evenodd" clip-rule="evenodd" d="M11.0543 36.0987C10.6409 36.1074 10.305 36.2032 9.69782 36.299C9.09063 36.3904 8.17769 36.5166 7.47146 36.5253C6.76092 36.5341 5.75755 36.4122 5.33122 36.3512C4.62068 36.2467 3.91444 35.9376 3.90583 35.9246L3.85416 35.72C3.85416 35.72 3.91875 35.5545 4.06517 35.4587C4.21158 35.363 4.53886 35.2803 5.42596 35.0016C6.55852 34.6447 6.92886 34.4749 7.49729 34.0439C8.06573 33.6085 8.76766 33.2124 8.96144 33.2733C9.15522 33.3299 9.48681 33.565 10.1629 33.7914C11.4849 34.2354 10.783 34.2354 11.7519 33.8784C12.1869 33.7174 12.2041 33.1819 12.2385 33.2951C12.2385 33.2951 12.2084 33.7261 12.4409 34.0439C12.7295 34.4357 12.8113 35.08 12.7338 35.7678C12.3031 36.0073 11.4548 36.0856 11.0543 36.0987Z" fill="#E50914"/>
<path fill-rule="evenodd" clip-rule="evenodd" d="M9.85284 32.7899C9.71935 32.6027 9.74088 32.3981 9.53848 32.2457C9.43082 32.163 9.16814 32.2718 8.81933 32.8465C8.51789 33.3428 7.91931 33.7302 7.91931 33.7302L7.94945 33.7259C7.15278 34.3049 6.46378 34.5574 6.46378 34.5574L6.53268 34.7054C7.39394 34.2918 8.16907 33.8652 8.71167 33.5561C8.94852 33.4734 9.31025 33.6127 9.45235 33.5343C9.8959 33.2949 9.93897 32.9118 9.85284 32.7899Z" fill="#0D0B42"/>
<path fill-rule="evenodd" clip-rule="evenodd" d="M3.98764 35.8069C4.01778 35.9766 4.14267 36.0289 4.21588 36.055C4.25033 36.0681 4.28478 36.0811 4.32353 36.0942H4.32784C4.3666 36.1072 4.40535 36.1203 4.44411 36.1334C4.48717 36.1464 4.53024 36.1595 4.5733 36.1725H4.57761C4.62067 36.1856 4.66373 36.1987 4.70679 36.2117C4.7111 36.2117 4.71541 36.2117 4.71541 36.2161C4.76278 36.2291 4.80584 36.2422 4.85752 36.2553C4.85752 36.2553 4.85752 36.2553 4.86182 36.2553C4.90919 36.2683 4.96087 36.2814 5.00824 36.2901C5.01254 36.2901 5.01685 36.2901 5.01685 36.2944C5.06422 36.3031 5.11159 36.3119 5.15896 36.3206C5.16326 36.3206 5.16757 36.3249 5.17188 36.3249C5.22355 36.3336 5.27523 36.3423 5.3226 36.351C5.74461 36.412 6.75229 36.5339 7.46283 36.5252C8.17337 36.5165 9.08631 36.3989 9.68919 36.2988C10.1672 36.2204 12.329 36.0898 12.7596 35.8417C12.7639 35.7851 12.7294 35.5761 12.7338 35.5195C12.6821 35.5587 12.4323 35.7503 12.3376 35.7981C11.7089 36.1072 9.74518 36.1595 9.06478 36.2683C8.38438 36.3772 6.8944 36.5644 4.96948 36.0289C4.96948 36.0289 4.11683 35.7285 4.73263 35.4237C5.26661 35.1582 6.52836 34.7054 6.52836 34.7054L6.51975 34.5356C4.70249 35.3149 4.59483 34.9492 4.15128 35.2409C4.07807 35.2888 3.87137 35.476 3.87568 35.6501C3.90582 35.6501 3.97042 35.698 3.98764 35.8069Z" fill="#E50914"/>
<path d="M12.751 35.5632C12.807 34.9276 12.7122 34.4052 12.4409 34.0351C12.428 34.0177 12.4151 34.0003 12.4022 33.9785C12.3117 33.9959 12.2601 34.0699 12.385 34.2789C12.6003 34.6489 12.6606 35.3499 12.6692 35.6024C12.695 35.5849 12.7252 35.5762 12.751 35.5632Z" fill="#E50914"/>
<path fill-rule="evenodd" clip-rule="evenodd" d="M6.41211 35.1104C6.41211 35.1104 6.82982 34.5967 6.22263 34.7273C6.00301 34.7752 4.16421 35.3803 4.31063 35.6764C4.40537 35.8723 4.35369 35.8853 4.74126 36.0682C5.13313 36.251 6.98054 36.4426 6.64465 36.3468C5.91688 36.1422 6.04607 35.8418 6.51546 35.4543C6.98485 35.0669 7.17863 34.9624 7.17863 34.9624L6.41211 35.1104Z" fill="#E50914"/>
<path d="M6.97192 35.0058C6.97192 35.0058 8.87101 36.4642 7.30782 36.412C7.30782 36.412 8.43176 36.5078 8.67292 36.3119C8.91407 36.116 8.62985 35.3976 7.66093 34.6401L6.97192 35.0058Z" fill="#E50914"/>
<path d="M7.83749 34.4663C7.83749 34.4663 9.81409 36.1249 8.67292 36.3383C8.67292 36.3383 9.54279 36.3861 9.74949 36.1554C10.1715 35.6852 9.49112 34.8581 8.5265 34.1006L7.83749 34.4663Z" fill="#E50914"/>
<path d="M8.71597 33.996C8.71597 33.996 11.0715 35.9594 9.80547 36.2293C9.80547 36.2293 10.8907 36.2902 11.1017 36.0595C11.3644 35.7678 10.0897 34.5924 11.3945 34.0613C11.6572 33.9524 9.63322 33.8567 9.26718 33.5693L8.71597 33.996Z" fill="#E50914"/>
<path fill-rule="evenodd" clip-rule="evenodd" d="M12.5529 34.2136C12.5184 34.1527 12.484 34.0917 12.4452 34.0351C12.4366 34.0221 12.428 34.009 12.4194 33.9959C12.2902 33.6346 12.3117 33.3124 12.3117 33.3124C12.3333 32.5854 11.9845 32.9772 11.9543 33.0904C11.8897 33.3342 11.8768 33.8915 10.8347 33.8349C9.9648 33.787 9.37914 33.4213 9.24564 33.3342C8.95712 33.147 8.83224 33.147 8.79348 33.1601C8.28964 33.3995 8.22505 33.5737 7.79442 33.9219C6.8298 34.5793 6.28721 34.7752 6.08051 34.871C6.08051 34.871 6.36042 35.2541 6.83411 35.1235C6.85133 35.1191 6.86425 35.1148 6.88148 35.1104C6.8987 35.1061 6.91593 35.0974 6.93315 35.093C6.93746 35.093 6.93746 35.0887 6.94177 35.0887C6.95469 35.0843 6.97191 35.0756 6.98483 35.0712C7.00206 35.0625 7.02359 35.0538 7.04081 35.0451C7.66953 34.7186 8.69013 34.0482 8.93559 33.9132C9.18535 33.7783 9.6935 33.861 10.0552 33.9785C11.1146 34.3268 11.2739 34.0177 11.9371 34.2397C12.1696 34.3181 12.4581 34.6141 12.6692 35.2106C12.6735 35.2193 12.6519 34.6707 12.6605 34.6751C12.6605 34.6751 12.4108 34.292 12.4151 34.292C12.4237 34.292 12.4323 34.292 12.4366 34.292C12.4366 34.292 12.4366 34.292 12.4409 34.292C12.4495 34.292 12.4582 34.2876 12.4668 34.2833C12.4668 34.2833 12.4668 34.2833 12.4711 34.2789C12.4797 34.2746 12.4883 34.2702 12.4969 34.2615C12.5184 34.2441 12.5357 34.231 12.5529 34.2136Z" fill="#E50914"/>
<path fill-rule="evenodd" clip-rule="evenodd" d="M8.88391 33.4429C8.88391 33.4995 8.93128 33.543 8.98726 33.543C9.04325 33.543 9.08631 33.4951 9.08631 33.4385C9.08631 33.3819 9.03894 33.3384 8.98296 33.3384C8.93128 33.3384 8.88391 33.3863 8.88391 33.4429Z" fill="white"/>
<path fill-rule="evenodd" clip-rule="evenodd" d="M8.90546 33.4429C8.90546 33.4864 8.94421 33.5213 8.98728 33.5213C9.03034 33.5213 9.06479 33.4821 9.06479 33.4386C9.06479 33.395 9.02603 33.3558 8.98297 33.3602C8.93991 33.3602 8.90546 33.3994 8.90546 33.4429Z" fill="black"/>
<path fill-rule="evenodd" clip-rule="evenodd" d="M8.93561 33.5302C8.93561 33.5302 8.46622 33.5477 8.3801 33.3561C8.3801 33.3561 8.39732 33.2342 8.46192 33.2865C8.64709 33.4258 8.71168 33.3648 8.98298 33.3605C8.98729 33.3605 9.09064 33.4954 8.93561 33.5302Z" fill="#BCBEC0"/>
<path fill-rule="evenodd" clip-rule="evenodd" d="M8.34133 33.9047C8.33702 33.9613 8.37578 34.0092 8.43176 34.0136C8.48774 34.0179 8.53511 33.9787 8.54373 33.9222C8.54803 33.8656 8.50928 33.8177 8.45329 33.8133C8.39731 33.809 8.34994 33.8481 8.34133 33.9047Z" fill="white"/>
<path fill-rule="evenodd" clip-rule="evenodd" d="M8.36285 33.9089C8.35855 33.9524 8.393 33.9916 8.43606 33.996C8.47912 34.0003 8.51788 33.9655 8.52219 33.922C8.52649 33.8784 8.49635 33.8392 8.44898 33.8349C8.40592 33.8305 8.36716 33.861 8.36285 33.9089Z" fill="black"/>
<path fill-rule="evenodd" clip-rule="evenodd" d="M8.38439 33.996C8.38439 33.996 7.915 33.9612 7.8504 33.7609C7.8504 33.7609 7.88055 33.6434 7.94084 33.7C8.10878 33.8567 8.17768 33.8045 8.45329 33.8306C8.45329 33.8349 8.53941 33.9786 8.38439 33.996Z" fill="#BCBEC0"/>
<path fill-rule="evenodd" clip-rule="evenodd" d="M7.78152 34.2833C7.7686 34.3398 7.80305 34.3921 7.85903 34.4051C7.91502 34.4182 7.96669 34.3834 7.97961 34.3268C7.99253 34.2702 7.95808 34.218 7.9021 34.2049C7.84612 34.1918 7.79444 34.2267 7.78152 34.2833Z" fill="white"/>
<path fill-rule="evenodd" clip-rule="evenodd" d="M7.80304 34.2877C7.79443 34.3312 7.82027 34.3748 7.86333 34.3835C7.90639 34.3922 7.94946 34.3661 7.95807 34.3225C7.96668 34.279 7.94084 34.2355 7.89778 34.2268C7.85472 34.2181 7.81165 34.2442 7.80304 34.2877Z" fill="black"/>
<path fill-rule="evenodd" clip-rule="evenodd" d="M7.81166 34.3789C7.81166 34.3789 7.3638 34.2962 7.32504 34.0916C7.32504 34.0916 7.36811 33.9784 7.41978 34.0437C7.5705 34.2179 7.63079 34.1656 7.89778 34.2266C7.89778 34.2266 7.96668 34.3833 7.81166 34.3789Z" fill="#BCBEC0"/>
<path fill-rule="evenodd" clip-rule="evenodd" d="M7.18294 34.6055C7.16141 34.6577 7.18724 34.7187 7.23892 34.7404C7.2906 34.7622 7.35088 34.7361 7.37242 34.6838C7.39395 34.6316 7.36811 34.5706 7.31643 34.5489C7.26476 34.5315 7.20447 34.5532 7.18294 34.6055Z" fill="white"/>
<path fill-rule="evenodd" clip-rule="evenodd" d="M7.20446 34.6141C7.18723 34.6576 7.20877 34.7011 7.24752 34.7185C7.29059 34.736 7.33365 34.7142 7.35087 34.675C7.3681 34.6358 7.34657 34.5879 7.30781 34.5705C7.26475 34.5531 7.22168 34.5749 7.20446 34.6141Z" fill="black"/>
<path fill-rule="evenodd" clip-rule="evenodd" d="M7.19586 34.7057C7.19586 34.7057 6.80399 34.5838 6.79968 34.3748C6.79968 34.3748 6.85997 34.2704 6.90303 34.3444C7.0193 34.5446 7.05375 34.4663 7.30352 34.5708C7.30783 34.5708 7.35089 34.7362 7.19586 34.7057Z" fill="#BCBEC0"/>
<path fill-rule="evenodd" clip-rule="evenodd" d="M8.64276 33.665C8.64276 33.7216 8.69013 33.7652 8.74611 33.7652C8.80209 33.7652 8.84516 33.7173 8.84516 33.6607C8.84516 33.6041 8.79779 33.5605 8.74181 33.5605C8.68582 33.5605 8.64276 33.6084 8.64276 33.665Z" fill="white"/>
<path fill-rule="evenodd" clip-rule="evenodd" d="M8.66431 33.6651C8.66431 33.7086 8.70306 33.7434 8.74613 33.7434C8.78919 33.7434 8.82795 33.7043 8.82364 33.6607C8.82364 33.6172 8.78488 33.578 8.74182 33.5824C8.69876 33.5824 8.66431 33.6215 8.66431 33.6651Z" fill="black"/>
<path fill-rule="evenodd" clip-rule="evenodd" d="M8.57387 33.2212C8.57387 33.2212 8.26812 33.2865 8.51788 33.5651C8.67722 33.7393 8.72889 33.7088 8.75042 33.6696C8.77626 33.6261 8.80641 33.6087 8.67722 33.5259C8.51788 33.4302 8.50497 33.2343 8.57387 33.2212Z" fill="white"/>
<path fill-rule="evenodd" clip-rule="evenodd" d="M8.07863 34.1005C8.07433 34.1571 8.11308 34.205 8.16907 34.2093C8.22505 34.2137 8.27242 34.1745 8.28103 34.1179C8.28534 34.0613 8.24658 34.0134 8.1906 34.0047C8.13031 34.0003 8.08294 34.0439 8.07863 34.1005Z" fill="white"/>
<path fill-rule="evenodd" clip-rule="evenodd" d="M8.10016 34.1003C8.09585 34.1438 8.1303 34.183 8.17336 34.1873C8.21643 34.1917 8.25518 34.1568 8.25949 34.1133C8.2638 34.0698 8.22935 34.0306 8.18628 34.0262C8.14322 34.0219 8.10446 34.0567 8.10016 34.1003Z" fill="black"/>
<path fill-rule="evenodd" clip-rule="evenodd" d="M8.05711 33.6304C8.05711 33.6304 7.74706 33.6826 7.96668 33.983C8.10448 34.1746 8.16046 34.1484 8.1863 34.1136C8.21645 34.0744 8.24659 34.0614 8.13032 33.9612C7.9796 33.848 7.98821 33.6391 8.05711 33.6304Z" fill="white"/>
<path fill-rule="evenodd" clip-rule="evenodd" d="M7.49298 34.4444C7.48006 34.501 7.51451 34.5532 7.57049 34.5663C7.62647 34.5793 7.67815 34.5445 7.69107 34.4879C7.70399 34.4313 7.66954 34.3791 7.61355 34.366C7.56188 34.353 7.5059 34.3878 7.49298 34.4444Z" fill="white"/>
<path fill-rule="evenodd" clip-rule="evenodd" d="M7.5145 34.4488C7.50589 34.4923 7.53172 34.5358 7.57479 34.5445C7.61785 34.5532 7.66091 34.5271 7.66952 34.4836C7.67814 34.4401 7.6523 34.3965 7.60924 34.3878C7.56617 34.3748 7.52311 34.4052 7.5145 34.4488Z" fill="black"/>
<path fill-rule="evenodd" clip-rule="evenodd" d="M7.54036 34.0045C7.54036 34.0045 7.21308 33.9914 7.39394 34.3179C7.51021 34.5225 7.5662 34.5051 7.59634 34.4746C7.63079 34.4398 7.66524 34.4268 7.55758 34.3179C7.42839 34.183 7.47146 34.0001 7.54036 34.0045Z" fill="white"/>
<path fill-rule="evenodd" clip-rule="evenodd" d="M6.87288 34.7143C6.85135 34.7666 6.87719 34.8275 6.92886 34.8493C6.98054 34.8711 7.04083 34.8449 7.06236 34.7927C7.08389 34.7405 7.05805 34.6795 7.00638 34.6621C6.9547 34.636 6.89441 34.6621 6.87288 34.7143Z" fill="white"/>
<path fill-rule="evenodd" clip-rule="evenodd" d="M6.8944 34.7231C6.87718 34.7666 6.89871 34.8101 6.93746 34.8275C6.98053 34.845 7.02359 34.8232 7.04081 34.784C7.05804 34.7405 7.03651 34.6969 6.99775 34.6795C6.95899 34.6621 6.91163 34.6795 6.8944 34.7231Z" fill="black"/>
<path fill-rule="evenodd" clip-rule="evenodd" d="M7.03221 34.2964C7.03221 34.2964 6.67479 34.218 6.79967 34.575C6.87718 34.797 6.93747 34.7883 6.97192 34.7622C7.01068 34.7317 7.04513 34.7274 6.959 34.6011C6.85135 34.4487 6.96331 34.2833 7.03221 34.2964Z" fill="white"/>
<path fill-rule="evenodd" clip-rule="evenodd" d="M8.58248 33.2863C8.58248 33.2863 9.52125 32.9032 9.22842 32.4461C8.93559 31.9933 8.60401 32.9772 8.56094 33.2341L8.62123 33.221C8.62123 33.221 8.79348 32.5811 8.99588 32.494C9.19828 32.4069 9.20258 32.5898 9.15952 32.6725C9.12076 32.7465 8.99588 32.9816 8.71597 33.1949C8.69875 33.208 8.61693 33.208 8.5997 33.221C8.57386 33.2384 8.61262 33.2689 8.58248 33.2863Z" fill="#BCBEC0"/>
<path fill-rule="evenodd" clip-rule="evenodd" d="M8.67723 33.1514C8.67723 33.1514 8.86241 32.4896 8.54374 32.2502C8.22077 32.0108 8.00976 32.2197 8.29397 32.7552C8.5825 33.2907 8.5825 33.2907 8.5825 33.2907L8.64709 33.2254C8.64709 33.2254 8.42316 32.8553 8.35426 32.642C8.28967 32.433 8.23799 32.2023 8.38871 32.2937C8.53943 32.3852 8.63848 32.4722 8.63848 32.8118C8.63848 32.9772 8.59972 33.1209 8.59972 33.1862C8.59972 33.2602 8.64709 33.2559 8.64709 33.2559L8.67723 33.1514Z" fill="#BCBEC0"/>
<path fill-rule="evenodd" clip-rule="evenodd" d="M8.53943 33.2514C8.53943 33.2514 8.449 33.308 8.19062 33.3384C7.93224 33.3733 7.71693 33.6388 7.72123 33.6606C7.72123 33.6824 7.65233 33.6954 7.65233 33.6954C7.65233 33.6954 7.60496 33.6562 7.64803 33.5518C7.69109 33.4473 7.79013 33.2427 8.16478 33.247C8.53943 33.2514 8.63848 33.1904 8.63848 33.1904C8.63848 33.1904 8.74183 33.2601 8.53943 33.2514Z" fill="#D1D3D4"/>
<path fill-rule="evenodd" clip-rule="evenodd" d="M8.6686 33.1816C8.6686 33.1816 8.34994 33.3819 8.16046 33.4603C7.96667 33.5386 7.74275 33.7737 7.62648 33.7868C7.51021 33.7998 7.54466 33.8913 7.54466 33.8913C7.54466 33.8913 7.61356 33.9348 7.93222 33.6779C8.2552 33.4167 8.40592 33.4211 8.51358 33.3514C8.62985 33.2687 8.67291 33.26 8.6686 33.1816Z" fill="#D1D3D4"/>
<path d="M12.8242 35.8593C12.794 35.7897 12.751 35.5937 12.7381 35.5154C12.5012 35.5981 11.4203 36.0944 9.76671 36.1902C9.15522 36.225 8.16476 36.36 7.45422 36.3687C6.74368 36.3774 5.79199 36.3251 5.36997 36.2642C4.94795 36.2032 4.50871 36.0813 4.2331 35.9768C4.1599 35.9507 4.03932 35.8767 4.03932 35.6808C4.03932 35.5067 3.98764 35.3369 3.88429 35.511C3.8197 35.6199 3.824 35.9072 3.824 35.9899C3.83262 36.1205 4.2288 36.3208 4.69818 36.521C5.26662 36.7605 6.31736 37.0043 8.10878 36.9259C9.32747 36.8737 10.15 36.8693 10.8562 36.8737C12.8716 36.8867 12.8629 36.5384 12.8586 36.1902C12.8629 36.0726 12.8414 35.9028 12.8242 35.8593Z" fill="#D3D5D6"/>
<path d="M12.3462 36.081C12.3462 36.081 11.0931 36.4206 10.5461 36.4293C9.6935 36.4424 10.2318 36.6252 11.1103 36.6949C12.596 36.8168 12.8974 36.0418 12.3462 36.081Z" fill="#ABADB0"/>
<path d="M6.96761 36.8298C6.96761 36.8298 5.4604 36.8647 4.45703 36.3379C4.45703 36.3379 5.047 36.4293 5.4604 36.4946C6.96761 36.7341 7.15709 36.3901 6.96761 36.8298Z" fill="#ABADB0"/>
<path d="M22.3799 21.3929C21.3248 22.5378 21.5014 23.1865 15.0333 23.6871C11.7433 23.9396 11.0328 24.2966 11.0328 24.2966L8.8064 18.1495C8.8064 18.1495 12.962 17.7273 13.7974 17.4704C14.6328 17.2136 14.6027 17.0176 14.6027 17.0176L22.0784 15.9902C22.0741 15.9902 23.9388 19.6994 22.3799 21.3929Z" fill="#E50914"/>
<path d="M14.5984 17.0131C14.5984 17.0131 17.8367 16.2425 21.932 15.189L22.1947 16.2469C22.1947 16.2512 16.2089 17.6225 14.5984 17.0131Z" fill="#E50914"/>
<path d="M9.65475 12.3853C9.65475 12.3853 11.3902 13.9569 12.1438 13.9134C12.8974 13.8699 13.5649 13.3736 12.5443 10.5873C11.5237 7.80114 9.65475 12.3853 9.65475 12.3853Z" fill="#E4AE84"/>
<path d="M13.2419 7.47884C13.2419 10.2607 11.0112 12.5158 8.2595 12.5158C5.50777 12.5158 3.2771 10.2607 3.2771 7.47884C3.2771 4.69698 5.50777 2.44189 8.2595 2.44189C11.0112 2.44189 13.2419 4.69698 13.2419 7.47884Z" fill="#4E4E4D"/>
<path d="M12.0447 7.47904C12.0447 9.59482 10.3481 11.3057 8.25519 11.3057C6.16232 11.3057 4.46994 9.59046 4.46994 7.47904C4.46994 5.36326 6.16663 3.65235 8.25519 3.65235C10.3524 3.648 12.0447 5.36326 12.0447 7.47904Z" fill="#6F6D6C"/>
<path d="M10.783 7.47886C10.783 8.88938 9.65473 10.03 8.25949 10.03C6.86425 10.03 5.73599 8.88938 5.73599 7.47886C5.73599 6.06834 6.86855 4.92773 8.25949 4.92773C9.65043 4.92773 10.783 6.06834 10.783 7.47886Z" fill="#7F7D7C"/>
<path d="M8.7418 7.4788C8.7418 7.74871 8.52649 7.96638 8.2595 7.96638C7.99251 7.96638 7.77719 7.74871 7.77719 7.4788C7.77719 7.20888 7.99251 6.99121 8.2595 6.99121C8.52649 6.99121 8.7418 7.20888 8.7418 7.4788Z" fill="#A7A9AC"/>
</g>
<defs>
<clipPath id="clip0_158_3362">
<rect width="23" height="37" fill="white"/>
</clipPath>
</defs>
</svg>
