<svg width="30" height="39" viewBox="0 0 30 39" fill="none" xmlns="http://www.w3.org/2000/svg">
<g clip-path="url(#clip0_158_3011)">
<path fill-rule="evenodd" clip-rule="evenodd" d="M11.4415 35.9465C11.4415 35.9465 10.588 35.5887 9.64528 35.7559C9.606 35.7626 9.46673 37.2642 9.53815 37.2675C9.606 37.2709 11.1487 36.8629 11.1808 36.8294C11.2165 36.796 11.4415 35.9465 11.4415 35.9465Z" fill="white"/>
<path fill-rule="evenodd" clip-rule="evenodd" d="M16.7051 35.9501C16.7051 35.9501 17.5586 35.5889 18.4978 35.7561C18.5371 35.7628 18.6799 37.2643 18.6085 37.2677C18.5406 37.271 16.998 36.8664 16.9658 36.8329C16.9337 36.7995 16.7051 35.9501 16.7051 35.9501Z" fill="white"/>
<path d="M17.6443 14.012C18.1407 10.9788 18.1478 7.77839 18.03 7.75498C18.03 7.75498 17.9907 7.7483 17.9693 7.74495C17.805 7.71485 17.3444 7.61453 16.7909 7.36706C16.1017 7.06274 15.0232 7.20988 15.0232 7.20988H13.3056C13.3056 7.20988 12.2521 7.06274 11.5808 7.36706C11.0415 7.61118 10.588 7.71151 10.4309 7.74495C10.4095 7.7483 10.3916 7.75164 10.3702 7.75498C10.3702 7.75498 10.2595 10.8918 10.7452 13.925C11.2237 16.9281 10.5166 18.5434 10.7737 20.0282C10.863 20.5432 13.4805 19.774 13.6805 20.4094C13.6805 20.4094 14.0626 20.4261 14.159 20.4128C14.259 20.4261 14.6483 20.4094 14.6483 20.4094C14.8554 19.774 17.5515 20.5432 17.6408 20.0282C17.8943 18.5434 17.1515 17.0151 17.6443 14.012Z" fill="#E4AE84"/>
<path d="M12.5556 6.1499C12.5556 6.1499 12.9627 7.05952 12.3914 7.53106C11.82 8.00259 15.4589 7.80193 15.4589 7.53106C15.4589 7.26018 15.0803 6.57462 15.316 6.1499C15.316 6.1499 13.9055 6.17666 12.5556 6.1499Z" fill="#E4AE84"/>
<path d="M10.2774 27.3156C10.2274 27.5329 10.2416 28.2419 10.0881 28.5128C9.74885 29.108 9.99882 30.8504 10.031 32.1178C10.0631 33.3819 9.90955 35.559 9.90955 35.559L11.2558 35.656C11.2558 35.656 11.6451 32.8168 12.1379 31.0811C12.6914 29.1281 12.4878 28.7402 12.6164 27.8205C12.5164 27.466 10.4523 27.0982 10.2774 27.3156Z" fill="#E4AE84"/>
<path d="M10.3523 28.0678C10.4059 28.4457 12.4021 29.0276 12.5628 28.3721C12.7556 27.0244 15.3696 20.1621 13.5591 19.3695C13.5591 19.3695 11.5843 16.2962 10.8523 19.2525C10.3131 21.4296 10.1417 24.9075 10.0952 25.8272C10.0702 26.4626 10.1881 27.4458 10.3523 28.0678Z" fill="#E4AE84"/>
<path d="M11.2915 36.9165C11.3272 36.6289 11.4201 36.6121 11.3022 36.2677C11.1844 35.9165 11.3058 34.8999 11.3058 34.8999L10.0524 34.9467C10.0524 34.9467 9.89884 35.9165 9.40247 36.7593L11.2915 36.9165Z" fill="#E4AE84"/>
<path d="M17.9336 27.3085C17.9836 27.5259 17.9729 28.2349 18.1264 28.5057C18.4657 29.101 18.2228 30.8433 18.1943 32.1108C18.1657 33.3749 18.3264 35.552 18.3264 35.552L16.9801 35.6489C16.9801 35.6489 16.5802 32.8097 16.0838 31.0741C15.5232 29.1211 15.7267 28.7332 15.5981 27.8135C15.6946 27.4657 17.7586 27.0912 17.9336 27.3085Z" fill="#E4AE84"/>
<path d="M17.8586 28.0612C17.805 28.4391 15.7624 28.4592 15.6017 27.8037C15.4089 26.456 12.8199 20.1656 14.6304 19.3697C14.6304 19.3697 16.598 16.2897 17.3372 19.2459C17.88 21.4197 17.9622 25.008 18.0122 25.9243C18.0407 26.563 18.0229 27.4392 17.8586 28.0612Z" fill="#E4AE84"/>
<path d="M16.4552 3.79895C16.4552 5.25033 15.3589 6.42748 14.0055 6.42748C12.6521 6.42748 11.5558 5.25033 11.5558 3.79895C11.5558 2.34757 12.6521 1.17041 14.0055 1.17041C15.3589 1.17041 16.4552 2.34757 16.4552 3.79895Z" fill="#E4AE84"/>
<path d="M19.5655 22.4397C19.5655 22.4297 19.5691 22.423 19.5691 22.4163C19.5691 22.423 19.5691 22.4297 19.5655 22.4397H20.369V22.4331C20.369 22.4331 20.369 22.4364 20.369 22.4397H20.7154C20.7047 22.3795 20.7011 22.3428 20.7011 22.3428C20.7011 22.3428 20.7082 22.3795 20.7225 22.4397H21.0868C21.0653 22.3595 21.0475 22.2759 21.0261 22.1889C20.8082 21.2793 20.7297 21.3161 20.5868 21.0887C20.444 20.8646 20.3119 20.1289 20.3119 20.1289L19.2334 20.353C19.2334 20.353 19.3227 20.8814 19.2334 21.276C19.1584 21.6104 19.1513 21.7308 19.0656 22.2826C19.0549 22.3394 19.0477 22.3896 19.0406 22.4364H19.5655V22.4397Z" fill="#E4AE84"/>
<path d="M16.066 4.76568C16.066 4.76568 15.6839 5.58167 15.0375 5.92946C14.9518 5.97294 14.8625 5.85923 14.7911 5.92946C14.2412 6.47457 14.0805 5.95287 14.0805 5.95287L13.9626 5.95622L13.7984 5.94953C13.7984 5.94953 13.6662 6.39765 13.1449 5.96625C13.0985 5.92612 13.052 6.00303 12.9985 5.97962C12.2557 5.66527 11.8665 4.80247 11.8665 4.80247C11.7486 4.15369 11.1915 3.46479 11.4558 4.50818C11.6808 5.34757 12.245 6.56151 13.9341 6.56151C15.9588 6.56151 16.3016 4.85263 16.3981 4.62857C16.5552 4.27409 16.1838 4.12025 16.066 4.76568Z" fill="white"/>
<path d="M14.5519 5.12327C14.1912 5.14334 14.0126 5.14334 13.9662 5.31055C13.9162 5.16675 13.7305 5.15337 13.3377 5.15337C12.7592 5.15337 12.9413 6.0262 12.9413 6.0262L13.2663 6.4041C13.2663 6.4041 13.6163 6.24023 13.3984 6.15997C13.1806 6.07971 13.1306 6.09643 13.1306 5.77205C13.1306 5.44766 13.2449 5.38077 13.5877 5.49448C13.8555 5.58477 14.0341 5.58477 14.3055 5.49448C14.6483 5.38077 14.7983 5.44431 14.7983 5.77205C14.7983 6.09978 14.7518 6.08306 14.5304 6.15997C14.3126 6.24023 14.6161 6.32049 14.6161 6.32049L14.9875 6.0262C14.9875 6.0262 15.1125 5.09317 14.5519 5.12327Z" fill="white"/>
<path d="M12.2021 5.91603C12.2021 5.91603 12.0914 5.74882 11.9486 5.51807C12.0521 5.82908 12.2021 5.91603 12.2021 5.91603Z" fill="white"/>
<path d="M17.0194 2.27386C17.0051 2.08324 16.9516 1.90934 16.898 1.74882C16.8266 1.54482 16.4909 1.23381 16.3195 1.00975C16.3016 0.979653 16.2802 0.9529 16.2588 0.926146C16.2588 0.926146 16.2588 0.926146 16.2588 0.922802C16.2374 0.886016 16.2052 0.852574 16.1695 0.822476C16.0338 0.685364 15.8517 0.575006 15.5696 0.498089C15.5446 0.491401 15.5232 0.484712 15.4982 0.478024C15.466 0.461303 15.4303 0.444582 15.3982 0.427861C15.2625 0.354289 15.1125 0.320847 14.9482 0.294093C14.4233 0.0967858 14.0448 -0.0804565 13.5877 0.0332461C13.5841 0.0332461 13.5627 0.0365903 13.5341 0.0432787C13.4948 0.0399345 13.4627 0.0365903 13.4341 0.0365903C13.2056 0.0365903 13.0485 0.146949 12.6771 0.247275C12.3021 0.3476 12.1664 0.464647 11.8165 0.738871C11.6522 0.869295 11.5701 0.959588 11.5058 1.05657C11.4094 1.17027 11.3308 1.29401 11.2665 1.43112C10.7559 2.54808 11.2772 3.91251 11.4022 4.4108C11.4486 4.59138 11.9164 5.46087 11.9486 5.51438C11.8879 5.3338 11.845 5.07629 11.8557 4.71846C11.8557 4.67499 11.8522 4.61145 11.8486 4.52784C11.5343 2.17687 12.4485 2.09661 13.2841 2.35077C13.2841 2.35077 13.2949 2.35412 13.3127 2.35746C13.3663 2.38087 13.4306 2.40428 13.5055 2.43103C13.7877 2.52802 13.8841 2.4511 14.0769 2.3374C14.1519 2.31733 14.2269 2.28723 14.3019 2.25045C14.4197 2.19025 14.5447 2.14343 14.6697 2.09996C16.2909 1.88927 16.1159 3.76537 16.066 4.05297C16.016 4.33722 15.9874 5.14318 16.0802 4.77531C16.0874 4.7519 16.1695 4.83551 16.1874 4.66161C16.1909 4.67499 16.1802 4.64823 16.1874 4.66161C16.3338 4.95925 15.9767 5.43078 15.9767 5.43078C15.9767 5.43078 16.0445 5.32711 16.1517 5.10639L16.0481 5.43078C16.0481 5.43078 16.3266 5.0161 16.5195 4.6081C16.6695 4.28706 16.9159 3.25371 16.9766 2.82565C17.0515 2.56146 17.0658 2.41766 17.0194 2.27386Z" fill="white"/>
<path d="M16.9444 36.913C16.9051 36.6254 16.8159 36.6087 16.9301 36.2643C17.048 35.9131 16.9266 34.8965 16.9266 34.8965L18.18 34.94C18.18 34.94 18.3371 35.9064 18.837 36.7492L16.9444 36.913Z" fill="#E4AE84"/>
<path d="M10.6952 18.5635C10.6952 18.5635 10.1738 20.4764 10.0238 23.4493L9.66315 27.1112L13.6055 27.1815L14.2233 21.5766L14.2805 20.4162V18.8912L10.6952 18.5635Z" fill="#E50914"/>
<path d="M17.6729 18.6104C17.6729 18.6104 18.1728 20.2089 18.2978 23.3925L18.5049 27.1046L14.5768 27.1748L14.1448 21.57L14.0876 20.4095V18.6605L17.6729 18.6104Z" fill="#E50914"/>
<path d="M10.5737 18.3628C10.5737 18.3628 13.6234 18.6404 17.8086 18.3628L17.8979 19.152C17.8979 19.152 12.2093 19.5266 10.4916 19.1219L10.5737 18.3628Z" fill="white"/>
<g opacity="0.26">
<path d="M13.6734 12.3231C13.552 12.3967 13.4198 12.4535 13.2841 12.497C13.1484 12.5405 13.0092 12.5739 12.8663 12.594C12.5807 12.6341 12.2878 12.6308 12.0129 12.5739C11.7343 12.5204 11.4665 12.4101 11.2737 12.2295C11.1737 12.1392 11.0987 12.0355 11.0451 11.9151C10.9951 11.7981 10.9701 11.6677 10.9701 11.5372C10.9666 11.3901 10.9523 11.2429 10.9273 11.0991C10.8701 10.9721 10.8023 10.8483 10.7309 10.7313C10.7166 10.7079 10.6987 10.6811 10.6844 10.6577C10.6916 10.6811 10.6952 10.7045 10.7023 10.7279C10.763 10.9955 10.8059 11.2664 10.8023 11.5372C10.7987 11.6844 10.8237 11.8349 10.8844 11.9753C10.9416 12.1158 11.0344 12.2429 11.1487 12.3499C11.263 12.4535 11.3986 12.5372 11.5379 12.5973C11.6808 12.6575 11.8307 12.701 11.9807 12.7311C12.1307 12.7579 12.2843 12.7679 12.4378 12.7679C12.5914 12.7679 12.7413 12.7512 12.8913 12.7244C13.1913 12.6676 13.4805 12.5606 13.7269 12.3934C13.8484 12.3064 13.9591 12.2061 14.0448 12.0924C14.1305 11.9753 14.1947 11.8449 14.2233 11.7078C14.1233 11.972 13.9162 12.1827 13.6734 12.3231Z" fill="white"/>
<path d="M13.8805 13.1021C13.8234 13.1055 13.7698 13.1189 13.7162 13.1322C13.6091 13.1623 13.5056 13.1991 13.4056 13.2459C13.2092 13.3396 13.027 13.4566 12.8556 13.5871C12.6914 13.7141 12.5235 13.8379 12.3521 13.9583C12.2664 14.0185 12.1807 14.0786 12.095 14.1322C12.0057 14.189 11.9165 14.2425 11.82 14.2893C11.9307 14.2793 12.0343 14.2425 12.1379 14.2057C12.2378 14.1656 12.3378 14.1188 12.4343 14.0686C12.6235 13.9649 12.8021 13.8479 12.9735 13.7208C13.1377 13.5937 13.3056 13.4733 13.4806 13.363C13.5698 13.3095 13.6591 13.256 13.752 13.2125C13.7984 13.1891 13.8484 13.169 13.8948 13.1523C13.9448 13.1356 13.9948 13.1189 14.0483 13.1155C13.9912 13.0955 13.9341 13.0955 13.8805 13.1021Z" fill="white"/>
<path d="M12.2878 13.3597C12.4128 13.3196 12.5271 13.2561 12.6128 13.1658C12.4878 13.1959 12.3735 13.2226 12.2593 13.2327C12.145 13.2427 12.0343 13.2393 11.9236 13.226C11.8129 13.2092 11.7022 13.1825 11.5915 13.1491C11.4808 13.1123 11.3701 13.0688 11.2522 13.022C11.3201 13.1256 11.4201 13.2059 11.5308 13.2694C11.6415 13.333 11.7665 13.3765 11.8986 13.3965C12.0271 13.4066 12.1628 13.3965 12.2878 13.3597Z" fill="white"/>
<path d="M14.0162 14.9885C13.8983 15.0253 13.7876 15.0587 13.6769 15.0688C13.5662 15.0821 13.4591 15.0788 13.3555 15.0621C13.2484 15.0454 13.1449 15.0119 13.0413 14.9684C12.9377 14.925 12.8342 14.8748 12.7235 14.8213C12.7806 14.9283 12.8699 15.0119 12.9699 15.0855C13.0734 15.1557 13.1949 15.2059 13.3234 15.2293C13.452 15.2527 13.5912 15.2427 13.7126 15.1992C13.8341 15.1557 13.9412 15.0821 14.0162 14.9885Z" fill="white"/>
<path d="M13.9484 15.6339C13.8412 15.664 13.7412 15.6907 13.6448 15.7008C13.5484 15.7108 13.452 15.7075 13.3591 15.6907C13.2663 15.674 13.1734 15.6473 13.077 15.6105C12.9842 15.5737 12.8878 15.5302 12.7878 15.4834C12.8378 15.5804 12.9163 15.6606 13.0056 15.7242C13.0985 15.7877 13.2056 15.8345 13.3234 15.8546C13.4413 15.8747 13.5663 15.8646 13.677 15.8245C13.7877 15.7877 13.8841 15.7208 13.9484 15.6339Z" fill="white"/>
<path d="M13.3663 16.3898C13.302 16.3797 13.2377 16.363 13.1699 16.3396C13.102 16.3162 13.0342 16.2928 12.952 16.2627C12.9806 16.3396 13.0342 16.4032 13.0984 16.4533C13.1627 16.5035 13.2448 16.5403 13.3341 16.5536C13.4234 16.5704 13.5162 16.5603 13.5984 16.5269C13.6805 16.4934 13.7484 16.4399 13.7876 16.3697C13.7019 16.3831 13.6305 16.3965 13.5627 16.3998C13.4948 16.4032 13.4305 16.3998 13.3663 16.3898Z" fill="white"/>
<path d="M15.5446 14.9684C15.441 15.0119 15.3339 15.042 15.2303 15.0621C15.1232 15.0788 15.0161 15.0821 14.9089 15.0688C14.7982 15.0554 14.6875 15.0253 14.5697 14.9885C14.6447 15.0821 14.7518 15.1557 14.8732 15.1992C14.9947 15.2427 15.1339 15.2527 15.2625 15.2293C15.391 15.2059 15.5124 15.1557 15.616 15.0855C15.7196 15.0153 15.8088 14.9283 15.866 14.8213C15.7553 14.8781 15.6517 14.9283 15.5446 14.9684Z" fill="white"/>
<path d="M15.7981 15.4834C15.6981 15.5302 15.6017 15.5737 15.5089 15.6105C15.416 15.6473 15.3232 15.674 15.2268 15.6907C15.1339 15.7075 15.0375 15.7108 14.9411 15.7008C14.8447 15.6907 14.7447 15.664 14.634 15.6339C14.6983 15.7208 14.7947 15.7877 14.9054 15.8279C15.0161 15.868 15.1411 15.878 15.2589 15.8579C15.3767 15.8379 15.4839 15.7911 15.5767 15.7275C15.6696 15.6606 15.7481 15.5804 15.7981 15.4834Z" fill="white"/>
<path d="M15.2196 16.3898C15.1553 16.3998 15.0911 16.4032 15.0232 16.3998C14.9554 16.3965 14.884 16.3831 14.7982 16.3697C14.8375 16.4399 14.9054 16.4968 14.9875 16.5269C15.0696 16.5603 15.1625 16.567 15.2518 16.5536C15.341 16.5369 15.4196 16.5001 15.4875 16.4533C15.5517 16.4032 15.6089 16.3396 15.6339 16.2627C15.5553 16.2894 15.4839 16.3162 15.416 16.3396C15.3482 16.363 15.2839 16.3797 15.2196 16.3898Z" fill="white"/>
<path d="M17.7372 11.2026C17.7336 11.1391 17.7336 11.0755 17.7372 11.012C17.7408 10.8983 17.755 10.7846 17.7729 10.6709C17.7086 10.7378 17.6479 10.808 17.5908 10.8782C17.5872 10.9217 17.5801 10.9618 17.5765 11.0053C17.5729 11.0722 17.5694 11.1424 17.5694 11.2093C17.5694 11.2762 17.5765 11.3498 17.5801 11.4066C17.5836 11.527 17.5622 11.6507 17.5158 11.7611C17.4694 11.8715 17.3944 11.9751 17.3051 12.0621C17.123 12.2393 16.8766 12.3564 16.6195 12.4299C16.3588 12.5035 16.0838 12.5303 15.8124 12.5169C15.541 12.5002 15.2696 12.4433 15.0304 12.3162C14.909 12.256 14.8018 12.1758 14.709 12.0788C14.6197 11.9818 14.5447 11.8681 14.4983 11.7444C14.5269 11.8748 14.584 11.9985 14.6697 12.1089C14.7554 12.2193 14.8625 12.3129 14.9839 12.3865C15.2268 12.537 15.5125 12.6172 15.8017 12.6473C16.091 12.6774 16.3838 12.654 16.6659 12.5838C16.948 12.5102 17.223 12.3831 17.4337 12.1791C17.5372 12.0788 17.6265 11.9551 17.6801 11.8213C17.7336 11.6875 17.7586 11.5404 17.7515 11.3999C17.7515 11.3264 17.7408 11.2695 17.7372 11.2026Z" fill="white"/>
<path d="M16.4088 14.1993C16.5123 14.2361 16.6159 14.2729 16.7266 14.2829C16.6302 14.2394 16.5409 14.1826 16.4516 14.1257C16.3624 14.0689 16.2766 14.0087 16.1945 13.9518C16.0231 13.8314 15.8588 13.7077 15.691 13.5806C15.5232 13.4535 15.341 13.3331 15.1411 13.2395C15.0411 13.1927 14.9375 13.1526 14.8304 13.1258C14.7768 13.1124 14.7197 13.1024 14.6661 13.0957C14.6126 13.089 14.5519 13.089 14.5019 13.1024C14.5554 13.1057 14.6054 13.1225 14.6554 13.1392C14.7054 13.1559 14.7518 13.176 14.7983 13.1994C14.8911 13.2428 14.9804 13.2964 15.0697 13.3499C15.2446 13.4602 15.4125 13.5806 15.5767 13.7077C15.7446 13.8348 15.9231 13.9518 16.116 14.0555C16.2088 14.1157 16.3088 14.1592 16.4088 14.1993Z" fill="white"/>
<path d="M16.2874 13.2296C16.1731 13.2195 16.0588 13.1928 15.9338 13.1627C16.0195 13.253 16.1302 13.3199 16.2588 13.3567C16.3838 13.3968 16.5231 13.4035 16.6516 13.3868C16.7837 13.37 16.9087 13.3232 17.0194 13.2597C17.1301 13.1961 17.2265 13.1159 17.298 13.0122C17.1801 13.0624 17.073 13.1058 16.9587 13.1393C16.848 13.1761 16.7373 13.2028 16.6266 13.2162C16.5159 13.2363 16.4016 13.2396 16.2874 13.2296Z" fill="white"/>
<path d="M14.3697 15.6039C14.3697 15.3966 14.3626 15.1892 14.3519 14.9819C14.3376 14.7745 14.3197 14.5672 14.2804 14.3599C14.2447 14.5672 14.2233 14.7745 14.209 14.9819C14.1947 15.1892 14.1912 15.3966 14.1912 15.6039C14.1912 15.8112 14.1983 16.0186 14.209 16.2259C14.2233 16.4333 14.2412 16.6406 14.2804 16.8479C14.3161 16.6406 14.3376 16.4333 14.3519 16.2259C14.3626 16.0186 14.3697 15.8112 14.3697 15.6039Z" fill="white"/>
</g>
<path d="M9.84525 15.9085C9.88453 15.9854 9.90238 16.1024 9.92024 16.1894C10.0202 16.7211 9.73455 18.4434 9.42744 19.4232C9.12033 20.4031 9.11676 21.1789 9.11676 21.1789L7.86691 20.9883C7.86691 20.9883 8.04546 20.2559 7.9669 18.838C7.88834 17.4201 8.14188 16.3633 8.48827 15.6343C8.63111 15.3834 9.77383 15.7045 9.84525 15.9085Z" fill="#E4AE84"/>
<path d="M9.27031 16.1894C9.24889 16.0791 9.92024 16.1894 9.92024 16.1894C9.92024 16.1894 10.7559 13.4672 10.5166 12.7415C10.5166 12.7415 11.0165 11.1497 10.9165 10.424C11.6665 8.43423 12.1057 7.34067 10.1702 7.74198C9.14176 7.91922 8.40256 8.55462 8.55968 9.83544C8.74538 11.3637 8.47398 11.8486 8.34185 12.4907C8.15973 13.3569 8.30971 15.5273 8.37756 15.8918C8.94892 15.9453 8.75252 16.4168 9.27031 16.1894Z" fill="#E4AE84"/>
<g opacity="0.26">
<path d="M8.64542 10.7417C8.73826 11.0025 8.81325 11.2667 8.89539 11.5309C8.93467 11.6614 8.97395 11.7951 9.0168 11.9255C9.05965 12.056 9.1025 12.1864 9.15607 12.3168C9.07037 12.2031 9.00609 12.076 8.94895 11.949C8.89182 11.8219 8.84539 11.6881 8.80611 11.5577C8.76683 11.4239 8.73112 11.2901 8.70612 11.1564C8.67756 11.0193 8.65256 10.8822 8.64542 10.7417Z" fill="white"/>
<path d="M8.45258 14.9355C8.53828 14.9891 8.60613 15.0526 8.67755 15.1128L8.77754 15.2064C8.80968 15.2365 8.84539 15.2666 8.88467 15.3001C8.8311 15.3034 8.78111 15.2867 8.73468 15.2633C8.68826 15.2399 8.64898 15.2098 8.61327 15.1763C8.57756 15.1429 8.54542 15.1061 8.51685 15.066C8.48829 15.0258 8.46686 14.9824 8.45258 14.9355Z" fill="white"/>
</g>
<path d="M18.5728 15.9081C18.5335 15.985 18.5157 16.1021 18.4978 16.189C18.3978 16.7207 18.6835 18.443 18.9906 19.4229C19.2977 20.4027 19.3013 21.1786 19.3013 21.1786L20.5833 21.0916C20.5833 21.0916 20.3726 20.2589 20.4511 18.841C20.5297 17.423 20.2762 16.3663 19.9298 15.6372C19.7869 15.3831 18.6478 15.7041 18.5728 15.9081Z" fill="#E4AE84"/>
<path d="M19.1477 16.1894C19.1691 16.0791 18.4978 16.1894 18.4978 16.1894C18.4978 16.1894 17.6622 13.4672 17.9014 12.7415C17.9014 12.7415 17.4015 11.1497 17.5015 10.424C16.7516 8.43423 16.3123 7.34067 18.2478 7.74198C19.2763 7.91922 20.0155 8.55462 19.8583 9.83544C19.6727 11.3637 19.9441 11.8486 20.0762 12.4907C20.2583 13.3569 20.1083 15.5273 20.0405 15.8918C19.4691 15.9453 19.6655 16.4168 19.1477 16.1894Z" fill="#E4AE84"/>
<g opacity="0.26">
<path d="M19.7762 10.7417C19.6834 11.0025 19.6084 11.2667 19.5262 11.5309C19.487 11.6614 19.4477 11.7951 19.4048 11.9255C19.362 12.056 19.3191 12.1864 19.2656 12.3168C19.3513 12.2031 19.4155 12.076 19.4727 11.949C19.5298 11.8219 19.5727 11.6881 19.6155 11.5577C19.6548 11.4239 19.6905 11.2901 19.7155 11.1564C19.7441 11.0193 19.7655 10.8822 19.7762 10.7417Z" fill="white"/>
<path d="M19.9655 14.9355C19.8762 14.9891 19.8119 15.0526 19.7405 15.1128L19.6405 15.2031C19.6084 15.2332 19.5727 15.2633 19.5334 15.2967C19.587 15.3001 19.6369 15.2833 19.6834 15.2599C19.7298 15.2365 19.7691 15.2064 19.8084 15.173C19.8441 15.1395 19.8762 15.1028 19.9048 15.0626C19.9298 15.0258 19.9548 14.9824 19.9655 14.9355Z" fill="white"/>
</g>
<path d="M10.7809 7.65813C10.7809 7.65813 11.4308 10.5408 10.5773 12.7681C10.5773 12.7681 10.7952 14.7913 10.6773 15.9317C10.563 17.0687 10.5702 18.3629 10.5702 18.3629C10.5702 18.3629 13.4806 18.7508 17.805 18.3629C17.805 18.3629 17.5908 17.1222 17.6265 17.383C17.6622 17.6405 17.8086 14.3131 17.7729 13.564C17.7586 13.2229 17.8158 12.7714 17.8158 12.7714C17.8158 12.7714 16.6766 9.92883 17.5729 7.66147L17.0408 7.47754C17.0408 7.47754 16.0552 10.9488 14.2733 10.9488C12.4914 10.9488 11.5522 9.04262 11.2451 7.47754L10.7809 7.65813Z" fill="#E50914"/>
<path fill-rule="evenodd" clip-rule="evenodd" d="M9.7774 35.9034L9.86668 35.5522L11.2915 35.6726V36.0806C11.2915 36.0806 9.84168 36.3783 9.7774 35.9034Z" fill="white"/>
<path fill-rule="evenodd" clip-rule="evenodd" d="M18.4657 35.8965L18.3728 35.5454L16.948 35.6658V36.0738C16.948 36.0771 18.4014 36.3714 18.4657 35.8965Z" fill="white"/>
<path d="M9.00608 37.3882C9.00608 37.3882 8.87396 37.8998 8.92038 38.164C8.9668 38.4282 9.1025 38.9332 10.2452 38.98L10.2845 38.7526C10.2881 38.7526 8.99894 37.4283 9.00608 37.3882Z" fill="#D3D5D6"/>
<path d="M11.6808 37.6123C11.6808 37.6123 11.7129 38.1373 11.6201 38.3882C11.5236 38.6423 11.2951 39.1138 10.1595 38.97L10.1631 38.7393C10.1631 38.7426 11.6808 37.6491 11.6808 37.6123Z" fill="#D3D5D6"/>
<path fill-rule="evenodd" clip-rule="evenodd" d="M9.64529 35.9568C9.64529 35.9568 10.4595 35.7963 11.2737 36.0839C11.2737 36.0839 11.1058 36.542 10.9701 36.629C10.8344 36.7159 10.0238 36.7326 9.99882 36.7226C9.97383 36.7126 9.64529 35.9568 9.64529 35.9568Z" fill="white"/>
<path fill-rule="evenodd" clip-rule="evenodd" d="M11.4665 36.3615C11.5629 35.4686 11.0951 36.1375 11.0558 36.2144C10.988 36.3448 9.93454 36.2579 9.89169 36.1174C9.86669 36.0371 9.59887 35.2245 9.43103 36.2244C9.43103 36.2244 8.9418 37.5487 8.97751 37.9768C9.09178 38.6189 9.19534 38.6991 10.2238 38.7861C11.2522 38.873 11.4594 38.776 11.6022 38.1975C11.72 37.7795 11.4665 36.3615 11.4665 36.3615Z" fill="#E50914"/>
<path fill-rule="evenodd" clip-rule="evenodd" d="M10.6345 38.7991C10.6273 38.8927 10.4809 38.8827 10.3024 38.866C10.1238 38.8526 9.97739 38.8359 9.9881 38.7422C9.99524 38.6486 10.1488 38.5851 10.3273 38.6018C10.5059 38.6185 10.6416 38.7055 10.6345 38.7991Z" fill="#D3D5D6"/>
<path fill-rule="evenodd" clip-rule="evenodd" d="M11.6022 38.1941C11.6379 38.0703 11.6379 37.8563 11.6236 37.6155C11.5665 37.5821 11.5058 37.552 11.4522 37.5252C11.138 37.3747 10.5845 36.9634 10.7487 37.5821C10.7487 37.5821 11.5165 38.0469 11.188 38.7592C11.4272 38.679 11.5236 38.5084 11.6022 38.1941Z" fill="white"/>
<path fill-rule="evenodd" clip-rule="evenodd" d="M9.07748 37.3381C9.36316 36.8833 9.89167 36.8264 9.89167 36.8264L9.89881 36.6224C9.60956 36.6324 9.36674 36.803 9.19176 36.9702C9.4453 36.5288 9.90239 36.4987 9.90239 36.4987L9.9131 36.2612C9.65242 36.3214 9.44887 36.4552 9.3096 36.5722C9.23461 36.7896 9.14533 37.0739 9.07748 37.3381Z" fill="white"/>
<path fill-rule="evenodd" clip-rule="evenodd" d="M10.9701 36.589C10.9701 36.589 11.4165 36.6927 11.5808 37.1709C11.4415 36.9769 11.2308 36.7696 10.9523 36.7127L10.9201 36.9134C10.9201 36.9134 11.4201 37.0538 11.6201 37.5354C11.5986 37.2612 11.5629 36.9669 11.5272 36.7395C11.4129 36.6057 11.2415 36.4519 11.0058 36.3516L10.9701 36.589Z" fill="white"/>
<path fill-rule="evenodd" clip-rule="evenodd" d="M9.93454 37.5118C10.3345 36.8664 9.58815 37.2443 9.25248 37.3412C9.19177 37.358 9.12749 37.378 9.06321 37.4048C9.00608 37.6355 8.97037 37.8462 8.98108 37.9766C9.03822 38.3111 9.09535 38.4916 9.28105 38.602C8.98108 37.7994 9.93454 37.5118 9.93454 37.5118Z" fill="white"/>
<path d="M9.99167 36.0401C9.99167 36.0401 9.97382 37.6688 10.1595 37.8694C10.3452 38.0701 10.5345 37.8795 10.7202 37.2909C10.9059 36.7056 11.0773 36.1037 11.0773 36.1037C11.0773 36.1037 11.1701 35.8963 10.8166 35.786C10.4345 35.6689 9.88811 35.7525 9.99167 36.0401Z" fill="white"/>
<path fill-rule="evenodd" clip-rule="evenodd" d="M10.2381 36.2174C10.2381 36.2174 10.2024 36.1137 9.92739 36.1204C9.92739 36.1204 9.84526 37.1237 9.93453 37.5116C10.0238 37.8995 10.0738 38.0868 10.4059 38.0801C10.738 38.0734 10.8666 37.5685 10.9951 37.1571C11.1237 36.7458 11.1808 36.2442 11.1808 36.2442C11.1808 36.2442 10.9666 36.1639 10.8237 36.2676C10.8237 36.2676 10.6059 37.9564 10.3631 37.9765C10.1202 37.9932 10.1488 36.5986 10.2381 36.2174Z" fill="white"/>
<path fill-rule="evenodd" clip-rule="evenodd" d="M10.788 36.4915C10.8345 36.5115 10.8952 36.5049 10.9273 36.4848C10.9559 36.4614 10.9452 36.4279 10.8987 36.4079C10.8523 36.3878 10.7916 36.3945 10.7595 36.4179C10.7273 36.438 10.7416 36.4748 10.788 36.4915Z" fill="white"/>
<path fill-rule="evenodd" clip-rule="evenodd" d="M10.7987 36.4849C10.8344 36.4983 10.8844 36.4983 10.9094 36.4782C10.9344 36.4615 10.9237 36.4314 10.8844 36.418C10.8487 36.4046 10.7987 36.4046 10.7737 36.4247C10.7487 36.4448 10.7594 36.4682 10.7987 36.4849Z" fill="white"/>
<path fill-rule="evenodd" clip-rule="evenodd" d="M10.7059 36.8595C10.7487 36.8796 10.813 36.8796 10.8487 36.8595C10.8844 36.8395 10.8773 36.8027 10.8344 36.7826C10.7916 36.7626 10.7273 36.7626 10.6916 36.7826C10.6559 36.8027 10.663 36.8361 10.7059 36.8595Z" fill="white"/>
<path fill-rule="evenodd" clip-rule="evenodd" d="M10.7166 36.8496C10.7523 36.8663 10.8023 36.8663 10.8273 36.8496C10.8559 36.8329 10.8487 36.8061 10.8166 36.7894C10.7844 36.7727 10.7309 36.7727 10.7059 36.7894C10.6773 36.8061 10.6845 36.8329 10.7166 36.8496Z" fill="white"/>
<path fill-rule="evenodd" clip-rule="evenodd" d="M10.5881 37.2075C10.6273 37.2309 10.6916 37.2342 10.7309 37.2175C10.7702 37.2008 10.7738 37.164 10.7345 37.1406C10.6952 37.1172 10.6309 37.1138 10.5916 37.1306C10.5523 37.1506 10.5523 37.1841 10.5881 37.2075Z" fill="white"/>
<path fill-rule="evenodd" clip-rule="evenodd" d="M10.6059 37.201C10.6345 37.221 10.6881 37.2244 10.7166 37.2076C10.7488 37.1943 10.7488 37.1675 10.7202 37.1475C10.6916 37.1274 10.6381 37.124 10.6095 37.1374C10.5738 37.1541 10.5738 37.1809 10.6059 37.201Z" fill="white"/>
<path fill-rule="evenodd" clip-rule="evenodd" d="M10.5202 37.5619C10.5523 37.5886 10.613 37.5987 10.6595 37.5853C10.7059 37.5719 10.7166 37.5385 10.688 37.5117C10.6559 37.485 10.5952 37.4749 10.5488 37.4883C10.5023 37.5017 10.4916 37.5351 10.5202 37.5619Z" fill="white"/>
<path fill-rule="evenodd" clip-rule="evenodd" d="M10.538 37.5585C10.563 37.5786 10.613 37.5886 10.6487 37.5753C10.6844 37.5652 10.6952 37.5385 10.6702 37.5184C10.6452 37.4984 10.5952 37.4883 10.5595 37.5017C10.5238 37.5117 10.513 37.5351 10.538 37.5585Z" fill="white"/>
<path fill-rule="evenodd" clip-rule="evenodd" d="M10.7666 36.6622C10.813 36.6823 10.8737 36.6756 10.9059 36.6555C10.9344 36.6321 10.9237 36.5987 10.8773 36.5786C10.8309 36.5585 10.7702 36.5619 10.738 36.5853C10.7059 36.6087 10.7202 36.6421 10.7666 36.6622Z" fill="white"/>
<path fill-rule="evenodd" clip-rule="evenodd" d="M10.7773 36.6524C10.813 36.6658 10.863 36.6658 10.888 36.6457C10.913 36.629 10.9023 36.6022 10.863 36.5855C10.8273 36.5721 10.7773 36.5721 10.7523 36.5922C10.7309 36.6122 10.738 36.639 10.7773 36.6524Z" fill="white"/>
<path fill-rule="evenodd" clip-rule="evenodd" d="M10.6666 37.0303C10.7095 37.0503 10.7737 37.0503 10.8094 37.0303C10.8452 37.0102 10.838 36.9734 10.7952 36.9533C10.7523 36.9333 10.688 36.9299 10.6523 36.9533C10.6166 36.9734 10.6238 37.0068 10.6666 37.0303Z" fill="white"/>
<path fill-rule="evenodd" clip-rule="evenodd" d="M10.6809 37.02C10.713 37.0367 10.7666 37.0367 10.7916 37.02C10.8202 37.0033 10.813 36.9765 10.7809 36.9598C10.7452 36.9431 10.6952 36.9431 10.6702 36.9598C10.6416 36.9765 10.6452 37.0033 10.6809 37.02Z" fill="white"/>
<path fill-rule="evenodd" clip-rule="evenodd" d="M10.5595 37.3813C10.5988 37.4047 10.663 37.4081 10.7023 37.3913C10.7416 37.3713 10.7452 37.3378 10.7059 37.3144C10.6666 37.291 10.6023 37.2877 10.563 37.3044C10.5238 37.3211 10.5202 37.3546 10.5595 37.3813Z" fill="white"/>
<path fill-rule="evenodd" clip-rule="evenodd" d="M10.5738 37.3712C10.6023 37.3913 10.6559 37.3946 10.6845 37.3779C10.7166 37.3645 10.7166 37.3378 10.688 37.3177C10.6559 37.2976 10.6059 37.2943 10.5773 37.311C10.5452 37.3277 10.5452 37.3545 10.5738 37.3712Z" fill="white"/>
<path fill-rule="evenodd" clip-rule="evenodd" d="M10.4381 37.7255C10.4702 37.7522 10.5309 37.7623 10.5773 37.7489C10.6238 37.7355 10.6345 37.7021 10.6059 37.6753C10.5738 37.6486 10.5131 37.6385 10.4666 37.6519C10.4166 37.6653 10.4059 37.6987 10.4381 37.7255Z" fill="white"/>
<path fill-rule="evenodd" clip-rule="evenodd" d="M10.4559 37.7187C10.4809 37.7388 10.5309 37.7488 10.5666 37.7354C10.6023 37.7254 10.6131 37.6986 10.5881 37.6786C10.5631 37.6585 10.5131 37.6485 10.4774 37.6619C10.4381 37.6719 10.4309 37.6986 10.4559 37.7187Z" fill="white"/>
<path fill-rule="evenodd" clip-rule="evenodd" d="M10.1417 36.4381C10.0917 36.4482 10.031 36.4348 10.006 36.408C9.98097 36.3813 9.99883 36.3478 10.0488 36.3378C10.0988 36.3278 10.1595 36.3411 10.1845 36.3679C10.2131 36.398 10.1917 36.4281 10.1417 36.4381Z" fill="white"/>
<path fill-rule="evenodd" clip-rule="evenodd" d="M10.1345 36.4279C10.0952 36.4379 10.0488 36.4246 10.0274 36.4045C10.006 36.3844 10.0238 36.3577 10.0631 36.3477C10.1024 36.3376 10.1488 36.351 10.1702 36.3711C10.1881 36.3945 10.1738 36.4212 10.1345 36.4279Z" fill="white"/>
<path fill-rule="evenodd" clip-rule="evenodd" d="M10.8273 36.6188C10.8059 36.5954 10.813 36.582 10.6702 36.6021C10.3881 36.6389 10.2595 36.4717 10.1667 36.3713C10.1667 36.3713 10.0024 36.3479 10.0452 36.4282C10.0452 36.4282 10.2488 36.6656 10.4559 36.669C10.4559 36.669 10.4595 36.669 10.4595 36.6656C10.4988 36.6723 10.5488 36.6757 10.613 36.6757C10.8452 36.6723 10.8487 36.6422 10.8273 36.6188Z" fill="#BCBEC0"/>
<path fill-rule="evenodd" clip-rule="evenodd" d="M10.156 36.8128C10.1095 36.8262 10.0488 36.8162 10.0167 36.7894C9.98455 36.7627 9.99884 36.7292 10.0453 36.7159C10.0917 36.7025 10.1524 36.7125 10.1845 36.7393C10.2131 36.766 10.2024 36.7995 10.156 36.8128Z" fill="white"/>
<path fill-rule="evenodd" clip-rule="evenodd" d="M10.1417 36.8028C10.106 36.8128 10.056 36.8061 10.031 36.7861C10.006 36.766 10.0167 36.7393 10.0524 36.7292C10.0881 36.7192 10.1381 36.7259 10.1631 36.7459C10.1881 36.766 10.181 36.7928 10.1417 36.8028Z" fill="white"/>
<path fill-rule="evenodd" clip-rule="evenodd" d="M10.738 36.9934C10.7237 36.97 10.7273 36.95 10.5845 36.9667C10.5595 36.97 10.5309 36.97 10.5059 36.97C10.3059 36.9199 10.3131 36.873 10.1631 36.746C10.1631 36.746 9.99525 36.7326 10.056 36.8128C10.056 36.8128 10.1417 36.8898 10.2524 36.9533C10.2631 36.9901 10.3202 37.0336 10.5095 37.0402C10.7416 37.0436 10.7523 37.0135 10.738 36.9934Z" fill="#BCBEC0"/>
<path fill-rule="evenodd" clip-rule="evenodd" d="M10.2024 37.1739C10.1595 37.1906 10.0952 37.1839 10.0595 37.1605C10.0238 37.1371 10.0274 37.1036 10.0702 37.0869C10.1131 37.0702 10.1738 37.0769 10.2131 37.1003C10.2488 37.1237 10.2452 37.1572 10.2024 37.1739Z" fill="white"/>
<path fill-rule="evenodd" clip-rule="evenodd" d="M10.1881 37.1671C10.156 37.1805 10.106 37.1738 10.0774 37.1571C10.0488 37.137 10.0524 37.1103 10.0881 37.0969C10.1202 37.0835 10.1702 37.0869 10.1988 37.1069C10.2274 37.127 10.2238 37.1537 10.1881 37.1671Z" fill="white"/>
<path fill-rule="evenodd" clip-rule="evenodd" d="M10.6416 37.3477C10.6345 37.3343 10.638 37.3209 10.6095 37.3142C10.6023 37.3109 10.5952 37.3075 10.5809 37.3042C10.3595 37.2641 10.3738 37.2239 10.1988 37.1035C10.1988 37.1035 10.031 37.1002 10.106 37.1771C10.106 37.1771 10.1417 37.2039 10.1988 37.234C10.5131 37.438 10.6523 37.3711 10.6416 37.3477Z" fill="#BCBEC0"/>
<path fill-rule="evenodd" clip-rule="evenodd" d="M10.2024 37.5348C10.1667 37.5549 10.1024 37.5549 10.0595 37.5348C10.0167 37.5148 10.0096 37.478 10.0453 37.4579C10.081 37.4379 10.1453 37.4379 10.1881 37.4579C10.231 37.4813 10.2381 37.5148 10.2024 37.5348Z" fill="white"/>
<path fill-rule="evenodd" clip-rule="evenodd" d="M10.1845 37.5283C10.156 37.545 10.106 37.545 10.0738 37.5283C10.0417 37.5116 10.0346 37.4848 10.0631 37.4681C10.0917 37.4514 10.1417 37.4514 10.1738 37.4681C10.2095 37.4848 10.2131 37.5116 10.1845 37.5283Z" fill="white"/>
<path fill-rule="evenodd" clip-rule="evenodd" d="M10.5345 37.6622C10.3488 37.6154 10.3809 37.5786 10.1738 37.4683C10.1738 37.4683 10.0096 37.4816 10.1095 37.5519C10.1095 37.5519 10.3202 37.7057 10.5024 37.7291C10.5202 37.7291 10.5381 37.7258 10.5559 37.7224C10.5559 37.7191 10.6166 37.6823 10.5345 37.6622Z" fill="#BCBEC0"/>
<path fill-rule="evenodd" clip-rule="evenodd" d="M10.131 36.6085C10.081 36.6186 10.0203 36.6052 9.99526 36.5784C9.97026 36.5517 9.98812 36.5182 10.0381 36.5082C10.0881 36.4982 10.1488 36.5116 10.1738 36.5383C10.1988 36.5684 10.1809 36.5985 10.131 36.6085Z" fill="white"/>
<path fill-rule="evenodd" clip-rule="evenodd" d="M10.1238 36.5983C10.0845 36.6084 10.0381 36.595 10.0167 36.5749C9.99525 36.5515 10.0131 36.5281 10.0524 36.5181C10.0917 36.508 10.1381 36.5214 10.1595 36.5415C10.1774 36.5649 10.1631 36.5883 10.1238 36.5983Z" fill="white"/>
<path fill-rule="evenodd" clip-rule="evenodd" d="M10.7737 36.4248C10.6666 36.5051 10.6416 36.5519 10.5559 36.582C10.4773 36.6121 10.3952 36.6221 10.2345 36.5653C10.1024 36.5184 10.1024 36.5352 10.0774 36.5586C10.056 36.5753 10.056 36.602 10.2774 36.6522C10.6523 36.7392 10.8844 36.5017 10.8844 36.5017C10.9416 36.4282 10.7737 36.4248 10.7737 36.4248Z" fill="white"/>
<path fill-rule="evenodd" clip-rule="evenodd" d="M10.1595 36.9867C10.1131 37 10.0524 36.99 10.0202 36.9633C9.99168 36.9365 10.0024 36.9031 10.0488 36.8897C10.0952 36.8763 10.1559 36.8863 10.1881 36.9131C10.2202 36.9399 10.2059 36.9733 10.1595 36.9867Z" fill="white"/>
<path fill-rule="evenodd" clip-rule="evenodd" d="M10.1488 36.9766C10.1131 36.9867 10.0631 36.98 10.0381 36.9599C10.0131 36.9398 10.0238 36.9131 10.0595 36.903C10.0952 36.893 10.1452 36.8997 10.1702 36.9198C10.1952 36.9398 10.1845 36.9666 10.1488 36.9766Z" fill="white"/>
<path d="M10.8023 36.8727C10.8773 36.8024 10.7095 36.7891 10.7095 36.7891C10.538 36.8894 10.5773 36.9362 10.3452 36.9496C10.3059 36.9496 10.2774 36.9395 10.2559 36.9362C10.1167 36.8961 10.1202 36.9161 10.0988 36.9362C10.081 36.9563 10.0845 36.9864 10.3131 37.0165C10.613 37.0599 10.8023 36.8727 10.8023 36.8727Z" fill="white"/>
<path d="M10.6523 36.9531C10.6523 36.9531 10.6523 36.9567 10.6523 36.9639C10.6561 36.9603 10.6561 36.9567 10.6523 36.9531Z" fill="white"/>
<path fill-rule="evenodd" clip-rule="evenodd" d="M10.1988 37.3477C10.156 37.3644 10.0917 37.3577 10.056 37.3343C10.0203 37.3109 10.0238 37.2741 10.0667 37.2608C10.1095 37.244 10.1738 37.2507 10.2095 37.2741C10.2452 37.2975 10.2417 37.331 10.1988 37.3477Z" fill="white"/>
<path fill-rule="evenodd" clip-rule="evenodd" d="M10.1845 37.341C10.1524 37.3543 10.1024 37.3476 10.0738 37.3309C10.0453 37.3109 10.0488 37.2841 10.0845 37.2707C10.1167 37.2573 10.1667 37.2607 10.1952 37.2808C10.2238 37.3008 10.2202 37.3276 10.1845 37.341Z" fill="white"/>
<path fill-rule="evenodd" clip-rule="evenodd" d="M10.6059 37.1406C10.4095 37.2309 10.4166 37.271 10.1917 37.2744C10.1774 37.2744 10.1667 37.2777 10.1631 37.2777C10.1345 37.2811 10.1345 37.2911 10.1238 37.3045C10.1095 37.3246 10.2059 37.368 10.5809 37.271C10.6416 37.2476 10.6809 37.2276 10.6809 37.2276C10.7737 37.164 10.6059 37.1406 10.6059 37.1406Z" fill="white"/>
<path fill-rule="evenodd" clip-rule="evenodd" d="M10.2524 37.7092C10.2167 37.7292 10.1524 37.7292 10.1095 37.7092C10.0667 37.6891 10.0595 37.6523 10.0953 37.6322C10.131 37.6122 10.1952 37.6122 10.2381 37.6322C10.2845 37.6556 10.2881 37.6891 10.2524 37.7092Z" fill="white"/>
<path fill-rule="evenodd" clip-rule="evenodd" d="M10.2381 37.7026C10.2095 37.7193 10.1595 37.7193 10.1274 37.7026C10.0917 37.6859 10.0881 37.6591 10.1167 37.6424C10.1452 37.6257 10.1952 37.6257 10.2274 37.6424C10.2631 37.6591 10.2667 37.6859 10.2381 37.7026Z" fill="white"/>
<path fill-rule="evenodd" clip-rule="evenodd" d="M10.5595 37.498C10.3666 37.6117 10.1524 37.6485 10.1738 37.6519C10.1702 37.6586 10.1702 37.6619 10.1702 37.6686C10.1631 37.6887 10.181 37.7455 10.5952 37.5917C10.6059 37.5883 10.6095 37.585 10.6095 37.585C10.7202 37.5382 10.5595 37.498 10.5595 37.498Z" fill="white"/>
<path fill-rule="evenodd" clip-rule="evenodd" d="M10.5166 36.3715C10.5166 36.3715 11.5237 36.4149 11.4451 35.92C11.3665 35.4251 10.6595 36.1207 10.5202 36.318L10.5773 36.3313C10.5773 36.3313 10.9987 35.8631 11.2165 35.8665C11.4344 35.8732 11.3665 36.027 11.2915 36.0805C11.2273 36.124 11.0166 36.2778 10.6773 36.3447C10.6559 36.3481 10.5809 36.318 10.5595 36.3213C10.5273 36.328 10.5488 36.3681 10.5166 36.3715Z" fill="#BCBEC0"/>
<path fill-rule="evenodd" clip-rule="evenodd" d="M10.5881 36.2644C10.5881 36.2644 10.3417 35.6725 9.94527 35.6758C9.54532 35.6791 9.50247 35.9534 10.0488 36.1841C10.5952 36.4149 10.5952 36.4149 10.5952 36.4149L10.6059 36.3313C10.6059 36.3313 10.206 36.1875 10.0274 36.0671C9.84885 35.95 9.67387 35.8096 9.84885 35.7928C10.0238 35.7728 10.1524 35.7828 10.3559 36.0336C10.4524 36.154 10.5059 36.2811 10.5488 36.3313C10.5952 36.3848 10.6273 36.3547 10.6273 36.3547L10.5881 36.2644Z" fill="#BCBEC0"/>
<path fill-rule="evenodd" clip-rule="evenodd" d="M10.5059 36.4147C10.5059 36.4147 10.4666 36.5084 10.2809 36.6756C10.0952 36.8461 10.0845 37.1638 10.0988 37.1772C10.1131 37.1906 10.0667 37.2407 10.0667 37.2407C10.0667 37.2407 10.006 37.2374 9.9774 37.1337C9.94883 37.03 9.90598 36.8261 10.2059 36.6187C10.5059 36.4114 10.5523 36.311 10.5523 36.311C10.5523 36.311 10.6702 36.3077 10.5059 36.4147Z" fill="#D1D3D4"/>
<path fill-rule="evenodd" clip-rule="evenodd" d="M10.5452 36.291C10.5452 36.291 10.6166 36.6321 10.6238 36.8261C10.6273 37.0201 10.7666 37.2909 10.738 37.3946C10.7095 37.4983 10.8059 37.4983 10.8059 37.4983C10.8059 37.4983 10.8702 37.4548 10.7416 37.0903C10.613 36.7258 10.6702 36.592 10.6416 36.4783C10.6095 36.3546 10.6202 36.3111 10.5452 36.291Z" fill="#D1D3D4"/>
<path d="M19.1406 37.3848C19.1406 37.3848 19.2727 37.8964 19.2263 38.1606C19.1799 38.4248 19.0442 38.9298 17.9014 38.9799L17.8622 38.7525C17.8657 38.7525 19.1513 37.4249 19.1406 37.3848Z" fill="#D3D5D6"/>
<path d="M16.4695 37.6157C16.4695 37.6157 16.4373 38.1408 16.5337 38.3916C16.6302 38.6457 16.8623 39.1173 17.9943 38.9735L17.9907 38.7427C17.9907 38.7427 16.4695 37.6559 16.4695 37.6157Z" fill="#D3D5D6"/>
<path fill-rule="evenodd" clip-rule="evenodd" d="M18.5014 35.9568C18.5014 35.9568 17.6872 35.7963 16.873 36.0905C16.873 36.0905 17.0408 36.5487 17.1801 36.6357C17.3158 36.7226 18.1264 36.736 18.1514 36.7259C18.1728 36.7126 18.5014 35.9568 18.5014 35.9568Z" fill="white"/>
<path fill-rule="evenodd" clip-rule="evenodd" d="M16.6802 36.3648C16.5802 35.4719 17.0516 36.1407 17.0908 36.2143C17.1587 36.3447 18.2121 36.2544 18.255 36.114C18.28 36.0337 18.5478 35.2211 18.7156 36.221C18.7156 36.221 19.2084 37.5453 19.1727 37.97C19.062 38.6121 18.9549 38.6924 17.9264 38.7827C16.898 38.8696 16.6909 38.776 16.5445 38.1974C16.4302 37.7827 16.6802 36.3648 16.6802 36.3648Z" fill="#E50914"/>
<path fill-rule="evenodd" clip-rule="evenodd" d="M17.5193 38.8025C17.5301 38.8962 17.6729 38.8861 17.8514 38.8694C18.03 38.8527 18.1764 38.8393 18.1657 38.7457C18.155 38.652 18.005 38.5885 17.8264 38.6052C17.6479 38.6219 17.5122 38.7089 17.5193 38.8025Z" fill="#D3D5D6"/>
<path fill-rule="evenodd" clip-rule="evenodd" d="M16.548 38.1977C16.5123 38.074 16.5123 37.86 16.5266 37.6192C16.5837 37.5824 16.6444 37.5523 16.698 37.5289C17.0122 37.3784 17.5658 36.9671 17.4015 37.5824C17.4015 37.5824 16.6373 38.0506 16.9658 38.7596C16.7266 38.686 16.6302 38.5121 16.548 38.1977Z" fill="white"/>
<path fill-rule="evenodd" clip-rule="evenodd" d="M19.0727 37.3381C18.787 36.8866 18.2549 36.8297 18.2549 36.8297L18.2478 36.6257C18.5371 36.6358 18.7799 36.8063 18.9549 36.9702C18.7013 36.5288 18.2442 36.4987 18.2442 36.4987L18.2335 36.2612C18.4942 36.3214 18.7013 36.4552 18.8406 36.5689C18.912 36.7896 19.0049 37.0739 19.0727 37.3381Z" fill="white"/>
<path fill-rule="evenodd" clip-rule="evenodd" d="M17.1765 36.5925C17.1765 36.5925 16.7301 36.6962 16.5659 37.1777C16.7051 36.9838 16.9123 36.7764 17.1944 36.7162L17.2265 36.9169C17.2265 36.9169 16.7266 37.0573 16.5266 37.5422C16.548 37.268 16.5837 36.9737 16.6159 36.7463C16.7301 36.6126 16.9015 36.4587 17.1372 36.3584L17.1765 36.5925Z" fill="white"/>
<path fill-rule="evenodd" clip-rule="evenodd" d="M18.2157 37.5121C17.8122 36.8666 18.5585 37.2445 18.8977 37.3382C18.9584 37.3549 19.0227 37.375 19.087 37.4017C19.1441 37.6325 19.1834 37.8432 19.1727 37.9702C19.1156 38.3047 19.0584 38.4852 18.8727 38.5956C19.1691 37.7997 18.2157 37.5121 18.2157 37.5121Z" fill="white"/>
<path d="M18.155 36.0404C18.155 36.0404 18.1764 37.669 17.9907 37.8697C17.805 38.0704 17.6157 37.8797 17.4265 37.2945C17.2372 36.7093 17.0658 36.1073 17.0658 36.1073C17.0658 36.1073 16.973 35.9 17.3229 35.7896C17.7122 35.6726 18.2585 35.7528 18.155 36.0404Z" fill="white"/>
<path fill-rule="evenodd" clip-rule="evenodd" d="M17.9086 36.2208C17.9086 36.2208 17.9443 36.1172 18.2193 36.1238C18.2193 36.1238 18.305 37.1271 18.2157 37.515C18.1264 37.903 18.08 38.0902 17.7443 38.0835C17.4122 38.0769 17.2801 37.5719 17.1515 37.1605C17.023 36.7526 16.9659 36.2476 16.9659 36.2476C16.9659 36.2476 17.1801 36.164 17.323 36.271C17.323 36.271 17.5444 37.9598 17.7872 37.9765C18.03 37.9933 17.9979 36.5987 17.9086 36.2208Z" fill="white"/>
<path fill-rule="evenodd" clip-rule="evenodd" d="M17.3622 36.4952C17.3158 36.5153 17.2551 36.5119 17.223 36.4885C17.1908 36.4651 17.2051 36.4317 17.2515 36.4116C17.298 36.3915 17.3587 36.3949 17.3908 36.4183C17.4194 36.4417 17.4087 36.4785 17.3622 36.4952Z" fill="white"/>
<path fill-rule="evenodd" clip-rule="evenodd" d="M17.3479 36.4887C17.3122 36.5021 17.2622 36.5021 17.2372 36.482C17.2122 36.4653 17.2229 36.4386 17.2622 36.4218C17.2979 36.4051 17.3479 36.4085 17.3729 36.4285C17.3979 36.4452 17.3872 36.472 17.3479 36.4887Z" fill="white"/>
<path fill-rule="evenodd" clip-rule="evenodd" d="M17.4444 36.8595C17.4015 36.8796 17.3372 36.8796 17.3015 36.8595C17.2658 36.8395 17.273 36.806 17.3158 36.7826C17.3587 36.7626 17.4229 36.7626 17.4586 36.7826C17.4908 36.806 17.4872 36.8395 17.4444 36.8595Z" fill="white"/>
<path fill-rule="evenodd" clip-rule="evenodd" d="M17.4301 36.853C17.3979 36.8697 17.3444 36.8697 17.3194 36.853C17.2908 36.8363 17.298 36.8095 17.3301 36.7928C17.3622 36.7761 17.4158 36.7761 17.4408 36.7928C17.4694 36.8095 17.4658 36.8363 17.4301 36.853Z" fill="white"/>
<path fill-rule="evenodd" clip-rule="evenodd" d="M17.5586 37.2109C17.5194 37.2343 17.4551 37.2377 17.4158 37.2209C17.3765 37.2042 17.3729 37.1674 17.4122 37.144C17.4515 37.1206 17.5158 37.1173 17.5551 37.134C17.5979 37.1541 17.5979 37.1875 17.5586 37.2109Z" fill="white"/>
<path fill-rule="evenodd" clip-rule="evenodd" d="M17.5444 37.2042C17.5158 37.2243 17.4658 37.2276 17.4337 37.2109C17.4015 37.1975 17.4015 37.1708 17.4301 37.1507C17.4622 37.1306 17.5122 37.1273 17.5444 37.144C17.5729 37.1574 17.5765 37.1841 17.5444 37.2042Z" fill="white"/>
<path fill-rule="evenodd" clip-rule="evenodd" d="M17.6301 37.5653C17.5979 37.5921 17.5372 37.6021 17.4908 37.5887C17.4444 37.5753 17.4337 37.5419 17.4622 37.5151C17.4944 37.4884 17.5551 37.4784 17.6015 37.4917C17.6479 37.5051 17.6586 37.5386 17.6301 37.5653Z" fill="white"/>
<path fill-rule="evenodd" clip-rule="evenodd" d="M17.6122 37.5585C17.5872 37.5786 17.5372 37.5886 17.5015 37.5753C17.4658 37.5652 17.4551 37.5385 17.4801 37.5184C17.5051 37.4984 17.5551 37.4883 17.5908 37.5017C17.6265 37.5117 17.6372 37.5385 17.6122 37.5585Z" fill="white"/>
<path fill-rule="evenodd" clip-rule="evenodd" d="M17.3837 36.6656C17.3372 36.6857 17.2765 36.6823 17.2444 36.6589C17.2158 36.6355 17.2265 36.6021 17.273 36.582C17.3194 36.562 17.3801 36.5653 17.4122 36.5887C17.4408 36.6121 17.4301 36.6456 17.3837 36.6656Z" fill="white"/>
<path fill-rule="evenodd" clip-rule="evenodd" d="M17.373 36.6558C17.3372 36.6725 17.2873 36.6692 17.2623 36.6491C17.2373 36.629 17.248 36.6056 17.2873 36.5889C17.323 36.5755 17.373 36.5755 17.398 36.5956C17.4194 36.6157 17.4087 36.6424 17.373 36.6558Z" fill="white"/>
<path fill-rule="evenodd" clip-rule="evenodd" d="M17.4836 37.0303C17.4408 37.0503 17.3765 37.0503 17.3408 37.0303C17.3051 37.0102 17.3122 36.9767 17.3551 36.9533C17.3979 36.9333 17.4622 36.9299 17.4979 36.9533C17.5301 36.9767 17.5265 37.0102 17.4836 37.0303Z" fill="white"/>
<path fill-rule="evenodd" clip-rule="evenodd" d="M17.4694 37.0234C17.4372 37.0401 17.3872 37.0401 17.3587 37.0234C17.3301 37.0067 17.3372 36.9799 17.3694 36.9632C17.4051 36.9465 17.4551 36.9465 17.4801 36.9632C17.5086 36.9799 17.5015 37.0067 17.4694 37.0234Z" fill="white"/>
<path fill-rule="evenodd" clip-rule="evenodd" d="M17.5908 37.3813C17.5515 37.4047 17.4872 37.4081 17.4479 37.3913C17.4087 37.3746 17.4051 37.3378 17.4444 37.3144C17.4836 37.291 17.5479 37.2877 17.5872 37.3044C17.6265 37.3245 17.6265 37.3579 17.5908 37.3813Z" fill="white"/>
<path fill-rule="evenodd" clip-rule="evenodd" d="M17.5729 37.3746C17.5444 37.3947 17.4908 37.398 17.4622 37.3813C17.4301 37.3679 17.4301 37.3412 17.4587 37.3211C17.4908 37.301 17.5408 37.2977 17.5694 37.3144C17.6015 37.3278 17.6051 37.3579 17.5729 37.3746Z" fill="white"/>
<path fill-rule="evenodd" clip-rule="evenodd" d="M17.7122 37.7289C17.6801 37.7556 17.6193 37.7657 17.5729 37.7523C17.5265 37.7389 17.5158 37.7055 17.5444 37.6787C17.5765 37.652 17.6372 37.6419 17.6836 37.6553C17.7336 37.6687 17.7443 37.7021 17.7122 37.7289Z" fill="white"/>
<path fill-rule="evenodd" clip-rule="evenodd" d="M17.6943 37.7221C17.6693 37.7422 17.6193 37.7522 17.5836 37.7388C17.5479 37.7288 17.5372 37.7021 17.5622 37.682C17.5872 37.6619 17.6372 37.6519 17.6729 37.6653C17.7122 37.6753 17.7193 37.7021 17.6943 37.7221Z" fill="white"/>
<path fill-rule="evenodd" clip-rule="evenodd" d="M18.005 36.4415C18.055 36.4516 18.1157 36.4382 18.1407 36.4114C18.1657 36.3847 18.1479 36.3513 18.0979 36.3412C18.0479 36.3312 17.9872 36.3446 17.9622 36.3713C17.9336 36.3981 17.955 36.4282 18.005 36.4415Z" fill="white"/>
<path fill-rule="evenodd" clip-rule="evenodd" d="M18.0122 36.428C18.0514 36.4381 18.0979 36.4247 18.1193 36.4046C18.1407 36.3812 18.1229 36.3578 18.0836 36.3478C18.0443 36.3411 17.9979 36.3511 17.9764 36.3712C17.9586 36.3946 17.9729 36.4213 18.0122 36.428Z" fill="white"/>
<path fill-rule="evenodd" clip-rule="evenodd" d="M17.3194 36.622C17.3408 36.5986 17.3372 36.5852 17.4765 36.6019C17.7586 36.6354 17.8872 36.4682 17.98 36.3712C17.98 36.3712 18.1443 36.3478 18.1014 36.4314C18.1014 36.4314 17.8979 36.6688 17.6907 36.6722C17.6907 36.6722 17.6907 36.6722 17.6872 36.6722C17.6479 36.6788 17.5979 36.6822 17.5336 36.6822C17.3051 36.6755 17.3015 36.6454 17.3194 36.622Z" fill="#BCBEC0"/>
<path fill-rule="evenodd" clip-rule="evenodd" d="M17.9943 36.8128C18.0407 36.8262 18.1014 36.8162 18.1336 36.7894C18.1657 36.7627 18.1514 36.7292 18.105 36.7159C18.0586 36.7025 17.9979 36.7125 17.9657 36.7393C17.9336 36.766 17.9479 36.7995 17.9943 36.8128Z" fill="white"/>
<path fill-rule="evenodd" clip-rule="evenodd" d="M18.005 36.8028C18.0407 36.8128 18.0907 36.8061 18.1157 36.7861C18.1407 36.766 18.13 36.7393 18.0943 36.7292C18.0586 36.7192 18.0086 36.7259 17.9836 36.7459C17.9586 36.766 17.9693 36.7928 18.005 36.8028Z" fill="white"/>
<path fill-rule="evenodd" clip-rule="evenodd" d="M17.4087 36.9934C17.4229 36.97 17.4194 36.95 17.5622 36.9667C17.5872 36.97 17.6158 36.97 17.6408 36.97C17.8407 36.9199 17.8336 36.873 17.98 36.746C17.98 36.746 18.1478 36.7326 18.0871 36.8128C18.0871 36.8128 18.0014 36.8898 17.8907 36.9533C17.88 36.9934 17.8229 37.0336 17.6336 37.0402C17.4051 37.0469 17.3944 37.0168 17.4087 36.9934Z" fill="#BCBEC0"/>
<path fill-rule="evenodd" clip-rule="evenodd" d="M17.9479 37.1772C17.9907 37.1939 18.055 37.1872 18.0907 37.1638C18.1264 37.1371 18.1228 37.1036 18.08 37.0869C18.0371 37.0702 17.9729 37.0769 17.9372 37.1003C17.8979 37.1271 17.905 37.1605 17.9479 37.1772Z" fill="white"/>
<path fill-rule="evenodd" clip-rule="evenodd" d="M17.9622 37.167C17.9943 37.1803 18.0443 37.1736 18.0729 37.1536C18.1014 37.1335 18.0979 37.1068 18.0622 37.0934C18.03 37.08 17.98 37.0867 17.9514 37.1068C17.9229 37.1268 17.9265 37.1536 17.9622 37.167Z" fill="white"/>
<path fill-rule="evenodd" clip-rule="evenodd" d="M17.5086 37.3511C17.5158 37.3377 17.5122 37.3243 17.5408 37.3176C17.5479 37.3143 17.5551 37.311 17.5693 37.3076C17.7907 37.2675 17.7765 37.2273 17.9514 37.107C17.9514 37.107 18.1193 37.1036 18.0443 37.1805C18.0443 37.1805 18.0086 37.2073 17.955 37.2407C17.6372 37.4414 17.4979 37.3711 17.5086 37.3511Z" fill="#BCBEC0"/>
<path fill-rule="evenodd" clip-rule="evenodd" d="M17.9479 37.5383C17.9836 37.5583 18.0479 37.5583 18.0907 37.5383C18.1336 37.5148 18.1407 37.4814 18.105 37.4613C18.0693 37.4413 18.005 37.4413 17.9622 37.4613C17.9193 37.4814 17.9122 37.5148 17.9479 37.5383Z" fill="white"/>
<path fill-rule="evenodd" clip-rule="evenodd" d="M17.9657 37.5283C17.9943 37.545 18.0443 37.545 18.0764 37.5283C18.1086 37.5116 18.1157 37.4848 18.0871 37.4681C18.0586 37.4514 18.0086 37.4514 17.9764 37.4681C17.9407 37.4848 17.9372 37.5116 17.9657 37.5283Z" fill="white"/>
<path fill-rule="evenodd" clip-rule="evenodd" d="M17.5944 37.7225C17.6122 37.7258 17.6301 37.7292 17.6479 37.7292C17.83 37.7091 18.0407 37.5519 18.0407 37.5519C18.1407 37.4817 17.9765 37.4717 17.9765 37.4717C17.7693 37.582 17.8015 37.6188 17.6158 37.6656C17.5336 37.6824 17.5944 37.7225 17.5944 37.7225Z" fill="#BCBEC0"/>
<path fill-rule="evenodd" clip-rule="evenodd" d="M18.0157 36.612C18.0657 36.622 18.1264 36.6086 18.1514 36.5819C18.1764 36.5551 18.1585 36.5217 18.1086 36.5116C18.0586 36.5016 17.9979 36.515 17.9729 36.5417C17.9479 36.5685 17.9657 36.5986 18.0157 36.612Z" fill="white"/>
<path fill-rule="evenodd" clip-rule="evenodd" d="M18.0264 36.5984C18.0657 36.6084 18.1121 36.5951 18.1335 36.575C18.155 36.5516 18.1371 36.5282 18.0978 36.5215C18.0586 36.5114 18.0121 36.5248 17.9907 36.5449C17.9693 36.5683 17.9871 36.5917 18.0264 36.5984Z" fill="white"/>
<path fill-rule="evenodd" clip-rule="evenodd" d="M17.3729 36.4248C17.4836 36.5051 17.5051 36.5519 17.5908 36.582C17.6693 36.6121 17.7515 36.6221 17.9122 36.5653C18.0443 36.5184 18.0443 36.5352 18.0693 36.5586C18.0907 36.5753 18.0907 36.602 17.8693 36.6522C17.4943 36.7392 17.2622 36.5051 17.2622 36.5051C17.2051 36.4315 17.3729 36.4248 17.3729 36.4248Z" fill="white"/>
<path fill-rule="evenodd" clip-rule="evenodd" d="M17.9907 36.9867C18.0371 37 18.0978 36.99 18.13 36.9633C18.1621 36.9365 18.1478 36.9031 18.1014 36.8897C18.055 36.8763 17.9943 36.8863 17.9621 36.9131C17.93 36.9432 17.9407 36.9733 17.9907 36.9867Z" fill="white"/>
<path fill-rule="evenodd" clip-rule="evenodd" d="M18.0014 36.9766C18.0371 36.9867 18.0871 36.98 18.1121 36.9599C18.1371 36.9398 18.1264 36.9131 18.0907 36.903C18.055 36.893 18.005 36.8997 17.98 36.9198C17.955 36.9398 17.9622 36.9666 18.0014 36.9766Z" fill="white"/>
<path d="M17.3479 36.8761C17.2729 36.8059 17.4408 36.7925 17.4408 36.7925C17.6158 36.8928 17.5729 36.9363 17.805 36.953C17.8443 36.953 17.8729 36.9463 17.8943 36.9396C18.0336 36.8995 18.03 36.9196 18.0514 36.9396C18.0693 36.9597 18.0657 36.9898 17.8372 37.0232C17.5336 37.06 17.3479 36.8761 17.3479 36.8761Z" fill="white"/>
<path fill-rule="evenodd" clip-rule="evenodd" d="M17.9514 37.3511C17.9943 37.3678 18.0586 37.3612 18.0943 37.3377C18.13 37.311 18.1264 37.2809 18.0836 37.2642C18.0407 37.2475 17.98 37.2541 17.9407 37.2775C17.905 37.301 17.9086 37.3344 17.9514 37.3511Z" fill="white"/>
<path fill-rule="evenodd" clip-rule="evenodd" d="M17.9657 37.341C17.9979 37.3544 18.0514 37.3477 18.0764 37.331C18.105 37.3109 18.1014 37.2842 18.0657 37.2708C18.0336 37.2574 17.9836 37.2641 17.955 37.2808C17.9265 37.3009 17.93 37.3276 17.9657 37.341Z" fill="white"/>
<path fill-rule="evenodd" clip-rule="evenodd" d="M17.5444 37.144C17.7408 37.231 17.7336 37.2745 17.9586 37.2745C17.9729 37.2745 17.98 37.2778 17.9872 37.2778C18.0157 37.2812 18.0157 37.2912 18.0264 37.3046C18.0407 37.3246 17.9443 37.3681 17.5694 37.2711C17.5087 37.2477 17.4694 37.2276 17.4694 37.2276C17.3765 37.1675 17.5444 37.144 17.5444 37.144Z" fill="white"/>
<path fill-rule="evenodd" clip-rule="evenodd" d="M17.8979 37.7126C17.9336 37.7326 17.9979 37.7326 18.0407 37.7126C18.0836 37.6925 18.0907 37.6557 18.055 37.6357C18.0193 37.6156 17.955 37.6156 17.9122 37.6357C17.8658 37.6557 17.8622 37.6925 17.8979 37.7126Z" fill="white"/>
<path fill-rule="evenodd" clip-rule="evenodd" d="M17.9122 37.7026C17.9407 37.7193 17.9907 37.7193 18.0229 37.7026C18.0586 37.6859 18.0622 37.6591 18.0336 37.6424C18.005 37.6257 17.955 37.6257 17.9229 37.6424C17.8872 37.6591 17.8836 37.6892 17.9122 37.7026Z" fill="white"/>
<path fill-rule="evenodd" clip-rule="evenodd" d="M17.5408 37.592C17.5408 37.592 17.5443 37.5954 17.5551 37.5987C17.9693 37.7525 17.9871 37.6957 17.98 37.6756C17.9764 37.6689 17.9764 37.6623 17.9764 37.6589C17.9943 37.6556 17.7836 37.6188 17.5908 37.5051C17.5908 37.5017 17.4301 37.5419 17.5408 37.592Z" fill="white"/>
<path fill-rule="evenodd" clip-rule="evenodd" d="M17.63 36.3715C17.63 36.3715 16.623 36.4184 16.7016 35.9234C16.7801 35.4285 17.4872 36.1241 17.6265 36.3214L17.5693 36.3348C17.5693 36.3348 17.1479 35.8666 16.9301 35.8733C16.7123 35.8799 16.7837 36.0338 16.8587 36.0873C16.923 36.1341 17.1337 36.2812 17.4729 36.3515C17.4943 36.3548 17.5693 36.3247 17.5908 36.3281C17.6193 36.3281 17.5979 36.3682 17.63 36.3715Z" fill="#BCBEC0"/>
<path fill-rule="evenodd" clip-rule="evenodd" d="M17.5586 36.2678C17.5586 36.2678 17.8015 35.6759 18.2014 35.6792C18.6014 35.6826 18.6442 35.9568 18.1014 36.1875C17.5586 36.4183 17.5586 36.4183 17.5586 36.4183L17.5479 36.3347C17.5479 36.3347 17.9479 36.1875 18.1264 36.0705C18.305 35.9534 18.4799 35.813 18.305 35.7963C18.13 35.7762 17.9979 35.7862 17.7979 36.037C17.7015 36.1574 17.6479 36.2845 17.6051 36.3347C17.5586 36.3882 17.5265 36.3581 17.5265 36.3581L17.5586 36.2678Z" fill="#BCBEC0"/>
<path fill-rule="evenodd" clip-rule="evenodd" d="M17.6407 36.4182C17.6407 36.4182 17.68 36.5118 17.8657 36.679C18.0514 36.8496 18.0657 37.164 18.0478 37.1807C18.0336 37.1941 18.08 37.2442 18.08 37.2442C18.08 37.2442 18.1407 37.2409 18.1692 37.1372C18.1978 37.0335 18.2407 36.8295 17.9371 36.6222C17.6372 36.4149 17.5907 36.3145 17.5907 36.3145C17.5907 36.3145 17.4765 36.3078 17.6407 36.4182Z" fill="#D1D3D4"/>
<path fill-rule="evenodd" clip-rule="evenodd" d="M17.6015 36.2944C17.6015 36.2944 17.53 36.6355 17.5265 36.8295C17.5229 37.0235 17.3872 37.2977 17.4122 37.4014C17.4408 37.505 17.3443 37.505 17.3443 37.505C17.3443 37.505 17.2801 37.4616 17.4051 37.097C17.53 36.7325 17.4729 36.5988 17.505 36.4851C17.5372 36.3546 17.5265 36.3112 17.6015 36.2944Z" fill="#D1D3D4"/>
<path d="M7.40626 22.8742C7.59553 22.6936 7.59195 22.3023 7.59195 22.3023C7.59195 22.3023 7.6848 22.4227 7.66337 22.5531H8.00976C8.02048 22.4795 8.02762 22.4327 8.02762 22.4327C8.02762 22.4327 8.02405 22.4762 8.0169 22.5531H8.42043C8.424 22.4862 8.424 22.4461 8.424 22.4461C8.424 22.4461 8.424 22.4862 8.42757 22.5531H8.83823C8.83466 22.4896 8.83466 22.4394 8.83466 22.416C8.83466 22.4394 8.84181 22.4829 8.86323 22.5531H9.18105C9.16677 22.4795 9.3596 22.3926 9.34175 22.2856C9.25247 21.7338 9.2489 21.6134 9.17391 21.279C9.08463 20.8844 9.2239 20.7874 9.2239 20.7874L7.87049 20.6001C7.87049 20.6001 7.96334 20.8643 7.8205 21.0917C7.67766 21.3158 7.40983 21.3158 7.19557 22.2287C7.16701 22.3558 7.07773 22.7471 7.17058 22.8374C7.25628 22.9243 7.40626 22.8742 7.40626 22.8742Z" fill="white"/>
<path d="M21.0225 22.8742C20.8296 22.6936 20.8332 22.3023 20.8332 22.3023C20.8332 22.3023 20.7368 22.4227 20.7582 22.5531H20.4011C20.3868 22.4795 20.3833 22.4327 20.3833 22.4327C20.3833 22.4327 20.3868 22.4762 20.3976 22.5531H19.9833C19.9833 22.4862 19.9798 22.4461 19.9798 22.4461C19.9798 22.4461 19.9798 22.4862 19.9762 22.5531H19.5548C19.5584 22.4896 19.5584 22.4394 19.5584 22.416C19.5584 22.4394 19.5512 22.4829 19.5298 22.5531H19.2013C19.2156 22.4795 19.0192 22.3926 19.037 22.2856C19.1263 21.7338 19.1334 21.6134 19.212 21.279C19.3048 20.8844 19.162 20.7874 19.162 20.7874L20.5511 20.6001C20.5511 20.6001 20.4547 20.8643 20.6047 21.0917C20.7511 21.3158 21.0261 21.3158 21.2475 22.2287C21.2796 22.3558 21.3689 22.7471 21.276 22.8374C21.176 22.9243 21.0225 22.8742 21.0225 22.8742Z" fill="white"/>
<path d="M3.77455 26.5195H2.71039V26.8774H3.77455V26.5195Z" fill="#414042"/>
<path d="M3.77455 26.1616H2.71039V26.5194H3.77455V26.1616Z" fill="#403F41"/>
<path d="M3.77455 25.8071H2.71039V26.1616H3.77455V25.8071Z" fill="#3E3D3F"/>
<path d="M3.77455 25.4526H2.71039V25.8071H3.77455V25.4526Z" fill="#3C3C3D"/>
<path d="M3.77455 25.0947H2.71039V25.4526H3.77455V25.0947Z" fill="#3A3A3B"/>
<path d="M3.77455 24.7402H2.71039V25.0947H3.77455V24.7402Z" fill="#383839"/>
<path d="M3.77455 24.3823H2.71039V24.7402H3.77455V24.3823Z" fill="#363637"/>
<path d="M3.77455 24.0278H2.71039V24.3823H3.77455V24.0278Z" fill="#343435"/>
<path d="M3.77455 23.6704H2.71039V24.0249H3.77455V23.6704Z" fill="#323233"/>
<path d="M3.77455 23.3159H2.71039V23.6704H3.77455V23.3159Z" fill="#303031"/>
<path d="M3.77455 22.958H2.71039V23.3125H3.77455V22.958Z" fill="#2E2E2F"/>
<path d="M3.77455 22.6035H2.71039V22.958H3.77455V22.6035Z" fill="#2C2C2D"/>
<path d="M3.77455 22.249H2.71039V22.6035H3.77455V22.249Z" fill="#2A292B"/>
<path d="M3.77455 21.8911H2.71039V22.2489H3.77455V21.8911Z" fill="#272728"/>
<path d="M3.77455 21.5332H2.71039V21.891H3.77455V21.5332Z" fill="#252526"/>
<path d="M3.77455 21.1787H2.71039V21.5332H3.77455V21.1787Z" fill="#232223"/>
<path d="M3.77455 20.8242H2.71039V21.1787H3.77455V20.8242Z" fill="#202021"/>
<path d="M3.77455 20.4663H2.71039V20.8241H3.77455V20.4663Z" fill="#1D1D1E"/>
<path d="M3.77455 20.1118H2.71039V20.4663H3.77455V20.1118Z" fill="#1A1A1B"/>
<path d="M3.77455 19.7539H2.71039V20.1084H3.77455V19.7539Z" fill="#171718"/>
<path d="M3.77455 19.3994H2.71039V19.7539H3.77455V19.3994Z" fill="#141415"/>
<path d="M3.77455 19.042H2.71039V19.3965H3.77455V19.042Z" fill="#111111"/>
<path d="M3.77455 18.6875H2.71039V19.042H3.77455V18.6875Z" fill="#0D0D0D"/>
<path d="M3.77455 18.3296H2.71039V18.6874H3.77455V18.3296Z" fill="#080809"/>
<path d="M3.77455 17.9751H2.71039V18.3296H3.77455V17.9751Z" fill="#040404"/>
<path d="M3.77455 17.6172H2.71039V17.975H3.77455V17.6172Z" fill="black"/>
<path d="M4.64587 22.249C4.64587 24.8039 4.26378 26.8773 3.78883 26.8773C3.31389 26.8773 2.93536 24.8039 2.93536 22.249C2.93536 19.694 3.31746 17.6206 3.78883 17.6206C4.26021 17.6206 4.64587 19.6907 4.64587 22.249Z" fill="#4E4E4D"/>
<path d="M4.26379 22.2687C4.26379 23.9542 4.04953 25.3186 3.78885 25.3186C3.52459 25.3186 3.3139 23.9542 3.3139 22.2687C3.3139 20.5866 3.52459 19.2222 3.78885 19.2222C4.0531 19.2222 4.26379 20.5866 4.26379 22.2687Z" fill="#4E4E4D"/>
<path d="M4.24592 22.2687C4.24592 23.8539 4.07094 25.1381 3.85668 25.1381C3.64242 25.1381 3.46744 23.8539 3.46744 22.2687C3.46744 20.6836 3.64242 19.3994 3.85668 19.3994C4.07094 19.4028 4.24592 20.6869 4.24592 22.2687Z" fill="#7F7D7C"/>
<path d="M3.89241 25.0779C4.07385 25.0779 4.22094 23.8367 4.22094 22.3055C4.22094 20.7744 4.07385 19.5332 3.89241 19.5332C3.71096 19.5332 3.56387 20.7744 3.56387 22.3055C3.56387 23.8367 3.71096 25.0779 3.89241 25.0779Z" fill="#4E4E4D"/>
<path d="M0.28568 20.6972C0.128556 20.6972 0 21.3928 0 22.2456C0 23.1017 0.128556 23.7939 0.28568 23.7939H0.71063V20.6938H0.28568V20.6972Z" fill="#4E4E4D"/>
<path d="M1.09629 19.2222C0.785615 19.2222 0.535645 20.5766 0.535645 22.2487C0.535645 23.9208 0.785615 25.2752 1.09629 25.2752H1.92834V19.2222H1.09629Z" fill="#6F6D6C"/>
<path d="M2.93537 22.249C2.93537 19.7208 3.31033 17.6674 3.77456 17.6206H2.50328C2.03191 17.6206 1.64981 19.694 1.64981 22.249C1.64981 24.8039 2.03191 26.8773 2.50328 26.8773H3.77456C3.31033 26.8272 2.93537 24.7738 2.93537 22.249Z" fill="#7F7D7C"/>
<path d="M3.31389 22.2687C3.31389 20.5866 3.52458 19.2222 3.78883 19.2222H3.64599C3.38531 19.2222 3.17105 20.5866 3.17105 22.2687C3.17105 23.9542 3.38174 25.3186 3.64599 25.3186H3.78883C3.52815 25.3186 3.31389 23.9542 3.31389 22.2687Z" fill="#6F6D6C"/>
<path d="M4.1138 22.2487C4.1138 22.0781 4.0638 21.9443 4.0031 21.9443C3.94239 21.9443 3.89597 22.0814 3.89597 22.2487C3.89597 22.4159 3.94596 22.553 4.0031 22.553C4.0638 22.553 4.1138 22.4159 4.1138 22.2487Z" fill="#636466"/>
<path d="M3.89595 22.2487C3.89595 22.0781 3.94594 21.9443 4.00308 21.9443H3.88524C3.82096 21.9443 3.77097 22.0814 3.77097 22.2487C3.77097 22.4159 3.82096 22.553 3.88524 22.553H4.00308C3.94594 22.553 3.89595 22.4159 3.89595 22.2487Z" fill="#A7A9AC"/>
<path d="M3.91025 22.2487C3.91025 22.0881 3.95667 21.9544 4.01381 21.9443C4.01024 21.9443 4.00667 21.9443 4.00667 21.9443C3.94596 21.9443 3.89954 22.0814 3.89954 22.2487C3.89954 22.4159 3.94953 22.553 4.00667 22.553C4.01024 22.553 4.01024 22.553 4.01381 22.553C3.95667 22.5396 3.91025 22.4092 3.91025 22.2487Z" fill="#636466"/>
<path d="M27.2896 26.5195H26.2255V26.8774H27.2896V26.5195Z" fill="#414042"/>
<path d="M27.2896 26.1616H26.2255V26.5194H27.2896V26.1616Z" fill="#403F41"/>
<path d="M27.2896 25.8071H26.2255V26.1616H27.2896V25.8071Z" fill="#3E3D3F"/>
<path d="M27.2896 25.4526H26.2255V25.8071H27.2896V25.4526Z" fill="#3C3C3D"/>
<path d="M27.2896 25.0947H26.2255V25.4526H27.2896V25.0947Z" fill="#3A3A3B"/>
<path d="M27.2896 24.7402H26.2255V25.0947H27.2896V24.7402Z" fill="#383839"/>
<path d="M27.2896 24.3823H26.2255V24.7402H27.2896V24.3823Z" fill="#363637"/>
<path d="M27.2896 24.0278H26.2255V24.3823H27.2896V24.0278Z" fill="#343435"/>
<path d="M27.2896 23.6704H26.2255V24.0249H27.2896V23.6704Z" fill="#323233"/>
<path d="M27.2896 23.3159H26.2255V23.6704H27.2896V23.3159Z" fill="#303031"/>
<path d="M27.2896 22.958H26.2255V23.3125H27.2896V22.958Z" fill="#2E2E2F"/>
<path d="M27.2896 22.6035H26.2255V22.958H27.2896V22.6035Z" fill="#2C2C2D"/>
<path d="M27.2896 22.249H26.2255V22.6035H27.2896V22.249Z" fill="#2A292B"/>
<path d="M27.2896 21.8911H26.2255V22.2489H27.2896V21.8911Z" fill="#272728"/>
<path d="M27.2896 21.5332H26.2255V21.891H27.2896V21.5332Z" fill="#252526"/>
<path d="M27.2896 21.1787H26.2255V21.5332H27.2896V21.1787Z" fill="#232223"/>
<path d="M27.2896 20.8242H26.2255V21.1787H27.2896V20.8242Z" fill="#202021"/>
<path d="M27.2896 20.4663H26.2255V20.8241H27.2896V20.4663Z" fill="#1D1D1E"/>
<path d="M27.2896 20.1118H26.2255V20.4663H27.2896V20.1118Z" fill="#1A1A1B"/>
<path d="M27.2896 19.7539H26.2255V20.1084H27.2896V19.7539Z" fill="#171718"/>
<path d="M27.2896 19.3994H26.2255V19.7539H27.2896V19.3994Z" fill="#141415"/>
<path d="M27.2896 19.042H26.2255V19.3965H27.2896V19.042Z" fill="#111111"/>
<path d="M27.2896 18.6875H26.2255V19.042H27.2896V18.6875Z" fill="#0D0D0D"/>
<path d="M27.2896 18.3296H26.2255V18.6874H27.2896V18.3296Z" fill="#080809"/>
<path d="M27.2896 17.9751H26.2255V18.3296H27.2896V17.9751Z" fill="#040404"/>
<path d="M27.2896 17.6172H26.2255V17.975H27.2896V17.6172Z" fill="black"/>
<path d="M25.3541 22.249C25.3541 24.8039 25.7362 26.8773 26.2112 26.8773C26.6825 26.8773 27.0646 24.8039 27.0646 22.249C27.0646 19.694 26.6825 17.6206 26.2112 17.6206C25.7362 17.6173 25.3541 19.6907 25.3541 22.249Z" fill="#4E4E4D"/>
<path d="M25.7327 22.2687C25.7327 23.9542 25.9469 25.3186 26.2076 25.3186C26.4683 25.3186 26.6826 23.9542 26.6826 22.2687C26.6826 20.5866 26.4719 19.2222 26.2076 19.2222C25.9469 19.2222 25.7327 20.5866 25.7327 22.2687Z" fill="#4E4E4D"/>
<path d="M25.7541 22.2687C25.7541 23.8539 25.9291 25.1381 26.1433 25.1381C26.3576 25.1381 26.5326 23.8539 26.5326 22.2687C26.5326 20.6836 26.3576 19.3994 26.1433 19.3994C25.9291 19.4028 25.7541 20.6869 25.7541 22.2687Z" fill="#7F7D7C"/>
<path d="M25.7791 22.3055C25.7791 23.8372 25.9255 25.0779 26.1076 25.0779C26.2862 25.0779 26.4361 23.8372 26.4361 22.3055C26.4361 20.7739 26.2897 19.5332 26.1076 19.5332C25.9255 19.5332 25.7791 20.7739 25.7791 22.3055Z" fill="#4E4E4D"/>
<path d="M29.7143 20.6972C29.8714 20.6972 30 21.3928 30 22.2456C30 23.1017 29.8714 23.7939 29.7143 23.7939H29.2894V20.6938H29.7143V20.6972Z" fill="#4E4E4D"/>
<path d="M28.9001 19.2222C29.2108 19.2222 29.4608 20.5766 29.4608 22.2487C29.4608 23.9208 29.2108 25.2752 28.9001 25.2752H28.0681V19.2222H28.9001Z" fill="#6F6D6C"/>
<path d="M27.0646 22.249C27.0646 19.7208 26.6897 17.6674 26.2255 17.6206H27.4967C27.9681 17.6206 28.3538 19.694 28.3538 22.249C28.3538 24.8039 27.9717 26.8773 27.4967 26.8773H26.2255C26.6897 26.8272 27.0646 24.7738 27.0646 22.249Z" fill="#7F7D7C"/>
<path d="M26.6826 22.2687C26.6826 20.5866 26.4719 19.2222 26.2076 19.2222H26.3505C26.6111 19.2222 26.8254 20.5866 26.8254 22.2687C26.8254 23.9542 26.6147 25.3186 26.3505 25.3186H26.2076C26.4719 25.3186 26.6826 23.9542 26.6826 22.2687Z" fill="#6F6D6C"/>
<path d="M25.8862 22.2487C25.8862 22.0781 25.9362 21.9443 25.9933 21.9443C26.054 21.9443 26.1005 22.0814 26.1005 22.2487C26.1005 22.4159 26.0505 22.553 25.9933 22.553C25.9362 22.553 25.8862 22.4159 25.8862 22.2487Z" fill="#636466"/>
<path d="M26.1112 21.9648H17.4801H16.1338H3.88884C3.8317 21.9648 3.78528 22.0919 3.78528 22.2491C3.78528 22.4063 3.8317 22.5334 3.88884 22.5334H16.1338H17.4801H26.1076C26.1648 22.5334 26.2112 22.4063 26.2112 22.2491C26.2148 22.0919 26.1683 21.9648 26.1112 21.9648Z" fill="#A7A9AC"/>
<path d="M26.104 22.2487C26.104 22.0781 26.0541 21.9443 25.9969 21.9443H26.1148C26.179 21.9443 26.229 22.0814 26.229 22.2487C26.229 22.4159 26.179 22.553 26.1148 22.553H25.9969C26.0541 22.553 26.104 22.4159 26.104 22.2487Z" fill="#A7A9AC"/>
<path d="M26.0898 22.2487C26.0898 22.0881 26.0433 21.9544 25.9862 21.9443C25.9898 21.9443 25.9933 21.9443 25.9933 21.9443C26.0541 21.9443 26.1005 22.0814 26.1005 22.2487C26.1005 22.4159 26.0505 22.553 25.9933 22.553C25.9898 22.553 25.9898 22.553 25.9862 22.553C26.0433 22.5396 26.0898 22.4092 26.0898 22.2487Z" fill="#636466"/>
<path d="M7.71693 22.9849C8.5954 23.0451 9.23104 23.0618 9.31674 22.6471C9.38816 22.3127 9.33817 21.9582 9.2846 21.7542C9.27032 21.704 9.16319 21.6773 9.09891 21.6806C9.09891 21.6806 8.98464 21.6739 8.9275 21.7141C8.87394 21.7509 8.84894 21.8412 8.85251 21.9549L8.8418 21.9482C8.8418 21.9482 8.88465 21.7642 8.80252 21.5402C8.78466 21.49 8.65968 21.48 8.5954 21.48C8.51684 21.48 8.42399 21.48 8.38114 21.5435C8.27044 21.7074 8.29901 22.0552 8.29187 22.3695C8.29187 22.3695 8.30972 21.8679 8.27044 21.6104C8.25616 21.5301 8.13117 21.49 8.04547 21.4967C7.97762 21.5034 7.8562 21.5168 7.83478 21.6004C7.7955 21.7542 7.81335 22.005 7.82406 22.2692C7.82406 22.2692 7.87763 21.9983 7.7705 21.7709C7.74907 21.7241 7.64194 21.7174 7.57052 21.7174C7.50982 21.7174 7.40983 21.7676 7.38483 21.8412C7.33484 21.995 7.37769 22.2391 7.37769 22.2391C7.37769 22.2391 7.29199 22.9548 7.71693 22.9849Z" fill="#1B161D"/>
<g opacity="0.25">
<path d="M7.79192 21.8008C7.82406 21.9947 7.84906 22.1921 7.87049 22.3894C7.88477 22.5867 7.9062 22.7806 7.89905 22.9846L7.81692 22.9813C7.80978 22.7907 7.80264 22.59 7.79192 22.396C7.78835 22.1954 7.78835 21.9981 7.79192 21.8008Z" fill="black"/>
</g>
<g opacity="0.25">
<path d="M8.32044 23.0016C8.28116 22.8043 8.27402 22.6036 8.26688 22.4063C8.26688 22.209 8.26688 22.0083 8.30259 21.811C8.34187 22.0083 8.34901 22.2056 8.35615 22.4063C8.35258 22.607 8.35615 22.8043 8.32044 23.0016Z" fill="black"/>
</g>
<g opacity="0.25">
<path d="M8.82038 22.9812C8.79181 22.8207 8.79181 22.6602 8.78824 22.4996C8.79538 22.3391 8.80252 22.1786 8.8418 22.0181C8.87751 22.1786 8.87394 22.3391 8.87751 22.4996C8.87037 22.6602 8.86323 22.8207 8.82038 22.9812Z" fill="black"/>
</g>
<path d="M20.7011 22.9849C19.8226 23.0451 19.187 23.0618 19.0977 22.6471C19.0263 22.3127 19.0763 21.9582 19.1299 21.7542C19.1441 21.704 19.2513 21.6773 19.3155 21.6806C19.3155 21.6806 19.4298 21.6739 19.487 21.7141C19.5405 21.7509 19.5655 21.8412 19.5619 21.9549L19.5727 21.9482C19.5727 21.9482 19.5298 21.7642 19.6119 21.5402C19.6298 21.49 19.7548 21.48 19.8191 21.48C19.8976 21.48 19.9905 21.48 20.0333 21.5435C20.144 21.7074 20.1155 22.0552 20.1262 22.3695C20.1262 22.3695 20.1083 21.8679 20.1476 21.6104C20.1619 21.5301 20.2869 21.49 20.3726 21.4967C20.4404 21.5034 20.5618 21.5168 20.5833 21.6004C20.6225 21.7542 20.6047 22.005 20.594 22.2692C20.594 22.2692 20.5404 21.9983 20.6475 21.7709C20.669 21.7241 20.7761 21.7174 20.8475 21.7174C20.9082 21.7174 21.0082 21.7676 21.0332 21.8412C21.0832 21.995 21.0403 22.2391 21.0403 22.2391C21.0403 22.2391 21.126 22.9548 20.7011 22.9849Z" fill="#1B161D"/>
<g opacity="0.25">
<path d="M20.6226 21.8008C20.6297 21.9981 20.6261 22.1954 20.6226 22.3927L20.5976 22.9779L20.5154 22.9813C20.5083 22.7773 20.5333 22.5833 20.544 22.386C20.5654 22.1921 20.5904 21.9947 20.6226 21.8008Z" fill="black"/>
</g>
<g opacity="0.25">
<path d="M20.0976 23.0016C20.0619 22.8043 20.0619 22.6036 20.0619 22.4063C20.069 22.209 20.0762 22.0083 20.1155 21.811C20.1476 22.0117 20.1476 22.209 20.1512 22.4063C20.144 22.607 20.1369 22.8043 20.0976 23.0016Z" fill="white"/>
</g>
<g opacity="0.25">
<path d="M19.5977 22.9812C19.5548 22.8207 19.5477 22.6602 19.5405 22.4996C19.5405 22.3391 19.5405 22.1786 19.5762 22.0181C19.6155 22.1786 19.6227 22.3391 19.6298 22.4996C19.6262 22.6568 19.6262 22.8173 19.5977 22.9812Z" fill="black"/>
</g>
</g>
<defs>
<clipPath id="clip0_158_3011">
<rect width="30" height="39" fill="white"/>
</clipPath>
</defs>
</svg>
