<svg width="36" height="29" viewBox="0 0 36 29" fill="none" xmlns="http://www.w3.org/2000/svg">
<g clip-path="url(#clip0_158_4079)">
<path d="M26.0876 3.79741C26.0876 5.89613 24.3949 7.59481 22.3103 7.59481C20.2227 7.59481 18.533 5.89314 18.533 3.79741C18.533 1.70167 20.2227 0 22.3103 0C24.3949 0 26.0876 1.70167 26.0876 3.79741Z" fill="#333333"/>
<path d="M25.1819 3.79751C25.1819 5.3917 23.8961 6.68437 22.3103 6.68437C20.7246 6.68437 19.4388 5.3917 19.4388 3.79751C19.4388 2.20331 20.7246 0.910645 22.3103 0.910645C23.8961 0.910645 25.1819 2.20331 25.1819 3.79751Z" fill="#333333"/>
<path d="M24.2227 3.79759C24.2227 4.86038 23.3675 5.72017 22.3103 5.72017C21.2531 5.72017 20.3949 4.86038 20.3949 3.79759C20.3949 2.73479 21.2531 1.875 22.3103 1.875C23.3675 1.875 24.2227 2.73479 24.2227 3.79759Z" fill="#333333"/>
<path d="M22.6755 3.79738C22.6755 4.00038 22.5122 4.16458 22.3103 4.16458C22.1084 4.16458 21.945 4.00038 21.945 3.79738C21.945 3.59437 22.1084 3.43018 22.3103 3.43018C22.5122 3.43018 22.6755 3.59437 22.6755 3.79738Z" fill="#333333"/>
<path d="M22.2242 10.1624C22.2776 10.0968 22.3192 9.98631 22.3519 9.9057C22.5568 9.40714 22.6667 7.67264 22.5984 6.65462C22.5301 5.63661 22.6904 4.8813 22.6904 4.8813L21.5115 4.85742C21.5115 4.85742 21.5204 5.56197 21.1462 6.92928C20.7721 8.2936 20.775 9.37729 20.9354 10.1535C21.0096 10.4311 22.1143 10.3475 22.2242 10.1624Z" fill="#CD9D78"/>
<path d="M22.5805 5.7678C22.5805 5.7678 22.6073 5.2364 22.7676 4.86621C22.9042 4.55275 22.9339 4.43632 23.1269 3.91387C23.3348 3.34665 23.3942 3.33172 23.513 3.16753C23.6318 3.00333 23.3497 2.63912 23.029 3.09289C22.7082 3.54966 22.6845 3.71087 22.6845 3.71087C22.6845 3.71087 22.8864 2.88989 22.9577 2.45999C23.029 2.0301 23.0913 1.76141 22.8775 1.75544C22.7706 1.75246 22.7171 1.80321 22.5954 2.37342C22.4707 2.94064 22.3252 3.5825 22.3252 3.5825C22.3252 3.5825 22.7261 1.47482 22.4796 1.43004C22.3222 1.40317 22.245 1.48676 22.1411 2.1734C22.0341 2.86003 21.9658 3.51682 21.9658 3.51682C21.9658 3.51682 22.0757 1.7226 22.0282 1.58229C22.0015 1.4987 21.7758 1.16434 21.7342 1.88381C21.6956 2.60329 21.6422 3.54369 21.6422 3.54369C21.6422 3.54369 21.6689 2.02413 21.464 2.0301C21.2502 2.03607 21.3066 2.70181 21.3185 3.63325C21.3304 4.56469 21.4105 4.54379 21.4967 4.79158C21.5828 5.03936 21.4135 5.74988 21.4135 5.74988L22.5805 5.7678Z" fill="#CD9D78"/>
<path d="M21.6184 10.0038C21.6065 10.1143 22.2212 9.95906 22.2212 9.95906C22.2212 9.95906 23.4536 12.6101 23.2873 13.3475C23.2873 13.3475 24.0653 15.0073 24.0267 15.7388C24.8701 17.6643 23.9465 18.5958 22.7647 18.6853C21.654 18.7689 21.17 17.4942 21.2175 16.2105C21.2769 14.676 21.2027 14.3864 21.0304 13.7535C20.7988 12.9026 20.8493 9.99488 20.8879 9.62768C21.4135 9.53215 21.1195 9.81278 21.6184 10.0038Z" fill="#CD9D78"/>
<g opacity="0.26">
<path d="M21.4432 15.4674C21.5115 15.1987 21.562 14.93 21.6154 14.6643C21.6422 14.5299 21.6689 14.3986 21.6986 14.2642C21.7283 14.1299 21.761 13.9985 21.7966 13.8672C21.7253 13.9866 21.6748 14.115 21.6333 14.2463C21.5887 14.3777 21.559 14.512 21.5293 14.6464C21.5026 14.7807 21.4818 14.918 21.467 15.0554C21.4521 15.1927 21.4402 15.33 21.4432 15.4674Z" fill="#511D06"/>
<path d="M20.9532 11.3085C21.0304 11.2488 21.0898 11.1831 21.1462 11.1174L21.2324 11.0189C21.2621 10.9861 21.2917 10.9532 21.3244 10.9204C21.2739 10.9204 21.2294 10.9413 21.1878 10.9682C21.1462 10.995 21.1106 11.0279 21.0809 11.0607C21.0482 11.0965 21.0215 11.1354 21.0007 11.1772C20.9799 11.216 20.9621 11.2607 20.9532 11.3085Z" fill="#511D06"/>
</g>
<path d="M8.29992 20.4199H7.70007V28.7402H8.29992V20.4199Z" fill="#A7A9AC"/>
<path d="M31.4269 20.4199H30.8241V28.7402H31.4269V20.4199Z" fill="#A7A9AC"/>
<path d="M4.04751 17.9036C3.67928 17.82 3.75946 15.6616 4.41871 15.5721C5.96288 15.3123 12.9978 14.2794 13.6273 16.0348C13.6273 16.0348 15.4892 19.0112 12.5048 19.4262C10.3073 19.7307 7.33778 18.4529 6.21529 18.2828C5.58871 18.1873 4.64736 18.1156 4.04751 17.9036Z" fill="#CD9D78"/>
<path d="M6.52413 15.6255C6.52413 15.6255 5.52933 15.5001 4.71864 15.5807C3.90795 15.6613 3.92873 15.7628 3.59911 16.0823C3.1121 16.554 3.47439 17.7869 3.47439 17.7869C3.47439 17.7869 5.20861 16.5689 5.25019 16.554C5.29176 16.539 6.52413 15.6255 6.52413 15.6255Z" fill="#CD9D78"/>
<path d="M5.91832 16.3333C5.94505 16.5542 5.98959 17.6051 6.12916 17.8767C6.56866 18.7365 6.79137 20.7427 6.38454 22.1906C6.04305 23.4057 5.83518 25.4924 5.83518 25.4924L4.41573 26.1074C4.41573 26.1074 4.19895 23.6952 3.95841 20.9397C3.78321 18.9306 3.46547 18.241 3.4328 17.3155C3.54861 16.9811 5.77578 16.1034 5.91832 16.3333Z" fill="#CD9D78"/>
<path d="M5.9035 24.5791C5.9035 24.5791 5.74017 25.9882 6.34299 26.7972C6.83594 27.457 5.21159 28.1347 5.36304 28.5198C5.36304 28.5198 2.33111 28.7974 2.08167 27.9615C1.93022 27.46 3.02302 26.4957 3.80996 26.5704C4.68598 26.651 4.5375 24.9224 4.5375 24.9224L5.9035 24.5791Z" fill="#CD9D78"/>
<path d="M4.23163 26.2419L4.35338 25.7643C4.35338 25.7643 5.36897 25.9971 5.93616 25.7314L6.11433 26.0539C6.1173 26.0539 5.52636 26.8211 4.23163 26.2419Z" fill="white"/>
<path d="M6.85375 28.0449C6.8686 28.2987 6.8389 28.5465 5.35709 28.6002C4.8196 28.6211 4.19302 28.5853 3.28434 28.7017C1.93912 28.8719 1.11952 28.6927 0.682999 28.5315C0.320713 28.3972 0.0148478 28.2599 0.00296956 28.1614C0 28.1434 0 28.1285 0 28.1166C0 28.1673 0.00593912 28.2121 0.00593912 28.2479C0.0178174 28.3464 0.323682 28.4838 0.685969 28.6181C1.12546 28.7793 1.91537 28.9286 3.26949 28.8151C4.19599 28.7375 4.82554 28.7077 5.36303 28.6868C6.88938 28.6301 6.87454 28.3703 6.85672 28.1076C6.85672 28.0867 6.85375 28.0658 6.85375 28.0449Z" fill="#717375"/>
<path d="M6.53302 25.5164C6.47957 25.4985 6.42018 25.5553 6.37564 25.6687C6.3014 25.8598 6.33109 26.0419 6.33406 26.0478H6.34C6.32218 26.1105 6.31328 26.1792 6.31922 26.2598L6.39345 26.2538C6.37861 26.1105 6.42612 26.012 6.48254 25.8986C6.50927 25.8418 6.53599 25.7851 6.55678 25.7194C6.60726 25.5612 6.55678 25.5254 6.53302 25.5164ZM6.48848 25.6926C6.46769 25.7523 6.44097 25.809 6.41721 25.8627C6.41424 25.8717 6.4083 25.8807 6.40533 25.8896C6.4083 25.8329 6.42018 25.7642 6.44691 25.6956C6.47066 25.6359 6.49442 25.606 6.5063 25.5941C6.5063 25.609 6.50333 25.6418 6.48848 25.6926Z" fill="#0D0B42"/>
<path fill-rule="evenodd" clip-rule="evenodd" d="M5.48182 28.0483C5.17001 28.0692 4.9176 28.1528 4.46029 28.2423C4.00297 28.3319 3.31701 28.4573 2.77951 28.4842C2.24202 28.511 1.47588 28.4543 1.15516 28.4215C0.611735 28.3647 0.0683048 28.1558 0.0623657 28.1468L0.0178223 27.9916C0.0178223 27.9916 0.0623657 27.8662 0.16927 27.7856C0.279144 27.708 0.522648 27.6363 1.18486 27.3975C2.03119 27.093 2.30438 26.9527 2.72309 26.6093C3.1418 26.263 3.66147 25.9436 3.80995 25.9794C3.95843 26.0182 4.21975 26.1824 4.73646 26.3317C5.75205 26.6213 5.22049 26.6482 5.9421 26.3466C6.26578 26.2123 6.26281 25.8063 6.29251 25.8929C6.29251 25.8929 6.2836 26.2183 6.47068 26.4511C6.69934 26.7377 6.78248 27.2213 6.74685 27.7378C6.42614 27.9408 5.78471 28.0274 5.48182 28.0483Z" fill="#252B67"/>
<path fill-rule="evenodd" clip-rule="evenodd" d="M4.46623 25.5972C4.35635 25.4599 4.36823 25.3077 4.21085 25.1972C4.1277 25.1375 3.93171 25.2271 3.68226 25.6719C3.46846 26.057 3.02896 26.3675 3.02896 26.3675L3.05272 26.3645C2.46771 26.8272 1.95398 27.0392 1.95398 27.0392L2.0104 27.1496C2.65183 26.8093 3.22198 26.466 3.62287 26.2152C3.79808 26.1465 4.07722 26.2391 4.18412 26.1764C4.51671 25.9764 4.5375 25.6868 4.46623 25.5972Z" fill="#0D0B42"/>
<path fill-rule="evenodd" clip-rule="evenodd" d="M0.121767 28.057C0.151463 28.1824 0.246489 28.2182 0.302911 28.2361C0.329637 28.2451 0.356363 28.251 0.386058 28.26H0.389028C0.418723 28.2689 0.448419 28.2779 0.478115 28.2869C0.51078 28.2958 0.543445 28.3048 0.57611 28.3137H0.57908C0.611745 28.3227 0.64441 28.3316 0.680045 28.3376C0.683015 28.3376 0.685984 28.3376 0.688954 28.3406C0.724588 28.3495 0.760223 28.3555 0.795858 28.3645C0.795858 28.3645 0.795858 28.3645 0.798827 28.3645C0.834462 28.3704 0.873066 28.3794 0.911671 28.3854C0.91464 28.3854 0.91761 28.3854 0.920579 28.3884C0.956214 28.3943 0.991849 28.4003 1.03045 28.4063C1.03342 28.4063 1.03639 28.4063 1.03936 28.4093C1.07797 28.4152 1.11657 28.4182 1.15517 28.4242C1.47886 28.457 2.245 28.5137 2.77953 28.4869C3.31702 28.46 4.00595 28.3376 4.4603 28.2451C4.82258 28.1704 6.45287 28.0032 6.77062 27.8002C6.77359 27.7584 6.74092 27.6002 6.74092 27.5584C6.70232 27.5913 6.5182 27.7435 6.4499 27.7823C5.98368 28.0361 4.49593 28.1376 3.98517 28.2421C3.4744 28.3466 2.35191 28.5376 0.876036 28.1943C0.876036 28.1943 0.219763 27.9973 0.677075 27.7465C1.07203 27.5316 2.01338 27.1494 2.01338 27.1494L2.0015 27.0181C0.64738 27.6629 0.555323 27.3912 0.228672 27.6241C0.175219 27.6629 0.0237717 27.8122 0.0297109 27.9405C0.0534674 27.9435 0.10395 27.9764 0.121767 28.057Z" fill="#E50914"/>
<path d="M6.75278 27.5914C6.77654 27.1108 6.68745 26.7197 6.47067 26.448C6.45879 26.4361 6.44989 26.4212 6.44098 26.4062C6.37268 26.4212 6.33704 26.4809 6.43504 26.6331C6.60727 26.9048 6.67557 27.4302 6.69339 27.6213C6.71121 27.6094 6.73199 27.6034 6.75278 27.5914Z" fill="#252B67"/>
<path fill-rule="evenodd" clip-rule="evenodd" d="M1.93616 27.4538C1.93616 27.4538 2.23608 27.0537 1.78174 27.1702C1.61545 27.212 0.243508 27.7255 0.36229 27.9464C0.439499 28.0897 0.400894 28.1016 0.70082 28.23C1.00372 28.3554 2.40832 28.439 2.15294 28.3793C1.59466 28.2479 1.68375 28.018 2.02524 27.7105C2.36674 27.403 2.51225 27.3194 2.51225 27.3194L1.93616 27.4538Z" fill="#E50914"/>
<path d="M2.35486 27.3557C2.35486 27.3557 3.83964 28.3916 2.65181 28.4035C2.65181 28.4035 3.50705 28.4423 3.68225 28.2841C3.85746 28.1289 3.61989 27.5975 2.86562 27.0571L2.35486 27.3557Z" fill="#E50914"/>
<path d="M2.99332 26.9255C2.99332 26.9255 4.54046 28.1107 3.68522 28.3077C3.68522 28.3077 4.34447 28.3167 4.49592 28.1346C4.80178 27.7674 4.25835 27.1673 3.50408 26.627L2.99332 26.9255Z" fill="#E50914"/>
<path d="M3.64664 26.5435C3.64664 26.5435 5.4937 27.9466 4.54048 28.1914C4.54048 28.1914 5.36601 28.2033 5.51449 28.0212C5.70454 27.7913 4.70083 26.9495 5.67188 26.5046C5.8649 26.4151 4.32964 26.4061 4.04456 26.2031L3.64664 26.5435Z" fill="#E50914"/>
<path fill-rule="evenodd" clip-rule="evenodd" d="M6.5568 26.5823C6.53008 26.5345 6.50038 26.4927 6.46772 26.4509C6.45881 26.4419 6.45287 26.433 6.44693 26.424C6.33706 26.1583 6.343 25.9135 6.343 25.9135C6.33409 25.3642 6.08464 25.6747 6.06386 25.7583C6.02228 25.9434 6.03119 26.3643 5.23832 26.3524C4.57908 26.3464 4.12176 26.0867 4.0208 26.027C3.79511 25.8956 3.70306 25.8986 3.67336 25.9076C3.29919 26.1046 3.25465 26.2359 2.93988 26.5136C2.23015 27.042 1.82629 27.2032 1.67188 27.2838C1.67188 27.2838 1.89756 27.5615 2.25094 27.448C2.26282 27.445 2.2747 27.4391 2.28657 27.4361C2.29845 27.4301 2.31033 27.4271 2.32518 27.4211C2.32815 27.4211 2.33112 27.4182 2.33112 27.4182C2.343 27.4122 2.3519 27.4092 2.36378 27.4032C2.37863 27.3943 2.39051 27.3883 2.40536 27.3793C2.87455 27.1136 3.62288 26.5763 3.80699 26.4658C3.9911 26.3554 4.37715 26.4031 4.65628 26.4807C5.46994 26.7076 5.57982 26.4718 6.09058 26.6181C6.26876 26.6688 6.50038 26.8838 6.67559 27.3286C6.67856 27.3346 6.64589 26.9226 6.65183 26.9256C6.6548 26.9256 6.45287 26.6479 6.45287 26.6479C6.45881 26.6479 6.46475 26.6479 6.47069 26.6479H6.47366C6.4796 26.6449 6.4885 26.6449 6.49444 26.639C6.49444 26.639 6.49444 26.639 6.49741 26.636C6.50335 26.633 6.50929 26.627 6.51523 26.624C6.51523 26.624 6.51523 26.624 6.5182 26.624C6.53602 26.6061 6.54493 26.5942 6.5568 26.5823Z" fill="#252B67"/>
<path fill-rule="evenodd" clip-rule="evenodd" d="M3.7565 26.1194C3.75947 26.1612 3.79511 26.194 3.83668 26.191C3.87826 26.188 3.91092 26.1522 3.90795 26.1104C3.90498 26.0686 3.86935 26.0358 3.82777 26.0388C3.7862 26.0388 3.75354 26.0776 3.7565 26.1194Z" fill="white"/>
<path fill-rule="evenodd" clip-rule="evenodd" d="M3.77136 26.1162C3.77433 26.152 3.80106 26.1759 3.83669 26.1729C3.86936 26.1699 3.89608 26.1431 3.89311 26.1072C3.89014 26.0744 3.86342 26.0475 3.82778 26.0505C3.79512 26.0565 3.77136 26.0834 3.77136 26.1162Z" fill="black"/>
<path fill-rule="evenodd" clip-rule="evenodd" d="M3.79809 26.1823C3.79809 26.1823 3.44174 26.2122 3.37344 26.0689C3.37344 26.0689 3.38235 25.9763 3.4358 26.0121C3.58131 26.1107 3.62586 26.0629 3.83373 26.051C3.82779 26.0539 3.91093 26.1525 3.79809 26.1823Z" fill="#BCBEC0"/>
<path fill-rule="evenodd" clip-rule="evenodd" d="M3.36155 26.4838C3.35858 26.5256 3.39124 26.5614 3.43282 26.5644C3.47439 26.5674 3.51002 26.5346 3.51299 26.4898C3.51596 26.448 3.4833 26.4122 3.43875 26.4092C3.39718 26.4092 3.36155 26.442 3.36155 26.4838Z" fill="white"/>
<path fill-rule="evenodd" clip-rule="evenodd" d="M3.37639 26.4837C3.37342 26.5165 3.40014 26.5464 3.43281 26.5464C3.46547 26.5494 3.49517 26.5225 3.49517 26.4897C3.49814 26.4568 3.47141 26.427 3.43875 26.427C3.40608 26.424 3.37936 26.4509 3.37639 26.4837Z" fill="black"/>
<path fill-rule="evenodd" clip-rule="evenodd" d="M3.39421 26.5526C3.39421 26.5526 3.03786 26.5436 2.98441 26.3943C2.98441 26.3943 3.00222 26.3048 3.04974 26.3466C3.18337 26.46 3.23385 26.4182 3.44172 26.4302C3.43875 26.4272 3.51299 26.5346 3.39421 26.5526Z" fill="#BCBEC0"/>
<path fill-rule="evenodd" clip-rule="evenodd" d="M2.9458 26.7884C2.93986 26.8302 2.96659 26.869 3.00816 26.878C3.04974 26.8839 3.08834 26.8571 3.09725 26.8153C3.10319 26.7735 3.07646 26.7347 3.03489 26.7257C2.99331 26.7168 2.95471 26.7466 2.9458 26.7884Z" fill="white"/>
<path fill-rule="evenodd" clip-rule="evenodd" d="M2.96066 26.7914C2.95472 26.8243 2.97848 26.8571 3.01114 26.8631C3.04381 26.869 3.07647 26.8452 3.08241 26.8123C3.08835 26.7795 3.06459 26.7466 3.03193 26.7407C2.99926 26.7347 2.9666 26.7586 2.96066 26.7914Z" fill="black"/>
<path fill-rule="evenodd" clip-rule="evenodd" d="M2.97253 26.8567C2.97253 26.8567 2.63103 26.809 2.5954 26.6567C2.5954 26.6567 2.62509 26.5701 2.66667 26.6149C2.78545 26.7433 2.82999 26.7015 3.03192 26.7403C3.03192 26.7403 3.09131 26.8567 2.97253 26.8567Z" fill="#BCBEC0"/>
<path fill-rule="evenodd" clip-rule="evenodd" d="M2.50335 27.0509C2.4885 27.0897 2.50929 27.1345 2.55086 27.1494C2.58947 27.1644 2.63401 27.1435 2.64886 27.1017C2.66371 27.0629 2.64292 27.0181 2.60134 27.0031C2.56274 26.9912 2.5182 27.0091 2.50335 27.0509Z" fill="white"/>
<path fill-rule="evenodd" clip-rule="evenodd" d="M2.51819 27.057C2.50631 27.0898 2.52413 27.1227 2.55679 27.1346C2.58946 27.1466 2.62212 27.1286 2.634 27.0958C2.64588 27.063 2.62806 27.0301 2.59837 27.0182C2.5657 27.0092 2.53007 27.0242 2.51819 27.057Z" fill="black"/>
<path fill-rule="evenodd" clip-rule="evenodd" d="M2.51818 27.1254C2.51818 27.1254 2.21826 27.0478 2.20935 26.8896C2.20935 26.8896 2.25389 26.809 2.28656 26.8627C2.38159 27.009 2.40237 26.9493 2.59836 27.0209C2.59539 27.0179 2.634 27.1433 2.51818 27.1254Z" fill="#BCBEC0"/>
<path fill-rule="evenodd" clip-rule="evenodd" d="M3.57834 26.2957C3.58131 26.3375 3.61695 26.3703 3.65852 26.3673C3.70009 26.3644 3.73276 26.3285 3.72979 26.2838C3.72682 26.242 3.69119 26.2091 3.64961 26.2121C3.60804 26.2151 3.57537 26.2509 3.57834 26.2957Z" fill="white"/>
<path fill-rule="evenodd" clip-rule="evenodd" d="M3.59617 26.2925C3.59914 26.3253 3.62587 26.3522 3.6615 26.3492C3.69417 26.3462 3.72089 26.3193 3.71793 26.2835C3.71496 26.2507 3.68823 26.2238 3.65259 26.2268C3.61993 26.2298 3.5932 26.2596 3.59617 26.2925Z" fill="black"/>
<path fill-rule="evenodd" clip-rule="evenodd" d="M3.51002 25.9614C3.51002 25.9614 3.28136 26.0211 3.48032 26.2212C3.60504 26.3465 3.64365 26.3227 3.65849 26.2928C3.67631 26.26 3.6971 26.245 3.59613 26.1883C3.47735 26.1197 3.4625 25.9764 3.51002 25.9614Z" fill="white"/>
<path fill-rule="evenodd" clip-rule="evenodd" d="M3.16556 26.6387C3.16259 26.6805 3.19526 26.7164 3.23683 26.7193C3.27841 26.7223 3.31404 26.6895 3.31701 26.6477C3.31998 26.6059 3.28731 26.5701 3.24574 26.5671C3.20417 26.5641 3.16556 26.5969 3.16556 26.6387Z" fill="white"/>
<path fill-rule="evenodd" clip-rule="evenodd" d="M3.1804 26.6385C3.17743 26.6713 3.20416 26.7012 3.23682 26.7012C3.26949 26.7042 3.29918 26.6773 3.29918 26.6445C3.30215 26.6116 3.27543 26.5818 3.24276 26.5818C3.2101 26.5788 3.18337 26.6057 3.1804 26.6385Z" fill="black"/>
<path fill-rule="evenodd" clip-rule="evenodd" d="M3.13288 26.2866C3.13288 26.2866 2.89829 26.3374 3.07349 26.5583C3.18337 26.6956 3.22494 26.6747 3.24276 26.6508C3.26354 26.621 3.2873 26.609 3.19524 26.5404C3.0824 26.4538 3.0824 26.2956 3.13288 26.2866Z" fill="white"/>
<path fill-rule="evenodd" clip-rule="evenodd" d="M2.73499 26.9166C2.72905 26.9583 2.75577 26.9972 2.79735 27.0061C2.83892 27.0121 2.87752 26.9852 2.88643 26.9434C2.89237 26.9016 2.86565 26.8628 2.82407 26.8539C2.7825 26.8479 2.74092 26.8748 2.73499 26.9166Z" fill="white"/>
<path fill-rule="evenodd" clip-rule="evenodd" d="M2.74984 26.9197C2.74391 26.9525 2.76766 26.9854 2.80033 26.9913C2.83299 26.9973 2.86566 26.9764 2.8716 26.9406C2.87457 26.9077 2.85378 26.8749 2.82111 26.8689C2.78548 26.8659 2.75578 26.8868 2.74984 26.9197Z" fill="black"/>
<path fill-rule="evenodd" clip-rule="evenodd" d="M2.75577 26.5854C2.75577 26.5854 2.50633 26.5854 2.65777 26.8273C2.74983 26.9795 2.79437 26.9616 2.81516 26.9377C2.83892 26.9109 2.86564 26.9019 2.77953 26.8213C2.67559 26.7228 2.70529 26.5854 2.75577 26.5854Z" fill="white"/>
<path fill-rule="evenodd" clip-rule="evenodd" d="M2.27172 27.1405C2.25687 27.1823 2.27766 27.2241 2.31923 27.239C2.36081 27.2539 2.40238 27.233 2.41723 27.1912C2.43208 27.1524 2.41129 27.1076 2.36972 27.0927C2.33111 27.0808 2.28657 27.1017 2.27172 27.1405Z" fill="white"/>
<path fill-rule="evenodd" clip-rule="evenodd" d="M2.28656 27.1465C2.27468 27.1793 2.2925 27.2122 2.32219 27.2241C2.35486 27.2361 2.38752 27.2181 2.3994 27.1883C2.41128 27.1555 2.39346 27.1226 2.36377 27.1107C2.33407 27.0987 2.29844 27.1166 2.28656 27.1465Z" fill="black"/>
<path fill-rule="evenodd" clip-rule="evenodd" d="M2.37863 26.8213C2.37863 26.8213 2.1084 26.7765 2.21233 27.0392C2.27766 27.2034 2.3222 27.1974 2.34893 27.1765C2.37566 27.1526 2.40535 27.1496 2.33408 27.0541C2.24797 26.9407 2.32814 26.8123 2.37863 26.8213Z" fill="white"/>
<path fill-rule="evenodd" clip-rule="evenodd" d="M3.52192 26.0089C3.52192 26.0089 4.21976 25.6895 3.9822 25.3581C3.74463 25.0268 3.52489 25.7791 3.50113 25.9701L3.54567 25.9582C3.54567 25.9582 3.65852 25.4716 3.80699 25.3969C3.95547 25.3253 3.96735 25.4626 3.93765 25.5283C3.91093 25.585 3.82481 25.7671 3.61991 25.9373C3.60803 25.9463 3.54567 25.9492 3.53082 25.9612C3.51301 25.9761 3.5427 25.997 3.52192 26.0089Z" fill="#BCBEC0"/>
<path fill-rule="evenodd" clip-rule="evenodd" d="M3.59019 25.9046C3.59019 25.9046 3.71195 25.4 3.45953 25.2299C3.20712 25.0597 3.0527 25.2239 3.2873 25.618C3.52189 26.012 3.52189 26.012 3.52189 26.012L3.56941 25.9613C3.56941 25.9613 3.38529 25.6896 3.32887 25.5344C3.27245 25.3791 3.22494 25.209 3.34372 25.2717C3.4625 25.3344 3.53971 25.3971 3.55159 25.6538C3.55753 25.7762 3.5308 25.8867 3.53377 25.9374C3.53674 25.9941 3.57238 25.9882 3.57238 25.9882L3.59019 25.9046Z" fill="#BCBEC0"/>
<path fill-rule="evenodd" clip-rule="evenodd" d="M3.48626 25.9882C3.48626 25.9882 3.41796 26.033 3.22494 26.0658C3.03192 26.0987 2.8775 26.3076 2.8775 26.3226C2.88047 26.3405 2.82702 26.3494 2.82702 26.3494C2.82702 26.3494 2.79139 26.3226 2.82108 26.242C2.85078 26.1613 2.91908 26.0061 3.20416 25.9972C3.48923 25.9882 3.56347 25.9404 3.56347 25.9404C3.56347 25.9404 3.64068 25.9852 3.48626 25.9882Z" fill="#D1D3D4"/>
<path fill-rule="evenodd" clip-rule="evenodd" d="M3.58426 25.9282C3.58426 25.9282 3.34966 26.0894 3.20712 26.1521C3.06459 26.2178 2.90126 26.3999 2.81514 26.4148C2.72902 26.4268 2.75575 26.4954 2.75575 26.4954C2.75575 26.4954 2.8092 26.5283 3.0438 26.3223C3.27839 26.1163 3.39421 26.1133 3.47439 26.0566C3.55456 25.9939 3.5902 25.9879 3.58426 25.9282Z" fill="#D1D3D4"/>
<path d="M6.81515 27.8124C6.79139 27.7617 6.75279 27.6154 6.74091 27.5557C6.56274 27.6243 5.76095 28.0363 4.51374 28.1587C4.05049 28.2035 3.30513 28.3378 2.76764 28.3677C2.23015 28.3946 1.50854 28.3886 1.18486 28.3557C0.864147 28.3229 0.525617 28.2453 0.314778 28.1766C0.258356 28.1587 0.1663 28.105 0.160361 27.9617C0.154422 27.8333 0.112848 27.7049 0.0386087 27.8393C-0.00593468 27.9229 0.00594357 28.1408 0.00891313 28.2035C0.0207914 28.299 0.326656 28.4393 0.688943 28.5737C1.12844 28.7349 1.93319 28.8842 3.28434 28.7707C4.20787 28.6931 4.82851 28.6632 5.366 28.6423C6.89236 28.5856 6.87751 28.3259 6.86266 28.0632C6.85078 27.9706 6.83 27.8452 6.81515 27.8124Z" fill="#D3D5D6"/>
<path d="M6.46176 27.9941C6.46176 27.9941 5.52338 28.2897 5.11061 28.3165C4.46621 28.3554 4.87898 28.4748 5.54713 28.4987C6.6726 28.5404 6.8775 27.9493 6.46176 27.9941Z" fill="#ABADB0"/>
<path d="M2.41129 28.732C2.41129 28.732 1.27098 28.8096 0.49295 28.4424C0.49295 28.4424 0.944324 28.4931 1.25613 28.526C2.40535 28.6603 2.53898 28.3946 2.41129 28.732Z" fill="#ABADB0"/>
<path d="M14.2004 19.635C14.2004 19.635 12.2999 20.2798 10.0579 19.5573C7.46844 18.7244 6.60132 18.8976 6.60132 18.8976L5.80548 15.0405L11.3704 14.8345L15.0022 14.927L14.2004 19.635Z" fill="white"/>
<path d="M18.928 19.447C21.9391 19.9128 23.3526 20.0352 25.9599 18.4469C26.5657 18.0767 25.856 16.3751 25.856 16.3751C25.856 16.3751 25.3868 16.1542 24.6295 15.6138C23.1091 14.5271 21.6065 14.3719 20.8166 14.969C20.4128 15.2765 19.0883 15.1182 18.4202 15.1033C15.314 15.0436 14.1826 15.1839 11.9762 15.3959C11.4625 15.4466 10.6043 18.6798 10.7825 19.259C11.4091 19.3306 12.5197 19.9725 13.6659 19.9754C15.5932 19.9844 15.9465 18.9873 18.928 19.447Z" fill="#E4AE84"/>
<g opacity="0.26">
<path d="M17.9777 16.3125C17.9362 16.2139 17.9035 16.1154 17.8857 16.0169C17.8679 15.9184 17.8649 15.8169 17.8797 15.7154C17.8916 15.6139 17.9243 15.5094 17.9599 15.3989C17.8679 15.4676 17.7936 15.5691 17.752 15.6825C17.7105 15.796 17.6986 15.9244 17.7223 16.0468C17.7431 16.1692 17.7966 16.2796 17.8649 16.3781C17.9362 16.4737 18.0223 16.5573 18.1262 16.611C18.0698 16.5065 18.0193 16.408 17.9777 16.3125Z" fill="#511D06"/>
<path d="M17.467 16.5452C17.4195 16.4496 17.3779 16.3631 17.3423 16.2735C17.3066 16.1869 17.2769 16.0974 17.2621 16.0108C17.2472 15.9242 17.2413 15.8347 17.2532 15.7451C17.2621 15.6525 17.2888 15.56 17.3185 15.4585C17.2324 15.5182 17.1641 15.6078 17.1255 15.7123C17.0869 15.8167 17.075 15.9332 17.0958 16.0436C17.1166 16.1541 17.1641 16.2556 17.2264 16.3422C17.2918 16.4258 17.372 16.5004 17.467 16.5452Z" fill="#511D06"/>
<path d="M16.5672 16.0078C16.5553 15.9481 16.5524 15.8884 16.5553 15.8257C16.5583 15.7601 16.5702 15.6944 16.585 15.6138C16.5138 15.6526 16.4603 15.7153 16.4276 15.7899C16.395 15.8645 16.3861 15.9541 16.4009 16.0347C16.4158 16.1183 16.4514 16.1929 16.5019 16.2556C16.5524 16.3153 16.6147 16.3691 16.689 16.393C16.6622 16.3183 16.6355 16.2526 16.6147 16.1899C16.5969 16.1273 16.5791 16.0675 16.5672 16.0078Z" fill="#511D06"/>
<path d="M21.7164 18.3544C21.7788 18.3514 21.8441 18.3514 21.9065 18.3544C22.0193 18.3603 22.1322 18.3723 22.245 18.3932C22.1797 18.3215 22.1114 18.2529 22.0401 18.1932C21.9985 18.1872 21.954 18.1812 21.9124 18.1782C21.8441 18.1723 21.7758 18.1693 21.7105 18.1723C21.6422 18.1723 21.5709 18.1812 21.5145 18.1842C21.3927 18.1872 21.274 18.1663 21.1611 18.1126C21.0512 18.0618 20.9503 17.9782 20.8642 17.8797C20.689 17.6797 20.5731 17.408 20.4989 17.1214C20.4247 16.8348 20.4009 16.5303 20.4128 16.2288C20.4276 15.9302 20.487 15.6287 20.6118 15.363C20.6741 15.2317 20.7513 15.1093 20.8463 15.0078C20.9414 14.9063 21.0572 14.8286 21.1789 14.7749C21.0512 14.8048 20.9265 14.8704 20.8167 14.963C20.7068 15.0555 20.6147 15.1749 20.5405 15.3093C20.392 15.578 20.3118 15.8944 20.2821 16.2109C20.2524 16.5303 20.2762 16.8557 20.3445 17.1662C20.4187 17.4767 20.5435 17.7782 20.7454 18.014C20.8463 18.1305 20.9681 18.226 21.1017 18.2857C21.2354 18.3454 21.3779 18.3723 21.5204 18.3633C21.5947 18.3693 21.6511 18.3574 21.7164 18.3544Z" fill="#511D06"/>
<path d="M18.7409 17.1182C18.7023 17.2137 18.6667 17.3123 18.6578 17.4138C18.7023 17.3212 18.7558 17.2406 18.8122 17.157C18.8686 17.0734 18.928 16.9958 18.9874 16.9152C19.1062 16.757 19.2309 16.6017 19.3527 16.4465C19.4803 16.2883 19.5991 16.1181 19.6912 15.933C19.7387 15.8405 19.7773 15.7449 19.804 15.6434C19.8159 15.5927 19.8278 15.5419 19.8337 15.4912C19.8397 15.4404 19.8397 15.3867 19.8248 15.3359C19.8218 15.3867 19.804 15.4345 19.7862 15.4792C19.7684 15.527 19.7476 15.5688 19.7268 15.6136C19.6823 15.7002 19.6318 15.7837 19.5754 15.8673C19.4655 16.0315 19.3467 16.1868 19.222 16.342C19.0943 16.5002 18.9785 16.6674 18.8775 16.8436C18.827 16.9331 18.7825 17.0227 18.7409 17.1182Z" fill="#511D06"/>
<path d="M19.706 17.0052C19.7149 16.8977 19.7416 16.7903 19.7713 16.6738C19.6823 16.7544 19.6169 16.8589 19.5783 16.9754C19.5397 17.0918 19.5308 17.2202 19.5486 17.3426C19.5664 17.465 19.611 17.5814 19.6733 17.6859C19.7357 17.7874 19.8159 17.8799 19.9198 17.9456C19.8693 17.8351 19.8278 17.7336 19.7921 17.6292C19.7565 17.5247 19.7298 17.4232 19.7149 17.3187C19.6971 17.2172 19.6941 17.1127 19.706 17.0052Z" fill="#511D06"/>
<path d="M17.3482 15.2136C17.5561 15.2136 17.761 15.2076 17.9659 15.1957C18.1708 15.1837 18.3786 15.1658 18.5835 15.13C18.3786 15.0942 18.1708 15.0762 17.9659 15.0643C17.761 15.0524 17.5531 15.0464 17.3482 15.0464C17.1433 15.0464 16.9354 15.0524 16.7305 15.0643C16.5256 15.0762 16.3178 15.0942 16.1129 15.13C16.3178 15.1658 16.5256 15.1837 16.7305 15.1957C16.9384 15.2076 17.1433 15.2136 17.3482 15.2136Z" fill="#511D06"/>
</g>
<path d="M26.5924 16.3063C26.5924 16.3063 25.6808 16.5631 25.2116 16.1033C24.7424 15.6436 25.0958 18.6289 25.363 18.6289C25.6303 18.6289 26.8924 18.4946 27.314 18.6857C27.314 18.6857 26.5657 17.396 26.5924 16.3063Z" fill="#E4AE84"/>
<path d="M29.4521 19.408C28.0208 19.408 27.1834 19.6528 26.7676 17.7451C26.6192 17.0614 26.3964 16.13 26.346 15.7598C26.2598 15.1329 27.0082 14.8881 28.6236 14.5955C29.9183 14.3597 31.4506 14.7985 31.4506 14.7985C32.0891 15.2941 32.0505 16.6554 32.0505 17.4615C32.0505 18.9542 31.1507 19.408 29.4521 19.408Z" fill="#E4AE84"/>
<path d="M30.0787 14.6227C30.0787 14.6227 28.5286 14.4406 28.3979 14.3868C28.2673 14.3301 28.0416 14.2793 28.0475 14.6824C28.0534 15.1003 28.2227 15.1988 28.2227 15.1988L30.0787 14.6227Z" fill="#E4AE84"/>
<path d="M29.0275 17.2201C29.0275 17.2201 27.4447 17.1395 27.2398 16.229C27.219 16.1394 27.02 16.0946 26.9517 16.029C26.4113 15.5155 26.9221 15.0945 26.9221 15.0945L26.9161 15.0259C26.7558 15.0736 26.7112 15.1095 26.631 15.1513C26.4291 15.2617 26.3163 15.3244 26.3311 15.4797C26.435 17.2112 27.0735 17.665 27.2873 17.7545C27.6437 17.9068 29.6719 17.3306 29.0275 17.2201Z" fill="white"/>
<path d="M27.9169 15.7541C27.8961 15.4168 27.9466 14.7719 27.706 14.7361C27.5902 14.7212 27.4536 14.8077 27.4447 14.8465C27.4417 14.957 27.51 15.36 27.5397 15.4974C27.5843 15.7213 27.3616 15.9004 27.0379 15.9004C26.7142 15.9004 26.8033 15.987 26.7231 15.784C26.6459 15.5809 26.5627 15.8646 26.5627 15.8646L26.8567 16.2109C26.8538 16.2138 27.9466 16.2825 27.9169 15.7541Z" fill="white"/>
<path d="M27.4447 17.1362C27.4447 17.1362 27.5546 17.2139 27.7001 17.2795C27.7387 17.2915 27.7654 17.3004 27.7654 17.3004C27.5486 17.1989 27.4447 17.1362 27.4447 17.1362Z" fill="white"/>
<path d="M30.5806 18.1095C30.7677 18.0946 30.9429 18.0468 31.1002 17.9961C31.3051 17.9274 31.611 17.6139 31.8337 17.4527C31.8605 17.4348 31.8901 17.4169 31.9169 17.399C31.9525 17.3781 31.9852 17.3512 32.0178 17.3154C32.1515 17.19 32.2643 17.0169 32.3386 16.7542C32.3445 16.7303 32.3534 16.7094 32.3593 16.6885C32.3742 16.6556 32.392 16.6258 32.4098 16.5959C32.4841 16.4676 32.5167 16.3302 32.5434 16.175C32.6444 15.9242 32.7394 15.7093 32.7929 15.5033C32.781 15.3451 32.7424 15.1898 32.6593 15.0495C32.585 14.9241 32.487 14.8196 32.3742 14.7301C32.2524 14.6315 32.1307 14.53 31.9763 14.4883C31.8278 14.4465 31.6734 14.4375 31.5219 14.4375C31.3437 14.4405 31.1923 14.5002 31.0201 14.53C30.8775 14.5539 30.735 14.5091 30.6043 14.5838C30.5687 14.6017 30.5301 14.6286 30.4915 14.6584C30.4707 14.7062 30.4469 14.7629 30.4232 14.8316C30.3282 15.0973 30.4054 15.1868 30.5182 15.366C30.539 15.4346 30.5657 15.5063 30.6043 15.5779C30.6637 15.6884 30.7112 15.8048 30.7528 15.9212C30.9636 17.4348 28.6325 17.1572 28.3504 17.1124C28.0683 17.0646 27.7328 17.1542 28.098 17.2408C28.1188 17.2467 28.0357 17.3244 28.2109 17.3423C28.2138 17.3423 28.2198 17.3393 28.2138 17.3423C28.0594 17.4139 27.8634 17.3572 27.706 17.2885C27.611 17.2587 27.4507 17.2109 27.4507 17.2109C27.4507 17.2109 27.8634 17.4736 28.2673 17.6528C28.588 17.7931 29.6125 18.0229 30.0371 18.0797C30.2955 18.1424 30.438 18.1573 30.5806 18.1095Z" fill="white"/>
<path d="M32.7929 15.5C32.7929 15.5 32.9028 15.9627 32.8345 16.4314C32.7662 16.9001 32.9146 16.9061 32.9146 17.2196C32.9146 17.5301 32.7869 18.0555 32.6414 18.366C32.1188 19.5004 31.5605 19.4885 31.3081 19.6467C31.0587 19.8079 30.5212 20.0826 30.2272 19.99C29.9302 19.8975 29.8382 19.8079 29.4284 19.8975C29.0186 19.99 29.1195 19.8766 28.8018 19.7392C28.4841 19.6019 28.493 19.7034 28.2198 19.6019C27.9466 19.5004 27.9198 19.5989 27.7654 19.4168C27.611 19.2347 27.5783 19.3153 27.4447 19.2108C27.3111 19.1063 27.2665 19.1601 27.1864 18.981C27.1062 18.7988 26.6162 18.1152 27.0379 17.6644C27.5546 17.1151 27.804 17.3868 27.8664 17.339C27.9287 17.2882 28.9978 17.4942 28.9978 17.4942C28.9978 17.4942 29.7283 17.6883 29.8055 17.6644C29.8857 17.6435 30.3875 17.6763 30.6132 17.5629C30.8419 17.4495 31.9109 16.3717 31.9466 16.321C31.9822 16.2702 32.7929 15.5 32.7929 15.5Z" fill="white"/>
<path d="M4.8879 18.0526C4.51968 17.969 4.59986 15.8105 5.2591 15.721C6.80327 15.4613 13.8382 14.4283 14.4677 16.1837C14.4677 16.1837 16.3296 19.1601 13.3452 19.5751C11.1477 19.8796 8.17818 18.6019 7.05568 18.4317C6.42911 18.3362 5.48775 18.2615 4.8879 18.0526Z" fill="#E4AE84"/>
<path d="M7.36452 15.772C7.36452 15.772 6.36972 15.6466 5.55903 15.7272C4.74834 15.8078 4.76913 15.9093 4.4395 16.2288C3.9525 16.7005 4.31478 17.9334 4.31478 17.9334C4.31478 17.9334 6.04901 16.7154 6.09058 16.7005C6.12919 16.6885 7.36452 15.772 7.36452 15.772Z" fill="#E4AE84"/>
<path d="M15.0408 19.7844C15.0408 19.7844 13.1403 20.4293 10.8983 19.7068C8.30884 18.8739 7.43876 19.047 7.43876 19.047L6.64291 15.1899L12.2079 14.9839L13.363 14.9302H15.1002L15.0408 19.7844Z" fill="#E50914"/>
<path d="M15.4506 14.8585C15.4506 14.8585 15.1507 16.7393 15.4269 19.6829L14.6548 19.8859C14.6548 19.8859 14.2955 16.0079 14.6934 14.8018L15.4506 14.8585Z" fill="white"/>
<path d="M25.0512 19.2287C25.3007 19.0048 25.4996 17.951 25.4818 17.6345C25.4937 17.6226 25.467 17.4016 25.4432 17.3181C25.3541 16.6195 24.0178 15.2104 23.7149 15.0671C22.5301 14.4969 21.4492 14.4939 20.8196 14.9715C20.4157 15.279 18.7142 14.9387 18.049 14.9268C16.6771 14.8999 16.3148 14.8223 15.4506 14.8611C15.3586 16.0433 15.2933 16.7658 15.3467 17.3061C15.2636 18.1868 15.4299 19.6825 15.4299 19.6825C15.9169 19.578 16.4751 19.4675 18.4885 19.6228C22.8627 19.9571 23.8426 20.3124 25.0512 19.2287ZM20.8998 17.2912C20.9889 15.8701 24.2999 15.6671 24.8909 17.6285C24.9443 17.73 25.0542 17.6196 24.9829 17.7539C24.5791 18.8585 21.3363 19.8288 20.8998 17.2912Z" fill="#E50914"/>
<path d="M22.9132 10.1624C22.9666 10.0968 23.0082 9.98631 23.0408 9.9057C23.2457 9.40714 23.3556 7.67264 23.2873 6.65462C23.219 5.63661 23.3794 4.8813 23.3794 4.8813L22.2005 4.85742C22.2005 4.85742 22.2094 5.56197 21.8352 6.92928C21.461 8.2936 21.461 9.37729 21.6244 10.1535C21.6986 10.4311 22.8033 10.3475 22.9132 10.1624Z" fill="#E4AE84"/>
<path d="M23.2695 5.7678C23.2695 5.7678 23.2962 5.2364 23.4566 4.86621C23.5932 4.55275 23.6229 4.43632 23.8159 3.91387C24.0238 3.34665 24.0832 3.33172 24.2019 3.16753C24.3207 3.00333 24.0386 2.63912 23.7179 3.09289C23.3972 3.54966 23.3734 3.71087 23.3734 3.71087C23.3734 3.71087 23.5754 2.88989 23.6466 2.45999C23.7209 2.0301 23.7803 1.76141 23.5665 1.75544C23.4596 1.75246 23.4061 1.80321 23.2843 2.37342C23.1626 2.94064 23.0141 3.5825 23.0141 3.5825C23.0141 3.5825 23.415 1.47482 23.1685 1.43004C23.0111 1.40317 22.9369 1.48676 22.83 2.1734C22.7231 2.86003 22.6548 3.51682 22.6548 3.51682C22.6548 3.51682 22.7647 1.7226 22.7172 1.58229C22.6904 1.4987 22.4647 1.16434 22.4232 1.88381C22.3846 2.60329 22.3311 3.54369 22.3311 3.54369C22.3311 3.54369 22.3578 2.02413 22.1529 2.0301C21.9391 2.03607 21.9926 2.70181 22.0074 3.63325C22.0193 4.56469 22.0995 4.54379 22.1856 4.79158C22.2717 5.03936 22.1025 5.74988 22.1025 5.74988L23.2695 5.7678Z" fill="#E4AE84"/>
<path d="M22.3074 10.0038C22.2955 10.1143 22.9102 9.95906 22.9102 9.95906C22.9102 9.95906 24.1426 12.6101 23.9733 13.3475C23.9733 13.3475 24.7513 15.0073 24.7127 15.7388C25.5561 17.6643 24.6325 18.5958 23.4507 18.6853C22.34 18.7689 21.853 17.4942 21.9035 16.2105C21.9629 14.676 21.8887 14.3864 21.7164 13.7535C21.4848 12.9026 21.5353 9.99488 21.5739 9.62768C22.1025 9.53215 21.8115 9.81278 22.3074 10.0038Z" fill="#E4AE84"/>
<g opacity="0.26">
<path d="M22.1321 15.4674C22.2004 15.1987 22.2509 14.93 22.3044 14.6643C22.3311 14.5299 22.3578 14.3986 22.3875 14.2642C22.4172 14.1299 22.4469 13.9985 22.4855 13.8672C22.4143 13.9866 22.3638 14.115 22.3192 14.2463C22.2777 14.3777 22.245 14.512 22.2153 14.6464C22.1886 14.7807 22.1678 14.918 22.1529 15.0554C22.1411 15.1927 22.1292 15.33 22.1321 15.4674Z" fill="#511D06"/>
<path d="M21.6422 11.3085C21.7194 11.2488 21.7788 11.1831 21.8352 11.1174L21.9213 11.0189C21.951 10.9861 21.9807 10.9532 22.0134 10.9204C21.9629 10.9204 21.9154 10.9413 21.8768 10.9682C21.8352 10.995 21.7996 11.0279 21.7699 11.0607C21.7372 11.0965 21.7105 11.1354 21.6897 11.1772C21.6689 11.216 21.6511 11.2607 21.6422 11.3085Z" fill="#511D06"/>
</g>
<path d="M25.7728 18.6138C25.7728 18.6138 24.7988 18.972 24.585 19.1273C24.3712 19.2825 22.248 19.6228 22.248 19.6228L23.5249 19.8437C23.5249 19.8437 25.1017 19.384 25.7728 18.6138Z" fill="#E50914"/>
<path d="M26.735 3.91069C26.735 6.00941 25.0423 7.70809 22.9577 7.70809C20.8701 7.70809 19.1804 6.00642 19.1804 3.91069C19.1804 1.81196 20.873 0.113281 22.9577 0.113281C25.0423 0.113281 26.735 1.81196 26.735 3.91069Z" fill="#4E4E4D"/>
<path d="M25.8293 3.91079C25.8293 5.50498 24.5434 6.79765 22.9577 6.79765C21.3719 6.79765 20.0861 5.50498 20.0861 3.91079C20.0861 2.3166 21.3719 1.02393 22.9577 1.02393C24.5434 1.02393 25.8293 2.3166 25.8293 3.91079Z" fill="#6F6D6C"/>
<path d="M24.8701 3.91087C24.8701 4.97367 24.0119 5.83346 22.9577 5.83346C21.9005 5.83346 21.0453 4.97367 21.0453 3.91087C21.0453 2.84808 21.9005 1.98829 22.9577 1.98829C24.0148 1.9853 24.8701 2.84808 24.8701 3.91087Z" fill="#7F7D7C"/>
<path d="M23.3229 3.91066C23.3229 4.11367 23.1596 4.27786 22.9577 4.27786C22.7557 4.27786 22.5924 4.11367 22.5924 3.91066C22.5924 3.70765 22.7557 3.54346 22.9577 3.54346C23.1596 3.54346 23.3229 3.70765 23.3229 3.91066Z" fill="#A7A9AC"/>
<path d="M36 20.2825C36 20.4676 35.8515 20.6168 35.6674 20.6168H3.65257C3.46845 20.6168 3.31998 20.4676 3.31998 20.2825V19.6347C3.31998 19.4496 3.46845 19.3003 3.65257 19.3003H35.6674C35.8515 19.3003 36 19.4496 36 19.6347V20.2825Z" fill="#1B1619"/>
<path d="M6.75872 16.4821C6.78544 16.7031 6.82999 17.7539 6.96956 18.0256C7.40905 18.8854 7.63177 20.8916 7.22494 22.3395C6.88344 23.5545 6.67557 25.6413 6.67557 25.6413L5.25612 26.2563C5.25612 26.2563 5.03934 23.8441 4.79881 21.0886C4.6236 19.0794 4.30586 18.3898 4.27319 17.4643C4.38901 17.127 6.61618 16.2493 6.75872 16.4821Z" fill="#E4AE84"/>
<path d="M6.74386 24.7246C6.74386 24.7246 6.58053 26.1337 7.18335 26.9427C7.6763 27.6025 6.05195 28.2802 6.2034 28.6653C6.2034 28.6653 3.17148 28.943 2.92203 28.107C2.77059 27.6055 3.86338 26.6442 4.65032 26.7159C5.52634 26.7965 5.37786 25.0679 5.37786 25.0679L6.74386 24.7246Z" fill="#E4AE84"/>
<path d="M5.07199 26.3875L5.19374 25.9098C5.19374 25.9098 6.20933 26.1427 6.77652 25.877L6.95469 26.1994C6.95766 26.2024 6.36672 26.9666 5.07199 26.3875Z" fill="white"/>
<path d="M7.69412 28.1909C7.70897 28.4447 7.67927 28.6925 6.19746 28.7462C5.65997 28.7671 5.03339 28.7313 4.12471 28.8477C2.77653 29.0179 1.9599 28.8387 1.5204 28.6775C1.15811 28.5432 0.85225 28.4059 0.840372 28.3073C0.840372 28.2924 0.837402 28.2775 0.837402 28.2626C0.837402 28.3133 0.843341 28.3581 0.846311 28.3939C0.858189 28.4924 1.16405 28.6298 1.52634 28.7641C1.96584 28.9253 2.75574 29.0746 4.10986 28.9611C5.03636 28.8835 5.66591 28.8537 6.2034 28.8328C7.72976 28.7761 7.71491 28.5163 7.70006 28.2536C7.69709 28.2357 7.69412 28.2148 7.69412 28.1909Z" fill="#717375"/>
<path d="M7.3734 25.6654C7.31994 25.6475 7.26055 25.7042 7.21601 25.8176C7.14177 26.0087 7.17147 26.1908 7.17147 26.1968H7.1774C7.15959 26.2595 7.15068 26.3281 7.15662 26.4087L7.23086 26.4028C7.21601 26.2624 7.26352 26.1609 7.31994 26.0445C7.34667 25.9878 7.3734 25.9311 7.39418 25.8654C7.44763 25.7101 7.39715 25.6743 7.3734 25.6654ZM7.32885 25.8415C7.30807 25.9012 7.28134 25.9579 7.25758 26.0117C7.25461 26.0206 7.24867 26.0296 7.2457 26.0385C7.25164 25.9818 7.26055 25.9132 7.28728 25.8445C7.31103 25.7848 7.33479 25.7549 7.34667 25.743C7.34667 25.7579 7.3437 25.7908 7.32885 25.8415Z" fill="#0D0B42"/>
<path fill-rule="evenodd" clip-rule="evenodd" d="M6.32219 28.1967C6.01038 28.2176 5.75797 28.3012 5.30066 28.3908C4.84335 28.4803 4.15738 28.6027 3.61989 28.6326C3.0824 28.6595 2.31625 28.5998 1.99257 28.5699C1.44914 28.5132 0.905707 28.3042 0.899768 28.2953L0.855225 28.14C0.855225 28.14 0.899768 28.0146 1.00964 27.934C1.11952 27.8564 1.36302 27.7848 2.02523 27.5459C2.87156 27.2414 3.14476 27.1011 3.56346 26.7578C3.98217 26.4115 4.50185 26.092 4.65032 26.1279C4.7988 26.1637 5.06012 26.3309 5.57683 26.4801C6.59242 26.7697 6.06087 26.7936 6.78247 26.4951C7.10615 26.3607 7.10318 25.9547 7.13288 26.0413C7.13288 26.0413 7.12397 26.3667 7.31105 26.5996C7.53971 26.8862 7.62286 27.3698 7.58722 27.8863C7.26651 28.0863 6.62508 28.1758 6.32219 28.1967Z" fill="#252B67"/>
<path fill-rule="evenodd" clip-rule="evenodd" d="M5.30658 25.7427C5.19968 25.6054 5.20859 25.4532 5.0512 25.3427C4.96805 25.283 4.77206 25.3726 4.52559 25.8174C4.31178 26.2025 3.87228 26.513 3.87228 26.513L3.89604 26.51C3.31104 26.9727 2.7973 27.1847 2.7973 27.1847L2.85372 27.2951C3.49515 26.9548 4.06531 26.6115 4.4662 26.3607C4.6414 26.2921 4.92054 26.3846 5.02744 26.3189C5.35706 26.1249 5.37785 25.8323 5.30658 25.7427Z" fill="#0D0B42"/>
<path fill-rule="evenodd" clip-rule="evenodd" d="M0.962139 28.2029C0.991835 28.3283 1.08686 28.3641 1.14328 28.382C1.17001 28.391 1.19673 28.4 1.22643 28.4089H1.2294C1.2591 28.4179 1.28879 28.4268 1.31849 28.4358C1.35115 28.4447 1.38382 28.4537 1.41648 28.4626H1.41945C1.45212 28.4716 1.48478 28.4806 1.52042 28.4865C1.52339 28.4865 1.52636 28.4865 1.52933 28.4895C1.56496 28.4985 1.6006 28.5044 1.63623 28.5134C1.63623 28.5134 1.63623 28.5134 1.6392 28.5134C1.67483 28.5224 1.71344 28.5283 1.75204 28.5343C1.75501 28.5343 1.75798 28.5343 1.76095 28.5343C1.79659 28.5403 1.83222 28.5462 1.87083 28.5522C1.87379 28.5522 1.87676 28.5522 1.87973 28.5522C1.91834 28.5582 1.95694 28.5642 1.99555 28.5671C2.31923 28.6 3.08538 28.6597 3.6199 28.6298C4.15739 28.6 4.84633 28.4806 5.30067 28.388C5.65999 28.3134 7.29325 28.1462 7.61099 27.9432C7.61396 27.9014 7.58129 27.7432 7.58129 27.7014C7.54269 27.7342 7.35858 27.8865 7.29028 27.9253C6.82405 28.179 5.3363 28.2805 4.82554 28.385C4.31477 28.4895 3.19228 28.6806 1.71641 28.3373C1.71641 28.3373 1.06013 28.1402 1.51745 27.8895C1.9124 27.6745 2.85375 27.2924 2.85375 27.2924L2.8389 27.167C1.48478 27.8118 1.39273 27.5402 1.06607 27.773C1.01262 27.8118 0.861174 27.9611 0.867113 28.0895C0.893839 28.0895 0.944322 28.1253 0.962139 28.2029Z" fill="#E50914"/>
<path d="M7.59314 27.7398C7.6169 27.2592 7.52781 26.8681 7.31103 26.5964C7.29916 26.5845 7.29025 26.5696 7.28134 26.5576C7.21304 26.5725 7.1774 26.6293 7.2754 26.7845C7.44763 27.0562 7.51593 27.5816 7.53375 27.7727C7.5486 27.7577 7.57236 27.7488 7.59314 27.7398Z" fill="#252B67"/>
<path fill-rule="evenodd" clip-rule="evenodd" d="M2.77652 27.6027C2.77652 27.6027 3.07645 27.2027 2.6221 27.3191C2.45581 27.3609 1.08387 27.8774 1.20265 28.0953C1.27986 28.2386 1.24126 28.2505 1.54415 28.3789C1.84705 28.5043 3.25165 28.5879 2.99627 28.5282C2.43799 28.3968 2.52708 28.1669 2.86858 27.8595C3.21008 27.552 3.35558 27.4684 3.35558 27.4684L2.77652 27.6027Z" fill="#E50914"/>
<path d="M3.19522 27.5041C3.19522 27.5041 4.68 28.54 3.49515 28.552C3.49515 28.552 4.35038 28.5908 4.52558 28.4326C4.70079 28.2773 4.46322 27.7459 3.70895 27.2056L3.19522 27.5041Z" fill="#E50914"/>
<path d="M3.83368 27.0715C3.83368 27.0715 5.38379 28.2567 4.52559 28.4537C4.52559 28.4537 5.18483 28.4627 5.33628 28.2806C5.63917 27.9134 5.09871 27.3133 4.34444 26.7729L3.83368 27.0715Z" fill="#E50914"/>
<path d="M4.487 26.6894C4.487 26.6894 6.33407 28.0925 5.38084 28.3373C5.38084 28.3373 6.20638 28.3493 6.35782 28.1701C6.54788 27.9403 5.54416 27.0984 6.51521 26.6536C6.70823 26.564 5.17297 26.5551 4.88789 26.3521L4.487 26.6894Z" fill="#E50914"/>
<path fill-rule="evenodd" clip-rule="evenodd" d="M7.39717 26.728C7.37044 26.6803 7.34075 26.6385 7.30808 26.5967C7.30214 26.5877 7.29323 26.5788 7.28729 26.5698C7.17742 26.3011 7.18336 26.0593 7.18336 26.0593C7.17445 25.51 6.92501 25.8175 6.90422 25.9011C6.86265 26.0892 6.87155 26.5071 6.07868 26.4982C5.41647 26.4922 4.96213 26.2325 4.86116 26.1727C4.63547 26.0414 4.54342 26.0444 4.51372 26.0533C4.13956 26.2504 4.09501 26.3847 3.78024 26.6623C3.07051 27.1878 2.66665 27.352 2.51224 27.4326C2.51224 27.4326 2.73792 27.7102 3.0913 27.5968C3.10318 27.5938 3.11506 27.5878 3.12694 27.5848C3.13881 27.5789 3.15069 27.5759 3.16554 27.5699C3.16851 27.5699 3.17148 27.5669 3.17148 27.5669C3.18336 27.5609 3.19227 27.558 3.20415 27.552C3.21602 27.546 3.23087 27.5371 3.24572 27.5281C3.71194 27.2624 4.46324 26.725 4.64735 26.6146C4.83147 26.5041 5.22048 26.5519 5.49962 26.6295C6.31328 26.8564 6.42315 26.6206 6.93095 26.7668C7.10912 26.8176 7.34075 27.0325 7.51892 27.4774C7.52189 27.4833 7.48922 27.0713 7.49516 27.0743C7.49813 27.0743 7.2962 26.7967 7.2962 26.7967C7.30214 26.7967 7.30808 26.7967 7.31402 26.7967C7.31402 26.7967 7.31402 26.7967 7.31699 26.7967C7.32293 26.7937 7.33184 26.7937 7.33778 26.7877H7.34074C7.34668 26.7848 7.35262 26.7788 7.35856 26.7758C7.35856 26.7758 7.35856 26.7758 7.36153 26.7758C7.37638 26.7549 7.38529 26.743 7.39717 26.728Z" fill="#252B67"/>
<path fill-rule="evenodd" clip-rule="evenodd" d="M4.59687 26.2654C4.59984 26.3072 4.63547 26.34 4.67705 26.337C4.71862 26.334 4.75128 26.2982 4.74832 26.2564C4.74535 26.2146 4.70971 26.1818 4.66814 26.1848C4.62656 26.1877 4.5939 26.2236 4.59687 26.2654Z" fill="white"/>
<path fill-rule="evenodd" clip-rule="evenodd" d="M4.61171 26.2651C4.61468 26.298 4.6414 26.3248 4.67704 26.3218C4.7097 26.3189 4.73643 26.292 4.73346 26.2562C4.73049 26.2233 4.70376 26.1965 4.66813 26.1994C4.63546 26.2024 4.60874 26.2323 4.61171 26.2651Z" fill="white"/>
<path fill-rule="evenodd" clip-rule="evenodd" d="M4.63546 26.3308C4.63546 26.3308 4.27912 26.3606 4.21082 26.2173C4.21082 26.2173 4.21972 26.1248 4.27021 26.1606C4.41572 26.2591 4.46026 26.2113 4.66813 26.1994C4.66813 26.2024 4.75128 26.3009 4.63546 26.3308Z" fill="white"/>
<path fill-rule="evenodd" clip-rule="evenodd" d="M4.19895 26.6324C4.19598 26.6742 4.22864 26.71 4.27022 26.713C4.31179 26.716 4.34743 26.6831 4.3504 26.6413C4.35337 26.5995 4.3207 26.5637 4.27913 26.5607C4.23755 26.5578 4.20192 26.5906 4.19895 26.6324Z" fill="white"/>
<path fill-rule="evenodd" clip-rule="evenodd" d="M4.21678 26.6321C4.21381 26.665 4.24054 26.6948 4.2732 26.6978C4.30587 26.6978 4.33556 26.6739 4.33556 26.6381C4.33853 26.6053 4.3118 26.5754 4.27914 26.5754C4.24647 26.5724 4.21678 26.5993 4.21678 26.6321Z" fill="white"/>
<path fill-rule="evenodd" clip-rule="evenodd" d="M4.23457 26.6981C4.23457 26.6981 3.87822 26.6891 3.82477 26.5398C3.82477 26.5398 3.84259 26.4503 3.8901 26.4921C4.02373 26.6055 4.07421 26.5637 4.28208 26.5757C4.27911 26.5757 4.35038 26.6831 4.23457 26.6981Z" fill="white"/>
<path fill-rule="evenodd" clip-rule="evenodd" d="M3.78616 26.9341C3.78022 26.9759 3.80695 27.0147 3.84852 27.0237C3.8901 27.0297 3.9287 27.0028 3.93761 26.961C3.94355 26.9192 3.91682 26.8804 3.87525 26.8714C3.83368 26.8655 3.7921 26.8923 3.78616 26.9341Z" fill="white"/>
<path fill-rule="evenodd" clip-rule="evenodd" d="M3.80103 26.9373C3.79509 26.9701 3.81587 27.0029 3.85151 27.0089C3.88417 27.0149 3.91684 26.991 3.92278 26.9582C3.92872 26.9253 3.90496 26.8925 3.87229 26.8865C3.83963 26.8835 3.80696 26.9044 3.80103 26.9373Z" fill="white"/>
<path fill-rule="evenodd" clip-rule="evenodd" d="M3.81289 27.0056C3.81289 27.0056 3.4714 26.9579 3.43576 26.8056C3.43576 26.8056 3.46546 26.7191 3.50703 26.7668C3.62581 26.8952 3.67036 26.8534 3.87526 26.8922C3.87229 26.8862 3.93168 27.0027 3.81289 27.0056Z" fill="white"/>
<path fill-rule="evenodd" clip-rule="evenodd" d="M3.34371 27.1995C3.32886 27.2384 3.34965 27.2831 3.39122 27.2981C3.42983 27.313 3.47437 27.2921 3.48922 27.2503C3.50407 27.2115 3.48328 27.1667 3.44171 27.1518C3.4031 27.1369 3.35856 27.1578 3.34371 27.1995Z" fill="white"/>
<path fill-rule="evenodd" clip-rule="evenodd" d="M3.35855 27.2027C3.34667 27.2356 3.36449 27.2684 3.39418 27.2804C3.42685 27.2923 3.45951 27.2744 3.47139 27.2416C3.48327 27.2087 3.46545 27.1759 3.43576 27.1639C3.40606 27.155 3.37043 27.1729 3.35855 27.2027Z" fill="white"/>
<path fill-rule="evenodd" clip-rule="evenodd" d="M3.35559 27.2714C3.35559 27.2714 3.05566 27.1938 3.04675 27.0356C3.04675 27.0356 3.0913 26.955 3.12396 27.0087C3.21899 27.155 3.23977 27.0953 3.43577 27.1669C3.43577 27.1669 3.47437 27.2893 3.35559 27.2714Z" fill="white"/>
<path fill-rule="evenodd" clip-rule="evenodd" d="M4.41871 26.4416C4.42168 26.4834 4.45731 26.5163 4.49888 26.5133C4.54046 26.5103 4.57312 26.4745 4.57015 26.4327C4.56718 26.3909 4.53155 26.358 4.48998 26.361C4.4484 26.364 4.41574 26.3998 4.41871 26.4416Z" fill="white"/>
<path fill-rule="evenodd" clip-rule="evenodd" d="M4.43356 26.4414C4.43653 26.4742 4.46326 26.5011 4.49889 26.4981C4.53156 26.4951 4.55828 26.4683 4.55532 26.4324C4.55235 26.3996 4.52562 26.3727 4.48998 26.3757C4.45732 26.3787 4.43356 26.4086 4.43356 26.4414Z" fill="white"/>
<path fill-rule="evenodd" clip-rule="evenodd" d="M4.35038 26.1099C4.35038 26.1099 4.12172 26.1696 4.32068 26.3696C4.44541 26.495 4.48401 26.4711 4.49886 26.4412C4.51667 26.4084 4.54043 26.3935 4.4365 26.3368C4.31771 26.2681 4.30287 26.1218 4.35038 26.1099Z" fill="white"/>
<path fill-rule="evenodd" clip-rule="evenodd" d="M4.00592 26.7847C4.00296 26.8265 4.03562 26.8623 4.08016 26.8653C4.11877 26.8683 4.15737 26.8355 4.15737 26.7937C4.16034 26.7519 4.12768 26.7161 4.0861 26.7131C4.04453 26.7101 4.00592 26.7429 4.00592 26.7847Z" fill="white"/>
<path fill-rule="evenodd" clip-rule="evenodd" d="M4.02076 26.7879C4.01779 26.8237 4.04452 26.8506 4.07719 26.8506C4.10985 26.8536 4.13955 26.8267 4.13955 26.7939C4.14252 26.761 4.11579 26.7312 4.08016 26.7312C4.05046 26.7282 4.02373 26.7551 4.02076 26.7879Z" fill="white"/>
<path fill-rule="evenodd" clip-rule="evenodd" d="M3.97327 26.4326C3.97327 26.4326 3.73867 26.4804 3.91685 26.7043C4.02672 26.8446 4.06829 26.8237 4.08611 26.7968C4.1069 26.767 4.13065 26.755 4.0386 26.6864C3.92279 26.6028 3.92279 26.4416 3.97327 26.4326Z" fill="white"/>
<path fill-rule="evenodd" clip-rule="evenodd" d="M3.57535 27.0653C3.56941 27.1071 3.59613 27.1459 3.63771 27.1548C3.67928 27.1608 3.71789 27.1339 3.7268 27.0921C3.7357 27.0503 3.70601 27.0115 3.66443 27.0026C3.61989 26.9936 3.58129 27.0235 3.57535 27.0653Z" fill="white"/>
<path fill-rule="evenodd" clip-rule="evenodd" d="M3.59021 27.0683C3.58427 27.1011 3.60802 27.134 3.64069 27.1399C3.67336 27.1459 3.70602 27.122 3.71196 27.0892C3.7179 27.0563 3.69414 27.0235 3.66148 27.0175C3.62584 27.0115 3.59615 27.0354 3.59021 27.0683Z" fill="white"/>
<path fill-rule="evenodd" clip-rule="evenodd" d="M3.59613 26.731C3.59613 26.731 3.34966 26.731 3.49814 26.9728C3.59019 27.122 3.63474 27.1071 3.65553 27.0832C3.67928 27.0564 3.70601 27.0474 3.61989 26.9668C3.51596 26.8713 3.54268 26.7339 3.59613 26.731Z" fill="white"/>
<path fill-rule="evenodd" clip-rule="evenodd" d="M3.11208 27.2894C3.09724 27.3282 3.11802 27.373 3.1596 27.3879C3.1982 27.4028 3.24274 27.3819 3.25759 27.3402C3.27244 27.3013 3.25165 27.2566 3.21008 27.2416C3.17148 27.2297 3.12693 27.2506 3.11208 27.2894Z" fill="white"/>
<path fill-rule="evenodd" clip-rule="evenodd" d="M3.12692 27.2953C3.11504 27.3281 3.13286 27.361 3.16255 27.3729C3.19522 27.3848 3.22789 27.3669 3.23976 27.3341C3.25164 27.3012 3.23382 27.2684 3.20413 27.2565C3.17443 27.2475 3.1388 27.2624 3.12692 27.2953Z" fill="white"/>
<path fill-rule="evenodd" clip-rule="evenodd" d="M3.21899 26.9696C3.21899 26.9696 2.94876 26.9219 3.05269 27.1876C3.11802 27.3518 3.16554 27.3458 3.18929 27.3249C3.21602 27.301 3.24572 27.298 3.17445 27.2025C3.08833 27.0891 3.16851 26.9607 3.21899 26.9696Z" fill="white"/>
<path fill-rule="evenodd" clip-rule="evenodd" d="M4.36227 26.1579C4.36227 26.1579 5.06012 25.8384 4.82255 25.507C4.58499 25.1757 4.36524 25.928 4.34445 26.122L4.389 26.1101C4.389 26.1101 4.50184 25.6205 4.65032 25.5488C4.79879 25.4772 4.81067 25.6145 4.78098 25.6772C4.75425 25.7339 4.66813 25.916 4.46323 26.0862C4.45136 26.0952 4.389 26.0981 4.37712 26.1101C4.35336 26.122 4.38306 26.1429 4.36227 26.1579Z" fill="white"/>
<path fill-rule="evenodd" clip-rule="evenodd" d="M4.43056 26.0533C4.43056 26.0533 4.55231 25.5488 4.2999 25.3786C4.04748 25.2055 3.89307 25.3726 4.12766 25.7667C4.36226 26.1608 4.36226 26.1608 4.36226 26.1608L4.4068 26.11C4.4068 26.11 4.22269 25.8384 4.16627 25.6801C4.10984 25.5249 4.06233 25.3547 4.18111 25.4174C4.2999 25.4801 4.37711 25.5428 4.38898 25.7996C4.39492 25.9249 4.3682 26.0324 4.37117 26.0832C4.37414 26.1399 4.40977 26.1339 4.40977 26.1339L4.43056 26.0533Z" fill="white"/>
<path fill-rule="evenodd" clip-rule="evenodd" d="M4.32663 26.1338C4.32663 26.1338 4.25833 26.1785 4.06234 26.2114C3.86635 26.2442 3.7149 26.4532 3.7149 26.4681C3.71787 26.483 3.66442 26.495 3.66442 26.495C3.66442 26.495 3.62581 26.4681 3.65848 26.3845C3.68817 26.3039 3.75647 26.1487 4.04155 26.1397C4.32663 26.1308 4.40087 26.083 4.40087 26.083C4.40087 26.083 4.48105 26.1338 4.32663 26.1338Z" fill="#D1D3D4"/>
<path fill-rule="evenodd" clip-rule="evenodd" d="M4.42166 26.0771C4.42166 26.0771 4.18707 26.2384 4.04453 26.3011C3.90199 26.3667 3.73569 26.5488 3.65254 26.5638C3.56643 26.5757 3.59315 26.6444 3.59315 26.6444C3.59315 26.6444 3.64661 26.6772 3.8812 26.4712C4.1158 26.2652 4.23161 26.2622 4.31179 26.2055C4.39494 26.1428 4.43057 26.1339 4.42166 26.0771Z" fill="#D1D3D4"/>
<path d="M7.65553 27.9608C7.63177 27.9101 7.59317 27.7638 7.58129 27.7041C7.40311 27.7728 6.60133 28.1847 5.35412 28.3071C4.89086 28.3519 4.1455 28.4863 3.60801 28.5161C3.07052 28.543 2.34892 28.537 2.02524 28.5042C1.70452 28.4713 1.36599 28.3937 1.15516 28.3251C1.09873 28.3071 1.00668 28.2534 1.00074 28.1101C0.994799 27.9788 0.953226 27.8534 0.878987 27.9877C0.834443 28.0713 0.843352 28.2892 0.849291 28.3489C0.861169 28.4475 1.16703 28.5848 1.52932 28.7191C1.96882 28.8803 2.77357 29.0296 4.12472 28.9162C5.04825 28.8385 5.66889 28.8087 6.20638 28.7878C7.73273 28.7311 7.71789 28.4713 7.70304 28.2116C7.69116 28.1191 7.67037 27.9907 7.65553 27.9608Z" fill="#D3D5D6"/>
<path d="M7.30213 28.1429C7.30213 28.1429 6.36375 28.4384 5.95098 28.4623C5.30659 28.5011 5.71639 28.6205 6.38751 28.6444C7.51297 28.6892 7.71787 28.0951 7.30213 28.1429Z" fill="#ABADB0"/>
<path d="M3.24869 28.8804C3.24869 28.8804 2.10838 28.958 1.33035 28.5908C1.33035 28.5908 1.78173 28.6416 2.09353 28.6744C3.24572 28.8058 3.37935 28.5431 3.24869 28.8804Z" fill="#ABADB0"/>
</g>
<defs>
<clipPath id="clip0_158_4079">
<rect width="36" height="29" fill="white"/>
</clipPath>
</defs>
</svg>
