<svg width="33" height="23" viewBox="0 0 33 23" fill="none" xmlns="http://www.w3.org/2000/svg">
<g clip-path="url(#clip0_158_2684)">
<path d="M20.9695 6.29655C20.7122 6.14331 20.57 6.19677 20.4142 5.9188C20.1602 5.45196 18.8566 4.06212 18.0508 3.49906C17.2449 2.936 16.5338 2.31592 16.5338 2.31592L16.0835 2.96451C16.0835 2.96451 16.6083 3.69506 17.4176 4.82475C18.2268 5.95444 19.0429 6.61015 19.7201 6.95583C19.9706 7.06274 21.044 6.49612 20.9695 6.29655Z" fill="#D1A07A"/>
<path d="M20.0553 6.48213C20.1162 6.57479 20.4582 6.04736 20.4582 6.04736C20.4582 6.04736 23.0011 7.21981 23.3397 7.88622C23.3397 7.88622 24.9379 8.61678 25.3679 9.19053C27.1794 10.0779 27.0982 11.3893 26.3058 12.2375C25.5609 13.0357 24.4165 12.4014 23.6478 11.4036C22.7302 10.2133 22.4966 10.0423 21.9785 9.68232C21.281 9.19766 19.4966 6.98105 19.2934 6.67814C19.6117 6.26118 19.5779 6.66744 20.0553 6.48213Z" fill="#D1A07A"/>
<g opacity="0.26">
<path d="M23.3499 10.6979C23.2314 10.452 23.0993 10.2168 22.9706 9.98158C22.9063 9.86398 22.842 9.74638 22.781 9.62521C22.7201 9.50405 22.6591 9.38645 22.6016 9.26172C22.6253 9.39714 22.6693 9.529 22.7201 9.65729C22.7709 9.78558 22.8318 9.90674 22.8961 10.0279C22.9605 10.1455 23.0316 10.2631 23.1061 10.3772C23.1806 10.4841 23.2618 10.5945 23.3499 10.6979Z" fill="#D1A07A"/>
<path d="M20.3939 7.90057C20.4108 7.80435 20.4108 7.71525 20.4142 7.62616V7.49431C20.4142 7.45154 20.4142 7.40878 20.4176 7.35889C20.3837 7.39096 20.36 7.43729 20.3465 7.48362C20.3329 7.52994 20.3296 7.57627 20.3296 7.62616C20.3296 7.67249 20.3329 7.71882 20.3431 7.76515C20.3566 7.81504 20.3702 7.8578 20.3939 7.90057Z" fill="#D1A07A"/>
</g>
<path d="M16.588 2.40881C16.588 2.40881 16.4424 2.04888 15.3758 1.16509L14.2077 0.056781C14.1196 -0.0251837 13.9842 -0.0180563 13.9029 0.0710357C13.825 0.163691 13.8318 0.306239 13.9198 0.391767L13.9706 0.441659C13.9639 0.509368 13.9876 0.584206 14.0417 0.634097L15.2946 1.82437C15.325 1.86357 15.298 1.85644 15.1354 1.73527L15.1456 1.75666L14.9729 1.6248C14.8747 1.55353 14.7426 1.57491 14.6715 1.67826C14.6038 1.7816 14.6241 1.92059 14.7223 1.99186L16.1445 3.07522C16.2054 3.13224 16.263 3.19282 16.307 3.25697C16.4492 3.47079 16.8081 3.13937 16.8081 3.13937L16.588 2.40881Z" fill="#D1A07A"/>
<path d="M18.5485 15.245C18.6196 15.4125 18.6129 14.7283 18.7009 14.8886C18.921 15.2913 19.1174 15.7118 19.3205 16.1252C19.7032 16.9021 20.1162 17.6647 20.658 18.3311C21.1185 17.6719 21.6332 16.9805 23.1061 16.143C25.6625 14.6891 26.8104 13.9336 27.8871 11.0897C28.1377 10.4269 26.6241 9.50391 26.6241 9.50391C26.6241 9.50391 26.1399 9.61082 25.2562 9.63933C23.4752 9.69634 22.2427 10.4804 21.9853 11.4354C21.8533 11.9272 20.7562 13.7768 20.2449 14.1688C19.5237 14.7104 19.0395 14.8352 18.5485 15.245Z" fill="#E4AE84"/>
<g opacity="0.26">
<path d="M20.5869 14.2187C20.4989 14.1653 20.4176 14.1083 20.3465 14.0406C20.2754 13.9728 20.2178 13.8944 20.1671 13.8054C20.1196 13.7163 20.0824 13.6129 20.0485 13.5024C20.0181 13.6129 20.0181 13.7376 20.0519 13.8552C20.0858 13.9728 20.1501 14.0798 20.2382 14.1653C20.3228 14.2473 20.4278 14.3078 20.5361 14.3435C20.6445 14.3755 20.7562 14.3898 20.868 14.372C20.7698 14.3185 20.675 14.2722 20.5869 14.2187Z" fill="white"/>
<path d="M20.333 14.7142C20.2415 14.6679 20.1603 14.6251 20.0824 14.5753C20.0045 14.5289 19.9334 14.4755 19.8725 14.4149C19.8115 14.3543 19.7573 14.2866 19.7133 14.2082C19.6693 14.1298 19.6354 14.0407 19.6016 13.9409C19.5711 14.0407 19.5711 14.1547 19.5982 14.2581C19.6253 14.365 19.6862 14.4648 19.7641 14.5396C19.842 14.6145 19.9368 14.6679 20.035 14.6964C20.1298 14.7249 20.2348 14.7392 20.333 14.7142Z" fill="white"/>
<path d="M19.3409 14.8282C19.2968 14.7854 19.2596 14.7427 19.2257 14.6892C19.1919 14.6358 19.1614 14.5752 19.1275 14.5039C19.0971 14.5752 19.0903 14.6607 19.1106 14.7391C19.1309 14.8211 19.1749 14.8959 19.2325 14.9494C19.2901 15.0064 19.3612 15.0456 19.4357 15.0634C19.5068 15.0812 19.5847 15.0848 19.6591 15.0598C19.5948 15.0171 19.5372 14.9814 19.4865 14.9422C19.4289 14.9102 19.3815 14.871 19.3409 14.8282Z" fill="white"/>
<path d="M24.5993 13.5844C24.6467 13.5416 24.6941 13.506 24.7449 13.4668C24.833 13.4027 24.9278 13.3456 25.026 13.2922C24.9345 13.2744 24.8431 13.2601 24.7551 13.2566C24.7178 13.2779 24.684 13.2993 24.6501 13.3207C24.5959 13.3563 24.5418 13.3955 24.491 13.4383C24.4402 13.4811 24.3894 13.531 24.3488 13.5666C24.2573 13.6414 24.1558 13.6984 24.0406 13.7234C23.9255 13.7483 23.8036 13.7448 23.6783 13.7163C23.4312 13.6628 23.184 13.5167 22.9673 13.3314C22.7472 13.1461 22.5542 12.9216 22.3917 12.6721C22.2325 12.4227 22.1038 12.1482 22.0497 11.8632C22.0192 11.7206 22.0124 11.5781 22.026 11.4391C22.0429 11.3001 22.0835 11.1682 22.1479 11.0542C22.0666 11.1575 22.009 11.2823 21.9786 11.4248C21.9481 11.5638 21.9481 11.717 21.965 11.8703C22.0056 12.1732 22.1242 12.4761 22.2833 12.7469C22.4424 13.0178 22.6456 13.2637 22.8792 13.4704C23.1129 13.6735 23.3804 13.8374 23.6682 13.9051C23.8104 13.9372 23.9594 13.9408 24.0948 13.9051C24.2303 13.8731 24.3555 13.8054 24.4571 13.7127C24.5147 13.6699 24.5519 13.6272 24.5993 13.5844Z" fill="white"/>
<path d="M21.6298 14.4004C21.6569 14.5002 21.684 14.5999 21.7348 14.6855C21.7145 14.5857 21.7111 14.4859 21.7043 14.3861C21.6975 14.2863 21.6975 14.1866 21.6975 14.0868C21.6975 13.8872 21.7009 13.6912 21.7077 13.4916C21.7144 13.2885 21.7077 13.0818 21.6704 12.8787C21.6535 12.7789 21.6264 12.6756 21.5926 12.5793C21.5722 12.533 21.5519 12.4831 21.5282 12.4404C21.5011 12.3976 21.474 12.3513 21.4334 12.3228C21.4605 12.3655 21.474 12.4118 21.4876 12.4617C21.5011 12.5081 21.5113 12.558 21.5181 12.6043C21.535 12.7005 21.5418 12.7967 21.5485 12.8965C21.5587 13.0925 21.5553 13.2885 21.5485 13.4881C21.5418 13.6912 21.5485 13.8943 21.5722 14.0975C21.5892 14.2008 21.6061 14.3006 21.6298 14.4004Z" fill="white"/>
<path d="M22.3002 13.7267C22.246 13.6376 22.2054 13.5343 22.1614 13.4238C22.1377 13.5414 22.1479 13.6662 22.1885 13.7802C22.2257 13.8978 22.2935 14.0047 22.3781 14.0902C22.4628 14.1793 22.5609 14.2435 22.6693 14.2862C22.7776 14.329 22.8894 14.3539 23.0045 14.3433C22.9063 14.2862 22.8149 14.2292 22.7269 14.1686C22.6422 14.1081 22.5609 14.0403 22.4898 13.9691C22.4153 13.9014 22.351 13.8194 22.3002 13.7267Z" fill="white"/>
</g>
<path d="M27.1388 9.00146C27.1388 9.00146 26.5937 9.75697 25.974 9.675C25.3544 9.59304 27.3318 11.7598 27.535 11.5958C27.7381 11.4319 28.6219 10.5624 29.0519 10.459C29.0519 10.4626 27.7415 9.88882 27.1388 9.00146Z" fill="#E4AE84"/>
<path d="M31.0903 9.74308C30.0034 10.6091 29.5056 11.3111 28.097 10.0424C27.5925 9.58628 26.8916 8.98045 26.6411 8.71674C26.2178 8.27128 26.6478 7.62269 27.7076 6.41104C28.5575 5.43816 29.9729 4.86084 29.9729 4.86084C30.7415 4.86797 31.4932 5.97627 31.9537 6.6213C32.807 7.808 32.3837 8.71318 31.0903 9.74308Z" fill="#E4AE84"/>
<path d="M28.8318 5.55176C28.8318 5.55176 27.5485 6.34646 27.4165 6.3821C27.2844 6.41773 27.0846 6.51395 27.3183 6.83112C27.5621 7.15898 27.7483 7.13403 27.7483 7.13403L28.8318 5.55176Z" fill="#E4AE84"/>
<path d="M29.5158 8.25703C29.5158 8.25703 28.2664 9.14795 27.5892 8.54925C27.5248 8.49223 27.3454 8.57419 27.2539 8.5635C26.5497 8.48154 26.6986 7.83651 26.6986 7.83651L26.6546 7.78662C26.5598 7.92204 26.5429 7.9755 26.509 8.06102C26.421 8.27128 26.3668 8.38888 26.4718 8.50292C27.5418 9.81792 28.2867 9.79297 28.5 9.73595C28.8555 9.63974 30.0677 7.95411 29.5158 8.25703Z" fill="white"/>
<path d="M27.8329 7.76159C27.623 7.50501 27.2946 6.96333 27.0914 7.08093C26.9966 7.14151 26.939 7.29119 26.956 7.32682C27.0169 7.41592 27.298 7.69745 27.3995 7.7901C27.5621 7.94334 27.4943 8.21774 27.2472 8.41375C27 8.60975 27.1185 8.62757 26.9424 8.51353C26.7663 8.39949 26.8679 8.6739 26.8679 8.6739L27.2878 8.77368C27.2878 8.76655 28.158 8.16073 27.8329 7.76159Z" fill="white"/>
<path d="M28.263 9.14764C28.263 9.14764 28.3916 9.14408 28.5406 9.10844C28.5779 9.09419 28.6016 9.0835 28.6016 9.0835C28.3781 9.13695 28.263 9.14764 28.263 9.14764Z" fill="white"/>
<path d="M31.2088 8.02497C31.3442 7.90024 31.4492 7.75769 31.5406 7.61871C31.6557 7.44052 31.7133 7.00575 31.7878 6.74204C31.7979 6.70997 31.8115 6.68146 31.8183 6.64939C31.8352 6.61019 31.842 6.56742 31.8487 6.52466C31.8792 6.34291 31.8657 6.13622 31.7742 5.8832C31.7675 5.86181 31.7573 5.84043 31.7505 5.81905C31.7438 5.78341 31.7404 5.74778 31.737 5.7157C31.7201 5.56959 31.6659 5.43773 31.5982 5.29875C31.5305 5.0386 31.4797 4.81053 31.4018 4.61096C31.3036 4.4898 31.1817 4.39001 31.0395 4.32943C30.9108 4.27597 30.7754 4.25103 30.6399 4.24747C30.4909 4.2439 30.3386 4.23677 30.1998 4.29379C30.0643 4.35081 29.939 4.43278 29.8239 4.529C29.6919 4.63947 29.6106 4.77845 29.4955 4.90675C29.4007 5.01366 29.2686 5.06355 29.2077 5.20253C29.1941 5.23817 29.1772 5.28093 29.1636 5.32726C29.1738 5.37715 29.1907 5.43773 29.211 5.50544C29.2889 5.77272 29.3973 5.79767 29.5869 5.8725C29.6444 5.91527 29.7054 5.95447 29.7731 5.99011C29.8815 6.04356 29.9864 6.10771 30.0812 6.17542C31.1072 7.25521 29.1772 8.44192 28.9334 8.57734C28.693 8.71276 28.4864 8.98716 28.8149 8.83036C28.8352 8.81967 28.8149 8.93371 28.9571 8.84461C28.9571 8.84105 28.9605 8.83749 28.9571 8.84461C28.8792 8.99429 28.6998 9.06913 28.5406 9.10833C28.4526 9.14396 28.3036 9.20098 28.3036 9.20098C28.3036 9.20098 28.7675 9.15822 29.1772 9.05844C29.5022 8.97647 30.4131 8.5417 30.7686 8.32788C31.009 8.22453 31.1275 8.14613 31.2088 8.02497Z" fill="white"/>
<path d="M31.3984 4.60742C31.3984 4.60742 31.7472 4.90677 31.9639 5.32372C32.1806 5.74067 32.2957 5.65514 32.4752 5.9046C32.6546 6.15406 32.8544 6.64941 32.9221 6.9844C33.1727 8.20318 32.7393 8.53103 32.6411 8.81257C32.5429 9.09053 32.2923 9.63578 32.0147 9.74269C31.737 9.8496 31.6151 9.83178 31.3544 10.1525C31.0937 10.4732 31.1072 10.32 30.7856 10.4055C30.4639 10.4875 30.5316 10.5623 30.2641 10.6479C29.9966 10.7298 30.0339 10.826 29.8138 10.7762C29.5903 10.7263 29.614 10.8082 29.4515 10.8082C29.2889 10.8082 29.2856 10.8759 29.123 10.7797C28.9571 10.6835 28.1919 10.434 28.2562 9.82109C28.3341 9.06915 28.6795 9.13686 28.6998 9.05846C28.7167 8.98006 29.6512 8.49896 29.6512 8.49896C29.6512 8.49896 30.3183 8.21387 30.3657 8.14616C30.4131 8.07845 30.816 7.80404 30.921 7.57597C31.0293 7.34789 31.2291 5.84046 31.2257 5.77987C31.2224 5.71216 31.3984 4.60742 31.3984 4.60742Z" fill="white"/>
<path d="M27.6366 12.2623C27.6975 11.9309 27.2472 10.9722 27.0508 10.7299C27.0542 10.7156 26.9052 10.5553 26.8408 10.4983C26.3736 9.99577 24.5519 9.68217 24.237 9.74988C23.0079 10.01 22.1851 10.6657 21.9785 11.4248C21.8465 11.9166 20.3668 13.1354 19.8995 13.588C19.4492 14.0263 17.5327 14.8923 17.3431 14.9707C16.7743 15.6121 16.0835 17.2158 16.4323 17.6185C16.8725 18.3704 18.3454 19.4965 18.3454 19.4965C18.8668 19.468 22.3849 18.8301 23.895 17.5722C27.4232 14.6286 27.342 13.8588 27.6366 12.2623ZM23.3702 13.2316C22.6253 12.0485 25.0293 9.88174 26.6004 11.0863C27.6129 12.3941 25.1546 14.9921 23.3702 13.2316Z" fill="#E50914"/>
<path d="M20.8036 6.88493C20.5463 6.73169 20.4041 6.78515 20.2517 6.50718C19.9944 6.0439 18.6941 4.65406 17.8883 4.08744C17.0824 3.52438 16.3713 2.9043 16.3713 2.9043L15.9142 3.55289C15.9142 3.55289 16.439 4.28344 17.2483 5.41313C18.0576 6.54282 18.8736 7.19853 19.5508 7.54421C19.8047 7.65112 20.8781 7.0845 20.8036 6.88493Z" fill="#E4AE84"/>
<path d="M19.8894 7.07002C19.9503 7.16268 20.2923 6.63525 20.2923 6.63525C20.2923 6.63525 22.8352 7.8077 23.1738 8.47411C23.1738 8.47411 24.772 9.20467 25.202 9.77842C27.0135 10.6658 26.9323 11.9772 26.1399 12.8254C25.395 13.6236 24.2506 12.9893 23.4819 11.9915C22.5643 10.8012 22.3307 10.6301 21.8126 10.2702C21.1151 9.78555 19.3307 7.56894 19.1275 7.26602C19.4458 6.84907 19.412 7.25177 19.8894 7.07002Z" fill="#E4AE84"/>
<g opacity="0.26">
<path d="M23.1806 11.2858C23.062 11.0399 22.93 10.8047 22.8013 10.5695C22.737 10.4519 22.6727 10.3343 22.6117 10.2131C22.5508 10.0919 22.4898 9.97434 22.4323 9.84961C22.456 9.98503 22.5 10.1169 22.5508 10.2452C22.6016 10.3735 22.6625 10.4946 22.7268 10.6158C22.7912 10.7334 22.8623 10.851 22.9368 10.965C23.0146 11.072 23.0925 11.1824 23.1806 11.2858Z" fill="white"/>
<path d="M20.228 8.48846C20.2449 8.39224 20.2449 8.30315 20.2483 8.21405V8.0822C20.2483 8.03943 20.2483 7.99311 20.2517 7.94678C20.2178 7.97885 20.1941 8.02518 20.1806 8.07151C20.167 8.11783 20.1636 8.16416 20.1602 8.21405C20.1602 8.26038 20.1636 8.30671 20.1738 8.35304C20.1907 8.39937 20.2043 8.44569 20.228 8.48846Z" fill="white"/>
</g>
<path d="M16.4221 2.99679C16.4221 2.99679 16.2765 2.63686 15.2099 1.75307L14.0417 0.644762C13.9537 0.559234 13.8183 0.569925 13.737 0.662581C13.6557 0.755236 13.6659 0.897784 13.7539 0.983312L13.8047 1.0332C13.798 1.10091 13.8217 1.17575 13.8758 1.22564L15.1287 2.41591C15.1591 2.45511 15.132 2.44442 14.9695 2.32682L14.9797 2.3482L14.8104 2.21635C14.7122 2.14507 14.5801 2.16645 14.509 2.2698C14.4413 2.37315 14.4616 2.51213 14.5598 2.58697L15.9819 3.67033C16.0429 3.72735 16.1004 3.78793 16.1445 3.85208C16.2867 4.0659 16.6456 3.73447 16.6456 3.73447L16.4221 2.99679Z" fill="#E4AE84"/>
<path d="M27.8363 11.3359C27.8363 11.3359 27.2979 12.209 27.2235 12.4656C27.149 12.7186 25.7268 14.276 25.7268 14.276L26.8273 13.6808C26.8273 13.6773 27.7652 12.3552 27.8363 11.3359Z" fill="#E6E7E8"/>
<path d="M10.3578 12.476C10.2122 12.1303 12.0609 11.1539 12.5079 11.6278C13.3205 12.6791 18.2201 17.5115 17.2449 19.0653C15.6129 21.7344 13.8962 19.2078 14.1975 19.5285C15.6806 21.1144 11.421 15.3804 10.9097 14.3719C10.6287 13.8159 10.5406 13.0854 10.3578 12.476Z" fill="#D1A07A"/>
<path d="M12.6704 11.2609C12.6704 11.2609 11.7122 9.95656 11.0248 9.57881C10.3375 9.19749 10.1919 9.40062 9.77201 9.52535C9.22686 9.68572 8.64447 10.9544 8.64447 10.9544C8.64447 10.9544 10.8995 10.6729 10.9402 10.6835C10.9808 10.6942 12.6704 11.2609 12.6704 11.2609Z" fill="#D1A07A"/>
<path d="M10.974 11.5711C10.8724 11.7635 9.85664 13.6772 9.80924 13.9801C9.66703 14.9316 8.71895 16.6814 7.59479 17.6115C6.65348 18.3919 5.32617 19.9493 5.32617 19.9493L3.8905 19.6072C3.8905 19.6072 5.07222 17.5331 6.42662 15.1668C7.41533 13.442 7.97741 11.9844 8.465 11.2183C8.74265 11.0187 10.9943 11.3002 10.974 11.5711Z" fill="#D1A07A"/>
<path d="M8.90518 10.605C8.72911 10.2735 10.4797 9.11177 10.9673 9.54298C11.8713 10.5052 17.1941 14.8137 16.3679 16.4636C16.3679 16.4636 15.474 19.8491 13.2664 17.9105C11.6445 16.485 10.2325 13.3918 9.63317 12.4402C9.29457 11.9128 9.1422 11.193 8.90518 10.605Z" fill="#D1A07A"/>
<path d="M3.88376 19.5145L4.54064 18.4668C4.54064 18.4668 5.06547 19.4646 5.6648 19.5965L5.25509 20.1239C5.25848 20.1239 4.82507 20.5801 3.88376 19.5145Z" fill="white"/>
<path d="M12.1964 11.0079C12.1964 11.0079 11.4684 10.3522 10.781 9.9709C10.0937 9.58958 9.94807 9.79271 9.5282 9.91744C8.98306 10.0778 8.40067 11.3465 8.40067 11.3465C8.40067 11.3465 10.6557 11.0649 10.6964 11.0756C10.737 11.0863 12.1964 11.0079 12.1964 11.0079Z" fill="#D1A07A"/>
<path d="M6.53837 21.5957C6.54853 21.8487 6.52144 22.0946 5.10609 22.1409C4.59481 22.1588 3.99548 22.1196 3.12867 22.23C1.84537 22.3904 1.06659 22.2087 0.646725 22.0412C0.301353 21.9057 0.0101566 21.7632 -1.44658e-06 21.667C-1.44658e-06 21.6527 -1.44658e-06 21.6385 -0.00338745 21.6242C-0.00338745 21.6741 -1.44658e-06 21.7204 0.00338456 21.7561C0.0135426 21.8523 0.304739 21.9948 0.650111 22.1303C1.06659 22.2942 1.82167 22.451 3.11174 22.3441C3.99548 22.2728 4.59819 22.2443 5.10948 22.23C6.56546 22.1837 6.55192 21.9236 6.53837 21.6634C6.53837 21.6385 6.53837 21.6171 6.53837 21.5957Z" fill="#717375"/>
<path d="M6.24718 19.0691C6.19639 19.0513 6.13883 19.1083 6.09481 19.2188C6.0237 19.4113 6.05079 19.5894 6.05079 19.6001H6.05756C6.04063 19.6643 6.03047 19.732 6.03725 19.8104L6.10835 19.8033C6.09481 19.6607 6.14221 19.5609 6.19639 19.4469C6.22348 19.3899 6.24718 19.3328 6.2675 19.2687C6.31829 19.1155 6.27088 19.0763 6.24718 19.0691ZM6.20316 19.2438C6.18285 19.3043 6.15914 19.3578 6.13206 19.4113C6.12867 19.4219 6.12528 19.4291 6.11851 19.4398C6.1219 19.3827 6.13544 19.315 6.15914 19.2473C6.18285 19.1867 6.20316 19.1582 6.21671 19.1475C6.22009 19.1618 6.22009 19.1939 6.20316 19.2438Z" fill="#0D0B42"/>
<path fill-rule="evenodd" clip-rule="evenodd" d="M5.228 21.5884C4.93003 21.6063 4.68962 21.6882 4.25283 21.7738C3.81603 21.8593 3.15915 21.9804 2.64786 22.0054C2.13657 22.0303 1.4052 21.9662 1.09707 21.9306C0.579013 21.8735 0.0643399 21.6597 0.0541819 21.649L0.0135498 21.4958C0.0135498 21.4958 0.0541819 21.3711 0.159148 21.2927C0.264114 21.2143 0.497748 21.1465 1.13093 20.9113C1.94019 20.612 2.20091 20.4766 2.60384 20.1345C3.00339 19.7923 3.50113 19.4752 3.64335 19.5144C3.78556 19.5536 4.03274 19.7211 4.52709 19.8707C5.49549 20.1665 4.98759 20.1879 5.67495 19.8921C5.98646 19.7567 5.98308 19.354 6.01355 19.4395C6.01355 19.4395 6.00339 19.7638 6.17946 19.9955C6.39617 20.2841 6.47405 20.7652 6.43341 21.282C6.12867 21.4887 5.51919 21.5706 5.228 21.5884Z" fill="#E50914"/>
<path fill-rule="evenodd" clip-rule="evenodd" d="M4.27653 19.1331C4.17495 18.9941 4.18511 18.8444 4.03612 18.7304C3.95825 18.6698 3.76863 18.7589 3.53161 19.2008C3.32506 19.5821 2.90181 19.8886 2.90181 19.8886L2.92551 19.885C2.36344 20.3447 1.87247 20.5514 1.87247 20.5514L1.92326 20.6619C2.53612 20.3269 3.08466 19.9848 3.46728 19.7389C3.63658 19.6712 3.90068 19.7638 4.00226 19.7032C4.32055 19.5144 4.34425 19.2221 4.27653 19.1331Z" fill="#0D0B42"/>
<path fill-rule="evenodd" clip-rule="evenodd" d="M0.115122 21.5636C0.14221 21.6883 0.233632 21.724 0.287808 21.7418C0.31151 21.7489 0.338598 21.7596 0.365686 21.7667H0.369072C0.39616 21.7739 0.426634 21.7845 0.453722 21.7917C0.484196 21.7988 0.51467 21.8095 0.54853 21.8202H0.551916C0.58239 21.8273 0.61625 21.838 0.646724 21.8451C0.65011 21.8451 0.65011 21.8451 0.653496 21.8487C0.687356 21.8558 0.721216 21.8665 0.755076 21.8736C0.755076 21.8736 0.755076 21.8736 0.758462 21.8736C0.792322 21.8808 0.829568 21.8879 0.866814 21.895C0.870201 21.895 0.870201 21.895 0.873587 21.895C0.907447 21.9021 0.941307 21.9093 0.978553 21.9128C0.981939 21.9128 0.985325 21.9128 0.988711 21.9128C1.02596 21.92 1.0632 21.9235 1.10045 21.9271C1.40858 21.9627 2.13995 22.0269 2.65124 22.0019C3.16253 21.977 3.81941 21.8629 4.25621 21.7703C4.60158 21.699 6.15575 21.5422 6.46388 21.3426C6.46727 21.2999 6.43679 21.1431 6.43679 21.1003C6.39955 21.1324 6.22347 21.2821 6.15575 21.3213C5.7088 21.5707 4.29007 21.6634 3.80248 21.7667C3.31151 21.8665 2.24153 22.0483 0.83634 21.699C0.83634 21.699 0.213316 21.4959 0.646724 21.25C1.02596 21.0362 1.92663 20.662 1.92663 20.662L1.91648 20.5337C0.623022 21.168 0.534986 20.8972 0.220088 21.1288C0.169298 21.168 0.0236994 21.3141 0.0304714 21.4424C0.0507875 21.4496 0.0981915 21.4816 0.115122 21.5636Z" fill="#E50914"/>
<path d="M6.44356 21.1431C6.47065 20.662 6.386 20.2736 6.17945 19.9992C6.1693 19.9849 6.15914 19.9742 6.15237 19.96C6.08465 19.9742 6.05417 20.0312 6.14559 20.188C6.31151 20.4624 6.37246 20.9863 6.386 21.1752C6.40293 21.1609 6.42325 21.1538 6.44356 21.1431Z" fill="#E50914"/>
<path fill-rule="evenodd" clip-rule="evenodd" d="M1.85215 20.972C1.85215 20.972 2.13996 20.5765 1.70655 20.687C1.54741 20.7297 0.237022 21.2322 0.34876 21.4531C0.419866 21.5957 0.38262 21.6099 0.670431 21.7382C0.958241 21.8665 2.2991 21.9592 2.05531 21.895C1.5237 21.7596 1.61174 21.5315 1.9368 21.2286C2.26524 20.9222 2.40406 20.8402 2.40406 20.8402L1.85215 20.972Z" fill="#E50914"/>
<path d="M2.25168 20.8791C2.25168 20.8791 3.66026 21.9233 2.52933 21.9269C2.52933 21.9269 3.34536 21.9696 3.51127 21.8164C3.68057 21.6631 3.4571 21.1286 2.73926 20.5869L2.25168 20.8791Z" fill="#E50914"/>
<path d="M2.86456 20.4514C2.86456 20.4514 4.33409 21.6452 3.51468 21.8377C3.51468 21.8377 4.14447 21.8484 4.29007 21.6702C4.58127 21.3067 4.06998 20.7009 3.35215 20.1592L2.86456 20.4514Z" fill="#E50914"/>
<path d="M3.48758 20.0738C3.48758 20.0738 5.23814 21.485 4.33069 21.7273C4.33069 21.7273 5.11625 21.7451 5.26185 21.5634C5.44469 21.3353 4.49322 20.4871 5.42099 20.0488C5.60722 19.9633 4.14108 19.9419 3.87358 19.7388L3.48758 20.0738Z" fill="#E50914"/>
<path fill-rule="evenodd" clip-rule="evenodd" d="M6.26412 20.131C6.24042 20.0846 6.20995 20.0419 6.17947 19.9991C6.1727 19.9884 6.16593 19.9813 6.15916 19.9706C6.05419 19.7033 6.06435 19.461 6.06435 19.461C6.06096 18.9122 5.82055 19.2187 5.80024 19.3042C5.75961 19.4895 5.76638 19.91 5.00791 19.8922C4.37812 19.8815 3.94471 19.6214 3.84651 19.5608C3.6332 19.4289 3.54177 19.4325 3.51469 19.4396C3.15916 19.6321 3.11514 19.7675 2.81378 20.0419C2.1332 20.5622 1.74719 20.7225 1.60159 20.8009C1.60159 20.8009 1.81491 21.0789 2.15351 20.9684C2.16367 20.9649 2.17721 20.9613 2.18737 20.9577C2.20092 20.9542 2.21107 20.9471 2.22462 20.9435C2.228 20.9435 2.228 20.9399 2.23139 20.9399C2.24155 20.9364 2.25171 20.9292 2.26186 20.9257C2.27541 20.9185 2.28895 20.9114 2.3025 20.9043C2.74945 20.6406 3.46728 20.1096 3.64335 19.9991C3.81943 19.8886 4.1885 19.9385 4.456 20.0205C5.23139 20.2521 5.33636 20.0169 5.82056 20.1666C5.98986 20.2165 6.20656 20.4339 6.37586 20.8793C6.37925 20.8865 6.34877 20.4766 6.35554 20.4766C6.35554 20.4766 6.16593 20.1951 6.16931 20.1951C6.17608 20.1951 6.17947 20.1951 6.18624 20.1951H6.18963C6.1964 20.1951 6.20317 20.1916 6.20995 20.188C6.20995 20.188 6.20995 20.188 6.21333 20.188C6.2201 20.1844 6.22688 20.1809 6.23026 20.1737C6.23026 20.1737 6.23026 20.1737 6.23365 20.1737C6.24381 20.1559 6.25396 20.1452 6.26412 20.131Z" fill="#E50914"/>
<path fill-rule="evenodd" clip-rule="evenodd" d="M3.59593 19.6535C3.59932 19.6963 3.63318 19.7284 3.67381 19.7248C3.71444 19.7212 3.74491 19.6856 3.74153 19.6428C3.73814 19.6001 3.70428 19.568 3.66365 19.5716C3.62302 19.5716 3.59254 19.6108 3.59593 19.6535Z" fill="white"/>
<path fill-rule="evenodd" clip-rule="evenodd" d="M3.60947 19.6499C3.60947 19.682 3.63994 19.7105 3.67041 19.7069C3.70427 19.7069 3.72798 19.6784 3.72459 19.6428C3.72459 19.6107 3.69412 19.5822 3.66364 19.5858C3.63317 19.5893 3.60947 19.6178 3.60947 19.6499Z" fill="black"/>
<path fill-rule="evenodd" clip-rule="evenodd" d="M3.63316 19.7139C3.63316 19.7139 3.29456 19.7388 3.22684 19.5998C3.22684 19.5998 3.23361 19.5072 3.2844 19.5428C3.42323 19.6426 3.46724 19.5927 3.66363 19.5856C3.66363 19.5856 3.7449 19.6854 3.63316 19.7139Z" fill="#BCBEC0"/>
<path fill-rule="evenodd" clip-rule="evenodd" d="M3.21669 20.0134C3.2133 20.0562 3.24378 20.0918 3.28441 20.0954C3.32504 20.099 3.3589 20.0669 3.36229 20.0241C3.36567 19.9814 3.33181 19.9457 3.29457 19.9422C3.25055 19.9386 3.21669 19.9707 3.21669 20.0134Z" fill="white"/>
<path fill-rule="evenodd" clip-rule="evenodd" d="M3.23024 20.0136C3.22685 20.0456 3.25394 20.0777 3.28441 20.0777C3.31489 20.0813 3.34536 20.0528 3.34536 20.0207C3.34875 19.9886 3.32166 19.9565 3.29119 19.9565C3.26071 19.9565 3.23362 19.9815 3.23024 20.0136Z" fill="black"/>
<path fill-rule="evenodd" clip-rule="evenodd" d="M3.24718 20.0811C3.24718 20.0811 2.90858 20.0668 2.85779 19.9207C2.85779 19.9207 2.87472 19.8316 2.92212 19.8744C3.0474 19.9849 3.09481 19.9421 3.2912 19.9564C3.2912 19.9564 3.35892 20.0633 3.24718 20.0811Z" fill="#BCBEC0"/>
<path fill-rule="evenodd" clip-rule="evenodd" d="M2.81714 20.3128C2.81037 20.3555 2.83746 20.3947 2.8747 20.4019C2.91534 20.409 2.95258 20.3805 2.95935 20.3413C2.96613 20.2985 2.93904 20.2593 2.90179 20.2522C2.86455 20.2451 2.82391 20.27 2.81714 20.3128Z" fill="white"/>
<path fill-rule="evenodd" clip-rule="evenodd" d="M2.83408 20.3164C2.82731 20.3485 2.85101 20.3805 2.88148 20.3877C2.91196 20.3948 2.94243 20.3698 2.9492 20.3378C2.95598 20.3057 2.93227 20.2736 2.9018 20.2665C2.86794 20.2629 2.84085 20.2843 2.83408 20.3164Z" fill="black"/>
<path fill-rule="evenodd" clip-rule="evenodd" d="M2.84085 20.384C2.84085 20.384 2.51579 20.3341 2.48193 20.1809C2.48193 20.1809 2.50902 20.0954 2.54965 20.1417C2.66139 20.27 2.70541 20.2308 2.89841 20.2664C2.9018 20.2664 2.95597 20.384 2.84085 20.384Z" fill="#BCBEC0"/>
<path fill-rule="evenodd" clip-rule="evenodd" d="M2.39389 20.5727C2.38034 20.6119 2.40066 20.6583 2.43791 20.6725C2.47515 20.6868 2.51917 20.6654 2.53272 20.6262C2.54626 20.587 2.52594 20.5407 2.4887 20.5264C2.45145 20.5121 2.40743 20.5335 2.39389 20.5727Z" fill="white"/>
<path fill-rule="evenodd" clip-rule="evenodd" d="M2.41081 20.5797C2.40065 20.6117 2.41419 20.6474 2.44467 20.6581C2.47514 20.6688 2.509 20.6545 2.51916 20.6224C2.52932 20.5904 2.51577 20.5547 2.4853 20.544C2.45482 20.5298 2.42096 20.5476 2.41081 20.5797Z" fill="black"/>
<path fill-rule="evenodd" clip-rule="evenodd" d="M2.40744 20.6477C2.40744 20.6477 2.12301 20.5693 2.11285 20.4089C2.11285 20.4089 2.15349 20.327 2.18735 20.3804C2.27877 20.5265 2.29908 20.4659 2.48193 20.5408C2.48193 20.5443 2.51917 20.6655 2.40744 20.6477Z" fill="#BCBEC0"/>
<path fill-rule="evenodd" clip-rule="evenodd" d="M3.42325 19.8243C3.42663 19.867 3.46049 19.8991 3.50113 19.8991C3.54176 19.8956 3.57223 19.8599 3.56885 19.8171C3.56546 19.7744 3.5316 19.7423 3.49097 19.7459C3.45372 19.7459 3.42325 19.7815 3.42325 19.8243Z" fill="white"/>
<path fill-rule="evenodd" clip-rule="evenodd" d="M3.44019 19.8242C3.44019 19.8563 3.47066 19.8848 3.50113 19.8812C3.53161 19.8812 3.5587 19.8527 3.55531 19.8171C3.55531 19.785 3.52484 19.7565 3.49436 19.7601C3.46389 19.7601 3.44019 19.7886 3.44019 19.8242Z" fill="black"/>
<path fill-rule="evenodd" clip-rule="evenodd" d="M3.3623 19.4932C3.3623 19.4932 3.14221 19.5502 3.33183 19.7533C3.45034 19.8816 3.48759 19.8567 3.50113 19.8281C3.51806 19.7961 3.53838 19.7818 3.44357 19.7212C3.32844 19.65 3.3149 19.5074 3.3623 19.4932Z" fill="white"/>
<path fill-rule="evenodd" clip-rule="evenodd" d="M3.02709 20.1668C3.0237 20.2095 3.05756 20.2452 3.09481 20.2487C3.13544 20.2523 3.1693 20.2202 3.17269 20.1774C3.17607 20.1347 3.1456 20.099 3.10497 20.0955C3.06434 20.0919 3.03048 20.124 3.02709 20.1668Z" fill="white"/>
<path fill-rule="evenodd" clip-rule="evenodd" d="M3.04401 20.1669C3.04401 20.199 3.06771 20.2275 3.09818 20.231C3.12866 20.2346 3.15913 20.2061 3.15913 20.174C3.16252 20.1419 3.13543 20.1134 3.10495 20.1099C3.07109 20.1099 3.04401 20.1348 3.04401 20.1669Z" fill="black"/>
<path fill-rule="evenodd" clip-rule="evenodd" d="M2.99999 19.814C2.99999 19.814 2.77651 19.8603 2.94243 20.0848C3.04739 20.2238 3.08464 20.2024 3.10496 20.1775C3.12527 20.149 3.14897 20.1347 3.05755 20.067C2.9492 19.9815 2.95259 19.8211 2.99999 19.814Z" fill="white"/>
<path fill-rule="evenodd" clip-rule="evenodd" d="M2.61399 20.4409C2.60721 20.4837 2.6343 20.5229 2.67155 20.53C2.71218 20.5372 2.74943 20.5087 2.7562 20.4659C2.76297 20.4231 2.73588 20.3839 2.69864 20.3768C2.66139 20.3732 2.62076 20.3982 2.61399 20.4409Z" fill="white"/>
<path fill-rule="evenodd" clip-rule="evenodd" d="M2.63092 20.4447C2.62415 20.4767 2.64785 20.5088 2.67833 20.5159C2.7088 20.5231 2.73928 20.5017 2.74605 20.4661C2.75282 20.434 2.7325 20.4019 2.69864 20.3948C2.66478 20.3877 2.6377 20.4126 2.63092 20.4447Z" fill="black"/>
<path fill-rule="evenodd" clip-rule="evenodd" d="M2.63768 20.1094C2.63768 20.1094 2.40066 20.1094 2.53949 20.3481C2.62752 20.4978 2.66816 20.4836 2.68847 20.4586C2.71217 20.4301 2.73588 20.423 2.65461 20.341C2.5598 20.2484 2.59028 20.1094 2.63768 20.1094Z" fill="white"/>
<path fill-rule="evenodd" clip-rule="evenodd" d="M2.1738 20.6621C2.16025 20.7013 2.18057 20.7476 2.21781 20.7619C2.25506 20.7761 2.29908 20.7547 2.31262 20.7155C2.32617 20.6763 2.30585 20.63 2.2686 20.6158C2.22797 20.6015 2.18734 20.6229 2.1738 20.6621Z" fill="white"/>
<path fill-rule="evenodd" clip-rule="evenodd" d="M2.18733 20.669C2.17717 20.7011 2.19071 20.7367 2.22119 20.7474C2.25166 20.7581 2.28552 20.7439 2.29568 20.7118C2.30584 20.6797 2.29229 20.6441 2.26182 20.6334C2.23134 20.6191 2.19748 20.6369 2.18733 20.669Z" fill="black"/>
<path fill-rule="evenodd" clip-rule="evenodd" d="M2.27538 20.3445C2.27538 20.3445 2.01805 20.2982 2.11624 20.5583C2.17719 20.7223 2.22121 20.7151 2.24491 20.6937C2.272 20.6724 2.29909 20.6688 2.23137 20.5726C2.1501 20.4621 2.22798 20.3338 2.27538 20.3445Z" fill="white"/>
<path fill-rule="evenodd" clip-rule="evenodd" d="M3.37246 19.5427C3.37246 19.5427 4.04289 19.2255 3.81603 18.8941C3.59255 18.5627 3.37585 19.3111 3.35553 19.5035L3.39955 19.4928C3.39955 19.4928 3.5079 19.0046 3.65011 18.9333C3.79232 18.862 3.80248 19.001 3.77201 19.0652C3.74492 19.1222 3.66366 19.3039 3.46727 19.4714C3.45372 19.4821 3.39616 19.4857 3.38262 19.4964C3.36569 19.5071 3.39278 19.5285 3.37246 19.5427Z" fill="#BCBEC0"/>
<path fill-rule="evenodd" clip-rule="evenodd" d="M3.43677 19.436C3.43677 19.436 3.55528 18.9335 3.31488 18.7589C3.07786 18.5843 2.92887 18.7518 3.14896 19.1438C3.36905 19.5393 3.36905 19.5393 3.36905 19.5393L3.41307 19.4894C3.41307 19.4894 3.24038 19.215 3.18621 19.0582C3.13203 18.9014 3.0914 18.7304 3.20314 18.7945C3.31488 18.8587 3.38937 18.9228 3.39953 19.1794C3.40291 19.3041 3.37921 19.411 3.3826 19.4645C3.38598 19.5215 3.41646 19.5144 3.41646 19.5144L3.43677 19.436Z" fill="#BCBEC0"/>
<path fill-rule="evenodd" clip-rule="evenodd" d="M3.3386 19.5182C3.3386 19.5182 3.27427 19.5609 3.08804 19.593C2.90181 19.6251 2.75282 19.8318 2.75621 19.846C2.75621 19.8638 2.7088 19.8745 2.7088 19.8745C2.7088 19.8745 2.67494 19.846 2.70203 19.764C2.73251 19.6821 2.79684 19.5288 3.06772 19.5217C3.3386 19.5146 3.40971 19.4683 3.40971 19.4683C3.40971 19.4683 3.48758 19.5182 3.3386 19.5182Z" fill="#D1D3D4"/>
<path fill-rule="evenodd" clip-rule="evenodd" d="M3.43002 19.4609C3.43002 19.4609 3.20654 19.6213 3.06772 19.6854C2.93228 19.7496 2.77314 19.9313 2.69187 19.9456C2.61061 19.9563 2.6377 20.024 2.6377 20.024C2.6377 20.024 2.68849 20.0561 2.91196 19.8529C3.13882 19.6498 3.25056 19.6462 3.32505 19.5892C3.40293 19.5251 3.43679 19.518 3.43002 19.4609Z" fill="#D1D3D4"/>
<path d="M6.50114 21.364C6.47743 21.3141 6.44357 21.168 6.43342 21.1074C6.26412 21.1751 5.49549 21.5814 4.30362 21.6954C3.86344 21.7382 3.14899 21.8665 2.6377 21.8914C2.12642 21.9164 1.43567 21.9021 1.12755 21.8665C0.822806 21.8308 0.49775 21.7524 0.297975 21.6812C0.243799 21.6634 0.155763 21.6099 0.152377 21.4638C0.145605 21.3355 0.108359 21.2072 0.0372531 21.3426C-0.00676494 21.4246 0.00339307 21.6455 0.00677908 21.7061C0.0169371 21.8023 0.308133 21.9449 0.653506 22.0803C1.06998 22.2442 1.83861 22.3975 3.12868 22.2941C4.00904 22.2229 4.60159 22.1979 5.11287 22.1801C6.56886 22.1338 6.55531 21.8736 6.54177 21.6135C6.535 21.5208 6.51468 21.3925 6.50114 21.364Z" fill="#D3D5D6"/>
<path d="M6.16591 21.5423C6.16591 21.5423 5.26862 21.8309 4.87584 21.8559C4.25959 21.8879 4.65237 22.0127 5.28894 22.0412C6.3623 22.0911 6.56207 21.4995 6.16591 21.5423Z" fill="#ABADB0"/>
<path d="M2.2957 22.2515C2.2957 22.2515 1.20879 22.3192 0.467255 21.9521C0.467255 21.9521 0.897277 22.0056 1.19525 22.0412C2.29231 22.1802 2.42098 21.9165 2.2957 22.2515Z" fill="#ABADB0"/>
<path d="M16.9029 20.8398C15.789 20.7151 15.4944 21.1178 12.3996 17.4044C10.8251 15.5193 10.3138 15.2449 10.3138 15.2449L12.8634 11.1074C12.8634 11.1074 14.912 13.4452 15.4199 13.8372C16.0734 14.3397 16.0463 14.3361 17.0079 15.1914L20.3093 18.8014C20.3093 18.8085 18.5519 21.0251 16.9029 20.8398Z" fill="#E50914"/>
<path d="M10.5339 13.1033C10.3883 12.7576 12.237 11.7776 12.684 12.2552C13.4966 13.3064 18.3996 18.1388 17.421 19.6926C15.789 22.3618 14.0722 19.8351 14.3736 20.1558C15.8567 21.7417 11.5971 16.0077 11.0858 14.9992C10.8048 14.4433 10.7167 13.7127 10.5339 13.1033Z" fill="#E4AE84"/>
<path d="M12.8499 11.8883C12.8499 11.8883 11.8917 10.584 11.2043 10.2062C10.5169 9.82493 10.3713 10.0281 9.95148 10.1528C9.40634 10.3132 8.82394 11.5818 8.82394 11.5818C8.82394 11.5818 11.079 11.3003 11.1197 11.311C11.1569 11.3217 12.8499 11.8883 12.8499 11.8883Z" fill="#E4AE84"/>
<path d="M11.1501 12.1985C11.0485 12.3909 10.0327 14.3046 9.98871 14.6075C9.8465 15.559 8.89842 17.3088 7.77426 18.2389C6.83295 19.0194 5.50564 20.5767 5.50564 20.5767L4.06659 20.2346C4.06659 20.2346 5.2483 18.1605 6.60271 15.7943C7.59142 14.0694 8.1535 12.6119 8.64108 11.8457C8.92212 11.6461 11.1704 11.9277 11.1501 12.1985Z" fill="#E4AE84"/>
<path d="M9.08127 11.2324C8.9052 10.901 10.6558 9.73921 11.1433 10.1704C12.0474 11.1326 17.3702 15.4411 16.544 17.0911C16.544 17.0911 15.6501 20.4766 13.4424 18.5379C11.8205 17.1125 10.4086 14.0192 9.80926 13.0677C9.47405 12.5403 9.31829 11.8204 9.08127 11.2324Z" fill="#E4AE84"/>
<path d="M4.05984 20.142L4.71673 19.0942C4.71673 19.0942 5.24156 20.0921 5.84088 20.2239L5.43118 20.7513C5.43456 20.7513 5.00115 21.2075 4.05984 20.142Z" fill="white"/>
<path d="M12.3725 11.632C12.3725 11.632 11.6445 10.9762 10.9571 10.5949C10.2698 10.2136 10.1242 10.4167 9.70429 10.5415C9.15914 10.7018 8.57675 11.9705 8.57675 11.9705C8.57675 11.9705 10.8318 11.689 10.8725 11.6997C10.9131 11.7139 12.3725 11.632 12.3725 11.632Z" fill="#E4AE84"/>
<path d="M6.71446 22.2231C6.72462 22.4762 6.69753 22.7221 5.28218 22.7684C4.77089 22.7826 4.17157 22.747 3.30475 22.8575C2.02146 23.0178 1.24268 22.8361 0.822812 22.6686C0.477439 22.5332 0.186243 22.3906 0.176085 22.2944C0.176085 22.2802 0.172699 22.2659 0.172699 22.2517C0.172699 22.3015 0.176085 22.3479 0.179471 22.3799C0.189629 22.4762 0.480825 22.6187 0.826198 22.7541C1.24268 22.9181 1.99776 23.0749 3.28782 22.968C4.17157 22.8967 4.77428 22.8717 5.28557 22.8539C6.74155 22.8076 6.728 22.5474 6.71446 22.2873C6.71785 22.2659 6.71446 22.2445 6.71446 22.2231Z" fill="#717375"/>
<path d="M6.42327 19.6962C6.37248 19.6748 6.31491 19.7354 6.2709 19.8458C6.19979 20.0383 6.22688 20.2164 6.22688 20.2271H6.23365C6.21672 20.2913 6.20656 20.359 6.21333 20.4374L6.28444 20.4303C6.2709 20.2877 6.3183 20.1879 6.37248 20.0739C6.39956 20.0169 6.42665 19.9599 6.44697 19.8957C6.49776 19.7425 6.44697 19.7033 6.42327 19.6962ZM6.37925 19.8708C6.35893 19.9314 6.33523 19.9848 6.31153 20.0383C6.30814 20.0454 6.30476 20.0561 6.29798 20.0668C6.30137 20.0098 6.31491 19.942 6.33862 19.8743C6.36232 19.8138 6.38263 19.7852 6.39618 19.7746C6.39956 19.7888 6.39618 19.8209 6.37925 19.8708Z" fill="#0D0B42"/>
<path fill-rule="evenodd" clip-rule="evenodd" d="M5.40747 22.2156C5.1095 22.2335 4.8691 22.3154 4.4323 22.4045C3.99551 22.4901 3.33862 22.6112 2.82734 22.6362C2.31605 22.6611 1.58467 22.597 1.27655 22.5613C0.758486 22.5043 0.243814 22.2905 0.233656 22.2798L0.193024 22.1266C0.193024 22.1266 0.237042 22.0018 0.338622 21.9234C0.443588 21.845 0.677222 21.7773 1.31041 21.5421C2.11966 21.2428 2.38038 21.1073 2.78332 20.7652C3.18287 20.4231 3.68061 20.1059 3.82282 20.1451C3.96503 20.1844 4.21221 20.3518 4.70657 20.5015C5.67496 20.7973 5.16706 20.8187 5.85442 20.5229C6.16594 20.391 6.16255 19.9848 6.19302 20.0703C6.19302 20.0703 6.18287 20.3946 6.35894 20.6262C6.57564 20.9149 6.65352 21.396 6.61289 21.9127C6.30815 22.1159 5.69528 22.1978 5.40747 22.2156Z" fill="#E50914"/>
<path fill-rule="evenodd" clip-rule="evenodd" d="M4.45262 19.7605C4.35104 19.6215 4.36119 19.4683 4.21221 19.3578C4.13433 19.2972 3.94472 19.3863 3.7077 19.8282C3.50115 20.2095 3.0779 20.516 3.0779 20.516L3.1016 20.5124C2.53952 20.9722 2.04855 21.1788 2.04855 21.1788L2.09934 21.2893C2.71221 20.9543 3.26074 20.6122 3.64336 20.3663C3.81266 20.2986 4.07677 20.3913 4.17835 20.3307C4.49663 20.1418 4.52034 19.8496 4.45262 19.7605Z" fill="#0D0B42"/>
<path fill-rule="evenodd" clip-rule="evenodd" d="M0.294595 22.1876C0.321683 22.3123 0.413106 22.348 0.467282 22.3658C0.490984 22.3729 0.518072 22.3836 0.54516 22.3907H0.548546C0.575634 22.3979 0.606108 22.4086 0.633196 22.4193C0.66367 22.4264 0.694144 22.4371 0.728004 22.4442H0.73139C0.761864 22.4513 0.795724 22.462 0.826198 22.4691C0.829584 22.4691 0.829584 22.4691 0.83297 22.4691C0.86683 22.4763 0.90069 22.487 0.93455 22.4941C0.96841 22.5012 1.00566 22.5084 1.0429 22.5155C1.04629 22.5155 1.04629 22.5155 1.04967 22.5155C1.08353 22.5226 1.11739 22.5297 1.15464 22.5333C1.15803 22.5333 1.16141 22.5333 1.1648 22.5333C1.20204 22.5404 1.23929 22.544 1.27654 22.5476C1.58466 22.5832 2.31604 22.6473 2.82733 22.6224C3.33861 22.5974 3.9955 22.4834 4.43229 22.3907C4.77767 22.3195 6.33184 22.1627 6.63997 21.9631C6.64335 21.9203 6.61288 21.7635 6.61288 21.7243C6.57563 21.7564 6.39956 21.9061 6.33184 21.9453C5.88489 22.1947 4.46615 22.2874 3.97857 22.3907C3.49098 22.4905 2.41762 22.6723 1.01243 22.323C1.01243 22.323 0.389404 22.1199 0.826198 21.874C1.20543 21.6602 2.10611 21.286 2.10611 21.286L2.09595 21.1577C0.802496 21.7921 0.71446 21.5212 0.399562 21.7529C0.348771 21.7921 0.203173 21.9382 0.209945 22.0665C0.230261 22.0736 0.277665 22.1092 0.294595 22.1876Z" fill="#E50914"/>
<path d="M6.61965 21.7705C6.64674 21.2894 6.56209 20.901 6.35554 20.6266C6.34538 20.6123 6.33522 20.5981 6.32845 20.5874C6.26073 20.6017 6.23026 20.6587 6.32168 20.8155C6.48421 21.0899 6.54854 21.6137 6.56209 21.8026C6.57902 21.7884 6.59933 21.7777 6.61965 21.7705Z" fill="#E50914"/>
<path fill-rule="evenodd" clip-rule="evenodd" d="M2.02823 21.5995C2.02823 21.5995 2.31604 21.2039 1.88263 21.3144C1.72349 21.3572 0.413108 21.8596 0.524846 22.0806C0.595953 22.2231 0.558707 22.2374 0.846517 22.3657C1.13433 22.494 2.47519 22.5866 2.23139 22.5225C1.69979 22.3871 1.78783 22.159 2.11627 21.8525C2.44471 21.546 2.58354 21.4641 2.58354 21.4641L2.02823 21.5995Z" fill="#E50914"/>
<path d="M2.42776 21.5066C2.42776 21.5066 3.83634 22.5507 2.70542 22.5543C2.70542 22.5543 3.52144 22.5971 3.68736 22.4438C3.85666 22.2906 3.6298 21.756 2.91535 21.2144L2.42776 21.5066Z" fill="#E50914"/>
<path d="M3.04065 21.0788C3.04065 21.0788 4.51018 22.2727 3.69076 22.4651C3.69076 22.4651 4.32056 22.4794 4.46616 22.2976C4.76074 21.9341 4.24607 21.3283 3.52823 20.7866L3.04065 21.0788Z" fill="#E50914"/>
<path d="M3.66367 20.7012C3.66367 20.7012 5.41423 22.1124 4.50678 22.3512C4.50678 22.3512 5.29233 22.369 5.43793 22.1873C5.62078 21.9592 4.66931 21.111 5.59707 20.6763C5.7833 20.5907 4.31716 20.5693 4.04628 20.3662L3.66367 20.7012Z" fill="#E50914"/>
<path fill-rule="evenodd" clip-rule="evenodd" d="M6.44018 20.7584C6.41648 20.7121 6.386 20.6693 6.35553 20.6266C6.34876 20.6159 6.34198 20.6087 6.33521 20.598C6.23025 20.3308 6.2404 20.0884 6.2404 20.0884C6.23702 19.5396 5.99323 19.8461 5.9763 19.9316C5.93566 20.1169 5.94244 20.5339 5.18397 20.5196C4.55417 20.509 4.12077 20.2488 4.02257 20.1882C3.80925 20.0564 3.71783 20.0599 3.69074 20.0671C3.3386 20.2595 3.29458 20.3949 2.99323 20.6693C2.31603 21.1896 1.92663 21.35 1.78104 21.4284C1.78104 21.4284 1.99435 21.7099 2.33296 21.5959C2.34311 21.5923 2.35666 21.5887 2.36682 21.5816C2.38036 21.5781 2.39052 21.5709 2.40406 21.5674C2.40745 21.5674 2.40745 21.5638 2.41083 21.5638C2.42099 21.5602 2.43115 21.5531 2.44131 21.5495C2.45485 21.5424 2.4684 21.5353 2.48194 21.5282C2.92889 21.2645 3.64672 20.7335 3.8228 20.623C3.99887 20.5125 4.36794 20.5624 4.63205 20.6444C5.40745 20.876 5.5158 20.6408 6 20.7905C6.1693 20.8439 6.386 21.0578 6.5553 21.5032C6.55869 21.5103 6.52821 21.1005 6.53499 21.1005C6.53499 21.1005 6.34537 20.819 6.34876 20.819C6.35553 20.819 6.35891 20.819 6.36569 20.819C6.36569 20.819 6.36569 20.819 6.36907 20.819C6.37584 20.8154 6.38262 20.8154 6.38939 20.8119C6.38939 20.8119 6.38939 20.8119 6.39277 20.8119C6.39955 20.8083 6.40293 20.8047 6.4097 20.7976C6.41986 20.7834 6.43002 20.7727 6.44018 20.7584Z" fill="#E50914"/>
<path fill-rule="evenodd" clip-rule="evenodd" d="M3.77202 20.2773C3.77541 20.32 3.80927 20.3521 3.8499 20.3521C3.89053 20.3486 3.92101 20.3129 3.91762 20.2702C3.91424 20.2274 3.88038 20.1953 3.83974 20.1953C3.8025 20.1989 3.76864 20.2345 3.77202 20.2773Z" fill="white"/>
<path fill-rule="evenodd" clip-rule="evenodd" d="M3.78896 20.2774C3.79234 20.3094 3.81943 20.338 3.84991 20.3344C3.88038 20.3344 3.90747 20.3059 3.90408 20.2702C3.90408 20.2346 3.87699 20.2097 3.84313 20.2132C3.80927 20.2168 3.78557 20.2453 3.78896 20.2774Z" fill="black"/>
<path fill-rule="evenodd" clip-rule="evenodd" d="M3.80924 20.3413C3.80924 20.3413 3.47064 20.3698 3.40292 20.2273C3.40292 20.2273 3.4097 20.1346 3.46049 20.1703C3.59931 20.2701 3.64333 20.2202 3.83972 20.213C3.8431 20.213 3.92098 20.3128 3.80924 20.3413Z" fill="#BCBEC0"/>
<path fill-rule="evenodd" clip-rule="evenodd" d="M3.39277 20.6409C3.38939 20.6836 3.41986 20.7193 3.46049 20.7228C3.50113 20.7264 3.53499 20.6943 3.53837 20.6516C3.54176 20.6088 3.5079 20.5732 3.47065 20.5696C3.43002 20.566 3.39616 20.5981 3.39277 20.6409Z" fill="white"/>
<path fill-rule="evenodd" clip-rule="evenodd" d="M3.40631 20.641C3.40631 20.6731 3.43001 20.7051 3.46049 20.7051C3.49096 20.7087 3.51805 20.6802 3.52143 20.6481C3.52482 20.6161 3.49773 20.5875 3.46726 20.584C3.43678 20.584 3.4097 20.6089 3.40631 20.641Z" fill="black"/>
<path fill-rule="evenodd" clip-rule="evenodd" d="M3.42326 20.7085C3.42326 20.7085 3.08466 20.6942 3.03387 20.5481C3.03387 20.5481 3.0508 20.459 3.09821 20.4982C3.22349 20.6123 3.27428 20.5695 3.47067 20.5838C3.46728 20.5838 3.535 20.6907 3.42326 20.7085Z" fill="#BCBEC0"/>
<path fill-rule="evenodd" clip-rule="evenodd" d="M2.99662 20.9402C2.98984 20.983 3.01693 21.0222 3.05418 21.0293C3.09481 21.0364 3.13206 21.0079 3.13883 20.9687C3.1456 20.926 3.11851 20.8868 3.07788 20.8796C3.04063 20.8725 3.00339 20.8974 2.99662 20.9402Z" fill="white"/>
<path fill-rule="evenodd" clip-rule="evenodd" d="M3.01015 20.9437C3.00338 20.9758 3.02369 21.0078 3.05755 21.015C3.08803 21.0221 3.1185 20.9971 3.12527 20.9651C3.13204 20.933 3.11173 20.9009 3.07787 20.8938C3.04739 20.8867 3.01692 20.9116 3.01015 20.9437Z" fill="black"/>
<path fill-rule="evenodd" clip-rule="evenodd" d="M3.02032 21.0115C3.02032 21.0115 2.69527 20.9616 2.66141 20.8083C2.66141 20.8083 2.6885 20.7228 2.72913 20.7691C2.84087 20.8974 2.88488 20.8582 3.07789 20.8974C3.07789 20.8939 3.13206 21.0079 3.02032 21.0115Z" fill="#BCBEC0"/>
<path fill-rule="evenodd" clip-rule="evenodd" d="M2.57336 21.2002C2.55982 21.2394 2.58013 21.2857 2.61738 21.3C2.65463 21.3142 2.69865 21.2928 2.71219 21.2536C2.72573 21.2144 2.70542 21.1681 2.66817 21.1538C2.62754 21.1396 2.58691 21.161 2.57336 21.2002Z" fill="white"/>
<path fill-rule="evenodd" clip-rule="evenodd" d="M2.58689 21.2071C2.57673 21.2392 2.59028 21.2748 2.62075 21.2855C2.65123 21.2962 2.68509 21.2819 2.69524 21.2499C2.7054 21.2178 2.69186 21.1822 2.66138 21.1715C2.63091 21.1572 2.59705 21.175 2.58689 21.2071Z" fill="black"/>
<path fill-rule="evenodd" clip-rule="evenodd" d="M2.58352 21.2751C2.58352 21.2751 2.2991 21.1967 2.28894 21.0364C2.28894 21.0364 2.32957 20.9544 2.36343 21.0078C2.45485 21.154 2.47517 21.0934 2.65801 21.1682C2.6614 21.1718 2.69526 21.2929 2.58352 21.2751Z" fill="#BCBEC0"/>
<path fill-rule="evenodd" clip-rule="evenodd" d="M3.6027 20.4517C3.60609 20.4945 3.63995 20.5266 3.68058 20.523C3.72121 20.5194 3.75169 20.4838 3.75169 20.441C3.7483 20.3983 3.71444 20.3662 3.67381 20.3662C3.62979 20.3733 3.59932 20.409 3.6027 20.4517Z" fill="white"/>
<path fill-rule="evenodd" clip-rule="evenodd" d="M3.61624 20.4517C3.61624 20.4873 3.64333 20.5122 3.67719 20.5087C3.70766 20.5087 3.73475 20.4766 3.73137 20.4445C3.72798 20.4125 3.70089 20.3839 3.67042 20.3875C3.63994 20.3875 3.61624 20.416 3.61624 20.4517Z" fill="black"/>
<path fill-rule="evenodd" clip-rule="evenodd" d="M3.54178 20.1206C3.54178 20.1206 3.32169 20.1776 3.5113 20.3808C3.62981 20.509 3.66706 20.4805 3.6806 20.4556C3.69753 20.4235 3.71785 20.4093 3.62304 20.3487C3.50453 20.2774 3.49099 20.1313 3.54178 20.1206Z" fill="white"/>
<path fill-rule="evenodd" clip-rule="evenodd" d="M3.20656 20.7942C3.20318 20.837 3.23704 20.8726 3.27428 20.8762C3.31492 20.8797 3.34878 20.8477 3.35216 20.8049C3.35555 20.7621 3.32507 20.7265 3.28444 20.7229C3.24042 20.7194 3.20656 20.7514 3.20656 20.7942Z" fill="white"/>
<path fill-rule="evenodd" clip-rule="evenodd" d="M3.22009 20.7943C3.22009 20.8264 3.24379 20.8549 3.27427 20.8585C3.30474 20.8585 3.33522 20.8335 3.33522 20.8015C3.33522 20.7694 3.31151 20.7409 3.28104 20.7373C3.25057 20.7373 3.22348 20.7623 3.22009 20.7943Z" fill="black"/>
<path fill-rule="evenodd" clip-rule="evenodd" d="M3.17608 20.4414C3.17608 20.4414 2.9526 20.4877 3.11851 20.7122C3.22348 20.8512 3.26411 20.8298 3.27766 20.8049C3.29797 20.7764 3.32168 20.7621 3.23364 20.6944C3.12867 20.6089 3.12867 20.4485 3.17608 20.4414Z" fill="white"/>
<path fill-rule="evenodd" clip-rule="evenodd" d="M2.79346 21.0684C2.78669 21.1112 2.81378 21.1504 2.85102 21.1575C2.89165 21.1646 2.9289 21.1361 2.93567 21.0933C2.94244 21.0506 2.91536 21.0114 2.87472 21.0042C2.83748 21.0007 2.80023 21.0256 2.79346 21.0684Z" fill="white"/>
<path fill-rule="evenodd" clip-rule="evenodd" d="M2.80701 21.0721C2.80024 21.1042 2.82394 21.1363 2.85441 21.1434C2.88489 21.1505 2.91536 21.1291 2.92213 21.0935C2.92891 21.0614 2.90859 21.0293 2.87473 21.0222C2.84426 21.0151 2.81378 21.04 2.80701 21.0721Z" fill="black"/>
<path fill-rule="evenodd" clip-rule="evenodd" d="M2.81377 20.7368C2.81377 20.7368 2.57675 20.7368 2.71558 20.9756C2.80361 21.1253 2.84424 21.111 2.86456 21.0861C2.88826 21.0575 2.91196 21.0504 2.8307 20.9685C2.73589 20.8758 2.76637 20.7368 2.81377 20.7368Z" fill="white"/>
<path fill-rule="evenodd" clip-rule="evenodd" d="M2.34988 21.2895C2.33634 21.3287 2.35665 21.3751 2.3939 21.3893C2.43115 21.4036 2.47516 21.3822 2.48871 21.343C2.50225 21.3038 2.48194 21.2575 2.44469 21.2432C2.40744 21.2289 2.36343 21.2503 2.34988 21.2895Z" fill="white"/>
<path fill-rule="evenodd" clip-rule="evenodd" d="M2.3668 21.2965C2.35664 21.3285 2.37019 21.3642 2.40066 21.3749C2.43113 21.3856 2.46499 21.3713 2.47515 21.3392C2.48531 21.3072 2.47177 21.2715 2.44129 21.2608C2.41082 21.2466 2.37696 21.2644 2.3668 21.2965Z" fill="black"/>
<path fill-rule="evenodd" clip-rule="evenodd" d="M2.45486 20.9719C2.45486 20.9719 2.19752 20.9256 2.29572 21.1858C2.35666 21.3497 2.40068 21.3426 2.42438 21.3248C2.45147 21.3034 2.47856 21.2962 2.41084 21.2036C2.32958 21.0895 2.40407 20.9613 2.45486 20.9719Z" fill="white"/>
<path fill-rule="evenodd" clip-rule="evenodd" d="M3.54855 20.1667C3.54855 20.1667 4.21898 19.8531 3.99211 19.5181C3.76864 19.1867 3.55193 19.9351 3.53162 20.1275L3.57563 20.1168C3.57563 20.1168 3.68399 19.6286 3.8262 19.5573C3.96841 19.4861 3.97857 19.625 3.94809 19.6892C3.92101 19.7427 3.83974 19.9244 3.64335 20.0919C3.62981 20.1026 3.57225 20.1061 3.5587 20.1168C3.54177 20.1347 3.56886 20.156 3.54855 20.1667Z" fill="#BCBEC0"/>
<path fill-rule="evenodd" clip-rule="evenodd" d="M3.61625 20.0634C3.61625 20.0634 3.73476 19.5609 3.49435 19.3863C3.25733 19.2117 3.10835 19.3792 3.32844 19.7712C3.54853 20.1632 3.54853 20.1632 3.54853 20.1632L3.59254 20.1133C3.59254 20.1133 3.41986 19.8389 3.36568 19.6821C3.31151 19.5253 3.27087 19.3543 3.38261 19.4184C3.49435 19.4825 3.56884 19.5467 3.579 19.8033C3.58239 19.928 3.55868 20.0349 3.56207 20.0884C3.56546 20.1454 3.59593 20.1383 3.59593 20.1383L3.61625 20.0634Z" fill="#BCBEC0"/>
<path fill-rule="evenodd" clip-rule="evenodd" d="M3.51469 20.1456C3.51469 20.1456 3.45035 20.1884 3.26412 20.2204C3.07789 20.2525 2.92891 20.4592 2.93229 20.4735C2.93568 20.4913 2.88489 20.502 2.88489 20.502C2.88489 20.502 2.85103 20.4735 2.87812 20.3915C2.90859 20.3095 2.97293 20.1563 3.24381 20.1492C3.51469 20.142 3.58579 20.0957 3.58579 20.0957C3.58579 20.0957 3.66367 20.1456 3.51469 20.1456Z" fill="#D1D3D4"/>
<path fill-rule="evenodd" clip-rule="evenodd" d="M3.60948 20.0884C3.60948 20.0884 3.386 20.2452 3.24717 20.3093C3.11173 20.3735 2.95259 20.5552 2.87133 20.5695C2.79006 20.5837 2.81376 20.6479 2.81376 20.6479C2.81376 20.6479 2.86455 20.68 3.08803 20.4768C3.31489 20.2737 3.42324 20.2701 3.50112 20.2131C3.58239 20.1525 3.61625 20.1454 3.60948 20.0884Z" fill="#D1D3D4"/>
<path d="M6.68061 21.9914C6.65691 21.9416 6.62305 21.7954 6.61289 21.7349C6.44359 21.8026 5.67496 22.2088 4.48309 22.3229C4.03952 22.3656 3.32846 22.4939 2.81718 22.5189C2.30589 22.5438 1.61515 22.5296 1.30702 22.4975C0.998893 22.4583 0.677222 22.3799 0.477448 22.3086C0.423272 22.2908 0.335236 22.2373 0.328464 22.0948C0.325078 21.9665 0.284446 21.8382 0.21334 21.9736C0.169321 22.0556 0.17948 22.2765 0.182866 22.3371C0.193024 22.4333 0.48422 22.5759 0.829592 22.7113C1.24607 22.8752 2.01469 23.0285 3.30476 22.9251C4.18512 22.8539 4.77767 22.8289 5.28896 22.8111C6.74494 22.7648 6.7314 22.5046 6.71785 22.2445C6.71447 22.1482 6.69415 22.02 6.68061 21.9914Z" fill="#D3D5D6"/>
<path d="M6.342 22.1697C6.342 22.1697 5.44471 22.4584 5.05193 22.4833C4.43568 22.5189 4.82845 22.6365 5.46502 22.6686C6.53839 22.7185 6.73816 22.1269 6.342 22.1697Z" fill="#ABADB0"/>
<path d="M2.47178 22.8786C2.47178 22.8786 1.38488 22.9463 0.643341 22.5757C0.643341 22.5757 1.07336 22.6291 1.37133 22.6648C2.4684 22.8073 2.59707 22.5436 2.47178 22.8786Z" fill="#ABADB0"/>
<path d="M17.079 21.4673C15.965 21.3425 15.6705 21.7452 12.5756 18.0319C11.0012 16.1467 10.4899 15.8723 10.4899 15.8723L13.0395 11.7349C13.0395 11.7349 15.0881 14.0726 15.596 14.4646C16.1039 14.8566 16.7472 15.3449 16.7472 15.3449L20.4854 19.436C20.4854 19.436 18.728 21.6526 17.079 21.4673Z" fill="#E50914"/>
<path d="M17.509 14.9067C17.509 14.9067 18.4741 16.7812 20.8544 18.7983L20.3634 19.4362C20.3634 19.4362 17.0959 16.603 16.7438 15.3486L17.509 14.9067Z" fill="#E50914"/>
</g>
<defs>
<clipPath id="clip0_158_2684">
<rect width="33" height="23" fill="white"/>
</clipPath>
</defs>
</svg>
