<svg width="26" height="39" viewBox="0 0 26 39" fill="none" xmlns="http://www.w3.org/2000/svg">
<g clip-path="url(#clip0_158_1402)">
<path d="M17.2526 12.6733C17.2287 12.7535 17.2287 12.8722 17.2287 12.9583C17.2197 13.4927 17.755 15.1403 18.1916 16.0547C18.6282 16.972 18.7568 17.729 18.7568 17.729L19.8693 17.3164C19.8693 17.3164 19.6002 16.6662 19.4506 15.265C19.3011 13.8638 18.9004 12.8633 18.4668 12.2043C18.2933 11.9816 17.2915 12.4625 17.2526 12.6733Z" fill="#E4AE84"/>
<path d="M18.5355 16.8712C18.5355 16.8712 18.706 17.3729 18.691 17.7737C18.6761 18.1151 18.691 18.2309 18.706 18.786C18.7209 19.3887 18.6671 19.4213 18.6163 19.6172C18.5654 19.8132 18.9632 20.0477 19.0977 19.5074C19.2323 18.9671 19.1934 18.8098 19.1934 18.8098C19.1934 18.8098 19.3071 19.641 19.3968 20.0655C19.4865 20.49 19.5284 20.7602 19.7318 20.689C19.8334 20.6533 19.8663 20.588 19.7706 20.0151C19.6779 19.4421 19.5792 18.7979 19.5792 18.7979C19.5792 18.7979 19.977 20.8968 20.2252 20.8463C20.3837 20.8136 20.4226 20.7068 20.2701 20.0329C20.1175 19.359 19.9411 18.7237 19.9411 18.7237C19.9411 18.7237 20.4973 20.4247 20.593 20.5375C20.6499 20.6058 20.9848 20.8315 20.7575 20.1516C20.5302 19.4718 20.2342 18.5812 20.2342 18.5812C20.2342 18.5812 20.7665 19.9972 20.9579 19.9171C21.1553 19.831 20.8592 19.2373 20.5063 18.3793C20.1534 17.5213 20.0846 17.5718 19.9142 17.3729C19.7437 17.174 19.639 16.4556 19.639 16.4556L18.5355 16.8712Z" fill="#E4AE84"/>
<path d="M18.2125 13.0297C18.1348 12.9525 17.8716 13.5314 17.8716 13.5314C17.8716 13.5314 15.1801 12.6526 14.7076 12.0678C14.7076 12.0678 12.9282 11.8244 12.3779 11.3434C10.3384 10.812 10.0184 9.53845 10.6883 8.55878C11.3193 7.63848 12.6232 8.04816 13.5981 8.8794C14.7644 9.87392 15.0396 9.99861 15.6407 10.2539C16.4511 10.5983 18.1707 11.9223 18.4339 12.1806C18.1797 12.6497 18.6731 12.7595 18.2125 13.0297Z" fill="#E4AE84"/>
<g opacity="0.26">
<path d="M14.0377 9.51172C14.2052 9.7314 14.3846 9.93624 14.5581 10.1441C14.6448 10.248 14.7345 10.3519 14.8183 10.4558C14.905 10.5626 14.9887 10.6665 15.0695 10.7794C15.0216 10.6517 14.9528 10.53 14.8751 10.4172C14.8003 10.3014 14.7136 10.1945 14.6269 10.0876C14.5371 9.98374 14.4444 9.87984 14.3457 9.78484C14.2501 9.68984 14.1484 9.59781 14.0377 9.51172Z" fill="white"/>
<path d="M17.6055 11.7026C17.6025 11.8006 17.6204 11.8867 17.6354 11.9728L17.6593 12.1034C17.6683 12.145 17.6742 12.1895 17.6802 12.237C17.7101 12.1984 17.7251 12.1479 17.7311 12.1004C17.737 12.0529 17.7341 12.0054 17.7251 11.9579C17.7161 11.9104 17.7042 11.8659 17.6862 11.8244C17.6623 11.7798 17.6384 11.7383 17.6055 11.7026Z" fill="white"/>
</g>
<path d="M8.81618 28.3422C8.62478 28.6688 6.85138 27.9593 6.96203 27.3032C7.30893 25.9999 8.72646 18.8809 10.5956 18.7978C10.5956 18.7978 13.2871 17.741 12.7936 20.7126C12.4318 22.9006 10.6225 25.3646 10.1231 26.3859C9.84493 26.9558 9.19897 27.8316 8.81618 28.3422Z" fill="#D3A17B"/>
<path d="M7.37474 25.3081C7.37474 25.3081 6.95905 26.2225 6.79457 27.0211C6.63009 27.8196 6.82148 27.7959 6.94111 28.2382C7.06073 28.6806 7.39567 28.3599 7.39567 28.3599C7.39567 28.3599 7.88613 26.8429 7.88613 26.7984C7.88314 26.7539 7.37474 25.3081 7.37474 25.3081Z" fill="#D3A17B"/>
<path d="M9.39038 27.2231C9.34253 27.4398 8.87002 29.5713 8.91488 29.8712C9.04945 30.8212 8.59788 32.7776 7.73061 34.0036C7.0039 35.0308 6.1157 36.9219 6.1157 36.9219L4.5636 37.0317C4.5636 37.0317 5.15573 34.6953 5.83758 32.0294C6.33402 30.0849 6.48055 28.5264 6.75269 27.6476C6.974 27.3686 9.32757 26.9559 9.39038 27.2231Z" fill="#D3A17B"/>
<path d="M4.52771 36.9457L4.88957 35.7493C4.88957 35.7493 5.70898 36.5449 6.35196 36.4885L6.09178 37.1149C6.09178 37.1149 5.78674 37.6789 4.52771 36.9457Z" fill="white"/>
<path d="M9.35148 25.8042C9.35148 25.8042 8.34964 25.9408 7.58406 26.2287C6.81548 26.5167 6.86632 26.7631 6.66595 27.1757C6.40278 27.7071 6.94707 29.0045 6.94707 29.0045C6.94707 29.0045 8.31675 27.0511 8.35263 27.0273C8.38852 27.0006 9.35148 25.8042 9.35148 25.8042Z" fill="#D3A17B"/>
<path d="M6.80651 38.5666C6.77062 38.816 6.69586 39.0505 5.22151 38.822C4.68619 38.7388 4.07313 38.5845 3.15203 38.5221C1.78833 38.4301 1.01677 38.0976 0.61304 37.8571C0.281087 37.6582 0.00595478 37.4623 0.0119359 37.3643C0.0149265 37.3495 0.0149265 37.3376 0.0179171 37.3228C0.00894535 37.3703 0.00595478 37.4178 -2.63549e-05 37.4504C-0.00600749 37.5484 0.269125 37.7413 0.601078 37.9432C1.00181 38.1866 1.75544 38.4835 3.11615 38.632C4.04621 38.7329 4.67423 38.8249 5.20954 38.908C6.72875 39.1455 6.76464 38.8873 6.79754 38.632C6.80053 38.6082 6.80352 38.5874 6.80651 38.5666Z" fill="white"/>
<path d="M6.97398 36.0373C6.92314 36.0077 6.85436 36.0522 6.78857 36.1561C6.67791 36.3313 6.67193 36.5123 6.67193 36.5183H6.67791C6.64801 36.5747 6.62408 36.64 6.6181 36.7202L6.69287 36.7291C6.70483 36.5866 6.77361 36.5005 6.84838 36.3966C6.88426 36.3461 6.92314 36.2956 6.95604 36.2363C7.03977 36.0967 6.99791 36.0522 6.97398 36.0373ZM6.89623 36.2006C6.86632 36.257 6.82744 36.3045 6.79156 36.352C6.78557 36.3609 6.77959 36.3669 6.77361 36.3758C6.78857 36.3223 6.81249 36.257 6.85436 36.1947C6.88725 36.1413 6.91716 36.1175 6.93211 36.1086C6.92912 36.1234 6.92314 36.1531 6.89623 36.2006Z" fill="#0D0B42"/>
<path fill-rule="evenodd" clip-rule="evenodd" d="M5.44879 38.3053C5.13478 38.2667 4.87161 38.2993 4.40209 38.2993C3.93257 38.2993 3.22979 38.2875 2.69447 38.2133C2.15916 38.139 1.41152 37.9342 1.1005 37.8392C0.574161 37.6819 0.0777272 37.3731 0.0717461 37.3612L0.0567932 37.2009C0.0567932 37.2009 0.122586 37.0851 0.24819 37.0317C0.370803 36.9753 0.627992 36.9545 1.32778 36.8476C2.22496 36.7111 2.52102 36.6309 2.99951 36.3727C3.478 36.1173 4.05518 35.9036 4.19275 35.9689C4.33032 36.0342 4.5576 36.245 5.04207 36.4914C5.99008 36.9694 5.46075 36.8922 6.22933 36.7378C6.57623 36.6666 6.651 36.2717 6.66296 36.3608C6.66296 36.3608 6.59417 36.6755 6.73174 36.9397C6.9022 37.2633 6.89323 37.7501 6.75567 38.2489C6.40278 38.3825 5.75382 38.3439 5.44879 38.3053Z" fill="white"/>
<path fill-rule="evenodd" clip-rule="evenodd" d="M4.91645 35.7196C4.83571 35.5622 4.87458 35.4168 4.743 35.2802C4.67123 35.206 4.4589 35.2565 4.12993 35.6424C3.84583 35.9779 3.3494 36.1946 3.3494 36.1946H3.37332C2.70642 36.533 2.15616 36.6429 2.15616 36.6429L2.18905 36.7586C2.88586 36.5508 3.51986 36.3222 3.96246 36.156C4.15087 36.1233 4.40806 36.2658 4.52469 36.2243C4.89253 36.0996 4.97028 35.8176 4.91645 35.7196Z" fill="#0D0B42"/>
<path fill-rule="evenodd" clip-rule="evenodd" d="M0.149502 37.2842C0.152492 37.4118 0.242209 37.4653 0.293049 37.495C0.316973 37.5068 0.340898 37.5217 0.367813 37.5365C0.367813 37.5365 0.370804 37.5365 0.370804 37.5395C0.397719 37.5543 0.424634 37.5662 0.45454 37.5811C0.484445 37.5959 0.514351 37.6107 0.547247 37.6256H0.550238C0.580143 37.6404 0.61304 37.6553 0.645936 37.6701C0.648926 37.6701 0.651917 37.6731 0.651917 37.6731C0.684813 37.6879 0.717709 37.7028 0.753596 37.7176C0.753596 37.7176 0.753596 37.7176 0.756587 37.7176C0.792474 37.7325 0.828361 37.7473 0.864247 37.7592C0.867238 37.7592 0.870229 37.7621 0.870229 37.7621C0.906115 37.774 0.939012 37.7889 0.974898 37.8007C0.977889 37.8007 0.980879 37.8037 0.98387 37.8037C1.01976 37.8156 1.05863 37.8275 1.09452 37.8393C1.40853 37.9343 2.15318 38.1362 2.68849 38.2134C3.22381 38.2876 3.92659 38.3024 4.39611 38.2995C4.76694 38.2965 6.41175 38.4449 6.76464 38.3084C6.7766 38.2668 6.77361 38.1065 6.78258 38.0679C6.73772 38.0917 6.52838 38.2045 6.45063 38.2282C5.93924 38.3856 4.45293 38.2015 3.9236 38.2045C3.39726 38.2075 2.25187 38.1778 0.861257 37.5603C0.861257 37.5603 0.251181 37.2396 0.747615 37.0853C1.17826 36.9517 2.18309 36.7587 2.18309 36.7587L2.19804 36.634C0.735653 37.0051 0.696776 36.7201 0.328936 36.8864C0.269124 36.9131 0.0896902 37.0289 0.0717468 37.1565C0.104643 37.1625 0.146511 37.204 0.149502 37.2842Z" fill="#E50914"/>
<path d="M6.79156 38.1065C6.90819 37.6405 6.89324 37.2426 6.73174 36.9369C6.72277 36.922 6.71679 36.9072 6.71081 36.8923C6.63904 36.8953 6.59418 36.9428 6.66296 37.112C6.78258 37.4119 6.7467 37.9373 6.72875 38.1273C6.7467 38.1154 6.77062 38.1125 6.79156 38.1065Z" fill="white"/>
<path fill-rule="evenodd" clip-rule="evenodd" d="M2.05748 37.0466C2.05748 37.0466 2.4313 36.7141 1.95879 36.7408C1.78534 36.7497 0.331922 36.9902 0.406686 37.2277C0.454535 37.382 0.415658 37.388 0.687799 37.5691C0.962932 37.7501 2.3356 38.1005 2.09337 37.9936C1.56703 37.7591 1.69861 37.5512 2.09636 37.3167C2.4941 37.0822 2.6526 37.0288 2.6526 37.0288L2.05748 37.0466Z" fill="#E50914"/>
<path d="M2.49112 37.0318C2.49112 37.0318 3.75912 38.3292 2.58383 38.1095C2.58383 38.1095 3.42119 38.3113 3.62454 38.1926C3.8279 38.0739 3.69632 37.5098 3.05036 36.8389L2.49112 37.0318Z" fill="#E50914"/>
<path d="M3.20587 36.732C3.20587 36.732 4.50976 38.1867 3.62455 38.2134C3.62455 38.2134 4.27649 38.347 4.45892 38.2015C4.82975 37.9017 4.41107 37.21 3.7681 36.5391L3.20587 36.732Z" fill="#E50914"/>
<path d="M3.92358 36.4855C3.92358 36.4855 5.47868 38.2073 4.49179 38.2667C4.49179 38.2667 5.30523 38.4359 5.48765 38.2904C5.71792 38.1034 4.88954 37.0881 5.93624 36.8417C6.14558 36.7912 4.62936 36.4884 4.38712 36.2361L3.92358 36.4855Z" fill="#E50914"/>
<path fill-rule="evenodd" clip-rule="evenodd" d="M6.79454 37.0823C6.7766 37.0319 6.75567 36.9844 6.73174 36.9369C6.72576 36.928 6.72277 36.9161 6.71679 36.9072C6.65698 36.6252 6.71081 36.3877 6.71081 36.3877C6.8095 35.8503 6.50147 36.1027 6.46558 36.1828C6.38783 36.355 6.31605 36.7677 5.53551 36.6073C4.88357 36.4738 4.48283 36.1353 4.39312 36.0552C4.19574 35.883 4.10303 35.8681 4.07313 35.8741C3.66641 35.9958 3.59763 36.1145 3.23278 36.3253C2.4313 36.7023 1.99767 36.7855 1.83319 36.833C1.83319 36.833 2.00365 37.1477 2.37448 37.1061C2.38645 37.1061 2.39841 37.1031 2.41336 37.1002C2.42532 37.0972 2.44028 37.0942 2.45224 37.0912C2.45523 37.0912 2.45822 37.0912 2.46121 37.0883C2.47317 37.0853 2.48513 37.0823 2.4971 37.0794C2.51205 37.0764 2.527 37.0705 2.54196 37.0645C3.05633 36.8953 3.89967 36.5153 4.10303 36.4411C4.30639 36.3698 4.68021 36.4886 4.94039 36.6192C5.7 36.9992 5.85551 36.7884 6.33101 37.0259C6.49549 37.1091 6.68389 37.3614 6.77361 37.8305C6.7766 37.8394 6.82146 37.4297 6.82744 37.4326L6.68389 37.1209C6.68987 37.1239 6.69585 37.1239 6.70184 37.1239C6.70184 37.1239 6.70184 37.1239 6.70483 37.1239C6.7138 37.1239 6.71978 37.1209 6.72875 37.1209H6.73174C6.73772 37.118 6.7467 37.115 6.75268 37.112H6.75567C6.76763 37.1031 6.77959 37.0912 6.79454 37.0823Z" fill="white"/>
<path fill-rule="evenodd" clip-rule="evenodd" d="M4.11499 36.0937C4.10901 36.1352 4.13891 36.1738 4.18078 36.1797C4.22265 36.1857 4.26153 36.156 4.26751 36.1144C4.27349 36.0729 4.24358 36.0343 4.20172 36.0283C4.15985 36.0224 4.12097 36.0521 4.11499 36.0937Z" fill="white"/>
<path fill-rule="evenodd" clip-rule="evenodd" d="M4.12995 36.0937C4.12397 36.1264 4.14789 36.159 4.18079 36.162C4.21368 36.165 4.24359 36.1442 4.24957 36.1086C4.25256 36.0759 4.23163 36.0462 4.19873 36.0403C4.16583 36.0373 4.13593 36.0611 4.12995 36.0937Z" fill="white"/>
<path fill-rule="evenodd" clip-rule="evenodd" d="M4.14192 36.1621C4.14192 36.1621 3.78604 36.1235 3.74118 35.9721C3.74118 35.9721 3.7681 35.886 3.81295 35.9305C3.93856 36.0522 3.99239 36.0166 4.19874 36.0463C4.19874 36.0433 4.26154 36.1561 4.14192 36.1621Z" fill="#BCBEC0"/>
<path fill-rule="evenodd" clip-rule="evenodd" d="M3.65148 36.3727C3.63951 36.4143 3.66643 36.4558 3.7083 36.4648C3.75016 36.4766 3.79203 36.4499 3.801 36.4083C3.80998 36.3668 3.78605 36.3252 3.74418 36.3163C3.70531 36.3074 3.66344 36.3312 3.65148 36.3727Z" fill="white"/>
<path fill-rule="evenodd" clip-rule="evenodd" d="M3.66941 36.3786C3.66044 36.4112 3.68137 36.4439 3.71427 36.4528C3.74717 36.4617 3.78006 36.4409 3.78903 36.4083C3.79801 36.3756 3.77707 36.343 3.74418 36.3341C3.70829 36.3252 3.67539 36.343 3.66941 36.3786Z" fill="white"/>
<path fill-rule="evenodd" clip-rule="evenodd" d="M3.6724 36.444C3.6724 36.444 3.32251 36.3668 3.29559 36.2095C3.29559 36.2095 3.33148 36.1263 3.37036 36.1738C3.48101 36.3104 3.53783 36.2777 3.74119 36.3312C3.74418 36.3342 3.79203 36.4499 3.6724 36.444Z" fill="#BCBEC0"/>
<path fill-rule="evenodd" clip-rule="evenodd" d="M3.18493 36.5894C3.16998 36.628 3.19091 36.6725 3.22979 36.6874C3.26867 36.7022 3.31353 36.6814 3.33147 36.6428C3.34642 36.6042 3.32549 36.5597 3.28661 36.5449C3.24474 36.53 3.19989 36.5508 3.18493 36.5894Z" fill="white"/>
<path fill-rule="evenodd" clip-rule="evenodd" d="M3.19989 36.5953C3.18793 36.628 3.20288 36.6607 3.23578 36.6725C3.26868 36.6844 3.30157 36.6696 3.31353 36.6369C3.3255 36.6072 3.31054 36.5716 3.27765 36.5597C3.24774 36.5479 3.21185 36.5627 3.19989 36.5953Z" fill="white"/>
<path fill-rule="evenodd" clip-rule="evenodd" d="M3.19691 36.6636C3.19691 36.6636 2.86795 36.5508 2.86197 36.3964C2.86197 36.3964 2.90683 36.3163 2.93972 36.3697C3.03243 36.5181 3.08327 36.4855 3.27766 36.5597C3.28065 36.5597 3.31654 36.6844 3.19691 36.6636Z" fill="#BCBEC0"/>
<path fill-rule="evenodd" clip-rule="evenodd" d="M2.69747 36.7617C2.67653 36.7973 2.68849 36.8448 2.72438 36.8686C2.76027 36.8893 2.80812 36.8775 2.82905 36.8418C2.84998 36.8062 2.83802 36.7587 2.80213 36.7379C2.76625 36.7142 2.7184 36.7261 2.69747 36.7617Z" fill="white"/>
<path fill-rule="evenodd" clip-rule="evenodd" d="M2.71242 36.7706C2.69448 36.8003 2.70345 36.836 2.73336 36.8538C2.76326 36.8716 2.79915 36.8627 2.81709 36.833C2.83504 36.8033 2.82606 36.7677 2.79616 36.7499C2.76625 36.732 2.72738 36.741 2.71242 36.7706Z" fill="white"/>
<path fill-rule="evenodd" clip-rule="evenodd" d="M2.69748 36.836C2.69748 36.836 2.41637 36.7024 2.4373 36.545C2.4373 36.545 2.49412 36.4738 2.51805 36.5331C2.58384 36.6935 2.61674 36.64 2.79617 36.7469C2.79617 36.7499 2.80813 36.8775 2.69748 36.836Z" fill="#BCBEC0"/>
<path fill-rule="evenodd" clip-rule="evenodd" d="M3.90567 36.2301C3.89969 36.2717 3.92959 36.3103 3.97146 36.3162C4.01333 36.3222 4.05221 36.2925 4.05819 36.2509C4.06417 36.2094 4.03426 36.1708 3.9924 36.1648C3.95053 36.1589 3.91165 36.1886 3.90567 36.2301Z" fill="white"/>
<path fill-rule="evenodd" clip-rule="evenodd" d="M3.92062 36.2331C3.91464 36.2657 3.93857 36.2954 3.97445 36.3013C4.00735 36.3073 4.03726 36.2835 4.04324 36.2479C4.04922 36.2152 4.02529 36.1856 3.9924 36.1796C3.95651 36.1737 3.92661 36.1974 3.92062 36.2331Z" fill="white"/>
<path fill-rule="evenodd" clip-rule="evenodd" d="M3.90266 35.8918C3.90266 35.8918 3.6664 35.9067 3.82191 36.1412C3.9206 36.2867 3.96546 36.2689 3.9834 36.2451C4.00733 36.2154 4.03125 36.2065 3.94453 36.1293C3.83986 36.0403 3.85182 35.8948 3.90266 35.8918Z" fill="white"/>
<path fill-rule="evenodd" clip-rule="evenodd" d="M3.43016 36.4855C3.4182 36.5271 3.44511 36.5686 3.48698 36.5775C3.52885 36.5894 3.57072 36.5627 3.57969 36.5211C3.58866 36.4796 3.56474 36.438 3.52287 36.4291C3.481 36.4202 3.43913 36.444 3.43016 36.4855Z" fill="white"/>
<path fill-rule="evenodd" clip-rule="evenodd" d="M3.44511 36.4914C3.43614 36.5241 3.45707 36.5567 3.48997 36.5656C3.52286 36.5745 3.55576 36.5538 3.56473 36.5211C3.5737 36.4885 3.55277 36.4558 3.51987 36.4469C3.48698 36.438 3.45408 36.4588 3.44511 36.4914Z" fill="white"/>
<path fill-rule="evenodd" clip-rule="evenodd" d="M3.46604 36.1382C3.46604 36.1382 3.22679 36.1412 3.35539 36.3906C3.43912 36.5479 3.48398 36.5331 3.50492 36.5123C3.53183 36.4885 3.55875 36.4796 3.478 36.3935C3.38529 36.2896 3.4152 36.1353 3.46604 36.1382Z" fill="white"/>
<path fill-rule="evenodd" clip-rule="evenodd" d="M2.95166 36.6756C2.9367 36.7142 2.95764 36.7587 2.99652 36.7735C3.03539 36.7884 3.08025 36.7706 3.0952 36.729C3.11016 36.6904 3.08922 36.6459 3.05035 36.631C3.01147 36.6162 2.96661 36.637 2.95166 36.6756Z" fill="white"/>
<path fill-rule="evenodd" clip-rule="evenodd" d="M2.96662 36.6815C2.95465 36.7142 2.96961 36.7468 3.0025 36.7587C3.0354 36.7706 3.0683 36.7557 3.08026 36.7231C3.09222 36.6904 3.07727 36.6578 3.04437 36.6459C3.01447 36.634 2.97858 36.6489 2.96662 36.6815Z" fill="white"/>
<path fill-rule="evenodd" clip-rule="evenodd" d="M3.0354 36.3549C3.0354 36.3549 2.79017 36.3074 2.88886 36.5716C2.95166 36.7378 2.99951 36.7289 3.02344 36.7111C3.05334 36.6904 3.08026 36.6844 3.01147 36.5894C2.92774 36.4766 2.98456 36.346 3.0354 36.3549Z" fill="white"/>
<path fill-rule="evenodd" clip-rule="evenodd" d="M2.45226 36.8062C2.43132 36.8419 2.44328 36.8894 2.47917 36.9101C2.51506 36.9309 2.56291 36.919 2.58384 36.8834C2.60478 36.8478 2.59281 36.8003 2.55693 36.7795C2.52104 36.7587 2.47319 36.7706 2.45226 36.8062Z" fill="white"/>
<path fill-rule="evenodd" clip-rule="evenodd" d="M2.46422 36.8151C2.44628 36.8448 2.45525 36.8804 2.48516 36.8982C2.51506 36.916 2.55095 36.9071 2.56889 36.8774C2.58684 36.8477 2.57487 36.8121 2.54796 36.7943C2.52104 36.7765 2.48217 36.7854 2.46422 36.8151Z" fill="white"/>
<path fill-rule="evenodd" clip-rule="evenodd" d="M2.61673 36.5122C2.61673 36.5122 2.35655 36.4143 2.41038 36.6904C2.44328 36.8625 2.49112 36.8655 2.51804 36.8507C2.55094 36.8329 2.57785 36.8358 2.52701 36.729C2.46421 36.6072 2.56888 36.4974 2.61673 36.5122Z" fill="white"/>
<path fill-rule="evenodd" clip-rule="evenodd" d="M3.90268 35.9424C3.90268 35.9424 4.6563 35.7642 4.48285 35.3931C4.31239 35.025 3.95053 35.7167 3.89072 35.9008L3.93557 35.8978C3.93557 35.8978 4.13893 35.4436 4.30042 35.3991C4.46192 35.3575 4.44696 35.4941 4.4021 35.5505C4.36323 35.601 4.2436 35.7613 4.01034 35.886C3.99539 35.8949 3.93258 35.886 3.91763 35.8919C3.90268 35.9067 3.9266 35.9335 3.90268 35.9424Z" fill="#BCBEC0"/>
<path fill-rule="evenodd" clip-rule="evenodd" d="M3.9924 35.8532C3.9924 35.8532 4.20772 35.3842 3.9924 35.1704C3.77708 34.9537 3.59166 35.0873 3.74717 35.5148C3.90268 35.9452 3.90268 35.9452 3.90268 35.9452L3.95651 35.9037C3.95651 35.9037 3.82792 35.6038 3.801 35.4406C3.77409 35.2773 3.76212 35.1021 3.86679 35.1882C3.97146 35.2743 4.03726 35.3485 3.99838 35.6009C3.98043 35.7226 3.93259 35.8235 3.9266 35.877C3.92062 35.9334 3.95352 35.9334 3.95352 35.9334L3.9924 35.8532Z" fill="#BCBEC0"/>
<path fill-rule="evenodd" clip-rule="evenodd" d="M3.87276 35.9127C3.87276 35.9127 3.798 35.9424 3.59763 35.9394C3.39726 35.9364 3.20587 36.1086 3.20587 36.1235C3.20587 36.1413 3.15204 36.1413 3.15204 36.1413C3.15204 36.1413 3.12213 36.1056 3.16699 36.0314C3.21185 35.9572 3.31054 35.8206 3.59165 35.8652C3.87277 35.9127 3.9565 35.88 3.9565 35.88C3.9565 35.88 4.02528 35.9424 3.87276 35.9127Z" fill="#D1D3D4"/>
<path fill-rule="evenodd" clip-rule="evenodd" d="M3.98043 35.874C3.98043 35.874 3.71726 35.9868 3.56474 36.0225C3.41222 36.0581 3.21484 36.2065 3.12512 36.2036C3.0384 36.2006 3.05335 36.2718 3.05335 36.2718C3.05335 36.2718 3.09821 36.3134 3.37035 36.1561C3.64249 36.0017 3.75913 36.0225 3.84585 35.9809C3.93856 35.9334 3.97445 35.9334 3.98043 35.874Z" fill="#D1D3D4"/>
<path d="M6.81249 38.3351C6.79754 38.2816 6.78856 38.1302 6.78856 38.0708C6.60016 38.1035 5.72691 38.3499 4.47087 38.2312C4.00435 38.1866 3.24175 38.1748 2.70644 38.0976C2.17113 38.0233 1.45638 37.8749 1.14536 37.7799C0.834343 37.6879 0.514352 37.5454 0.319965 37.4385C0.269125 37.4118 0.185389 37.3405 0.206323 37.198C0.224267 37.0704 0.206323 36.9398 0.110625 37.0555C0.0508139 37.1268 0.0179177 37.3435 0.0119365 37.4029C0.0059554 37.5009 0.281088 37.6938 0.613041 37.8957C1.01378 38.1391 1.78235 38.439 3.14007 38.5874C4.06715 38.6883 4.68619 38.7774 5.22151 38.8635C6.74071 39.101 6.7766 38.8427 6.8095 38.5874C6.81847 38.4954 6.82146 38.3648 6.81249 38.3351Z" fill="#D3D5D6"/>
<path d="M6.42669 38.4419C6.42669 38.4419 5.4428 38.5517 5.0301 38.4953C4.38713 38.4092 4.76992 38.6022 5.42485 38.7566C6.53136 39.0178 6.84836 38.4775 6.42669 38.4419Z" fill="#ABADB0"/>
<path d="M2.28177 38.3855C2.28177 38.3855 1.13937 38.24 0.442566 37.7354C0.442566 37.7354 0.879189 37.8689 1.18124 37.9639C2.29074 38.3113 2.47316 38.0797 2.28177 38.3855Z" fill="#ABADB0"/>
<path d="M13.6429 19.0858C13.6429 19.0858 13.4695 21.0185 12.1925 23.0906C10.763 25.4092 10.4879 27.0182 10.4879 27.0182L6.60315 25.8248L9.75521 17.9429L13.6429 19.0858Z" fill="#E50914"/>
<path d="M14.8332 27.8645C14.8332 28.2415 12.3421 28.6572 12.1058 28.0367C11.7469 26.7364 9.27972 19.9499 10.8528 18.9465C10.8528 18.9465 13.3409 16.4706 14.4175 19.2879C15.21 21.3601 14.7226 24.4119 14.8093 25.5459C14.8541 26.1694 14.902 27.2322 14.8332 27.8645Z" fill="#E4AE84"/>
<path d="M13.2512 26.3324C13.4725 26.3028 15.0096 26.3028 15.2818 26.1632C16.1401 25.7209 18.3441 25.7565 19.7975 26.1573C21.0177 26.4928 23.1081 26.6887 23.1081 26.6887L23.7331 28.1018C23.7331 28.1018 21.3168 28.3304 18.5594 28.5857C16.5468 28.7727 15.0186 29.1587 14.0915 29.1973C13.7536 29.0874 13.0209 26.4779 13.2512 26.3324Z" fill="#E4AE84"/>
<path d="M23.6614 28.1671L22.4023 28.2325C22.4023 28.2325 22.8808 27.1993 22.6087 26.6145L23.2905 26.6472C23.2935 26.6442 23.9305 26.7422 23.6614 28.1671Z" fill="white"/>
<path d="M12.357 25.6438C12.357 25.6438 11.9563 27.235 12.1058 28.0366C12.2553 28.8381 12.5095 28.8322 12.8804 29.1024C13.3618 29.4527 14.7435 29.1499 14.7435 29.1499C14.7435 29.1499 13.0478 27.4666 13.0329 27.428C13.0149 27.3835 12.357 25.6438 12.357 25.6438Z" fill="#E4AE84"/>
<path d="M24.6124 25.3173C24.8636 25.2757 25.1118 25.2817 25.3421 26.8314C25.4258 27.3924 25.4647 28.0574 25.689 28.9985C26.0179 30.3938 25.9372 31.2725 25.8265 31.7505C25.7368 32.1454 25.6321 32.4808 25.5365 32.5046C25.5215 32.5075 25.5065 32.5105 25.4946 32.5105C25.5454 32.5046 25.5903 32.4957 25.6232 32.4897C25.7189 32.466 25.8206 32.1305 25.9133 31.7357C26.0239 31.2577 26.0777 30.4116 25.8056 29.0015C25.6172 28.0367 25.5125 27.3776 25.4318 26.8165C25.1955 25.2193 24.9383 25.2639 24.6782 25.3054C24.6572 25.3084 24.6363 25.3114 24.6124 25.3173Z" fill="white"/>
<path d="M22.1332 25.92C22.1212 25.9794 22.184 26.0358 22.3036 26.0685C22.504 26.1249 22.6804 26.0774 22.6864 26.0744L22.6834 26.0685C22.7492 26.0804 22.818 26.0833 22.8958 26.0655L22.8808 25.9883C22.7402 26.018 22.6356 25.9794 22.516 25.9319C22.4561 25.9111 22.3963 25.8874 22.3305 25.8725C22.169 25.8369 22.1391 25.8933 22.1332 25.92ZM22.3126 25.9497C22.3754 25.9646 22.4322 25.9854 22.489 26.0061C22.498 26.0091 22.507 26.015 22.516 26.018C22.4591 26.018 22.3903 26.015 22.3186 25.9943C22.2558 25.9764 22.2229 25.9557 22.2109 25.9438C22.2289 25.9379 22.2618 25.9379 22.3126 25.9497Z" fill="#0D0B42"/>
<path fill-rule="evenodd" clip-rule="evenodd" d="M24.7798 26.7572C24.8396 27.0838 24.9503 27.3391 25.0938 27.8111C25.2374 28.2831 25.4407 28.9897 25.5334 29.5508C25.6261 30.1119 25.6561 30.9223 25.662 31.2667C25.671 31.8426 25.5275 32.4334 25.5185 32.4453L25.369 32.5076C25.369 32.5076 25.2374 32.475 25.1477 32.3681C25.0579 32.2612 24.9563 32.0118 24.6423 31.3409C24.2385 30.4829 24.0681 30.2098 23.6733 29.8091C23.2786 29.4083 22.8988 28.8947 22.9197 28.7344C22.9406 28.5741 23.0752 28.2831 23.1619 27.725C23.3324 26.6266 23.4191 27.1817 23.0333 26.4574C22.8599 26.1308 22.4591 26.1753 22.5399 26.1368C22.5399 26.1368 22.8659 26.11 23.0752 25.8903C23.3324 25.6172 23.8049 25.4807 24.3253 25.4658C24.5585 25.7775 24.72 26.4396 24.7798 26.7572Z" fill="white"/>
<path fill-rule="evenodd" clip-rule="evenodd" d="M22.4562 28.0811C22.3305 28.2087 22.178 28.2147 22.0883 28.3928C22.0405 28.4848 22.1511 28.6837 22.6236 28.8945C23.0333 29.0786 23.3922 29.509 23.3922 29.509L23.3862 29.4853C23.9156 30.0523 24.1877 30.5689 24.1877 30.5689L24.2894 30.4976C23.8767 29.8623 23.464 29.2953 23.1679 28.9004C23.0782 28.7223 23.138 28.4225 23.0602 28.3156C22.83 27.992 22.5369 27.9979 22.4562 28.0811Z" fill="#0D0B42"/>
<path fill-rule="evenodd" clip-rule="evenodd" d="M25.4198 32.3888C25.5424 32.3443 25.5663 32.2404 25.5753 32.181C25.5813 32.1543 25.5873 32.1246 25.5903 32.092V32.089C25.5962 32.0563 25.5992 32.0267 25.6052 31.991C25.6052 31.991 25.6052 31.991 25.6052 31.9881C25.6112 31.9524 25.6142 31.9168 25.6202 31.8812V31.8782C25.6232 31.8426 25.6291 31.807 25.6321 31.7684C25.6321 31.7654 25.6321 31.7624 25.6321 31.7595C25.6351 31.7209 25.6411 31.6823 25.6441 31.6437C25.6441 31.6437 25.6441 31.6437 25.6441 31.6407C25.6471 31.6021 25.6501 31.5606 25.6531 31.522C25.6531 31.519 25.6531 31.516 25.6531 31.5131C25.656 31.4745 25.656 31.4359 25.656 31.3973C25.656 31.3943 25.656 31.3914 25.656 31.3884C25.656 31.3468 25.656 31.3053 25.656 31.2667C25.6501 30.9223 25.6172 30.1118 25.5275 29.5508C25.4347 28.9897 25.2344 28.2801 25.0878 27.8111C24.9712 27.44 24.6123 25.7449 24.3731 25.4302C24.3312 25.4302 24.1787 25.4836 24.1368 25.4866C24.1727 25.5222 24.3462 25.7003 24.394 25.7686C24.7021 26.2317 24.9802 27.7844 25.1447 28.3098C25.3091 28.8383 25.6321 29.9961 25.4647 31.5813C25.4647 31.5813 25.345 32.2909 25.043 31.8396C24.7798 31.4478 24.2894 30.4978 24.2894 30.4978L24.1638 30.5215C24.9652 31.8753 24.705 31.9999 24.9772 32.3206C25.0191 32.371 25.1865 32.5165 25.3151 32.4957C25.3151 32.472 25.342 32.4156 25.4198 32.3888Z" fill="#E50914"/>
<path d="M24.1757 25.4688C23.6942 25.4955 23.3144 25.6291 23.0722 25.8873C23.0602 25.8992 23.0483 25.9111 23.0363 25.923C23.0602 25.9942 23.1201 26.0239 23.2636 25.9052C23.5148 25.6944 24.0292 25.5667 24.2176 25.5281C24.1967 25.5133 24.1877 25.4925 24.1757 25.4688Z" fill="white"/>
<path fill-rule="evenodd" clip-rule="evenodd" d="M24.6064 30.5451C24.6064 30.5451 24.1727 30.272 24.3432 30.7381C24.406 30.9073 25.0789 32.2937 25.2852 32.1453C25.4198 32.0503 25.4348 32.0889 25.5245 31.7593C25.6142 31.4268 25.5305 29.9425 25.5005 30.2186C25.4348 30.8182 25.1985 30.75 24.8486 30.4234C24.5017 30.0968 24.4 29.9543 24.4 29.9543L24.6064 30.5451Z" fill="#E50914"/>
<path d="M24.4598 30.1148C24.4598 30.1148 25.3181 28.4463 25.4676 29.6902C25.4676 29.6902 25.4048 28.7877 25.2284 28.6215C25.052 28.4523 24.5495 28.761 24.1039 29.6101L24.4598 30.1148Z" fill="#E50914"/>
<path d="M23.9514 29.4884C23.9514 29.4884 24.9503 27.7369 25.2463 28.6156C25.2463 28.6156 25.1776 27.921 24.9772 27.7814C24.5765 27.4994 24.0411 28.1317 23.5926 28.9838L23.9514 29.4884Z" fill="#E50914"/>
<path d="M23.4939 28.8442C23.4939 28.8442 24.6722 26.7572 25.031 27.7309C25.031 27.7309 24.9443 26.8641 24.7469 26.7245C24.4957 26.5494 23.775 27.6923 23.2187 26.7186C23.1081 26.5256 23.2786 28.1406 23.1111 28.4583L23.4939 28.8442Z" fill="#E50914"/>
<path fill-rule="evenodd" clip-rule="evenodd" d="M23.1889 25.7804C23.147 25.813 23.1051 25.8486 23.0692 25.8872C23.0603 25.8961 23.0513 25.9021 23.0453 25.911C22.7911 26.0565 22.5489 26.0743 22.5489 26.0743C22.0016 26.1425 22.3395 26.3711 22.4263 26.383C22.6177 26.4097 23.0333 26.3533 23.1171 27.1875C23.1889 27.8822 22.9855 28.3869 22.9376 28.5027C22.833 28.752 22.8479 28.85 22.8599 28.8797C23.0991 29.2508 23.2367 29.2834 23.5507 29.5863C24.1578 30.275 24.3701 30.6847 24.4658 30.8361C24.4658 30.8361 24.717 30.5689 24.5615 30.2097C24.5555 30.1978 24.5496 30.1859 24.5436 30.1741C24.5376 30.1622 24.5316 30.1473 24.5226 30.1355C24.5226 30.1325 24.5197 30.1295 24.5197 30.1295C24.5137 30.1177 24.5077 30.1087 24.5017 30.0969C24.4927 30.082 24.4838 30.0702 24.4748 30.0553C24.1548 29.5922 23.5298 28.8619 23.3982 28.6808C23.2666 28.4997 23.2666 28.0871 23.3115 27.7872C23.443 26.9085 23.1948 26.8164 23.2786 26.2672C23.3085 26.0772 23.4939 25.8101 23.9156 25.5755C23.9215 25.5726 23.5148 25.6497 23.5178 25.6438C23.5178 25.6408 23.2636 25.8843 23.2636 25.8813C23.2636 25.8754 23.2636 25.8694 23.2606 25.8635V25.8605C23.2576 25.8546 23.2546 25.8457 23.2487 25.8397C23.2487 25.8397 23.2487 25.8397 23.2457 25.8368C23.2427 25.8308 23.2367 25.8249 23.2307 25.819C23.2188 25.8041 23.2038 25.7922 23.1889 25.7804Z" fill="white"/>
<path fill-rule="evenodd" clip-rule="evenodd" d="M23.0602 28.7729C23.1021 28.7669 23.129 28.7224 23.123 28.6809C23.1171 28.6363 23.0752 28.6066 23.0333 28.6126C22.9915 28.6185 22.9645 28.6601 22.9705 28.7046C22.9795 28.7521 23.0184 28.7818 23.0602 28.7729Z" fill="white"/>
<path fill-rule="evenodd" clip-rule="evenodd" d="M23.0573 28.758C23.0901 28.752 23.1141 28.7194 23.1081 28.6837C23.1021 28.6481 23.0692 28.6244 23.0363 28.6303C23.0034 28.6362 22.9795 28.6689 22.9855 28.7045C22.9915 28.7372 23.0244 28.7639 23.0573 28.758Z" fill="white"/>
<path fill-rule="evenodd" clip-rule="evenodd" d="M23.1171 28.7255C23.1171 28.7255 23.1888 29.0966 23.0543 29.1857C23.0543 29.1857 22.9615 29.1857 22.9915 29.1263C23.0722 28.963 23.0184 28.9214 22.9855 28.7047C22.9855 28.7047 23.0752 28.6068 23.1171 28.7255Z" fill="#BCBEC0"/>
<path fill-rule="evenodd" clip-rule="evenodd" d="M23.4699 29.15C23.5118 29.1471 23.5447 29.1085 23.5417 29.0639C23.5387 29.0194 23.5028 28.9838 23.461 28.9867C23.4191 28.9897 23.3862 29.0253 23.3892 29.0728C23.3922 29.1203 23.4281 29.153 23.4699 29.15Z" fill="white"/>
<path fill-rule="evenodd" clip-rule="evenodd" d="M23.47 29.1352C23.5028 29.1322 23.5298 29.1025 23.5268 29.0669C23.5238 29.0313 23.4939 29.0046 23.461 29.0075C23.4281 29.0105 23.4012 29.0402 23.4042 29.0758C23.4071 29.1085 23.4371 29.1352 23.47 29.1352Z" fill="white"/>
<path fill-rule="evenodd" clip-rule="evenodd" d="M23.5328 29.1084C23.5328 29.1084 23.5657 29.4824 23.4221 29.5567C23.4221 29.5567 23.3294 29.5478 23.3653 29.4913C23.461 29.3399 23.4131 29.2895 23.4012 29.0728C23.4042 29.0728 23.5029 28.9867 23.5328 29.1084Z" fill="#BCBEC0"/>
<path fill-rule="evenodd" clip-rule="evenodd" d="M23.8228 29.5536C23.8647 29.5565 23.9006 29.5239 23.9036 29.4793C23.9066 29.4348 23.8737 29.3962 23.8288 29.3933C23.787 29.3903 23.7511 29.4229 23.7481 29.4675C23.7451 29.512 23.778 29.5506 23.8228 29.5536Z" fill="white"/>
<path fill-rule="evenodd" clip-rule="evenodd" d="M23.8228 29.5358C23.8557 29.5388 23.8856 29.5121 23.8856 29.4765C23.8886 29.4408 23.8617 29.4112 23.8288 29.4082C23.7959 29.4052 23.766 29.4319 23.763 29.4676C23.763 29.5032 23.7899 29.5358 23.8228 29.5358Z" fill="white"/>
<path fill-rule="evenodd" clip-rule="evenodd" d="M23.8886 29.5209C23.8886 29.5209 23.8826 29.8831 23.7331 29.9395C23.7331 29.9395 23.6434 29.9187 23.6853 29.8683C23.7989 29.7287 23.7511 29.6872 23.766 29.4704C23.763 29.4675 23.8737 29.3962 23.8886 29.5209Z" fill="#BCBEC0"/>
<path fill-rule="evenodd" clip-rule="evenodd" d="M24.1369 29.99C24.1787 30.0019 24.2206 29.9752 24.2296 29.9306C24.2385 29.8861 24.2146 29.8445 24.1727 29.8327C24.1309 29.8208 24.089 29.8475 24.08 29.892C24.0681 29.9366 24.095 29.9811 24.1369 29.99Z" fill="white"/>
<path fill-rule="evenodd" clip-rule="evenodd" d="M24.1398 29.9751C24.1727 29.984 24.2056 29.9633 24.2146 29.9276C24.2206 29.892 24.2026 29.8594 24.1668 29.8504C24.1339 29.8415 24.101 29.8623 24.092 29.8979C24.086 29.9306 24.1069 29.9662 24.1398 29.9751Z" fill="white"/>
<path fill-rule="evenodd" clip-rule="evenodd" d="M24.2086 29.9694C24.2086 29.9694 24.1667 30.2929 24.0112 30.3197C24.0112 30.3197 23.9275 30.284 23.9753 30.2425C24.1099 30.1267 24.0471 30.1089 24.095 29.8981C24.095 29.8981 24.2116 29.8447 24.2086 29.9694Z" fill="#BCBEC0"/>
<path fill-rule="evenodd" clip-rule="evenodd" d="M23.2546 28.9421C23.2965 28.9362 23.3234 28.8917 23.3174 28.8501C23.3115 28.8056 23.2696 28.7759 23.2277 28.7848C23.1859 28.7907 23.1589 28.8323 23.1649 28.8768C23.1739 28.9184 23.2128 28.9481 23.2546 28.9421Z" fill="white"/>
<path fill-rule="evenodd" clip-rule="evenodd" d="M23.2546 28.9242C23.2875 28.9183 23.3085 28.8856 23.3055 28.85C23.2995 28.8144 23.2666 28.7906 23.2337 28.7966C23.2008 28.8025 23.1799 28.8352 23.1859 28.8708C23.1889 28.9064 23.2188 28.9302 23.2546 28.9242Z" fill="white"/>
<path fill-rule="evenodd" clip-rule="evenodd" d="M22.9346 29.0461C22.9346 29.0461 23.0214 29.2806 23.1978 29.0491C23.3085 28.9036 23.2785 28.865 23.2486 28.8531C23.2157 28.8383 23.1978 28.8145 23.15 28.9274C23.0931 29.0669 22.9526 29.0966 22.9346 29.0461Z" fill="white"/>
<path fill-rule="evenodd" clip-rule="evenodd" d="M23.6464 29.34C23.6882 29.337 23.7211 29.2984 23.7182 29.2539C23.7152 29.2093 23.6793 29.1737 23.6344 29.1767C23.5896 29.1797 23.5597 29.2153 23.5626 29.2628C23.5686 29.3073 23.6045 29.3429 23.6464 29.34Z" fill="white"/>
<path fill-rule="evenodd" clip-rule="evenodd" d="M23.6464 29.3222C23.6793 29.3192 23.7062 29.2896 23.7032 29.2539C23.7002 29.2183 23.6733 29.1916 23.6374 29.1946C23.6045 29.1975 23.5776 29.2272 23.5806 29.2628C23.5836 29.2985 23.6135 29.3252 23.6464 29.3222Z" fill="white"/>
<path fill-rule="evenodd" clip-rule="evenodd" d="M23.2995 29.4113C23.2995 29.4113 23.3743 29.6517 23.5746 29.4439C23.7002 29.3133 23.6733 29.2718 23.6464 29.2569C23.6135 29.2391 23.5986 29.2153 23.5417 29.3193C23.473 29.4469 23.3145 29.4617 23.2995 29.4113Z" fill="white"/>
<path fill-rule="evenodd" clip-rule="evenodd" d="M23.9754 29.7645C24.0172 29.7675 24.0531 29.7318 24.0561 29.6903C24.0591 29.6458 24.0262 29.6072 23.9814 29.6042C23.9395 29.6012 23.9036 29.6339 23.9006 29.6784C23.9006 29.72 23.9335 29.7615 23.9754 29.7645Z" fill="white"/>
<path fill-rule="evenodd" clip-rule="evenodd" d="M23.9784 29.7468C24.0113 29.7497 24.0412 29.723 24.0442 29.6874C24.0442 29.6518 24.0202 29.6221 23.9873 29.6191C23.9544 29.6162 23.9245 29.6429 23.9245 29.6785C23.9185 29.7141 23.9425 29.7438 23.9784 29.7468Z" fill="white"/>
<path fill-rule="evenodd" clip-rule="evenodd" d="M23.6434 29.7764C23.6434 29.7764 23.6733 30.0377 23.8946 29.8566C24.0352 29.7438 24.0142 29.6992 23.9873 29.6785C23.9574 29.6577 23.9454 29.631 23.8767 29.7289C23.7899 29.8477 23.6494 29.8299 23.6434 29.7764Z" fill="white"/>
<path fill-rule="evenodd" clip-rule="evenodd" d="M24.2535 30.2246C24.2954 30.2365 24.3372 30.2098 24.3462 30.1652C24.3552 30.1207 24.3312 30.0762 24.2894 30.0673C24.2475 30.0554 24.2056 30.0821 24.1967 30.1266C24.1877 30.1682 24.2116 30.2127 24.2535 30.2246Z" fill="white"/>
<path fill-rule="evenodd" clip-rule="evenodd" d="M24.2595 30.2068C24.2924 30.2157 24.3253 30.1949 24.3342 30.1593C24.3432 30.1237 24.3223 30.091 24.2894 30.0821C24.2565 30.0732 24.2236 30.094 24.2146 30.1296C24.2056 30.1653 24.2266 30.2009 24.2595 30.2068Z" fill="white"/>
<path fill-rule="evenodd" clip-rule="evenodd" d="M23.9215 30.1473C23.9215 30.1473 23.9066 30.4382 24.1578 30.2987C24.3133 30.2126 24.3013 30.1651 24.2774 30.1414C24.2505 30.1146 24.2445 30.085 24.1578 30.1681C24.0561 30.272 23.9215 30.2007 23.9215 30.1473Z" fill="white"/>
<path fill-rule="evenodd" clip-rule="evenodd" d="M22.9795 29.0312C22.9795 29.0312 22.5787 28.3305 22.2767 28.6155C21.9746 28.9005 22.7492 29.0519 22.9436 29.0549L22.9286 29.0104C22.9286 29.0104 22.4292 28.9451 22.3395 28.7966C22.2498 28.6482 22.3873 28.6215 22.4531 28.6482C22.513 28.672 22.7043 28.7402 22.8957 28.9391C22.9077 28.951 22.9197 29.0163 22.9316 29.0282C22.9466 29.043 22.9645 29.0104 22.9795 29.0312Z" fill="#BCBEC0"/>
<path fill-rule="evenodd" clip-rule="evenodd" d="M22.8659 28.9717C22.8659 28.9717 22.3485 28.8975 22.2079 29.1795C22.0674 29.4616 22.2498 29.607 22.6146 29.3191C22.9795 29.0311 22.9795 29.0311 22.9795 29.0311L22.9227 28.9895C22.9227 28.9895 22.6745 29.2092 22.5249 29.2864C22.3754 29.3636 22.2109 29.4289 22.2618 29.2983C22.3126 29.1677 22.3634 29.0786 22.6176 29.04C22.7402 29.0222 22.8509 29.037 22.9047 29.0281C22.9616 29.0192 22.9496 28.9836 22.9496 28.9836L22.8659 28.9717Z" fill="#BCBEC0"/>
<path fill-rule="evenodd" clip-rule="evenodd" d="M22.9615 29.0697C22.9615 29.0697 23.0154 29.135 23.0722 29.3369C23.129 29.5388 23.3533 29.6783 23.3683 29.6724C23.3832 29.6694 23.4012 29.7228 23.4012 29.7228C23.4012 29.7228 23.3772 29.7644 23.2935 29.7406C23.2098 29.7169 23.0453 29.6635 23.0034 29.3666C22.9615 29.0697 22.9047 28.9955 22.9047 28.9955C22.9047 28.9955 22.9406 28.9094 22.9615 29.0697Z" fill="#D1D3D4"/>
<path fill-rule="evenodd" clip-rule="evenodd" d="M22.8928 28.9747C22.8928 28.9747 23.0812 29.2032 23.1619 29.3457C23.2427 29.4882 23.446 29.6426 23.4699 29.7317C23.4939 29.8207 23.5567 29.7851 23.5567 29.7851C23.5567 29.7851 23.5806 29.7257 23.3503 29.5001C23.1171 29.2745 23.1021 29.1528 23.0333 29.0756C22.9615 28.9984 22.9496 28.9628 22.8928 28.9747Z" fill="#D1D3D4"/>
<path d="M24.388 25.3796C24.3402 25.4123 24.1996 25.4657 24.1398 25.4835C24.2295 25.6646 24.735 26.4632 25.0041 27.7605C25.1028 28.2415 25.3271 29.0104 25.4168 29.5714C25.5095 30.1325 25.5843 30.8925 25.5903 31.2369C25.5962 31.5753 25.5574 31.9405 25.5155 32.1691C25.5035 32.2314 25.4617 32.3323 25.3181 32.3561C25.1895 32.3769 25.0699 32.4333 25.2105 32.4956C25.2972 32.5342 25.5155 32.4986 25.5753 32.4897C25.671 32.4659 25.7727 32.1305 25.8654 31.7386C25.976 31.2606 26.0269 30.3997 25.7547 28.9925C25.5693 28.0307 25.4647 27.3805 25.3809 26.8194C25.1447 25.2223 24.8875 25.2668 24.6303 25.3084C24.5406 25.3262 24.415 25.3618 24.388 25.3796Z" fill="#D3D5D6"/>
<path d="M24.6094 25.733C24.6094 25.733 25.0161 26.689 25.0879 27.1194C25.2015 27.7933 25.2733 27.348 25.2194 26.6415C25.1297 25.454 24.5137 25.2996 24.6094 25.733Z" fill="#ABADB0"/>
<path d="M25.8235 29.9128C25.8235 29.9128 26.0359 31.1033 25.7607 31.9583C25.7607 31.9583 25.7577 31.4803 25.7547 31.1478C25.7488 29.9247 25.4706 29.8119 25.8235 29.9128Z" fill="#ABADB0"/>
<path d="M14.2171 13.6679C14.3996 10.6279 14.3936 9.2089 12.5663 6.75971C12.1417 6.18972 10.5118 7.05064 10.5118 7.05064C10.5118 7.05064 10.3354 7.53751 9.86586 8.34203C8.92383 9.95701 8.90589 11.4651 9.57877 12.1954C9.92268 12.5695 9.8868 13.9024 9.93464 14.5674C10.1619 17.6668 10.4072 18.78 10.8258 20.9561C10.9245 21.4637 14.2291 22.0219 14.7913 21.7903C14.8063 21.1609 14.9857 20.2347 14.881 19.0917C14.7076 17.1769 14.0347 16.6752 14.2171 13.6679Z" fill="#E4AE84"/>
<g opacity="0.26">
<path d="M11.1787 14.9C11.086 14.9504 10.9903 14.992 10.8916 15.0187C10.7959 15.0454 10.6943 15.0573 10.5926 15.0543C10.4879 15.0514 10.3832 15.0306 10.2696 15.0039C10.3473 15.09 10.455 15.1523 10.5716 15.185C10.6883 15.2176 10.8199 15.2147 10.9365 15.182C11.0561 15.1493 11.1638 15.087 11.2535 15.0098C11.3432 14.9297 11.418 14.8376 11.4598 14.7278C11.3641 14.7901 11.2714 14.8495 11.1787 14.9Z" fill="white"/>
<path d="M11.4598 15.3867C11.3701 15.4431 11.2864 15.4936 11.2027 15.5352C11.1189 15.5797 11.0352 15.6153 10.9485 15.6391C10.8617 15.6628 10.775 15.6747 10.6823 15.6717C10.5896 15.6717 10.4939 15.6539 10.3922 15.6331C10.461 15.7133 10.5567 15.7727 10.6614 15.8023C10.769 15.832 10.8857 15.832 10.9933 15.7994C11.101 15.7697 11.1967 15.7133 11.2774 15.642C11.3582 15.5737 11.424 15.4877 11.4598 15.3867Z" fill="white"/>
<path d="M11.0053 16.3339C10.9455 16.3487 10.8887 16.3606 10.8229 16.3606C10.7601 16.3636 10.6913 16.3576 10.6105 16.3517C10.6554 16.417 10.7242 16.4675 10.8019 16.4912C10.8797 16.518 10.9694 16.518 11.0501 16.4942C11.1309 16.4734 11.2027 16.4289 11.2595 16.3725C11.3163 16.3161 11.3612 16.2508 11.3791 16.1736C11.3073 16.2062 11.2445 16.2389 11.1817 16.2656C11.1219 16.2923 11.0621 16.3161 11.0053 16.3339Z" fill="white"/>
<path d="M12.8684 10.9931C12.8594 10.9307 12.8535 10.8684 12.8505 10.8031C12.8445 10.6903 12.8475 10.5745 12.8594 10.4617C12.7936 10.5329 12.7338 10.6071 12.68 10.6843C12.677 10.7259 12.677 10.7704 12.677 10.812C12.677 10.8803 12.683 10.9456 12.689 11.0138C12.695 11.0821 12.7099 11.1504 12.7189 11.2098C12.7338 11.3285 12.7219 11.4503 12.68 11.566C12.6381 11.6818 12.5664 11.7887 12.4737 11.8837C12.2912 12.0766 12.0281 12.2191 11.7529 12.3171C11.4748 12.4181 11.1728 12.4685 10.8707 12.4834C10.5687 12.4952 10.2636 12.4656 9.98849 12.3646C9.85093 12.3171 9.72233 12.2488 9.61467 12.1627C9.50402 12.0767 9.4143 11.9698 9.3515 11.851C9.39337 11.9757 9.47112 12.0945 9.5728 12.1954C9.67448 12.2963 9.80308 12.3765 9.94363 12.4388C10.2247 12.5635 10.5477 12.614 10.8677 12.614C11.1877 12.614 11.5107 12.5635 11.8157 12.4626C12.1178 12.3616 12.4079 12.2102 12.6262 11.9876C12.7338 11.8748 12.8176 11.7471 12.8654 11.6076C12.9133 11.4681 12.9252 11.3226 12.9043 11.186C12.8923 11.1118 12.8774 11.0554 12.8684 10.9931Z" fill="white"/>
<path d="M11.9114 14.0687C12.0101 14.0954 12.1118 14.1251 12.2135 14.1251C12.1178 14.0895 12.0311 14.042 11.9413 13.9945C11.8546 13.947 11.7679 13.8935 11.6841 13.8431C11.5137 13.7392 11.3492 13.6293 11.1817 13.5224C11.0113 13.4096 10.8318 13.3087 10.6404 13.2345C10.5447 13.1959 10.4431 13.1662 10.3414 13.1484C10.2905 13.1395 10.2367 13.1335 10.1859 13.1335C10.135 13.1335 10.0812 13.1365 10.0334 13.1543C10.0842 13.1543 10.132 13.1662 10.1799 13.1781C10.2277 13.1929 10.2756 13.2078 10.3205 13.2256C10.4132 13.2612 10.4999 13.3057 10.5866 13.3532C10.7601 13.4453 10.9275 13.5521 11.092 13.662C11.2625 13.7718 11.4389 13.8757 11.6273 13.9588C11.72 14.0004 11.8157 14.036 11.9114 14.0687Z" fill="white"/>
<path d="M11.7111 13.1187C11.6034 13.1187 11.4928 13.1038 11.3761 13.0831C11.4629 13.1662 11.5735 13.2196 11.6961 13.2463C11.8157 13.2731 11.9443 13.2701 12.0669 13.2404C12.1866 13.2107 12.3002 13.1573 12.3959 13.086C12.4916 13.0118 12.5783 12.9257 12.6322 12.8188C12.5275 12.8782 12.4288 12.9287 12.3301 12.9732C12.2314 13.0178 12.1298 13.0534 12.0281 13.0801C11.9234 13.1038 11.8187 13.1187 11.7111 13.1187Z" fill="white"/>
<path d="M10.141 15.6272C10.1231 15.4223 10.0962 15.2175 10.0663 15.0126C10.0334 14.8078 9.99748 14.6059 9.94365 14.4041C9.92869 14.6119 9.92869 14.8197 9.93468 15.0275C9.94365 15.2353 9.95561 15.4401 9.97355 15.645C9.9915 15.8498 10.0184 16.0547 10.0483 16.2595C10.0812 16.4643 10.1171 16.6662 10.1709 16.8681C10.1859 16.6603 10.1859 16.4525 10.1799 16.2476C10.1739 16.0368 10.159 15.832 10.141 15.6272Z" fill="white"/>
</g>
<path d="M10.3743 6.3263C10.3743 6.3263 10.7152 7.20801 10.2995 7.71862C9.88382 8.22627 12.8295 7.60284 12.8056 7.33566C12.7817 7.06848 12.5305 5.82755 12.68 5.38818C12.68 5.38818 11.4628 6.25208 10.3743 6.3263Z" fill="#E4AE84"/>
<path d="M13.5742 3.75256C13.4216 5.17458 13.5742 6.03254 11.6303 6.24331C10.9335 6.31753 9.98249 6.44222 9.60867 6.45112C8.97766 6.46894 8.81317 5.70004 8.69355 4.06428C8.59785 2.7521 9.19896 1.27665 9.19896 1.27665C9.76118 0.694786 11.1129 0.878846 11.9144 0.964939C13.3977 1.12228 13.7566 2.06336 13.5742 3.75256Z" fill="#E4AE84"/>
<path d="M8.873 2.62134C8.873 2.62134 8.52609 4.14429 8.45731 4.26897C8.38852 4.39366 8.31077 4.61038 8.7145 4.64897C9.13019 4.68756 9.24682 4.53022 9.24682 4.53022L8.873 2.62134Z" fill="#E4AE84"/>
<path d="M11.3462 3.94241C11.3462 3.94241 11.095 5.50395 10.1679 5.61379C10.0782 5.62567 10.0094 5.81863 9.93763 5.88098C9.36942 6.36488 9.00457 5.80973 9.00457 5.80973H8.93579C8.9657 5.97301 8.9956 6.02347 9.03149 6.1066C9.12121 6.31738 9.16906 6.43909 9.32756 6.43909C11.0621 6.51925 11.5854 5.93144 11.6961 5.72957C11.8815 5.38817 11.5256 3.31601 11.3462 3.94241Z" fill="white"/>
<path d="M9.76716 4.88945C9.42624 4.87164 8.79224 4.75586 8.73243 4.99039C8.70551 5.1032 8.77729 5.24867 8.81616 5.26054C8.92681 5.27539 9.33353 5.24867 9.47409 5.23679C9.70137 5.21601 9.85389 5.45648 9.82099 5.78007C9.78511 6.10366 9.8838 6.0235 9.67147 6.07991C9.45913 6.13632 9.73427 6.24616 9.73427 6.24616L10.1111 5.99085C10.1111 5.99382 10.2965 4.91617 9.76716 4.88945Z" fill="white"/>
<path d="M11.095 5.50687C11.095 5.50687 11.1847 5.40593 11.2654 5.26937C11.2804 5.23078 11.2923 5.20703 11.2923 5.20703C11.1667 5.41187 11.095 5.50687 11.095 5.50687Z" fill="white"/>
<path d="M12.4019 2.4907C12.4078 2.3007 12.3779 2.12555 12.345 1.96227C12.3002 1.75149 12.0221 1.41306 11.8845 1.17556C11.8695 1.14587 11.8546 1.11619 11.8396 1.0865C11.8396 1.0865 11.8396 1.0865 11.8396 1.08353C11.8217 1.04494 11.7978 1.00931 11.7679 0.976656C11.6572 0.82822 11.4957 0.700565 11.2445 0.59666C11.2236 0.587754 11.2026 0.578848 11.1817 0.569942C11.1518 0.549161 11.1219 0.531349 11.095 0.510568C10.9754 0.424475 10.8408 0.374007 10.6913 0.332445C10.452 0.20479 10.2486 0.0890102 10.0483 0.0147923C9.88978 0.00885489 9.72829 0.0326046 9.58175 0.100885C9.45017 0.160259 9.33652 0.249321 9.23186 0.350257C9.1212 0.460099 9.00457 0.569942 8.94775 0.718378C8.89093 0.860876 8.86402 1.01228 8.84906 1.16368C8.83112 1.34181 8.87598 1.49915 8.88794 1.67134C8.89691 1.8168 8.8371 1.95336 8.89691 2.09289C8.91186 2.12852 8.9328 2.17305 8.95672 2.21164C9.00158 2.23836 9.05541 2.26805 9.1212 2.29773C9.3754 2.42242 9.4711 2.35414 9.6625 2.26211C9.73427 2.24727 9.80604 2.22945 9.8838 2.19977C10.0004 2.15524 10.1201 2.11664 10.2397 2.08992C11.7708 2.04242 11.2445 4.32833 11.1668 4.60442C11.089 4.88052 11.1428 5.22489 11.2684 4.86864C11.2744 4.84786 11.3432 4.93692 11.3821 4.7677C11.3821 4.76474 11.3791 4.7588 11.3821 4.76474C11.4359 4.92505 11.3611 5.11504 11.2744 5.26348C11.2355 5.35254 11.1697 5.50988 11.1697 5.50988C11.1697 5.50988 11.4748 5.12692 11.6961 4.74395C11.8725 4.44115 12.2105 3.44663 12.3121 3.03101C12.4019 2.78163 12.4318 2.63914 12.4019 2.4907Z" fill="white"/>
<path d="M10.0393 0.0148905C10.0393 0.0148905 10.5118 -0.0474525 10.9724 0.071296C11.4329 0.190045 11.4538 0.0416089 11.7649 0.0742647C12.0759 0.106921 12.5813 0.290981 12.8774 0.469104C13.951 1.11035 13.8792 1.66253 14.0108 1.92971C14.1424 2.1969 14.3607 2.75798 14.2351 3.04298C14.1125 3.32798 14.0108 3.40813 14.0586 3.82672C14.1065 4.24531 14.0048 4.12953 13.8313 4.43234C13.6579 4.73515 13.7626 4.73515 13.631 4.99639C13.4994 5.25764 13.5951 5.29327 13.3977 5.42983C13.2003 5.56639 13.2751 5.60498 13.1585 5.7267C13.0418 5.84841 13.0897 5.89888 12.9013 5.95826C12.7129 6.01763 11.9772 6.43325 11.5765 5.96716C11.083 5.3942 11.3821 5.17452 11.3402 5.1092C11.2983 5.04389 11.6183 4.00187 11.6183 4.00187C11.6183 4.00187 11.8905 3.29829 11.8755 3.21516C11.8606 3.13501 11.9503 2.63923 11.8606 2.40174C11.7708 2.16424 10.8139 0.98566 10.766 0.944098C10.7212 0.905505 10.0393 0.0148905 10.0393 0.0148905Z" fill="white"/>
<path d="M14.4833 17.4651C14.4833 17.4651 15.7693 19.3829 15.5719 21.7282C15.3416 24.4386 15.6078 25.8814 15.6078 25.8814L11.6453 26.7839L10.1889 21.4075L9.82101 20.0212L9.75522 17.9401L14.4833 17.4651Z" fill="#E50914"/>
<path d="M9.80606 17.3582C9.80606 17.3582 11.9174 17.5986 14.6897 17.3196L14.8811 18.0914C14.8811 18.0914 10.8886 18.513 9.75223 18.1122L9.80606 17.3582Z" fill="#E50914"/>
<path d="M13.4306 7.59405C13.1824 7.36546 12.1148 7.26452 11.8008 7.31202C11.7888 7.30015 11.5705 7.35062 11.4868 7.37734C10.7989 7.53171 9.51896 8.98935 9.39934 9.30403C8.93879 10.536 9.03748 11.6137 9.57279 12.1956C9.9167 12.5696 9.73428 14.2944 9.78512 14.9594C9.8868 16.328 10.1111 16.705 9.95259 17.3997C11.1398 17.3849 11.8755 17.5333 12.4108 17.4324C13.296 17.4353 14.6747 17.3225 14.6747 17.3225C14.5252 16.8475 14.4654 16.1113 14.4325 14.0926C14.3607 9.70481 14.6239 8.69544 13.4306 7.59405ZM11.8845 11.9017C10.461 11.9432 9.9496 8.66576 11.8516 7.89686C11.9503 7.83452 11.8277 7.73655 11.9682 7.79296C13.1047 8.09873 14.3756 11.2367 11.8845 11.9017Z" fill="#E50914"/>
<path d="M9.1302 14.7455C9.04647 14.7218 8.92983 14.7277 8.84311 14.7307C8.30481 14.7426 6.66597 15.3304 5.75983 15.7994C4.85369 16.2685 4.09409 16.4199 4.09409 16.4199L4.54865 17.5094C4.54865 17.5094 5.19162 17.2185 6.59719 17.0196C7.99977 16.8207 8.99563 16.3872 9.64458 15.93C9.86588 15.749 9.34552 14.7722 9.1302 14.7455Z" fill="#E4AE84"/>
<path d="M4.95238 16.1677C4.95238 16.1677 4.45295 16.3548 4.04923 16.3548C3.70531 16.3548 3.58868 16.3726 3.02944 16.4052C2.42535 16.4408 2.38647 16.3904 2.18909 16.3458C1.99171 16.3013 1.77041 16.7051 2.3147 16.8208C2.86496 16.9337 3.02047 16.8891 3.02047 16.8891C3.02047 16.8891 2.1861 17.0316 1.76144 17.1355C1.33678 17.2394 1.06464 17.2929 1.14538 17.4888C1.18426 17.5897 1.25304 17.6165 1.82424 17.5036C2.39544 17.3908 3.04439 17.2691 3.04439 17.2691C3.04439 17.2691 0.948006 17.7411 1.00782 17.9846C1.04669 18.1419 1.15436 18.1746 1.82723 17.9994C2.50011 17.8243 3.13112 17.6254 3.13112 17.6254C3.13112 17.6254 1.43846 18.2369 1.32781 18.3379C1.26202 18.3972 1.04669 18.7357 1.72256 18.4863C2.4074 18.234 3.28962 17.9104 3.28962 17.9104C3.28962 17.9104 1.88405 18.4893 1.97377 18.6733C2.06648 18.8663 2.65562 18.5516 3.50494 18.1716C4.35426 17.7916 4.30342 17.7233 4.49482 17.5482C4.68622 17.3701 5.40694 17.2424 5.40694 17.2424L4.95238 16.1677Z" fill="#E4AE84"/>
<path d="M8.80722 15.7075C8.88199 15.6243 8.29285 15.3869 8.29285 15.3869C8.29285 15.3869 9.07937 12.6853 9.65356 12.1955C9.65356 12.1955 9.83299 10.4232 10.2995 9.85911C10.7601 7.81663 12.0311 7.45445 13.0389 8.08381C13.9899 8.67459 13.625 9.98379 12.8206 10.9813C11.8606 12.1747 11.747 12.4508 11.5107 13.0594C11.1937 13.8787 9.92271 15.6303 9.67449 15.9004C9.19002 15.66 9.09432 16.1557 8.80722 15.7075Z" fill="#E4AE84"/>
<g opacity="0.26">
<path d="M12.1985 11.4385C11.9832 11.6136 11.7858 11.7977 11.5795 11.9788C11.4778 12.0708 11.3761 12.1599 11.2745 12.2489C11.1728 12.338 11.0681 12.4241 10.9575 12.5072C11.0861 12.4567 11.2057 12.3825 11.3163 12.3024C11.43 12.2222 11.5346 12.1332 11.6393 12.0441C11.741 11.9521 11.8397 11.8571 11.9324 11.7561C12.0251 11.6552 12.1178 11.5513 12.1985 11.4385Z" fill="white"/>
<path d="M10.1231 15.0574C10.0244 15.0603 9.93766 15.0782 9.85094 15.096L9.72234 15.1227C9.68048 15.1316 9.63562 15.1405 9.58777 15.1464C9.62665 15.1761 9.67749 15.185 9.72533 15.191C9.77318 15.1939 9.82103 15.191 9.86888 15.1791C9.91673 15.1702 9.9586 15.1553 10.0035 15.1346C10.0453 15.1138 10.0872 15.09 10.1231 15.0574Z" fill="white"/>
</g>
<path d="M12.7518 6.92896C12.7518 6.92896 13.2004 7.86707 13.3738 8.06597C13.5503 8.26488 14.0856 10.3489 14.0856 10.3489L14.1872 9.05455C14.1872 9.05455 13.5831 7.52567 12.7518 6.92896Z" fill="#E50914"/>
</g>
<defs>
<clipPath id="clip0_158_1402">
<rect width="26" height="39" fill="white"/>
</clipPath>
</defs>
</svg>
