<svg width="28" height="28" viewBox="0 0 28 28" fill="none" xmlns="http://www.w3.org/2000/svg">
<g clip-path="url(#clip0_110_377)">
<path d="M12.25 0.082058C10.1226 0.344559 8.06091 1.11018 6.28357 2.29143C3.52732 4.12346 1.52029 6.80315 0.579663 9.92034C0.355444 10.6422 0.136694 11.7414 0.0546631 12.4797C-0.0164307 13.1633 -0.0164307 14.8367 0.0546631 15.5203C0.645288 21.0656 4.56638 25.8016 9.92029 27.4203C10.6422 27.6446 11.7414 27.8633 12.4797 27.9453C13.1633 28.0164 14.8367 28.0164 15.5203 27.9453C18.7578 27.6008 21.7601 26.1297 24.0679 23.7563C25.6484 22.1211 26.7695 20.2289 27.4203 18.0797C27.825 16.7508 28 15.5203 28 14C28 12.8571 27.9453 12.2282 27.7484 11.2383C26.7586 6.20706 23.007 2.07268 18.0797 0.579714C17.3578 0.355495 16.2586 0.136745 15.5203 0.0547142C14.8039 -0.0218468 12.9554 -0.00544167 12.25 0.082058ZM15.7773 5.49065C16.5156 5.68753 17.0953 6.22893 17.2758 6.90159C17.3797 7.27346 17.3359 7.84221 17.1719 8.17581C16.8601 8.82659 16.1273 9.2969 15.3726 9.34065C13.7047 9.43362 12.5781 7.73831 13.4258 6.39846C13.5679 6.17425 14 5.77503 14.2297 5.65471C14.6617 5.4305 15.307 5.36487 15.7773 5.49065ZM14.1367 11.3313C14.8422 11.4789 15.4109 11.9055 15.7062 12.5125C15.8867 12.8735 15.8867 12.8844 15.8812 13.6446C15.8758 14.525 15.8812 14.4977 15.2304 16.8164C14.6726 18.7852 14.5469 19.3594 14.5469 19.9282C14.5469 20.7375 14.782 20.9891 15.6078 21.0383C16.0179 21.0656 16.6195 20.9672 17.0133 20.8086C17.0953 20.7758 17.0953 20.8141 17.0023 21.1969C16.9476 21.4321 16.882 21.6399 16.8601 21.6617C16.7617 21.7547 14.9844 22.3836 14.6125 22.4547C14.1094 22.5532 13.2508 22.5532 12.8406 22.4547C11.9383 22.236 11.2492 21.6399 11.0469 20.8961C10.9594 20.5625 10.9758 19.7531 11.0797 19.1953C11.1289 18.9383 11.3914 17.9539 11.6594 17.0078C12.2172 15.0282 12.3594 14.3828 12.3594 13.8469C12.3594 13.2125 12.1898 12.9008 11.8015 12.7914C11.4133 12.6875 10.7242 12.7258 10.2648 12.868C10.0351 12.9446 9.84373 12.9883 9.84373 12.9664C9.8492 12.8133 10.0734 12.1133 10.1281 12.0805C10.2539 11.9985 11.5281 11.5391 11.9383 11.4297C12.7312 11.211 13.4203 11.1782 14.1367 11.3313Z" fill="#E50914"/>
</g>
<defs>
<clipPath id="clip0_110_377">
<rect width="28" height="28" fill="white"/>
</clipPath>
</defs>
</svg>
