<svg width="30" height="30" viewBox="0 0 30 30" fill="none" xmlns="http://www.w3.org/2000/svg">
<g clip-path="url(#clip0_110_366)">
<path d="M13.2715 0.0644112C10.418 0.415974 7.88672 1.47066 5.5957 3.26949C5.0625 3.69136 3.68555 5.06832 3.25195 5.6191C1.50586 7.83394 0.427734 10.4004 0.0878906 13.125C-0.0292969 14.08 -0.0292969 15.9199 0.0878906 16.875C0.832031 22.916 5.30859 28.0195 11.1797 29.5371C12.4395 29.8593 13.1543 29.9531 14.6543 29.9824C16.6641 30.0234 18.0059 29.8359 19.7344 29.2617C24.8438 27.5683 28.6641 23.2441 29.7363 17.9589C30.0117 16.6113 30.082 14.5371 29.9121 13.125C29.0684 6.34566 23.6543 0.931599 16.875 0.0878487C16.084 -0.00590134 13.9863 -0.0234795 13.2715 0.0644112ZM15.2637 6.88473C16.8398 7.13668 18.3691 7.87496 19.4824 8.91793C20.0039 9.40426 20.1035 9.62105 19.9395 9.94332C19.8809 10.0664 19.7461 10.2129 19.6406 10.2714C19.3477 10.4414 19.1191 10.3711 18.6738 9.96676C17.8242 9.19332 16.793 8.63082 15.7324 8.34371C14.9297 8.13277 13.6289 8.08004 12.791 8.23238C11.3672 8.49019 10.1543 9.11715 9.13477 10.1308C8.55469 10.7168 8.19727 11.2031 7.85156 11.8828C7.32422 12.9316 7.125 13.7871 7.125 15C7.125 16.2304 7.31836 17.0449 7.86914 18.1406C8.82422 20.0332 10.6523 21.3867 12.791 21.7675C13.6289 21.9199 14.9297 21.8671 15.7324 21.6562C16.7988 21.3691 17.8594 20.7832 18.6738 20.0273C19.1016 19.6347 19.3418 19.5527 19.6406 19.7285C19.7461 19.7871 19.8809 19.9336 19.9395 20.0566C20.1035 20.3789 20.0039 20.5957 19.4824 21.082C18.3691 22.125 16.8398 22.8632 15.2637 23.1152C14.5664 23.2324 13.3418 23.2265 12.6504 23.1093C10.0547 22.6699 7.81641 21.0117 6.63281 18.6562C6.32227 18.0351 6.06445 17.291 5.91211 16.5644C5.73047 15.7148 5.73047 14.2851 5.91211 13.4355C6.55078 10.4062 8.66602 8.06246 11.5781 7.15426C11.8945 7.05465 12.3691 6.93746 12.627 6.89058C13.2539 6.77926 14.6074 6.7734 15.2637 6.88473ZM22.8047 13.2832C24.2227 14.7011 24.3223 14.8359 24.2051 15.1933C24.1172 15.4511 21.4805 18.0761 21.2695 18.1171C20.8477 18.1933 20.4492 17.8652 20.4492 17.4492C20.4492 17.2207 20.4844 17.1738 21.1934 16.4589L21.9316 15.7089L17.8652 15.6914C13.4414 15.6738 13.6289 15.6855 13.418 15.3339C13.2715 15.0996 13.2715 14.9004 13.418 14.666C13.6289 14.3144 13.4414 14.3261 17.8652 14.3086L21.9316 14.291L21.1934 13.541C20.4844 12.8261 20.4492 12.7793 20.4492 12.5507C20.4492 12.1171 20.877 11.789 21.2988 11.9062C21.416 11.9355 21.9258 12.4043 22.8047 13.2832Z" fill="#E50914"/>
</g>
<defs>
<clipPath id="clip0_110_366">
<rect width="30" height="30" fill="white"/>
</clipPath>
</defs>
</svg>
