<svg width="50" height="50" viewBox="0 0 50 50" fill="none" xmlns="http://www.w3.org/2000/svg">
<circle cx="25" cy="25" r="25" fill="white"/>
<path d="M34.5808 30.1777C34.0046 29.1816 33.3113 27.2871 33.3113 23.9375V23.2441C33.3113 18.918 29.8347 15.3731 25.5574 15.3438H25.4988C24.4725 15.3425 23.456 15.5437 22.5075 15.9358C21.5591 16.328 20.6973 16.9034 19.9716 17.6291C19.2459 18.3548 18.6705 19.2166 18.2783 20.165C17.8862 21.1135 17.685 22.1299 17.6863 23.1563V23.9375C17.6863 27.2871 16.9929 29.1816 16.4167 30.1777C16.2743 30.4149 16.1983 30.6859 16.1966 30.9625C16.1948 31.2391 16.2675 31.5111 16.407 31.75C16.5437 31.9888 16.7414 32.187 16.98 32.3243C17.2185 32.4616 17.4892 32.533 17.7644 32.5313H33.2331C33.5083 32.533 33.7791 32.4616 34.0176 32.3243C34.2561 32.187 34.4538 31.9888 34.5906 31.75C34.73 31.5111 34.8027 31.2391 34.801 30.9625C34.7992 30.6859 34.7232 30.4149 34.5808 30.1777Z" fill="#E50914"/>
<path d="M28.6145 34.0938H22.3645C22.1573 34.0938 21.9586 34.1761 21.8121 34.3226C21.6656 34.4691 21.5833 34.6678 21.5833 34.875C21.5833 35.0822 21.6656 35.2809 21.8121 35.4274C21.9586 35.5739 22.1573 35.6562 22.3645 35.6562H28.6145C28.8217 35.6562 29.0204 35.5739 29.1669 35.4274C29.3134 35.2809 29.3958 35.0822 29.3958 34.875C29.3958 34.6678 29.3134 34.4691 29.1669 34.3226C29.0204 34.1761 28.8217 34.0938 28.6145 34.0938Z" fill="#E50914"/>
</svg>
