<svg width="26" height="26" viewBox="0 0 26 26" fill="none" xmlns="http://www.w3.org/2000/svg">
<g clip-path="url(#clip0_155_1141)">
<path d="M11.832 0.0507317C9.32343 0.294481 7.0078 1.2187 4.97655 2.78276C3.98632 3.54448 2.70155 4.97651 1.96014 6.14448C1.64022 6.64721 1.01561 7.9269 0.792175 8.53628C0.543347 9.21675 0.274207 10.2628 0.142175 11.0703C-0.0152466 12.0605 -0.0152466 13.9394 0.142175 14.9296C0.370691 16.3312 0.731238 17.4585 1.34569 18.7128C2.016 20.0789 2.71171 21.0488 3.82889 22.171C4.95116 23.2882 5.92108 23.9839 7.2871 24.6542C8.54139 25.2687 9.66874 25.6292 11.0703 25.8578C12.0605 26.0152 13.9394 26.0152 14.9297 25.8578C16.3312 25.6292 17.4586 25.2687 18.7129 24.6542C20.0789 23.9839 21.0488 23.2882 22.1711 22.171C23.2883 21.0488 23.984 20.0789 24.6543 18.7128C25.1012 17.8039 25.3246 17.2097 25.5683 16.2957C25.8883 15.0769 25.9644 14.4117 25.9644 13C25.9644 11.5882 25.8883 10.923 25.5683 9.70425C25.3246 8.79018 25.1012 8.19604 24.6543 7.28706C23.984 5.92104 23.2883 4.95112 22.1711 3.82886C21.0488 2.71167 20.0789 2.01597 18.7129 1.34565C17.4637 0.731199 16.3058 0.365574 14.9551 0.152294C14.2086 0.0354958 12.543 -0.0203629 11.832 0.0507317ZM10.7402 7.77456C12.1519 8.63784 18.2863 12.6394 18.3371 12.7308C18.4183 12.8781 18.4183 13.1218 18.3371 13.2691C18.2711 13.391 10.9027 18.1695 10.5066 18.3472C10.2426 18.4691 9.98866 18.398 9.84647 18.1593C9.75507 18.007 9.74999 17.8445 9.74999 13.0101C9.74999 7.49526 9.73475 7.78979 10.0699 7.63745C10.273 7.55112 10.4152 7.58159 10.7402 7.77456Z" fill="white"/>
</g>
<defs>
<clipPath id="clip0_155_1141">
<rect width="26" height="26" fill="white"/>
</clipPath>
</defs>
</svg>
