<svg width="30" height="30" viewBox="0 0 30 30" fill="none" xmlns="http://www.w3.org/2000/svg">
<path d="M9.3457 3.7207L3.7793 6.19922V10.8164C3.7793 15.3633 3.7793 15.4512 3.91406 16.1953C4.32422 18.5215 5.10938 20.543 6.33398 22.4121C8.36133 25.5 11.2031 27.6797 14.4316 28.623L15.0059 28.793L15.4863 28.6523C20.6602 27.1934 24.8848 22.3887 25.9805 16.7051C26.2441 15.3574 26.2559 15.0352 26.2383 10.4941L26.2207 6.19922L20.6309 3.71484C17.5605 2.34961 15.0117 1.23047 14.9766 1.23633C14.9414 1.23633 12.4102 2.35547 9.3457 3.7207ZM16.2305 10.0195V11.25H15H13.7695V10.0195V8.78906H15H16.2305V10.0195ZM16.2305 17.4902V21.2109H15H13.7695V17.4902V13.7695H15H16.2305V17.4902Z" fill="#E50914"/>
</svg>
