<svg width="30" height="30" viewBox="0 0 30 30" fill="none" xmlns="http://www.w3.org/2000/svg">
<path d="M11.8945 0.128906C11.291 0.439453 11.1269 1.18359 11.5605 1.68164C11.8886 2.05078 11.8769 2.05078 14.4902 2.05078C16.8515 2.05078 16.8574 2.05078 17.1152 1.91602C17.7831 1.56445 17.8183 0.609375 17.1855 0.175781L16.9687 0.0292969L14.5663 0.0117188C12.164 -0.00585938 12.1581 0 11.8945 0.128906Z" fill="#E50914"/>
<path d="M24.082 3.82621C23.7891 3.97856 23.5547 4.35356 23.5547 4.66996C23.5547 5.08012 23.707 5.27348 25.2715 6.84379C26.918 8.49614 26.9941 8.54887 27.4863 8.46684C27.7793 8.4141 28.1367 8.15043 28.2598 7.89262C28.3828 7.64067 28.3887 7.25395 28.2773 7.04301C28.1484 6.80278 25.1309 3.82035 24.9434 3.75004C24.6797 3.65629 24.3516 3.67973 24.082 3.82621Z" fill="#E50914"/>
<path d="M13.4766 4.33595C10.4824 4.58204 7.7168 5.83009 5.55469 7.90431C3.84375 9.54493 2.61328 11.6543 2.02734 13.957C1.75781 15.0176 1.64062 15.9785 1.64062 17.1856C1.64062 20.5488 2.89453 23.6426 5.21484 26.0391C6.33398 27.1934 7.43555 28.002 8.8125 28.6817C13.1367 30.8086 18.293 30.3223 22.1953 27.4102C22.9453 26.8535 24.1875 25.6055 24.75 24.8555C26.0156 23.1445 26.8008 21.2871 27.1582 19.1602C27.293 18.3809 27.334 16.7051 27.2519 15.8613C26.6426 9.97853 22.1191 5.26173 16.2891 4.4297C15.5039 4.31837 14.1973 4.27149 13.4766 4.33595ZM14.8125 9.87306C15.0469 9.97267 15.2637 10.1543 15.3691 10.3418C15.4219 10.4238 15.4453 11.3438 15.4687 13.4766L15.498 16.4942L17.8125 16.5234C20.0156 16.5527 20.1387 16.5586 20.332 16.6758C20.6484 16.8574 20.8125 17.1856 20.7832 17.584C20.7598 17.9766 20.6016 18.2344 20.2734 18.3984C20.0508 18.5098 19.916 18.5156 17.1387 18.5156C14.8184 18.5156 14.1973 18.4981 14.0449 18.4336C13.8223 18.3399 13.5527 18.0469 13.4883 17.8242C13.4648 17.7363 13.4473 16.0723 13.4473 14.1211C13.4473 10.8457 13.4531 10.5645 13.5527 10.3887C13.8281 9.87892 14.3262 9.67384 14.8125 9.87306Z" fill="#E50914"/>
</svg>
