<svg width="195" height="32" viewBox="0 0 195 32" fill="none" xmlns="http://www.w3.org/2000/svg">
<path d="M21.355 0.41H21.855V-0.0900002H21.355V0.41ZM21.355 6.575V7.075H21.855V6.575H21.355ZM8.485 6.575V6.075H7.985V6.575H8.485ZM8.485 13.235H7.985V13.735H8.485V13.235ZM18.115 13.235H18.615V12.735H18.115V13.235ZM18.115 19.22V19.72H18.615V19.22H18.115ZM8.485 19.22V18.72H7.985V19.22H8.485ZM8.485 32V32.5H8.985V32H8.485ZM0.79 32H0.29V32.5H0.79V32ZM0.79 0.41V-0.0900002H0.29V0.41H0.79ZM20.855 0.41V6.575H21.855V0.41H20.855ZM21.355 6.075H8.485V7.075H21.355V6.075ZM7.985 6.575V13.235H8.985V6.575H7.985ZM8.485 13.735H18.115V12.735H8.485V13.735ZM17.615 13.235V19.22H18.615V13.235H17.615ZM18.115 18.72H8.485V19.72H18.115V18.72ZM7.985 19.22V32H8.985V19.22H7.985ZM8.485 31.5H0.79V32.5H8.485V31.5ZM1.29 32V0.41H0.29V32H1.29ZM0.79 0.91H21.355V-0.0900002H0.79V0.91ZM38.4944 0.41H38.9944V-0.0900002H38.4944V0.41ZM38.4944 32V32.5H38.9944V32H38.4944ZM30.7994 32H30.2994V32.5H30.7994V32ZM30.7994 0.41V-0.0900002H30.2994V0.41H30.7994ZM37.9944 0.41V32H38.9944V0.41H37.9944ZM38.4944 31.5H30.7994V32.5H38.4944V31.5ZM31.2994 32V0.41H30.2994V32H31.2994ZM30.7994 0.91H38.4944V-0.0900002H30.7994V0.91ZM57.1659 26.06H56.6659V26.56H57.1659V26.06ZM67.2459 26.06H67.7459V25.56H67.2459V26.06ZM67.2459 32V32.5H67.7459V32H67.2459ZM49.4709 32H48.9709V32.5H49.4709V32ZM49.4709 0.41V-0.0900002H48.9709V0.41H49.4709ZM57.1659 0.41H57.6659V-0.0900002H57.1659V0.41ZM57.1659 26.56H67.2459V25.56H57.1659V26.56ZM66.7459 26.06V32H67.7459V26.06H66.7459ZM67.2459 31.5H49.4709V32.5H67.2459V31.5ZM49.9709 32V0.41H48.9709V32H49.9709ZM49.4709 0.91H57.1659V-0.0900002H49.4709V0.91ZM56.6659 0.41V26.06H57.6659V0.41H56.6659ZM99.0412 0.41H99.5412V-0.0900002H99.0412V0.41ZM99.0412 6.575V7.075H99.5412V6.575H99.0412ZM90.6712 6.575V6.075H90.1712V6.575H90.6712ZM90.6712 32V32.5H91.1712V32H90.6712ZM82.9762 32H82.4762V32.5H82.9762V32ZM82.9762 6.575H83.4762V6.075H82.9762V6.575ZM74.6062 6.575H74.1062V7.075H74.6062V6.575ZM74.6062 0.41V-0.0900002H74.1062V0.41H74.6062ZM98.5412 0.41V6.575H99.5412V0.41H98.5412ZM99.0412 6.075H90.6712V7.075H99.0412V6.075ZM90.1712 6.575V32H91.1712V6.575H90.1712ZM90.6712 31.5H82.9762V32.5H90.6712V31.5ZM83.4762 32V6.575H82.4762V32H83.4762ZM82.9762 6.075H74.6062V7.075H82.9762V6.075ZM75.1062 6.575V0.41H74.1062V6.575H75.1062ZM74.6062 0.91H99.0412V-0.0900002H74.6062V0.91ZM131.028 0.41H131.528V-0.0900002H131.028V0.41ZM131.028 6.575V7.075H131.528V6.575H131.028ZM122.658 6.575V6.075H122.158V6.575H122.658ZM122.658 32V32.5H123.158V32H122.658ZM114.963 32H114.463V32.5H114.963V32ZM114.963 6.575H115.463V6.075H114.963V6.575ZM106.593 6.575H106.093V7.075H106.593V6.575ZM106.593 0.41V-0.0900002H106.093V0.41H106.593ZM130.528 0.41V6.575H131.528V0.41H130.528ZM131.028 6.075H122.658V7.075H131.028V6.075ZM122.158 6.575V32H123.158V6.575H122.158ZM122.658 31.5H114.963V32.5H122.658V31.5ZM115.463 32V6.575H114.463V32H115.463ZM114.963 6.075H106.593V7.075H114.963V6.075ZM107.093 6.575V0.41H106.093V6.575H107.093ZM106.593 0.91H131.028V-0.0900002H106.593V0.91ZM147.985 6.575V6.075H147.485V6.575H147.985ZM147.985 12.965H147.485V13.465H147.985V12.965ZM158.29 12.965H158.79V12.465H158.29V12.965ZM158.29 18.905V19.405H158.79V18.905H158.29ZM147.985 18.905V18.405H147.485V18.905H147.985ZM147.985 25.835H147.485V26.335H147.985V25.835ZM159.64 25.835H160.14V25.335H159.64V25.835ZM159.64 32V32.5H160.14V32H159.64ZM140.29 32H139.79V32.5H140.29V32ZM140.29 0.41V-0.0900002H139.79V0.41H140.29ZM159.64 0.41H160.14V-0.0900002H159.64V0.41ZM159.64 6.575V7.075H160.14V6.575H159.64ZM147.485 6.575V12.965H148.485V6.575H147.485ZM147.985 13.465H158.29V12.465H147.985V13.465ZM157.79 12.965V18.905H158.79V12.965H157.79ZM158.29 18.405H147.985V19.405H158.29V18.405ZM147.485 18.905V25.835H148.485V18.905H147.485ZM147.985 26.335H159.64V25.335H147.985V26.335ZM159.14 25.835V32H160.14V25.835H159.14ZM159.64 31.5H140.29V32.5H159.64V31.5ZM140.79 32V0.41H139.79V32H140.79ZM140.29 0.91H159.64V-0.0900002H140.29V0.91ZM159.14 0.41V6.575H160.14V0.41H159.14ZM159.64 6.075H147.985V7.075H159.64V6.075ZM186.146 32L185.708 32.2413L185.85 32.5H186.146V32ZM179.576 20.075L180.014 19.8337L179.871 19.575H179.576V20.075ZM177.731 20.075V19.575H177.231V20.075H177.731ZM177.731 32V32.5H178.231V32H177.731ZM170.036 32H169.536V32.5H170.036V32ZM170.036 0.41V-0.0900002H169.536V0.41H170.036ZM189.296 1.715L189.072 2.16222L189.075 2.16372L189.296 1.715ZM193.256 5.315L192.821 5.56216L192.823 5.56586L193.256 5.315ZM192.761 15.98L192.356 15.6859L192.353 15.6908L192.761 15.98ZM187.541 19.49L187.398 19.0109L186.789 19.1928L187.109 19.7417L187.541 19.49ZM194.831 32V32.5H195.701L195.263 31.7483L194.831 32ZM177.731 14.63H177.231V15.13H177.731V14.63ZM185.651 13.595L185.305 13.2339L185.297 13.2414L185.651 13.595ZM185.651 7.835L185.297 8.18863L185.305 8.19599L185.651 7.835ZM177.731 6.8V6.3H177.231V6.8H177.731ZM186.584 31.7587L180.014 19.8337L179.138 20.3163L185.708 32.2413L186.584 31.7587ZM179.576 19.575H177.731V20.575H179.576V19.575ZM177.231 20.075V32H178.231V20.075H177.231ZM177.731 31.5H170.036V32.5H177.731V31.5ZM170.536 32V0.41H169.536V32H170.536ZM170.036 0.91H182.951V-0.0900002H170.036V0.91ZM182.951 0.91C185.384 0.91 187.418 1.33526 189.072 2.16221L189.519 1.26778C187.693 0.35474 185.497 -0.0900002 182.951 -0.0900002V0.91ZM189.075 2.16372C190.766 2.99504 192.006 4.12958 192.821 5.56215L193.69 5.06785C192.765 3.44041 191.365 2.17495 189.516 1.26627L189.075 2.16372ZM192.823 5.56586C193.646 6.98411 194.061 8.57648 194.061 10.355H195.061C195.061 8.41352 194.606 6.64588 193.688 5.06414L192.823 5.56586ZM194.061 10.355C194.061 12.3526 193.492 14.124 192.356 15.6859L193.165 16.2741C194.429 14.536 195.061 12.5574 195.061 10.355H194.061ZM192.353 15.6908C191.259 17.2331 189.622 18.3465 187.398 19.0109L187.684 19.9691C190.08 19.2535 191.922 18.0269 193.169 16.2692L192.353 15.6908ZM187.109 19.7417L194.399 32.2517L195.263 31.7483L187.973 19.2383L187.109 19.7417ZM194.831 31.5H186.146V32.5H194.831V31.5ZM177.731 15.13H182.501V14.13H177.731V15.13ZM182.501 15.13C183.984 15.13 185.186 14.7672 186.004 13.9486L185.297 13.2414C184.736 13.8028 183.837 14.13 182.501 14.13V15.13ZM185.997 13.956C186.84 13.1483 187.231 12.0282 187.231 10.67H186.231C186.231 11.8318 185.902 12.6617 185.305 13.234L185.997 13.956ZM187.231 10.67C187.231 9.36354 186.835 8.27713 185.997 7.47401L185.305 8.19599C185.907 8.77287 186.231 9.57646 186.231 10.67H187.231ZM186.004 7.48145C185.186 6.66281 183.984 6.3 182.501 6.3V7.3C183.837 7.3 184.736 7.62719 185.297 8.18855L186.004 7.48145ZM182.501 6.3H177.731V7.3H182.501V6.3ZM177.231 6.8V14.63H178.231V6.8H177.231Z" fill="white"/>
</svg>
