<svg width="190" height="32" viewBox="0 0 190 32" fill="none" xmlns="http://www.w3.org/2000/svg">
<path d="M8.485 26.06H7.985V26.56H8.485V26.06ZM18.565 26.06H19.065V25.56H18.565V26.06ZM18.565 32V32.5H19.065V32H18.565ZM0.79 32H0.29V32.5H0.79V32ZM0.79 0.41V-0.0900002H0.29V0.41H0.79ZM8.485 0.41H8.985V-0.0900002H8.485V0.41ZM8.485 26.56H18.565V25.56H8.485V26.56ZM18.065 26.06V32H19.065V26.06H18.065ZM18.565 31.5H0.79V32.5H18.565V31.5ZM1.29 32V0.41H0.29V32H1.29ZM0.79 0.91H8.485V-0.0900002H0.79V0.91ZM7.985 0.41V26.06H8.985V0.41H7.985ZM35.3303 6.575V6.075H34.8303V6.575H35.3303ZM35.3303 12.965H34.8303V13.465H35.3303V12.965ZM45.6353 12.965H46.1353V12.465H45.6353V12.965ZM45.6353 18.905V19.405H46.1353V18.905H45.6353ZM35.3303 18.905V18.405H34.8303V18.905H35.3303ZM35.3303 25.835H34.8303V26.335H35.3303V25.835ZM46.9853 25.835H47.4853V25.335H46.9853V25.835ZM46.9853 32V32.5H47.4853V32H46.9853ZM27.6353 32H27.1353V32.5H27.6353V32ZM27.6353 0.41V-0.0900002H27.1353V0.41H27.6353ZM46.9853 0.41H47.4853V-0.0900002H46.9853V0.41ZM46.9853 6.575V7.075H47.4853V6.575H46.9853ZM34.8303 6.575V12.965H35.8303V6.575H34.8303ZM35.3303 13.465H45.6353V12.465H35.3303V13.465ZM45.1353 12.965V18.905H46.1353V12.965H45.1353ZM45.6353 18.405H35.3303V19.405H45.6353V18.405ZM34.8303 18.905V25.835H35.8303V18.905H34.8303ZM35.3303 26.335H46.9853V25.335H35.3303V26.335ZM46.4853 25.835V32H47.4853V25.835H46.4853ZM46.9853 31.5H27.6353V32.5H46.9853V31.5ZM28.1353 32V0.41H27.1353V32H28.1353ZM27.6353 0.91H46.9853V-0.0900002H27.6353V0.91ZM46.4853 0.41V6.575H47.4853V0.41H46.4853ZM46.9853 6.075H35.3303V7.075H46.9853V6.075ZM77.046 26.42L77.5196 26.2596L77.4046 25.92H77.046V26.42ZM65.256 26.42V25.92H64.8975L64.7824 26.2596L65.256 26.42ZM63.366 32V32.5H63.7246L63.8396 32.1604L63.366 32ZM55.311 32L54.8408 31.8299L54.5984 32.5H55.311V32ZM66.741 0.41V-0.0900002H66.3902L66.2708 0.239882L66.741 0.41ZM75.651 0.41L76.1212 0.23988L76.0018 -0.0900002H75.651V0.41ZM87.081 32V32.5H87.7937L87.5512 31.8299L87.081 32ZM78.936 32L78.4624 32.1604L78.5775 32.5H78.936V32ZM75.066 20.48V20.98H75.7631L75.5396 20.3197L75.066 20.48ZM71.151 8.915L71.6246 8.75468L71.1483 7.34756L70.6769 8.75633L71.151 8.915ZM67.281 20.48L66.8069 20.3213L66.5864 20.98H67.281V20.48ZM77.046 25.92H65.256V26.92H77.046V25.92ZM64.7824 26.2596L62.8924 31.8396L63.8396 32.1604L65.7296 26.5804L64.7824 26.2596ZM63.366 31.5H55.311V32.5H63.366V31.5ZM55.7812 32.1701L67.2112 0.580118L66.2708 0.239882L54.8408 31.8299L55.7812 32.1701ZM66.741 0.91H75.651V-0.0900002H66.741V0.91ZM75.1808 0.580118L86.6108 32.1701L87.5512 31.8299L76.1212 0.23988L75.1808 0.580118ZM87.081 31.5H78.936V32.5H87.081V31.5ZM79.4096 31.8396L77.5196 26.2596L76.5724 26.5804L78.4624 32.1604L79.4096 31.8396ZM75.5396 20.3197L71.6246 8.75468L70.6774 9.07532L74.5924 20.6403L75.5396 20.3197ZM70.6769 8.75633L66.8069 20.3213L67.7552 20.6387L71.6252 9.07367L70.6769 8.75633ZM67.281 20.98H75.066V19.98H67.281V20.98ZM124.22 32V32.5H124.72V32H124.22ZM116.525 32L116.108 32.2756L116.256 32.5H116.525V32ZM103.655 12.515L104.072 12.2394L103.155 10.8508V12.515H103.655ZM103.655 32V32.5H104.155V32H103.655ZM95.9597 32H95.4597V32.5H95.9597V32ZM95.9597 0.41V-0.0900002H95.4597V0.41H95.9597ZM103.655 0.41L104.073 0.135315L103.924 -0.0900002H103.655V0.41ZM116.525 19.985L116.107 20.2597L117.025 21.6556V19.985H116.525ZM116.525 0.41V-0.0900002H116.025V0.41H116.525ZM124.22 0.41H124.72V-0.0900002H124.22V0.41ZM124.22 31.5H116.525V32.5H124.22V31.5ZM116.942 31.7244L104.072 12.2394L103.238 12.7906L116.108 32.2756L116.942 31.7244ZM103.155 12.515V32H104.155V12.515H103.155ZM103.655 31.5H95.9597V32.5H103.655V31.5ZM96.4597 32V0.41H95.4597V32H96.4597ZM95.9597 0.91H103.655V-0.0900002H95.9597V0.91ZM103.237 0.684685L116.107 20.2597L116.943 19.7103L104.073 0.135315L103.237 0.684685ZM117.025 19.985V0.41H116.025V19.985H117.025ZM116.525 0.91H124.22V-0.0900002H116.525V0.91ZM123.72 0.41V32H124.72V0.41H123.72ZM142.893 6.575V6.075H142.393V6.575H142.893ZM142.893 12.965H142.393V13.465H142.893V12.965ZM153.198 12.965H153.698V12.465H153.198V12.965ZM153.198 18.905V19.405H153.698V18.905H153.198ZM142.893 18.905V18.405H142.393V18.905H142.893ZM142.893 25.835H142.393V26.335H142.893V25.835ZM154.548 25.835H155.048V25.335H154.548V25.835ZM154.548 32V32.5H155.048V32H154.548ZM135.198 32H134.698V32.5H135.198V32ZM135.198 0.41V-0.0900002H134.698V0.41H135.198ZM154.548 0.41H155.048V-0.0900002H154.548V0.41ZM154.548 6.575V7.075H155.048V6.575H154.548ZM142.393 6.575V12.965H143.393V6.575H142.393ZM142.893 13.465H153.198V12.465H142.893V13.465ZM152.698 12.965V18.905H153.698V12.965H152.698ZM153.198 18.405H142.893V19.405H153.198V18.405ZM142.393 18.905V25.835H143.393V18.905H142.393ZM142.893 26.335H154.548V25.335H142.893V26.335ZM154.048 25.835V32H155.048V25.835H154.048ZM154.548 31.5H135.198V32.5H154.548V31.5ZM135.698 32V0.41H134.698V32H135.698ZM135.198 0.91H154.548V-0.0900002H135.198V0.91ZM154.048 0.41V6.575H155.048V0.41H154.048ZM154.548 6.075H142.893V7.075H154.548V6.075ZM181.053 32L180.615 32.2413L180.758 32.5H181.053V32ZM174.483 20.075L174.921 19.8337L174.779 19.575H174.483V20.075ZM172.638 20.075V19.575H172.138V20.075H172.638ZM172.638 32V32.5H173.138V32H172.638ZM164.943 32H164.443V32.5H164.943V32ZM164.943 0.41V-0.0900002H164.443V0.41H164.943ZM184.203 1.715L183.98 2.16222L183.983 2.16372L184.203 1.715ZM188.163 5.315L187.729 5.56216L187.731 5.56586L188.163 5.315ZM187.668 15.98L187.264 15.6859L187.26 15.6908L187.668 15.98ZM182.448 19.49L182.305 19.0109L181.696 19.1928L182.016 19.7417L182.448 19.49ZM189.738 32V32.5H190.608L190.17 31.7483L189.738 32ZM172.638 14.63H172.138V15.13H172.638V14.63ZM180.558 13.595L180.212 13.2339L180.205 13.2414L180.558 13.595ZM180.558 7.835L180.205 8.18863L180.212 8.19599L180.558 7.835ZM172.638 6.8V6.3H172.138V6.8H172.638ZM181.491 31.7587L174.921 19.8337L174.045 20.3163L180.615 32.2413L181.491 31.7587ZM174.483 19.575H172.638V20.575H174.483V19.575ZM172.138 20.075V32H173.138V20.075H172.138ZM172.638 31.5H164.943V32.5H172.638V31.5ZM165.443 32V0.41H164.443V32H165.443ZM164.943 0.91H177.858V-0.0900002H164.943V0.91ZM177.858 0.91C180.292 0.91 182.326 1.33526 183.98 2.16221L184.427 1.26778C182.601 0.35474 180.405 -0.0900002 177.858 -0.0900002V0.91ZM183.983 2.16372C185.674 2.99504 186.914 4.12958 187.729 5.56215L188.598 5.06785C187.673 3.44041 186.273 2.17495 184.424 1.26627L183.983 2.16372ZM187.731 5.56586C188.553 6.98411 188.968 8.57648 188.968 10.355H189.968C189.968 8.41352 189.513 6.64588 188.596 5.06414L187.731 5.56586ZM188.968 10.355C188.968 12.3526 188.4 14.124 187.264 15.6859L188.073 16.2741C189.337 14.536 189.968 12.5574 189.968 10.355H188.968ZM187.26 15.6908C186.167 17.2331 184.53 18.3465 182.305 19.0109L182.591 19.9691C184.987 19.2535 186.83 18.0269 188.076 16.2692L187.26 15.6908ZM182.016 19.7417L189.306 32.2517L190.17 31.7483L182.88 19.2383L182.016 19.7417ZM189.738 31.5H181.053V32.5H189.738V31.5ZM172.638 15.13H177.408V14.13H172.638V15.13ZM177.408 15.13C178.892 15.13 180.093 14.7672 180.912 13.9486L180.205 13.2414C179.643 13.8028 178.745 14.13 177.408 14.13V15.13ZM180.904 13.956C181.747 13.1483 182.138 12.0282 182.138 10.67H181.138C181.138 11.8318 180.81 12.6617 180.212 13.234L180.904 13.956ZM182.138 10.67C182.138 9.36354 181.742 8.27713 180.904 7.47401L180.212 8.19599C180.814 8.77287 181.138 9.57646 181.138 10.67H182.138ZM180.912 7.48145C180.093 6.66281 178.892 6.3 177.408 6.3V7.3C178.745 7.3 179.643 7.62719 180.205 8.18855L180.912 7.48145ZM177.408 6.3H172.638V7.3H177.408V6.3ZM172.138 6.8V14.63H173.138V6.8H172.138Z" fill="white"/>
</svg>
