<svg width="276" height="34" viewBox="0 0 276 34" fill="none" xmlns="http://www.w3.org/2000/svg">
<path d="M7.01 32.19L6.82039 32.6527L7.01 32.19ZM2.6 28.86L2.19702 29.1561L2.20098 29.1613L2.6 28.86ZM0.89 23.55V23.05H0.375297L0.39021 23.5645L0.89 23.55ZM9.08 23.55L9.57739 23.499L9.53134 23.05H9.08V23.55ZM10.295 26.25L9.95777 26.6194L9.96691 26.6273L10.295 26.25ZM15.695 26.385L16.0008 26.7808L16.0116 26.772L15.695 26.385ZM15.875 22.245L15.5214 22.5986L15.5265 22.6036L15.5317 22.6085L15.875 22.245ZM13.94 20.985L13.7386 21.4427L13.7452 21.4455L13.94 20.985ZM10.7 19.86L10.5525 20.3378L10.5573 20.3392L10.7 19.86ZM2.375 15.18L2.77383 14.8784L2.375 15.18ZM4.175 3.48L4.48121 3.87529L4.48464 3.87258L4.175 3.48ZM20.915 3.48L20.6053 3.8726L20.6088 3.87527L20.915 3.48ZM24.335 10.41V10.91H24.8609L24.8344 10.3848L24.335 10.41ZM16.01 10.41L15.5109 10.4394L15.5385 10.91H16.01V10.41ZM14.885 8.025L14.5568 8.40242L14.5666 8.41048L14.885 8.025ZM9.98 7.89L10.3021 8.27246L10.3078 8.26762L10.3134 8.26262L9.98 7.89ZM10.565 12.39L10.8203 11.9601L10.565 12.39ZM15.065 14.235L15.2252 13.7613L15.2189 13.7593L15.065 14.235ZM20.015 16.215L19.7914 16.6622L19.7956 16.6643L20.015 16.215ZM23.345 18.96L22.9498 19.2663L23.345 18.96ZM23.345 28.5L22.9224 28.2327L22.9186 28.2389L23.345 28.5ZM19.385 32.01L19.1614 31.5628L19.385 32.01ZM13.22 32.815C10.9643 32.815 8.96021 32.4489 7.19961 31.7273L6.82039 32.6527C8.71979 33.4311 10.8557 33.815 13.22 33.815V32.815ZM7.19961 31.7273C5.44629 31.0088 4.05097 29.9518 2.99902 28.5587L2.20098 29.1613C3.36903 30.7082 4.91371 31.8712 6.82039 32.6527L7.19961 31.7273ZM3.00294 28.564C1.99098 27.1866 1.44726 25.5182 1.38979 23.5355L0.39021 23.5645C0.45274 25.7218 1.04902 27.5934 2.19706 29.156L3.00294 28.564ZM0.89 24.05H9.08V23.05H0.89V24.05ZM8.58261 23.601C8.71178 24.8604 9.1555 25.8867 9.95787 26.6192L10.6321 25.8808C10.0545 25.3534 9.68822 24.5796 9.57739 23.499L8.58261 23.601ZM9.96691 26.6273C10.7664 27.3225 11.7914 27.65 12.995 27.65V26.65C11.9786 26.65 11.2036 26.3775 10.6231 25.8727L9.96691 26.6273ZM12.995 27.65C14.2056 27.65 15.226 27.3793 16.0007 26.7806L15.3893 25.9894C14.844 26.4107 14.0644 26.65 12.995 26.65V27.65ZM16.0116 26.772C16.7992 26.1276 17.185 25.2445 17.185 24.18H16.185C16.185 24.9755 15.9108 25.5624 15.3784 25.998L16.0116 26.772ZM17.185 24.18C17.185 23.2702 16.8638 22.4911 16.2183 21.8815L15.5317 22.6085C15.9662 23.0189 16.185 23.5298 16.185 24.18H17.185ZM16.2286 21.8914C15.6658 21.3287 14.964 20.8753 14.1348 20.5245L13.7452 21.4455C14.476 21.7547 15.0642 22.1413 15.5214 22.5986L16.2286 21.8914ZM14.1414 20.5273C13.363 20.1848 12.2597 19.8029 10.8427 19.3808L10.5573 20.3392C11.9603 20.7571 13.017 21.1252 13.7386 21.4427L14.1414 20.5273ZM10.8475 19.3823C8.82154 18.7566 7.183 18.1354 5.92442 17.5207L5.48558 18.4193C6.807 19.0646 8.49846 19.7034 10.5525 20.3377L10.8475 19.3823ZM5.92442 17.5207C4.71016 16.9277 3.66005 16.0505 2.77383 14.8784L1.97617 15.4816C2.94995 16.7695 4.11984 17.7523 5.48558 18.4193L5.92442 17.5207ZM2.77383 14.8784C1.92606 13.7572 1.48 12.2673 1.48 10.365H0.48C0.48 12.4227 0.963942 14.1428 1.97617 15.4816L2.77383 14.8784ZM1.48 10.365C1.48 7.56342 2.48572 5.42107 4.4812 3.87527L3.8688 3.08472C1.60428 4.83893 0.48 7.28658 0.48 10.365H1.48ZM4.48464 3.87258C6.50556 2.27862 9.16252 1.46 12.5 1.46V0.459999C8.99748 0.459999 6.10444 1.32138 3.86536 3.08742L4.48464 3.87258ZM12.5 1.46C15.8998 1.46 18.5859 2.27976 20.6054 3.87258L21.2246 3.08742C18.9841 1.32024 16.0602 0.459999 12.5 0.459999V1.46ZM20.6088 3.87527C22.6107 5.42606 23.6921 7.59384 23.8356 10.4352L24.8344 10.3848C24.6779 7.28616 23.4793 4.83393 21.2212 3.08472L20.6088 3.87527ZM24.335 9.91H16.01V10.91H24.335V9.91ZM16.5091 10.3806C16.4423 9.24358 16.0161 8.31087 15.2034 7.63952L14.5666 8.41048C15.1339 8.87913 15.4577 9.53642 15.5109 10.4394L16.5091 10.3806ZM15.2131 7.6477C14.4161 6.95468 13.4076 6.625 12.23 6.625V7.625C13.2124 7.625 13.9739 7.89532 14.5569 8.4023L15.2131 7.6477ZM12.23 6.625C11.2048 6.625 10.3271 6.90851 9.6466 7.51738L10.3134 8.26262C10.7729 7.85149 11.3952 7.625 12.23 7.625V6.625ZM9.65793 7.50754C8.94788 8.10548 8.625 8.96728 8.625 10.005H9.625C9.625 9.18272 9.87212 8.63451 10.3021 8.27246L9.65793 7.50754ZM8.625 10.005C8.625 11.2207 9.21534 12.1701 10.3097 12.8199L10.8203 11.9601C9.99466 11.4699 9.625 10.8293 9.625 10.005H8.625ZM10.3097 12.8199C11.3188 13.4191 12.8618 14.0477 14.9111 14.7107L15.2189 13.7593C13.1883 13.1023 11.7312 12.5009 10.8203 11.9601L10.3097 12.8199ZM14.9048 14.7086C16.9331 15.3947 18.5596 16.0463 19.7914 16.6622L20.2386 15.7678C18.9504 15.1237 17.2769 14.4553 15.2252 13.7614L14.9048 14.7086ZM19.7956 16.6643C21.0129 17.2588 22.0639 18.1232 22.9498 19.2663L23.7402 18.6537C22.7661 17.3968 21.5971 16.4312 20.2344 15.7657L19.7956 16.6643ZM22.9498 19.2663C23.7966 20.359 24.24 21.7882 24.24 23.595H25.24C25.24 21.6218 24.7534 19.961 23.7402 18.6537L22.9498 19.2663ZM24.24 23.595C24.24 25.3038 23.8 26.8455 22.9225 28.2327L23.7675 28.7673C24.75 27.2145 25.24 25.4862 25.24 23.595H24.24ZM22.9186 28.2389C22.0735 29.6192 20.8288 30.7291 19.1614 31.5628L19.6086 32.4572C21.4212 31.5509 22.8165 30.3208 23.7714 28.7611L22.9186 28.2389ZM19.1614 31.5628C17.5043 32.3913 15.5291 32.815 13.22 32.815V33.815C15.6509 33.815 17.7857 33.3687 19.6086 32.4572L19.1614 31.5628ZM57.6006 1.41H58.1006V0.91H57.6006V1.41ZM57.6006 7.575V8.075H58.1006V7.575H57.6006ZM49.2305 7.575V7.075H48.7305V7.575H49.2305ZM49.2305 33V33.5H49.7305V33H49.2305ZM41.5355 33H41.0355V33.5H41.5355V33ZM41.5355 7.575H42.0355V7.075H41.5355V7.575ZM33.1656 7.575H32.6656V8.075H33.1656V7.575ZM33.1656 1.41V0.91H32.6656V1.41H33.1656ZM57.1006 1.41V7.575H58.1006V1.41H57.1006ZM57.6006 7.075H49.2305V8.075H57.6006V7.075ZM48.7305 7.575V33H49.7305V7.575H48.7305ZM49.2305 32.5H41.5355V33.5H49.2305V32.5ZM42.0355 33V7.575H41.0355V33H42.0355ZM41.5355 7.075H33.1656V8.075H41.5355V7.075ZM33.6656 7.575V1.41H32.6656V7.575H33.6656ZM33.1656 1.91H57.6006V0.91H33.1656V1.91ZM82.9725 33L82.5345 33.2413L82.6771 33.5H82.9725V33ZM76.4025 21.075L76.8404 20.8337L76.6979 20.575H76.4025V21.075ZM74.5575 21.075V20.575H74.0575V21.075H74.5575ZM74.5575 33V33.5H75.0575V33H74.5575ZM66.8625 33H66.3625V33.5H66.8625V33ZM66.8625 1.41V0.91H66.3625V1.41H66.8625ZM86.1225 2.715L85.8988 3.16222L85.9019 3.16372L86.1225 2.715ZM90.0825 6.315L89.6478 6.56216L89.6499 6.56586L90.0825 6.315ZM89.5875 16.98L89.1831 16.6859L89.1796 16.6908L89.5875 16.98ZM84.3675 20.49L84.2244 20.0109L83.6156 20.1928L83.9355 20.7417L84.3675 20.49ZM91.6575 33V33.5H92.5275L92.0895 32.7483L91.6575 33ZM74.5575 15.63H74.0575V16.13H74.5575V15.63ZM82.4775 14.595L82.1314 14.2339L82.1239 14.2414L82.4775 14.595ZM82.4775 8.835L82.1238 9.18863L82.1315 9.19599L82.4775 8.835ZM74.5575 7.8V7.3H74.0575V7.8H74.5575ZM83.4104 32.7587L76.8404 20.8337L75.9645 21.3163L82.5345 33.2413L83.4104 32.7587ZM76.4025 20.575H74.5575V21.575H76.4025V20.575ZM74.0575 21.075V33H75.0575V21.075H74.0575ZM74.5575 32.5H66.8625V33.5H74.5575V32.5ZM67.3625 33V1.41H66.3625V33H67.3625ZM66.8625 1.91H79.7775V0.91H66.8625V1.91ZM79.7775 1.91C82.2109 1.91 84.2449 2.33526 85.8989 3.16221L86.3461 2.26778C84.52 1.35474 82.324 0.91 79.7775 0.91V1.91ZM85.9019 3.16372C87.5932 3.99504 88.8332 5.12958 89.6478 6.56215L90.5171 6.06785C89.5917 4.44041 88.1917 3.17495 86.343 2.26627L85.9019 3.16372ZM89.6499 6.56586C90.4725 7.98411 90.8875 9.57648 90.8875 11.355H91.8875C91.8875 9.41352 91.4324 7.64588 90.515 6.06414L89.6499 6.56586ZM90.8875 11.355C90.8875 13.3526 90.319 15.124 89.1831 16.6859L89.9918 17.2741C91.2559 15.536 91.8875 13.5574 91.8875 11.355H90.8875ZM89.1796 16.6908C88.0859 18.2331 86.4486 19.3465 84.2244 20.0109L84.5106 20.9691C86.9063 20.2535 88.749 19.0269 89.9953 17.2692L89.1796 16.6908ZM83.9355 20.7417L91.2255 33.2517L92.0895 32.7483L84.7995 20.2383L83.9355 20.7417ZM91.6575 32.5H82.9725V33.5H91.6575V32.5ZM74.5575 16.13H79.3275V15.13H74.5575V16.13ZM79.3275 16.13C80.8109 16.13 82.0124 15.7672 82.831 14.9486L82.1239 14.2414C81.5625 14.8028 80.664 15.13 79.3275 15.13V16.13ZM82.8234 14.956C83.6663 14.1483 84.0575 13.0282 84.0575 11.67H83.0575C83.0575 12.8318 82.7287 13.6617 82.1315 14.234L82.8234 14.956ZM84.0575 11.67C84.0575 10.3635 83.6615 9.27713 82.8234 8.47401L82.1315 9.19599C82.7335 9.77287 83.0575 10.5765 83.0575 11.67H84.0575ZM82.831 8.48145C82.0124 7.66281 80.8109 7.3 79.3275 7.3V8.3C80.664 8.3 81.5625 8.62719 82.1239 9.18855L82.831 8.48145ZM79.3275 7.3H74.5575V8.3H79.3275V7.3ZM74.0575 7.8V15.63H75.0575V7.8H74.0575ZM108.368 31.245L108.123 31.6811L108.126 31.6823L108.368 31.245ZM102.473 25.485L102.04 25.7353L102.044 25.7415L102.473 25.485ZM102.473 8.79L102.044 8.53351L102.041 8.53741L102.473 8.79ZM108.368 3.03L108.126 2.59267L108.123 2.59393L108.368 3.03ZM124.703 3.03L124.458 3.46608L124.461 3.46733L124.703 3.03ZM130.553 8.79L130.119 9.03865L130.121 9.04259L130.553 8.79ZM130.553 25.485L130.984 25.7376L130.986 25.7353L130.553 25.485ZM124.703 31.245L124.948 31.6811L124.703 31.245ZM122.588 23.775L122.218 23.4383L122.215 23.442L122.588 23.775ZM122.588 10.455L122.215 10.7881L122.221 10.795L122.588 10.455ZM110.438 10.41L110.071 10.07L110.068 10.0737L110.438 10.41ZM110.438 23.82L110.065 24.1531L110.071 24.16L110.438 23.82ZM116.558 32.815C113.669 32.815 111.023 32.1448 108.61 30.8077L108.126 31.6823C110.693 33.1052 113.507 33.815 116.558 33.815V32.815ZM108.613 30.8089C106.23 29.4724 104.328 27.6148 102.902 25.2285L102.044 25.7415C103.558 28.2752 105.586 30.2576 108.123 31.6811L108.613 30.8089ZM102.906 25.2347C101.513 22.8264 100.813 20.1239 100.813 17.115H99.8129C99.8129 20.2861 100.553 23.1636 102.04 25.7353L102.906 25.2347ZM100.813 17.115C100.813 14.1061 101.513 11.4196 102.904 9.04259L102.041 8.53741C100.553 11.0804 99.8129 13.9439 99.8129 17.115H100.813ZM102.902 9.04648C104.328 6.66018 106.23 4.80264 108.613 3.46607L108.123 2.59393C105.586 4.01736 103.558 5.99982 102.044 8.53352L102.902 9.04648ZM108.61 3.46733C111.023 2.13024 113.669 1.46 116.558 1.46V0.459999C113.507 0.459999 110.693 1.16976 108.126 2.59267L108.61 3.46733ZM116.558 1.46C119.447 1.46 122.077 2.13023 124.458 3.46607L124.948 2.59393C122.409 1.16977 119.609 0.459999 116.558 0.459999V1.46ZM124.461 3.46733C126.871 4.80327 128.755 6.65816 130.119 9.03864L130.987 8.54136C129.531 6.00183 127.515 4.01673 124.945 2.59267L124.461 3.46733ZM130.121 9.04259C131.513 11.4196 132.213 14.1061 132.213 17.115H133.213C133.213 13.9439 132.473 11.0804 130.984 8.53741L130.121 9.04259ZM132.213 17.115C132.213 20.1239 131.513 22.8264 130.12 25.2347L130.986 25.7353C132.473 23.1636 133.213 20.2861 133.213 17.115H132.213ZM130.121 25.2324C128.726 27.6166 126.84 29.4729 124.458 30.8089L124.948 31.6811C127.486 30.2571 129.5 28.2734 130.984 25.7376L130.121 25.2324ZM124.458 30.8089C122.077 32.1448 119.447 32.815 116.558 32.815V33.815C119.609 33.815 122.409 33.1052 124.948 31.6811L124.458 30.8089ZM116.558 26.795C119.201 26.795 121.354 25.9076 122.961 24.108L122.215 23.442C120.822 25.0024 118.954 25.795 116.558 25.795V26.795ZM122.958 24.1117C124.589 22.3207 125.383 19.9714 125.383 17.115H124.383C124.383 19.7786 123.647 21.8693 122.218 23.4383L122.958 24.1117ZM125.383 17.115C125.383 14.2306 124.59 11.8783 122.955 10.115L122.221 10.795C123.646 12.3317 124.383 14.4194 124.383 17.115H125.383ZM122.961 10.122C121.354 8.32244 119.201 7.435 116.558 7.435V8.435C118.954 8.435 120.822 9.22755 122.215 10.788L122.961 10.122ZM116.558 7.435C113.889 7.435 111.709 8.30391 110.071 10.07L110.805 10.75C112.227 9.21609 114.127 8.435 116.558 8.435V7.435ZM110.068 10.0737C108.464 11.8382 107.688 14.2048 107.688 17.115H108.688C108.688 14.3852 109.412 12.2818 110.808 10.7463L110.068 10.0737ZM107.688 17.115C107.688 19.9973 108.465 22.3609 110.065 24.153L110.811 23.487C109.411 21.9191 108.688 19.8127 108.688 17.115H107.688ZM110.071 24.16C111.709 25.9261 113.889 26.795 116.558 26.795V25.795C114.127 25.795 112.227 25.0139 110.805 23.48L110.071 24.16ZM170.654 33V33.5H171.154V33H170.654ZM162.959 33L162.542 33.2756L162.69 33.5H162.959V33ZM150.089 13.515L150.506 13.2394L149.589 11.8508V13.515H150.089ZM150.089 33V33.5H150.589V33H150.089ZM142.394 33H141.894V33.5H142.394V33ZM142.394 1.41V0.91H141.894V1.41H142.394ZM150.089 1.41L150.507 1.13531L150.359 0.91H150.089V1.41ZM162.959 20.985L162.541 21.2597L163.459 22.6556V20.985H162.959ZM162.959 1.41V0.91H162.459V1.41H162.959ZM170.654 1.41H171.154V0.91H170.654V1.41ZM170.654 32.5H162.959V33.5H170.654V32.5ZM163.376 32.7244L150.506 13.2394L149.672 13.7906L162.542 33.2756L163.376 32.7244ZM149.589 13.515V33H150.589V13.515H149.589ZM150.089 32.5H142.394V33.5H150.089V32.5ZM142.894 33V1.41H141.894V33H142.894ZM142.394 1.91H150.089V0.91H142.394V1.91ZM149.671 1.68468L162.541 21.2597L163.377 20.7103L150.507 1.13531L149.671 1.68468ZM163.459 20.985V1.41H162.459V20.985H163.459ZM162.959 1.91H170.654V0.91H162.959V1.91ZM170.154 1.41V33H171.154V1.41H170.154ZM202.602 11.4L202.162 11.6385L202.304 11.9H202.602V11.4ZM200.127 9.015L199.888 9.45442L199.896 9.45844L199.903 9.46221L200.127 9.015ZM190.407 10.635L190.774 10.9747L190.777 10.9713L190.407 10.635ZM190.497 24L190.133 24.3436L190.14 24.3502L190.497 24ZM201.792 24.99L201.498 24.5856L201.493 24.5889L201.792 24.99ZM204.672 20.85L205.146 21.0081L205.366 20.35H204.672V20.85ZM194.907 20.85H194.407V21.35H194.907V20.85ZM194.907 15.18V14.68H194.407V15.18H194.907ZM211.647 15.18H212.147V14.68H211.647V15.18ZM211.647 22.335L212.126 22.4773L212.147 22.4076V22.335H211.647ZM208.722 27.69L208.338 27.3692L208.335 27.3734L208.722 27.69ZM203.547 31.695L203.328 31.2452L203.547 31.695ZM188.067 31.2L187.82 31.6348L187.826 31.6383L188.067 31.2ZM182.352 25.485L181.915 25.7278L181.917 25.7319L182.352 25.485ZM182.352 8.835L181.916 8.59037L181.915 8.59218L182.352 8.835ZM188.067 3.12L188.31 3.5571L188.314 3.55478L188.067 3.12ZM205.932 3.795L205.643 4.20283L205.645 4.20439L205.932 3.795ZM211.107 11.4V11.9H211.753L211.591 11.2745L211.107 11.4ZM203.041 11.1615C202.422 10.0204 201.521 9.15307 200.35 8.56778L199.903 9.46221C200.893 9.95693 201.642 10.6796 202.162 11.6385L203.041 11.1615ZM200.365 8.57557C199.229 7.95843 197.898 7.66 196.392 7.66V8.66C197.765 8.66 198.925 8.93157 199.888 9.45442L200.365 8.57557ZM196.392 7.66C193.779 7.66 191.643 8.53164 190.037 10.2987L190.777 10.9713C192.17 9.43835 194.024 8.66 196.392 8.66V7.66ZM190.04 10.2953C188.435 12.0283 187.657 14.3353 187.657 17.16H188.657C188.657 14.5247 189.378 12.4817 190.774 10.9747L190.04 10.2953ZM187.657 17.16C187.657 20.1604 188.463 22.5767 190.133 24.3435L190.86 23.6565C189.411 22.1233 188.657 19.9796 188.657 17.16H187.657ZM190.14 24.3502C191.844 26.0861 194.159 26.93 197.022 26.93V25.93C194.365 25.93 192.33 25.1539 190.854 23.6498L190.14 24.3502ZM197.022 26.93C199 26.93 200.7 26.4261 202.09 25.3911L201.493 24.5889C200.304 25.4739 198.824 25.93 197.022 25.93V26.93ZM202.086 25.3944C203.503 24.3635 204.519 22.8904 205.146 21.0081L204.197 20.6919C203.625 22.4096 202.72 23.6965 201.498 24.5856L202.086 25.3944ZM204.672 20.35H194.907V21.35H204.672V20.35ZM195.407 20.85V15.18H194.407V20.85H195.407ZM194.907 15.68H211.647V14.68H194.907V15.68ZM211.147 15.18V22.335H212.147V15.18H211.147ZM211.167 22.1927C210.618 24.0426 209.678 25.7676 208.338 27.3692L209.105 28.0108C210.526 26.3124 211.535 24.4674 212.126 22.4773L211.167 22.1927ZM208.335 27.3734C207.035 28.9622 205.369 30.2538 203.328 31.2452L203.765 32.1448C205.924 31.0961 207.709 29.7178 209.109 28.0066L208.335 27.3734ZM203.328 31.2452C201.305 32.2281 199.011 32.725 196.437 32.725V33.725C199.143 33.725 201.589 33.2019 203.765 32.1448L203.328 31.2452ZM196.437 32.725C193.391 32.725 190.686 32.0668 188.307 30.7617L187.826 31.6383C190.368 33.0332 193.242 33.725 196.437 33.725V32.725ZM188.314 30.7652C185.962 29.4298 184.122 27.5897 182.787 25.2381L181.917 25.7319C183.342 28.2403 185.311 30.2102 187.82 31.6348L188.314 30.7652ZM182.789 25.2422C181.485 22.8952 180.827 20.2056 180.827 17.16H179.827C179.827 20.3544 180.519 23.2148 181.915 25.7278L182.789 25.2422ZM180.827 17.16C180.827 14.1144 181.485 11.4248 182.789 9.07782L181.915 8.59218C180.519 11.1052 179.827 13.9656 179.827 17.16H180.827ZM182.788 9.07963C184.123 6.69919 185.962 4.86138 188.31 3.55708L187.824 2.68292C185.312 4.07862 183.34 6.05081 181.916 8.59037L182.788 9.07963ZM188.314 3.55478C190.66 2.22234 193.348 1.55 196.392 1.55V0.549999C193.196 0.549999 190.334 1.25766 187.82 2.68522L188.314 3.55478ZM196.392 1.55C200.089 1.55 203.163 2.44374 205.643 4.20282L206.221 3.38717C203.541 1.48626 200.255 0.549999 196.392 0.549999V1.55ZM205.645 4.20439C208.152 5.96255 209.811 8.39426 210.623 11.5255L211.591 11.2745C210.723 7.92574 208.931 5.28745 206.219 3.3856L205.645 4.20439ZM211.107 10.9H202.602V11.9H211.107V10.9ZM229.004 7.575V7.075H228.504V7.575H229.004ZM229.004 13.965H228.504V14.465H229.004V13.965ZM239.309 13.965H239.809V13.465H239.309V13.965ZM239.309 19.905V20.405H239.809V19.905H239.309ZM229.004 19.905V19.405H228.504V19.905H229.004ZM229.004 26.835H228.504V27.335H229.004V26.835ZM240.659 26.835H241.159V26.335H240.659V26.835ZM240.659 33V33.5H241.159V33H240.659ZM221.309 33H220.809V33.5H221.309V33ZM221.309 1.41V0.91H220.809V1.41H221.309ZM240.659 1.41H241.159V0.91H240.659V1.41ZM240.659 7.575V8.075H241.159V7.575H240.659ZM228.504 7.575V13.965H229.504V7.575H228.504ZM229.004 14.465H239.309V13.465H229.004V14.465ZM238.809 13.965V19.905H239.809V13.965H238.809ZM239.309 19.405H229.004V20.405H239.309V19.405ZM228.504 19.905V26.835H229.504V19.905H228.504ZM229.004 27.335H240.659V26.335H229.004V27.335ZM240.159 26.835V33H241.159V26.835H240.159ZM240.659 32.5H221.309V33.5H240.659V32.5ZM221.809 33V1.41H220.809V33H221.809ZM221.309 1.91H240.659V0.91H221.309V1.91ZM240.159 1.41V7.575H241.159V1.41H240.159ZM240.659 7.075H229.004V8.075H240.659V7.075ZM267.165 33L266.727 33.2413L266.869 33.5H267.165V33ZM260.595 21.075L261.033 20.8337L260.89 20.575H260.595V21.075ZM258.75 21.075V20.575H258.25V21.075H258.75ZM258.75 33V33.5H259.25V33H258.75ZM251.055 33H250.555V33.5H251.055V33ZM251.055 1.41V0.91H250.555V1.41H251.055ZM270.315 2.715L270.091 3.16222L270.094 3.16372L270.315 2.715ZM274.275 6.315L273.84 6.56216L273.842 6.56586L274.275 6.315ZM273.78 16.98L273.375 16.6859L273.372 16.6908L273.78 16.98ZM268.56 20.49L268.417 20.0109L267.808 20.1928L268.128 20.7417L268.56 20.49ZM275.85 33V33.5H276.72L276.282 32.7483L275.85 33ZM258.75 15.63H258.25V16.13H258.75V15.63ZM266.67 14.595L266.324 14.2339L266.316 14.2414L266.67 14.595ZM266.67 8.835L266.316 9.18863L266.324 9.19599L266.67 8.835ZM258.75 7.8V7.3H258.25V7.8H258.75ZM267.603 32.7587L261.033 20.8337L260.157 21.3163L266.727 33.2413L267.603 32.7587ZM260.595 20.575H258.75V21.575H260.595V20.575ZM258.25 21.075V33H259.25V21.075H258.25ZM258.75 32.5H251.055V33.5H258.75V32.5ZM251.555 33V1.41H250.555V33H251.555ZM251.055 1.91H263.97V0.91H251.055V1.91ZM263.97 1.91C266.403 1.91 268.437 2.33526 270.091 3.16221L270.538 2.26778C268.712 1.35474 266.516 0.91 263.97 0.91V1.91ZM270.094 3.16372C271.786 3.99504 273.026 5.12958 273.84 6.56215L274.71 6.06785C273.784 4.44041 272.384 3.17495 270.535 2.26627L270.094 3.16372ZM273.842 6.56586C274.665 7.98411 275.08 9.57648 275.08 11.355H276.08C276.08 9.41352 275.625 7.64588 274.707 6.06414L273.842 6.56586ZM275.08 11.355C275.08 13.3526 274.511 15.124 273.375 16.6859L274.184 17.2741C275.448 15.536 276.08 13.5574 276.08 11.355H275.08ZM273.372 16.6908C272.278 18.2331 270.641 19.3465 268.417 20.0109L268.703 20.9691C271.099 20.2535 272.941 19.0269 274.188 17.2692L273.372 16.6908ZM268.128 20.7417L275.418 33.2517L276.282 32.7483L268.992 20.2383L268.128 20.7417ZM275.85 32.5H267.165V33.5H275.85V32.5ZM258.75 16.13H263.52V15.13H258.75V16.13ZM263.52 16.13C265.003 16.13 266.205 15.7672 267.023 14.9486L266.316 14.2414C265.755 14.8028 264.856 15.13 263.52 15.13V16.13ZM267.016 14.956C267.859 14.1483 268.25 13.0282 268.25 11.67H267.25C267.25 12.8318 266.921 13.6617 266.324 14.234L267.016 14.956ZM268.25 11.67C268.25 10.3635 267.854 9.27713 267.016 8.47401L266.324 9.19599C266.926 9.77287 267.25 10.5765 267.25 11.67H268.25ZM267.023 8.48145C266.205 7.66281 265.003 7.3 263.52 7.3V8.3C264.856 8.3 265.755 8.62719 266.316 9.18855L267.023 8.48145ZM263.52 7.3H258.75V8.3H263.52V7.3ZM258.25 7.8V15.63H259.25V7.8H258.25Z" fill="white"/>
</svg>
