<svg width="18" height="18" viewBox="0 0 18 18" fill="none" xmlns="http://www.w3.org/2000/svg">
<g clip-path="url(#clip0_190_383)">
<path d="M6.975 0.0351067C6.93281 0.0491695 6.86602 0.108934 6.82383 0.161669L6.75 0.256592V9.00347V17.7539L6.85195 17.8664L6.95391 17.9824L8.94375 17.9929C11.1586 18.0035 11.0988 18.007 11.2008 17.7714C11.2746 17.5886 11.2746 0.411278 11.2008 0.228466C11.1023 -0.00708008 11.1516 -4.95911e-05 8.99297 0.00346565C7.92422 0.00346565 7.01367 0.0175285 6.975 0.0351067Z" fill="#E50914"/>
<path d="M13.6547 3.82495C13.6125 3.85659 13.5598 3.91988 13.5387 3.96206C13.5105 4.01831 13.5 5.91323 13.5 10.8949V17.7539L13.602 17.8664L13.7039 17.9824L15.6937 17.9929C17.9086 18.0035 17.8488 18.007 17.9508 17.7714C18.0246 17.5921 18.0246 4.173 17.9508 3.9937C17.8488 3.75113 17.9578 3.76167 15.7324 3.76167C13.8867 3.76167 13.7215 3.7687 13.6547 3.82495Z" fill="#E50914"/>
<path d="M0.179332 8.31792C-0.00699662 8.45152 3.4626e-05 8.25816 3.4626e-05 13.1308C3.4626e-05 16.9558 0.00706588 17.6695 0.0492534 17.7714C0.151207 18.007 0.0914408 18.0035 2.30628 17.9929L4.29613 17.9824L4.39808 17.8664L4.50004 17.7539V13.1449C4.50004 9.82261 4.48949 8.51831 4.46136 8.46206C4.44027 8.41988 4.38754 8.35659 4.34535 8.32495C4.27855 8.2687 4.11332 8.26167 2.26761 8.26167C0.467613 8.26167 0.25316 8.2687 0.179332 8.31792Z" fill="#E50914"/>
</g>
<defs>
<clipPath id="clip0_190_383">
<rect width="18" height="18" fill="white"/>
</clipPath>
</defs>
</svg>
