<svg width="50" height="50" viewBox="0 0 50 50" fill="none" xmlns="http://www.w3.org/2000/svg">
<path d="M35.8691 13.2695C35.4707 13.5215 35.4648 13.5508 35.4238 14.623C35.4004 15.3496 35.3711 15.6367 35.2949 15.7715C35.248 15.8652 35.002 16.1465 34.7559 16.3867C34.5098 16.627 34.1758 16.9785 34.0117 17.166L33.7129 17.5059L33.8477 17.5996C34.0176 17.7168 34.1289 17.8281 34.3047 18.0508L34.4336 18.2207L35.2422 17.4297C35.8691 16.8145 36.1035 16.6211 36.2793 16.5684C36.4082 16.5332 36.8828 16.5039 37.334 16.5039C38.0547 16.5039 38.1777 16.4863 38.3477 16.3867C38.6055 16.2285 38.793 15.8125 38.752 15.4902C38.7051 15.168 38.5586 14.9805 38.166 14.7695C37.7266 14.5352 37.3926 14.207 37.1875 13.8086C36.9414 13.3281 36.7832 13.2051 36.3789 13.1816C36.1211 13.1641 36.0039 13.1816 35.8691 13.2695Z" fill="#E50914"/>
<path d="M27.8418 13.3047C27.7422 13.3457 27.5898 13.4687 27.502 13.5684C27.2207 13.9082 27.2383 14.3242 27.5488 14.7461C27.8359 15.1328 27.8125 15.1797 26.5996 16.3984L25.498 17.5L25.9961 17.4648C26.2715 17.4473 26.7871 17.4297 27.1504 17.4238L27.8066 17.4121L28.5273 16.5977C29.4531 15.5488 29.4824 15.5254 29.8281 15.625C30.6953 15.8652 31.3223 15.1797 30.7773 14.5879C30.6016 14.3945 30.5488 14.3711 30.1621 14.3301C29.6523 14.2715 29.3184 14.0957 28.8965 13.6562C28.4922 13.2285 28.2227 13.1406 27.8418 13.3047Z" fill="#E50914"/>
<path d="M24.9706 18.496C22.246 18.912 19.0467 19.9784 16.7264 21.2499C13.4452 23.0429 11.3651 25.2812 10.4686 27.9765C10.1288 28.9902 10.035 29.5995 10.035 30.7714C10.0291 31.6093 10.0526 31.8495 10.1639 32.2831C10.8026 34.8202 13.0702 36.4374 16.4745 36.7773C16.9256 36.8241 20.1014 36.8359 27.1092 36.8241L37.0995 36.8066L37.5975 36.6718C38.3944 36.4609 39.0272 36.121 39.4784 35.6698C39.912 35.2363 40.0878 34.873 39.9413 34.6972C39.9003 34.6503 39.8417 34.6093 39.8065 34.6093C39.701 34.6093 38.7518 34.1816 38.4061 33.9823C37.6268 33.5253 36.9588 32.8632 36.6073 32.2128C36.3026 31.6327 36.1913 31.1991 36.1268 30.3495C35.992 28.4277 35.3944 26.6757 33.7772 23.4296C33.3553 22.5859 32.9803 21.871 32.9393 21.8359C32.8924 21.8007 32.7225 22.0058 32.3651 22.5448C31.287 24.1738 30.6835 25.7792 30.6835 27.0507C30.6835 27.8241 30.4315 28.8495 30.0682 29.5702C29.2713 31.1464 27.7127 32.3066 25.9725 32.6113C25.5213 32.6933 24.4784 32.6933 24.0272 32.6113C22.287 32.3066 20.7225 31.1347 19.9198 29.5409C19.6854 29.0839 19.4627 28.3691 19.3749 27.7948C19.287 27.2499 19.328 26.2011 19.4627 25.6503C19.8436 24.08 20.9862 22.6152 22.3807 21.9179C23.2479 21.4784 23.8397 21.3261 25.0174 21.2499C26.1893 21.1738 26.8221 20.9921 28.0174 20.3945C28.7088 20.0488 30.0155 19.205 30.0038 19.1113C29.9862 19.0058 29.4061 18.7245 28.9491 18.6132C27.912 18.3613 26.2069 18.3085 24.9706 18.496Z" fill="#E50914"/>
<path d="M32.2068 18.7363C32.031 18.8945 31.5974 19.252 31.24 19.5332C28.9959 21.2969 26.7224 22.3047 24.9998 22.3047C22.8845 22.3047 21.0154 23.7754 20.4822 25.8672C20.3298 26.4707 20.3298 27.4375 20.488 28.0938C20.8806 29.7402 22.1931 31.0703 23.8572 31.5098C24.5017 31.6797 25.492 31.6797 26.1365 31.5098C27.7947 31.0703 29.0545 29.8105 29.5115 28.1348C29.5466 28.0059 29.6111 27.4492 29.658 26.9043C29.7459 25.8496 29.8923 25.1992 30.2087 24.3965C30.7478 23.0371 31.6853 21.5488 32.9275 20.0664L33.5017 19.3809L33.4373 19.1523C33.3494 18.8066 33.1736 18.625 32.8396 18.5254C32.6697 18.4785 32.5349 18.4375 32.5349 18.4375C32.5291 18.4434 32.3826 18.5723 32.2068 18.7363Z" fill="#E50914"/>
<circle cx="25" cy="25" r="24" stroke="white" stroke-width="2"/>
</svg>
