<svg width="50" height="50" viewBox="0 0 50 50" fill="none" xmlns="http://www.w3.org/2000/svg">
<circle cx="25" cy="25" r="24" stroke="white" stroke-width="2"/>
<g clip-path="url(#clip0_361_20)">
<path d="M29.2187 13.0657C28.1453 13.3657 27.4 14.2751 27.3109 15.3954C27.2312 16.3985 27.8078 17.4204 28.7078 17.8704C29.1812 18.1094 29.5047 18.1751 30.0625 18.1423C31.5953 18.0673 32.6828 16.7219 32.4625 15.1891C32.3219 14.1907 31.5531 13.3188 30.5969 13.0751C30.2547 12.986 29.5234 12.9813 29.2187 13.0657Z" fill="#E50914"/>
<path d="M20.5516 17.275C20.0828 17.4531 19.9563 17.6266 18.8735 19.6094C18.3297 20.6031 17.8375 21.5078 17.7766 21.625C17.6828 21.7985 17.6641 21.9063 17.6641 22.2578C17.6641 22.6235 17.6828 22.7125 17.7953 22.9422C17.9641 23.2938 18.2969 23.5985 18.6531 23.7344C19.225 23.95 19.9422 23.786 20.3453 23.3453C20.4438 23.2375 20.8797 22.5063 21.3156 21.7047L22.1078 20.2656H23.5328H24.9578L24.8969 20.3735C24.8641 20.4344 23.8656 22.1735 22.6797 24.2406L20.5281 28H17.7953C14.9781 28 14.7531 28.0141 14.3922 28.1969C14.1297 28.3281 13.8531 28.6281 13.7125 28.9328C13.6094 29.1531 13.586 29.261 13.5906 29.5938C13.5906 29.9313 13.6094 30.0344 13.7172 30.2594C13.8813 30.5922 14.2328 30.9156 14.575 31.0422C14.8235 31.136 14.9172 31.1406 18.2735 31.1406C21.6672 31.1406 21.7188 31.1406 21.986 31.0422C22.4125 30.8875 22.6797 30.5688 23.3125 29.486C23.6078 28.9797 23.861 28.5625 23.875 28.5625C23.9406 28.5625 26.5938 30.6906 26.5938 30.7375C26.5938 30.7703 26.2094 31.7453 25.7406 32.9031L24.8875 35.0078L24.8828 35.4531C24.8828 35.8328 24.9016 35.9313 25 36.1328C25.1594 36.4656 25.5063 36.7844 25.8297 36.9063C26.2094 37.0516 26.7953 37.0235 27.1328 36.85C27.4094 36.7047 27.6719 36.4422 27.8031 36.1797C27.8547 36.0766 28.3891 34.7688 28.9891 33.2735C30.0485 30.6344 30.0813 30.5453 30.0813 30.2266C30.086 29.8094 29.9688 29.4719 29.7391 29.2094C29.6406 29.0969 28.8531 28.45 27.986 27.7703L26.4203 26.5328L26.7203 26.0125C26.8891 25.7266 27.3625 24.9156 27.775 24.2125L28.5297 22.9328L28.9797 23.6266C30.0906 25.3281 30.0625 25.2953 30.5266 25.5063C30.8266 25.6422 31.3188 25.6703 31.6328 25.5672C31.9938 25.4453 35.7906 23.3031 35.9828 23.111C36.55 22.5438 36.5735 21.5735 36.0391 20.9781C35.7438 20.65 35.4016 20.4906 34.9422 20.4625C34.4735 20.4344 34.361 20.4813 32.8469 21.3297L31.6703 21.986L30.8735 20.7625L30.0719 19.5391L29.5985 19.5063C29.0547 19.4688 28.3656 19.2578 27.9297 18.9953C27.2969 18.6156 26.7391 18.0391 26.4391 17.4672L26.2891 17.1719L23.5469 17.1766C20.8938 17.1766 20.7953 17.1813 20.5516 17.275Z" fill="#E50914"/>
</g>
<defs>
<clipPath id="clip0_361_20">
<rect width="24" height="24" fill="white" transform="translate(13 13)"/>
</clipPath>
</defs>
</svg>
