<svg width="50" height="50" viewBox="0 0 50 50" fill="none" xmlns="http://www.w3.org/2000/svg">
<g clip-path="url(#clip0_106_131)">
<path d="M14.2039 12.1879C14.0262 12.6145 13.7266 13.5844 13.6148 14.0871C13.5183 14.5441 13.5031 14.7574 13.5031 15.6816C13.5031 16.6719 13.5133 16.7836 13.6402 17.2457C13.7113 17.5199 13.8484 17.9211 13.9449 18.1344C14.3156 18.9977 14.3004 18.9824 19.4344 24.1266L24.2637 28.9609L24.8781 28.3465L25.4976 27.732L29.5957 32.3176C31.8504 34.8414 33.8156 37.0301 33.9578 37.1824C34.5672 37.8223 35.3289 38.0965 36.0957 37.9543C37.6039 37.675 38.4012 36.0906 37.741 34.6992C37.5937 34.3895 36.8219 33.6074 26.4016 23.182L15.2246 12H14.7574H14.2851L14.2039 12.1879Z" fill="#E50914"/>
<path d="M29.7429 14.8539C28.2043 16.3976 26.8738 17.7636 26.7926 17.8906C26.3914 18.4847 26.2035 19.0027 26.0968 19.7695C26.0562 20.064 26.0004 20.3636 25.9699 20.4347C25.9242 20.5566 26.0156 20.6633 27.6609 22.3035L29.4027 24.0453L29.7886 23.964C30.0019 23.9183 30.2355 23.8828 30.3117 23.8828C30.5859 23.8828 31.1293 23.7203 31.6015 23.4918L32.084 23.2582L35.0293 20.323L37.9746 17.3828L37.4668 16.875C37.1875 16.5957 36.9386 16.3672 36.9082 16.3672C36.8828 16.3672 35.9383 17.2863 34.816 18.4086L32.7695 20.4551L32.2363 19.9219L31.7031 19.3886L33.7699 17.3219L35.8418 15.25L35.2933 14.7066L34.75 14.1582L32.6781 16.2301L30.6113 18.2969L30.0781 17.7636L29.5449 17.2304L31.5914 15.184C32.7136 14.0617 33.6328 13.1172 33.6328 13.0918C33.6328 13.0258 32.6578 12.0508 32.5918 12.0508C32.5613 12.0508 31.2816 13.3152 29.7429 14.8539Z" fill="#E50914"/>
<path d="M16.159 30.6215C12.6348 34.1559 12.3656 34.4402 12.2336 34.7348C11.6547 36.0703 12.3402 37.5227 13.7215 37.8985C14.016 37.9746 14.6609 37.9645 14.9504 37.8781C15.4988 37.7106 15.5598 37.6547 19.4141 33.8055L23.1973 30.0274L21.5977 28.4277C20.7191 27.5492 19.9879 26.8281 19.9727 26.8281C19.9574 26.8281 18.241 28.5344 16.159 30.6215Z" fill="#E50914"/>
</g>
<circle cx="25" cy="25" r="24" stroke="white" stroke-width="2"/>
<defs>
<clipPath id="clip0_106_131">
<rect width="26" height="26" fill="white" transform="translate(12 12)"/>
</clipPath>
</defs>
</svg>
