<svg width="50" height="50" viewBox="0 0 50 50" fill="none" xmlns="http://www.w3.org/2000/svg">
<circle cx="25" cy="25" r="24" stroke="white" stroke-width="2"/>
<path d="M26.9043 11.9395C25.6445 12.1211 24.291 12.7598 23.0371 13.7676C21.0156 15.3906 19.1641 18.3965 18.2324 21.5664C18.0566 22.1582 17.7344 23.5469 17.7344 23.7051C17.7344 23.7344 18.1738 23.623 18.7188 23.4648C19.2578 23.3066 19.8086 23.1777 19.9492 23.1777C20.2246 23.1719 20.5117 23.3125 20.6699 23.5352C20.7344 23.6172 20.9453 24.3613 21.168 25.2637C21.3789 26.1309 21.584 26.957 21.6191 27.0859L21.6895 27.3262L23.4473 26.8105C24.4141 26.5234 25.2812 26.2891 25.3691 26.2891C25.6094 26.2891 25.8965 26.4238 26.0664 26.6289C26.1895 26.7754 26.2949 27.1328 26.6465 28.5742C26.8809 29.541 27.0918 30.3613 27.1094 30.3965C27.1387 30.4375 27.6074 30.3203 28.4629 30.0684C29.8633 29.6582 29.998 29.6406 30.3613 29.8633C30.5723 29.9922 30.7188 30.2266 30.7715 30.5137C30.8184 30.7715 30.5957 31.3867 30.0625 32.418C28.8965 34.709 27.4492 36.2734 25.1816 37.6973C25.1113 37.7441 25.2871 37.7969 25.9492 37.9375C26.582 38.0723 26.8047 38.0898 27.7832 38.0898C28.9785 38.0898 29.5234 38.0195 30.4902 37.7383C33.7129 36.8066 36.291 34.1934 37.4453 30.6777C37.9434 29.1777 38.0957 28.1172 38.0898 26.3184C38.084 25.2402 38.0605 24.8008 37.9551 24.1211C37.6328 22.0176 37.041 20.1719 36.0859 18.291C33.8359 13.8848 30.3203 11.4473 26.9043 11.9395Z" fill="#E50914"/>
<path d="M14.371 22.3457C13.6092 23.3769 12.8885 24.7304 12.496 25.8554C10.5858 31.416 13.2811 36.8007 18.5546 37.9668C19.3749 38.1484 20.91 38.1425 21.8182 37.9609C24.9881 37.3222 27.7186 35.0781 29.3299 31.7734C29.7753 30.8711 29.8456 30.6836 29.7518 30.6836C29.7167 30.6836 28.9608 30.8945 28.0702 31.1582C27.1854 31.416 26.4471 31.6211 26.4354 31.6093C26.4237 31.6035 26.1835 30.6191 25.8905 29.4355C25.6034 28.2519 25.3573 27.2734 25.3456 27.2617C25.3338 27.2441 24.3495 27.5195 23.1659 27.8652C21.9823 28.2168 21.0038 28.4804 20.9921 28.4629C20.9803 28.4453 20.7401 27.4609 20.453 26.2773C20.1659 25.0879 19.9081 24.1211 19.8729 24.1211C19.8436 24.1211 18.8651 24.3964 17.7108 24.7363C16.41 25.1172 15.5897 25.3281 15.5663 25.2929C15.5487 25.2636 15.3495 24.4961 15.1327 23.5937C14.91 22.6914 14.7108 21.9531 14.6932 21.9531C14.6756 21.9531 14.5292 22.1289 14.371 22.3457Z" fill="#E50914"/>
</svg>
