<svg width="50" height="50" viewBox="0 0 50 50" fill="none" xmlns="http://www.w3.org/2000/svg">
<circle cx="25" cy="25" r="24" stroke="white" stroke-width="2"/>
<path d="M18.3204 11.5C17.7755 11.6992 17.4533 12.0039 17.1779 12.5664L17.049 12.8359H16.5861C15.631 12.8477 14.9454 13.416 14.7286 14.3711L14.6525 14.7051L14.295 14.834C13.3283 15.1797 12.6837 15.877 12.4318 16.8379C12.1095 18.0742 12.7482 19.4277 13.9318 20.0195C14.1368 20.125 14.3185 20.2188 14.3302 20.2305C14.3361 20.2363 14.2482 20.4062 14.131 20.5938C13.7443 21.2266 13.6681 21.6484 13.838 22.2285C13.9611 22.6328 14.2013 22.9668 14.5704 23.248C14.7462 23.3828 14.8986 23.4941 14.9103 23.5059C14.922 23.5176 14.8693 23.7109 14.799 23.9453C14.5939 24.6191 14.7286 25.2637 15.1798 25.8027C15.4318 26.1016 15.9767 26.3535 16.4689 26.3887L16.9025 26.4238L17.4415 27.9531C17.7404 28.791 18.0099 29.541 18.0333 29.6113L18.0802 29.7402L18.4493 29.582C18.6544 29.5 18.8302 29.4238 18.8419 29.4121C18.8536 29.4062 18.7716 29.2949 18.6544 29.166C18.1857 28.6445 17.9337 27.8887 17.9865 27.1387L18.0158 26.6699L17.7638 26.4004C17.2599 25.8613 16.9962 25.0996 17.049 24.3555C17.0665 24.1152 17.1193 23.8105 17.1661 23.6816L17.2482 23.4473L16.7677 22.9785C15.9591 22.1875 15.5783 21.2148 15.6427 20.1074C15.7247 18.7422 16.5509 17.5059 17.7579 16.9375C18.0099 16.8203 18.0626 16.7617 18.1798 16.4805C18.549 15.5664 19.3751 14.8926 20.3243 14.7344C20.6466 14.6758 20.7286 14.6406 20.8048 14.5059C20.9689 14.2305 21.5724 13.7207 21.9122 13.5684C22.0939 13.4922 22.2462 13.4102 22.2462 13.3867C22.2462 13.2871 21.672 13.2637 21.2618 13.3516L20.8341 13.4336L20.8048 13.2871C20.6056 12.3203 20.3829 11.9629 19.7794 11.6406C19.3283 11.4004 18.7482 11.3477 18.3204 11.5Z" fill="#E50914"/>
<path d="M22.5392 14.3125C21.9943 14.5117 21.672 14.8164 21.3966 15.3789L21.2677 15.6484H20.8048C19.8497 15.6602 19.1642 16.2285 18.9474 17.1836L18.8712 17.5176L18.5138 17.6465C17.547 17.9922 16.9025 18.6895 16.6505 19.6504C16.3283 20.8867 16.9669 22.2402 18.1505 22.832C18.3556 22.9375 18.5372 23.0312 18.549 23.043C18.5548 23.0488 18.4669 23.2188 18.3497 23.4062C17.963 24.0391 17.8868 24.4609 18.0568 25.041C18.1798 25.4453 18.42 25.7793 18.7892 26.0605C18.965 26.1953 19.1173 26.3066 19.129 26.3184C19.1408 26.3301 19.088 26.5234 19.0177 26.7578C18.7892 27.5078 18.9533 28.1641 19.504 28.7031C19.838 29.0254 20.2306 29.1895 20.8283 29.2422C21.0626 29.2598 21.8419 29.3711 22.5509 29.4824C23.2658 29.5938 23.8517 29.6875 23.8575 29.6875C23.8634 29.6875 23.8165 29.4824 23.7521 29.2305C23.6525 28.8438 23.629 28.5742 23.6173 27.373L23.6056 25.9668L23.3829 25.8086C22.879 25.4512 21.7599 25.123 20.7579 25.0293L20.3126 24.9883V24.5254V24.0625H20.4767C21.1388 24.0625 22.4923 24.3496 23.1017 24.6191C23.2833 24.7012 23.4474 24.7539 23.465 24.7363C23.506 24.6953 23.3536 24.209 22.9376 23.084C22.545 22.0234 22.504 21.9707 21.8185 21.6602C21.215 21.3906 20.7579 21.3027 19.8322 21.2676L18.965 21.2324L18.9415 21.0508C18.924 20.9512 18.9005 20.7461 18.8829 20.5879L18.8478 20.3125H19.5743C20.3068 20.3125 21.1271 20.418 21.5958 20.5762C21.7423 20.623 21.8712 20.6523 21.8888 20.6348C21.924 20.5938 21.2384 19.2285 20.7638 18.4023L20.3947 17.752L20.7755 17.5059L21.1622 17.2598L21.2501 17.3887C21.4904 17.7285 22.3927 19.416 22.7208 20.1426C22.9259 20.5879 23.1075 20.957 23.1251 20.957C23.1427 20.957 23.2423 20.7578 23.3536 20.5176C23.6408 19.8789 24.174 19.0996 24.7013 18.543C24.9591 18.2734 25.1759 18.0684 25.1876 18.0859C25.2052 18.1035 25.3341 18.2676 25.4865 18.4551L25.7618 18.8008L25.4396 19.1289C24.6486 19.9492 24.0919 20.9336 23.8048 22.0176L23.6993 22.4043L23.9747 23.2012L24.2501 24.0039L24.5548 23.4883C24.7716 23.1191 25.0353 22.7969 25.5275 22.2988C26.3595 21.4551 26.6642 21.291 27.3615 21.2852L27.8243 21.2793L27.7833 20.9922C27.7365 20.6348 27.5431 20.2422 27.2267 19.8848L26.9806 19.6094L27.2267 19.3281C27.6544 18.8477 27.7775 18.543 27.7775 17.9688C27.7775 17.5469 27.754 17.4238 27.6251 17.1719C27.3966 16.7324 27.215 16.5449 26.8283 16.3398C26.3888 16.1055 25.9318 16.0469 25.422 16.1699L25.0587 16.252L25.0236 16.0996C25.006 16.0176 24.965 15.8301 24.9357 15.6895C24.8068 15.1328 24.4962 14.7227 23.9982 14.4531C23.547 14.2129 22.9669 14.1602 22.5392 14.3125Z" fill="#E50914"/>
<path d="M31.0761 18.0919C30.9297 18.168 30.8125 18.2911 30.7304 18.461L30.6074 18.713L30.8301 21.127C30.9531 22.4864 31.0293 23.5645 31 23.588C30.9707 23.6114 30.8242 23.6817 30.6719 23.7344C30.332 23.8575 30.1211 24.0216 30.1797 24.1153C30.2558 24.2325 30.6426 24.4024 31.0234 24.4727C31.6914 24.6075 32.6816 24.4317 32.9219 24.1387C33.0156 24.0216 32.8515 23.8809 32.4531 23.7344C32.3008 23.6817 32.1543 23.6114 32.125 23.588C32.0957 23.5645 32.1719 22.4864 32.2949 21.127L32.5176 18.713L32.3945 18.461C32.1719 18.004 31.5625 17.8341 31.0761 18.0919Z" fill="#E50914"/>
<path d="M26.9454 22.3105C26.6173 22.4746 25.8556 23.2246 25.5333 23.7051C25.1935 24.2031 24.8478 24.9531 24.6954 25.5098C24.5431 26.0781 24.4786 27.8828 24.5841 28.5742C24.6603 29.0664 24.8595 29.7871 24.9357 29.8281C24.9708 29.8516 26.4415 30.0977 26.5411 30.0977C26.5587 30.0977 26.5411 29.9863 26.506 29.8457C26.4591 29.6934 26.4357 28.9434 26.4357 27.8125C26.4357 26.1543 26.4474 25.9902 26.5646 25.5156C26.8341 24.4668 27.256 23.5938 27.8654 22.8496C28.1876 22.457 28.1818 22.4395 27.795 22.2754C27.5021 22.1523 27.2443 22.1641 26.9454 22.3105Z" fill="#E50914"/>
<path d="M35.2715 22.3047C35.1309 22.3633 35.0195 22.4336 35.0195 22.4512C35.0195 22.4688 35.166 22.6738 35.3477 22.9082C35.9805 23.7344 36.5078 25.0117 36.6543 26.0781C36.7363 26.6465 36.7363 28.9902 36.6602 29.541C36.5781 30.1094 36.3965 30.7891 36.2207 31.1875C36.1387 31.3691 36.0801 31.5332 36.0977 31.5449C36.1211 31.5742 36.7715 31.6797 36.9238 31.6797C37.1055 31.6797 37.6738 30.9238 38.0078 30.2441C38.4941 29.2539 38.5645 28.8906 38.5645 27.3438C38.5645 26.1484 38.5527 25.9785 38.4297 25.5273C38.1484 24.4961 37.6328 23.6172 36.8828 22.8789C36.1914 22.1992 35.7988 22.0645 35.2715 22.3047Z" fill="#E50914"/>
<path d="M29.6172 22.4219C29.2715 22.6504 28.6094 23.3477 28.3223 23.7871C28 24.2735 27.666 25.0117 27.5137 25.586C27.3848 26.0488 27.3789 26.2012 27.373 27.7246C27.373 29.2656 27.4316 29.9746 27.5664 30.1973C27.6016 30.2559 30.2734 30.7012 30.3203 30.6602C30.332 30.6485 30.3027 30.4551 30.2617 30.2383C30.1738 29.7813 30.1562 26.4531 30.2324 25.6914L30.2793 25.2403L30.0742 25.1524C29.8047 25.041 29.3945 24.6602 29.2949 24.4317C29.1953 24.1914 29.1953 23.9336 29.3008 23.6934C29.3828 23.4883 29.7695 23.084 29.9336 23.0313C30.0098 23.0078 30.0391 22.9375 30.0391 22.8086C30.0391 22.5508 29.9746 22.2461 29.9219 22.2461C29.9043 22.2461 29.7637 22.3281 29.6172 22.4219Z" fill="#E50914"/>
<path d="M33.1211 22.4277C33.0508 22.7793 33.0801 22.9961 33.1973 23.0371C33.2559 23.0547 33.4258 23.2012 33.5723 23.3535C34.0059 23.8164 34.0176 24.291 33.6016 24.7422C33.1973 25.1816 32.4063 25.4629 31.586 25.4688C31.2637 25.4688 31.2227 25.4805 31.1817 25.5977C31.1582 25.6738 31.1231 26.4883 31.1114 27.4141C31.0821 29.0371 31.1231 29.8574 31.2754 30.5723L31.334 30.8359L33.1328 31.1113C34.1231 31.2637 34.9727 31.3867 35.0313 31.3867C35.1426 31.3867 35.4297 30.7422 35.6231 30.0508C35.7344 29.6348 35.7461 29.4531 35.7461 27.8418C35.752 25.9199 35.7344 25.7734 35.3711 24.8418C35.0254 23.9336 34.2168 22.8555 33.5723 22.4277C33.2324 22.1992 33.168 22.1992 33.1211 22.4277Z" fill="#E50914"/>
<path d="M19.5742 30.2207C18.7539 30.3555 18.0156 30.7539 17.3535 31.416C16.8203 31.9492 16.5098 32.4414 16.2871 33.1152C16.1523 33.5313 16.1348 33.6777 16.1348 34.375C16.1348 35.0723 16.1523 35.2188 16.2871 35.6348C16.5098 36.3086 16.8203 36.8008 17.3535 37.334C18.1504 38.1309 19 38.5176 20.1074 38.5762C20.6582 38.6055 21.1738 38.5293 28.9258 37.3399C33.4551 36.6426 37.252 36.0449 37.3633 36.0156C38.0488 35.8281 38.5937 35.1074 38.5937 34.375C38.5937 33.6426 38.0488 32.9219 37.3633 32.7344C37.252 32.7051 33.4668 32.1133 28.9551 31.416C20.6465 30.1387 20.3066 30.0977 19.5742 30.2207ZM20.7812 34.375V36.7188H20.3125H19.8437V34.375V32.0313H20.3125H20.7812V34.375ZM24.5312 34.375V36.7188H24.0625H23.5937V34.375V32.0313H24.0625H24.5312V34.375ZM28.2812 34.375V36.7188H27.8125H27.3437V34.375V32.0313H27.8125H28.2812V34.375ZM32.0312 34.375V35.7813H31.5625H31.0937V34.375V32.9688H31.5625H32.0312V34.375ZM35.7812 34.375V35.3125H35.3125H34.8437V34.375V33.4375H35.3125H35.7812V34.375Z" fill="#E50914"/>
<path d="M12.9297 32.1484C12.8535 32.2246 12.8125 32.3418 12.8125 32.5C12.8125 32.6582 12.8535 32.7754 12.9297 32.8516C13.041 32.9629 13.123 32.9688 14.207 32.9688H15.3613L15.4258 32.7578C15.4785 32.6055 15.4785 32.541 15.4258 32.5234C15.291 32.4766 13.2227 32.0312 13.1348 32.0312C13.0879 32.0312 12.9941 32.084 12.9297 32.1484Z" fill="#E50914"/>
<path d="M11.5527 34.0527C11.459 34.1406 11.4062 34.2637 11.4062 34.375C11.4062 34.4863 11.459 34.6094 11.5527 34.6973L11.6934 34.8438H13.4277H15.1562V34.375V33.9062H13.4277H11.6934L11.5527 34.0527Z" fill="#E50914"/>
<path d="M12.9297 35.8984C12.6953 36.1328 12.8418 36.7188 13.1348 36.7188C13.2227 36.7188 15.291 36.2734 15.4258 36.2266C15.4785 36.209 15.4785 36.1445 15.4258 35.9922L15.3613 35.7812H14.207C13.123 35.7812 13.041 35.7871 12.9297 35.8984Z" fill="#E50914"/>
</svg>
