<svg width="50" height="50" viewBox="0 0 50 50" fill="none" xmlns="http://www.w3.org/2000/svg">
<circle cx="25" cy="25" r="24" stroke="white" stroke-width="2"/>
<g clip-path="url(#clip0_107_173)">
<path d="M17.8516 13.0515C17.2329 13.1406 16.4829 13.4359 15.9157 13.8156C15.5266 14.0734 14.9969 14.589 14.711 14.9874C14.4251 15.3906 14.1063 16.075 13.9844 16.5625C13.7688 17.3921 13.7594 17.2796 14.6126 25.4687C15.0391 29.5796 15.4235 33.1046 15.4657 33.2968C15.6485 34.1453 16.0751 34.9187 16.7266 35.575C17.3735 36.2312 18.0204 36.6109 18.9063 36.85L19.3516 36.9718L21.8266 36.9906L24.2969 37.0046V34.1078C24.2969 31.4453 24.3016 31.1968 24.3813 31.0468C24.6297 30.5453 25.3704 30.5453 25.6188 31.0468C25.6985 31.1968 25.7032 31.4453 25.7032 34.1078V37.0046L28.1782 36.9906L30.6485 36.9718L31.0938 36.85C31.9891 36.6062 32.7204 36.175 33.3344 35.5234C33.9485 34.8765 34.361 34.1125 34.5344 33.2968C34.5766 33.1046 34.961 29.5796 35.3876 25.4687C36.236 17.289 36.2266 17.4156 36.0157 16.5625C35.5657 14.739 33.9719 13.3093 32.1063 13.0515C31.661 12.9906 18.2829 12.9906 17.8516 13.0515ZM26.6876 16.1359C28.5251 16.464 30.1469 17.2281 31.6563 18.4796C32.3126 19.0281 33.0485 19.8109 33.1188 20.0406C33.1891 20.2703 33.1141 20.5234 32.9079 20.7671C31.9001 21.9671 29.0126 25.2296 28.9188 25.2718C28.736 25.3515 21.2641 25.3515 21.0813 25.2718C20.9829 25.225 19.9516 24.0671 17.2376 20.9359C16.6891 20.3078 16.7126 20.0968 17.3876 19.3796C19.061 17.6124 21.3672 16.3843 23.5704 16.0984C23.7766 16.0703 24.011 16.0375 24.086 16.0281C24.1657 16.0187 24.6579 16.014 25.1876 16.0234C25.9001 16.0328 26.2891 16.0609 26.6876 16.1359Z" fill="#E50914"/>
<path d="M24.1564 17.4437C23.4861 17.5094 22.6517 17.6969 22.0611 17.9172C21.5501 18.1047 21.0157 18.3484 21.0157 18.3953C21.0157 18.4141 21.1329 18.5734 21.2736 18.7422C21.5829 19.1219 21.6626 19.3422 21.5829 19.6047C21.5173 19.8297 21.2642 20.0641 21.0392 20.1062C20.7298 20.1625 20.5095 20.0312 20.1157 19.5625L19.7595 19.1406L19.4829 19.3656C18.9579 19.7875 18.5267 20.1906 18.5407 20.2516C18.5501 20.2844 19.2626 21.1234 20.1251 22.1172L21.6954 23.9219H22.6376H23.5798L24.1611 22.6703C24.6673 21.5828 24.7611 21.4094 24.8736 21.3719C24.9532 21.3438 25.047 21.3438 25.1267 21.3719C25.2392 21.4094 25.3329 21.5828 25.8392 22.6703L26.4204 23.9219H27.3626H28.3048L29.8751 22.1172C30.7376 21.1234 31.4501 20.2844 31.4595 20.2516C31.4736 20.1906 31.0236 19.7734 30.5126 19.3609C30.2829 19.1781 30.222 19.1453 30.1798 19.1969C30.1564 19.2344 29.997 19.4266 29.8376 19.6234C29.5001 20.0266 29.2564 20.1625 28.9611 20.1062C28.7361 20.0641 28.4829 19.8297 28.4173 19.6047C28.3376 19.3422 28.4173 19.1219 28.7267 18.7422C28.8673 18.5734 28.9845 18.4141 28.9845 18.3906C28.9845 18.3484 28.2392 18.0156 27.8267 17.8703C27.2736 17.6828 26.6876 17.5516 25.8111 17.4344C25.7032 17.4203 25.7032 17.4297 25.7032 17.9125C25.7032 18.5359 25.6142 18.7562 25.3095 18.9016C25.0611 19.0234 24.9392 19.0234 24.6954 18.9062C24.3954 18.7609 24.3251 18.5969 24.297 17.9688L24.2736 17.4297L24.1564 17.4437Z" fill="#E50914"/>
</g>
<defs>
<clipPath id="clip0_107_173">
<rect width="24" height="24" fill="white" transform="translate(13 13)"/>
</clipPath>
</defs>
</svg>
