<svg width="50" height="50" viewBox="0 0 50 50" fill="none" xmlns="http://www.w3.org/2000/svg">
<circle cx="25" cy="25" r="24" stroke="white" stroke-width="2"/>
<path d="M18.3883 12.0761C17.4082 12.2793 16.6211 12.9902 16.2149 14.0363C15.9 14.8488 15.7528 15.6765 15.6512 17.2C15.575 18.3476 15.702 19.4039 16.1184 21.1152C16.616 23.182 17.3219 24.8324 17.9567 25.4519L18.1344 25.6195L19.602 25.264C20.4043 25.066 21.3742 24.8324 21.75 24.7461C22.791 24.5125 22.791 24.5125 23.0348 23.6797C23.5578 21.9023 23.6899 19.1855 23.3446 17.4336C23.111 16.2707 22.8114 15.3261 22.4153 14.5136C21.8059 13.2695 21.0188 12.4672 20.0895 12.1472C19.6985 12.0152 18.8504 11.9746 18.3883 12.0761Z" fill="#E50914"/>
<path d="M30.3523 18.0886C29.7988 18.1597 29.1234 18.5355 28.5953 19.0687C27.7727 19.9066 27.1379 21.298 26.7316 23.1566C26.5031 24.1976 26.4523 24.8324 26.4879 26.2136C26.5285 27.8335 26.6707 28.8136 27.016 29.8902C27.2191 30.53 27.2395 30.5453 27.9047 30.7128C28.1637 30.7738 29.159 31.0175 30.1187 31.2511L31.8555 31.6726L32.0383 31.4949C32.8254 30.7382 33.7039 28.4125 34.1559 25.8835C34.4199 24.4058 34.4352 23.5019 34.2168 21.8464C33.9426 19.7644 33.1199 18.5203 31.7945 18.175C31.4391 18.0835 30.7434 18.0429 30.3523 18.0886Z" fill="#E50914"/>
<path d="M22.4864 25.5891C22.2934 25.6602 21.3235 25.9547 20.3332 26.2492C19.343 26.5387 18.5254 26.7825 18.5203 26.7926C18.4899 26.8231 18.6625 27.9961 18.759 28.4024C19.1449 30.0731 19.9321 31.2563 20.9731 31.7387C21.8211 32.1297 22.786 31.9418 23.4461 31.2512C24.5633 30.0731 24.4719 28.0164 23.2125 25.9039C23.0653 25.6602 22.9231 25.4621 22.8926 25.4621C22.8672 25.4621 22.6844 25.5231 22.4864 25.5891Z" fill="#E50914"/>
<path d="M26.8738 31.8199C26.366 32.607 25.9293 33.7293 25.8074 34.5418C25.5586 36.2582 26.4016 37.7207 27.7828 37.9594C28.9711 38.1625 30.2 37.2535 30.8602 35.6793C31.1242 35.0496 31.3781 33.9578 31.4645 33.0945L31.4949 32.8406L29.9613 32.3887C29.1184 32.1398 28.1231 31.8453 27.7523 31.7234L27.0719 31.5102L26.8738 31.8199Z" fill="#E50914"/>
</svg>
