<svg width="50" height="50" viewBox="0 0 50 50" fill="none" xmlns="http://www.w3.org/2000/svg">
<circle cx="25" cy="25" r="24" stroke="white" stroke-width="2"/>
<path d="M17.7812 15.0781C17.5859 15.1992 17.5 15.3711 17.5 15.6445C17.5 15.7734 17.9219 20.0859 18.4375 25.2266C19.457 35.4102 19.3711 34.7266 19.6484 34.9102L19.7773 35H25H30.2227L30.3516 34.9102C30.6289 34.7266 30.543 35.4102 31.5625 25.2266C32.0781 20.0859 32.5 15.7734 32.5 15.6445C32.5 15.3711 32.4141 15.1992 32.2188 15.0781C32.0898 15 32.0039 15 25 15C17.9961 15 17.9102 15 17.7812 15.0781ZM31.1523 16.3945C31.1289 16.5547 30.6641 21.2148 30.6641 21.2852C30.6641 21.3359 30.2266 21.4688 29.6484 21.5898C29.0273 21.7188 27.9883 21.7539 27.4648 21.6641C26.6641 21.5234 26.1211 21.2773 25.3516 20.7031C24.5703 20.1211 23.9023 19.8086 23.0312 19.6172C22.5977 19.5234 22.4883 19.5117 21.6797 19.5156C20.75 19.5156 20.5195 19.543 19.6367 19.75C19.4023 19.8047 19.207 19.8438 19.2031 19.8398C19.1953 19.832 19.1172 19.0664 19.0273 18.1445C18.9375 17.2188 18.8555 16.418 18.8438 16.3555L18.8203 16.25H24.9961H31.1719L31.1523 16.3945Z" fill="#E50914"/>
</svg>
