<svg width="20" height="20" viewBox="0 0 20 20" fill="none" xmlns="http://www.w3.org/2000/svg">
<g clip-path="url(#clip0_205_172)">
<path d="M1.69531 0.144646C1.55859 0.472771 1.32812 1.21886 1.24219 1.60558C1.16797 1.95715 1.15625 2.12121 1.15625 2.83215C1.15625 3.59386 1.16406 3.6798 1.26172 4.03527C1.31641 4.24621 1.42187 4.5548 1.49609 4.71886C1.78125 5.38293 1.76953 5.37121 5.71875 9.32824L9.43359 13.047L9.90625 12.5743L10.3828 12.1017L13.5352 15.629C15.2695 17.5704 16.7812 19.254 16.8906 19.3712C17.3594 19.8634 17.9453 20.0743 18.5352 19.965C19.6953 19.7501 20.3086 18.5314 19.8008 17.461C19.6875 17.2228 19.0937 16.6212 11.0781 8.60168L2.48047 0.000114441H2.12109H1.75781L1.69531 0.144646Z" fill="#E50914"/>
<path d="M13.6484 2.19531C12.4648 3.38281 11.4414 4.43359 11.3789 4.53125C11.0703 4.98828 10.9258 5.38672 10.8437 5.97656C10.8125 6.20313 10.7695 6.43359 10.7461 6.48828C10.7109 6.58203 10.7812 6.66406 12.0469 7.92578L13.3867 9.26562L13.6836 9.20313C13.8476 9.16797 14.0273 9.14063 14.0859 9.14063C14.2969 9.14063 14.7148 9.01563 15.0781 8.83984L15.4492 8.66016L17.7148 6.40234L19.9804 4.14063L19.5898 3.75C19.375 3.53516 19.1836 3.35938 19.1601 3.35938C19.1406 3.35938 18.414 4.06641 17.5508 4.92969L15.9765 6.50391L15.5664 6.09375L15.1562 5.68359L16.7461 4.09375L18.3398 2.5L17.9179 2.08203L17.5 1.66016L15.9062 3.25391L14.3164 4.84375L13.9062 4.43359L13.4961 4.02344L15.0703 2.44922C15.9336 1.58594 16.6406 0.859377 16.6406 0.839846C16.6406 0.789064 15.8906 0.0390644 15.8398 0.0390644C15.8164 0.0390644 14.832 1.01172 13.6484 2.19531Z" fill="#E50914"/>
<path d="M3.19926 14.3243C0.488321 17.043 0.28129 17.2618 0.179728 17.4884C-0.265585 18.5157 0.261759 19.6329 1.32426 19.922C1.55082 19.9805 2.04692 19.9727 2.26957 19.9063C2.69145 19.7774 2.73832 19.7345 5.70317 16.7735L8.61332 13.8673L7.38285 12.6368C6.70707 11.961 6.14457 11.4063 6.13285 11.4063C6.12113 11.4063 4.80082 12.7188 3.19926 14.3243Z" fill="#E50914"/>
</g>
<defs>
<clipPath id="clip0_205_172">
<rect width="20" height="20" fill="white"/>
</clipPath>
</defs>
</svg>
