<svg width="305" height="65" viewBox="0 0 305 65" fill="none" xmlns="http://www.w3.org/2000/svg">
<path d="M26.416 0.869217C18.4766 5.41023 13.9355 10.5958 12.0801 17.2364C11.4844 19.3555 11.1328 21.836 11.1328 23.9649V24.9219L8.38867 22.2559C6.88477 20.7813 5.09766 19.0528 4.43359 18.418L3.21289 17.2559L3.25195 24.2286C3.28125 30.2735 3.31055 31.338 3.45703 32.2266C4.375 37.793 6.28906 41.7384 9.54102 44.8243C12.0605 47.2071 15.127 48.6134 18.7988 49.0723C20.0391 49.2286 22.998 49.2774 23.0859 49.1407C23.1152 49.0919 22.7832 48.711 22.3535 48.2813C20.0488 46.0059 18.5059 43.0762 17.8906 39.795C17.6367 38.4278 17.666 35.6251 17.9492 34.1993C18.9941 28.9649 22.2168 24.6973 26.7871 22.5098C29.1016 21.3966 30.9961 20.9766 33.6914 20.9669C36.5234 20.9571 37.7734 21.2501 41.2305 22.7344C41.3281 22.7735 41.2598 22.2559 40.9082 20.1173C40.3809 16.9825 39.541 14.0137 38.5254 11.7091C38.0273 10.5665 36.6211 7.99812 36.5332 8.05672C36.5039 8.07625 34.5605 9.56062 32.2266 11.3673L27.9785 14.6387L27.9297 7.33406L27.8809 0.0293732L26.416 0.869217Z" fill="#E50914"/>
<path d="M32.0508 24.0234C29.2969 24.4141 26.8555 25.6152 24.834 27.5684C22.9102 29.4336 21.7481 31.416 21.0743 33.9844C20.6934 35.4492 20.5957 37.6172 20.8399 39.0625C21.6602 43.7695 25.127 47.8906 29.4922 49.3555C30.8887 49.8145 31.7676 49.9512 33.4961 49.9414C35.2832 49.9414 36.2012 49.8047 37.7247 49.3066C41.0352 48.2324 43.8868 45.8398 45.3907 42.8906C46.2793 41.1523 46.6602 39.6875 46.7481 37.6465C46.9043 33.9063 45.5762 30.4395 43.0176 27.8809C41.1133 25.9668 39.1407 24.8926 36.4258 24.2578C35.2735 23.9844 33.1153 23.877 32.0508 24.0234ZM31.1817 31.2012C31.9727 31.4063 32.6075 31.7481 33.2129 32.3047L33.7403 32.793L34.2676 32.3047C35.2344 31.416 36.4258 30.9961 37.6954 31.084C40.9668 31.3086 42.8809 34.7656 41.3477 37.6953C41.0645 38.2324 40.459 38.8965 37.3731 41.9727L33.7403 45.6055L30.0196 41.875C26.504 38.3398 26.2891 38.0957 25.9864 37.4316C25.1075 35.4785 25.7715 33.0664 27.5098 31.8652C28.584 31.1231 29.9512 30.8789 31.1817 31.2012Z" fill="#E50914"/>
<path d="M29.414 34.248C28.8183 34.541 28.5253 35.1855 28.6621 35.9082C28.7207 36.2305 29.0722 36.6211 31.2304 38.7988L33.7402 41.3086L36.1621 38.8965C37.5 37.5586 38.6523 36.3379 38.7304 36.1621C39.248 34.9609 38.0761 33.7305 36.8457 34.1797C36.6992 34.2383 35.9375 34.9219 35.1562 35.6934L33.7402 37.1094L32.373 35.7324C31.621 34.9707 30.8691 34.2969 30.6933 34.2188C30.2832 34.043 29.8144 34.0527 29.414 34.248Z" fill="#E50914"/>
<line x1="38" y1="48.5" x2="263" y2="48.5" stroke="#E50914"/>
<path d="M271.55 45.775C271.55 42.9083 272.017 40.675 272.95 39.075C273.883 37.4583 275.517 36.65 277.85 36.65C280.167 36.65 281.792 37.4583 282.725 39.075C283.658 40.675 284.125 42.9083 284.125 45.775C284.125 48.6917 283.658 50.9583 282.725 52.575C281.792 54.1917 280.167 55 277.85 55C275.517 55 273.883 54.1917 272.95 52.575C272.017 50.9583 271.55 48.6917 271.55 45.775ZM281.875 45.775C281.875 44.325 281.775 43.1 281.575 42.1C281.392 41.0833 281 40.2667 280.4 39.65C279.817 39.0333 278.967 38.725 277.85 38.725C276.717 38.725 275.85 39.0333 275.25 39.65C274.667 40.2667 274.275 41.0833 274.075 42.1C273.892 43.1 273.8 44.325 273.8 45.775C273.8 47.275 273.892 48.5333 274.075 49.55C274.275 50.5667 274.667 51.3833 275.25 52C275.85 52.6167 276.717 52.925 277.85 52.925C278.967 52.925 279.817 52.6167 280.4 52C281 51.3833 281.392 50.5667 281.575 49.55C281.775 48.5333 281.875 47.275 281.875 45.775ZM286.748 41C286.748 39.8667 287.09 38.9667 287.773 38.3C288.457 37.6167 289.332 37.275 290.398 37.275C291.465 37.275 292.34 37.6167 293.023 38.3C293.707 38.9667 294.048 39.8667 294.048 41C294.048 42.15 293.707 43.0667 293.023 43.75C292.34 44.4167 291.465 44.75 290.398 44.75C289.332 44.75 288.457 44.4167 287.773 43.75C287.09 43.0667 286.748 42.15 286.748 41ZM301.348 37.55L291.223 55H288.973L299.098 37.55H301.348ZM290.398 38.675C289.832 38.675 289.382 38.875 289.048 39.275C288.732 39.6583 288.573 40.2333 288.573 41C288.573 41.7667 288.732 42.35 289.048 42.75C289.382 43.15 289.832 43.35 290.398 43.35C290.965 43.35 291.415 43.15 291.748 42.75C292.082 42.3333 292.248 41.75 292.248 41C292.248 40.2333 292.082 39.6583 291.748 39.275C291.415 38.875 290.965 38.675 290.398 38.675ZM296.323 51.55C296.323 50.4 296.665 49.4917 297.348 48.825C298.032 48.1417 298.907 47.8 299.973 47.8C301.04 47.8 301.907 48.1417 302.573 48.825C303.257 49.4917 303.598 50.4 303.598 51.55C303.598 52.6833 303.257 53.5917 302.573 54.275C301.907 54.9583 301.04 55.3 299.973 55.3C298.907 55.3 298.032 54.9667 297.348 54.3C296.665 53.6167 296.323 52.7 296.323 51.55ZM299.948 49.225C299.382 49.225 298.932 49.425 298.598 49.825C298.265 50.2083 298.098 50.7833 298.098 51.55C298.098 52.3 298.265 52.875 298.598 53.275C298.932 53.6583 299.382 53.85 299.948 53.85C300.515 53.85 300.965 53.6583 301.298 53.275C301.632 52.875 301.798 52.3 301.798 51.55C301.798 50.7833 301.632 50.2083 301.298 49.825C300.965 49.425 300.515 49.225 299.948 49.225Z" fill="#E50914"/>
</svg>
