<svg width="50" height="50" viewBox="0 0 50 50" fill="none" xmlns="http://www.w3.org/2000/svg">
<circle cx="25" cy="25" r="24" stroke="white" stroke-width="2"/>
<g clip-path="url(#clip0_448_13)">
<path d="M25.2268 17.3018C24.6408 17.3799 24.0549 17.8145 23.801 18.3613C23.6838 18.6055 23.6692 18.7031 23.6643 19.1768L23.6594 19.709L23.2346 19.7969C20.344 20.3779 17.7219 22.1699 16.0862 24.6895C15.3537 25.8125 14.7483 27.2773 14.5139 28.5029C14.4846 28.6641 14.4455 28.835 14.4358 28.8789C14.4113 28.9619 14.9631 28.9668 25.5002 28.9668C36.0373 28.9668 36.5891 28.9619 36.5647 28.8789C36.5549 28.835 36.5158 28.6641 36.4865 28.5029C36.3303 27.6875 35.9738 26.667 35.5539 25.8125C34.0354 22.7314 31.1008 20.4658 27.761 19.7969L27.3313 19.709L27.3459 19.25C27.3606 18.8691 27.3459 18.7373 27.258 18.5029C26.9455 17.6729 26.1154 17.1797 25.2268 17.3018Z" fill="#E50914"/>
<path d="M13 31.1641V31.8965H13.8496H14.6943L15.0752 32.7607C15.2852 33.2393 15.4805 33.6592 15.5049 33.6885C15.5732 33.7812 35.4268 33.7812 35.4951 33.6885C35.5195 33.6592 35.7148 33.2393 35.9248 32.7607L36.3057 31.8965H37.1504H38V31.1641V30.4316H25.5H13V31.1641Z" fill="#E50914"/>
</g>
<defs>
<clipPath id="clip0_448_13">
<rect width="25" height="25" fill="white" transform="translate(13 13)"/>
</clipPath>
</defs>
</svg>
