<svg width="50" height="50" viewBox="0 0 50 50" fill="none" xmlns="http://www.w3.org/2000/svg">
<circle cx="25" cy="25" r="24" stroke="white" stroke-width="2"/>
<path d="M17.6445 14.139C17.0921 14.3796 16.9609 15.1124 17.3929 15.5445C18.0054 16.1624 19.0117 15.6101 18.8531 14.746C18.7546 14.232 18.1367 13.9202 17.6445 14.139Z" fill="#E50914"/>
<path d="M19.4822 16.8352C18.9408 17.5242 18.5416 18.3664 18.465 19.0062L18.4268 19.3125H18.8588H19.2908L19.3564 18.9789C19.4385 18.5469 19.7283 17.9563 20.1057 17.4805C20.2697 17.2672 20.4229 17.0648 20.4393 17.0266C20.4775 16.9445 19.9908 16.4141 19.8814 16.4141C19.8486 16.4141 19.6682 16.6055 19.4822 16.8352Z" fill="#E50914"/>
<path d="M14.582 17.2015C14.0296 17.4421 13.8984 18.1749 14.3304 18.607C14.9429 19.2249 15.9492 18.6726 15.7906 17.8085C15.6921 17.2945 15.0742 16.9827 14.582 17.2015Z" fill="#E50914"/>
<path d="M37.0313 18.5687C36.7798 18.6726 30.9173 21.3413 30.2063 21.6749C29.6595 21.9319 29.3313 22.5663 29.3969 23.228C29.4188 23.414 29.4134 23.5835 29.3915 23.5944C29.3641 23.6108 29.1727 23.5671 28.9649 23.496C27.2641 22.9273 23.7423 23.403 19.8595 24.721C19.3344 24.896 18.8969 25.0382 18.886 25.0273C18.8805 25.0218 18.8477 24.8687 18.8149 24.6827C18.7055 24.0593 18.9079 23.2663 19.3454 22.6101C19.4766 22.4132 19.586 22.2327 19.586 22.2163C19.586 22.1562 19.0665 21.664 19.0063 21.664C18.9134 21.664 18.5032 22.2546 18.3009 22.6757C17.9563 23.3976 17.8415 24.0976 17.9509 24.8194C17.9891 25.0819 18.0274 25.3226 18.0274 25.3444C18.0274 25.3718 17.8305 25.4757 17.5899 25.5687C17.3493 25.6671 16.9063 25.864 16.6055 26.0007C16.3048 26.1319 16.0532 26.2413 16.0477 26.2358C16.0368 26.2304 15.9876 25.9898 15.9274 25.7054C15.7634 24.9233 15.7032 24.2233 15.7032 23.2062C15.7032 22.1835 15.6594 21.9702 15.3805 21.6147C15.293 21.5054 15.0907 21.3413 14.9266 21.2483C14.6751 21.1116 14.5821 21.0898 14.2266 21.0898C13.9094 21.0898 13.7618 21.1226 13.5923 21.2101C13.3024 21.3632 13.0509 21.6147 12.8977 21.9046C12.7829 22.1233 12.7774 22.1944 12.761 23.9335C12.7501 25.1093 12.7227 25.7601 12.6844 25.8038C12.6516 25.8421 12.5532 25.8749 12.4657 25.8749C12.0446 25.8749 11.5907 26.2304 11.4649 26.6679C11.3446 27.0671 11.454 27.9858 11.7384 28.9702C11.7657 29.0468 11.711 29.1562 11.5579 29.3421C11.0712 29.9273 10.9126 30.5015 11.0766 31.0265C11.6071 32.6726 13.0618 34.2804 14.8391 35.1773C17.2016 36.364 20.1657 36.5444 22.9493 35.6694C26.8048 34.4499 29.643 31.5241 30.343 28.0351C30.5345 27.0562 30.4579 25.6452 30.1462 24.639L30.0477 24.3054L30.2719 24.4202C30.4415 24.5023 30.6001 24.5296 30.9063 24.5296C31.311 24.5296 31.3329 24.5187 32.3282 24.0319C32.886 23.7585 34.4829 22.9765 35.8829 22.2983C37.2829 21.6147 38.497 20.9913 38.579 20.9093C38.8579 20.6468 38.9673 20.3679 38.9673 19.9413C38.9673 19.6296 38.9399 19.5038 38.8196 19.2741C38.4368 18.5358 37.7532 18.2624 37.0313 18.5687ZM14.6696 22.1452L14.8118 22.3038L14.8446 23.5562C14.8884 25.4155 15.129 26.6241 15.6977 27.8218C16.2719 29.0249 17.0759 29.9108 18.0712 30.4468L18.3993 30.6218L18.186 30.6819C17.7977 30.7968 16.3977 31.0593 15.8344 31.1304C15.3477 31.1905 15.2384 31.1905 14.9048 31.1085C13.7727 30.8296 13.0126 30.0366 12.5696 28.664C12.3782 28.0733 12.2196 27.0015 12.3071 26.8648C12.3344 26.8265 12.4712 26.7718 12.6134 26.7444C13.0344 26.6679 13.3188 26.4655 13.4829 26.1374L13.6251 25.853V24.1413C13.6251 22.2655 13.636 22.189 13.9423 22.0194C14.1665 21.8937 14.4946 21.9483 14.6696 22.1452ZM31.3548 22.5827C31.5407 22.7687 31.6063 23.0968 31.497 23.3046C31.4095 23.4632 31.0977 23.6874 30.9555 23.6874C30.868 23.6874 30.8735 23.671 30.9884 23.5507C31.3602 23.1843 30.8516 22.5827 30.436 22.8944C30.2884 23.0093 30.2391 22.9929 30.2774 22.8507C30.3266 22.703 30.5126 22.4898 30.6602 22.4241C30.8571 22.3366 31.1852 22.4077 31.3548 22.5827ZM28.0899 24.1796C28.604 24.2562 28.9485 24.3765 29.129 24.5405C29.2548 24.6554 29.2766 24.7101 29.2493 24.8796C29.211 25.1038 28.9266 25.5358 28.6368 25.8202L28.4454 26.0062V25.853C28.4454 25.5304 28.3141 25.246 28.0352 24.9726C27.5048 24.4366 26.8212 24.4202 26.2579 24.9288C25.9735 25.1858 25.9134 25.3171 25.7384 26.1101C25.5743 26.8702 25.2845 27.4608 24.7594 28.1116C24.5188 28.4179 24.4204 28.489 23.9884 28.6913C23.2829 29.0249 21.8282 29.5882 20.8274 29.9218L19.9634 30.2062L19.5696 30.1077C18.711 29.8999 17.7048 29.2546 17.1743 28.5765C16.7915 28.0788 16.3594 27.3132 16.3594 27.1218C16.3594 27.0726 17.0649 26.7335 17.8852 26.3944C18.2462 26.2413 18.4102 26.1976 18.4266 26.2468C18.443 26.296 18.8587 26.8976 18.9626 27.0179C18.9735 27.0288 19.1266 26.9085 19.3126 26.7499L19.6407 26.4655L19.4493 26.203C19.3454 26.0608 19.2579 25.9187 19.2579 25.8913C19.2579 25.8366 20.8821 25.2843 21.8938 24.9999C23.1462 24.6444 24.8743 24.2999 26.0118 24.1851C26.6407 24.1194 27.6469 24.1194 28.0899 24.1796ZM27.4337 25.5741C27.5157 25.6507 27.5704 25.7655 27.5704 25.8585C27.5649 26.1155 27.4337 26.6733 27.3407 26.8101C27.2587 26.9304 26.4657 27.4608 26.236 27.5483C26.143 27.5866 26.143 27.5812 26.2305 27.4062C26.3837 27.1108 26.5313 26.646 26.6407 26.121C26.7118 25.7655 26.772 25.6069 26.8595 25.5358C27.0345 25.3937 27.2751 25.4101 27.4337 25.5741ZM12.8759 30.9499L13.1602 31.2507L12.9141 31.2124C12.5259 31.1523 12.1704 31.021 12.0118 30.8733C11.886 30.7585 11.8696 30.7038 11.8915 30.5452C11.9079 30.4413 11.979 30.2718 12.0391 30.1624L12.1594 29.9765L12.3727 30.3101C12.493 30.496 12.7173 30.7804 12.8759 30.9499Z" fill="#E50914"/>
<path d="M14.0846 29.1398C14.1775 29.6703 14.6916 30.4031 15.2604 30.8188C15.408 30.9281 15.5393 31.0156 15.5557 31.0156C15.5775 31.0156 15.6924 30.868 15.8127 30.6875L16.0369 30.3539L15.6213 29.9656C15.326 29.6922 15.1674 29.4898 15.058 29.2602L14.9104 28.9375H14.4783H14.0518L14.0846 29.1398Z" fill="#E50914"/>
<path d="M18.875 28.0625V28.5H19.3125H19.75V28.0625V27.625H19.3125H18.875V28.0625Z" fill="#E50914"/>
<path d="M11.875 19.75V20.1875H12.3125H12.75V19.75V19.3125H12.3125H11.875V19.75Z" fill="#E50914"/>
<path d="M16.6875 20.1875V20.625H17.125H17.5625V20.1875V19.75H17.125H16.6875V20.1875Z" fill="#E50914"/>
<path d="M16.25 24.125V24.5625H16.6875H17.125V24.125V23.6875H16.6875H16.25V24.125Z" fill="#E50914"/>
</svg>
