<svg width="50" height="50" viewBox="0 0 50 50" fill="none" xmlns="http://www.w3.org/2000/svg">
<circle cx="25" cy="25" r="24" stroke="white" stroke-width="2"/>
<g clip-path="url(#clip0_448_11)">
<path d="M15.9766 15.4609V16.9219H15.418H14.8594V17.5664V18.2109H15.418H15.9766V19.4141V20.6172H15.418H14.8594V21.2617V21.9062H15.418H15.9766V21.2617V20.6172L17.1926 20.6258L18.4043 20.6387L18.4172 21.2703L18.4301 21.9062L17.2141 21.9148L15.998 21.9277L15.9852 23.1395L15.9766 24.3555H15.418H14.8594V25V25.6445H15.418H15.9766L15.9852 26.8562L15.998 28.0723L17.2141 28.0852L18.4301 28.0938L18.4172 28.7297L18.4043 29.3613L17.1926 29.3742L15.9766 29.3828V28.7383V28.0938H15.418H14.8594V28.7383V29.3828H15.418H15.9766V30.5859V31.7891H15.418H14.8594V32.4336V33.0781H15.418H15.9766V34.5391V36H25.5586H35.1406V25V14H25.5586H15.9766V15.4609ZM18.4258 17.5664V18.2109H17.2012H15.9766V17.5664V16.9219H17.2012H18.4258V17.5664ZM25.6445 18.0176L26.0914 18.4688L24.6133 19.9211C23.7969 20.7203 23.118 21.3863 23.1008 21.3949C23.0836 21.4035 22.6539 20.9953 22.1426 20.4926L21.2145 19.5688L21.6656 19.1176L22.1211 18.6621L22.6066 19.1477L23.0879 19.6289L24.1191 18.5977C24.6863 18.0305 25.159 17.5664 25.1719 17.5664C25.1848 17.5664 25.3953 17.7684 25.6445 18.0176ZM32.2188 19.6719V20.3164H30.1348H28.0508V19.6719V19.0273H30.1348H32.2188V19.6719ZM25.6445 23.4316L26.0957 23.8828L24.6133 25.3652C23.7969 26.1816 23.1137 26.8477 23.0879 26.8477C23.0621 26.8477 22.6281 26.4309 22.1211 25.9238L21.1973 25L21.6613 24.5402L22.1211 24.0762L22.6066 24.5617L23.0879 25.043L24.1191 24.0117C24.6863 23.4445 25.159 22.9805 25.1719 22.9805C25.1848 22.9805 25.3953 23.1824 25.6445 23.4316ZM18.4258 25V25.6445H17.2012H15.9766V25V24.3555H17.2012H18.4258V25ZM32.2188 25V25.6445H30.1348H28.0508V25V24.3555H30.1348H32.2188V25ZM25.6445 28.8457L26.0957 29.2969L24.6133 30.7793C23.7969 31.5957 23.1137 32.2617 23.0879 32.2617C23.0621 32.2617 22.6281 31.8449 22.1211 31.3379L21.1973 30.4141L21.6613 29.9543L22.1211 29.4902L22.6066 29.9758L23.0879 30.457L24.1191 29.4258C24.6863 28.8586 25.159 28.3945 25.1719 28.3945C25.1848 28.3945 25.3953 28.5965 25.6445 28.8457ZM32.2188 30.7578V31.4023H30.1348H28.0508V30.7578V30.1133H30.1348H32.2188V30.7578ZM18.4258 32.4336V33.0781H17.2012H15.9766V32.4336V31.7891H17.2012H18.4258V32.4336Z" fill="#E50914"/>
</g>
<defs>
<clipPath id="clip0_448_11">
<rect width="22" height="22" fill="white" transform="translate(14 14)"/>
</clipPath>
</defs>
</svg>
