<svg width="318" height="65" viewBox="0 0 318 65" fill="none" xmlns="http://www.w3.org/2000/svg">
<path d="M26.416 0.869217C18.4766 5.41023 13.9355 10.5958 12.0801 17.2364C11.4844 19.3555 11.1328 21.836 11.1328 23.9649V24.9219L8.38867 22.2559C6.88477 20.7813 5.09766 19.0528 4.43359 18.418L3.21289 17.2559L3.25195 24.2286C3.28125 30.2735 3.31055 31.338 3.45703 32.2266C4.375 37.793 6.28906 41.7384 9.54102 44.8243C12.0605 47.2071 15.127 48.6134 18.7988 49.0723C20.0391 49.2286 22.998 49.2774 23.0859 49.1407C23.1152 49.0919 22.7832 48.711 22.3535 48.2813C20.0488 46.0059 18.5059 43.0762 17.8906 39.795C17.6367 38.4278 17.666 35.6251 17.9492 34.1993C18.9941 28.9649 22.2168 24.6973 26.7871 22.5098C29.1016 21.3966 30.9961 20.9766 33.6914 20.9669C36.5234 20.9571 37.7734 21.2501 41.2305 22.7344C41.3281 22.7735 41.2598 22.2559 40.9082 20.1173C40.3809 16.9825 39.541 14.0137 38.5254 11.7091C38.0273 10.5665 36.6211 7.99812 36.5332 8.05672C36.5039 8.07625 34.5605 9.56062 32.2266 11.3673L27.9785 14.6387L27.9297 7.33406L27.8809 0.0293732L26.416 0.869217Z" fill="#E50914"/>
<path d="M32.0508 24.0234C29.2969 24.4141 26.8555 25.6152 24.834 27.5684C22.9102 29.4336 21.7481 31.416 21.0743 33.9844C20.6934 35.4492 20.5957 37.6172 20.8399 39.0625C21.6602 43.7695 25.127 47.8906 29.4922 49.3555C30.8887 49.8145 31.7676 49.9512 33.4961 49.9414C35.2832 49.9414 36.2012 49.8047 37.7247 49.3066C41.0352 48.2324 43.8868 45.8398 45.3907 42.8906C46.2793 41.1523 46.6602 39.6875 46.7481 37.6465C46.9043 33.9063 45.5762 30.4395 43.0176 27.8809C41.1133 25.9668 39.1407 24.8926 36.4258 24.2578C35.2735 23.9844 33.1153 23.877 32.0508 24.0234ZM31.1817 31.2012C31.9727 31.4063 32.6075 31.7481 33.2129 32.3047L33.7403 32.793L34.2676 32.3047C35.2344 31.416 36.4258 30.9961 37.6954 31.084C40.9668 31.3086 42.8809 34.7656 41.3477 37.6953C41.0645 38.2324 40.459 38.8965 37.3731 41.9727L33.7403 45.6055L30.0196 41.875C26.504 38.3398 26.2891 38.0957 25.9864 37.4316C25.1075 35.4785 25.7715 33.0664 27.5098 31.8652C28.584 31.1231 29.9512 30.8789 31.1817 31.2012Z" fill="#E50914"/>
<path d="M29.414 34.248C28.8183 34.541 28.5253 35.1855 28.6621 35.9082C28.7207 36.2305 29.0722 36.6211 31.2304 38.7988L33.7402 41.3086L36.1621 38.8965C37.5 37.5586 38.6523 36.3379 38.7304 36.1621C39.248 34.9609 38.0761 33.7305 36.8457 34.1797C36.6992 34.2383 35.9375 34.9219 35.1562 35.6934L33.7402 37.1094L32.373 35.7324C31.621 34.9707 30.8691 34.2969 30.6933 34.2188C30.2832 34.043 29.8144 34.0527 29.414 34.248Z" fill="#E50914"/>
<path d="M268 50.975V49.25L276.775 37.1H279.5V49H282V50.975H279.5V55H277.25V50.975H268ZM277.35 39.475L270.625 49H277.35V39.475ZM287.198 50.15C287.364 51.1 287.748 51.8333 288.348 52.35C288.964 52.8667 289.789 53.125 290.823 53.125C292.206 53.125 293.223 52.5833 293.873 51.5C294.539 50.4167 294.856 48.5917 294.823 46.025C294.473 46.775 293.889 47.3667 293.073 47.8C292.256 48.2167 291.348 48.425 290.348 48.425C289.231 48.425 288.231 48.2 287.348 47.75C286.481 47.2833 285.798 46.6083 285.298 45.725C284.798 44.8417 284.548 43.775 284.548 42.525C284.548 40.7417 285.064 39.3083 286.098 38.225C287.131 37.125 288.598 36.575 290.498 36.575C292.831 36.575 294.464 37.3333 295.398 38.85C296.348 40.3667 296.823 42.625 296.823 45.625C296.823 47.725 296.631 49.4583 296.248 50.825C295.881 52.1917 295.248 53.2333 294.348 53.95C293.464 54.6667 292.248 55.025 290.698 55.025C288.998 55.025 287.673 54.5667 286.723 53.65C285.773 52.7333 285.231 51.5667 285.098 50.15H287.198ZM290.723 46.5C291.839 46.5 292.756 46.1583 293.473 45.475C294.189 44.775 294.548 43.8333 294.548 42.65C294.548 41.4 294.198 40.3917 293.498 39.625C292.798 38.8583 291.814 38.475 290.548 38.475C289.381 38.475 288.448 38.8417 287.748 39.575C287.064 40.3083 286.723 41.275 286.723 42.475C286.723 43.6917 287.064 44.6667 287.748 45.4C288.431 46.1333 289.423 46.5 290.723 46.5ZM299.52 41C299.52 39.8667 299.861 38.9667 300.545 38.3C301.228 37.6167 302.103 37.275 303.17 37.275C304.236 37.275 305.111 37.6167 305.795 38.3C306.478 38.9667 306.82 39.8667 306.82 41C306.82 42.15 306.478 43.0667 305.795 43.75C305.111 44.4167 304.236 44.75 303.17 44.75C302.103 44.75 301.228 44.4167 300.545 43.75C299.861 43.0667 299.52 42.15 299.52 41ZM314.12 37.55L303.995 55H301.745L311.87 37.55H314.12ZM303.17 38.675C302.603 38.675 302.153 38.875 301.82 39.275C301.503 39.6583 301.345 40.2333 301.345 41C301.345 41.7667 301.503 42.35 301.82 42.75C302.153 43.15 302.603 43.35 303.17 43.35C303.736 43.35 304.186 43.15 304.52 42.75C304.853 42.3333 305.02 41.75 305.02 41C305.02 40.2333 304.853 39.6583 304.52 39.275C304.186 38.875 303.736 38.675 303.17 38.675ZM309.095 51.55C309.095 50.4 309.436 49.4917 310.12 48.825C310.803 48.1417 311.678 47.8 312.745 47.8C313.811 47.8 314.678 48.1417 315.345 48.825C316.028 49.4917 316.37 50.4 316.37 51.55C316.37 52.6833 316.028 53.5917 315.345 54.275C314.678 54.9583 313.811 55.3 312.745 55.3C311.678 55.3 310.803 54.9667 310.12 54.3C309.436 53.6167 309.095 52.7 309.095 51.55ZM312.72 49.225C312.153 49.225 311.703 49.425 311.37 49.825C311.036 50.2083 310.87 50.7833 310.87 51.55C310.87 52.3 311.036 52.875 311.37 53.275C311.703 53.6583 312.153 53.85 312.72 53.85C313.286 53.85 313.736 53.6583 314.07 53.275C314.403 52.875 314.57 52.3 314.57 51.55C314.57 50.7833 314.403 50.2083 314.07 49.825C313.736 49.425 313.286 49.225 312.72 49.225Z" fill="#E50914"/>
</svg>
